<?xml version="1.0" encoding="UTF-8"?><svg id="Layer_1" xmlns="http://www.w3.org/2000/svg" viewBox="0 0 1202.26 701.16"><defs><style>.cls-1,.cls-2,.cls-3,.cls-4,.cls-5,.cls-6,.cls-7,.cls-8,.cls-9,.cls-10,.cls-11,.cls-12,.cls-13,.cls-14,.cls-15{fill:none;stroke-miterlimit:10;}.cls-1,.cls-2,.cls-5,.cls-6{stroke-width:1.13px;}.cls-1,.cls-2,.cls-5,.cls-6,.cls-16{opacity:.9;}.cls-1,.cls-2,.cls-5,.cls-6,.cls-15{fill-rule:evenodd;}.cls-1,.cls-5{stroke:#e26f37;}.cls-2,.cls-6{stroke:#a8d7b1;}.cls-3,.cls-4,.cls-7,.cls-8,.cls-9,.cls-10,.cls-12,.cls-13,.cls-14{stroke:#c2c1c1;stroke-width:.28px;}.cls-4{stroke-dasharray:0 0 12.14 12.14;}.cls-17{fill:#010101;}.cls-18{fill:#e26f39;}.cls-19{fill:#231f20;}.cls-5,.cls-6{stroke-dasharray:0 2.83;}.cls-7{stroke-dasharray:0 0 12.14 12.14;}.cls-8{stroke-dasharray:0 0 11.8 11.8;}.cls-9{stroke-dasharray:0 0 12.14 12.14;}.cls-10{stroke-dasharray:0 0 12.14 12.14;}.cls-11,.cls-15{stroke:#010101;stroke-width:.57px;}.cls-12{stroke-dasharray:0 0 11.98 11.98;}.cls-13{stroke-dasharray:0 0 12.14 12.14;}.cls-14{stroke-dasharray:0 0 12.14 12.14;}.cls-16{fill:#a8d7b1;}</style></defs><path class="cls-5" d="M123.46,42.06c0,3.81-3.08,6.89-6.89,6.89s-6.89-3.08-6.89-6.89,3.08-6.89,6.89-6.89,6.89,3.08,6.89,6.89" vector-effect="none"/><path class="cls-6" d="M762.17,562.37c0,3.81-3.08,6.89-6.89,6.89s-6.89-3.08-6.89-6.89,3.08-6.89,6.89-6.89,6.89,3.08,6.89,6.89" vector-effect="none"/><path class="cls-6" d="M480.29,521.11c0,3.81-3.08,6.89-6.89,6.89s-6.89-3.08-6.89-6.89,3.08-6.89,6.89-6.89,6.89,3.08,6.89,6.89" vector-effect="none"/><path class="cls-6" d="M532.2,520.65c0,3.81-3.08,6.89-6.89,6.89s-6.89-3.08-6.89-6.89,3.08-6.89,6.89-6.89,6.89,3.08,6.89,6.89" vector-effect="none"/><path class="cls-1" d="M762.17,479.12c0,3.81-3.08,6.89-6.89,6.89s-6.89-3.08-6.89-6.89,3.08-6.89,6.89-6.89,6.89,3.08,6.89,6.89" vector-effect="none"/><path class="cls-1" d="M762.17,520.22c0,3.81-3.08,6.89-6.89,6.89s-6.89-3.08-6.89-6.89,3.08-6.89,6.89-6.89,6.89,3.08,6.89,6.89" vector-effect="none"/><path class="cls-1" d="M736.62,520.9c0,3.81-3.08,6.89-6.89,6.89s-6.89-3.08-6.89-6.89,3.08-6.89,6.89-6.89,6.89,3.08,6.89,6.89" vector-effect="none"/><path class="cls-1" d="M736.62,534.68c0,3.81-3.08,6.89-6.89,6.89s-6.89-3.08-6.89-6.89,3.08-6.89,6.89-6.89,6.89,3.08,6.89,6.89" vector-effect="none"/><path class="cls-1" d="M711.07,368.52c0,3.81-3.08,6.89-6.89,6.89s-6.89-3.08-6.89-6.89,3.08-6.89,6.89-6.89,6.89,3.08,6.89,6.89" vector-effect="none"/><path class="cls-1" d="M864.36,430.68c0,3.81-3.08,6.89-6.89,6.89s-6.89-3.08-6.89-6.89,3.08-6.89,6.89-6.89,6.89,3.08,6.89,6.89" vector-effect="none"/><path class="cls-1" d="M838.81,479.12c0,3.81-3.08,6.89-6.89,6.89s-6.89-3.08-6.89-6.89,3.08-6.89,6.89-6.89,6.89,3.08,6.89,6.89" vector-effect="none"/><path class="cls-1" d="M915.46,527.7c0,3.81-3.08,6.89-6.89,6.89s-6.89-3.08-6.89-6.89,3.08-6.89,6.89-6.89,6.89,3.08,6.89,6.89" vector-effect="none"/><path class="cls-1" d="M941.04,583.25c0,3.81-3.08,6.89-6.89,6.89s-6.89-3.08-6.89-6.89,3.08-6.89,6.89-6.89,6.89,3.08,6.89,6.89" vector-effect="none"/><path class="cls-1" d="M813.6,520.9c0,3.81-3.08,6.89-6.89,6.89s-6.89-3.08-6.89-6.89,3.08-6.89,6.89-6.89,6.89,3.08,6.89,6.89" vector-effect="none"/><path class="cls-1" d="M966.55,430.68c0,3.81-3.08,6.89-6.89,6.89s-6.89-3.08-6.89-6.89,3.08-6.89,6.89-6.89,6.89,3.08,6.89,6.89" vector-effect="none"/><path class="cls-1" d="M941,479.21c0,3.81-3.08,6.89-6.89,6.89s-6.89-3.08-6.89-6.89,3.08-6.89,6.89-6.89,6.89,3.08,6.89,6.89" vector-effect="none"/><path class="cls-1" d="M1094.29,576.2c0,3.81-3.08,6.89-6.89,6.89s-6.89-3.08-6.89-6.89,3.08-6.89,6.89-6.89,6.89,3.08,6.89,6.89" vector-effect="none"/><path class="cls-1" d="M1068.75,576.2c0,3.81-3.08,6.89-6.89,6.89s-6.89-3.08-6.89-6.89,3.08-6.89,6.89-6.89,6.89,3.08,6.89,6.89" vector-effect="none"/><path class="cls-1" d="M711.07,395.91c0,3.81-3.08,6.89-6.89,6.89s-6.89-3.08-6.89-6.89,3.08-6.89,6.89-6.89,6.89,3.08,6.89,6.89" vector-effect="none"/><path class="cls-1" d="M685.52,430.68c0,3.81-3.08,6.89-6.89,6.89s-6.89-3.08-6.89-6.89,3.08-6.89,6.89-6.89,6.89,3.08,6.89,6.89" vector-effect="none"/><path class="cls-1" d="M557.78,472.31c0,3.81-3.08,6.89-6.89,6.89s-6.89-3.08-6.89-6.89,3.08-6.89,6.89-6.89,6.89,3.08,6.89,6.89" vector-effect="none"/><path class="cls-1" d="M583.33,479.2c0,3.81-3.08,6.89-6.89,6.89s-6.89-3.08-6.89-6.89,3.08-6.89,6.89-6.89,6.89,3.08,6.89,6.89" vector-effect="none"/><path class="cls-1" d="M506.69,479.02c0,3.81-3.08,6.89-6.89,6.89s-6.89-3.08-6.89-6.89,3.08-6.89,6.89-6.89,6.89,3.08,6.89,6.89" vector-effect="none"/><path class="cls-1" d="M480.29,534.89c0,3.81-3.08,6.89-6.89,6.89s-6.89-3.08-6.89-6.89,3.08-6.89,6.89-6.89,6.89,3.08,6.89,6.89" vector-effect="none"/><path class="cls-1" d="M481.14,583.09c0,3.81-3.08,6.89-6.89,6.89s-6.89-3.08-6.89-6.89,3.08-6.89,6.89-6.89,6.89,3.08,6.89,6.89" vector-effect="none"/><path class="cls-1" d="M404.49,576.2c0,3.81-3.08,6.89-6.89,6.89s-6.89-3.08-6.89-6.89,3.08-6.89,6.89-6.89,6.89,3.08,6.89,6.89" vector-effect="none"/><path class="cls-1" d="M353.4,612.67c0,3.81-3.08,6.89-6.89,6.89s-6.89-3.08-6.89-6.89,3.08-6.89,6.89-6.89,6.89,3.08,6.89,6.89" vector-effect="none"/><path class="cls-1" d="M353.4,637.86c0,3.81-3.08,6.89-6.89,6.89s-6.89-3.08-6.89-6.89,3.08-6.89,6.89-6.89,6.89,3.08,6.89,6.89" vector-effect="none"/><path class="cls-1" d="M327.61,472.32c0,3.81-3.08,6.89-6.89,6.89s-6.89-3.08-6.89-6.89,3.08-6.89,6.89-6.89,6.89,3.08,6.89,6.89" vector-effect="none"/><path class="cls-1" d="M200.11,430.68c0,3.81-3.08,6.89-6.89,6.89s-6.89-3.08-6.89-6.89,3.08-6.89,6.89-6.89,6.89,3.08,6.89,6.89" vector-effect="none"/><path class="cls-1" d="M149.01,472.35c0,3.81-3.08,6.89-6.89,6.89s-6.89-3.08-6.89-6.89,3.08-6.89,6.89-6.89,6.89,3.08,6.89,6.89" vector-effect="none"/><path class="cls-1" d="M149.01,486.12c0,3.81-3.08,6.89-6.89,6.89s-6.89-3.08-6.89-6.89,3.08-6.89,6.89-6.89,6.89,3.08,6.89,6.89" vector-effect="none"/><path class="cls-1" d="M251.2,535.05c0,3.81-3.08,6.89-6.89,6.89s-6.89-3.08-6.89-6.89,3.08-6.89,6.89-6.89,6.89,3.08,6.89,6.89" vector-effect="none"/><path class="cls-1" d="M378.95,382.13c0,3.81-3.08,6.89-6.89,6.89s-6.89-3.08-6.89-6.89,3.08-6.89,6.89-6.89,6.89,3.08,6.89,6.89" vector-effect="none"/><path class="cls-1" d="M557.78,499.88c0,3.81-3.08,6.89-6.89,6.89s-6.89-3.08-6.89-6.89,3.08-6.89,6.89-6.89,6.89,3.08,6.89,6.89" vector-effect="none"/><path class="cls-1" d="M634.43,520.75c0,3.81-3.08,6.89-6.89,6.89s-6.89-3.08-6.89-6.89,3.08-6.89,6.89-6.89,6.89,3.08,6.89,6.89" vector-effect="none"/><path class="cls-1" d="M659.98,565.56c0,3.81-3.08,6.89-6.89,6.89s-6.89-3.08-6.89-6.89,3.08-6.89,6.89-6.89,6.89,3.08,6.89,6.89" vector-effect="none"/><path class="cls-1" d="M634.43,534.53c0,3.81-3.08,6.89-6.89,6.89s-6.89-3.08-6.89-6.89,3.08-6.89,6.89-6.89,6.89,3.08,6.89,6.89" vector-effect="none"/><path class="cls-1" d="M557.78,458.54c0,3.81-3.08,6.89-6.89,6.89s-6.89-3.08-6.89-6.89,3.08-6.89,6.89-6.89,6.89,3.08,6.89,6.89" vector-effect="none"/><path class="cls-1" d="M557.78,382.14c0,3.81-3.08,6.89-6.89,6.89s-6.89-3.08-6.89-6.89,3.08-6.89,6.89-6.89,6.89,3.08,6.89,6.89" vector-effect="none"/><g><line class="cls-3" x1="142.12" y1="624.72" x2="142.12" y2="42.28"/><line class="cls-3" x1="193.22" y1="624.72" x2="193.22" y2="42.28"/><line class="cls-3" x1="244.32" y1="624.89" x2="244.32" y2="42.28"/><line class="cls-3" x1="295.41" y1="624.91" x2="295.41" y2="42.28"/><line class="cls-3" x1="346.51" y1="624.91" x2="346.51" y2="42.28"/><line class="cls-3" x1="397.6" y1="624.91" x2="397.6" y2="42.28"/><line class="cls-3" x1="448.7" y1="624.91" x2="448.7" y2="42.28"/><line class="cls-3" x1="499.8" y1="624.91" x2="499.8" y2="42.28"/><line class="cls-3" x1="550.89" y1="624.91" x2="550.89" y2="42.28"/><line class="cls-3" x1="601.99" y1="624.91" x2="601.99" y2="42.28"/><line class="cls-3" x1="653.09" y1="624.91" x2="653.09" y2="42.28"/><line class="cls-3" x1="704.18" y1="624.91" x2="704.18" y2="42.28"/><line class="cls-3" x1="755.28" y1="624.91" x2="755.28" y2="42.28"/><line class="cls-3" x1="806.38" y1="624.91" x2="806.38" y2="42.28"/><line class="cls-3" x1="857.47" y1="624.91" x2="857.47" y2="42.28"/><line class="cls-3" x1="908.57" y1="624.91" x2="908.57" y2="42.28"/><line class="cls-3" x1="959.66" y1="624.91" x2="959.66" y2="42.28"/><line class="cls-3" x1="1010.76" y1="624.91" x2="1010.76" y2="42.28"/><line class="cls-3" x1="1061.86" y1="624.91" x2="1061.86" y2="42.28"/></g><g><g><line class="cls-3" x1="116.57" y1="624.89" x2="116.57" y2="618.89"/><line class="cls-8" x1="116.57" y1="607.09" x2="116.57" y2="46.55"/><line class="cls-3" x1="116.57" y1="40.65" x2="116.57" y2="34.65"/></g><g><line class="cls-3" x1="167.67" y1="617.28" x2="167.67" y2="611.28"/><line class="cls-12" x1="167.67" y1="599.3" x2="167.67" y2="54.27"/><line class="cls-3" x1="167.67" y1="48.28" x2="167.67" y2="42.28"/></g><g><line class="cls-3" x1="218.77" y1="624.89" x2="218.77" y2="618.89"/><line class="cls-9" x1="218.77" y1="606.75" x2="218.77" y2="54.35"/><line class="cls-3" x1="218.77" y1="48.28" x2="218.77" y2="42.28"/></g><g><line class="cls-3" x1="269.86" y1="624.89" x2="269.86" y2="618.89"/><line class="cls-9" x1="269.86" y1="606.75" x2="269.86" y2="54.35"/><line class="cls-3" x1="269.86" y1="48.28" x2="269.86" y2="42.28"/></g><g><line class="cls-3" x1="320.96" y1="624.89" x2="320.96" y2="618.89"/><line class="cls-9" x1="320.96" y1="606.75" x2="320.96" y2="54.35"/><line class="cls-3" x1="320.96" y1="48.28" x2="320.96" y2="42.28"/></g><g><line class="cls-3" x1="372.06" y1="625.01" x2="372.06" y2="619.02"/><line class="cls-14" x1="372.06" y1="606.87" x2="372.06" y2="54.36"/><line class="cls-3" x1="372.06" y1="48.28" x2="372.06" y2="42.28"/></g><g><line class="cls-3" x1="423.15" y1="624.89" x2="423.15" y2="618.89"/><line class="cls-9" x1="423.15" y1="606.75" x2="423.15" y2="54.35"/><line class="cls-3" x1="423.15" y1="48.28" x2="423.15" y2="42.28"/></g><g><line class="cls-3" x1="474.25" y1="624.91" x2="474.25" y2="618.92"/><line class="cls-10" x1="474.25" y1="606.77" x2="474.25" y2="54.35"/><line class="cls-3" x1="474.25" y1="48.28" x2="474.25" y2="42.28"/></g><g><line class="cls-3" x1="525.35" y1="624.89" x2="525.35" y2="618.89"/><line class="cls-9" x1="525.35" y1="606.75" x2="525.35" y2="54.35"/><line class="cls-3" x1="525.35" y1="48.28" x2="525.35" y2="42.28"/></g><g><line class="cls-3" x1="576.44" y1="624.89" x2="576.44" y2="618.89"/><line class="cls-9" x1="576.44" y1="606.75" x2="576.44" y2="54.35"/><line class="cls-3" x1="576.44" y1="48.28" x2="576.44" y2="42.28"/></g><g><line class="cls-3" x1="627.54" y1="624.89" x2="627.54" y2="618.89"/><line class="cls-7" x1="627.54" y1="606.75" x2="627.54" y2="54.35"/><line class="cls-3" x1="627.54" y1="48.28" x2="627.54" y2="42.28"/></g><g><line class="cls-3" x1="678.63" y1="624.89" x2="678.63" y2="618.89"/><line class="cls-4" x1="678.63" y1="606.75" x2="678.63" y2="54.35"/><line class="cls-3" x1="678.63" y1="48.28" x2="678.63" y2="42.28"/></g><g><line class="cls-3" x1="729.73" y1="624.89" x2="729.73" y2="618.89"/><line class="cls-9" x1="729.73" y1="606.75" x2="729.73" y2="54.35"/><line class="cls-3" x1="729.73" y1="48.28" x2="729.73" y2="42.28"/></g><g><line class="cls-3" x1="780.83" y1="624.89" x2="780.83" y2="618.89"/><line class="cls-9" x1="780.83" y1="606.75" x2="780.83" y2="54.35"/><line class="cls-3" x1="780.83" y1="48.28" x2="780.83" y2="42.28"/></g><g><line class="cls-3" x1="831.92" y1="624.89" x2="831.92" y2="618.89"/><line class="cls-9" x1="831.92" y1="606.75" x2="831.92" y2="54.35"/><line class="cls-3" x1="831.92" y1="48.28" x2="831.92" y2="42.28"/></g><g><line class="cls-3" x1="883.02" y1="624.91" x2="883.02" y2="618.92"/><line class="cls-10" x1="883.02" y1="606.77" x2="883.02" y2="54.35"/><line class="cls-3" x1="883.02" y1="48.28" x2="883.02" y2="42.28"/></g><g><line class="cls-3" x1="934.12" y1="624.91" x2="934.12" y2="618.92"/><line class="cls-10" x1="934.12" y1="606.77" x2="934.12" y2="54.35"/><line class="cls-3" x1="934.12" y1="48.28" x2="934.12" y2="42.28"/></g><g><line class="cls-3" x1="985.21" y1="624.89" x2="985.21" y2="618.89"/><line class="cls-9" x1="985.21" y1="606.75" x2="985.21" y2="54.35"/><line class="cls-3" x1="985.21" y1="48.28" x2="985.21" y2="42.28"/></g><g><line class="cls-3" x1="1036.31" y1="624.89" x2="1036.31" y2="618.89"/><line class="cls-9" x1="1036.31" y1="606.75" x2="1036.31" y2="54.35"/><line class="cls-3" x1="1036.31" y1="48.28" x2="1036.31" y2="42.28"/></g><g><line class="cls-3" x1="1087.4" y1="624.91" x2="1087.4" y2="618.92"/><line class="cls-13" x1="1087.4" y1="606.77" x2="1087.4" y2="54.34"/><line class="cls-3" x1="1087.4" y1="48.27" x2="1087.4" y2="42.27"/></g></g><g><path class="cls-17" d="M28.74,44.81c.42-.04,.79-.15,1.1-.31,.31-.17,.57-.42,.78-.75,.21-.34,.36-.81,.45-1.42h.97v13.31h-1.2v-9.89h-3.52v-.86c.52-.01,.99-.04,1.42-.09Z"/><path class="cls-17" d="M38.22,53.09c.17,.38,.4,.71,.69,.98s.63,.48,1.03,.63c.39,.15,.82,.22,1.27,.22,.52,0,.98-.1,1.39-.29,.41-.2,.75-.46,1.05-.8,.29-.34,.51-.72,.67-1.16,.15-.44,.23-.9,.23-1.38s-.09-.95-.26-1.37c-.17-.42-.41-.78-.7-1.09-.3-.31-.66-.55-1.07-.73s-.87-.27-1.37-.27c-.61,0-1.17,.14-1.69,.41-.52,.27-.94,.66-1.27,1.17h-1.03l1.29-6.9h6.66v1.1h-5.82l-.86,4.41,.04,.04c.33-.39,.75-.7,1.26-.91,.51-.22,1.03-.32,1.56-.32,.68,0,1.3,.11,1.85,.34,.55,.23,1.02,.55,1.41,.95s.68,.89,.89,1.45c.21,.56,.31,1.18,.31,1.85s-.12,1.25-.36,1.8c-.24,.55-.57,1.03-.99,1.43s-.91,.71-1.47,.93c-.56,.22-1.16,.33-1.8,.33s-1.2-.09-1.72-.28c-.53-.18-.98-.45-1.37-.8s-.69-.78-.92-1.28c-.23-.51-.35-1.08-.36-1.71h1.2c.01,.46,.1,.88,.28,1.26Z"/><path class="cls-17" d="M54.29,42.85c.6,.42,1.07,.97,1.41,1.63,.34,.66,.56,1.39,.68,2.21,.12,.81,.18,1.6,.18,2.38s-.06,1.58-.18,2.4c-.12,.81-.35,1.55-.68,2.21-.34,.66-.81,1.2-1.41,1.62-.6,.42-1.39,.63-2.37,.63s-1.75-.21-2.36-.63-1.08-.96-1.42-1.62c-.34-.66-.56-1.39-.68-2.21-.12-.81-.18-1.6-.18-2.38s.06-1.58,.18-2.4,.35-1.55,.68-2.21,.81-1.2,1.42-1.63,1.39-.64,2.36-.64,1.77,.21,2.37,.64Zm-4.19,.96c-.46,.39-.8,.88-1.04,1.46-.23,.58-.39,1.22-.47,1.9-.08,.68-.11,1.31-.11,1.88s.04,1.21,.11,1.89c.08,.68,.23,1.31,.47,1.9,.23,.59,.58,1.08,1.04,1.47,.46,.39,1.06,.59,1.83,.59s1.37-.2,1.83-.59c.46-.39,.8-.88,1.04-1.47,.23-.59,.39-1.22,.47-1.9,.08-.68,.11-1.31,.11-1.89s-.04-1.2-.11-1.88c-.08-.68-.23-1.32-.47-1.9-.23-.58-.58-1.07-1.04-1.46-.46-.39-1.06-.59-1.83-.59s-1.37,.2-1.83,.59Z"/><path class="cls-17" d="M59.36,53.09c.17,.38,.4,.71,.69,.98s.63,.48,1.03,.63c.39,.15,.82,.22,1.27,.22,.52,0,.98-.1,1.39-.29,.41-.2,.75-.46,1.05-.8,.29-.34,.51-.72,.67-1.16,.15-.44,.23-.9,.23-1.38s-.09-.95-.26-1.37c-.17-.42-.41-.78-.7-1.09-.3-.31-.66-.55-1.07-.73s-.87-.27-1.37-.27c-.61,0-1.17,.14-1.69,.41-.52,.27-.94,.66-1.27,1.17h-1.03l1.29-6.9h6.66v1.1h-5.82l-.86,4.41,.04,.04c.33-.39,.75-.7,1.26-.91,.51-.22,1.03-.32,1.56-.32,.68,0,1.3,.11,1.85,.34,.55,.23,1.02,.55,1.41,.95s.68,.89,.89,1.45c.21,.56,.31,1.18,.31,1.85s-.12,1.25-.36,1.8c-.24,.55-.57,1.03-.99,1.43s-.91,.71-1.47,.93c-.56,.22-1.16,.33-1.8,.33s-1.2-.09-1.72-.28c-.53-.18-.98-.45-1.37-.8s-.69-.78-.92-1.28c-.23-.51-.35-1.08-.36-1.71h1.2c.01,.46,.1,.88,.28,1.26Z"/></g><g><path class="cls-17" d="M1143.66,62.37c.42-.04,.79-.15,1.1-.31,.31-.17,.57-.42,.78-.75,.21-.34,.36-.81,.45-1.42h.97v13.31h-1.2v-9.89h-3.52v-.86c.52-.01,.99-.04,1.42-.09Z"/><path class="cls-17" d="M1153.13,70.66c.17,.38,.4,.71,.69,.98s.63,.48,1.03,.63c.39,.15,.82,.22,1.27,.22,.52,0,.98-.1,1.39-.29,.41-.2,.75-.46,1.05-.8,.29-.34,.51-.72,.67-1.16,.15-.44,.23-.9,.23-1.38s-.09-.95-.26-1.37c-.17-.42-.41-.78-.7-1.09-.3-.31-.66-.55-1.07-.73s-.87-.27-1.37-.27c-.61,0-1.17,.14-1.69,.41-.52,.27-.94,.66-1.27,1.17h-1.03l1.29-6.9h6.66v1.1h-5.82l-.86,4.41,.04,.04c.33-.39,.75-.7,1.26-.91,.51-.22,1.03-.32,1.56-.32,.68,0,1.3,.11,1.85,.34,.55,.23,1.02,.55,1.41,.95s.68,.89,.89,1.45c.21,.56,.31,1.18,.31,1.85s-.12,1.25-.36,1.8c-.24,.55-.57,1.03-.99,1.43s-.91,.71-1.47,.93c-.56,.22-1.16,.33-1.8,.33s-1.2-.09-1.72-.28c-.53-.18-.98-.45-1.37-.8s-.69-.78-.92-1.28c-.23-.51-.35-1.08-.36-1.71h1.2c.01,.46,.1,.88,.28,1.26Z"/><path class="cls-17" d="M1168.28,59.89h1.08v9h2v1.01h-2v3.31h-1.1v-3.31h-6.14v-1.16l6.16-8.84Zm-.02,1.75h-.04l-5.02,7.25h5.06v-7.25Z"/><path class="cls-17" d="M1174.28,70.66c.17,.38,.4,.71,.69,.98s.63,.48,1.03,.63c.39,.15,.82,.22,1.27,.22,.52,0,.98-.1,1.39-.29,.41-.2,.75-.46,1.05-.8,.29-.34,.51-.72,.67-1.16,.15-.44,.23-.9,.23-1.38s-.09-.95-.26-1.37c-.17-.42-.41-.78-.7-1.09-.3-.31-.66-.55-1.07-.73s-.87-.27-1.37-.27c-.61,0-1.17,.14-1.69,.41-.52,.27-.94,.66-1.27,1.17h-1.03l1.29-6.9h6.66v1.1h-5.82l-.86,4.41,.04,.04c.33-.39,.75-.7,1.26-.91,.51-.22,1.03-.32,1.56-.32,.68,0,1.3,.11,1.85,.34,.55,.23,1.02,.55,1.41,.95s.68,.89,.89,1.45c.21,.56,.31,1.18,.31,1.85s-.12,1.25-.36,1.8c-.24,.55-.57,1.03-.99,1.43s-.91,.71-1.47,.93c-.56,.22-1.16,.33-1.8,.33s-1.2-.09-1.72-.28c-.53-.18-.98-.45-1.37-.8s-.69-.78-.92-1.28c-.23-.51-.35-1.08-.36-1.71h1.2c.01,.46,.1,.88,.28,1.26Z"/></g><g><path class="cls-17" d="M28.74,114.5c.42-.04,.79-.15,1.1-.31,.31-.17,.57-.42,.78-.75,.21-.34,.36-.81,.45-1.42h.97v13.31h-1.2v-9.89h-3.52v-.86c.52-.01,.99-.04,1.42-.09Z"/><path class="cls-17" d="M38.22,122.79c.17,.38,.4,.71,.69,.98s.63,.48,1.03,.63c.39,.15,.82,.22,1.27,.22,.52,0,.98-.1,1.39-.29,.41-.2,.75-.46,1.05-.8,.29-.34,.51-.72,.67-1.16,.15-.44,.23-.9,.23-1.38s-.09-.95-.26-1.37c-.17-.42-.41-.78-.7-1.09-.3-.31-.66-.55-1.07-.73s-.87-.27-1.37-.27c-.61,0-1.17,.14-1.69,.41-.52,.27-.94,.66-1.27,1.17h-1.03l1.29-6.9h6.66v1.1h-5.82l-.86,4.41,.04,.04c.33-.39,.75-.7,1.26-.91,.51-.22,1.03-.32,1.56-.32,.68,0,1.3,.11,1.85,.34,.55,.23,1.02,.55,1.41,.95s.68,.89,.89,1.45c.21,.56,.31,1.18,.31,1.85s-.12,1.25-.36,1.8c-.24,.55-.57,1.03-.99,1.43s-.91,.71-1.47,.93c-.56,.22-1.16,.33-1.8,.33s-1.2-.09-1.72-.28c-.53-.18-.98-.45-1.37-.8s-.69-.78-.92-1.28c-.23-.51-.35-1.08-.36-1.71h1.2c.01,.46,.1,.88,.28,1.26Z"/><path class="cls-17" d="M55.38,117.09c-.38,.51-.91,.87-1.6,1.07v.04c.88,.18,1.55,.56,2.02,1.15,.47,.59,.7,1.34,.7,2.25,0,.67-.12,1.26-.36,1.76-.24,.5-.57,.92-.99,1.25-.42,.33-.9,.58-1.46,.74-.55,.16-1.14,.25-1.78,.25s-1.21-.08-1.77-.25-1.05-.41-1.46-.74c-.42-.33-.75-.74-.99-1.25s-.36-1.09-.36-1.76c.03-.87,.27-1.62,.74-2.24,.47-.62,1.12-1.01,1.96-1.16v-.04c-.7-.22-1.23-.57-1.61-1.07-.37-.5-.56-1.12-.56-1.85,0-.57,.12-1.06,.35-1.48,.23-.42,.54-.76,.92-1.04,.38-.27,.81-.48,1.29-.61,.48-.13,.97-.2,1.46-.2s.98,.07,1.46,.2c.48,.13,.92,.34,1.3,.61,.39,.27,.7,.62,.93,1.04,.23,.42,.35,.91,.35,1.48,0,.72-.19,1.34-.57,1.85Zm-2.14,7.34c.41-.12,.77-.3,1.07-.55,.3-.25,.54-.56,.72-.94,.18-.38,.27-.82,.27-1.33s-.09-.9-.28-1.26c-.18-.36-.43-.67-.74-.91-.31-.25-.67-.43-1.08-.55-.41-.12-.84-.17-1.28-.16-.46-.01-.89,.04-1.3,.15-.41,.11-.77,.29-1.07,.54-.3,.25-.55,.55-.73,.92-.18,.37-.28,.79-.28,1.27s.09,.93,.27,1.31c.18,.38,.42,.69,.72,.94,.3,.25,.66,.43,1.07,.56,.41,.13,.85,.19,1.32,.19s.91-.06,1.32-.18Zm-.26-6.85c.34-.1,.64-.24,.9-.45,.26-.2,.47-.46,.63-.78,.16-.32,.24-.69,.24-1.12,0-.38-.07-.72-.22-1.01-.15-.29-.35-.53-.6-.72-.25-.19-.55-.34-.89-.44s-.72-.15-1.12-.15c-.37,0-.72,.05-1.07,.15s-.65,.25-.91,.44c-.27,.19-.48,.43-.64,.72-.16,.29-.24,.63-.24,1.01,0,.44,.08,.82,.25,1.14,.16,.32,.38,.58,.65,.78,.27,.2,.57,.35,.91,.44,.34,.09,.69,.13,1.05,.11,.37,.01,.72-.03,1.06-.12Z"/><path class="cls-17" d="M59.36,122.79c.17,.38,.4,.71,.69,.98s.63,.48,1.03,.63c.39,.15,.82,.22,1.27,.22,.52,0,.98-.1,1.39-.29,.41-.2,.75-.46,1.05-.8,.29-.34,.51-.72,.67-1.16,.15-.44,.23-.9,.23-1.38s-.09-.95-.26-1.37c-.17-.42-.41-.78-.7-1.09-.3-.31-.66-.55-1.07-.73s-.87-.27-1.37-.27c-.61,0-1.17,.14-1.69,.41-.52,.27-.94,.66-1.27,1.17h-1.03l1.29-6.9h6.66v1.1h-5.82l-.86,4.41,.04,.04c.33-.39,.75-.7,1.26-.91,.51-.22,1.03-.32,1.56-.32,.68,0,1.3,.11,1.85,.34,.55,.23,1.02,.55,1.41,.95s.68,.89,.89,1.45c.21,.56,.31,1.18,.31,1.85s-.12,1.25-.36,1.8c-.24,.55-.57,1.03-.99,1.43s-.91,.71-1.47,.93c-.56,.22-1.16,.33-1.8,.33s-1.2-.09-1.72-.28c-.53-.18-.98-.45-1.37-.8s-.69-.78-.92-1.28c-.23-.51-.35-1.08-.36-1.71h1.2c.01,.46,.1,.88,.28,1.26Z"/></g><g><path class="cls-17" d="M28.75,214.95c.42-.04,.79-.15,1.1-.31,.31-.17,.57-.42,.78-.75,.21-.34,.36-.81,.45-1.42h.97v13.31h-1.2v-9.89h-3.52v-.86c.52-.01,.99-.04,1.42-.09Z"/><path class="cls-17" d="M43.58,214.05c-.49-.46-1.12-.68-1.89-.68s-1.4,.2-1.88,.59c-.48,.39-.86,.89-1.12,1.48-.27,.6-.44,1.24-.53,1.93s-.13,1.34-.13,1.95h.04c.32-.66,.8-1.19,1.44-1.6s1.34-.61,2.1-.61c.67,0,1.28,.11,1.82,.33,.54,.22,1,.53,1.38,.92,.38,.39,.68,.86,.88,1.41,.21,.55,.31,1.14,.31,1.79s-.11,1.25-.33,1.8c-.22,.55-.53,1.03-.93,1.43s-.88,.71-1.43,.93c-.55,.22-1.16,.33-1.82,.33-.81,0-1.51-.12-2.09-.37-.58-.25-1.06-.65-1.45-1.21-.38-.56-.66-1.28-.85-2.18-.18-.89-.28-1.99-.28-3.3,0-.27,.02-.61,.05-1.05,.03-.43,.1-.89,.22-1.38,.11-.49,.28-.98,.48-1.48,.21-.5,.49-.95,.84-1.36s.78-.74,1.3-.99c.52-.25,1.14-.38,1.86-.38,1.19,0,2.14,.29,2.83,.86,.7,.57,1.12,1.45,1.26,2.62h-1.2c-.1-.73-.4-1.33-.88-1.79Zm-3.4,4.35c-.41,.18-.76,.43-1.05,.75-.29,.32-.5,.69-.65,1.11-.15,.42-.22,.88-.22,1.38s.06,.91,.19,1.33c.13,.42,.33,.78,.6,1.09,.27,.31,.62,.55,1.04,.73s.92,.27,1.5,.27c.48,0,.92-.09,1.3-.28,.39-.18,.72-.43,1.01-.74,.29-.31,.5-.67,.66-1.09,.15-.42,.23-.86,.23-1.31,0-.48-.07-.94-.22-1.37-.15-.43-.35-.8-.63-1.12-.27-.32-.61-.57-1.01-.75s-.85-.28-1.36-.28-.99,.09-1.4,.28Z"/><path class="cls-17" d="M54.15,214.05c-.49-.46-1.12-.68-1.89-.68s-1.4,.2-1.88,.59c-.48,.39-.86,.89-1.12,1.48-.27,.6-.44,1.24-.53,1.93s-.13,1.34-.13,1.95h.04c.32-.66,.8-1.19,1.44-1.6s1.34-.61,2.1-.61c.67,0,1.28,.11,1.82,.33,.54,.22,1,.53,1.38,.92,.38,.39,.68,.86,.88,1.41,.21,.55,.31,1.14,.31,1.79s-.11,1.25-.33,1.8c-.22,.55-.53,1.03-.93,1.43s-.88,.71-1.43,.93c-.55,.22-1.16,.33-1.82,.33-.81,0-1.51-.12-2.09-.37-.58-.25-1.06-.65-1.45-1.21-.38-.56-.66-1.28-.85-2.18-.18-.89-.28-1.99-.28-3.3,0-.27,.02-.61,.05-1.05,.03-.43,.1-.89,.22-1.38,.11-.49,.28-.98,.48-1.48,.21-.5,.49-.95,.84-1.36s.78-.74,1.3-.99c.52-.25,1.14-.38,1.86-.38,1.19,0,2.14,.29,2.83,.86,.7,.57,1.12,1.45,1.26,2.62h-1.2c-.1-.73-.4-1.33-.88-1.79Zm-3.4,4.35c-.41,.18-.76,.43-1.05,.75-.29,.32-.5,.69-.65,1.11-.15,.42-.22,.88-.22,1.38s.06,.91,.19,1.33c.13,.42,.33,.78,.6,1.09,.27,.31,.62,.55,1.04,.73s.92,.27,1.5,.27c.48,0,.92-.09,1.3-.28,.39-.18,.72-.43,1.01-.74,.29-.31,.5-.67,.66-1.09,.15-.42,.23-.86,.23-1.31,0-.48-.07-.94-.22-1.37-.15-.43-.35-.8-.63-1.12-.27-.32-.61-.57-1.01-.75s-.85-.28-1.36-.28-.99,.09-1.4,.28Z"/><path class="cls-17" d="M59.36,223.23c.17,.38,.4,.71,.69,.98s.63,.48,1.03,.63c.39,.15,.82,.22,1.27,.22,.52,0,.98-.1,1.39-.29,.41-.2,.75-.46,1.05-.8,.29-.34,.51-.72,.67-1.16,.15-.44,.23-.9,.23-1.38s-.09-.95-.26-1.37c-.17-.42-.41-.78-.7-1.09-.3-.31-.66-.55-1.07-.73s-.87-.27-1.37-.27c-.61,0-1.17,.14-1.69,.41-.52,.27-.94,.66-1.27,1.17h-1.03l1.29-6.9h6.66v1.1h-5.82l-.86,4.41,.04,.04c.33-.39,.75-.7,1.26-.91,.51-.22,1.03-.32,1.56-.32,.68,0,1.3,.11,1.85,.34,.55,.23,1.02,.55,1.41,.95s.68,.89,.89,1.45c.21,.56,.31,1.18,.31,1.85s-.12,1.25-.36,1.8c-.24,.55-.57,1.03-.99,1.43s-.91,.71-1.47,.93c-.56,.22-1.16,.33-1.8,.33s-1.2-.09-1.72-.28c-.53-.18-.98-.45-1.37-.8s-.69-.78-.92-1.28c-.23-.51-.35-1.08-.36-1.71h1.2c.01,.46,.1,.88,.28,1.26Z"/></g><g><path class="cls-17" d="M1143.67,353.09c.42-.04,.79-.15,1.1-.31,.31-.17,.57-.42,.78-.75,.21-.34,.36-.81,.45-1.42h.97v13.31h-1.2v-9.89h-3.52v-.86c.52-.01,.99-.04,1.42-.09Z"/><path class="cls-17" d="M1160.51,350.78v1.1c-.42,.43-.92,1.01-1.5,1.74-.58,.73-1.15,1.6-1.7,2.61-.55,1.01-1.03,2.16-1.45,3.44-.41,1.29-.66,2.7-.73,4.25h-1.29c.08-1.13,.23-2.19,.47-3.19,.23-1,.57-1.98,1.01-2.94,.44-.96,.98-1.92,1.64-2.88s1.44-1.97,2.37-3.02h-7.36v-1.1h8.56Z"/><path class="cls-17" d="M1170.3,355.68c-.38,.51-.91,.87-1.6,1.07v.04c.88,.18,1.55,.56,2.02,1.15,.47,.59,.7,1.34,.7,2.25,0,.67-.12,1.26-.36,1.76-.24,.5-.57,.92-.99,1.25-.42,.33-.9,.58-1.46,.74-.55,.16-1.14,.25-1.78,.25s-1.21-.08-1.77-.25-1.05-.41-1.46-.74c-.42-.33-.75-.74-.99-1.25s-.36-1.09-.36-1.76c.03-.87,.27-1.62,.74-2.24,.47-.62,1.12-1.01,1.96-1.16v-.04c-.7-.22-1.23-.57-1.61-1.07-.37-.5-.56-1.12-.56-1.85,0-.57,.12-1.06,.35-1.48,.23-.42,.54-.76,.92-1.04,.38-.27,.81-.48,1.29-.61,.48-.13,.97-.2,1.46-.2s.98,.07,1.46,.2c.48,.13,.92,.34,1.3,.61,.39,.27,.7,.62,.93,1.04,.23,.42,.35,.91,.35,1.48,0,.72-.19,1.34-.57,1.85Zm-2.14,7.34c.41-.12,.77-.3,1.07-.55,.3-.25,.54-.56,.72-.94,.18-.38,.27-.82,.27-1.33s-.09-.9-.28-1.26c-.18-.36-.43-.67-.74-.91-.31-.25-.67-.43-1.08-.55-.41-.12-.84-.17-1.28-.16-.46-.01-.89,.04-1.3,.15-.41,.11-.77,.29-1.07,.54-.3,.25-.55,.55-.73,.92-.18,.37-.28,.79-.28,1.27s.09,.93,.27,1.31c.18,.38,.42,.69,.72,.94,.3,.25,.66,.43,1.07,.56,.41,.13,.85,.19,1.32,.19s.91-.06,1.32-.18Zm-.26-6.85c.34-.1,.64-.24,.9-.45,.26-.2,.47-.46,.63-.78,.16-.32,.24-.69,.24-1.12,0-.38-.07-.72-.22-1.01-.15-.29-.35-.53-.6-.72-.25-.19-.55-.34-.89-.44s-.72-.15-1.12-.15c-.37,0-.72,.05-1.07,.15s-.65,.25-.91,.44c-.27,.19-.48,.43-.64,.72-.16,.29-.24,.63-.24,1.01,0,.44,.08,.82,.25,1.14,.16,.32,.38,.58,.65,.78,.27,.2,.57,.35,.91,.44,.34,.09,.69,.13,1.05,.11,.37,.01,.72-.03,1.06-.12Z"/><path class="cls-17" d="M1174.28,361.37c.17,.38,.4,.71,.69,.98s.63,.48,1.03,.63c.39,.15,.82,.22,1.27,.22,.52,0,.98-.1,1.39-.29,.41-.2,.75-.46,1.05-.8,.29-.34,.51-.72,.67-1.16,.15-.44,.23-.9,.23-1.38s-.09-.95-.26-1.37c-.17-.42-.41-.78-.7-1.09-.3-.31-.66-.55-1.07-.73s-.87-.27-1.37-.27c-.61,0-1.17,.14-1.69,.41-.52,.27-.94,.66-1.27,1.17h-1.03l1.29-6.9h6.66v1.1h-5.82l-.86,4.41,.04,.04c.33-.39,.75-.7,1.26-.91,.51-.22,1.03-.32,1.56-.32,.68,0,1.3,.11,1.85,.34,.55,.23,1.02,.55,1.41,.95s.68,.89,.89,1.45c.21,.56,.31,1.18,.31,1.85s-.12,1.25-.36,1.8c-.24,.55-.57,1.03-.99,1.43s-.91,.71-1.47,.93c-.56,.22-1.16,.33-1.8,.33s-1.2-.09-1.72-.28c-.53-.18-.98-.45-1.37-.8s-.69-.78-.92-1.28c-.23-.51-.35-1.08-.36-1.71h1.2c.01,.46,.1,.88,.28,1.26Z"/></g><g><path class="cls-17" d="M28.75,312.06c.42-.04,.79-.15,1.1-.31,.31-.17,.57-.42,.78-.75,.21-.34,.36-.81,.45-1.42h.97v13.31h-1.2v-9.89h-3.52v-.86c.52-.01,.99-.04,1.42-.09Z"/><path class="cls-17" d="M45.59,309.75v1.1c-.42,.43-.92,1.01-1.5,1.74-.58,.73-1.15,1.6-1.7,2.61-.55,1.01-1.03,2.16-1.45,3.44-.41,1.29-.66,2.7-.73,4.25h-1.29c.08-1.13,.23-2.19,.47-3.19,.23-1,.57-1.98,1.01-2.94,.44-.96,.98-1.92,1.64-2.88s1.44-1.97,2.37-3.02h-7.36v-1.1h8.56Z"/><path class="cls-17" d="M53.36,309.58h1.08v9h2v1.01h-2v3.31h-1.1v-3.31h-6.14v-1.16l6.16-8.84Zm-.02,1.75h-.04l-5.02,7.25h5.06v-7.25Z"/><path class="cls-17" d="M59.36,320.34c.17,.38,.4,.71,.69,.98s.63,.48,1.03,.63c.39,.15,.82,.22,1.27,.22,.52,0,.98-.1,1.39-.29,.41-.2,.75-.46,1.05-.8,.29-.34,.51-.72,.67-1.16,.15-.44,.23-.9,.23-1.38s-.09-.95-.26-1.37c-.17-.42-.41-.78-.7-1.09-.3-.31-.66-.55-1.07-.73s-.87-.27-1.37-.27c-.61,0-1.17,.14-1.69,.41-.52,.27-.94,.66-1.27,1.17h-1.03l1.29-6.9h6.66v1.1h-5.82l-.86,4.41,.04,.04c.33-.39,.75-.7,1.26-.91,.51-.22,1.03-.32,1.56-.32,.68,0,1.3,.11,1.85,.34,.55,.23,1.02,.55,1.41,.95s.68,.89,.89,1.45c.21,.56,.31,1.18,.31,1.85s-.12,1.25-.36,1.8c-.24,.55-.57,1.03-.99,1.43s-.91,.71-1.47,.93c-.56,.22-1.16,.33-1.8,.33s-1.2-.09-1.72-.28c-.53-.18-.98-.45-1.37-.8s-.69-.78-.92-1.28c-.23-.51-.35-1.08-.36-1.71h1.2c.01,.46,.1,.88,.28,1.26Z"/></g><g><path class="cls-17" d="M1143.67,450.79c.42-.04,.79-.15,1.1-.31,.31-.17,.57-.42,.78-.75,.21-.34,.36-.81,.45-1.42h.97v13.31h-1.2v-9.89h-3.52v-.86c.52-.01,.99-.04,1.42-.09Z"/><path class="cls-17" d="M1159.73,453.37c-.38,.51-.91,.87-1.6,1.07v.04c.88,.18,1.55,.56,2.02,1.15,.47,.59,.7,1.34,.7,2.25,0,.67-.12,1.26-.36,1.76-.24,.5-.57,.92-.99,1.25-.42,.33-.9,.58-1.46,.74-.55,.16-1.14,.25-1.78,.25s-1.21-.08-1.77-.25-1.05-.41-1.46-.74c-.42-.33-.75-.74-.99-1.25s-.36-1.09-.36-1.76c.03-.87,.27-1.62,.74-2.24,.47-.62,1.12-1.01,1.96-1.16v-.04c-.7-.22-1.23-.57-1.61-1.07-.37-.5-.56-1.12-.56-1.85,0-.57,.12-1.06,.35-1.48,.23-.42,.54-.76,.92-1.04,.38-.27,.81-.48,1.29-.61,.48-.13,.97-.2,1.46-.2s.98,.07,1.46,.2c.48,.13,.92,.34,1.3,.61,.39,.27,.7,.62,.93,1.04,.23,.42,.35,.91,.35,1.48,0,.72-.19,1.34-.57,1.85Zm-2.14,7.34c.41-.12,.77-.3,1.07-.55,.3-.25,.54-.56,.72-.94,.18-.38,.27-.82,.27-1.33s-.09-.9-.28-1.26c-.18-.36-.43-.67-.74-.91-.31-.25-.67-.43-1.08-.55-.41-.12-.84-.17-1.28-.16-.46-.01-.89,.04-1.3,.15-.41,.11-.77,.29-1.07,.54-.3,.25-.55,.55-.73,.92-.18,.37-.28,.79-.28,1.27s.09,.93,.27,1.31c.18,.38,.42,.69,.72,.94,.3,.25,.66,.43,1.07,.56,.41,.13,.85,.19,1.32,.19s.91-.06,1.32-.18Zm-.26-6.85c.34-.1,.64-.24,.9-.45,.26-.2,.47-.46,.63-.78,.16-.32,.24-.69,.24-1.12,0-.38-.07-.72-.22-1.01-.15-.29-.35-.53-.6-.72-.25-.19-.55-.34-.89-.44s-.72-.15-1.12-.15c-.37,0-.72,.05-1.07,.15s-.65,.25-.91,.44c-.27,.19-.48,.43-.64,.72-.16,.29-.24,.63-.24,1.01,0,.44,.08,.82,.25,1.14,.16,.32,.38,.58,.65,.78,.27,.2,.57,.35,.91,.44,.34,.09,.69,.13,1.05,.11,.37,.01,.72-.03,1.06-.12Z"/><path class="cls-17" d="M1169.07,449.88c-.49-.46-1.12-.68-1.89-.68s-1.4,.2-1.88,.59c-.48,.39-.86,.89-1.12,1.48-.27,.6-.44,1.24-.53,1.93s-.13,1.34-.13,1.95h.04c.32-.66,.8-1.19,1.44-1.6s1.34-.61,2.1-.61c.67,0,1.28,.11,1.82,.33,.54,.22,1,.53,1.38,.92,.38,.39,.68,.86,.88,1.41,.21,.55,.31,1.14,.31,1.79s-.11,1.25-.33,1.8c-.22,.55-.53,1.03-.93,1.43s-.88,.71-1.43,.93c-.55,.22-1.16,.33-1.82,.33-.81,0-1.51-.12-2.09-.37-.58-.25-1.06-.65-1.45-1.21-.38-.56-.66-1.28-.85-2.18-.18-.89-.28-1.99-.28-3.3,0-.27,.02-.61,.05-1.05,.03-.43,.1-.89,.22-1.38,.11-.49,.28-.98,.48-1.48,.21-.5,.49-.95,.84-1.36s.78-.74,1.3-.99c.52-.25,1.14-.38,1.86-.38,1.19,0,2.14,.29,2.83,.86,.7,.57,1.12,1.45,1.26,2.62h-1.2c-.1-.73-.4-1.33-.88-1.79Zm-3.4,4.35c-.41,.18-.76,.43-1.05,.75-.29,.32-.5,.69-.65,1.11-.15,.42-.22,.88-.22,1.38s.06,.91,.19,1.33c.13,.42,.33,.78,.6,1.09,.27,.31,.62,.55,1.04,.73s.92,.27,1.5,.27c.48,0,.92-.09,1.3-.28,.39-.18,.72-.43,1.01-.74,.29-.31,.5-.67,.66-1.09,.15-.42,.23-.86,.23-1.31,0-.48-.07-.94-.22-1.37-.15-.43-.35-.8-.63-1.12-.27-.32-.61-.57-1.01-.75s-.85-.28-1.36-.28-.99,.09-1.4,.28Z"/><path class="cls-17" d="M1174.28,459.07c.17,.38,.4,.71,.69,.98s.63,.48,1.03,.63c.39,.15,.82,.22,1.27,.22,.52,0,.98-.1,1.39-.29,.41-.2,.75-.46,1.05-.8,.29-.34,.51-.72,.67-1.16,.15-.44,.23-.9,.23-1.38s-.09-.95-.26-1.37c-.17-.42-.41-.78-.7-1.09-.3-.31-.66-.55-1.07-.73s-.87-.27-1.37-.27c-.61,0-1.17,.14-1.69,.41-.52,.27-.94,.66-1.27,1.17h-1.03l1.29-6.9h6.66v1.1h-5.82l-.86,4.41,.04,.04c.33-.39,.75-.7,1.26-.91,.51-.22,1.03-.32,1.56-.32,.68,0,1.3,.11,1.85,.34,.55,.23,1.02,.55,1.41,.95s.68,.89,.89,1.45c.21,.56,.31,1.18,.31,1.85s-.12,1.25-.36,1.8c-.24,.55-.57,1.03-.99,1.43s-.91,.71-1.47,.93c-.56,.22-1.16,.33-1.8,.33s-1.2-.09-1.72-.28c-.53-.18-.98-.45-1.37-.8s-.69-.78-.92-1.28c-.23-.51-.35-1.08-.36-1.71h1.2c.01,.46,.1,.88,.28,1.26Z"/></g><g><path class="cls-17" d="M1143.67,547.29c.42-.04,.79-.15,1.1-.31,.31-.17,.57-.42,.78-.75,.21-.34,.36-.81,.45-1.42h.97v13.31h-1.2v-9.89h-3.52v-.86c.52-.01,.99-.04,1.42-.09Z"/><path class="cls-17" d="M1154.03,556.72c.49,.46,1.12,.68,1.89,.68s1.42-.2,1.89-.59c.48-.39,.85-.89,1.11-1.48s.44-1.24,.53-1.93c.09-.69,.13-1.34,.13-1.95h-.04c-.32,.66-.8,1.19-1.44,1.6-.64,.41-1.34,.61-2.1,.61-.66,0-1.26-.11-1.81-.33-.55-.22-1.01-.53-1.39-.92s-.68-.86-.88-1.41c-.21-.55-.31-1.14-.31-1.79s.11-1.25,.33-1.8c.22-.55,.53-1.03,.93-1.43s.88-.71,1.43-.94c.55-.23,1.16-.34,1.82-.34,.81,0,1.51,.12,2.09,.37,.58,.25,1.06,.65,1.45,1.22,.38,.56,.66,1.3,.85,2.2,.18,.9,.28,2,.28,3.29,0,.27-.02,.62-.05,1.05-.03,.43-.1,.89-.22,1.38-.11,.49-.28,.98-.48,1.48-.21,.5-.49,.95-.84,1.35-.35,.4-.78,.73-1.3,.98-.52,.25-1.14,.38-1.86,.38-1.19,0-2.14-.28-2.83-.85-.7-.56-1.12-1.44-1.26-2.61h1.2c.1,.74,.4,1.33,.88,1.79Zm3.4-4.35c.41-.18,.76-.43,1.05-.75s.5-.69,.65-1.11c.15-.42,.22-.88,.22-1.38s-.06-.93-.19-1.34c-.13-.41-.33-.77-.6-1.08-.27-.31-.62-.55-1.04-.73-.42-.18-.92-.27-1.5-.27-.47,0-.9,.09-1.29,.28-.39,.18-.73,.43-1.02,.74s-.5,.67-.66,1.09c-.15,.42-.23,.86-.23,1.31,0,.48,.07,.94,.22,1.37,.15,.43,.35,.81,.63,1.12,.27,.32,.61,.57,1.01,.75,.4,.18,.85,.28,1.36,.28s.99-.09,1.4-.28Z"/><path class="cls-17" d="M1168.28,544.81h1.08v9h2v1.01h-2v3.31h-1.1v-3.31h-6.14v-1.16l6.16-8.84Zm-.02,1.75h-.04l-5.02,7.25h5.06v-7.25Z"/><path class="cls-17" d="M1174.28,555.58c.17,.38,.4,.71,.69,.98s.63,.48,1.03,.63c.39,.15,.82,.22,1.27,.22,.52,0,.98-.1,1.39-.29,.41-.2,.75-.46,1.05-.8,.29-.34,.51-.72,.67-1.16,.15-.44,.23-.9,.23-1.38s-.09-.95-.26-1.37c-.17-.42-.41-.78-.7-1.09-.3-.31-.66-.55-1.07-.73s-.87-.27-1.37-.27c-.61,0-1.17,.14-1.69,.41-.52,.27-.94,.66-1.27,1.17h-1.03l1.29-6.9h6.66v1.1h-5.82l-.86,4.41,.04,.04c.33-.39,.75-.7,1.26-.91,.51-.22,1.03-.32,1.56-.32,.68,0,1.3,.11,1.85,.34,.55,.23,1.02,.55,1.41,.95s.68,.89,.89,1.45c.21,.56,.31,1.18,.31,1.85s-.12,1.25-.36,1.8c-.24,.55-.57,1.03-.99,1.43s-.91,.71-1.47,.93c-.56,.22-1.16,.33-1.8,.33s-1.2-.09-1.72-.28c-.53-.18-.98-.45-1.37-.8s-.69-.78-.92-1.28c-.23-.51-.35-1.08-.36-1.71h1.2c.01,.46,.1,.88,.28,1.26Z"/></g><g><path class="cls-17" d="M1141.09,631.57c.01-.66,.13-1.24,.34-1.75,.22-.51,.5-.96,.86-1.37,.35-.41,.75-.78,1.2-1.11,.44-.34,.9-.66,1.37-.97,.47-.31,.93-.63,1.4-.95s.88-.67,1.25-1.04c.37-.37,.64-.74,.83-1.13,.18-.39,.28-.85,.28-1.38,0-.43-.08-.81-.24-1.15-.16-.34-.37-.62-.65-.86-.27-.23-.59-.41-.95-.53-.36-.12-.75-.18-1.15-.18-.55,0-1.01,.1-1.4,.3-.39,.2-.7,.48-.94,.82s-.42,.74-.52,1.18c-.11,.44-.16,.91-.14,1.41h-1.2c-.01-.68,.07-1.32,.24-1.89,.17-.58,.43-1.07,.79-1.49s.8-.74,1.34-.98c.54-.23,1.17-.35,1.89-.35,.58,0,1.12,.08,1.63,.24,.5,.16,.94,.39,1.31,.7s.67,.7,.88,1.17c.21,.47,.31,1.01,.31,1.64,0,.56-.09,1.06-.28,1.52-.18,.46-.43,.88-.74,1.26-.31,.38-.67,.73-1.07,1.06-.4,.32-.82,.62-1.26,.9-.32,.22-.69,.45-1.12,.71-.43,.26-.85,.55-1.25,.87-.4,.32-.75,.66-1.06,1.04s-.49,.78-.57,1.23h7.4v1.1h-8.77Z"/><path class="cls-17" d="M1158.63,618.78c.6,.42,1.07,.97,1.41,1.63,.34,.66,.56,1.39,.68,2.21,.12,.81,.18,1.6,.18,2.38s-.06,1.58-.18,2.4c-.12,.81-.35,1.55-.68,2.21-.34,.66-.81,1.2-1.41,1.62-.6,.42-1.39,.63-2.37,.63s-1.75-.21-2.36-.63-1.08-.96-1.42-1.62c-.34-.66-.56-1.39-.68-2.21-.12-.81-.18-1.6-.18-2.38s.06-1.58,.18-2.4,.35-1.55,.68-2.21,.81-1.2,1.42-1.63,1.39-.64,2.36-.64,1.77,.21,2.37,.64Zm-4.19,.96c-.46,.39-.8,.88-1.04,1.46-.23,.58-.39,1.22-.47,1.9-.08,.68-.11,1.31-.11,1.88s.04,1.21,.11,1.89c.08,.68,.23,1.31,.47,1.9,.23,.59,.58,1.08,1.04,1.47,.46,.39,1.06,.59,1.83,.59s1.37-.2,1.83-.59c.46-.39,.8-.88,1.04-1.47,.23-.59,.39-1.22,.47-1.9,.08-.68,.11-1.31,.11-1.89s-.04-1.2-.11-1.88c-.08-.68-.23-1.32-.47-1.9-.23-.58-.58-1.07-1.04-1.46-.46-.39-1.06-.59-1.83-.59s-1.37,.2-1.83,.59Z"/><path class="cls-17" d="M1162.24,631.57c.01-.66,.13-1.24,.34-1.75,.22-.51,.5-.96,.86-1.37,.35-.41,.75-.78,1.2-1.11,.44-.34,.9-.66,1.37-.97,.47-.31,.93-.63,1.4-.95s.88-.67,1.25-1.04c.37-.37,.64-.74,.83-1.13,.18-.39,.28-.85,.28-1.38,0-.43-.08-.81-.24-1.15-.16-.34-.37-.62-.65-.86-.27-.23-.59-.41-.95-.53-.36-.12-.75-.18-1.15-.18-.55,0-1.01,.1-1.4,.3-.39,.2-.7,.48-.94,.82s-.42,.74-.52,1.18c-.11,.44-.16,.91-.14,1.41h-1.2c-.01-.68,.07-1.32,.24-1.89,.17-.58,.43-1.07,.79-1.49s.8-.74,1.34-.98c.54-.23,1.17-.35,1.89-.35,.58,0,1.12,.08,1.63,.24,.5,.16,.94,.39,1.31,.7s.67,.7,.88,1.17c.21,.47,.31,1.01,.31,1.64,0,.56-.09,1.06-.28,1.52-.18,.46-.43,.88-.74,1.26-.31,.38-.67,.73-1.07,1.06-.4,.32-.82,.62-1.26,.9-.32,.22-.69,.45-1.12,.71-.43,.26-.85,.55-1.25,.87-.4,.32-.75,.66-1.06,1.04s-.49,.78-.57,1.23h7.4v1.1h-8.77Z"/><path class="cls-17" d="M1179.65,619.84c-.49-.46-1.12-.68-1.89-.68s-1.4,.2-1.88,.59c-.48,.39-.86,.89-1.12,1.48-.27,.6-.44,1.24-.53,1.93s-.13,1.34-.13,1.95h.04c.32-.66,.8-1.19,1.44-1.6s1.34-.61,2.1-.61c.67,0,1.28,.11,1.82,.33,.54,.22,1,.53,1.38,.92,.38,.39,.68,.86,.88,1.41,.21,.55,.31,1.14,.31,1.79s-.11,1.25-.33,1.8c-.22,.55-.53,1.03-.93,1.43s-.88,.71-1.43,.93c-.55,.22-1.16,.33-1.82,.33-.81,0-1.51-.12-2.09-.37-.58-.25-1.06-.65-1.45-1.21-.38-.56-.66-1.28-.85-2.18-.18-.89-.28-1.99-.28-3.3,0-.27,.02-.61,.05-1.05,.03-.43,.1-.89,.22-1.38,.11-.49,.28-.98,.48-1.48,.21-.5,.49-.95,.84-1.36s.78-.74,1.3-.99c.52-.25,1.14-.38,1.86-.38,1.19,0,2.14,.29,2.83,.86,.7,.57,1.12,1.45,1.26,2.62h-1.2c-.1-.73-.4-1.33-.88-1.79Zm-3.4,4.35c-.41,.18-.76,.43-1.05,.75-.29,.32-.5,.69-.65,1.11-.15,.42-.22,.88-.22,1.38s.06,.91,.19,1.33c.13,.42,.33,.78,.6,1.09,.27,.31,.62,.55,1.04,.73s.92,.27,1.5,.27c.48,0,.92-.09,1.3-.28,.39-.18,.72-.43,1.01-.74,.29-.31,.5-.67,.66-1.09,.15-.42,.23-.86,.23-1.31,0-.48-.07-.94-.22-1.37-.15-.43-.35-.8-.63-1.12-.27-.32-.61-.57-1.01-.75s-.85-.28-1.36-.28-.99,.09-1.4,.28Z"/></g><g><path class="cls-17" d="M1143.66,159.77c.42-.04,.79-.15,1.1-.31,.31-.17,.57-.42,.78-.75,.21-.34,.36-.81,.45-1.42h.97v13.31h-1.2v-9.89h-3.52v-.86c.52-.01,.99-.04,1.42-.09Z"/><path class="cls-17" d="M1158.5,158.87c-.49-.46-1.12-.68-1.89-.68s-1.4,.2-1.88,.59c-.48,.39-.86,.89-1.12,1.48-.27,.6-.44,1.24-.53,1.93s-.13,1.34-.13,1.95h.04c.32-.66,.8-1.19,1.44-1.6s1.34-.61,2.1-.61c.67,0,1.28,.11,1.82,.33,.54,.22,1,.53,1.38,.92,.38,.39,.68,.86,.88,1.41,.21,.55,.31,1.14,.31,1.79s-.11,1.25-.33,1.8c-.22,.55-.53,1.03-.93,1.43s-.88,.71-1.43,.93c-.55,.22-1.16,.33-1.82,.33-.81,0-1.51-.12-2.09-.37-.58-.25-1.06-.65-1.45-1.21-.38-.56-.66-1.28-.85-2.18-.18-.89-.28-1.99-.28-3.3,0-.27,.02-.61,.05-1.05,.03-.43,.1-.89,.22-1.38,.11-.49,.28-.98,.48-1.48,.21-.5,.49-.95,.84-1.36s.78-.74,1.3-.99c.52-.25,1.14-.38,1.86-.38,1.19,0,2.14,.29,2.83,.86,.7,.57,1.12,1.45,1.26,2.62h-1.2c-.1-.73-.4-1.33-.88-1.79Zm-3.4,4.35c-.41,.18-.76,.43-1.05,.75-.29,.32-.5,.69-.65,1.11-.15,.42-.22,.88-.22,1.38s.06,.91,.19,1.33c.13,.42,.33,.78,.6,1.09,.27,.31,.62,.55,1.04,.73s.92,.27,1.5,.27c.48,0,.92-.09,1.3-.28,.39-.18,.72-.43,1.01-.74,.29-.31,.5-.67,.66-1.09,.15-.42,.23-.86,.23-1.31,0-.48-.07-.94-.22-1.37-.15-.43-.35-.8-.63-1.12-.27-.32-.61-.57-1.01-.75s-.85-.28-1.36-.28-.99,.09-1.4,.28Z"/><path class="cls-17" d="M1162.23,170.6c.01-.66,.13-1.24,.34-1.75,.22-.51,.5-.96,.86-1.37,.35-.41,.75-.78,1.2-1.11,.44-.34,.9-.66,1.37-.97,.47-.31,.93-.63,1.4-.95s.88-.67,1.25-1.04c.37-.37,.64-.74,.83-1.13,.18-.39,.28-.85,.28-1.38,0-.43-.08-.81-.24-1.15-.16-.34-.37-.62-.65-.86-.27-.23-.59-.41-.95-.53-.36-.12-.75-.18-1.15-.18-.55,0-1.01,.1-1.4,.3-.39,.2-.7,.48-.94,.82s-.42,.74-.52,1.18c-.11,.44-.16,.91-.14,1.41h-1.2c-.01-.68,.07-1.32,.24-1.89,.17-.58,.43-1.07,.79-1.49s.8-.74,1.34-.98c.54-.23,1.17-.35,1.89-.35,.58,0,1.12,.08,1.63,.24,.5,.16,.94,.39,1.31,.7s.67,.7,.88,1.17c.21,.47,.31,1.01,.31,1.64,0,.56-.09,1.06-.28,1.52-.18,.46-.43,.88-.74,1.26-.31,.38-.67,.73-1.07,1.06-.4,.32-.82,.62-1.26,.9-.32,.22-.69,.45-1.12,.71-.43,.26-.85,.55-1.25,.87-.4,.32-.75,.66-1.06,1.04s-.49,.78-.57,1.23h7.4v1.1h-8.77Z"/><path class="cls-17" d="M1174.28,168.05c.17,.38,.4,.71,.69,.98s.63,.48,1.03,.63c.39,.15,.82,.22,1.27,.22,.52,0,.98-.1,1.39-.29,.41-.2,.75-.46,1.05-.8,.29-.34,.51-.72,.67-1.16,.15-.44,.23-.9,.23-1.38s-.09-.95-.26-1.37c-.17-.42-.41-.78-.7-1.09-.3-.31-.66-.55-1.07-.73s-.87-.27-1.37-.27c-.61,0-1.17,.14-1.69,.41-.52,.27-.94,.66-1.27,1.17h-1.03l1.29-6.9h6.66v1.1h-5.82l-.86,4.41,.04,.04c.33-.39,.75-.7,1.26-.91,.51-.22,1.03-.32,1.56-.32,.68,0,1.3,.11,1.85,.34,.55,.23,1.02,.55,1.41,.95s.68,.89,.89,1.45c.21,.56,.31,1.18,.31,1.85s-.12,1.25-.36,1.8c-.24,.55-.57,1.03-.99,1.43s-.91,.71-1.47,.93c-.56,.22-1.16,.33-1.8,.33s-1.2-.09-1.72-.28c-.53-.18-.98-.45-1.37-.8s-.69-.78-.92-1.28c-.23-.51-.35-1.08-.36-1.71h1.2c.01,.46,.1,.88,.28,1.26Z"/></g><g><path class="cls-17" d="M1143.67,256.54c.42-.04,.79-.15,1.1-.31,.31-.17,.57-.42,.78-.75,.21-.34,.36-.81,.45-1.42h.97v13.31h-1.2v-9.89h-3.52v-.86c.52-.01,.99-.04,1.42-.09Z"/><path class="cls-17" d="M1160.51,254.23v1.1c-.42,.43-.92,1.01-1.5,1.74-.58,.73-1.15,1.6-1.7,2.61-.55,1.01-1.03,2.16-1.45,3.44-.41,1.29-.66,2.7-.73,4.25h-1.29c.08-1.13,.23-2.19,.47-3.19,.23-1,.57-1.98,1.01-2.94,.44-.96,.98-1.92,1.64-2.88s1.44-1.97,2.37-3.02h-7.36v-1.1h8.56Z"/><path class="cls-17" d="M1169.21,254.58c.6,.42,1.07,.97,1.41,1.63,.34,.66,.56,1.39,.68,2.21,.12,.81,.18,1.6,.18,2.38s-.06,1.58-.18,2.4c-.12,.81-.35,1.55-.68,2.21-.34,.66-.81,1.2-1.41,1.62-.6,.42-1.39,.63-2.37,.63s-1.75-.21-2.36-.63-1.08-.96-1.42-1.62c-.34-.66-.56-1.39-.68-2.21-.12-.81-.18-1.6-.18-2.38s.06-1.58,.18-2.4,.35-1.55,.68-2.21,.81-1.2,1.42-1.63,1.39-.64,2.36-.64,1.77,.21,2.37,.64Zm-4.19,.96c-.46,.39-.8,.88-1.04,1.46-.23,.58-.39,1.22-.47,1.9-.08,.68-.11,1.31-.11,1.88s.04,1.21,.11,1.89c.08,.68,.23,1.31,.47,1.9,.23,.59,.58,1.08,1.04,1.47,.46,.39,1.06,.59,1.83,.59s1.37-.2,1.83-.59c.46-.39,.8-.88,1.04-1.47,.23-.59,.39-1.22,.47-1.9,.08-.68,.11-1.31,.11-1.89s-.04-1.2-.11-1.88c-.08-.68-.23-1.32-.47-1.9-.23-.58-.58-1.07-1.04-1.46-.46-.39-1.06-.59-1.83-.59s-1.37,.2-1.83,.59Z"/><path class="cls-17" d="M1174.28,264.83c.17,.38,.4,.71,.69,.98s.63,.48,1.03,.63c.39,.15,.82,.22,1.27,.22,.52,0,.98-.1,1.39-.29,.41-.2,.75-.46,1.05-.8,.29-.34,.51-.72,.67-1.16,.15-.44,.23-.9,.23-1.38s-.09-.95-.26-1.37c-.17-.42-.41-.78-.7-1.09-.3-.31-.66-.55-1.07-.73s-.87-.27-1.37-.27c-.61,0-1.17,.14-1.69,.41-.52,.27-.94,.66-1.27,1.17h-1.03l1.29-6.9h6.66v1.1h-5.82l-.86,4.41,.04,.04c.33-.39,.75-.7,1.26-.91,.51-.22,1.03-.32,1.56-.32,.68,0,1.3,.11,1.85,.34,.55,.23,1.02,.55,1.41,.95s.68,.89,.89,1.45c.21,.56,.31,1.18,.31,1.85s-.12,1.25-.36,1.8c-.24,.55-.57,1.03-.99,1.43s-.91,.71-1.47,.93c-.56,.22-1.16,.33-1.8,.33s-1.2-.09-1.72-.28c-.53-.18-.98-.45-1.37-.8s-.69-.78-.92-1.28c-.23-.51-.35-1.08-.36-1.71h1.2c.01,.46,.1,.88,.28,1.26Z"/></g><g><path class="cls-17" d="M28.75,409.16c.42-.04,.79-.15,1.1-.31,.31-.17,.57-.42,.78-.75,.21-.34,.36-.81,.45-1.42h.97v13.31h-1.2v-9.89h-3.52v-.86c.52-.01,.99-.04,1.42-.09Z"/><path class="cls-17" d="M44.81,411.74c-.38,.51-.91,.87-1.6,1.07v.04c.88,.18,1.55,.56,2.02,1.15,.47,.59,.7,1.34,.7,2.25,0,.67-.12,1.26-.36,1.76-.24,.5-.57,.92-.99,1.25-.42,.33-.9,.58-1.46,.74-.55,.16-1.14,.25-1.78,.25s-1.21-.08-1.77-.25-1.05-.41-1.46-.74c-.42-.33-.75-.74-.99-1.25s-.36-1.09-.36-1.76c.03-.87,.27-1.62,.74-2.24,.47-.62,1.12-1.01,1.96-1.16v-.04c-.7-.22-1.23-.57-1.61-1.07-.37-.5-.56-1.12-.56-1.85,0-.57,.12-1.06,.35-1.48,.23-.42,.54-.76,.92-1.04,.38-.27,.81-.48,1.29-.61,.48-.13,.97-.2,1.46-.2s.98,.07,1.46,.2c.48,.13,.92,.34,1.3,.61,.39,.27,.7,.62,.93,1.04,.23,.42,.35,.91,.35,1.48,0,.72-.19,1.34-.57,1.85Zm-2.14,7.34c.41-.12,.77-.3,1.07-.55,.3-.25,.54-.56,.72-.94,.18-.38,.27-.82,.27-1.33s-.09-.9-.28-1.26c-.18-.36-.43-.67-.74-.91-.31-.25-.67-.43-1.08-.55-.41-.12-.84-.17-1.28-.16-.46-.01-.89,.04-1.3,.15-.41,.11-.77,.29-1.07,.54-.3,.25-.55,.55-.73,.92-.18,.37-.28,.79-.28,1.27s.09,.93,.27,1.31c.18,.38,.42,.69,.72,.94,.3,.25,.66,.43,1.07,.56,.41,.13,.85,.19,1.32,.19s.91-.06,1.32-.18Zm-.26-6.85c.34-.1,.64-.24,.9-.45,.26-.2,.47-.46,.63-.78,.16-.32,.24-.69,.24-1.12,0-.38-.07-.72-.22-1.01-.15-.29-.35-.53-.6-.72-.25-.19-.55-.34-.89-.44s-.72-.15-1.12-.15c-.37,0-.72,.05-1.07,.15s-.65,.25-.91,.44c-.27,.19-.48,.43-.64,.72-.16,.29-.24,.63-.24,1.01,0,.44,.08,.82,.25,1.14,.16,.32,.38,.58,.65,.78,.27,.2,.57,.35,.91,.44,.34,.09,.69,.13,1.05,.11,.37,.01,.72-.03,1.06-.12Z"/><path class="cls-17" d="M47.32,419.99c.01-.66,.13-1.24,.34-1.75,.22-.51,.5-.96,.86-1.37,.35-.41,.75-.78,1.2-1.11,.44-.34,.9-.66,1.37-.97,.47-.31,.93-.63,1.4-.95s.88-.67,1.25-1.04c.37-.37,.64-.74,.83-1.13,.18-.39,.28-.85,.28-1.38,0-.43-.08-.81-.24-1.15-.16-.34-.37-.62-.65-.86-.27-.23-.59-.41-.95-.53-.36-.12-.75-.18-1.15-.18-.55,0-1.01,.1-1.4,.3-.39,.2-.7,.48-.94,.82s-.42,.74-.52,1.18c-.11,.44-.16,.91-.14,1.41h-1.2c-.01-.68,.07-1.32,.24-1.89,.17-.58,.43-1.07,.79-1.49s.8-.74,1.34-.98c.54-.23,1.17-.35,1.89-.35,.58,0,1.12,.08,1.63,.24,.5,.16,.94,.39,1.31,.7s.67,.7,.88,1.17c.21,.47,.31,1.01,.31,1.64,0,.56-.09,1.06-.28,1.52-.18,.46-.43,.88-.74,1.26-.31,.38-.67,.73-1.07,1.06-.4,.32-.82,.62-1.26,.9-.32,.22-.69,.45-1.12,.71-.43,.26-.85,.55-1.25,.87-.4,.32-.75,.66-1.06,1.04s-.49,.78-.57,1.23h7.4v1.1h-8.77Z"/><path class="cls-17" d="M59.36,417.44c.17,.38,.4,.71,.69,.98s.63,.48,1.03,.63c.39,.15,.82,.22,1.27,.22,.52,0,.98-.1,1.39-.29,.41-.2,.75-.46,1.05-.8,.29-.34,.51-.72,.67-1.16,.15-.44,.23-.9,.23-1.38s-.09-.95-.26-1.37c-.17-.42-.41-.78-.7-1.09-.3-.31-.66-.55-1.07-.73s-.87-.27-1.37-.27c-.61,0-1.17,.14-1.69,.41-.52,.27-.94,.66-1.27,1.17h-1.03l1.29-6.9h6.66v1.1h-5.82l-.86,4.41,.04,.04c.33-.39,.75-.7,1.26-.91,.51-.22,1.03-.32,1.56-.32,.68,0,1.3,.11,1.85,.34,.55,.23,1.02,.55,1.41,.95s.68,.89,.89,1.45c.21,.56,.31,1.18,.31,1.85s-.12,1.25-.36,1.8c-.24,.55-.57,1.03-.99,1.43s-.91,.71-1.47,.93c-.56,.22-1.16,.33-1.8,.33s-1.2-.09-1.72-.28c-.53-.18-.98-.45-1.37-.8s-.69-.78-.92-1.28c-.23-.51-.35-1.08-.36-1.71h1.2c.01,.46,.1,.88,.28,1.26Z"/></g><g><path class="cls-17" d="M28.75,506.26c.42-.04,.79-.15,1.1-.31,.31-.17,.57-.42,.78-.75,.21-.34,.36-.81,.45-1.42h.97v13.31h-1.2v-9.89h-3.52v-.86c.52-.01,.99-.04,1.42-.09Z"/><path class="cls-17" d="M39.11,515.68c.49,.46,1.12,.68,1.89,.68s1.42-.2,1.89-.59c.48-.39,.85-.89,1.11-1.48s.44-1.24,.53-1.93c.09-.69,.13-1.34,.13-1.95h-.04c-.32,.66-.8,1.19-1.44,1.6-.64,.41-1.34,.61-2.1,.61-.66,0-1.26-.11-1.81-.33-.55-.22-1.01-.53-1.39-.92s-.68-.86-.88-1.41c-.21-.55-.31-1.14-.31-1.79s.11-1.25,.33-1.8c.22-.55,.53-1.03,.93-1.43s.88-.71,1.43-.94c.55-.23,1.16-.34,1.82-.34,.81,0,1.51,.12,2.09,.37,.58,.25,1.06,.65,1.45,1.22,.38,.56,.66,1.3,.85,2.2,.18,.9,.28,2,.28,3.29,0,.27-.02,.62-.05,1.05-.03,.43-.1,.89-.22,1.38-.11,.49-.28,.98-.48,1.48-.21,.5-.49,.95-.84,1.35-.35,.4-.78,.73-1.3,.98-.52,.25-1.14,.38-1.86,.38-1.19,0-2.14-.28-2.83-.85-.7-.56-1.12-1.44-1.26-2.61h1.2c.1,.74,.4,1.33,.88,1.79Zm3.4-4.35c.41-.18,.76-.43,1.05-.75s.5-.69,.65-1.11c.15-.42,.22-.88,.22-1.38s-.06-.93-.19-1.34c-.13-.41-.33-.77-.6-1.08-.27-.31-.62-.55-1.04-.73-.42-.18-.92-.27-1.5-.27-.47,0-.9,.09-1.29,.28-.39,.18-.73,.43-1.02,.74s-.5,.67-.66,1.09c-.15,.42-.23,.86-.23,1.31,0,.48,.07,.94,.22,1.37,.15,.43,.35,.81,.63,1.12,.27,.32,.61,.57,1.01,.75,.4,.18,.85,.28,1.36,.28s.99-.09,1.4-.28Z"/><path class="cls-17" d="M54.29,504.3c.6,.42,1.07,.97,1.41,1.63,.34,.66,.56,1.39,.68,2.21,.12,.81,.18,1.6,.18,2.38s-.06,1.58-.18,2.4c-.12,.81-.35,1.55-.68,2.21-.34,.66-.81,1.2-1.41,1.62-.6,.42-1.39,.63-2.37,.63s-1.75-.21-2.36-.63-1.08-.96-1.42-1.62c-.34-.66-.56-1.39-.68-2.21-.12-.81-.18-1.6-.18-2.38s.06-1.58,.18-2.4,.35-1.55,.68-2.21,.81-1.2,1.42-1.63,1.39-.64,2.36-.64,1.77,.21,2.37,.64Zm-4.19,.96c-.46,.39-.8,.88-1.04,1.46-.23,.58-.39,1.22-.47,1.9-.08,.68-.11,1.31-.11,1.88s.04,1.21,.11,1.89c.08,.68,.23,1.31,.47,1.9,.23,.59,.58,1.08,1.04,1.47,.46,.39,1.06,.59,1.83,.59s1.37-.2,1.83-.59c.46-.39,.8-.88,1.04-1.47,.23-.59,.39-1.22,.47-1.9,.08-.68,.11-1.31,.11-1.89s-.04-1.2-.11-1.88c-.08-.68-.23-1.32-.47-1.9-.23-.58-.58-1.07-1.04-1.46-.46-.39-1.06-.59-1.83-.59s-1.37,.2-1.83,.59Z"/><path class="cls-17" d="M59.36,514.54c.17,.38,.4,.71,.69,.98s.63,.48,1.03,.63c.39,.15,.82,.22,1.27,.22,.52,0,.98-.1,1.39-.29,.41-.2,.75-.46,1.05-.8,.29-.34,.51-.72,.67-1.16,.15-.44,.23-.9,.23-1.38s-.09-.95-.26-1.37c-.17-.42-.41-.78-.7-1.09-.3-.31-.66-.55-1.07-.73s-.87-.27-1.37-.27c-.61,0-1.17,.14-1.69,.41-.52,.27-.94,.66-1.27,1.17h-1.03l1.29-6.9h6.66v1.1h-5.82l-.86,4.41,.04,.04c.33-.39,.75-.7,1.26-.91,.51-.22,1.03-.32,1.56-.32,.68,0,1.3,.11,1.85,.34,.55,.23,1.02,.55,1.41,.95s.68,.89,.89,1.45c.21,.56,.31,1.18,.31,1.85s-.12,1.25-.36,1.8c-.24,.55-.57,1.03-.99,1.43s-.91,.71-1.47,.93c-.56,.22-1.16,.33-1.8,.33s-1.2-.09-1.72-.28c-.53-.18-.98-.45-1.37-.8s-.69-.78-.92-1.28c-.23-.51-.35-1.08-.36-1.71h1.2c.01,.46,.1,.88,.28,1.26Z"/></g><g><path class="cls-17" d="M28.75,603.35c.42-.04,.79-.15,1.1-.31,.31-.17,.57-.42,.78-.75,.21-.34,.36-.81,.45-1.42h.97v13.31h-1.2v-9.89h-3.52v-.86c.52-.01,.99-.04,1.42-.09Z"/><path class="cls-17" d="M39.11,612.78c.49,.46,1.12,.68,1.89,.68s1.42-.2,1.89-.59c.48-.39,.85-.89,1.11-1.48s.44-1.24,.53-1.93c.09-.69,.13-1.34,.13-1.95h-.04c-.32,.66-.8,1.19-1.44,1.6-.64,.41-1.34,.61-2.1,.61-.66,0-1.26-.11-1.81-.33-.55-.22-1.01-.53-1.39-.92s-.68-.86-.88-1.41c-.21-.55-.31-1.14-.31-1.79s.11-1.25,.33-1.8c.22-.55,.53-1.03,.93-1.43s.88-.71,1.43-.94c.55-.23,1.16-.34,1.82-.34,.81,0,1.51,.12,2.09,.37,.58,.25,1.06,.65,1.45,1.22,.38,.56,.66,1.3,.85,2.2,.18,.9,.28,2,.28,3.29,0,.27-.02,.62-.05,1.05-.03,.43-.1,.89-.22,1.38-.11,.49-.28,.98-.48,1.48-.21,.5-.49,.95-.84,1.35-.35,.4-.78,.73-1.3,.98-.52,.25-1.14,.38-1.86,.38-1.19,0-2.14-.28-2.83-.85-.7-.56-1.12-1.44-1.26-2.61h1.2c.1,.74,.4,1.33,.88,1.79Zm3.4-4.35c.41-.18,.76-.43,1.05-.75s.5-.69,.65-1.11c.15-.42,.22-.88,.22-1.38s-.06-.93-.19-1.34c-.13-.41-.33-.77-.6-1.08-.27-.31-.62-.55-1.04-.73-.42-.18-.92-.27-1.5-.27-.47,0-.9,.09-1.29,.28-.39,.18-.73,.43-1.02,.74s-.5,.67-.66,1.09c-.15,.42-.23,.86-.23,1.31,0,.48,.07,.94,.22,1.37,.15,.43,.35,.81,.63,1.12,.27,.32,.61,.57,1.01,.75,.4,.18,.85,.28,1.36,.28s.99-.09,1.4-.28Z"/><path class="cls-17" d="M55.38,605.94c-.38,.51-.91,.87-1.6,1.07v.04c.88,.18,1.55,.56,2.02,1.15,.47,.59,.7,1.34,.7,2.25,0,.67-.12,1.26-.36,1.76-.24,.5-.57,.92-.99,1.25-.42,.33-.9,.58-1.46,.74-.55,.16-1.14,.25-1.78,.25s-1.21-.08-1.77-.25-1.05-.41-1.46-.74c-.42-.33-.75-.74-.99-1.25s-.36-1.09-.36-1.76c.03-.87,.27-1.62,.74-2.24,.47-.62,1.12-1.01,1.96-1.16v-.04c-.7-.22-1.23-.57-1.61-1.07-.37-.5-.56-1.12-.56-1.85,0-.57,.12-1.06,.35-1.48,.23-.42,.54-.76,.92-1.04,.38-.27,.81-.48,1.29-.61,.48-.13,.97-.2,1.46-.2s.98,.07,1.46,.2c.48,.13,.92,.34,1.3,.61,.39,.27,.7,.62,.93,1.04,.23,.42,.35,.91,.35,1.48,0,.72-.19,1.34-.57,1.85Zm-2.14,7.34c.41-.12,.77-.3,1.07-.55,.3-.25,.54-.56,.72-.94,.18-.38,.27-.82,.27-1.33s-.09-.9-.28-1.26c-.18-.36-.43-.67-.74-.91-.31-.25-.67-.43-1.08-.55-.41-.12-.84-.17-1.28-.16-.46-.01-.89,.04-1.3,.15-.41,.11-.77,.29-1.07,.54-.3,.25-.55,.55-.73,.92-.18,.37-.28,.79-.28,1.27s.09,.93,.27,1.31c.18,.38,.42,.69,.72,.94,.3,.25,.66,.43,1.07,.56,.41,.13,.85,.19,1.32,.19s.91-.06,1.32-.18Zm-.26-6.85c.34-.1,.64-.24,.9-.45,.26-.2,.47-.46,.63-.78,.16-.32,.24-.69,.24-1.12,0-.38-.07-.72-.22-1.01-.15-.29-.35-.53-.6-.72-.25-.19-.55-.34-.89-.44s-.72-.15-1.12-.15c-.37,0-.72,.05-1.07,.15s-.65,.25-.91,.44c-.27,.19-.48,.43-.64,.72-.16,.29-.24,.63-.24,1.01,0,.44,.08,.82,.25,1.14,.16,.32,.38,.58,.65,.78,.27,.2,.57,.35,.91,.44,.34,.09,.69,.13,1.05,.11,.37,.01,.72-.03,1.06-.12Z"/><path class="cls-17" d="M59.36,611.63c.17,.38,.4,.71,.69,.98s.63,.48,1.03,.63c.39,.15,.82,.22,1.27,.22,.52,0,.98-.1,1.39-.29,.41-.2,.75-.46,1.05-.8,.29-.34,.51-.72,.67-1.16,.15-.44,.23-.9,.23-1.38s-.09-.95-.26-1.37c-.17-.42-.41-.78-.7-1.09-.3-.31-.66-.55-1.07-.73s-.87-.27-1.37-.27c-.61,0-1.17,.14-1.69,.41-.52,.27-.94,.66-1.27,1.17h-1.03l1.29-6.9h6.66v1.1h-5.82l-.86,4.41,.04,.04c.33-.39,.75-.7,1.26-.91,.51-.22,1.03-.32,1.56-.32,.68,0,1.3,.11,1.85,.34,.55,.23,1.02,.55,1.41,.95s.68,.89,.89,1.45c.21,.56,.31,1.18,.31,1.85s-.12,1.25-.36,1.8c-.24,.55-.57,1.03-.99,1.43s-.91,.71-1.47,.93c-.56,.22-1.16,.33-1.8,.33s-1.2-.09-1.72-.28c-.53-.18-.98-.45-1.37-.8s-.69-.78-.92-1.28c-.23-.51-.35-1.08-.36-1.71h1.2c.01,.46,.1,.88,.28,1.26Z"/></g><g><line class="cls-11" x1="95.96" y1="42.27" x2="1087.4" y2="42.27"/><line class="cls-11" x1="120.29" y1="90.82" x2="1087.4" y2="90.82"/><line class="cls-11" x1="120.29" y1="139.38" x2="1087.4" y2="139.38"/><line class="cls-11" x1="120.29" y1="187.93" x2="1087.4" y2="187.93"/><line class="cls-11" x1="120.29" y1="236.48" x2="1087.4" y2="236.48"/><line class="cls-11" x1="120.29" y1="285.03" x2="1087.4" y2="285.03"/><line class="cls-11" x1="120.29" y1="333.58" x2="1087.4" y2="333.58"/><line class="cls-11" x1="120.29" y1="382.13" x2="1087.4" y2="382.13"/><line class="cls-11" x1="120.29" y1="430.69" x2="1087.4" y2="430.69"/><line class="cls-11" x1="120.29" y1="479.24" x2="1087.4" y2="479.24"/><path class="cls-15" d="M116.62,576.34c-13.43,0-24.32,10.87-24.32,24.28s10.89,24.28,24.32,24.28h1005.6"/><line class="cls-11" x1="120.29" y1="527.79" x2="1087.4" y2="527.79"/><line class="cls-11" x1="116.57" y1="576.34" x2="1087.4" y2="576.34"/><path class="cls-15" d="M1087.4,42.27c13.43,0,24.32,10.87,24.32,24.28s-10.89,24.28-24.32,24.28"/><path class="cls-15" d="M1087.4,139.38c13.43,0,24.32,10.87,24.32,24.28s-10.89,24.28-24.32,24.28"/><path class="cls-15" d="M1087.4,236.48c13.43,0,24.32,10.87,24.32,24.28s-10.89,24.28-24.32,24.28"/><path class="cls-15" d="M1087.4,333.58c13.43,0,24.32,10.87,24.32,24.28s-10.89,24.28-24.32,24.28"/><path class="cls-15" d="M1087.4,430.69c13.43,0,24.32,10.87,24.32,24.28s-10.89,24.28-24.32,24.28"/><path class="cls-15" d="M120.29,139.38c-13.43,0-24.32-10.87-24.32-24.28s10.89-24.28,24.32-24.28"/><path class="cls-15" d="M120.29,236.48c-13.43,0-24.32-10.87-24.32-24.28s10.89-24.28,24.32-24.28"/><path class="cls-15" d="M120.29,333.58c-13.43,0-24.32-10.87-24.32-24.28s10.89-24.28,24.32-24.28"/><path class="cls-15" d="M120.29,430.69c-13.43,0-24.32-10.87-24.32-24.28s10.89-24.28,24.32-24.28"/><path class="cls-15" d="M120.29,527.79c-13.43,0-24.32-10.87-24.32-24.28s10.89-24.28,24.32-24.28"/><path class="cls-15" d="M1087.4,527.79c13.43,0,24.32,10.87,24.32,24.28s-10.89,24.28-24.32,24.28"/></g><path class="cls-5" d="M200.11,90.82c0,3.81-3.08,6.89-6.89,6.89s-6.89-3.08-6.89-6.89,3.08-6.89,6.89-6.89,6.89,3.08,6.89,6.89" vector-effect="none"/><path class="cls-5" d="M149.01,187.93c0,3.81-3.08,6.89-6.89,6.89s-6.89-3.08-6.89-6.89,3.08-6.89,6.89-6.89,6.89,3.08,6.89,6.89" vector-effect="none"/><path class="cls-5" d="M557.78,236.48c0,3.81-3.08,6.89-6.89,6.89s-6.89-3.08-6.89-6.89,3.08-6.89,6.89-6.89,6.89,3.08,6.89,6.89" vector-effect="none"/><path class="cls-5" d="M838.81,236.48c0,3.81-3.08,6.89-6.89,6.89s-6.89-3.08-6.89-6.89,3.08-6.89,6.89-6.89,6.89,3.08,6.89,6.89" vector-effect="none"/><path class="cls-5" d="M353.36,284.83c0,3.81-3.08,6.89-6.89,6.89s-6.89-3.08-6.89-6.89,3.08-6.89,6.89-6.89,6.89,3.08,6.89,6.89" vector-effect="none"/><path class="cls-5" d="M225.66,333.6c0,3.81-3.08,6.89-6.89,6.89s-6.89-3.08-6.89-6.89,3.08-6.89,6.89-6.89,6.89,3.08,6.89,6.89" vector-effect="none"/><path class="cls-5" d="M302.3,333.58c0,3.81-3.08,6.89-6.89,6.89s-6.89-3.08-6.89-6.89,3.08-6.89,6.89-6.89,6.89,3.08,6.89,6.89" vector-effect="none"/><path class="cls-5" d="M327.85,333.59c0,3.81-3.08,6.89-6.89,6.89s-6.89-3.08-6.89-6.89,3.08-6.89,6.89-6.89,6.89,3.08,6.89,6.89" vector-effect="none"/><path class="cls-5" d="M813.26,333.6c0,3.81-3.08,6.89-6.89,6.89s-6.89-3.08-6.89-6.89,3.08-6.89,6.89-6.89,6.89,3.08,6.89,6.89" vector-effect="none"/><path class="cls-5" d="M941,382.14c0,3.81-3.08,6.89-6.89,6.89s-6.89-3.08-6.89-6.89,3.08-6.89,6.89-6.89,6.89,3.08,6.89,6.89" vector-effect="none"/><path class="cls-5" d="M889.91,382.14c0,3.81-3.08,6.89-6.89,6.89s-6.89-3.08-6.89-6.89,3.08-6.89,6.89-6.89,6.89,3.08,6.89,6.89" vector-effect="none"/><path class="cls-5" d="M838.81,382.13c0,3.81-3.08,6.89-6.89,6.89s-6.89-3.08-6.89-6.89,3.08-6.89,6.89-6.89,6.89,3.08,6.89,6.89" vector-effect="none"/><path class="cls-5" d="M787.72,382.14c0,3.81-3.08,6.89-6.89,6.89s-6.89-3.08-6.89-6.89,3.08-6.89,6.89-6.89,6.89,3.08,6.89,6.89" vector-effect="none"/><path class="cls-5" d="M711.07,382.13c0,3.81-3.08,6.89-6.89,6.89s-6.89-3.08-6.89-6.89,3.08-6.89,6.89-6.89,6.89,3.08,6.89,6.89" vector-effect="none"/><path class="cls-5" d="M659.98,382.13c0,3.81-3.08,6.89-6.89,6.89s-6.89-3.08-6.89-6.89,3.08-6.89,6.89-6.89,6.89,3.08,6.89,6.89" vector-effect="none"/><path class="cls-5" d="M608.66,381.94c0,3.81-3.08,6.89-6.89,6.89s-6.89-3.08-6.89-6.89,3.08-6.89,6.89-6.89,6.89,3.08,6.89,6.89" vector-effect="none"/><path class="cls-5" d="M481.14,382.13c0,3.81-3.08,6.89-6.89,6.89s-6.89-3.08-6.89-6.89,3.08-6.89,6.89-6.89,6.89,3.08,6.89,6.89" vector-effect="none"/><path class="cls-5" d="M327.85,382.32c0,3.81-3.08,6.89-6.89,6.89s-6.89-3.08-6.89-6.89,3.08-6.89,6.89-6.89,6.89,3.08,6.89,6.89" vector-effect="none"/><path class="cls-5" d="M251.2,382.13c0,3.81-3.08,6.89-6.89,6.89s-6.89-3.08-6.89-6.89,3.08-6.89,6.89-6.89,6.89,3.08,6.89,6.89" vector-effect="none"/><path class="cls-5" d="M149.01,382.14c0,3.81-3.08,6.89-6.89,6.89s-6.89-3.08-6.89-6.89,3.08-6.89,6.89-6.89,6.89,3.08,6.89,6.89" vector-effect="none"/><path class="cls-5" d="M123.46,382.14c0,3.81-3.08,6.89-6.89,6.89s-6.89-3.08-6.89-6.89,3.08-6.89,6.89-6.89,6.89,3.08,6.89,6.89" vector-effect="none"/><path class="cls-5" d="M353.4,430.72c0,3.81-3.08,6.89-6.89,6.89s-6.89-3.08-6.89-6.89,3.08-6.89,6.89-6.89,6.89,3.08,6.89,6.89" vector-effect="none"/><path class="cls-5" d="M583.33,430.68c0,3.81-3.08,6.89-6.89,6.89s-6.89-3.08-6.89-6.89,3.08-6.89,6.89-6.89,6.89,3.08,6.89,6.89" vector-effect="none"/><path class="cls-5" d="M634.43,430.68c0,3.81-3.08,6.89-6.89,6.89s-6.89-3.08-6.89-6.89,3.08-6.89,6.89-6.89,6.89,3.08,6.89,6.89" vector-effect="none"/><path class="cls-5" d="M711.07,430.72c0,3.81-3.08,6.89-6.89,6.89s-6.89-3.08-6.89-6.89,3.08-6.89,6.89-6.89,6.89,3.08,6.89,6.89" vector-effect="none"/><path class="cls-5" d="M787.72,430.98c0,3.81-3.08,6.89-6.89,6.89s-6.89-3.08-6.89-6.89,3.08-6.89,6.89-6.89,6.89,3.08,6.89,6.89" vector-effect="none"/><path class="cls-5" d="M1017.65,430.68c0,3.81-3.08,6.89-6.89,6.89s-6.89-3.08-6.89-6.89,3.08-6.89,6.89-6.89,6.89,3.08,6.89,6.89" vector-effect="none"/><path class="cls-5" d="M1094.29,430.68c0,3.81-3.08,6.89-6.89,6.89s-6.89-3.08-6.89-6.89,3.08-6.89,6.89-6.89,6.89,3.08,6.89,6.89" vector-effect="none"/><path class="cls-5" d="M1043.2,479.42c0,3.81-3.08,6.89-6.89,6.89s-6.89-3.08-6.89-6.89,3.08-6.89,6.89-6.89,6.89,3.08,6.89,6.89" vector-effect="none"/><path class="cls-5" d="M992.1,479.24c0,3.81-3.08,6.89-6.89,6.89s-6.89-3.08-6.89-6.89,3.08-6.89,6.89-6.89,6.89,3.08,6.89,6.89" vector-effect="none"/><path class="cls-5" d="M762.17,465.34c0,3.81-3.08,6.89-6.89,6.89s-6.89-3.08-6.89-6.89,3.08-6.89,6.89-6.89,6.89,3.08,6.89,6.89" vector-effect="none"/><path class="cls-5" d="M762.17,492.99c0,3.81-3.08,6.89-6.89,6.89s-6.89-3.08-6.89-6.89,3.08-6.89,6.89-6.89,6.89,3.08,6.89,6.89" vector-effect="none"/><path class="cls-5" d="M762.17,534.59c0,3.81-3.08,6.89-6.89,6.89s-6.89-3.08-6.89-6.89,3.08-6.89,6.89-6.89,6.89,3.08,6.89,6.89" vector-effect="none"/><path class="cls-5" d="M787.72,534.68c0,3.81-3.08,6.89-6.89,6.89s-6.89-3.08-6.89-6.89,3.08-6.89,6.89-6.89,6.89,3.08,6.89,6.89" vector-effect="none"/><path class="cls-5" d="M813.26,534.59c0,3.81-3.08,6.89-6.89,6.89s-6.89-3.08-6.89-6.89,3.08-6.89,6.89-6.89,6.89,3.08,6.89,6.89" vector-effect="none"/><path class="cls-5" d="M838.81,527.7c0,3.81-3.08,6.89-6.89,6.89s-6.89-3.08-6.89-6.89,3.08-6.89,6.89-6.89,6.89,3.08,6.89,6.89" vector-effect="none"/><path class="cls-5" d="M838.81,514.01c0,3.81-3.08,6.89-6.89,6.89s-6.89-3.08-6.89-6.89,3.08-6.89,6.89-6.89,6.89,3.08,6.89,6.89" vector-effect="none"/><path class="cls-5" d="M838.81,541.48c0,3.81-3.08,6.89-6.89,6.89s-6.89-3.08-6.89-6.89,3.08-6.89,6.89-6.89,6.89,3.08,6.89,6.89" vector-effect="none"/><path class="cls-5" d="M838.81,569.44c0,3.81-3.08,6.89-6.89,6.89s-6.89-3.08-6.89-6.89,3.08-6.89,6.89-6.89,6.89,3.08,6.89,6.89" vector-effect="none"/><path class="cls-5" d="M787.72,576.2c0,3.81-3.08,6.89-6.89,6.89s-6.89-3.08-6.89-6.89,3.08-6.89,6.89-6.89,6.89,3.08,6.89,6.89" vector-effect="none"/><path class="cls-5" d="M762.17,576.2c0,3.81-3.08,6.89-6.89,6.89s-6.89-3.08-6.89-6.89,3.08-6.89,6.89-6.89,6.89,3.08,6.89,6.89" vector-effect="none"/><path class="cls-5" d="M711.07,569.45c0,3.81-3.08,6.89-6.89,6.89s-6.89-3.08-6.89-6.89,3.08-6.89,6.89-6.89,6.89,3.08,6.89,6.89" vector-effect="none"/><path class="cls-5" d="M787.72,479.24c0,3.81-3.08,6.89-6.89,6.89s-6.89-3.08-6.89-6.89,3.08-6.89,6.89-6.89,6.89,3.08,6.89,6.89" vector-effect="none"/><path class="cls-5" d="M736.62,472.23c0,3.81-3.08,6.89-6.89,6.89s-6.89-3.08-6.89-6.89,3.08-6.89,6.89-6.89,6.89,3.08,6.89,6.89" vector-effect="none"/><path class="cls-5" d="M736.62,486.01c0,3.81-3.08,6.89-6.89,6.89s-6.89-3.08-6.89-6.89,3.08-6.89,6.89-6.89,6.89,3.08,6.89,6.89" vector-effect="none"/><path class="cls-5" d="M685.52,479.24c0,3.81-3.08,6.89-6.89,6.89s-6.89-3.08-6.89-6.89,3.08-6.89,6.89-6.89,6.89,3.08,6.89,6.89" vector-effect="none"/><path class="cls-5" d="M634.43,479.24c0,3.81-3.08,6.89-6.89,6.89s-6.89-3.08-6.89-6.89,3.08-6.89,6.89-6.89,6.89,3.08,6.89,6.89" vector-effect="none"/><path class="cls-5" d="M557.78,486.1c0,3.81-3.08,6.89-6.89,6.89s-6.89-3.08-6.89-6.89,3.08-6.89,6.89-6.89,6.89,3.08,6.89,6.89" vector-effect="none"/><path class="cls-5" d="M532.23,479.24c0,3.81-3.08,6.89-6.89,6.89s-6.89-3.08-6.89-6.89,3.08-6.89,6.89-6.89,6.89,3.08,6.89,6.89" vector-effect="none"/><path class="cls-5" d="M506.68,534.68c0,3.81-3.08,6.89-6.89,6.89s-6.89-3.08-6.89-6.89,3.08-6.89,6.89-6.89,6.89,3.08,6.89,6.89" vector-effect="none"/><path class="cls-5" d="M455.59,479.02c0,3.81-3.08,6.89-6.89,6.89s-6.89-3.08-6.89-6.89,3.08-6.89,6.89-6.89,6.89,3.08,6.89,6.89" vector-effect="none"/><path class="cls-5" d="M455.59,527.79c0,3.81-3.08,6.89-6.89,6.89s-6.89-3.08-6.89-6.89,3.08-6.89,6.89-6.89,6.89,3.08,6.89,6.89" vector-effect="none"/><path class="cls-5" d="M430.04,576.2c0,3.81-3.08,6.89-6.89,6.89s-6.89-3.08-6.89-6.89,3.08-6.89,6.89-6.89,6.89,3.08,6.89,6.89" vector-effect="none"/><path class="cls-5" d="M430.04,612.67c0,3.81-3.08,6.89-6.89,6.89s-6.89-3.08-6.89-6.89,3.08-6.89,6.89-6.89,6.89,3.08,6.89,6.89" vector-effect="none"/><path class="cls-5" d="M378.95,589.97c0,3.81-3.08,6.89-6.89,6.89s-6.89-3.08-6.89-6.89,3.08-6.89,6.89-6.89,6.89,3.08,6.89,6.89" vector-effect="none"/><path class="cls-5" d="M378.95,576.38c0,3.81-3.08,6.89-6.89,6.89s-6.89-3.08-6.89-6.89,3.08-6.89,6.89-6.89,6.89,3.08,6.89,6.89" vector-effect="none"/><path class="cls-5" d="M302.5,576.2c0,3.81-3.08,6.89-6.89,6.89s-6.89-3.08-6.89-6.89,3.08-6.89,6.89-6.89,6.89,3.08,6.89,6.89" vector-effect="none"/><path class="cls-5" d="M276.75,583.23c0,3.81-3.08,6.89-6.89,6.89s-6.89-3.08-6.89-6.89,3.08-6.89,6.89-6.89,6.89,3.08,6.89,6.89" vector-effect="none"/><path class="cls-5" d="M276.69,640.13c0,3.81-3.08,6.89-6.89,6.89s-6.89-3.08-6.89-6.89,3.08-6.89,6.89-6.89,6.89,3.08,6.89,6.89" vector-effect="none"/><path class="cls-5" d="M225.66,565.2c0,3.81-3.08,6.89-6.89,6.89s-6.89-3.08-6.89-6.89,3.08-6.89,6.89-6.89,6.89,3.08,6.89,6.89" vector-effect="none"/><path class="cls-5" d="M225.66,594.97c0,3.81-3.08,6.89-6.89,6.89s-6.89-3.08-6.89-6.89,3.08-6.89,6.89-6.89,6.89,3.08,6.89,6.89" vector-effect="none"/><path class="cls-5" d="M200.23,590.65c0,3.81-3.08,6.89-6.89,6.89s-6.89-3.08-6.89-6.89,3.08-6.89,6.89-6.89,6.89,3.08,6.89,6.89" vector-effect="none"/><path class="cls-5" d="M200.23,561.74c0,3.81-3.08,6.89-6.89,6.89s-6.89-3.08-6.89-6.89,3.08-6.89,6.89-6.89,6.89,3.08,6.89,6.89" vector-effect="none"/><path class="cls-5" d="M174.57,576.2c0,3.81-3.08,6.89-6.89,6.89s-6.89-3.08-6.89-6.89,3.08-6.89,6.89-6.89,6.89,3.08,6.89,6.89" vector-effect="none"/><path class="cls-5" d="M123.46,569.56c0,3.81-3.08,6.89-6.89,6.89s-6.89-3.08-6.89-6.89,3.08-6.89,6.89-6.89,6.89,3.08,6.89,6.89" vector-effect="none"/><path class="cls-5" d="M99.33,593.94c0,3.81-3.08,6.89-6.89,6.89s-6.89-3.08-6.89-6.89,3.08-6.89,6.89-6.89,6.89,3.08,6.89,6.89" vector-effect="none"/><path class="cls-5" d="M123.46,610.23c0,3.81-3.08,6.89-6.89,6.89s-6.89-3.08-6.89-6.89,3.08-6.89,6.89-6.89,6.89,3.08,6.89,6.89" vector-effect="none"/><path class="cls-5" d="M123.46,631.8c0,3.81-3.08,6.89-6.89,6.89s-6.89-3.08-6.89-6.89,3.08-6.89,6.89-6.89,6.89,3.08,6.89,6.89" vector-effect="none"/><path class="cls-5" d="M378.95,562.42c0,3.81-3.08,6.89-6.89,6.89s-6.89-3.08-6.89-6.89,3.08-6.89,6.89-6.89,6.89,3.08,6.89,6.89" vector-effect="none"/><path class="cls-5" d="M404.49,479.21c0,3.81-3.08,6.89-6.89,6.89s-6.89-3.08-6.89-6.89,3.08-6.89,6.89-6.89,6.89,3.08,6.89,6.89" vector-effect="none"/><path class="cls-5" d="M353.4,479.01c0,3.81-3.08,6.89-6.89,6.89s-6.89-3.08-6.89-6.89,3.08-6.89,6.89-6.89,6.89,3.08,6.89,6.89" vector-effect="none"/><path class="cls-5" d="M327.61,485.9c0,3.81-3.08,6.89-6.89,6.89s-6.89-3.08-6.89-6.89,3.08-6.89,6.89-6.89,6.89,3.08,6.89,6.89" vector-effect="none"/><path class="cls-5" d="M302.18,479.24c0,3.81-3.08,6.89-6.89,6.89s-6.89-3.08-6.89-6.89,3.08-6.89,6.89-6.89,6.89,3.08,6.89,6.89" vector-effect="none"/><path class="cls-5" d="M276.75,479.01c0,3.81-3.08,6.89-6.89,6.89s-6.89-3.08-6.89-6.89,3.08-6.89,6.89-6.89,6.89,3.08,6.89,6.89" vector-effect="none"/><path class="cls-5" d="M225.66,479.24c0,3.81-3.08,6.89-6.89,6.89s-6.89-3.08-6.89-6.89,3.08-6.89,6.89-6.89,6.89,3.08,6.89,6.89" vector-effect="none"/><path class="cls-5" d="M889.91,479.24c0,3.81-3.08,6.89-6.89,6.89s-6.89-3.08-6.89-6.89,3.08-6.89,6.89-6.89,6.89,3.08,6.89,6.89" vector-effect="none"/><path class="cls-5" d="M914.85,514.01c0,3.81-3.08,6.89-6.89,6.89s-6.89-3.08-6.89-6.89,3.08-6.89,6.89-6.89,6.89,3.08,6.89,6.89" vector-effect="none"/><path class="cls-5" d="M915.46,541.61c0,3.81-3.08,6.89-6.89,6.89s-6.89-3.08-6.89-6.89,3.08-6.89,6.89-6.89,6.89,3.08,6.89,6.89" vector-effect="none"/><path class="cls-5" d="M941,527.83c0,3.81-3.08,6.89-6.89,6.89s-6.89-3.08-6.89-6.89,3.08-6.89,6.89-6.89,6.89,3.08,6.89,6.89" vector-effect="none"/><path class="cls-5" d="M966.55,527.83c0,3.81-3.08,6.89-6.89,6.89s-6.89-3.08-6.89-6.89,3.08-6.89,6.89-6.89,6.89,3.08,6.89,6.89" vector-effect="none"/><path class="cls-5" d="M941,465.46c0,3.81-3.08,6.89-6.89,6.89s-6.89-3.08-6.89-6.89,3.08-6.89,6.89-6.89,6.89,3.08,6.89,6.89" vector-effect="none"/><path class="cls-5" d="M941,492.97c0,3.81-3.08,6.89-6.89,6.89s-6.89-3.08-6.89-6.89,3.08-6.89,6.89-6.89,6.89,3.08,6.89,6.89" vector-effect="none"/><path class="cls-5" d="M123.46,527.83c0,3.81-3.08,6.89-6.89,6.89s-6.89-3.08-6.89-6.89,3.08-6.89,6.89-6.89,6.89,3.08,6.89,6.89" vector-effect="none"/><path class="cls-5" d="M200.23,520.9c0,3.81-3.08,6.89-6.89,6.89s-6.89-3.08-6.89-6.89,3.08-6.89,6.89-6.89,6.89,3.08,6.89,6.89" vector-effect="none"/><path class="cls-5" d="M225.66,514.39c0,3.81-3.08,6.89-6.89,6.89s-6.89-3.08-6.89-6.89,3.08-6.89,6.89-6.89,6.89,3.08,6.89,6.89" vector-effect="none"/><path class="cls-5" d="M225.66,500.61c0,3.81-3.08,6.89-6.89,6.89s-6.89-3.08-6.89-6.89,3.08-6.89,6.89-6.89,6.89,3.08,6.89,6.89" vector-effect="none"/><path class="cls-5" d="M276.75,527.79c0,3.81-3.08,6.89-6.89,6.89s-6.89-3.08-6.89-6.89,3.08-6.89,6.89-6.89,6.89,3.08,6.89,6.89" vector-effect="none"/><path class="cls-5" d="M327.85,527.79c0,3.81-3.08,6.89-6.89,6.89s-6.89-3.08-6.89-6.89,3.08-6.89,6.89-6.89,6.89,3.08,6.89,6.89" vector-effect="none"/><path class="cls-5" d="M225.66,528.16c0,3.81-3.08,6.89-6.89,6.89s-6.89-3.08-6.89-6.89,3.08-6.89,6.89-6.89,6.89,3.08,6.89,6.89" vector-effect="none"/><path class="cls-5" d="M200.11,534.72c0,3.81-3.08,6.89-6.89,6.89s-6.89-3.08-6.89-6.89,3.08-6.89,6.89-6.89,6.89,3.08,6.89,6.89" vector-effect="none"/><path class="cls-5" d="M532.14,534.78c0,3.81-3.08,6.89-6.89,6.89s-6.89-3.08-6.89-6.89,3.08-6.89,6.89-6.89,6.89,3.08,6.89,6.89" vector-effect="none"/><path class="cls-5" d="M583.33,520.94c0,3.81-3.08,6.89-6.89,6.89s-6.89-3.08-6.89-6.89,3.08-6.89,6.89-6.89,6.89,3.08,6.89,6.89" vector-effect="none"/><path class="cls-5" d="M583.33,534.68c0,3.81-3.08,6.89-6.89,6.89s-6.89-3.08-6.89-6.89,3.08-6.89,6.89-6.89,6.89,3.08,6.89,6.89" vector-effect="none"/><path class="cls-5" d="M608.88,527.64c0,3.81-3.08,6.89-6.89,6.89s-6.89-3.08-6.89-6.89,3.08-6.89,6.89-6.89,6.89,3.08,6.89,6.89" vector-effect="none"/><path class="cls-5" d="M608.88,576.34c0,3.81-3.08,6.89-6.89,6.89s-6.89-3.08-6.89-6.89,3.08-6.89,6.89-6.89,6.89,3.08,6.89,6.89" vector-effect="none"/><path class="cls-5" d="M1043.2,569.31c0,3.81-3.08,6.89-6.89,6.89s-6.89-3.08-6.89-6.89,3.08-6.89,6.89-6.89,6.89,3.08,6.89,6.89" vector-effect="none"/><path class="cls-5" d="M1043.2,583.09c0,3.81-3.08,6.89-6.89,6.89s-6.89-3.08-6.89-6.89,3.08-6.89,6.89-6.89,6.89,3.08,6.89,6.89" vector-effect="none"/><path class="cls-5" d="M634.43,601.98c0,3.81-3.08,6.89-6.89,6.89s-6.89-3.08-6.89-6.89,3.08-6.89,6.89-6.89,6.89,3.08,6.89,6.89" vector-effect="none"/><path class="cls-5" d="M864.36,618c0,3.81-3.08,6.89-6.89,6.89s-6.89-3.08-6.89-6.89,3.08-6.89,6.89-6.89,6.89,3.08,6.89,6.89" vector-effect="none"/><path class="cls-5" d="M915.46,624.89c0,3.81-3.08,6.89-6.89,6.89s-6.89-3.08-6.89-6.89,3.08-6.89,6.89-6.89,6.89,3.08,6.89,6.89" vector-effect="none"/><path class="cls-1" d="M276.75,626.3c0,3.81-3.08,6.89-6.89,6.89s-6.89-3.08-6.89-6.89,3.08-6.89,6.89-6.89,6.89,3.08,6.89,6.89" vector-effect="none"/><path class="cls-1" d="M276.75,612.22c0,3.81-3.08,6.89-6.89,6.89s-6.89-3.08-6.89-6.89,3.08-6.89,6.89-6.89,6.89,3.08,6.89,6.89" vector-effect="none"/><path class="cls-1" d="M174.56,589.55c0,3.81-3.08,6.89-6.89,6.89s-6.89-3.08-6.89-6.89,3.08-6.89,6.89-6.89,6.89,3.08,6.89,6.89" vector-effect="none"/><path class="cls-1" d="M123.46,583.42c0,3.81-3.08,6.89-6.89,6.89s-6.89-3.08-6.89-6.89,3.08-6.89,6.89-6.89,6.89,3.08,6.89,6.89" vector-effect="none"/><path class="cls-1" d="M864.36,631.8c0,3.81-3.08,6.89-6.89,6.89s-6.89-3.08-6.89-6.89,3.08-6.89,6.89-6.89,6.89,3.08,6.89,6.89" vector-effect="none"/><g><path class="cls-1" d="M200.23,576.2c0,3.81-3.08,6.89-6.89,6.89s-6.89-3.08-6.89-6.89,3.08-6.89,6.89-6.89,6.89,3.08,6.89,6.89" vector-effect="none"/><circle class="cls-18" cx="193.34" cy="576.2" r="4.2"/></g><g><path class="cls-1" d="M174.48,614.08c0,3.81-3.08,6.89-6.89,6.89s-6.89-3.08-6.89-6.89,3.08-6.89,6.89-6.89,6.89,3.08,6.89,6.89" vector-effect="none"/><circle class="cls-18" cx="167.59" cy="614.09" r="4.2"/></g><g><path class="cls-1" d="M149.01,624.72c0,3.81-3.08,6.89-6.89,6.89s-6.89-3.08-6.89-6.89,3.08-6.89,6.89-6.89,6.89,3.08,6.89,6.89" vector-effect="none"/><circle class="cls-18" cx="142.12" cy="624.72" r="4.2"/></g><g><path class="cls-1" d="M302.3,589.87c0,3.81-3.08,6.89-6.89,6.89s-6.89-3.08-6.89-6.89,3.08-6.89,6.89-6.89,6.89,3.08,6.89,6.89" vector-effect="none"/><circle class="cls-18" cx="295.41" cy="589.87" r="4.2"/></g><g><path class="cls-1" d="M711.07,555.67c0,3.81-3.08,6.89-6.89,6.89s-6.89-3.08-6.89-6.89,3.08-6.89,6.89-6.89,6.89,3.08,6.89,6.89" vector-effect="none"/><circle class="cls-18" cx="704.18" cy="555.67" r="4.2"/></g><g><path class="cls-1" d="M787.72,520.9c0,3.81-3.08,6.89-6.89,6.89s-6.89-3.08-6.89-6.89,3.08-6.89,6.89-6.89,6.89,3.08,6.89,6.89" vector-effect="none"/><circle class="cls-18" cx="780.83" cy="520.9" r="4.2"/></g><g><path class="cls-1" d="M813.26,576.34c0,3.81-3.08,6.89-6.89,6.89s-6.89-3.08-6.89-6.89,3.08-6.89,6.89-6.89,6.89,3.08,6.89,6.89" vector-effect="none"/><circle class="cls-18" cx="806.37" cy="576.34" r="4.2"/></g><g><path class="cls-1" d="M1043.2,624.91c0,3.81-3.08,6.89-6.89,6.89s-6.89-3.08-6.89-6.89,3.08-6.89,6.89-6.89,6.89,3.08,6.89,6.89" vector-effect="none"/><circle class="cls-18" cx="1036.31" cy="624.91" r="4.2"/></g><g><path class="cls-1" d="M1094.29,624.91c0,3.81-3.08,6.89-6.89,6.89s-6.89-3.08-6.89-6.89,3.08-6.89,6.89-6.89,6.89,3.08,6.89,6.89" vector-effect="none"/><circle class="cls-18" cx="1087.4" cy="624.91" r="4.2"/></g><g><path class="cls-2" d="M174.56,562.42c0,3.81-3.08,6.89-6.89,6.89s-6.89-3.08-6.89-6.89,3.08-6.89,6.89-6.89,6.89,3.08,6.89,6.89" vector-effect="none"/><circle class="cls-16" cx="167.67" cy="562.42" r="4.2"/></g><g><path class="cls-2" d="M251.2,624.89c0,3.81-3.08,6.89-6.89,6.89s-6.89-3.08-6.89-6.89,3.08-6.89,6.89-6.89,6.89,3.08,6.89,6.89" vector-effect="none"/><circle class="cls-16" cx="244.32" cy="624.89" r="4.2"/></g><g><path class="cls-2" d="M481.14,569.31c0,3.81-3.08,6.89-6.89,6.89s-6.89-3.08-6.89-6.89,3.08-6.89,6.89-6.89,6.89,3.08,6.89,6.89" vector-effect="none"/><circle class="cls-16" cx="474.25" cy="569.31" r="4.2"/></g><g><path class="cls-2" d="M583.33,637.16c0,3.81-3.08,6.89-6.89,6.89s-6.89-3.08-6.89-6.89,3.08-6.89,6.89-6.89,6.89,3.08,6.89,6.89" vector-effect="none"/><circle class="cls-16" cx="576.44" cy="637.16" r="4.2"/></g><g><path class="cls-2" d="M685.56,576.28c0,3.81-3.08,6.89-6.89,6.89s-6.89-3.08-6.89-6.89,3.08-6.89,6.89-6.89,6.89,3.08,6.89,6.89" vector-effect="none"/><circle class="cls-16" cx="678.67" cy="576.28" r="4.2"/></g><g><path class="cls-2" d="M506.69,520.9c0,3.81-3.08,6.89-6.89,6.89s-6.89-3.08-6.89-6.89,3.08-6.89,6.89-6.89,6.89,3.08,6.89,6.89" vector-effect="none"/><circle class="cls-16" cx="499.8" cy="520.9" r="4.2"/></g><rect class="cls-16" x="291.63" y="552.43" width="7.56" height="7.56" transform="translate(479.82 -45.98) rotate(45)"/><rect class="cls-16" x="266.09" y="559.45" width="7.56" height="7.56" transform="translate(477.31 -25.86) rotate(45)"/><rect class="cls-16" x="240.54" y="572.59" width="7.56" height="7.56" transform="translate(479.11 -3.94) rotate(45)"/><rect class="cls-16" x="112.8" y="553.21" width="7.56" height="7.56" transform="translate(427.99 80.71) rotate(45)"/><rect class="cls-16" x="112.8" y="640.26" width="7.56" height="7.56" transform="translate(489.55 106.2) rotate(45)"/><rect class="cls-16" x="163.73" y="630.3" width="7.56" height="7.56" transform="translate(497.42 67.27) rotate(45)"/><rect class="cls-16" x="521.6" y="572.56" width="7.56" height="7.56" transform="translate(561.41 -202.69) rotate(45)"/><rect class="cls-16" x="572.66" y="572.56" width="7.56" height="7.56" transform="translate(576.37 -238.8) rotate(45)"/><rect class="cls-16" x="572.66" y="621.16" width="7.56" height="7.56" transform="translate(610.73 -224.57) rotate(45)"/><rect class="cls-16" x="214.99" y="607.78" width="7.56" height="7.56" transform="translate(496.51 24.43) rotate(45)"/><rect class="cls-16" x="214.99" y="613.12" width="7.56" height="7.56" transform="translate(500.29 25.99) rotate(45)"/><rect class="cls-16" x="214.99" y="618.47" width="7.56" height="7.56" transform="translate(504.07 27.56) rotate(45)"/><rect class="cls-16" x="214.99" y="623.81" width="7.56" height="7.56" transform="translate(507.85 29.12) rotate(45)"/><rect class="cls-16" x="214.99" y="629.15" width="7.56" height="7.56" transform="translate(511.62 30.69) rotate(45)"/><rect class="cls-16" x="214.99" y="634.49" width="7.56" height="7.56" transform="translate(515.4 32.25) rotate(45)"/><rect class="cls-16" x="266.09" y="648.64" width="7.56" height="7.56" transform="translate(540.37 .27) rotate(45)"/><rect class="cls-16" x="317.18" y="621.12" width="7.56" height="7.56" transform="translate(535.87 -43.93) rotate(45)"/><rect class="cls-16" x="291.83" y="615.8" width="7.56" height="7.56" transform="translate(524.69 -27.56) rotate(45)"/><rect class="cls-16" x="291.83" y="626.48" width="7.56" height="7.56" transform="translate(532.24 -24.43) rotate(45)"/><rect class="cls-16" x="342.73" y="621.55" width="7.56" height="7.56" transform="translate(543.67 -61.86) rotate(45)"/><path class="cls-5" d="M404.49,597.2c0,3.81-3.08,6.89-6.89,6.89s-6.89-3.08-6.89-6.89,3.08-6.89,6.89-6.89,6.89,3.08,6.89,6.89" vector-effect="none"/><g><path class="cls-1" d="M404.49,611c0,3.81-3.08,6.89-6.89,6.89s-6.89-3.08-6.89-6.89,3.08-6.89,6.89-6.89,6.89,3.08,6.89,6.89" vector-effect="none"/><circle class="cls-18" cx="397.6" cy="611" r="4.2"/></g><g><path class="cls-2" d="M404.49,624.79c0,3.81-3.08,6.89-6.89,6.89s-6.89-3.08-6.89-6.89,3.08-6.89,6.89-6.89,6.89,3.08,6.89,6.89" vector-effect="none"/><circle class="cls-16" cx="397.6" cy="624.79" r="4.2"/></g><rect class="cls-16" x="393.82" y="633.24" width="7.56" height="7.56" transform="translate(566.9 -94.57) rotate(45)"/><rect class="cls-16" x="393.82" y="638.58" width="7.56" height="7.56" transform="translate(570.67 -93) rotate(45)"/><rect class="cls-16" x="393.82" y="643.93" width="7.56" height="7.56" transform="translate(574.45 -91.44) rotate(45)"/><rect class="cls-16" x="393.82" y="649.27" width="7.56" height="7.56" transform="translate(578.23 -89.87) rotate(45)"/><rect class="cls-16" x="393.82" y="654.61" width="7.56" height="7.56" transform="translate(582.01 -88.31) rotate(45)"/><rect class="cls-16" x="444.92" y="610.45" width="7.56" height="7.56" transform="translate(565.75 -137.38) rotate(45)"/><rect class="cls-16" x="444.92" y="615.79" width="7.56" height="7.56" transform="translate(569.53 -135.81) rotate(45)"/><rect class="cls-16" x="444.92" y="621.14" width="7.56" height="7.56" transform="translate(573.3 -134.25) rotate(45)"/><rect class="cls-16" x="444.92" y="626.48" width="7.56" height="7.56" transform="translate(577.08 -132.68) rotate(45)"/><rect class="cls-16" x="444.92" y="631.82" width="7.56" height="7.56" transform="translate(580.86 -131.12) rotate(45)"/><rect class="cls-16" x="470.47" y="607.78" width="7.56" height="7.56" transform="translate(571.34 -156.22) rotate(45)"/><rect class="cls-16" x="470.47" y="613.12" width="7.56" height="7.56" transform="translate(575.12 -154.66) rotate(45)"/><rect class="cls-16" x="470.47" y="618.47" width="7.56" height="7.56" transform="translate(578.9 -153.09) rotate(45)"/><rect class="cls-16" x="470.47" y="623.81" width="7.56" height="7.56" transform="translate(582.67 -151.53) rotate(45)"/><rect class="cls-16" x="470.47" y="629.15" width="7.56" height="7.56" transform="translate(586.45 -149.96) rotate(45)"/><rect class="cls-16" x="470.47" y="634.49" width="7.56" height="7.56" transform="translate(590.23 -148.4) rotate(45)"/><rect class="cls-16" x="496.02" y="607.78" width="7.56" height="7.56" transform="translate(578.82 -174.29) rotate(45)"/><rect class="cls-16" x="496.02" y="602.44" width="7.56" height="7.56" transform="translate(575.05 -175.85) rotate(45)"/><rect class="cls-16" x="496.02" y="613.12" width="7.56" height="7.56" transform="translate(582.6 -172.72) rotate(45)"/><rect class="cls-16" x="496.02" y="618.47" width="7.56" height="7.56" transform="translate(586.38 -171.16) rotate(45)"/><rect class="cls-16" x="496.02" y="623.81" width="7.56" height="7.56" transform="translate(590.16 -169.59) rotate(45)"/><rect class="cls-16" x="496.02" y="629.15" width="7.56" height="7.56" transform="translate(593.94 -168.03) rotate(45)"/><rect class="cls-16" x="496.02" y="634.49" width="7.56" height="7.56" transform="translate(597.71 -166.46) rotate(45)"/><rect class="cls-16" x="623.77" y="615.77" width="7.56" height="7.56" transform="translate(621.89 -262.29) rotate(45)"/><rect class="cls-16" x="623.77" y="610.43" width="7.56" height="7.56" transform="translate(618.11 -263.85) rotate(45)"/><rect class="cls-16" x="623.77" y="621.11" width="7.56" height="7.56" transform="translate(625.67 -260.72) rotate(45)"/><rect class="cls-16" x="623.77" y="626.45" width="7.56" height="7.56" transform="translate(629.45 -259.16) rotate(45)"/><rect class="cls-16" x="623.77" y="631.8" width="7.56" height="7.56" transform="translate(633.22 -257.59) rotate(45)"/><rect class="cls-16" x="623.77" y="637.14" width="7.56" height="7.56" transform="translate(637 -256.03) rotate(45)"/><rect class="cls-16" x="623.77" y="642.48" width="7.56" height="7.56" transform="translate(640.78 -254.46) rotate(45)"/><g><path class="cls-2" d="M659.97,654.61c0,3.81-3.08,6.89-6.89,6.89s-6.89-3.08-6.89-6.89,3.08-6.89,6.89-6.89,6.89,3.08,6.89,6.89" vector-effect="none"/><circle class="cls-16" cx="653.08" cy="654.61" r="4.2"/></g><path class="cls-5" d="M659.97,668.2c0,3.81-3.08,6.89-6.89,6.89s-6.89-3.08-6.89-6.89,3.08-6.89,6.89-6.89,6.89,3.08,6.89,6.89" vector-effect="none"/><rect class="cls-16" x="649.31" y="606.55" width="7.56" height="7.56" transform="translate(622.85 -283.04) rotate(45)"/><rect class="cls-16" x="649.31" y="601.2" width="7.56" height="7.56" transform="translate(619.07 -284.61) rotate(45)"/><rect class="cls-16" x="649.31" y="611.89" width="7.56" height="7.56" transform="translate(626.63 -281.48) rotate(45)"/><rect class="cls-16" x="649.31" y="617.23" width="7.56" height="7.56" transform="translate(630.41 -279.91) rotate(45)"/><rect class="cls-16" x="649.31" y="622.58" width="7.56" height="7.56" transform="translate(634.18 -278.35) rotate(45)"/><rect class="cls-16" x="649.31" y="627.92" width="7.56" height="7.56" transform="translate(637.96 -276.78) rotate(45)"/><rect class="cls-16" x="649.31" y="633.26" width="7.56" height="7.56" transform="translate(641.74 -275.22) rotate(45)"/><rect class="cls-16" x="649.31" y="638.6" width="7.56" height="7.56" transform="translate(645.52 -273.65) rotate(45)"/><rect class="cls-16" x="725.95" y="610.45" width="7.56" height="7.56" transform="translate(648.06 -336.09) rotate(45)"/><rect class="cls-16" x="725.95" y="628.87" width="7.56" height="7.56" transform="translate(661.08 -330.7) rotate(45)"/><g><path class="cls-2" d="M762.17,598.25c0,3.81-3.08,6.89-6.89,6.89s-6.89-3.08-6.89-6.89,3.08-6.89,6.89-6.89,6.89,3.08,6.89,6.89" vector-effect="none"/><circle class="cls-16" cx="755.28" cy="598.25" r="4.2"/></g><path class="cls-6" d="M762.17,660.05c0,3.81-3.08,6.89-6.89,6.89s-6.89-3.08-6.89-6.89,3.08-6.89,6.89-6.89,6.89,3.08,6.89,6.89" vector-effect="none"/><path class="cls-6" d="M762.17,675.09c0,3.81-3.08,6.89-6.89,6.89s-6.89-3.08-6.89-6.89,3.08-6.89,6.89-6.89,6.89,3.08,6.89,6.89" vector-effect="none"/><rect class="cls-16" x="751.5" y="611.98" width="7.56" height="7.56" transform="translate(656.62 -353.71) rotate(45)"/><rect class="cls-16" x="751.5" y="606.64" width="7.56" height="7.56" transform="translate(652.85 -355.28) rotate(45)"/><rect class="cls-16" x="751.5" y="617.32" width="7.56" height="7.56" transform="translate(660.4 -352.15) rotate(45)"/><rect class="cls-16" x="751.5" y="622.67" width="7.56" height="7.56" transform="translate(664.18 -350.58) rotate(45)"/><rect class="cls-16" x="751.5" y="628.01" width="7.56" height="7.56" transform="translate(667.96 -349.02) rotate(45)"/><rect class="cls-16" x="751.5" y="633.35" width="7.56" height="7.56" transform="translate(671.74 -347.45) rotate(45)"/><rect class="cls-16" x="751.5" y="638.7" width="7.56" height="7.56" transform="translate(675.51 -345.89) rotate(45)"/><rect class="cls-16" x="751.5" y="644.04" width="7.56" height="7.56" transform="translate(679.29 -344.32) rotate(45)"/><g><path class="cls-2" d="M813.23,598.25c0,3.81-3.08,6.89-6.89,6.89s-6.89-3.08-6.89-6.89,3.08-6.89,6.89-6.89,6.89,3.08,6.89,6.89" vector-effect="none"/><circle class="cls-16" cx="806.34" cy="598.25" r="4.2"/></g><g><path class="cls-2" d="M813.26,660.03c0,3.81-3.08,6.89-6.89,6.89s-6.89-3.08-6.89-6.89,3.08-6.89,6.89-6.89,6.89,3.08,6.89,6.89" vector-effect="none"/><circle class="cls-16" cx="806.38" cy="660.04" r="4.2"/></g><rect class="cls-16" x="802.56" y="611.98" width="7.56" height="7.56" transform="translate(671.58 -389.82) rotate(45)"/><rect class="cls-16" x="802.56" y="606.64" width="7.56" height="7.56" transform="translate(667.8 -391.38) rotate(45)"/><rect class="cls-16" x="802.56" y="617.32" width="7.56" height="7.56" transform="translate(675.36 -388.25) rotate(45)"/><rect class="cls-16" x="802.56" y="622.67" width="7.56" height="7.56" transform="translate(679.14 -386.69) rotate(45)"/><rect class="cls-16" x="802.56" y="628.01" width="7.56" height="7.56" transform="translate(682.91 -385.12) rotate(45)"/><rect class="cls-16" x="802.56" y="633.35" width="7.56" height="7.56" transform="translate(686.69 -383.56) rotate(45)"/><rect class="cls-16" x="802.56" y="638.7" width="7.56" height="7.56" transform="translate(690.47 -381.99) rotate(45)"/><rect class="cls-16" x="802.56" y="644.04" width="7.56" height="7.56" transform="translate(694.25 -380.43) rotate(45)"/><g><path class="cls-2" d="M787.7,676.08c0,3.81-3.08,6.89-6.89,6.89s-6.89-3.08-6.89-6.89,3.08-6.89,6.89-6.89,6.89,3.08,6.89,6.89" vector-effect="none"/><circle class="cls-16" cx="780.81" cy="676.08" r="4.2"/></g><g><path class="cls-2" d="M787.72,598.25c0,3.81-3.08,6.89-6.89,6.89s-6.89-3.08-6.89-6.89,3.08-6.89,6.89-6.89,6.89,3.08,6.89,6.89" vector-effect="none"/><circle class="cls-16" cx="780.83" cy="598.25" r="4.2"/></g><rect class="cls-16" x="777.03" y="606.68" width="7.56" height="7.56" transform="translate(660.35 -373.32) rotate(45)"/><rect class="cls-16" x="777.03" y="612.02" width="7.56" height="7.56" transform="translate(664.13 -371.75) rotate(45)"/><rect class="cls-16" x="777.03" y="617.37" width="7.56" height="7.56" transform="translate(667.91 -370.19) rotate(45)"/><rect class="cls-16" x="777.03" y="622.71" width="7.56" height="7.56" transform="translate(671.69 -368.62) rotate(45)"/><rect class="cls-16" x="777.03" y="628.05" width="7.56" height="7.56" transform="translate(675.47 -367.06) rotate(45)"/><rect class="cls-16" x="777.03" y="633.4" width="7.56" height="7.56" transform="translate(679.24 -365.49) rotate(45)"/><rect class="cls-16" x="777.03" y="638.74" width="7.56" height="7.56" transform="translate(683.02 -363.93) rotate(45)"/><rect class="cls-16" x="777.03" y="644.08" width="7.56" height="7.56" transform="translate(686.8 -362.36) rotate(45)"/><rect class="cls-16" x="777.03" y="649.42" width="7.56" height="7.56" transform="translate(690.58 -360.8) rotate(45)"/><rect class="cls-16" x="777.03" y="654.77" width="7.56" height="7.56" transform="translate(694.36 -359.23) rotate(45)"/><rect class="cls-16" x="777.03" y="660.11" width="7.56" height="7.56" transform="translate(698.13 -357.67) rotate(45)"/><rect class="cls-16" x="521.57" y="613.12" width="7.56" height="7.56" transform="translate(590.08 -190.79) rotate(45)"/><rect class="cls-16" x="521.57" y="618.47" width="7.56" height="7.56" transform="translate(593.86 -189.23) rotate(45)"/><rect class="cls-16" x="521.57" y="623.81" width="7.56" height="7.56" transform="translate(597.64 -187.66) rotate(45)"/><rect class="cls-16" x="521.57" y="629.15" width="7.56" height="7.56" transform="translate(601.42 -186.09) rotate(45)"/><rect class="cls-16" x="547.12" y="613.62" width="7.56" height="7.56" transform="translate(597.92 -208.71) rotate(45)"/><rect class="cls-16" x="547.12" y="618.96" width="7.56" height="7.56" transform="translate(601.7 -207.14) rotate(45)"/><rect class="cls-16" x="547.12" y="624.3" width="7.56" height="7.56" transform="translate(605.47 -205.58) rotate(45)"/><rect class="cls-16" x="547.12" y="629.65" width="7.56" height="7.56" transform="translate(609.25 -204.01) rotate(45)"/><rect class="cls-16" x="547.12" y="634.99" width="7.56" height="7.56" transform="translate(613.03 -202.45) rotate(45)"/><rect class="cls-16" x="700.4" y="605.65" width="7.56" height="7.56" transform="translate(637.18 -319.43) rotate(45)"/><rect class="cls-16" x="700.4" y="610.99" width="7.56" height="7.56" transform="translate(640.96 -317.87) rotate(45)"/><rect class="cls-16" x="700.4" y="616.34" width="7.56" height="7.56" transform="translate(644.74 -316.3) rotate(45)"/><rect class="cls-16" x="700.4" y="621.68" width="7.56" height="7.56" transform="translate(648.52 -314.74) rotate(45)"/><rect class="cls-16" x="700.4" y="627.02" width="7.56" height="7.56" transform="translate(652.29 -313.17) rotate(45)"/><rect class="cls-16" x="700.4" y="632.37" width="7.56" height="7.56" transform="translate(656.07 -311.61) rotate(45)"/><rect class="cls-16" x="700.4" y="637.71" width="7.56" height="7.56" transform="translate(659.85 -310.04) rotate(45)"/><rect class="cls-16" x="700.4" y="643.05" width="7.56" height="7.56" transform="translate(663.63 -308.48) rotate(45)"/><rect class="cls-16" x="700.4" y="648.39" width="7.56" height="7.56" transform="translate(667.41 -306.92) rotate(45)"/><rect class="cls-16" x="700.4" y="653.74" width="7.56" height="7.56" transform="translate(671.18 -305.35) rotate(45)"/><rect class="cls-16" x="700.4" y="659.08" width="7.56" height="7.56" transform="translate(674.96 -303.79) rotate(45)"/><rect class="cls-16" x="700.4" y="664.42" width="7.56" height="7.56" transform="translate(678.74 -302.22) rotate(45)"/><rect class="cls-16" x="700.4" y="669.77" width="7.56" height="7.56" transform="translate(682.52 -300.66) rotate(45)"/><rect class="cls-16" x="700.4" y="675.11" width="7.56" height="7.56" transform="translate(686.3 -299.09) rotate(45)"/><g><path class="cls-1" d="M711.07,597.2c0,3.81-3.08,6.89-6.89,6.89s-6.89-3.08-6.89-6.89,3.08-6.89,6.89-6.89,6.89,3.08,6.89,6.89" vector-effect="none"/><circle class="cls-18" cx="704.18" cy="597.21" r="4.2"/></g><rect class="cls-18" x="240.54" y="518.3" width="7.56" height="7.56" transform="translate(440.73 -19.84) rotate(45)"/><rect class="cls-18" x="88.51" y="602.32" width="7.56" height="7.56" transform="translate(455.61 112.26) rotate(45)"/><rect class="cls-18" x="189.44" y="615.77" width="7.56" height="7.56" transform="translate(494.68 44.84) rotate(45)"/><rect class="cls-18" x="189.44" y="626.46" width="7.56" height="7.56" transform="translate(502.24 47.97) rotate(45)"/><rect class="cls-18" x="368.28" y="610.55" width="7.56" height="7.56" transform="translate(543.37 -83.15) rotate(45)"/><rect class="cls-18" x="419.37" y="621.12" width="7.56" height="7.56" transform="translate(565.8 -116.19) rotate(45)"/><rect class="cls-18" x="444.92" y="572.71" width="7.56" height="7.56" transform="translate(539.06 -148.43) rotate(45)"/><rect class="cls-18" x="598.21" y="620.02" width="7.56" height="7.56" transform="translate(617.41 -242.96) rotate(45)"/><rect class="cls-18" x="955.89" y="572.56" width="7.56" height="7.56" transform="translate(688.61 -509.78) rotate(45)"/><rect class="cls-18" x="930.35" y="567.23" width="7.56" height="7.56" transform="translate(677.36 -493.28) rotate(45)"/><rect class="cls-18" x="342.73" y="572.56" width="7.56" height="7.56" transform="translate(509.02 -76.21) rotate(45)"/><rect class="cls-18" x="214.99" y="573.63" width="7.56" height="7.56" transform="translate(472.37 14.43) rotate(45)"/><rect class="cls-16" x="214.99" y="578.96" width="7.56" height="7.56" transform="translate(476.14 15.99) rotate(45)"/><rect class="cls-16" x="419.37" y="626.46" width="7.56" height="7.56" transform="translate(569.58 -114.62) rotate(45)"/><rect class="cls-16" x="368.28" y="615.89" width="7.56" height="7.56" transform="translate(547.15 -81.59) rotate(45)"/><rect class="cls-16" x="368.28" y="621.24" width="7.56" height="7.56" transform="translate(550.92 -80.02) rotate(45)"/><rect class="cls-16" x="368.28" y="626.58" width="7.56" height="7.56" transform="translate(554.7 -78.46) rotate(45)"/><rect class="cls-16" x="368.28" y="631.92" width="7.56" height="7.56" transform="translate(558.48 -76.89) rotate(45)"/><rect class="cls-16" x="598.21" y="625.37" width="7.56" height="7.56" transform="translate(621.19 -241.4) rotate(45)"/><rect class="cls-16" x="598.21" y="630.71" width="7.56" height="7.56" transform="translate(624.97 -239.83) rotate(45)"/><rect class="cls-16" x="598.21" y="636.05" width="7.56" height="7.56" transform="translate(628.75 -238.27) rotate(45)"/><rect class="cls-16" x="598.21" y="641.4" width="7.56" height="7.56" transform="translate(632.53 -236.7) rotate(45)"/><rect class="cls-18" x="674.85" y="605.07" width="7.56" height="7.56" transform="translate(629.29 -301.54) rotate(45)"/><rect class="cls-16" x="674.86" y="610.42" width="7.56" height="7.56" transform="translate(633.07 -299.97) rotate(45)"/><rect class="cls-16" x="674.86" y="615.76" width="7.56" height="7.56" transform="translate(636.85 -298.41) rotate(45)"/><rect class="cls-16" x="674.86" y="621.11" width="7.56" height="7.56" transform="translate(640.63 -296.84) rotate(45)"/><rect class="cls-16" x="674.86" y="626.45" width="7.56" height="7.56" transform="translate(644.41 -295.28) rotate(45)"/><rect class="cls-16" x="674.86" y="631.79" width="7.56" height="7.56" transform="translate(648.18 -293.71) rotate(45)"/><rect class="cls-16" x="189.44" y="621.12" width="7.56" height="7.56" transform="translate(498.46 46.4) rotate(45)"/><rect class="cls-18" x="725.87" y="601.11" width="7.76" height="7.76"/><rect class="cls-16" x="725.87" y="637.99" width="7.76" height="7.76"/><rect class="cls-16" x="725.85" y="647.12" width="7.76" height="7.76"/><rect class="cls-16" x="725.85" y="619.54" width="7.76" height="7.76"/><rect class="cls-18" x="112.69" y="617.12" width="7.76" height="7.76"/><rect class="cls-18" x="163.64" y="620.96" width="7.76" height="7.76"/><rect class="cls-18" x="266" y="568.57" width="7.76" height="7.76"/><rect class="cls-18" x="291.53" y="561.55" width="7.76" height="7.76"/><rect class="cls-18" x="546.99" y="572.43" width="7.76" height="7.76"/><rect class="cls-18" x="649.2" y="572.46" width="7.76" height="7.76"/><rect class="cls-18" x="547.02" y="604.3" width="7.76" height="7.76"/><rect class="cls-18" x="572.55" y="611.84" width="7.76" height="7.76"/><rect class="cls-16" x="598.1" y="610.7" width="7.76" height="7.76"/><rect class="cls-16" x="649.21" y="591.88" width="7.76" height="7.76"/><rect class="cls-16" x="674.76" y="595.75" width="7.76" height="7.76"/><rect class="cls-16" x="521.46" y="603.79" width="7.76" height="7.76"/><rect class="cls-16" x="623.66" y="572.45" width="7.76" height="7.76"/><rect class="cls-18" x="828.04" y="576.34" width="7.76" height="7.76"/><rect class="cls-18" x="879.14" y="572.46" width="7.76" height="7.76"/><rect class="cls-16" x="674.76" y="640.91" width="7.76" height="7.76"/><rect class="cls-16" x="674.74" y="650.04" width="7.76" height="7.76"/><path class="cls-19" d="M881.67,370.27c.01,.25,.08,1.06,1.03,1.06,.64,0,1.03-.47,1.03-1.08,0-1.17-1.13-1.17-1.96-1.17v-1.33c.8-.02,1.97-.05,1.97-1.19,0-.63-.47-.95-.98-.95s-.97,.33-.97,.99h-1.74c.03-.35,.07-.85,.47-1.35,.52-.64,1.37-.88,2.21-.88,2.03,0,2.68,1.3,2.68,2.17,0,1.33-1.17,1.7-1.53,1.8,.25,.08,.58,.18,.95,.49,.56,.47,.65,1.05,.65,1.42,0,1.35-1.23,2.35-2.88,2.35-.57,0-1.4-.13-1.91-.54-.71-.58-.73-1.48-.73-1.8h1.73Z"/><path class="cls-19" d="M776.65,420.47v-1.54l3.19-4.68h1.7v4.91s1.07,0,1.07,0v1.31h-1.08v1.73h-1.69v-1.73h-3.19Zm1.28-1.28h2.01v-2.1c0-.1,.01-.67,.02-.88l-2.03,2.97Z"/><path class="cls-19" d="M803.63,322.36l2.06-1.88c.36-.33,.77-.7,1.2-1.21,.44-.54,.55-.79,.55-1.15,0-.6-.35-1.01-.95-1.01-.91,0-.99,.93-1,1.16h-1.74c0-.32,0-.91,.47-1.49,.46-.57,1.3-.87,2.27-.87,1.73,0,2.69,.93,2.69,2.17,0,.82-.32,1.88-3.76,4.65,1.15-.02,1.29-.03,2.19-.05,1.22-.02,1.36-.02,1.62-.03v1.32h-5.58v-1.61Z"/><path class="cls-19" d="M548.5,220.27c.74-.32,1.45-.72,2.11-1.2h1.47v7.96h-1.72v-6.19c-.33,.25-.99,.66-1.86,1.01v-1.58Z"/><g><path class="cls-1" d="M174.56,527.79c0,3.81-3.08,6.89-6.89,6.89s-6.89-3.08-6.89-6.89,3.08-6.89,6.89-6.89,6.89,3.08,6.89,6.89" vector-effect="none"/><circle class="cls-18" cx="167.67" cy="527.79" r="4.2"/></g><path class="cls-19" d="M166.65,516.45c-.01,.18,.14,.89,.93,.89,.62,0,1.17-.44,1.17-1.49,0-.76-.3-1.42-1.06-1.42s-.96,.62-1.01,.8l-1.65-.05,.18-4.71h4.82v1.3h-3.32l-.1,1.97c.25-.22,.63-.57,1.5-.57,1.28,0,2.35,.93,2.35,2.53,0,1.36-.8,2.88-2.84,2.88-.83,0-1.68-.22-2.22-.87-.4-.48-.43-.97-.44-1.27h1.69Z"/></svg>