<?xml version="1.0" encoding="UTF-8"?><svg id="Layer_1" xmlns="http://www.w3.org/2000/svg" xmlns:xlink="http://www.w3.org/1999/xlink" viewBox="0 0 1202.26 701.16"><defs><style>.cls-1{stroke:#c2c1c1;}.cls-1,.cls-2{stroke-width:.28px;}.cls-1,.cls-2,.cls-3,.cls-4{fill:none;stroke-miterlimit:10;}.cls-5{fill:url(#linear-gradient);}.cls-6{fill:#010101;}.cls-2{stroke:#949292;stroke-dasharray:0 0 0 0 0 0 14.17 1.42 14.17 1.42 14.17 1.42;}.cls-3{stroke-dasharray:0 0 12.7 12.7;}.cls-3,.cls-4{stroke:#010101;stroke-width:.57px;}.cls-7{fill:url(#linear-gradient-8);}.cls-8{fill:url(#linear-gradient-9);}.cls-9{fill:url(#linear-gradient-3);}.cls-10{fill:url(#linear-gradient-4);}.cls-11{fill:url(#linear-gradient-2);}.cls-12{fill:url(#linear-gradient-6);}.cls-13{fill:url(#linear-gradient-7);}.cls-14{fill:url(#linear-gradient-5);}.cls-15{fill:url(#linear-gradient-14);}.cls-16{fill:url(#linear-gradient-18);}.cls-17{fill:url(#linear-gradient-22);}.cls-18{fill:url(#linear-gradient-20);}.cls-19{fill:url(#linear-gradient-21);}.cls-20{fill:url(#linear-gradient-23);}.cls-21{fill:url(#linear-gradient-15);}.cls-22{fill:url(#linear-gradient-19);}.cls-23{fill:url(#linear-gradient-16);}.cls-24{fill:url(#linear-gradient-17);}.cls-25{fill:url(#linear-gradient-13);}.cls-26{fill:url(#linear-gradient-12);}.cls-27{fill:url(#linear-gradient-10);}.cls-28{fill:url(#linear-gradient-11);}.cls-29{fill:url(#linear-gradient-27);}.cls-30{fill:url(#linear-gradient-24);}.cls-31{fill:url(#linear-gradient-26);}.cls-32{fill:url(#linear-gradient-38);}.cls-33{fill:url(#linear-gradient-35);}.cls-34{fill:url(#linear-gradient-37);}.cls-35{fill:url(#linear-gradient-34);}.cls-36{fill:url(#linear-gradient-36);}.cls-37{fill:url(#linear-gradient-25);}.cls-38{fill:url(#linear-gradient-28);}.cls-39{fill:url(#linear-gradient-29);}.cls-40{fill:url(#linear-gradient-33);}.cls-41{fill:url(#linear-gradient-30);}.cls-42{fill:url(#linear-gradient-32);}.cls-43{fill:url(#linear-gradient-31);}.cls-44{isolation:isolate;}.cls-45{fill:#a8d7b1;opacity:.9;}</style><linearGradient id="linear-gradient" x1="137.42" y1="387.46" x2="171.96" y2="387.46" gradientUnits="userSpaceOnUse"><stop offset="0" stop-color="#e2755b"/><stop offset="1" stop-color="#e26f39"/></linearGradient><linearGradient id="linear-gradient-2" x1="639.58" y1="546.88" x2="652.86" y2="546.88" xlink:href="#linear-gradient"/><linearGradient id="linear-gradient-3" x1="169.3" y1="515" x2="185.24" y2="515" xlink:href="#linear-gradient"/><linearGradient id="linear-gradient-4" x1="185.24" y1="515" x2="241.04" y2="515" xlink:href="#linear-gradient"/><linearGradient id="linear-gradient-5" x1="140.08" y1="451.23" x2="142.73" y2="451.23" xlink:href="#linear-gradient"/><linearGradient id="linear-gradient-6" x1="142.73" y1="451.23" x2="156.02" y2="451.23" xlink:href="#linear-gradient"/><linearGradient id="linear-gradient-7" x1="145.39" y1="483.11" x2="161.33" y2="483.11" xlink:href="#linear-gradient"/><linearGradient id="linear-gradient-8" x1="156.02" y1="451.23" x2="209.16" y2="451.23" xlink:href="#linear-gradient"/><linearGradient id="linear-gradient-9" x1="652.86" y1="546.88" x2="663.49" y2="546.88" xlink:href="#linear-gradient"/><linearGradient id="linear-gradient-10" x1="663.49" y1="546.88" x2="679.43" y2="546.88" xlink:href="#linear-gradient"/><linearGradient id="linear-gradient-11" x1="679.43" y1="546.88" x2="692.72" y2="546.88" xlink:href="#linear-gradient"/><linearGradient id="linear-gradient-12" x1="161.33" y1="483.11" x2="225.1" y2="483.11" xlink:href="#linear-gradient"/><linearGradient id="linear-gradient-13" x1="241.04" y1="515" x2="246.35" y2="515" xlink:href="#linear-gradient"/><linearGradient id="linear-gradient-14" x1="246.35" y1="515" x2="262.29" y2="515" xlink:href="#linear-gradient"/><linearGradient id="linear-gradient-15" x1="209.16" y1="451.23" x2="222.44" y2="451.23" xlink:href="#linear-gradient"/><linearGradient id="linear-gradient-16" x1="262.29" y1="515" x2="275.58" y2="515" xlink:href="#linear-gradient"/><linearGradient id="linear-gradient-17" x1="692.72" y1="546.88" x2="721.94" y2="546.88" xlink:href="#linear-gradient"/><linearGradient id="linear-gradient-18" x1="275.58" y1="515" x2="286.21" y2="515" xlink:href="#linear-gradient"/><linearGradient id="linear-gradient-19" x1="286.21" y1="515" x2="288.86" y2="515" xlink:href="#linear-gradient"/><linearGradient id="linear-gradient-20" x1="225.1" y1="483.11" x2="230.41" y2="483.11" xlink:href="#linear-gradient"/><linearGradient id="linear-gradient-21" x1="230.41" y1="483.11" x2="233.07" y2="483.11" xlink:href="#linear-gradient"/><linearGradient id="linear-gradient-22" y1="419.35" x2="153.36" y2="419.35" xlink:href="#linear-gradient"/><linearGradient id="linear-gradient-23" x1="171.96" x2="177.27" xlink:href="#linear-gradient"/><linearGradient id="linear-gradient-24" x1="153.36" y1="419.35" x2="161.33" y2="419.35" xlink:href="#linear-gradient"/><linearGradient id="linear-gradient-25" x1="161.33" y1="419.35" x2="166.64" y2="419.35" xlink:href="#linear-gradient"/><linearGradient id="linear-gradient-26" x1="233.07" y1="483.11" x2="235.72" y2="483.11" xlink:href="#linear-gradient"/><linearGradient id="linear-gradient-27" y1="228.05" x2="140.08" y2="228.05" xlink:href="#linear-gradient"/><linearGradient id="linear-gradient-28" y1="355.58" x2="148.05" y2="355.58" xlink:href="#linear-gradient"/><linearGradient id="linear-gradient-29" y1="291.81" x2="145.39" y2="291.81" xlink:href="#linear-gradient"/><linearGradient id="linear-gradient-30" x1="721.94" y1="546.88" x2="724.6" y2="546.88" xlink:href="#linear-gradient"/><linearGradient id="linear-gradient-31" x1="166.64" y1="419.35" x2="169.3" y2="419.35" xlink:href="#linear-gradient"/><linearGradient id="linear-gradient-32" x1="724.6" y1="546.88" x2="729.91" y2="546.88" xlink:href="#linear-gradient"/><linearGradient id="linear-gradient-33" y1="196.16" x2="140.08" y2="196.16" xlink:href="#linear-gradient"/><linearGradient id="linear-gradient-34" y1="259.93" x2="140.08" y2="259.93" xlink:href="#linear-gradient"/><linearGradient id="linear-gradient-35" y1="323.7" x2="140.08" y2="323.7" xlink:href="#linear-gradient"/><linearGradient id="linear-gradient-36" x1="177.27" x2="179.93" xlink:href="#linear-gradient"/><linearGradient id="linear-gradient-37" x1="179.93" x2="182.59" xlink:href="#linear-gradient"/><linearGradient id="linear-gradient-38" x1="1284.22" y1="378.22" x2="1285.01" y2="378.22" xlink:href="#linear-gradient"/></defs><line class="cls-2" x1="137.42" y1="563.62" x2="137.42" y2="181.02"/><line class="cls-2" x1="190.03" y1="563.62" x2="190.03" y2="181.02"/><line class="cls-2" x1="244.23" y1="563.62" x2="244.23" y2="181.02"/><line class="cls-2" x1="296.83" y1="563.62" x2="296.83" y2="181.02"/><line class="cls-2" x1="349.44" y1="563.62" x2="349.44" y2="181.02"/><line class="cls-2" x1="403.64" y1="563.62" x2="403.64" y2="181.02"/><line class="cls-2" x1="456.25" y1="563.62" x2="456.25" y2="181.02"/><line class="cls-2" x1="508.86" y1="563.62" x2="508.86" y2="181.02"/><line class="cls-2" x1="563.06" y1="563.62" x2="563.06" y2="181.02"/><line class="cls-2" x1="615.67" y1="563.62" x2="615.67" y2="181.02"/><line class="cls-2" x1="668.27" y1="563.62" x2="668.27" y2="181.02"/><line class="cls-2" x1="722.47" y1="563.62" x2="722.47" y2="181.02"/><g pointer-events="none"><line class="cls-1" x1="137.42" y1="573.79" x2="137.42" y2="581.77"/><line class="cls-1" x1="190.03" y1="573.79" x2="190.03" y2="581.77"/><line class="cls-1" x1="244.23" y1="573.79" x2="244.23" y2="581.77"/><line class="cls-1" x1="296.83" y1="573.79" x2="296.83" y2="581.77"/><line class="cls-1" x1="349.44" y1="573.79" x2="349.44" y2="581.77"/><line class="cls-1" x1="403.64" y1="573.79" x2="403.64" y2="581.77"/><line class="cls-1" x1="456.25" y1="573.79" x2="456.25" y2="581.77"/><line class="cls-1" x1="508.86" y1="573.79" x2="508.86" y2="581.77"/><line class="cls-1" x1="563.06" y1="573.79" x2="563.06" y2="581.77"/><line class="cls-1" x1="615.67" y1="573.79" x2="615.67" y2="581.77"/><line class="cls-1" x1="668.27" y1="573.79" x2="668.27" y2="581.77"/><line class="cls-1" x1="722.47" y1="573.79" x2="722.47" y2="581.77"/></g><path class="cls-6" d="M141.28,590.76c0,2.78-.65,5.71-3.64,5.71s-3.64-2.93-3.64-5.71,.65-5.71,3.64-5.71,3.64,2.93,3.64,5.71Zm-6.17,0c0,1.63,.21,4.76,2.53,4.76s2.53-3.13,2.53-4.76-.2-4.76-2.53-4.76-2.53,3.13-2.53,4.76Z"/><g><path class="cls-6" d="M181.4,596.24v-1.08c1.42-1.28,5.63-5.25,5.63-7.21,0-1.28-1.01-1.95-2.2-1.95-1.31,0-2.21,.9-2.21,2.18h-1.11c0-1.93,1.46-3.13,3.35-3.13,1.76,0,3.27,.93,3.27,2.83,0,2.56-3.81,5.77-5.5,7.4h5.65v.95h-6.88Z"/><path class="cls-6" d="M197.43,590.76c0,2.78-.65,5.71-3.64,5.71s-3.64-2.93-3.64-5.71,.65-5.71,3.64-5.71,3.64,2.93,3.64,5.71Zm-6.17,0c0,1.63,.21,4.76,2.53,4.76s2.53-3.13,2.53-4.76-.2-4.76-2.53-4.76-2.53,3.13-2.53,4.76Z"/></g><g><path class="cls-6" d="M239.89,593.69h-5.14v-1l4.81-7.4h1.36v7.55h1.76v.85h-1.76v2.55h-1.03v-2.55Zm0-7.37h-.03l-4.24,6.52h4.27v-6.52Z"/><path class="cls-6" d="M251.22,590.76c0,2.78-.65,5.71-3.64,5.71s-3.64-2.93-3.64-5.71,.65-5.71,3.64-5.71,3.64,2.93,3.64,5.71Zm-6.17,0c0,1.63,.21,4.76,2.53,4.76s2.53-3.13,2.53-4.76-.2-4.76-2.53-4.76-2.53,3.13-2.53,4.76Z"/></g><g><path class="cls-6" d="M296.8,587.85h-1.11c-.05-1.14-.97-1.85-2.09-1.85-2.63,0-2.93,2.86-2.93,4.92h.03c.49-1.2,1.6-1.79,2.88-1.79,2.17,0,3.35,1.53,3.35,3.62s-1.3,3.72-3.45,3.72c-3.05,0-3.92-2.53-3.92-5.16,0-2.8,.44-6.26,3.99-6.26,1.79,0,3.21,.9,3.24,2.8Zm-5.93,5.05c0,1.38,1.04,2.63,2.47,2.63,1.61,0,2.5-1.15,2.5-2.7,0-1.44-.66-2.82-2.29-2.82-1.74,0-2.67,1.27-2.67,2.9Z"/><path class="cls-6" d="M305.69,590.76c0,2.78-.65,5.71-3.64,5.71s-3.64-2.93-3.64-5.71,.65-5.71,3.64-5.71,3.64,2.93,3.64,5.71Zm-6.17,0c0,1.63,.21,4.76,2.53,4.76s2.53-3.13,2.53-4.76-.2-4.76-2.53-4.76-2.53,3.13-2.53,4.76Z"/></g><g><path class="cls-6" d="M344.27,590.53c-1.28-.13-2.23-1.23-2.23-2.53,0-2.02,1.8-2.94,3.56-2.94s3.56,.92,3.56,2.94c0,1.33-.95,2.25-2.2,2.53v.02c1.46,.38,2.36,1.26,2.36,2.72,0,2.22-1.88,3.21-3.72,3.21s-3.72-1-3.72-3.21c-.02-1.41,.96-2.4,2.39-2.7v-.03Zm1.33,5c1.36,0,2.61-.7,2.61-2.26s-1.25-2.26-2.61-2.26-2.61,.7-2.61,2.26,1.25,2.26,2.61,2.26Zm0-5.47c1.46,0,2.53-.7,2.53-2.06,0-1.47-1.31-2.07-2.53-2.07s-2.53,.6-2.53,2.07c0,1.36,1.08,2.06,2.53,2.06Z"/><path class="cls-6" d="M358.02,590.76c0,2.78-.65,5.71-3.64,5.71s-3.64-2.93-3.64-5.71,.65-5.71,3.64-5.71,3.64,2.93,3.64,5.71Zm-6.17,0c0,1.63,.21,4.76,2.53,4.76s2.53-3.13,2.53-4.76-.2-4.76-2.53-4.76-2.53,3.13-2.53,4.76Z"/></g><g><path class="cls-6" d="M393.16,587.02c.93-.38,1.8-1.01,2.51-1.72h.98v10.95h-1.03v-9.84c-.73,.7-1.58,1.22-2.47,1.64v-1.03Z"/><path class="cls-6" d="M406.96,590.76c0,2.78-.65,5.71-3.64,5.71s-3.64-2.93-3.64-5.71,.65-5.71,3.64-5.71,3.64,2.93,3.64,5.71Zm-6.17,0c0,1.63,.21,4.76,2.53,4.76s2.53-3.13,2.53-4.76-.2-4.76-2.53-4.76-2.53,3.13-2.53,4.76Z"/><path class="cls-6" d="M416.07,590.76c0,2.78-.65,5.71-3.64,5.71s-3.64-2.93-3.64-5.71,.65-5.71,3.64-5.71,3.64,2.93,3.64,5.71Zm-6.17,0c0,1.63,.21,4.76,2.53,4.76s2.53-3.13,2.53-4.76-.2-4.76-2.53-4.76-2.53,3.13-2.53,4.76Z"/></g><g><path class="cls-6" d="M446.72,587.02c.93-.38,1.8-1.01,2.51-1.72h.98v10.95h-1.03v-9.84c-.73,.7-1.58,1.22-2.47,1.64v-1.03Z"/><path class="cls-6" d="M453.68,596.24v-1.08c1.42-1.28,5.63-5.25,5.63-7.21,0-1.28-1.01-1.95-2.2-1.95-1.31,0-2.21,.9-2.21,2.18h-1.11c0-1.93,1.46-3.13,3.35-3.13,1.76,0,3.27,.93,3.27,2.83,0,2.56-3.81,5.77-5.5,7.4h5.65v.95h-6.88Z"/><path class="cls-6" d="M469.71,590.76c0,2.78-.65,5.71-3.64,5.71s-3.64-2.93-3.64-5.71,.65-5.71,3.64-5.71,3.64,2.93,3.64,5.71Zm-6.17,0c0,1.63,.21,4.76,2.53,4.76s2.53-3.13,2.53-4.76-.2-4.76-2.53-4.76-2.53,3.13-2.53,4.76Z"/></g><g><path class="cls-6" d="M497.08,587.02c.93-.38,1.8-1.01,2.51-1.72h.98v10.95h-1.03v-9.84c-.73,.7-1.58,1.22-2.47,1.64v-1.03Z"/><path class="cls-6" d="M508.74,593.69h-5.14v-1l4.81-7.4h1.36v7.55h1.76v.85h-1.76v2.55h-1.03v-2.55Zm0-7.37h-.03l-4.24,6.52h4.27v-6.52Z"/><path class="cls-6" d="M520.07,590.76c0,2.78-.65,5.71-3.64,5.71s-3.64-2.93-3.64-5.71,.65-5.71,3.64-5.71,3.64,2.93,3.64,5.71Zm-6.17,0c0,1.63,.21,4.76,2.53,4.76s2.53-3.13,2.53-4.76-.2-4.76-2.53-4.76-2.53,3.13-2.53,4.76Z"/></g><g><path class="cls-6" d="M552.57,587.02c.93-.38,1.8-1.01,2.51-1.72h.98v10.95h-1.03v-9.84c-.73,.7-1.58,1.22-2.47,1.64v-1.03Z"/><path class="cls-6" d="M566.68,587.85h-1.11c-.05-1.14-.96-1.85-2.09-1.85-2.63,0-2.93,2.86-2.93,4.92h.03c.49-1.2,1.6-1.79,2.88-1.79,2.17,0,3.35,1.53,3.35,3.62s-1.3,3.72-3.45,3.72c-3.05,0-3.92-2.53-3.92-5.16,0-2.8,.44-6.26,3.99-6.26,1.79,0,3.21,.9,3.24,2.8Zm-5.93,5.05c0,1.38,1.04,2.63,2.47,2.63,1.61,0,2.5-1.15,2.5-2.7,0-1.44-.66-2.82-2.29-2.82-1.74,0-2.67,1.27-2.67,2.9Z"/><path class="cls-6" d="M575.57,590.76c0,2.78-.65,5.71-3.64,5.71s-3.64-2.93-3.64-5.71,.65-5.71,3.64-5.71,3.64,2.93,3.64,5.71Zm-6.17,0c0,1.63,.21,4.76,2.53,4.76s2.53-3.13,2.53-4.76-.2-4.76-2.53-4.76-2.53,3.13-2.53,4.76Z"/></g><g><path class="cls-6" d="M604.87,587.02c.93-.38,1.8-1.01,2.51-1.72h.98v10.95h-1.03v-9.84c-.73,.7-1.58,1.22-2.47,1.64v-1.03Z"/><path class="cls-6" d="M614.35,590.53c-1.28-.13-2.23-1.23-2.23-2.53,0-2.02,1.8-2.94,3.56-2.94s3.56,.92,3.56,2.94c0,1.33-.95,2.25-2.2,2.53v.02c1.46,.38,2.36,1.26,2.36,2.72,0,2.22-1.88,3.21-3.72,3.21s-3.72-1-3.72-3.21c-.02-1.41,.96-2.4,2.39-2.7v-.03Zm1.33,5c1.36,0,2.61-.7,2.61-2.26s-1.25-2.26-2.61-2.26-2.61,.7-2.61,2.26,1.25,2.26,2.61,2.26Zm0-5.47c1.46,0,2.53-.7,2.53-2.06,0-1.47-1.31-2.07-2.53-2.07s-2.53,.6-2.53,2.07c0,1.36,1.08,2.06,2.53,2.06Z"/><path class="cls-6" d="M628.1,590.76c0,2.78-.65,5.71-3.64,5.71s-3.64-2.93-3.64-5.71,.65-5.71,3.64-5.71,3.64,2.93,3.64,5.71Zm-6.17,0c0,1.63,.21,4.76,2.53,4.76s2.53-3.13,2.53-4.76-.2-4.76-2.53-4.76-2.53,3.13-2.53,4.76Z"/></g><g><path class="cls-6" d="M655.7,596.24v-1.08c1.42-1.28,5.63-5.25,5.63-7.21,0-1.28-1.01-1.95-2.2-1.95-1.31,0-2.21,.9-2.21,2.18h-1.11c0-1.93,1.46-3.13,3.35-3.13,1.76,0,3.27,.93,3.27,2.83,0,2.56-3.81,5.77-5.5,7.4h5.65v.95h-6.88Z"/><path class="cls-6" d="M671.74,590.76c0,2.78-.65,5.71-3.64,5.71s-3.64-2.93-3.64-5.71,.65-5.71,3.64-5.71,3.64,2.93,3.64,5.71Zm-6.17,0c0,1.63,.21,4.76,2.53,4.76s2.53-3.13,2.53-4.76-.2-4.76-2.53-4.76-2.53,3.13-2.53,4.76Z"/><path class="cls-6" d="M680.84,590.76c0,2.78-.65,5.71-3.64,5.71s-3.64-2.93-3.64-5.71,.65-5.71,3.64-5.71,3.64,2.93,3.64,5.71Zm-6.17,0c0,1.63,.21,4.76,2.53,4.76s2.53-3.13,2.53-4.76-.2-4.76-2.53-4.76-2.53,3.13-2.53,4.76Z"/></g><g><path class="cls-6" d="M709.47,596.24v-1.08c1.42-1.28,5.63-5.25,5.63-7.21,0-1.28-1.01-1.95-2.2-1.95-1.31,0-2.21,.9-2.21,2.18h-1.11c0-1.93,1.46-3.13,3.35-3.13,1.76,0,3.27,.93,3.27,2.83,0,2.56-3.81,5.77-5.5,7.4h5.65v.95h-6.88Z"/><path class="cls-6" d="M718.26,596.24v-1.08c1.42-1.28,5.63-5.25,5.63-7.21,0-1.28-1.01-1.95-2.2-1.95-1.31,0-2.21,.9-2.21,2.18h-1.11c0-1.93,1.46-3.13,3.35-3.13,1.76,0,3.27,.93,3.27,2.83,0,2.56-3.81,5.77-5.5,7.4h5.65v.95h-6.88Z"/><path class="cls-6" d="M734.3,590.76c0,2.78-.65,5.71-3.64,5.71s-3.64-2.93-3.64-5.71,.65-5.71,3.64-5.71,3.64,2.93,3.64,5.71Zm-6.17,0c0,1.63,.21,4.76,2.53,4.76s2.53-3.13,2.53-4.76-.2-4.76-2.53-4.76-2.53,3.13-2.53,4.76Z"/></g><g pointer-events="none"><line class="cls-1" x1="136.4" y1="196.96" x2="128.43" y2="196.96"/><line class="cls-1" x1="136.4" y1="228.85" x2="128.43" y2="228.85"/><line class="cls-1" x1="136.4" y1="260.73" x2="128.43" y2="260.73"/><line class="cls-1" x1="136.4" y1="292.61" x2="128.43" y2="292.61"/><line class="cls-1" x1="136.4" y1="324.49" x2="128.43" y2="324.49"/><line class="cls-1" x1="136.4" y1="356.38" x2="128.43" y2="356.38"/><line class="cls-1" x1="136.4" y1="388.26" x2="128.43" y2="388.26"/><line class="cls-1" x1="136.4" y1="420.14" x2="128.43" y2="420.14"/><line class="cls-1" x1="136.4" y1="452.03" x2="128.43" y2="452.03"/><line class="cls-1" x1="136.4" y1="483.91" x2="128.43" y2="483.91"/><line class="cls-1" x1="136.4" y1="515.79" x2="128.43" y2="515.79"/><line class="cls-1" x1="136.4" y1="547.68" x2="128.43" y2="547.68"/></g><g class="cls-44"><path class="cls-6" d="M40.29,198.22c-.64-1.71-1.4-3.46-1.4-5.34s.74-3.65,1.41-5.34h.65c-.69,1.76-1.15,3.66-1.15,5.34,0,1.79,.55,3.8,1.15,5.34h-.67Z"/><path class="cls-6" d="M43.05,189.35c.77-.31,1.49-.84,2.08-1.42h.81v9.04h-.85v-8.13c-.6,.57-1.31,1.01-2.04,1.36v-.85Z"/><path class="cls-6" d="M49.35,187.92h4.98v.78h-4.17l-.14,3.23,.03,.03c.51-.59,1.18-.95,1.99-.95,1.7,0,2.76,1.4,2.76,3.02,0,1.74-1.11,3.14-2.9,3.14-1.53,0-2.87-.71-2.93-2.42h.91c.05,1.08,.89,1.63,1.92,1.63,1.41,0,2.08-1.08,2.08-2.39s-.67-2.2-2.02-2.2c-.86,0-1.65,.52-1.83,1.37h-.88l.21-5.24Z"/><path class="cls-6" d="M62.05,192.44c0,2.3-.54,4.72-3,4.72s-3.01-2.42-3.01-4.72,.54-4.72,3.01-4.72,3,2.42,3,4.72Zm-5.1,0c0,1.35,.17,3.93,2.09,3.93s2.09-2.59,2.09-3.93-.17-3.93-2.09-3.93-2.09,2.59-2.09,3.93Z"/><path class="cls-6" d="M63.88,187.92h4.98v.78h-4.17l-.14,3.23,.03,.03c.51-.59,1.18-.95,1.99-.95,1.7,0,2.76,1.4,2.76,3.02,0,1.74-1.11,3.14-2.9,3.14-1.53,0-2.87-.71-2.93-2.42h.91c.05,1.08,.89,1.63,1.92,1.63,1.41,0,2.08-1.08,2.08-2.39s-.67-2.2-2.02-2.2c-.86,0-1.65,.52-1.83,1.37h-.88l.21-5.24Z"/><path class="cls-6" d="M72.33,195.9l-.94,2.68h-.68l.56-2.68h1.06Z"/><path class="cls-6" d="M78.72,189.35c.77-.31,1.49-.84,2.08-1.42h.81v9.04h-.85v-8.13c-.6,.57-1.31,1.01-2.04,1.36v-.85Z"/><path class="cls-6" d="M85.02,187.92h4.98v.78h-4.17l-.14,3.23,.03,.03c.51-.59,1.18-.95,1.99-.95,1.7,0,2.76,1.4,2.76,3.02,0,1.74-1.11,3.14-2.9,3.14-1.53,0-2.87-.71-2.93-2.42h.91c.05,1.08,.89,1.63,1.92,1.63,1.41,0,2.08-1.08,2.08-2.39s-.67-2.2-2.02-2.2c-.86,0-1.65,.52-1.83,1.37h-.88l.21-5.24Z"/><path class="cls-6" d="M95.62,194.86h-4.25v-.82l3.97-6.11h1.12v6.23h1.45v.71h-1.45v2.1h-.85v-2.1Zm0-6.09h-.03l-3.5,5.38h3.53v-5.38Z"/><path class="cls-6" d="M99.55,187.92h4.98v.78h-4.17l-.14,3.23,.03,.03c.51-.59,1.18-.95,1.99-.95,1.7,0,2.76,1.4,2.76,3.02,0,1.74-1.11,3.14-2.9,3.14-1.53,0-2.87-.71-2.93-2.42h.91c.05,1.08,.89,1.63,1.92,1.63,1.41,0,2.08-1.08,2.08-2.39s-.67-2.2-2.02-2.2c-.86,0-1.65,.52-1.83,1.37h-.88l.21-5.24Z"/><path class="cls-6" d="M108.14,187.53v10.69h-1.79v-.65h.94v-9.38h-.94v-.65h1.79Z"/></g><g><path class="cls-6" d="M40.29,230.1c-.64-1.71-1.4-3.46-1.4-5.34s.74-3.65,1.41-5.34h.65c-.69,1.76-1.15,3.66-1.15,5.34,0,1.79,.55,3.8,1.15,5.34h-.67Z"/><path class="cls-6" d="M43.05,221.23c.77-.31,1.49-.84,2.08-1.42h.81v9.04h-.85v-8.13c-.6,.57-1.31,1.01-2.04,1.36v-.85Z"/><path class="cls-6" d="M49.35,219.8h4.98v.78h-4.17l-.14,3.23,.03,.03c.51-.59,1.18-.95,1.99-.95,1.7,0,2.76,1.4,2.76,3.02,0,1.74-1.11,3.14-2.9,3.14-1.53,0-2.87-.71-2.93-2.42h.91c.05,1.08,.89,1.63,1.92,1.63,1.41,0,2.08-1.08,2.08-2.39s-.67-2.2-2.02-2.2c-.86,0-1.65,.52-1.83,1.37h-.88l.21-5.24Z"/><path class="cls-6" d="M59.95,226.74h-4.25v-.82l3.97-6.12h1.12v6.23h1.45v.71h-1.45v2.1h-.85v-2.1Zm0-6.09h-.03l-3.5,5.38h3.53v-5.38Z"/><path class="cls-6" d="M63.88,219.8h4.98v.78h-4.17l-.14,3.23,.03,.03c.51-.59,1.18-.95,1.99-.95,1.7,0,2.76,1.4,2.76,3.02,0,1.74-1.11,3.14-2.9,3.14-1.53,0-2.87-.71-2.93-2.42h.91c.05,1.08,.89,1.63,1.92,1.63,1.41,0,2.08-1.08,2.08-2.39s-.67-2.2-2.02-2.2c-.86,0-1.65,.52-1.83,1.37h-.88l.21-5.24Z"/><path class="cls-6" d="M72.33,227.79l-.94,2.68h-.68l.56-2.68h1.06Z"/><path class="cls-6" d="M78.72,221.23c.77-.31,1.49-.84,2.08-1.42h.81v9.04h-.85v-8.13c-.6,.57-1.31,1.01-2.04,1.36v-.85Z"/><path class="cls-6" d="M85.02,219.8h4.98v.78h-4.17l-.14,3.23,.03,.03c.51-.59,1.18-.95,1.99-.95,1.7,0,2.76,1.4,2.76,3.02,0,1.74-1.11,3.14-2.9,3.14-1.53,0-2.87-.71-2.93-2.42h.91c.05,1.08,.89,1.63,1.92,1.63,1.41,0,2.08-1.08,2.08-2.39s-.67-2.2-2.02-2.2c-.86,0-1.65,.52-1.83,1.37h-.88l.21-5.24Z"/><path class="cls-6" d="M93.62,224.13c-1.06-.1-1.84-1.02-1.84-2.09,0-1.67,1.49-2.43,2.94-2.43s2.94,.76,2.94,2.43c0,1.1-.78,1.86-1.82,2.09h0c1.2,.33,1.95,1.06,1.95,2.26,0,1.83-1.56,2.65-3.07,2.65s-3.07-.82-3.07-2.65c-.01-1.16,.8-1.99,1.97-2.23v-.03Zm1.1,4.13c1.12,0,2.16-.57,2.16-1.87s-1.03-1.87-2.16-1.87-2.16,.57-2.16,1.87,1.03,1.87,2.16,1.87Zm0-4.52c1.2,0,2.09-.57,2.09-1.7,0-1.22-1.08-1.71-2.09-1.71s-2.09,.5-2.09,1.71c0,1.12,.89,1.7,2.09,1.7Z"/><path class="cls-6" d="M99.55,219.8h4.98v.78h-4.17l-.14,3.23,.03,.03c.51-.59,1.18-.95,1.99-.95,1.7,0,2.76,1.4,2.76,3.02,0,1.74-1.11,3.14-2.9,3.14-1.53,0-2.87-.71-2.93-2.42h.91c.05,1.08,.89,1.63,1.92,1.63,1.41,0,2.08-1.08,2.08-2.39s-.67-2.2-2.02-2.2c-.86,0-1.65,.52-1.83,1.37h-.88l.21-5.24Z"/><path class="cls-6" d="M108.14,219.41v10.69h-1.79v-.65h.94v-9.38h-.94v-.65h1.79Z"/></g><g><path class="cls-6" d="M40.29,261.98c-.64-1.71-1.4-3.46-1.4-5.34s.74-3.65,1.41-5.34h.65c-.69,1.76-1.15,3.66-1.15,5.34,0,1.79,.55,3.8,1.15,5.34h-.67Z"/><path class="cls-6" d="M43.05,253.11c.77-.31,1.49-.84,2.08-1.42h.81v9.04h-.85v-8.13c-.6,.57-1.31,1.01-2.04,1.36v-.85Z"/><path class="cls-6" d="M54.71,253.81h-.91c-.04-.94-.8-1.53-1.72-1.53-2.17,0-2.42,2.37-2.42,4.06h.03c.41-.99,1.32-1.48,2.38-1.48,1.79,0,2.77,1.27,2.77,2.99s-1.07,3.07-2.85,3.07c-2.52,0-3.24-2.09-3.24-4.26,0-2.31,.37-5.17,3.29-5.17,1.48,0,2.65,.74,2.68,2.31Zm-4.9,4.17c0,1.14,.86,2.17,2.04,2.17,1.33,0,2.06-.95,2.06-2.23,0-1.19-.55-2.33-1.89-2.33-1.44,0-2.21,1.05-2.21,2.39Z"/><path class="cls-6" d="M56.07,260.73v-.89c1.18-1.06,4.65-4.34,4.65-5.96,0-1.06-.84-1.61-1.82-1.61-1.08,0-1.83,.75-1.83,1.8h-.91c0-1.59,1.2-2.59,2.77-2.59,1.45,0,2.7,.77,2.7,2.34,0,2.12-3.15,4.77-4.55,6.12h4.66v.78h-5.68Z"/><path class="cls-6" d="M63.88,251.69h4.98v.78h-4.17l-.14,3.23,.03,.03c.51-.59,1.18-.95,1.99-.95,1.7,0,2.76,1.4,2.76,3.02,0,1.74-1.11,3.14-2.9,3.14-1.53,0-2.87-.71-2.93-2.42h.91c.05,1.08,.89,1.63,1.92,1.63,1.41,0,2.08-1.08,2.08-2.39s-.67-2.2-2.02-2.2c-.86,0-1.65,.52-1.83,1.37h-.88l.21-5.24Z"/><path class="cls-6" d="M72.33,259.67l-.94,2.68h-.68l.56-2.68h1.06Z"/><path class="cls-6" d="M78.72,253.11c.77-.31,1.49-.84,2.08-1.42h.81v9.04h-.85v-8.13c-.6,.57-1.31,1.01-2.04,1.36v-.85Z"/><path class="cls-6" d="M90.38,253.81h-.91c-.04-.94-.8-1.53-1.72-1.53-2.17,0-2.42,2.37-2.42,4.06h.03c.41-.99,1.32-1.48,2.38-1.48,1.79,0,2.77,1.27,2.77,2.99s-1.07,3.07-2.85,3.07c-2.52,0-3.24-2.09-3.24-4.26,0-2.31,.37-5.17,3.29-5.17,1.48,0,2.65,.74,2.68,2.31Zm-4.9,4.17c0,1.14,.86,2.17,2.04,2.17,1.33,0,2.06-.95,2.06-2.23,0-1.19-.55-2.33-1.89-2.33-1.44,0-2.21,1.05-2.21,2.39Z"/><path class="cls-6" d="M97.64,253.81h-.91c-.04-.94-.8-1.53-1.72-1.53-2.17,0-2.42,2.37-2.42,4.06h.03c.41-.99,1.32-1.48,2.38-1.48,1.79,0,2.77,1.27,2.77,2.99s-1.07,3.07-2.85,3.07c-2.52,0-3.24-2.09-3.24-4.26,0-2.31,.37-5.17,3.29-5.17,1.48,0,2.65,.74,2.68,2.31Zm-4.9,4.17c0,1.14,.86,2.17,2.04,2.17,1.33,0,2.06-.95,2.06-2.23,0-1.19-.55-2.33-1.89-2.33-1.44,0-2.21,1.05-2.21,2.39Z"/><path class="cls-6" d="M99.55,251.69h4.98v.78h-4.17l-.14,3.23,.03,.03c.51-.59,1.18-.95,1.99-.95,1.7,0,2.76,1.4,2.76,3.02,0,1.74-1.11,3.14-2.9,3.14-1.53,0-2.87-.71-2.93-2.42h.91c.05,1.08,.89,1.63,1.92,1.63,1.41,0,2.08-1.08,2.08-2.39s-.67-2.2-2.02-2.2c-.86,0-1.65,.52-1.83,1.37h-.88l.21-5.24Z"/><path class="cls-6" d="M108.14,251.3v10.69h-1.79v-.65h.94v-9.38h-.94v-.65h1.79Z"/></g><g><path class="cls-6" d="M40.29,292.49c-.64-1.71-1.4-3.46-1.4-5.34s.74-3.65,1.41-5.34h.65c-.69,1.76-1.15,3.66-1.15,5.34,0,1.79,.55,3.8,1.15,5.34h-.67Z"/><path class="cls-6" d="M43.05,283.62c.77-.31,1.49-.84,2.08-1.42h.81v9.04h-.85v-8.13c-.6,.57-1.31,1.01-2.04,1.36v-.85Z"/><path class="cls-6" d="M54.71,284.31h-.91c-.04-.94-.8-1.53-1.72-1.53-2.17,0-2.42,2.37-2.42,4.06h.03c.41-.99,1.32-1.48,2.38-1.48,1.79,0,2.77,1.27,2.77,2.99s-1.07,3.07-2.85,3.07c-2.52,0-3.24-2.09-3.24-4.26,0-2.31,.37-5.17,3.29-5.17,1.48,0,2.65,.74,2.68,2.31Zm-4.9,4.17c0,1.14,.86,2.17,2.04,2.17,1.33,0,2.06-.95,2.06-2.23,0-1.19-.55-2.33-1.89-2.33-1.44,0-2.21,1.05-2.21,2.39Z"/><path class="cls-6" d="M61.97,284.31h-.91c-.04-.94-.8-1.53-1.72-1.53-2.17,0-2.42,2.37-2.42,4.06h.03c.41-.99,1.32-1.48,2.38-1.48,1.79,0,2.77,1.27,2.77,2.99s-1.07,3.07-2.85,3.07c-2.52,0-3.24-2.09-3.24-4.26,0-2.31,.37-5.17,3.29-5.17,1.48,0,2.65,.74,2.68,2.31Zm-4.9,4.17c0,1.14,.86,2.17,2.04,2.17,1.33,0,2.06-.95,2.06-2.23,0-1.19-.55-2.33-1.89-2.33-1.44,0-2.21,1.05-2.21,2.39Z"/><path class="cls-6" d="M63.88,282.19h4.98v.78h-4.17l-.14,3.23,.03,.03c.51-.59,1.18-.95,1.99-.95,1.7,0,2.76,1.4,2.76,3.02,0,1.74-1.11,3.14-2.9,3.14-1.53,0-2.87-.71-2.93-2.42h.91c.05,1.08,.89,1.63,1.92,1.63,1.41,0,2.08-1.08,2.08-2.39s-.67-2.2-2.02-2.2c-.86,0-1.65,.52-1.83,1.37h-.88l.21-5.24Z"/><path class="cls-6" d="M72.33,290.18l-.94,2.68h-.68l.56-2.68h1.06Z"/><path class="cls-6" d="M78.72,283.62c.77-.31,1.49-.84,2.08-1.42h.81v9.04h-.85v-8.13c-.6,.57-1.31,1.01-2.04,1.36v-.85Z"/><path class="cls-6" d="M89.99,282.95l-3.51,8.28h-.99l3.62-8.26h-4.87v-.78h5.76v.76Z"/><path class="cls-6" d="M97.46,286.71c0,2.3-.54,4.72-3,4.72s-3.01-2.42-3.01-4.72,.54-4.72,3.01-4.72,3,2.42,3,4.72Zm-5.1,0c0,1.35,.17,3.93,2.09,3.93s2.09-2.59,2.09-3.93-.17-3.93-2.09-3.93-2.09,2.59-2.09,3.93Z"/><path class="cls-6" d="M99.29,282.19h4.98v.78h-4.17l-.14,3.23,.03,.03c.51-.59,1.18-.95,1.99-.95,1.7,0,2.76,1.4,2.76,3.02,0,1.74-1.11,3.14-2.9,3.14-1.53,0-2.87-.71-2.93-2.42h.91c.05,1.08,.89,1.63,1.92,1.63,1.41,0,2.08-1.08,2.08-2.39s-.67-2.2-2.02-2.2c-.86,0-1.65,.52-1.83,1.37h-.88l.21-5.24Z"/><path class="cls-6" d="M107.87,281.8v10.69h-1.79v-.65h.94v-9.38h-.94v-.65h1.79Z"/></g><g><path class="cls-6" d="M40.29,325.75c-.64-1.71-1.4-3.46-1.4-5.34s.74-3.65,1.41-5.34h.65c-.69,1.76-1.15,3.66-1.15,5.34,0,1.79,.55,3.8,1.15,5.34h-.67Z"/><path class="cls-6" d="M43.05,316.88c.77-.31,1.49-.84,2.08-1.42h.81v9.04h-.85v-8.13c-.6,.57-1.31,1.01-2.04,1.36v-.85Z"/><path class="cls-6" d="M54.31,316.21l-3.51,8.28h-.99l3.62-8.26h-4.87v-.78h5.76v.76Z"/><path class="cls-6" d="M61.79,319.97c0,2.3-.54,4.72-3,4.72s-3.01-2.42-3.01-4.72,.54-4.72,3.01-4.72,3,2.42,3,4.72Zm-5.1,0c0,1.35,.17,3.93,2.09,3.93s2.09-2.59,2.09-3.93-.17-3.93-2.09-3.93-2.09,2.59-2.09,3.93Z"/><path class="cls-6" d="M63.62,315.45h4.98v.78h-4.17l-.14,3.23,.03,.03c.51-.59,1.18-.95,1.99-.95,1.7,0,2.76,1.4,2.76,3.02,0,1.74-1.11,3.14-2.9,3.14-1.53,0-2.87-.71-2.93-2.42h.91c.05,1.08,.89,1.63,1.92,1.63,1.41,0,2.08-1.08,2.08-2.39s-.67-2.2-2.02-2.2c-.86,0-1.65,.52-1.83,1.37h-.88l.21-5.24Z"/><path class="cls-6" d="M72.07,323.44l-.94,2.68h-.68l.56-2.68h1.06Z"/><path class="cls-6" d="M78.46,316.88c.77-.31,1.49-.84,2.08-1.42h.81v9.04h-.85v-8.13c-.6,.57-1.31,1.01-2.04,1.36v-.85Z"/><path class="cls-6" d="M89.72,316.21l-3.51,8.28h-.99l3.62-8.26h-4.87v-.78h5.76v.76Z"/><path class="cls-6" d="M93.33,322.39h-4.25v-.82l3.97-6.12h1.12v6.23h1.45v.71h-1.45v2.1h-.85v-2.1Zm0-6.09h-.03l-3.5,5.38h3.53v-5.38Z"/><path class="cls-6" d="M97.27,315.45h4.98v.78h-4.17l-.14,3.23,.03,.03c.51-.59,1.18-.95,1.99-.95,1.7,0,2.76,1.4,2.76,3.02,0,1.74-1.11,3.14-2.9,3.14-1.53,0-2.87-.71-2.93-2.42h.91c.05,1.08,.89,1.63,1.92,1.63,1.41,0,2.08-1.08,2.08-2.39s-.67-2.2-2.02-2.2c-.86,0-1.65,.52-1.83,1.37h-.88l.21-5.24Z"/><path class="cls-6" d="M105.85,315.06v10.69h-1.79v-.65h.94v-9.38h-.94v-.65h1.79Z"/></g><g><path class="cls-6" d="M40.29,357.63c-.64-1.71-1.4-3.46-1.4-5.34s.74-3.65,1.41-5.34h.65c-.69,1.76-1.15,3.66-1.15,5.34,0,1.79,.55,3.8,1.15,5.34h-.67Z"/><path class="cls-6" d="M43.05,348.76c.77-.31,1.49-.84,2.08-1.42h.81v9.04h-.85v-8.13c-.6,.57-1.31,1.01-2.04,1.36v-.85Z"/><path class="cls-6" d="M54.31,348.1l-3.51,8.28h-.99l3.62-8.26h-4.87v-.78h5.76v.76Z"/><path class="cls-6" d="M57.92,354.28h-4.25v-.82l3.97-6.12h1.12v6.23h1.45v.71h-1.45v2.1h-.85v-2.1Zm0-6.09h-.03l-3.5,5.38h3.53v-5.38Z"/><path class="cls-6" d="M61.85,347.34h4.98v.78h-4.17l-.14,3.23,.03,.03c.51-.59,1.18-.95,1.99-.95,1.7,0,2.76,1.4,2.76,3.02,0,1.74-1.11,3.14-2.9,3.14-1.53,0-2.87-.71-2.93-2.42h.91c.05,1.08,.89,1.63,1.92,1.63,1.41,0,2.08-1.08,2.08-2.39s-.67-2.2-2.02-2.2c-.86,0-1.65,.52-1.83,1.37h-.88l.21-5.24Z"/><path class="cls-6" d="M70.31,355.32l-.94,2.68h-.68l.56-2.68h1.06Z"/><path class="cls-6" d="M76.7,348.76c.77-.31,1.49-.84,2.08-1.42h.81v9.04h-.85v-8.13c-.6,.57-1.31,1.01-2.04,1.36v-.85Z"/><path class="cls-6" d="M87.96,348.1l-3.51,8.28h-.99l3.62-8.26h-4.87v-.78h5.76v.76Z"/><path class="cls-6" d="M91.33,351.66c-1.06-.1-1.84-1.02-1.84-2.09,0-1.67,1.49-2.43,2.94-2.43s2.94,.76,2.94,2.43c0,1.1-.78,1.86-1.82,2.09h0c1.2,.33,1.95,1.06,1.95,2.26,0,1.83-1.56,2.65-3.07,2.65s-3.07-.82-3.07-2.65c-.01-1.16,.8-1.99,1.97-2.23v-.03Zm1.1,4.13c1.12,0,2.16-.57,2.16-1.87s-1.03-1.87-2.16-1.87-2.16,.57-2.16,1.87,1.03,1.87,2.16,1.87Zm0-4.52c1.2,0,2.09-.57,2.09-1.7,0-1.22-1.08-1.71-2.09-1.71s-2.09,.5-2.09,1.71c0,1.12,.89,1.7,2.09,1.7Z"/><path class="cls-6" d="M97.27,347.34h4.98v.78h-4.17l-.14,3.23,.03,.03c.51-.59,1.18-.95,1.99-.95,1.7,0,2.76,1.4,2.76,3.02,0,1.74-1.11,3.14-2.9,3.14-1.53,0-2.87-.71-2.93-2.42h.91c.05,1.08,.89,1.63,1.92,1.63,1.41,0,2.08-1.08,2.08-2.39s-.67-2.2-2.02-2.2c-.86,0-1.65,.52-1.83,1.37h-.88l.21-5.24Z"/><path class="cls-6" d="M105.85,346.95v10.69h-1.79v-.65h.94v-9.38h-.94v-.65h1.79Z"/></g><g><path class="cls-6" d="M40.29,389.52c-.64-1.71-1.4-3.46-1.4-5.34s.74-3.65,1.41-5.34h.65c-.69,1.76-1.15,3.66-1.15,5.34,0,1.79,.55,3.8,1.15,5.34h-.67Z"/><path class="cls-6" d="M43.05,380.64c.77-.31,1.49-.84,2.08-1.42h.81v9.04h-.85v-8.13c-.6,.57-1.31,1.01-2.04,1.36v-.85Z"/><path class="cls-6" d="M54.31,379.98l-3.51,8.28h-.99l3.62-8.26h-4.87v-.78h5.76v.76Z"/><path class="cls-6" d="M57.68,383.54c-1.06-.1-1.84-1.02-1.84-2.09,0-1.67,1.49-2.43,2.94-2.43s2.94,.76,2.94,2.43c0,1.1-.78,1.86-1.82,2.09h0c1.2,.33,1.95,1.06,1.95,2.26,0,1.83-1.56,2.65-3.07,2.65s-3.07-.82-3.07-2.65c-.01-1.16,.8-1.99,1.97-2.23v-.03Zm1.1,4.13c1.12,0,2.16-.57,2.16-1.87s-1.03-1.87-2.16-1.87-2.16,.57-2.16,1.87,1.03,1.87,2.16,1.87Zm0-4.52c1.2,0,2.09-.57,2.09-1.7,0-1.22-1.08-1.71-2.09-1.71s-2.09,.5-2.09,1.71c0,1.12,.89,1.7,2.09,1.7Z"/><path class="cls-6" d="M63.62,379.22h4.98v.78h-4.17l-.14,3.23,.03,.03c.51-.59,1.18-.95,1.99-.95,1.7,0,2.76,1.4,2.76,3.02,0,1.74-1.11,3.14-2.9,3.14-1.53,0-2.87-.71-2.93-2.42h.91c.05,1.08,.89,1.63,1.92,1.63,1.41,0,2.08-1.08,2.08-2.39s-.67-2.2-2.02-2.2c-.86,0-1.65,.52-1.83,1.37h-.88l.21-5.24Z"/><path class="cls-6" d="M72.07,387.2l-.94,2.68h-.68l.56-2.68h1.06Z"/><path class="cls-6" d="M78.46,380.64c.77-.31,1.49-.84,2.08-1.42h.81v9.04h-.85v-8.13c-.6,.57-1.31,1.01-2.04,1.36v-.85Z"/><path class="cls-6" d="M86.29,383.54c-1.06-.1-1.84-1.02-1.84-2.09,0-1.67,1.49-2.43,2.94-2.43s2.94,.76,2.94,2.43c0,1.1-.78,1.86-1.82,2.09h0c1.2,.33,1.95,1.06,1.95,2.26,0,1.83-1.56,2.65-3.07,2.65s-3.07-.82-3.07-2.65c-.01-1.16,.8-1.99,1.97-2.23v-.03Zm1.1,4.13c1.12,0,2.16-.57,2.16-1.87s-1.03-1.87-2.16-1.87-2.16,.57-2.16,1.87,1.03,1.87,2.16,1.87Zm0-4.52c1.2,0,2.09-.57,2.09-1.7,0-1.22-1.08-1.71-2.09-1.71s-2.09,.5-2.09,1.71c0,1.12,.89,1.7,2.09,1.7Z"/><path class="cls-6" d="M91.67,388.26v-.89c1.18-1.06,4.65-4.34,4.65-5.96,0-1.06-.84-1.61-1.82-1.61-1.08,0-1.83,.75-1.83,1.8h-.91c0-1.59,1.2-2.59,2.77-2.59,1.45,0,2.7,.77,2.7,2.34,0,2.12-3.15,4.77-4.55,6.12h4.66v.78h-5.68Z"/><path class="cls-6" d="M99.48,379.22h4.98v.78h-4.17l-.14,3.23,.03,.03c.51-.59,1.18-.95,1.99-.95,1.7,0,2.76,1.4,2.76,3.02,0,1.74-1.11,3.14-2.9,3.14-1.53,0-2.87-.71-2.93-2.42h.91c.05,1.08,.89,1.63,1.92,1.63,1.41,0,2.08-1.08,2.08-2.39s-.67-2.2-2.02-2.2c-.86,0-1.65,.52-1.83,1.37h-.88l.21-5.24Z"/><path class="cls-6" d="M108.07,378.83v10.69h-1.79v-.65h.94v-9.38h-.94v-.65h1.79Z"/></g><g><path class="cls-6" d="M40.29,421.4c-.64-1.71-1.4-3.46-1.4-5.34s.74-3.65,1.41-5.34h.65c-.69,1.76-1.15,3.66-1.15,5.34,0,1.79,.55,3.8,1.15,5.34h-.67Z"/><path class="cls-6" d="M43.05,412.53c.77-.31,1.49-.84,2.08-1.42h.81v9.04h-.85v-8.13c-.6,.57-1.31,1.01-2.04,1.36v-.85Z"/><path class="cls-6" d="M50.88,415.43c-1.06-.1-1.84-1.02-1.84-2.09,0-1.67,1.49-2.43,2.94-2.43s2.94,.76,2.94,2.43c0,1.1-.78,1.86-1.82,2.09h0c1.2,.33,1.95,1.06,1.95,2.26,0,1.83-1.56,2.65-3.07,2.65s-3.07-.82-3.07-2.65c-.01-1.16,.8-1.99,1.97-2.23v-.03Zm1.1,4.13c1.12,0,2.16-.57,2.16-1.87s-1.03-1.87-2.16-1.87-2.16,.57-2.16,1.87,1.03,1.87,2.16,1.87Zm0-4.52c1.2,0,2.09-.57,2.09-1.7,0-1.22-1.08-1.71-2.09-1.71s-2.09,.5-2.09,1.71c0,1.12,.89,1.7,2.09,1.7Z"/><path class="cls-6" d="M56.26,420.15v-.89c1.18-1.06,4.65-4.34,4.65-5.96,0-1.06-.84-1.61-1.82-1.61-1.08,0-1.83,.75-1.83,1.8h-.91c0-1.59,1.2-2.59,2.77-2.59,1.45,0,2.7,.77,2.7,2.34,0,2.12-3.15,4.77-4.55,6.12h4.66v.78h-5.68Z"/><path class="cls-6" d="M64.07,411.1h4.98v.78h-4.17l-.14,3.23,.03,.03c.51-.59,1.18-.95,1.99-.95,1.7,0,2.76,1.4,2.76,3.02,0,1.74-1.11,3.14-2.9,3.14-1.53,0-2.87-.71-2.93-2.42h.91c.05,1.08,.89,1.63,1.92,1.63,1.41,0,2.08-1.08,2.08-2.39s-.67-2.2-2.02-2.2c-.86,0-1.65,.52-1.83,1.37h-.88l.21-5.24Z"/><path class="cls-6" d="M72.53,419.09l-.94,2.68h-.68l.56-2.68h1.06Z"/><path class="cls-6" d="M78.92,412.53c.77-.31,1.49-.84,2.08-1.42h.81v9.04h-.85v-8.13c-.6,.57-1.31,1.01-2.04,1.36v-.85Z"/><path class="cls-6" d="M86.74,415.43c-1.06-.1-1.84-1.02-1.84-2.09,0-1.67,1.49-2.43,2.94-2.43s2.94,.76,2.94,2.43c0,1.1-.78,1.86-1.82,2.09h0c1.2,.33,1.95,1.06,1.95,2.26,0,1.83-1.56,2.65-3.07,2.65s-3.07-.82-3.07-2.65c-.01-1.16,.8-1.99,1.97-2.23v-.03Zm1.1,4.13c1.12,0,2.16-.57,2.16-1.87s-1.03-1.87-2.16-1.87-2.16,.57-2.16,1.87,1.03,1.87,2.16,1.87Zm0-4.52c1.2,0,2.09-.57,2.09-1.7,0-1.22-1.08-1.71-2.09-1.71s-2.09,.5-2.09,1.71c0,1.12,.89,1.7,2.09,1.7Z"/><path class="cls-6" d="M98.03,413.22h-.91c-.04-.94-.8-1.53-1.72-1.53-2.17,0-2.42,2.37-2.42,4.06h.03c.41-.99,1.32-1.48,2.38-1.48,1.79,0,2.77,1.27,2.77,2.99s-1.07,3.07-2.85,3.07c-2.52,0-3.24-2.09-3.24-4.26,0-2.31,.37-5.17,3.29-5.17,1.48,0,2.65,.74,2.68,2.31Zm-4.9,4.17c0,1.14,.86,2.17,2.04,2.17,1.33,0,2.06-.95,2.06-2.23,0-1.19-.55-2.33-1.89-2.33-1.44,0-2.21,1.05-2.21,2.39Z"/><path class="cls-6" d="M99.94,411.1h4.98v.78h-4.17l-.14,3.23,.03,.03c.51-.59,1.18-.95,1.99-.95,1.7,0,2.76,1.4,2.76,3.02,0,1.74-1.11,3.14-2.9,3.14-1.53,0-2.87-.71-2.93-2.42h.91c.05,1.08,.89,1.63,1.92,1.63,1.41,0,2.08-1.08,2.08-2.39s-.67-2.2-2.02-2.2c-.86,0-1.65,.52-1.83,1.37h-.88l.21-5.24Z"/><path class="cls-6" d="M108.52,410.71v10.69h-1.79v-.65h.94v-9.38h-.94v-.65h1.79Z"/></g><g><path class="cls-6" d="M41.19,453.38c-.64-1.71-1.4-3.46-1.4-5.34s.74-3.65,1.41-5.34h.65c-.69,1.76-1.15,3.66-1.15,5.34,0,1.79,.55,3.8,1.15,5.34h-.67Z"/><path class="cls-6" d="M43.94,444.51c.77-.31,1.49-.84,2.08-1.42h.81v9.04h-.85v-8.13c-.6,.57-1.31,1.01-2.04,1.36v-.85Z"/><path class="cls-6" d="M51.77,447.41c-1.06-.1-1.84-1.02-1.84-2.09,0-1.67,1.49-2.43,2.94-2.43s2.94,.76,2.94,2.43c0,1.1-.78,1.86-1.82,2.09h0c1.2,.33,1.95,1.06,1.95,2.26,0,1.83-1.56,2.65-3.07,2.65s-3.07-.82-3.07-2.65c-.01-1.16,.8-1.99,1.97-2.23v-.03Zm1.1,4.13c1.12,0,2.16-.57,2.16-1.87s-1.03-1.87-2.16-1.87-2.16,.57-2.16,1.87,1.03,1.87,2.16,1.87Zm0-4.52c1.2,0,2.09-.57,2.09-1.7,0-1.22-1.08-1.71-2.09-1.71s-2.09,.5-2.09,1.71c0,1.12,.89,1.7,2.09,1.7Z"/><path class="cls-6" d="M63.06,445.2h-.91c-.04-.94-.8-1.53-1.72-1.53-2.17,0-2.42,2.37-2.42,4.06h.03c.41-.99,1.32-1.48,2.38-1.48,1.79,0,2.77,1.27,2.77,2.99s-1.07,3.07-2.85,3.07c-2.52,0-3.24-2.09-3.24-4.26,0-2.31,.37-5.17,3.29-5.17,1.48,0,2.65,.74,2.68,2.31Zm-4.9,4.17c0,1.14,.86,2.17,2.04,2.17,1.33,0,2.06-.95,2.06-2.23,0-1.19-.55-2.33-1.89-2.33-1.44,0-2.21,1.05-2.21,2.39Z"/><path class="cls-6" d="M64.97,443.08h4.98v.78h-4.17l-.14,3.23,.03,.03c.51-.59,1.18-.95,1.99-.95,1.7,0,2.76,1.4,2.76,3.02,0,1.74-1.11,3.14-2.9,3.14-1.53,0-2.87-.71-2.93-2.42h.91c.05,1.08,.89,1.63,1.92,1.63,1.41,0,2.08-1.08,2.08-2.39s-.67-2.2-2.02-2.2c-.86,0-1.65,.52-1.83,1.37h-.88l.21-5.24Z"/><path class="cls-6" d="M73.42,451.07l-.94,2.68h-.68l.56-2.68h1.06Z"/><path class="cls-6" d="M79.81,444.51c.77-.31,1.49-.84,2.08-1.42h.81v9.04h-.85v-8.13c-.6,.57-1.31,1.01-2.04,1.36v-.85Z"/><path class="cls-6" d="M86.44,449.91c.04,1.19,.85,1.63,1.96,1.63,2.06,0,2.29-2.9,2.29-4.27h-.03c-.44,.88-1.35,1.38-2.39,1.38-1.63,0-2.77-1.19-2.77-2.81,0-1.72,1.14-2.95,2.89-2.95,2.63,0,3.21,2.22,3.21,4.47,0,2.43-.55,4.97-3.44,4.97-1.61,0-2.52-.98-2.64-2.42h.91Zm-.03-4c0,1.19,.74,2.02,1.93,2.02,1.25,0,2.18-.89,2.18-2.14s-.89-2.12-2.13-2.12c-1.35,0-1.99,.98-1.99,2.24Z"/><path class="cls-6" d="M98.81,447.6c0,2.3-.54,4.72-3,4.72s-3.01-2.42-3.01-4.72,.54-4.72,3.01-4.72,3,2.42,3,4.72Zm-5.1,0c0,1.35,.17,3.93,2.09,3.93s2.09-2.59,2.09-3.93-.17-3.93-2.09-3.93-2.09,2.59-2.09,3.93Z"/><path class="cls-6" d="M100.64,443.08h4.98v.78h-4.17l-.14,3.23,.03,.03c.51-.59,1.18-.95,1.99-.95,1.7,0,2.76,1.4,2.76,3.02,0,1.74-1.11,3.14-2.9,3.14-1.53,0-2.87-.71-2.93-2.42h.91c.05,1.08,.89,1.63,1.92,1.63,1.41,0,2.08-1.08,2.08-2.39s-.67-2.2-2.02-2.2c-.86,0-1.65,.52-1.83,1.37h-.88l.21-5.24Z"/><path class="cls-6" d="M109.23,442.69v10.69h-1.79v-.65h.94v-9.38h-.94v-.65h1.79Z"/></g><g><path class="cls-6" d="M40.29,484.37c-.64-1.71-1.4-3.46-1.4-5.34s.74-3.65,1.41-5.34h.65c-.69,1.76-1.15,3.66-1.15,5.34,0,1.79,.55,3.8,1.15,5.34h-.67Z"/><path class="cls-6" d="M43.05,475.5c.77-.31,1.49-.84,2.08-1.42h.81v9.04h-.85v-8.13c-.6,.57-1.31,1.01-2.04,1.36v-.85Z"/><path class="cls-6" d="M49.68,480.89c.04,1.19,.85,1.63,1.96,1.63,2.06,0,2.29-2.9,2.29-4.27h-.03c-.44,.88-1.35,1.38-2.39,1.38-1.63,0-2.77-1.19-2.77-2.81,0-1.72,1.14-2.95,2.89-2.95,2.63,0,3.21,2.22,3.21,4.47,0,2.43-.55,4.97-3.44,4.97-1.61,0-2.52-.98-2.64-2.42h.91Zm-.03-4c0,1.19,.74,2.02,1.93,2.02,1.25,0,2.18-.89,2.18-2.14s-.89-2.12-2.13-2.12c-1.35,0-1.99,.98-1.99,2.24Z"/><path class="cls-6" d="M62.05,478.59c0,2.3-.54,4.72-3,4.72s-3.01-2.42-3.01-4.72,.54-4.72,3.01-4.72,3,2.42,3,4.72Zm-5.1,0c0,1.35,.17,3.93,2.09,3.93s2.09-2.59,2.09-3.93-.17-3.93-2.09-3.93-2.09,2.59-2.09,3.93Z"/><path class="cls-6" d="M63.88,474.07h4.98v.78h-4.17l-.14,3.23,.03,.03c.51-.59,1.18-.95,1.99-.95,1.7,0,2.76,1.4,2.76,3.02,0,1.74-1.11,3.14-2.9,3.14-1.53,0-2.87-.71-2.93-2.42h.91c.05,1.08,.89,1.63,1.92,1.63,1.41,0,2.08-1.08,2.08-2.39s-.67-2.2-2.02-2.2c-.86,0-1.65,.52-1.83,1.37h-.88l.21-5.24Z"/><path class="cls-6" d="M72.33,482.06l-.94,2.68h-.68l.56-2.68h1.06Z"/><path class="cls-6" d="M78.72,475.5c.77-.31,1.49-.84,2.08-1.42h.81v9.04h-.85v-8.13c-.6,.57-1.31,1.01-2.04,1.36v-.85Z"/><path class="cls-6" d="M85.35,480.89c.04,1.19,.85,1.63,1.96,1.63,2.06,0,2.29-2.9,2.29-4.27h-.03c-.44,.88-1.35,1.38-2.39,1.38-1.63,0-2.77-1.19-2.77-2.81,0-1.72,1.14-2.95,2.89-2.95,2.63,0,3.21,2.22,3.21,4.47,0,2.43-.55,4.97-3.44,4.97-1.61,0-2.52-.98-2.64-2.42h.91Zm-.03-4c0,1.19,.74,2.02,1.93,2.02,1.25,0,2.18-.89,2.18-2.14s-.89-2.12-2.13-2.12c-1.35,0-1.99,.98-1.99,2.24Z"/><path class="cls-6" d="M95.62,481.01h-4.25v-.82l3.97-6.12h1.12v6.23h1.45v.71h-1.45v2.1h-.85v-2.1Zm0-6.09h-.03l-3.5,5.38h3.53v-5.38Z"/><path class="cls-6" d="M99.55,474.07h4.98v.78h-4.17l-.14,3.23,.03,.03c.51-.59,1.18-.95,1.99-.95,1.7,0,2.76,1.4,2.76,3.02,0,1.74-1.11,3.14-2.9,3.14-1.53,0-2.87-.71-2.93-2.42h.91c.05,1.08,.89,1.63,1.92,1.63,1.41,0,2.08-1.08,2.08-2.39s-.67-2.2-2.02-2.2c-.86,0-1.65,.52-1.83,1.37h-.88l.21-5.24Z"/><path class="cls-6" d="M108.14,473.68v10.69h-1.79v-.65h.94v-9.38h-.94v-.65h1.79Z"/></g><g><path class="cls-6" d="M40.29,517.05c-.64-1.71-1.4-3.46-1.4-5.34s.74-3.65,1.41-5.34h.65c-.69,1.76-1.15,3.66-1.15,5.34,0,1.79,.55,3.8,1.15,5.34h-.67Z"/><path class="cls-6" d="M43.05,508.18c.77-.31,1.49-.84,2.08-1.42h.81v9.04h-.85v-8.13c-.6,.57-1.31,1.01-2.04,1.36v-.85Z"/><path class="cls-6" d="M49.68,513.57c.04,1.19,.85,1.63,1.96,1.63,2.06,0,2.29-2.9,2.29-4.27h-.03c-.44,.88-1.35,1.38-2.39,1.38-1.63,0-2.77-1.19-2.77-2.81,0-1.72,1.14-2.95,2.89-2.95,2.63,0,3.21,2.22,3.21,4.47,0,2.43-.55,4.97-3.44,4.97-1.61,0-2.52-.98-2.64-2.42h.91Zm-.03-4c0,1.19,.74,2.02,1.93,2.02,1.25,0,2.18-.89,2.18-2.14s-.89-2.12-2.13-2.12c-1.35,0-1.99,.98-1.99,2.24Z"/><path class="cls-6" d="M59.95,513.69h-4.25v-.82l3.97-6.12h1.12v6.23h1.45v.71h-1.45v2.1h-.85v-2.1Zm0-6.09h-.03l-3.5,5.38h3.53v-5.38Z"/><path class="cls-6" d="M63.88,506.75h4.98v.78h-4.17l-.14,3.23,.03,.03c.51-.59,1.18-.95,1.99-.95,1.7,0,2.76,1.4,2.76,3.02,0,1.74-1.11,3.14-2.9,3.14-1.53,0-2.87-.71-2.93-2.42h.91c.05,1.08,.89,1.63,1.92,1.63,1.41,0,2.08-1.08,2.08-2.39s-.67-2.2-2.02-2.2c-.86,0-1.65,.52-1.83,1.37h-.88l.21-5.24Z"/><path class="cls-6" d="M72.33,514.74l-.94,2.68h-.68l.56-2.68h1.06Z"/><path class="cls-6" d="M78.72,508.18c.77-.31,1.49-.84,2.08-1.42h.81v9.04h-.85v-8.13c-.6,.57-1.31,1.01-2.04,1.36v-.85Z"/><path class="cls-6" d="M85.35,513.57c.04,1.19,.85,1.63,1.96,1.63,2.06,0,2.29-2.9,2.29-4.27h-.03c-.44,.88-1.35,1.38-2.39,1.38-1.63,0-2.77-1.19-2.77-2.81,0-1.72,1.14-2.95,2.89-2.95,2.63,0,3.21,2.22,3.21,4.47,0,2.43-.55,4.97-3.44,4.97-1.61,0-2.52-.98-2.64-2.42h.91Zm-.03-4c0,1.19,.74,2.02,1.93,2.02,1.25,0,2.18-.89,2.18-2.14s-.89-2.12-2.13-2.12c-1.35,0-1.99,.98-1.99,2.24Z"/><path class="cls-6" d="M93.62,511.08c-1.06-.1-1.84-1.02-1.84-2.09,0-1.67,1.49-2.43,2.94-2.43s2.94,.76,2.94,2.43c0,1.1-.78,1.86-1.82,2.09h0c1.2,.33,1.95,1.06,1.95,2.26,0,1.83-1.56,2.65-3.07,2.65s-3.07-.82-3.07-2.65c-.01-1.16,.8-1.99,1.97-2.23v-.03Zm1.1,4.13c1.12,0,2.16-.57,2.16-1.87s-1.03-1.87-2.16-1.87-2.16,.57-2.16,1.87,1.03,1.87,2.16,1.87Zm0-4.52c1.2,0,2.09-.57,2.09-1.7,0-1.22-1.08-1.71-2.09-1.71s-2.09,.5-2.09,1.71c0,1.12,.89,1.7,2.09,1.7Z"/><path class="cls-6" d="M99.55,506.75h4.98v.78h-4.17l-.14,3.23,.03,.03c.51-.59,1.18-.95,1.99-.95,1.7,0,2.76,1.4,2.76,3.02,0,1.74-1.11,3.14-2.9,3.14-1.53,0-2.87-.71-2.93-2.42h.91c.05,1.08,.89,1.63,1.92,1.63,1.41,0,2.08-1.08,2.08-2.39s-.67-2.2-2.02-2.2c-.86,0-1.65,.52-1.83,1.37h-.88l.21-5.24Z"/><path class="cls-6" d="M108.14,506.36v10.69h-1.79v-.65h.94v-9.38h-.94v-.65h1.79Z"/></g><g><path class="cls-6" d="M40.29,548.93c-.64-1.71-1.4-3.46-1.4-5.34s.74-3.65,1.41-5.34h.65c-.69,1.76-1.15,3.66-1.15,5.34,0,1.79,.55,3.8,1.15,5.34h-.67Z"/><path class="cls-6" d="M43.05,540.06c.77-.31,1.49-.84,2.08-1.42h.81v9.04h-.85v-8.13c-.6,.57-1.31,1.01-2.04,1.36v-.85Z"/><path class="cls-6" d="M49.68,545.46c.04,1.19,.85,1.63,1.96,1.63,2.06,0,2.29-2.9,2.29-4.27h-.03c-.44,.88-1.35,1.38-2.39,1.38-1.63,0-2.77-1.19-2.77-2.81,0-1.72,1.14-2.95,2.89-2.95,2.63,0,3.21,2.22,3.21,4.47,0,2.43-.55,4.97-3.44,4.97-1.61,0-2.52-.98-2.64-2.42h.91Zm-.03-4c0,1.19,.74,2.02,1.93,2.02,1.25,0,2.18-.89,2.18-2.14s-.89-2.12-2.13-2.12c-1.35,0-1.99,.98-1.99,2.24Z"/><path class="cls-6" d="M57.95,542.96c-1.06-.1-1.84-1.02-1.84-2.09,0-1.67,1.49-2.43,2.94-2.43s2.94,.76,2.94,2.43c0,1.1-.78,1.86-1.82,2.09h0c1.2,.33,1.95,1.06,1.95,2.26,0,1.83-1.56,2.65-3.07,2.65s-3.07-.82-3.07-2.65c-.01-1.16,.8-1.99,1.97-2.23v-.03Zm1.1,4.13c1.12,0,2.16-.57,2.16-1.87s-1.03-1.87-2.16-1.87-2.16,.57-2.16,1.87,1.03,1.87,2.16,1.87Zm0-4.52c1.2,0,2.09-.57,2.09-1.7,0-1.22-1.08-1.71-2.09-1.71s-2.09,.5-2.09,1.71c0,1.12,.89,1.7,2.09,1.7Z"/><path class="cls-6" d="M63.88,538.64h4.98v.78h-4.17l-.14,3.23,.03,.03c.51-.59,1.18-.95,1.99-.95,1.7,0,2.76,1.4,2.76,3.02,0,1.74-1.11,3.14-2.9,3.14-1.53,0-2.87-.71-2.93-2.42h.91c.05,1.08,.89,1.63,1.92,1.63,1.41,0,2.08-1.08,2.08-2.39s-.67-2.2-2.02-2.2c-.86,0-1.65,.52-1.83,1.37h-.88l.21-5.24Z"/><path class="cls-6" d="M72.33,546.62l-.94,2.68h-.68l.56-2.68h1.06Z"/><path class="cls-6" d="M77.86,547.68v-.89c1.18-1.06,4.65-4.34,4.65-5.96,0-1.06-.84-1.61-1.82-1.61-1.08,0-1.83,.75-1.83,1.8h-.91c0-1.59,1.2-2.59,2.77-2.59,1.45,0,2.7,.77,2.7,2.34,0,2.12-3.15,4.77-4.55,6.12h4.66v.78h-5.68Z"/><path class="cls-6" d="M91.11,543.16c0,2.3-.54,4.72-3,4.72s-3.01-2.42-3.01-4.72,.54-4.72,3.01-4.72,3,2.42,3,4.72Zm-5.1,0c0,1.35,.17,3.93,2.09,3.93s2.09-2.59,2.09-3.93-.17-3.93-2.09-3.93-2.09,2.59-2.09,3.93Z"/><path class="cls-6" d="M92.39,547.68v-.89c1.18-1.06,4.65-4.34,4.65-5.96,0-1.06-.84-1.61-1.82-1.61-1.08,0-1.83,.75-1.83,1.8h-.91c0-1.59,1.2-2.59,2.77-2.59,1.45,0,2.7,.77,2.7,2.34,0,2.12-3.15,4.77-4.55,6.12h4.66v.78h-5.68Z"/><path class="cls-6" d="M105.56,540.75h-.91c-.04-.94-.8-1.53-1.72-1.53-2.17,0-2.42,2.37-2.42,4.06h.03c.41-.99,1.32-1.48,2.38-1.48,1.79,0,2.77,1.27,2.77,2.99s-1.07,3.07-2.85,3.07c-2.52,0-3.24-2.09-3.24-4.26,0-2.31,.37-5.17,3.29-5.17,1.48,0,2.65,.74,2.68,2.31Zm-4.9,4.17c0,1.14,.86,2.17,2.04,2.17,1.33,0,2.06-.95,2.06-2.23,0-1.19-.55-2.33-1.89-2.33-1.44,0-2.21,1.05-2.21,2.39Z"/><path class="cls-6" d="M108.79,538.24v10.69h-1.79v-.65h.94v-9.38h-.94v-.65h1.79Z"/></g><path class="cls-45" d="M137.42,532.53h417.14v28.69H137.42v-28.69Z"/><path class="cls-45" d="M137.42,500.65h2.66v28.69h-2.66v-28.69Z"/><path class="cls-45" d="M140.08,500.65h7.97v28.69h-7.97v-28.69Z"/><path class="cls-45" d="M554.56,532.53h5.31v28.69h-5.31v-28.69Z"/><path class="cls-45" d="M559.87,532.53h37.2v28.69h-37.2v-28.69Z"/><path class="cls-45" d="M137.42,468.77h5.31v28.69h-5.31v-28.69Z"/><path class="cls-45" d="M142.73,468.77h2.66v28.69h-2.66v-28.69Z"/><path class="cls-45" d="M148.05,500.65h18.6v28.69h-18.6v-28.69Z"/><path class="cls-45" d="M597.07,532.53h34.54v28.69h-34.54v-28.69Z"/><path class="cls-45" d="M137.42,436.88h2.66v28.69h-2.66v-28.69Z"/><path class="cls-45" d="M631.61,532.53h7.97v28.69h-7.97v-28.69Z"/><path class="cls-45" d="M166.64,500.65h2.66v28.69h-2.66v-28.69Z"/><path class="cls-5" d="M137.42,373.12h34.54v28.69h-34.54v-28.69Z"/><path class="cls-11" d="M639.58,532.53h13.28v28.69h-13.28v-28.69Z"/><path class="cls-9" d="M169.3,500.65h15.94v28.69h-15.94v-28.69Z"/><path class="cls-10" d="M185.24,500.65h55.8v28.69h-55.8v-28.69Z"/><path class="cls-14" d="M140.08,436.88h2.66v28.69h-2.66v-28.69Z"/><path class="cls-12" d="M142.73,436.88h13.28v28.69h-13.28v-28.69Z"/><path class="cls-13" d="M145.39,468.77h15.94v28.69h-15.94v-28.69Z"/><path class="cls-7" d="M156.02,436.88h53.14v28.69h-53.14v-28.69Z"/><path class="cls-8" d="M652.86,532.53h10.63v28.69h-10.63v-28.69Z"/><path class="cls-27" d="M663.49,532.53h15.94v28.69h-15.94v-28.69Z"/><path class="cls-28" d="M679.43,532.53h13.28v28.69h-13.28v-28.69Z"/><path class="cls-26" d="M161.33,468.77h63.77v28.69h-63.77v-28.69Z"/><path class="cls-25" d="M241.04,500.65h5.31v28.69h-5.31v-28.69Z"/><path class="cls-15" d="M246.35,500.65h15.94v28.69h-15.94v-28.69Z"/><path class="cls-21" d="M209.16,436.88h13.28v28.69h-13.28v-28.69Z"/><path class="cls-23" d="M262.29,500.65h13.28v28.69h-13.28v-28.69Z"/><path class="cls-24" d="M692.72,532.53h29.23v28.69h-29.23v-28.69Z"/><path class="cls-16" d="M275.58,500.65h10.63v28.69h-10.63v-28.69Z"/><path class="cls-22" d="M286.21,500.65h2.66v28.69h-2.66v-28.69Z"/><path class="cls-18" d="M225.1,468.77h5.31v28.69h-5.31v-28.69Z"/><path class="cls-19" d="M230.41,468.77h2.66v28.69h-2.66v-28.69Z"/><path class="cls-17" d="M137.42,405h15.94v28.69h-15.94v-28.69Z"/><path class="cls-20" d="M171.96,373.12h5.31v28.69h-5.31v-28.69Z"/><path class="cls-30" d="M153.36,405h7.97v28.69h-7.97v-28.69Z"/><path class="cls-37" d="M161.33,405h5.31v28.69h-5.31v-28.69Z"/><path class="cls-31" d="M233.07,468.77h2.66v28.69h-2.66v-28.69Z"/><path class="cls-29" d="M137.42,213.7h2.66v28.69h-2.66v-28.69Z"/><path class="cls-38" d="M137.42,341.23h10.63v28.69h-10.63v-28.69Z"/><path class="cls-39" d="M137.42,277.47h7.97v28.69h-7.97v-28.69Z"/><path class="cls-41" d="M721.94,532.53h2.66v28.69h-2.66v-28.69Z"/><path class="cls-43" d="M166.64,405h2.66v28.69h-2.66v-28.69Z"/><path class="cls-42" d="M724.6,532.53h5.31v28.69h-5.31v-28.69Z"/><path class="cls-40" d="M137.42,181.82h2.66v28.69h-2.66v-28.69Z"/><path class="cls-35" d="M137.42,245.58h2.66v28.69h-2.66v-28.69Z"/><path class="cls-33" d="M137.42,309.35h2.66v28.69h-2.66v-28.69Z"/><path class="cls-36" d="M177.27,373.12h2.66v28.69h-2.66v-28.69Z"/><path class="cls-34" d="M179.93,373.12h2.66v28.69h-2.66v-28.69Z"/><g><path class="cls-6" d="M49.42,42.33v21.45h-2.7v-21.45h2.7Z"/><path class="cls-6" d="M67.27,53.1v10.68h-2.4v-10.08c0-1.98-.93-3.54-3.33-3.54-2.7,0-4.5,1.71-4.5,4.08v9.54h-2.4v-15.3h2.4v1.83h.06c.81-1.08,2.43-2.25,5.04-2.25,2.79,0,5.13,1.53,5.13,5.04Z"/><path class="cls-6" d="M78.22,50.16c-2.91,0-3.87,.84-4.02,3.06h-2.4c.15-2.94,1.98-5.16,6.42-5.16,2.91,0,5.52,1.14,5.52,4.83v7.44c0,1.2,.21,1.86,1.74,1.68v1.68c-.63,.21-.96,.24-1.41,.24-1.44,0-2.31-.39-2.73-2.07h-.06c-.96,1.44-2.67,2.34-5.19,2.34-3.09,0-5.04-1.77-5.04-4.35,0-3.48,2.58-4.38,6.54-5.13,2.58-.48,3.75-.81,3.75-2.34,0-1.2-.66-2.22-3.12-2.22Zm3.12,7.71v-2.55c-.45,.45-1.92,.87-3.54,1.2-2.97,.63-4.35,1.38-4.35,3.21,0,1.5,.9,2.37,2.88,2.37,2.85,0,5.01-1.29,5.01-4.23Z"/><path class="cls-6" d="M101.32,48.48v15.3h-2.4v-1.83h-.06c-.81,1.08-2.43,2.25-5.04,2.25-2.79,0-5.13-1.53-5.13-5.04v-10.68h2.4v10.08c0,1.98,.93,3.54,3.33,3.54,2.7,0,4.5-1.71,4.5-4.08v-9.54h2.4Z"/><path class="cls-6" d="M119.41,48.48v14.46c0,4.08-2.58,6.15-6.78,6.15s-6.69-2.22-6.93-4.83h2.4c.3,1.56,1.56,2.73,4.41,2.73s4.5-1.23,4.5-4.08v-2.31h-.06c-.9,1.32-2.34,2.4-4.86,2.4-3.78,0-6.84-2.43-6.84-7.47s3.06-7.47,6.84-7.47c2.52,0,3.96,1.14,4.86,2.31h.06v-1.89h2.4Zm-2.4,7.05c0-3.6-1.77-5.37-4.62-5.37-3.15,0-4.74,2.37-4.74,5.37s1.59,5.37,4.74,5.37c2.85,0,4.62-1.77,4.62-5.37Z"/><path class="cls-6" d="M136.75,48.48v15.3h-2.4v-1.83h-.06c-.81,1.08-2.43,2.25-5.04,2.25-2.79,0-5.13-1.53-5.13-5.04v-10.68h2.4v10.08c0,1.98,.93,3.54,3.33,3.54,2.7,0,4.5-1.71,4.5-4.08v-9.54h2.4Z"/><path class="cls-6" d="M149.65,48.15v2.4h-.06c-3.33-.54-5.64,1.8-5.64,5.07v8.16h-2.4v-15.3h2.4v3.03h.06c.81-2.01,2.04-3.45,4.23-3.45,.57,0,.99,.03,1.41,.09Z"/><path class="cls-6" d="M158.98,50.16c-2.91,0-3.87,.84-4.02,3.06h-2.4c.15-2.94,1.98-5.16,6.42-5.16,2.91,0,5.52,1.14,5.52,4.83v7.44c0,1.2,.21,1.86,1.74,1.68v1.68c-.63,.21-.96,.24-1.41,.24-1.44,0-2.31-.39-2.73-2.07h-.06c-.96,1.44-2.67,2.34-5.19,2.34-3.09,0-5.04-1.77-5.04-4.35,0-3.48,2.58-4.38,6.54-5.13,2.58-.48,3.75-.81,3.75-2.34,0-1.2-.66-2.22-3.12-2.22Zm3.12,7.71v-2.55c-.45,.45-1.92,.87-3.54,1.2-2.97,.63-4.35,1.38-4.35,3.21,0,1.5,.9,2.37,2.88,2.37,2.85,0,5.01-1.29,5.01-4.23Z"/><path class="cls-6" d="M176.08,50.16c-3.63,0-5.01,3.09-5.01,5.97s1.38,5.97,5.01,5.97c3.09,0,4.2-2.13,4.32-3.96h2.4c-.21,3.48-2.94,6.06-6.72,6.06-4.47,0-7.41-3.27-7.41-8.07s2.94-8.07,7.41-8.07c3.78,0,6.36,2.52,6.72,5.94h-2.4c-.12-1.68-1.26-3.84-4.32-3.84Z"/><path class="cls-6" d="M186.61,44.07c0-.93,.84-1.44,1.5-1.44s1.5,.51,1.5,1.44-.81,1.44-1.5,1.44-1.5-.51-1.5-1.44Zm2.7,4.41v15.3h-2.4v-15.3h2.4Z"/><path class="cls-6" d="M201.04,64.2c-4.68,0-7.5-3.3-7.5-8.07s2.82-8.07,7.5-8.07,7.47,3.3,7.47,8.07-2.82,8.07-7.47,8.07Zm0-2.1c3.42,0,5.07-2.7,5.07-5.97s-1.65-5.97-5.07-5.97-5.1,2.7-5.1,5.97,1.65,5.97,5.1,5.97Zm.27-20.07l-1.29,3.81h1.95l2.19-3.81h-2.85Z"/><path class="cls-6" d="M225.07,53.1v10.68h-2.4v-10.08c0-1.98-.93-3.54-3.33-3.54-2.7,0-4.5,1.71-4.5,4.08v9.54h-2.4v-15.3h2.4v1.83h.06c.81-1.08,2.43-2.25,5.04-2.25,2.79,0,5.13,1.53,5.13,5.04Z"/><path class="cls-6" d="M250.57,42.33v21.45h-2.4v-1.89h-.06c-.9,1.17-2.34,2.31-4.8,2.31-3.84,0-6.9-3.03-6.9-8.07s3.06-8.07,6.9-8.07c2.46,0,3.9,1.08,4.8,2.4h.06v-8.13h2.4Zm-2.4,13.8c0-3.6-1.77-5.97-4.62-5.97-3.15,0-4.74,2.97-4.74,5.97s1.59,5.97,4.74,5.97c2.85,0,4.62-2.37,4.62-5.97Z"/><path class="cls-6" d="M266.35,59.07h2.4c-.78,2.85-2.97,5.13-6.78,5.13-4.65,0-7.47-3.27-7.47-8.07,0-5.1,2.88-8.07,7.35-8.07,4.8,0,7.14,3.27,7.14,8.7h-12.09c0,2.76,1.65,5.34,4.98,5.34,3.06,0,4.2-1.98,4.47-3.03Zm-9.45-4.41h9.69c0-2.46-1.86-4.5-4.74-4.5s-4.95,2.04-4.95,4.5Z"/><path class="cls-6" d="M286.9,50.16c-3.63,0-5.01,3.09-5.01,5.97s1.38,5.97,5.01,5.97c3.09,0,4.2-2.13,4.32-3.96h2.4c-.21,3.48-2.94,6.06-6.72,6.06-4.47,0-7.41-3.27-7.41-8.07s2.94-8.07,7.41-8.07c3.78,0,6.36,2.52,6.72,5.94h-2.4c-.12-1.68-1.26-3.84-4.32-3.84Z"/><path class="cls-6" d="M304.06,64.2c-4.68,0-7.5-3.3-7.5-8.07s2.82-8.07,7.5-8.07,7.47,3.3,7.47,8.07-2.82,8.07-7.47,8.07Zm0-2.1c3.42,0,5.07-2.7,5.07-5.97s-1.65-5.97-5.07-5.97-5.1,2.7-5.1,5.97,1.65,5.97,5.1,5.97Z"/><path class="cls-6" d="M317.95,42.33v21.45h-2.4v-21.45h2.4Z"/><path class="cls-6" d="M333.82,59.07h2.4c-.78,2.85-2.97,5.13-6.78,5.13-4.65,0-7.47-3.27-7.47-8.07,0-5.1,2.88-8.07,7.35-8.07,4.8,0,7.14,3.27,7.14,8.7h-12.09c0,2.76,1.65,5.34,4.98,5.34,3.06,0,4.2-1.98,4.47-3.03Zm-9.45-4.41h9.69c0-2.46-1.86-4.5-4.74-4.5s-4.95,2.04-4.95,4.5Z"/><path class="cls-6" d="M346.87,50.16c-3.63,0-5.01,3.09-5.01,5.97s1.38,5.97,5.01,5.97c3.09,0,4.2-2.13,4.32-3.96h2.4c-.21,3.48-2.94,6.06-6.72,6.06-4.47,0-7.41-3.27-7.41-8.07s2.94-8.07,7.41-8.07c3.78,0,6.36,2.52,6.72,5.94h-2.4c-.12-1.68-1.26-3.84-4.32-3.84Z"/><path class="cls-6" d="M363.94,50.16c-3.63,0-5.01,3.09-5.01,5.97s1.38,5.97,5.01,5.97c3.09,0,4.2-2.13,4.32-3.96h2.4c-.21,3.48-2.94,6.06-6.72,6.06-4.47,0-7.41-3.27-7.41-8.07s2.94-8.07,7.41-8.07c3.78,0,6.36,2.52,6.72,5.94h-2.4c-.12-1.68-1.26-3.84-4.32-3.84Z"/><path class="cls-6" d="M374.47,44.07c0-.93,.84-1.44,1.5-1.44s1.5,.51,1.5,1.44-.81,1.44-1.5,1.44-1.5-.51-1.5-1.44Zm2.7,4.41v15.3h-2.4v-15.3h2.4Z"/><path class="cls-6" d="M388.9,64.2c-4.68,0-7.5-3.3-7.5-8.07s2.82-8.07,7.5-8.07,7.47,3.3,7.47,8.07-2.82,8.07-7.47,8.07Zm0-2.1c3.42,0,5.07-2.7,5.07-5.97s-1.65-5.97-5.07-5.97-5.1,2.7-5.1,5.97,1.65,5.97,5.1,5.97Z"/><path class="cls-6" d="M412.93,53.1v10.68h-2.4v-10.08c0-1.98-.93-3.54-3.33-3.54-2.7,0-4.5,1.71-4.5,4.08v9.54h-2.4v-15.3h2.4v1.83h.06c.81-1.08,2.43-2.25,5.04-2.25,2.79,0,5.13,1.53,5.13,5.04Z"/><path class="cls-6" d="M428.62,59.07h2.4c-.78,2.85-2.97,5.13-6.78,5.13-4.65,0-7.47-3.27-7.47-8.07,0-5.1,2.88-8.07,7.35-8.07,4.8,0,7.14,3.27,7.14,8.7h-12.09c0,2.76,1.65,5.34,4.98,5.34,3.06,0,4.2-1.98,4.47-3.03Zm-9.45-4.41h9.69c0-2.46-1.86-4.5-4.74-4.5s-4.95,2.04-4.95,4.5Z"/><path class="cls-6" d="M447.16,59.58c0,2.79-2.55,4.62-6.03,4.62-4.68,0-6.84-2.22-6.99-5.52h2.4c.15,1.71,.75,3.42,4.59,3.42,2.61,0,3.63-1.35,3.63-2.37,0-2.22-2.01-2.34-4.2-2.88-2.34-.57-5.82-.84-5.82-4.44,0-2.4,2.13-4.35,5.73-4.35,3.81,0,5.85,2.16,6.09,4.8h-2.4c-.24-1.17-.81-2.7-3.69-2.7-2.16,0-3.33,.87-3.33,2.07,0,1.8,2.07,1.95,4.2,2.46,2.73,.66,5.82,1.11,5.82,4.89Z"/><path class="cls-6" d="M472.66,56.13c0,5.04-3.06,8.07-6.84,8.07-2.52,0-3.96-1.08-4.86-2.4h-.06v7.14h-2.4v-20.46h2.4v1.89h.06c.9-1.17,2.34-2.31,4.86-2.31,3.78,0,6.84,3.03,6.84,8.07Zm-2.4,0c0-3-1.59-5.97-4.74-5.97-2.85,0-4.62,2.37-4.62,5.97s1.77,5.97,4.62,5.97c3.15,0,4.74-2.97,4.74-5.97Z"/><path class="cls-6" d="M489.22,48.48v15.3h-2.4v-1.83h-.06c-.81,1.08-2.43,2.25-5.04,2.25-2.79,0-5.13-1.53-5.13-5.04v-10.68h2.4v10.08c0,1.98,.93,3.54,3.33,3.54,2.7,0,4.5-1.71,4.5-4.08v-9.54h2.4Zm-5.37-2.64h-1.95l1.29-3.81h2.85l-2.19,3.81Z"/><path class="cls-6" d="M508.18,56.13c0,5.04-3.06,8.07-6.9,8.07-2.46,0-3.9-1.14-4.8-2.31h-.06v1.89h-2.4v-21.45h2.4v8.13h.06c.9-1.32,2.34-2.4,4.8-2.4,3.84,0,6.9,3.03,6.9,8.07Zm-2.4,0c0-3-1.59-5.97-4.74-5.97-2.85,0-4.62,2.37-4.62,5.97s1.77,5.97,4.62,5.97c3.15,0,4.74-2.97,4.74-5.97Z"/><path class="cls-6" d="M514.6,42.33v21.45h-2.4v-21.45h2.4Z"/><path class="cls-6" d="M519.19,44.07c0-.93,.84-1.44,1.5-1.44s1.5,.51,1.5,1.44-.81,1.44-1.5,1.44-1.5-.51-1.5-1.44Zm2.7,4.41v15.3h-2.4v-15.3h2.4Z"/><path class="cls-6" d="M533.53,50.16c-3.63,0-5.01,3.09-5.01,5.97s1.38,5.97,5.01,5.97c3.09,0,4.2-2.13,4.32-3.96h2.4c-.21,3.48-2.94,6.06-6.72,6.06-4.47,0-7.41-3.27-7.41-8.07s2.94-8.07,7.41-8.07c3.78,0,6.36,2.52,6.72,5.94h-2.4c-.12-1.68-1.26-3.84-4.32-3.84Z"/><path class="cls-6" d="M550.6,50.16c-2.91,0-3.87,.84-4.02,3.06h-2.4c.15-2.94,1.98-5.16,6.42-5.16,2.91,0,5.52,1.14,5.52,4.83v7.44c0,1.2,.21,1.86,1.74,1.68v1.68c-.63,.21-.96,.24-1.41,.24-1.44,0-2.31-.39-2.73-2.07h-.06c-.96,1.44-2.67,2.34-5.19,2.34-3.09,0-5.04-1.77-5.04-4.35,0-3.48,2.58-4.38,6.54-5.13,2.58-.48,3.75-.81,3.75-2.34,0-1.2-.66-2.22-3.12-2.22Zm3.12,7.71v-2.55c-.45,.45-1.92,.87-3.54,1.2-2.97,.63-4.35,1.38-4.35,3.21,0,1.5,.9,2.37,2.88,2.37,2.85,0,5.01-1.29,5.01-4.23Z"/><path class="cls-6" d="M573.19,59.58c0,2.79-2.55,4.62-6.03,4.62-4.68,0-6.84-2.22-6.99-5.52h2.4c.15,1.71,.75,3.42,4.59,3.42,2.61,0,3.63-1.35,3.63-2.37,0-2.22-2.01-2.34-4.2-2.88-2.34-.57-5.82-.84-5.82-4.44,0-2.4,2.13-4.35,5.73-4.35,3.81,0,5.85,2.16,6.09,4.8h-2.4c-.24-1.17-.81-2.7-3.69-2.7-2.16,0-3.33,.87-3.33,2.07,0,1.8,2.07,1.95,4.2,2.46,2.73,.66,5.82,1.11,5.82,4.89Z"/><path class="cls-6" d="M590.95,65.04c-.66,1.65-1.44,3.9-4.26,3.9-.96,0-1.65-.18-2.04-.3v-1.8h.36c1.32,.12,2.25,.03,3.06-.84,.63-.69,1.26-1.98,.66-3.48l-5.79-14.04h2.7l4.68,12.48h.06l4.41-12.48h2.7l-6.54,16.56Z"/><path class="cls-6" d="M622.36,56.13c0,5.04-3.06,8.07-6.84,8.07-2.52,0-3.96-1.08-4.86-2.4h-.06v7.14h-2.4v-20.46h2.4v1.89h.06c.9-1.17,2.34-2.31,4.86-2.31,3.78,0,6.84,3.03,6.84,8.07Zm-2.4,0c0-3-1.59-5.97-4.74-5.97-2.85,0-4.62,2.37-4.62,5.97s1.77,5.97,4.62,5.97c3.15,0,4.74-2.97,4.74-5.97Z"/><path class="cls-6" d="M634.48,48.15v2.4h-.06c-3.33-.54-5.64,1.8-5.64,5.07v8.16h-2.4v-15.3h2.4v3.03h.06c.81-2.01,2.04-3.45,4.23-3.45,.57,0,.99,.03,1.41,.09Z"/><path class="cls-6" d="M638.16,44.07c0-.93,.84-1.44,1.5-1.44s1.5,.51,1.5,1.44-.81,1.44-1.5,1.44-1.5-.51-1.5-1.44Zm2.7,4.41v15.3h-2.4v-15.3h2.4Z"/><path class="cls-6" d="M646.99,48.48l4.23,12.9h.03l4.23-12.9h2.61l-5.49,15.3h-2.73l-5.49-15.3h2.61Z"/><path class="cls-6" d="M667.08,50.16c-2.91,0-3.87,.84-4.02,3.06h-2.4c.15-2.94,1.98-5.16,6.42-5.16,2.91,0,5.52,1.14,5.52,4.83v7.44c0,1.2,.21,1.86,1.74,1.68v1.68c-.63,.21-.96,.24-1.41,.24-1.44,0-2.31-.39-2.73-2.07h-.06c-.96,1.44-2.67,2.34-5.19,2.34-3.09,0-5.04-1.77-5.04-4.35,0-3.48,2.58-4.38,6.54-5.13,2.58-.48,3.75-.81,3.75-2.34,0-1.2-.66-2.22-3.12-2.22Zm3.12,7.71v-2.55c-.45,.45-1.92,.87-3.54,1.2-2.97,.63-4.35,1.38-4.35,3.21,0,1.5,.9,2.37,2.88,2.37,2.85,0,5.01-1.29,5.01-4.23Z"/><path class="cls-6" d="M690.93,42.33v21.45h-2.4v-1.89h-.06c-.9,1.17-2.34,2.31-4.8,2.31-3.84,0-6.9-3.03-6.9-8.07s3.06-8.07,6.9-8.07c2.46,0,3.9,1.08,4.8,2.4h.06v-8.13h2.4Zm-2.4,13.8c0-3.6-1.77-5.97-4.62-5.97-3.15,0-4.74,2.97-4.74,5.97s1.59,5.97,4.74,5.97c2.85,0,4.62-2.37,4.62-5.97Z"/><path class="cls-6" d="M701.97,50.16c-2.91,0-3.87,.84-4.02,3.06h-2.4c.15-2.94,1.98-5.16,6.42-5.16,2.91,0,5.52,1.14,5.52,4.83v7.44c0,1.2,.21,1.86,1.74,1.68v1.68c-.63,.21-.96,.24-1.41,.24-1.44,0-2.31-.39-2.73-2.07h-.06c-.96,1.44-2.67,2.34-5.19,2.34-3.09,0-5.04-1.77-5.04-4.35,0-3.48,2.58-4.38,6.54-5.13,2.58-.48,3.75-.81,3.75-2.34,0-1.2-.66-2.22-3.12-2.22Zm3.12,7.71v-2.55c-.45,.45-1.92,.87-3.54,1.2-2.97,.63-4.35,1.38-4.35,3.21,0,1.5,.9,2.37,2.88,2.37,2.85,0,5.01-1.29,5.01-4.23Z"/><path class="cls-6" d="M724.56,59.58c0,2.79-2.55,4.62-6.03,4.62-4.68,0-6.84-2.22-6.99-5.52h2.4c.15,1.71,.75,3.42,4.59,3.42,2.61,0,3.63-1.35,3.63-2.37,0-2.22-2.01-2.34-4.2-2.88-2.34-.57-5.82-.84-5.82-4.44,0-2.4,2.13-4.35,5.73-4.35,3.81,0,5.85,2.16,6.09,4.8h-2.4c-.24-1.17-.81-2.7-3.69-2.7-2.16,0-3.33,.87-3.33,2.07,0,1.8,2.07,1.95,4.2,2.46,2.73,.66,5.82,1.11,5.82,4.89Z"/><path class="cls-6" d="M746.88,59.07h2.4c-.78,2.85-2.97,5.13-6.78,5.13-4.65,0-7.47-3.27-7.47-8.07,0-5.1,2.88-8.07,7.35-8.07,4.8,0,7.14,3.27,7.14,8.7h-12.09c0,2.76,1.65,5.34,4.98,5.34,3.06,0,4.2-1.98,4.47-3.03Zm-9.45-4.41h9.69c0-2.46-1.86-4.5-4.74-4.5s-4.95,2.04-4.95,4.5Z"/><path class="cls-6" d="M766.02,53.1v10.68h-2.4v-10.08c0-1.98-.93-3.54-3.33-3.54-2.7,0-4.5,1.71-4.5,4.08v9.54h-2.4v-15.3h2.4v1.83h.06c.81-1.08,2.43-2.25,5.04-2.25,2.79,0,5.13,1.53,5.13,5.04Z"/><path class="cls-6" d="M789.21,59.07h2.4c-.78,2.85-2.97,5.13-6.78,5.13-4.65,0-7.47-3.27-7.47-8.07,0-5.1,2.88-8.07,7.35-8.07,4.8,0,7.14,3.27,7.14,8.7h-12.09c0,2.76,1.65,5.34,4.98,5.34,3.06,0,4.2-1.98,4.47-3.03Zm-9.45-4.41h9.69c0-2.46-1.86-4.5-4.74-4.5s-4.95,2.04-4.95,4.5Z"/><path class="cls-6" d="M798.21,42.33v21.45h-2.4v-21.45h2.4Z"/><path class="cls-6" d="M49.96,86.58v9.21c0,1.74,.96,2.04,3,1.89v2.1c-.54,.12-1.17,.18-1.8,.18-2.04,0-3.6-.81-3.6-3.93v-9.45h-2.25v-2.1h2.25v-5.1h2.4v5.1h3v2.1h-3Z"/><path class="cls-6" d="M56.98,80.07c0-.93,.84-1.44,1.5-1.44s1.5,.51,1.5,1.44-.81,1.44-1.5,1.44-1.5-.51-1.5-1.44Zm2.7,4.41v15.3h-2.4v-15.3h2.4Z"/><path class="cls-6" d="M75.76,95.07h2.4c-.78,2.85-2.97,5.13-6.78,5.13-4.65,0-7.47-3.27-7.47-8.07,0-5.1,2.88-8.07,7.35-8.07,4.8,0,7.14,3.27,7.14,8.7h-12.09c0,2.76,1.65,5.34,4.98,5.34,3.06,0,4.2-1.98,4.47-3.03Zm-9.45-4.41h9.69c0-2.46-1.86-4.5-4.74-4.5s-4.95,2.04-4.95,4.5Z"/><path class="cls-6" d="M102.85,89.1v10.68h-2.4v-10.08c0-1.98-.39-3.54-2.79-3.54s-3.9,1.71-3.9,4.08v9.54h-2.4v-10.08c0-1.98-.39-3.54-2.79-3.54s-3.9,1.71-3.9,4.08v9.54h-2.4v-15.3h2.4v1.83h.06c.81-1.08,2.13-2.25,4.44-2.25,2.19,0,3.45,.93,4.08,2.64h.06c1.05-1.44,2.64-2.64,4.95-2.64,3.09,0,4.59,1.83,4.59,5.04Z"/><path class="cls-6" d="M121.72,92.13c0,5.04-3.06,8.07-6.84,8.07-2.52,0-3.96-1.08-4.86-2.4h-.06v7.14h-2.4v-20.46h2.4v1.89h.06c.9-1.17,2.34-2.31,4.86-2.31,3.78,0,6.84,3.03,6.84,8.07Zm-2.4,0c0-3-1.59-5.97-4.74-5.97-2.85,0-4.62,2.37-4.62,5.97s1.77,5.97,4.62,5.97c3.15,0,4.74-2.97,4.74-5.97Z"/><path class="cls-6" d="M132.37,100.2c-4.68,0-7.5-3.3-7.5-8.07s2.82-8.07,7.5-8.07,7.47,3.3,7.47,8.07-2.82,8.07-7.47,8.07Zm0-2.1c3.42,0,5.07-2.7,5.07-5.97s-1.65-5.97-5.07-5.97-5.1,2.7-5.1,5.97,1.65,5.97,5.1,5.97Z"/><path class="cls-6" d="M158.11,77.13c-2.04,3.63-3.66,7.59-3.66,13.14s1.62,9.39,3.66,13.02h-2.1c-2.34-3.03-4.26-7.59-4.26-13.02s1.92-10.11,4.26-13.14h2.1Z"/><path class="cls-6" d="M174.52,89.1v10.68h-2.4v-10.08c0-1.98-.93-3.54-3.33-3.54-2.7,0-4.5,1.71-4.5,4.08v9.54h-2.4v-15.3h2.4v1.83h.06c.81-1.08,2.43-2.25,5.04-2.25,2.79,0,5.13,1.53,5.13,5.04Z"/><path class="cls-6" d="M185.86,100.2c-4.68,0-7.5-3.3-7.5-8.07s2.82-8.07,7.5-8.07,7.47,3.3,7.47,8.07-2.82,8.07-7.47,8.07Zm0-2.1c3.42,0,5.07-2.7,5.07-5.97s-1.65-5.97-5.07-5.97-5.1,2.7-5.1,5.97,1.65,5.97,5.1,5.97Z"/><path class="cls-6" d="M211.3,86.16c-3.63,0-5.01,3.09-5.01,5.97s1.38,5.97,5.01,5.97c3.09,0,4.2-2.13,4.32-3.96h2.4c-.21,3.48-2.94,6.06-6.72,6.06-4.47,0-7.41-3.27-7.41-8.07s2.94-8.07,7.41-8.07c3.78,0,6.36,2.52,6.72,5.94h-2.4c-.12-1.68-1.26-3.84-4.32-3.84Z"/><path class="cls-6" d="M234.37,84.48v15.3h-2.4v-1.83h-.06c-.81,1.08-2.43,2.25-5.04,2.25-2.79,0-5.13-1.53-5.13-5.04v-10.68h2.4v10.08c0,1.98,.93,3.54,3.33,3.54,2.7,0,4.5-1.71,4.5-4.08v-9.54h2.4Z"/><path class="cls-6" d="M259.75,89.1v10.68h-2.4v-10.08c0-1.98-.39-3.54-2.79-3.54s-3.9,1.71-3.9,4.08v9.54h-2.4v-10.08c0-1.98-.39-3.54-2.79-3.54s-3.9,1.71-3.9,4.08v9.54h-2.4v-15.3h2.4v1.83h.06c.81-1.08,2.13-2.25,4.44-2.25,2.19,0,3.45,.93,4.08,2.64h.06c1.05-1.44,2.64-2.64,4.95-2.64,3.09,0,4.59,1.83,4.59,5.04Z"/><path class="cls-6" d="M277,84.48v15.3h-2.4v-1.83h-.06c-.81,1.08-2.43,2.25-5.04,2.25-2.79,0-5.13-1.53-5.13-5.04v-10.68h2.4v10.08c0,1.98,.93,3.54,3.33,3.54,2.7,0,4.5-1.71,4.5-4.08v-9.54h2.4Z"/><path class="cls-6" d="M284.29,78.33v21.45h-2.4v-21.45h2.4Z"/><path class="cls-6" d="M295.42,86.16c-2.91,0-3.87,.84-4.02,3.06h-2.4c.15-2.94,1.98-5.16,6.42-5.16,2.91,0,5.52,1.14,5.52,4.83v7.44c0,1.2,.21,1.86,1.74,1.68v1.68c-.63,.21-.96,.24-1.41,.24-1.44,0-2.31-.39-2.73-2.07h-.06c-.96,1.44-2.67,2.34-5.19,2.34-3.09,0-5.04-1.77-5.04-4.35,0-3.48,2.58-4.38,6.54-5.13,2.58-.48,3.75-.81,3.75-2.34,0-1.2-.66-2.22-3.12-2.22Zm3.12,7.71v-2.55c-.45,.45-1.92,.87-3.54,1.2-2.97,.63-4.35,1.38-4.35,3.21,0,1.5,.9,2.37,2.88,2.37,2.85,0,5.01-1.29,5.01-4.23Z"/><path class="cls-6" d="M309.34,86.58v9.21c0,1.74,.96,2.04,3,1.89v2.1c-.54,.12-1.17,.18-1.8,.18-2.04,0-3.6-.81-3.6-3.93v-9.45h-2.25v-2.1h2.25v-5.1h2.4v5.1h3v2.1h-3Z"/><path class="cls-6" d="M316.36,80.07c0-.93,.84-1.44,1.5-1.44s1.5,.51,1.5,1.44-.81,1.44-1.5,1.44-1.5-.51-1.5-1.44Zm2.7,4.41v15.3h-2.4v-15.3h2.4Z"/><path class="cls-6" d="M325.18,84.48l4.23,12.9h.03l4.23-12.9h2.61l-5.49,15.3h-2.73l-5.49-15.3h2.61Z"/><path class="cls-6" d="M345.28,86.16c-2.91,0-3.87,.84-4.02,3.06h-2.4c.15-2.94,1.98-5.16,6.42-5.16,2.91,0,5.52,1.14,5.52,4.83v7.44c0,1.2,.21,1.86,1.74,1.68v1.68c-.63,.21-.96,.24-1.41,.24-1.44,0-2.31-.39-2.73-2.07h-.06c-.96,1.44-2.67,2.34-5.19,2.34-3.09,0-5.04-1.77-5.04-4.35,0-3.48,2.58-4.38,6.54-5.13,2.58-.48,3.75-.81,3.75-2.34,0-1.2-.66-2.22-3.12-2.22Zm3.12,7.71v-2.55c-.45,.45-1.92,.87-3.54,1.2-2.97,.63-4.35,1.38-4.35,3.21,0,1.5,.9,2.37,2.88,2.37,2.85,0,5.01-1.29,5.01-4.23Z"/><path class="cls-6" d="M361.21,90.27c0,5.43-1.92,9.99-4.26,13.02h-2.1c2.04-3.63,3.66-7.59,3.66-13.02s-1.62-9.51-3.66-13.14h2.1c2.34,3.03,4.26,7.53,4.26,13.14Z"/></g><g><path class="cls-6" d="M864.38,374.9c.87-.35,1.67-.94,2.33-1.6h.91v10.15h-.95v-9.12c-.67,.65-1.47,1.13-2.29,1.53v-.95Z"/><path class="cls-6" d="M877.18,378.37c0,2.58-.6,5.29-3.37,5.29s-3.37-2.71-3.37-5.29,.6-5.29,3.37-5.29,3.37,2.71,3.37,5.29Zm-5.72,0c0,1.51,.19,4.41,2.35,4.41s2.35-2.9,2.35-4.41-.19-4.41-2.35-4.41-2.35,2.9-2.35,4.41Z"/><path class="cls-6" d="M884.28,375.85c0,1.45-.85,2.77-2.33,2.77s-2.33-1.32-2.33-2.77,.85-2.77,2.33-2.77,2.33,1.32,2.33,2.77Zm-3.86,0c0,.95,.38,2.11,1.52,2.11s1.53-1.16,1.53-2.11-.38-2.11-1.53-2.11-1.52,1.16-1.52,2.11Zm7.89-2.77l-5.72,10.37h-.85l5.72-10.37h.85Zm2.51,7.82c0,1.45-.85,2.77-2.33,2.77s-2.33-1.32-2.33-2.77,.85-2.77,2.33-2.77,2.33,1.32,2.33,2.77Zm-3.86,0c0,.95,.38,2.11,1.52,2.11s1.53-1.16,1.53-2.11-.38-2.11-1.53-2.11-1.52,1.16-1.52,2.11Z"/></g><g><path class="cls-6" d="M864.39,483.42c.04,1.33,.95,1.83,2.2,1.83,2.32,0,2.57-3.25,2.57-4.79h-.03c-.5,.98-1.51,1.55-2.68,1.55-1.83,0-3.11-1.33-3.11-3.15,0-1.94,1.28-3.31,3.24-3.31,2.95,0,3.61,2.49,3.61,5.01,0,2.73-.62,5.57-3.86,5.57-1.8,0-2.83-1.1-2.96-2.71h1.03Zm-.03-4.49c0,1.33,.84,2.27,2.17,2.27,1.41,0,2.45-1,2.45-2.41s-1-2.38-2.39-2.38c-1.51,0-2.23,1.1-2.23,2.51Z"/><path class="cls-6" d="M878.28,480.84c0,2.58-.6,5.29-3.37,5.29s-3.37-2.71-3.37-5.29,.6-5.29,3.37-5.29,3.37,2.71,3.37,5.29Zm-5.72,0c0,1.51,.19,4.41,2.35,4.41s2.35-2.9,2.35-4.41-.19-4.41-2.35-4.41-2.35,2.9-2.35,4.41Z"/><path class="cls-6" d="M885.38,478.32c0,1.45-.85,2.77-2.33,2.77s-2.33-1.32-2.33-2.77,.85-2.77,2.33-2.77,2.33,1.32,2.33,2.77Zm-3.86,0c0,.95,.38,2.11,1.52,2.11s1.53-1.16,1.53-2.11-.38-2.11-1.53-2.11-1.52,1.16-1.52,2.11Zm7.89-2.77l-5.72,10.37h-.85l5.72-10.37h.85Zm2.51,7.82c0,1.45-.85,2.77-2.33,2.77s-2.33-1.32-2.33-2.77,.85-2.77,2.33-2.77,2.33,1.32,2.33,2.77Zm-3.86,0c0,.95,.38,2.11,1.52,2.11s1.53-1.16,1.53-2.11-.38-2.11-1.53-2.11-1.52,1.16-1.52,2.11Z"/></g><g><path class="cls-6" d="M1027.61,376.9h-1.12v-10.86c.02-.73-.06-1.48-.09-2.11h1.16l.06,1.38,.04,.04c.65-1.1,1.96-1.7,3.21-1.7,2.79,0,3.85,2.5,3.85,4.93s-1.07,5.01-3.79,5.01c-1.36,0-2.5-.62-3.27-1.74h-.04v5.05Zm3.2-4.34c2.15,0,2.69-2.37,2.69-4.11s-.73-3.78-2.86-3.78-3.03,1.81-3.03,3.72c0,2.13,.75,4.17,3.2,4.17Z"/><path class="cls-6" d="M1043.35,363.92h1.12v7.27c0,.73,.06,1.48,.09,2.11h-1.16l-.06-1.38-.04-.04c-.65,1.16-1.72,1.7-2.93,1.7-3.07,0-3.31-2.71-3.31-3.79v-5.87h1.12v6.06c0,1.63,.93,2.58,2.47,2.58,1.85,0,2.69-1.55,2.69-3.23v-5.4Zm-.36-3.83l-2.37,2.67h-.82l1.7-2.67h1.5Z"/><path class="cls-6" d="M1048.34,373.31h-1.16c.04-.64,.09-1.38,.09-2.11v-11.38h1.12v5.5l.04,.04c.65-1.1,1.96-1.7,3.21-1.7,2.79,0,3.85,2.5,3.85,4.93s-1.07,5.01-3.79,5.01c-1.36,0-2.5-.62-3.27-1.74l-.04,.08-.06,1.38Zm.06-4.88c0,2.13,.75,4.13,3.2,4.13,2.15,0,2.69-2.34,2.69-4.07s-.73-3.81-2.86-3.81-3.03,1.85-3.03,3.76Z"/><path class="cls-6" d="M1058.99,373.31h-1.12v-13.5h1.12v13.5Z"/><path class="cls-6" d="M1063.23,361.21h-1.31v-1.4h1.31v1.4Zm-.09,2.71v9.38h-1.12v-9.38h1.12Z"/><path class="cls-6" d="M1072.07,366.8c-.09-1.44-1.01-2.13-2.56-2.13-1.72,0-2.79,1.79-2.79,3.93s1.07,3.96,2.79,3.96c1.46,0,2.47-.9,2.56-2.19h1.21c-.3,2.15-1.53,3.21-3.66,3.21-2.8,0-4.11-2.41-4.11-4.97s1.4-4.97,4.19-4.97c1.92,0,3.5,1.16,3.59,3.16h-1.21Z"/><path class="cls-6" d="M1080.8,366.69c-.11-1.53-.9-2.02-2.22-2.02-1.18,0-2.15,.36-2.3,1.63h-1.2c.28-1.92,1.72-2.65,3.51-2.65,2.07,0,3.36,.95,3.33,3.1v4.45c-.02,.73,.06,1.48,.09,2.11h-1.16l-.04-1.38h-.04l-.06,.13c-.41,.78-1.66,1.53-2.93,1.53-1.74,0-3.12-1.07-3.12-2.9,0-1.27,.77-2.24,1.89-2.71,1.25-.54,2.88-.36,4.24-.43v-.86Zm-2.8,5.87c2.45,0,2.92-2.02,2.8-3.98-1.59,.06-4.92-.24-4.92,2.11,0,1.27,.97,1.87,2.11,1.87Z"/><path class="cls-6" d="M1087.95,363.64c1.78,0,3.27,.62,3.42,2.6h-1.21c-.11-1.18-1.16-1.57-2.32-1.57-1.05,0-2.11,.41-2.11,1.51,0,1.38,1.81,1.25,4.36,2.15,.97,.34,1.59,1.18,1.59,2.19,0,2.11-1.96,3.07-3.94,3.07-1.63,0-3.5-.77-3.53-2.84h1.22c.09,1.4,1.33,1.81,2.6,1.81,1.2,0,2.45-.56,2.45-1.87s-1.48-1.57-2.97-1.91c-1.48-.36-2.97-.79-2.97-2.52,0-1.94,1.79-2.62,3.44-2.62Z"/></g><g><path class="cls-6" d="M1027.61,399.37h-1.12v-10.86c.02-.73-.06-1.48-.09-2.11h1.16l.06,1.38,.04,.04c.65-1.1,1.96-1.7,3.21-1.7,2.79,0,3.85,2.5,3.85,4.93s-1.07,5.01-3.79,5.01c-1.36,0-2.5-.62-3.27-1.74h-.04v5.05Zm3.2-4.34c2.15,0,2.69-2.37,2.69-4.11s-.73-3.78-2.86-3.78-3.03,1.81-3.03,3.72c0,2.13,.75,4.17,3.2,4.17Z"/><path class="cls-6" d="M1038.19,395.78h-1.12v-7.27c.02-.73-.06-1.48-.09-2.11h1.16l.06,1.38h.04c.34-.95,1.18-1.63,2.11-1.66,.37-.02,.75,0,1.12,.02v1.08c-.22-.02-.47-.08-.69-.08-1.66,0-2.54,1.2-2.58,2.99v5.64Z"/><path class="cls-6" d="M1044.53,383.69h-1.31v-1.4h1.31v1.4Zm-.09,2.71v9.38h-1.12v-9.38h1.12Z"/><path class="cls-6" d="M1047.44,386.4l3.23,7.83,3.12-7.83h1.23l-3.72,9.38h-1.27l-3.83-9.38h1.23Z"/><path class="cls-6" d="M1061.72,389.17c-.11-1.53-.9-2.02-2.22-2.02-1.18,0-2.15,.36-2.3,1.63h-1.2c.28-1.92,1.72-2.65,3.51-2.65,2.07,0,3.36,.95,3.33,3.1v4.45c-.02,.73,.06,1.48,.09,2.11h-1.16l-.04-1.38h-.04l-.06,.13c-.41,.78-1.66,1.53-2.93,1.53-1.74,0-3.12-1.07-3.12-2.9,0-1.27,.77-2.24,1.89-2.71,1.25-.54,2.88-.36,4.24-.43v-.86Zm-2.8,5.87c2.45,0,2.92-2.02,2.8-3.98-1.59,.06-4.92-.24-4.92,2.11,0,1.27,.97,1.87,2.11,1.87Z"/><path class="cls-6" d="M1072.22,394.4l-.04-.08c-.77,1.12-1.91,1.74-3.22,1.74-2.79,0-3.85-2.65-3.85-5.01s1.07-4.93,3.85-4.93c1.25,0,2.56,.6,3.22,1.7l.04-.04v-5.5h1.12v11.38c0,.73,.06,1.48,.09,2.11h-1.16l-.06-1.38Zm-3.07-7.25c-2.13,0-2.82,1.98-2.82,3.78s.5,4.11,2.65,4.11c2.45,0,3.2-2.04,3.2-4.17,0-1.91-.84-3.72-3.03-3.72Z"/><path class="cls-6" d="M1081.45,389.17c-.11-1.53-.9-2.02-2.22-2.02-1.18,0-2.15,.36-2.3,1.63h-1.2c.28-1.92,1.72-2.65,3.51-2.65,2.07,0,3.36,.95,3.33,3.1v4.45c-.02,.73,.06,1.48,.09,2.11h-1.16l-.04-1.38h-.04l-.06,.13c-.41,.78-1.66,1.53-2.93,1.53-1.74,0-3.12-1.07-3.12-2.9,0-1.27,.77-2.24,1.89-2.71,1.25-.54,2.88-.36,4.24-.43v-.86Zm-2.8,5.87c2.45,0,2.92-2.02,2.8-3.98-1.59,.06-4.92-.24-4.92,2.11,0,1.27,.97,1.87,2.11,1.87Z"/><path class="cls-6" d="M1088.61,386.12c1.78,0,3.27,.62,3.42,2.6h-1.21c-.11-1.18-1.16-1.57-2.32-1.57-1.05,0-2.11,.41-2.11,1.51,0,1.38,1.81,1.25,4.36,2.15,.97,.34,1.59,1.18,1.59,2.19,0,2.11-1.96,3.07-3.94,3.07-1.63,0-3.5-.77-3.53-2.84h1.22c.09,1.4,1.33,1.81,2.6,1.81,1.2,0,2.45-.56,2.45-1.87s-1.48-1.57-2.97-1.91c-1.48-.36-2.97-.79-2.97-2.52,0-1.94,1.79-2.62,3.44-2.62Z"/></g><path class="cls-45" d="M903.82,562.59v-174.53h51.78v174.53h-51.78Z"/><path class="cls-32" d="M903.82,388.06v-19.68h51.78v19.68h-51.78Z"/><g><line class="cls-4" x1="955.6" y1="388.06" x2="961.6" y2="388.06"/><line class="cls-3" x1="974.3" y1="388.06" x2="993.34" y2="388.06"/><line class="cls-4" x1="999.69" y1="388.06" x2="1005.69" y2="388.06"/></g><g><line class="cls-4" x1="955.6" y1="368.38" x2="961.6" y2="368.38"/><line class="cls-3" x1="974.3" y1="368.38" x2="993.34" y2="368.38"/><line class="cls-4" x1="999.69" y1="368.38" x2="1005.69" y2="368.38"/></g><g><path class="cls-6" d="M858.03,189.92h4.39c2.04,0,4.43,0,6.11,1.97,1.34,1.57,1.87,3.65,1.87,5.73,0,3.28-1.36,5.29-2.52,6.21-1.49,1.24-3.36,1.24-5.58,1.24h-4.26v-15.16Zm2.1,13.44h2.06c1.45,0,2.96-.08,3.97-.84,1.93-1.45,1.99-3.93,1.99-4.81,0-.57-.04-3.15-1.47-4.72-.97-1.07-2.18-1.32-4.03-1.32h-2.52v11.69Z"/><path class="cls-6" d="M874.39,200.17c-.04,2.18,.86,3.8,3.02,3.8,1.28,0,2.31-.67,2.48-2.18h1.97c-.06,.52-.15,1.39-.9,2.2-.46,.52-1.51,1.41-3.63,1.41-3.32,0-4.89-2.06-4.89-5.4,0-2.08,.42-3.8,2.08-4.96,1.01-.71,2.27-.78,2.88-.78,4.72,0,4.62,4.18,4.58,5.9h-7.58Zm5.56-1.39c.02-1.01-.17-3.11-2.6-3.11-1.28,0-2.83,.78-2.88,3.11h5.48Z"/><path class="cls-6" d="M890.75,189.94h1.97v15.14h-1.97v-15.14Z"/><path class="cls-6" d="M902.97,205.08c-.15-.52-.19-1.03-.19-1.57-.94,1.74-2.37,1.91-3.25,1.91-2.41,0-3.72-1.36-3.72-3.11,0-.84,.29-2.18,1.85-3.09,1.13-.63,2.81-.69,3.65-.69,.5,0,.82,.02,1.43,.06,0-1.3,0-1.87-.38-2.33-.4-.52-1.26-.69-1.83-.69-1.99,0-2.1,1.36-2.12,1.78h-1.97c.06-.55,.12-1.28,.73-1.99,.8-.88,2.29-1.13,3.4-1.13,1.53,0,3.17,.48,3.74,1.55,.34,.63,.36,1.13,.36,1.62l-.08,5.04c0,.17,.02,1.57,.17,2.65h-1.79Zm-1.37-5.19c-.8,0-3.8,0-3.8,2.14,0,.67,.42,1.83,2.18,1.83,1.01,0,1.76-.4,2.25-1.13,.44-.71,.46-1.3,.5-2.77-.36-.04-.65-.06-1.13-.06Z"/><path class="cls-6" d="M909.36,201.95c-.02,.8,.4,1.91,2.31,1.91,.82,0,1.43-.15,1.85-.67,.21-.27,.34-.63,.34-.99,0-1.03-.74-1.22-2.31-1.57-2.21-.5-4.05-.94-4.05-3.15,0-1.93,1.68-3.19,4.12-3.19,1.32,0,3.17,.38,3.8,1.64,.27,.59,.27,1.09,.27,1.53h-2.02c.06-1.6-1.32-1.72-2.04-1.72-.29,0-2.14,0-2.14,1.51,0,.97,.94,1.2,1.49,1.34,2.92,.69,3.55,.86,4.18,1.45,.59,.55,.8,1.28,.8,1.95,0,1.18-.65,2.18-1.43,2.67-.92,.57-2.04,.71-3.13,.71-2.14,0-4.14-.88-4.12-3.42h2.08Z"/><path class="cls-6" d="M930.57,197.92c-.04-.48-.19-2.2-2.1-2.2-2.73,0-2.73,3.17-2.73,3.97,0,2.16,.52,4.18,2.62,4.18,1.68,0,2.25-1.26,2.29-2.29h1.99c-.12,2.06-1.66,3.78-4.26,3.78-.71,0-2.35-.15-3.46-1.36-.63-.73-1.26-1.85-1.26-4.03,0-4.39,2.69-5.69,4.79-5.69,.69,0,2.27,.15,3.23,1.3,.78,.9,.84,1.76,.88,2.35h-1.99Z"/><path class="cls-6" d="M939.64,194.27c4.22,0,5.17,3.32,5.17,5.52,0,3.09-1.74,5.65-5.33,5.65s-5.19-2.41-5.19-5.5c0-2.6,1.22-5.67,5.35-5.67Zm-.13,9.7c1.49,0,3.19-1.07,3.19-4.24,0-2.62-1.22-4.01-3.07-4.01-1.26,0-3.3,.8-3.3,4.09,0,2.16,.92,4.16,3.17,4.16Z"/><path class="cls-6" d="M947.93,189.94h1.97v15.14h-1.97v-15.14Z"/><path class="cls-6" d="M954.93,200.17c-.04,2.18,.86,3.8,3.02,3.8,1.28,0,2.31-.67,2.48-2.18h1.97c-.06,.52-.15,1.39-.9,2.2-.46,.52-1.51,1.41-3.63,1.41-3.32,0-4.89-2.06-4.89-5.4,0-2.08,.42-3.8,2.08-4.96,1.01-.71,2.27-.78,2.88-.78,4.72,0,4.62,4.18,4.58,5.9h-7.58Zm5.56-1.39c.02-1.01-.17-3.11-2.6-3.11-1.28,0-2.83,.78-2.88,3.11h5.48Z"/><path class="cls-6" d="M971.41,197.92c-.04-.48-.19-2.2-2.1-2.2-2.73,0-2.73,3.17-2.73,3.97,0,2.16,.53,4.18,2.62,4.18,1.68,0,2.25-1.26,2.29-2.29h2c-.13,2.06-1.66,3.78-4.26,3.78-.71,0-2.35-.15-3.46-1.36-.63-.73-1.26-1.85-1.26-4.03,0-4.39,2.69-5.69,4.79-5.69,.69,0,2.27,.15,3.23,1.3,.78,.9,.84,1.76,.88,2.35h-2Z"/><path class="cls-6" d="M981.91,197.92c-.04-.48-.19-2.2-2.1-2.2-2.73,0-2.73,3.17-2.73,3.97,0,2.16,.53,4.18,2.62,4.18,1.68,0,2.25-1.26,2.29-2.29h2c-.13,2.06-1.66,3.78-4.26,3.78-.71,0-2.35-.15-3.46-1.36-.63-.73-1.26-1.85-1.26-4.03,0-4.39,2.69-5.69,4.79-5.69,.69,0,2.27,.15,3.23,1.3,.78,.9,.84,1.76,.88,2.35h-2Z"/><path class="cls-6" d="M986.22,189.96h2.37v2.16h-2.37v-2.16Zm.21,4.58h1.97v10.54h-1.97v-10.54Z"/><path class="cls-6" d="M996.82,194.27c4.22,0,5.17,3.32,5.17,5.52,0,3.09-1.74,5.65-5.33,5.65s-5.19-2.41-5.19-5.5c0-2.6,1.22-5.67,5.35-5.67Zm-.13,9.7c1.49,0,3.19-1.07,3.19-4.24,0-2.62-1.22-4.01-3.07-4.01-1.26,0-3.3,.8-3.3,4.09,0,2.16,.92,4.16,3.17,4.16Z"/><path class="cls-6" d="M1005.14,195.76l-.02-1.22h1.97l.02,1.7c.23-.44,.99-1.91,3.38-1.91,.95,0,3.82,.36,3.82,3.59v7.16h-2.02v-6.7c0-.69-.08-1.32-.57-1.81-.5-.48-1.2-.71-1.87-.71-1.43,0-2.75,1.03-2.75,3.15v6.07h-1.97v-9.32Z"/><path class="cls-6" d="M1019.1,200.17c-.04,2.18,.86,3.8,3.02,3.8,1.28,0,2.31-.67,2.48-2.18h1.97c-.06,.52-.15,1.39-.9,2.2-.46,.52-1.51,1.41-3.63,1.41-3.32,0-4.89-2.06-4.89-5.4,0-2.08,.42-3.8,2.08-4.96,1.01-.71,2.27-.78,2.88-.78,4.72,0,4.62,4.18,4.58,5.9h-7.58Zm5.56-1.39c.02-1.01-.17-3.11-2.6-3.11-1.28,0-2.83,.78-2.88,3.11h5.48Z"/><path class="cls-6" d="M1030.71,201.95c-.02,.8,.4,1.91,2.31,1.91,.82,0,1.43-.15,1.85-.67,.21-.27,.34-.63,.34-.99,0-1.03-.73-1.22-2.31-1.57-2.2-.5-4.05-.94-4.05-3.15,0-1.93,1.68-3.19,4.12-3.19,1.32,0,3.17,.38,3.8,1.64,.27,.59,.27,1.09,.27,1.53h-2.02c.06-1.6-1.32-1.72-2.04-1.72-.29,0-2.14,0-2.14,1.51,0,.97,.95,1.2,1.49,1.34,2.92,.69,3.55,.86,4.18,1.45,.59,.55,.8,1.28,.8,1.95,0,1.18-.65,2.18-1.43,2.67-.92,.57-2.04,.71-3.13,.71-2.14,0-4.14-.88-4.12-3.42h2.08Z"/><path class="cls-6" d="M1051.92,197.92c-.04-.48-.19-2.2-2.1-2.2-2.73,0-2.73,3.17-2.73,3.97,0,2.16,.53,4.18,2.62,4.18,1.68,0,2.25-1.26,2.29-2.29h2c-.13,2.06-1.66,3.78-4.26,3.78-.71,0-2.35-.15-3.46-1.36-.63-.73-1.26-1.85-1.26-4.03,0-4.39,2.69-5.69,4.79-5.69,.69,0,2.27,.15,3.23,1.3,.78,.9,.84,1.76,.88,2.35h-2Z"/><path class="cls-6" d="M1061,194.27c4.22,0,5.17,3.32,5.17,5.52,0,3.09-1.74,5.65-5.33,5.65s-5.19-2.41-5.19-5.5c0-2.6,1.22-5.67,5.35-5.67Zm-.13,9.7c1.49,0,3.19-1.07,3.19-4.24,0-2.62-1.22-4.01-3.07-4.01-1.26,0-3.3,.8-3.3,4.09,0,2.16,.92,4.16,3.17,4.16Z"/><path class="cls-6" d="M1069.31,195.76l-.02-1.22h1.97l.02,1.7c.23-.44,.99-1.91,3.38-1.91,.95,0,3.82,.36,3.82,3.59v7.16h-2.02v-6.7c0-.69-.08-1.32-.57-1.81-.5-.48-1.2-.71-1.87-.71-1.43,0-2.75,1.03-2.75,3.15v6.07h-1.97v-9.32Z"/><path class="cls-6" d="M1087.98,195.76l-.02-1.22h1.97l.02,1.7c.23-.44,.99-1.91,3.38-1.91,.94,0,3.82,.36,3.82,3.59v7.16h-2.02v-6.7c0-.69-.08-1.32-.57-1.81-.5-.48-1.2-.71-1.87-.71-1.43,0-2.75,1.03-2.75,3.15v6.07h-1.97v-9.32Z"/><path class="cls-6" d="M1105.33,194.27c4.22,0,5.17,3.32,5.17,5.52,0,3.09-1.74,5.65-5.33,5.65s-5.19-2.41-5.19-5.5c0-2.6,1.22-5.67,5.35-5.67Zm-.13,9.7c1.49,0,3.19-1.07,3.19-4.24,0-2.62-1.22-4.01-3.07-4.01-1.26,0-3.3,.8-3.3,4.09,0,2.16,.92,4.16,3.17,4.16Z"/><path class="cls-6" d="M1113.56,195.95l-.04-1.41h1.99v1.53c1.01-1.66,2.44-1.81,3.34-1.81,2.33,0,3.07,1.2,3.44,1.97,.36-.59,1.22-1.97,3.55-1.97,1.51,0,3.86,.63,3.86,3.74v7.08h-1.99v-6.76c0-.92-.17-1.32-.36-1.6-.34-.48-1.01-.92-2.02-.92-1.28,0-1.97,.73-2.25,1.11-.46,.65-.46,1.81-.46,2.27v5.9h-1.99v-6.97c0-1.3-.76-2.31-2.31-2.31-1.34,0-2.08,.84-2.31,1.15-.44,.61-.46,1.47-.46,2.14v5.98h-2v-9.13Z"/><path class="cls-6" d="M1135.38,196.07c.27-.48,1.05-1.81,3.44-1.81,1.05,0,2.37,.25,3.34,1.34,.53,.61,1.24,1.66,1.24,3.97,0,2.04-.48,3.15-1.01,3.84-.84,1.2-2.25,1.81-3.7,1.81-.5,0-1.45-.06-2.35-.67-.59-.4-.82-.76-1.03-1.07l-.04,1.6h-1.91l.04-1.89v-13.27h1.97v6.15Zm2.98-.46c-3.02,0-3.02,3.53-3.02,4.2s0,3.99,2.94,3.99c2.44,0,3.04-2.37,3.04-4.09,0-1.05-.21-4.09-2.96-4.09Z"/><path class="cls-6" d="M1146.34,196.68c0-.71-.04-1.45-.11-2.14h1.99l.04,2.04c.38-1.47,1.64-1.95,2.52-2.08,.59-.08,1.03-.06,1.36-.04v1.93c-.1-.04-.23-.06-.38-.08s-.34-.02-.57-.02c-2.33,0-2.88,1.39-2.88,3.19v5.61h-1.99v-8.4Z"/><path class="cls-6" d="M1155.6,200.17c-.04,2.18,.86,3.8,3.02,3.8,1.28,0,2.31-.67,2.48-2.18h1.97c-.06,.52-.15,1.39-.9,2.2-.46,.52-1.51,1.41-3.63,1.41-3.32,0-4.89-2.06-4.89-5.4,0-2.08,.42-3.8,2.08-4.96,1.01-.71,2.27-.78,2.88-.78,4.72,0,4.62,4.18,4.58,5.9h-7.58Zm5.56-1.39c.02-1.01-.17-3.11-2.6-3.11-1.28,0-2.83,.78-2.88,3.11h5.48Z"/><path class="cls-6" d="M858.14,221.88c0-.71-.04-1.45-.1-2.14h2l.04,2.04c.38-1.47,1.64-1.95,2.52-2.08,.59-.08,1.03-.06,1.37-.04v1.93c-.11-.04-.23-.06-.38-.08s-.34-.02-.57-.02c-2.33,0-2.88,1.39-2.88,3.19v5.61h-2v-8.4Z"/><path class="cls-6" d="M867.4,225.37c-.04,2.18,.86,3.8,3.02,3.8,1.28,0,2.31-.67,2.48-2.18h1.97c-.06,.52-.15,1.39-.9,2.2-.46,.52-1.51,1.41-3.63,1.41-3.32,0-4.89-2.06-4.89-5.4,0-2.08,.42-3.8,2.08-4.96,1.01-.71,2.27-.78,2.88-.78,4.72,0,4.62,4.18,4.58,5.9h-7.58Zm5.56-1.39c.02-1.01-.17-3.11-2.6-3.11-1.28,0-2.83,.78-2.88,3.11h5.48Z"/><path class="cls-6" d="M877.92,215.14h1.97v15.14h-1.97v-15.14Z"/><path class="cls-6" d="M890.14,230.28c-.15-.52-.19-1.03-.19-1.57-.95,1.74-2.37,1.91-3.25,1.91-2.42,0-3.72-1.36-3.72-3.11,0-.84,.29-2.18,1.85-3.09,1.13-.63,2.81-.69,3.65-.69,.5,0,.82,.02,1.43,.06,0-1.3,0-1.87-.38-2.33-.4-.52-1.26-.69-1.83-.69-2,0-2.1,1.36-2.12,1.78h-1.97c.06-.55,.13-1.28,.74-1.99,.8-.88,2.29-1.13,3.4-1.13,1.53,0,3.17,.48,3.74,1.55,.34,.63,.36,1.13,.36,1.62l-.08,5.04c0,.17,.02,1.57,.17,2.65h-1.78Zm-1.36-5.19c-.8,0-3.8,0-3.8,2.14,0,.67,.42,1.83,2.18,1.83,1.01,0,1.76-.4,2.25-1.13,.44-.71,.46-1.3,.5-2.77-.36-.04-.65-.06-1.13-.06Z"/><path class="cls-6" d="M901.4,223.12c-.04-.48-.19-2.2-2.1-2.2-2.73,0-2.73,3.17-2.73,3.97,0,2.16,.53,4.18,2.62,4.18,1.68,0,2.25-1.26,2.29-2.29h2c-.13,2.06-1.66,3.78-4.26,3.78-.71,0-2.35-.15-3.46-1.36-.63-.73-1.26-1.85-1.26-4.03,0-4.39,2.69-5.69,4.79-5.69,.69,0,2.27,.15,3.23,1.3,.78,.9,.84,1.76,.88,2.35h-2Z"/><path class="cls-6" d="M905.7,215.16h2.37v2.16h-2.37v-2.16Zm.21,4.58h1.97v10.54h-1.97v-10.54Z"/><path class="cls-6" d="M916.31,219.47c4.22,0,5.17,3.32,5.17,5.52,0,3.09-1.74,5.65-5.33,5.65s-5.19-2.41-5.19-5.5c0-2.6,1.22-5.67,5.35-5.67Zm-.13,9.7c1.49,0,3.19-1.07,3.19-4.24,0-2.62-1.22-4.01-3.07-4.01-1.26,0-3.3,.8-3.3,4.09,0,2.16,.92,4.16,3.17,4.16Z"/><path class="cls-6" d="M924.62,220.96l-.02-1.22h1.97l.02,1.7c.23-.44,.99-1.91,3.38-1.91,.95,0,3.82,.36,3.82,3.59v7.16h-2.02v-6.7c0-.69-.08-1.32-.57-1.81-.5-.48-1.2-.71-1.87-.71-1.43,0-2.75,1.03-2.75,3.15v6.07h-1.97v-9.32Z"/><path class="cls-6" d="M943.82,230.28c-.15-.52-.19-1.03-.19-1.57-.95,1.74-2.37,1.91-3.25,1.91-2.42,0-3.72-1.36-3.72-3.11,0-.84,.29-2.18,1.85-3.09,1.13-.63,2.81-.69,3.65-.69,.5,0,.82,.02,1.43,.06,0-1.3,0-1.87-.38-2.33-.4-.52-1.26-.69-1.83-.69-2,0-2.1,1.36-2.12,1.78h-1.97c.06-.55,.13-1.28,.74-1.99,.8-.88,2.29-1.13,3.4-1.13,1.53,0,3.17,.48,3.74,1.55,.34,.63,.36,1.13,.36,1.62l-.08,5.04c0,.17,.02,1.57,.17,2.65h-1.78Zm-1.36-5.19c-.8,0-3.8,0-3.8,2.14,0,.67,.42,1.83,2.18,1.83,1.01,0,1.76-.4,2.25-1.13,.44-.71,.46-1.3,.5-2.77-.36-.04-.65-.06-1.13-.06Z"/><path class="cls-6" d="M956.37,215.14h1.97v13.46c0,.23,.04,1.13,.08,1.68h-1.97l-.04-1.68c-.17,.29-.4,.73-.94,1.11-.86,.59-1.89,.78-2.6,.78-1.41,0-4.54-.73-4.54-5.35,0-4.01,2.29-5.75,4.77-5.75,2.27,0,3.02,1.34,3.28,1.78v-6.03Zm-.73,6.78c-.42-.55-1.2-1.07-2.31-1.07-2.9,0-2.9,3.51-2.9,4.22,0,1.87,.48,4.03,2.9,4.03,3.11,0,3.11-3.42,3.11-4.24,0-1.53-.36-2.37-.8-2.94Z"/><path class="cls-6" d="M966.48,219.47c4.22,0,5.17,3.32,5.17,5.52,0,3.09-1.74,5.65-5.33,5.65s-5.19-2.41-5.19-5.5c0-2.6,1.22-5.67,5.35-5.67Zm-.13,9.7c1.49,0,3.19-1.07,3.19-4.24,0-2.62-1.22-4.01-3.07-4.01-1.26,0-3.3,.8-3.3,4.09,0,2.16,.92,4.16,3.17,4.16Z"/><path class="cls-6" d="M986.99,230.28c-.15-.52-.19-1.03-.19-1.57-.95,1.74-2.37,1.91-3.25,1.91-2.42,0-3.72-1.36-3.72-3.11,0-.84,.29-2.18,1.85-3.09,1.13-.63,2.81-.69,3.65-.69,.5,0,.82,.02,1.43,.06,0-1.3,0-1.87-.38-2.33-.4-.52-1.26-.69-1.83-.69-2,0-2.1,1.36-2.12,1.78h-1.97c.06-.55,.13-1.28,.74-1.99,.8-.88,2.29-1.13,3.4-1.13,1.53,0,3.17,.48,3.74,1.55,.34,.63,.36,1.13,.36,1.62l-.08,5.04c0,.17,.02,1.57,.17,2.65h-1.78Zm-1.36-5.19c-.8,0-3.8,0-3.8,2.14,0,.67,.42,1.83,2.18,1.83,1.01,0,1.76-.4,2.25-1.13,.44-.71,.46-1.3,.5-2.77-.36-.04-.65-.06-1.13-.06Z"/><path class="cls-6" d="M992.29,215.14h1.97v15.14h-1.97v-15.14Z"/><path class="cls-6" d="M1011.23,215.14h1.97v13.46c0,.23,.04,1.13,.08,1.68h-1.97l-.04-1.68c-.17,.29-.4,.73-.94,1.11-.86,.59-1.89,.78-2.6,.78-1.41,0-4.54-.73-4.54-5.35,0-4.01,2.29-5.75,4.77-5.75,2.27,0,3.02,1.34,3.28,1.78v-6.03Zm-.73,6.78c-.42-.55-1.2-1.07-2.31-1.07-2.9,0-2.9,3.51-2.9,4.22,0,1.87,.48,4.03,2.9,4.03,3.11,0,3.11-3.42,3.11-4.24,0-1.53-.36-2.37-.8-2.94Z"/><path class="cls-6" d="M1016.56,215.16h2.37v2.16h-2.37v-2.16Zm.21,4.58h1.97v10.54h-1.97v-10.54Z"/><path class="cls-6" d="M1022.69,221.88c0-.71-.04-1.45-.1-2.14h2l.04,2.04c.38-1.47,1.64-1.95,2.52-2.08,.59-.08,1.03-.06,1.37-.04v1.93c-.11-.04-.23-.06-.38-.08s-.34-.02-.57-.02c-2.33,0-2.88,1.39-2.88,3.19v5.61h-2v-8.4Z"/><path class="cls-6" d="M1030.57,215.16h2.37v2.16h-2.37v-2.16Zm.21,4.58h1.97v10.54h-1.97v-10.54Z"/><path class="cls-6" d="M1038.48,231.1c.08,1.18,.59,2.06,2.46,2.06,2.75,0,2.79-1.99,2.79-4.85-.84,1.74-2.83,1.78-3.46,1.78-.96,0-2.35-.21-3.23-1.3-.9-1.07-1.2-2.48-1.2-3.88,0-3.57,2.1-5.31,4.68-5.31,2.12,0,2.9,1.05,3.32,1.6l.02-1.45h1.91l-.04,1.91-.02,6.59c0,2.54-.08,3.57-.5,4.37-.88,1.68-2.94,1.89-4.39,1.89-4.22,0-4.35-1.97-4.43-3.4h2.1Zm4.6-3.53c.42-.55,.71-1.11,.71-3.02,0-1.32-.29-2.08-.82-2.62-.53-.57-1.37-.92-2.27-.92-2.5,0-2.83,2.52-2.83,3.86,0,1.62,.48,3.76,2.9,3.76,1.16,0,1.83-.42,2.31-1.05Z"/><path class="cls-6" d="M1050.62,225.37c-.04,2.18,.86,3.8,3.02,3.8,1.28,0,2.31-.67,2.48-2.18h1.97c-.06,.52-.15,1.39-.9,2.2-.46,.52-1.51,1.41-3.63,1.41-3.32,0-4.89-2.06-4.89-5.4,0-2.08,.42-3.8,2.08-4.96,1.01-.71,2.27-.78,2.88-.78,4.72,0,4.62,4.18,4.58,5.9h-7.58Zm5.56-1.39c.02-1.01-.17-3.11-2.6-3.11-1.28,0-2.83,.78-2.88,3.11h5.48Z"/><path class="cls-6" d="M1061.16,220.96l-.02-1.22h1.97l.02,1.7c.23-.44,.99-1.91,3.38-1.91,.95,0,3.82,.36,3.82,3.59v7.16h-2.02v-6.7c0-.69-.08-1.32-.57-1.81-.5-.48-1.2-.71-1.87-.71-1.43,0-2.75,1.03-2.75,3.15v6.07h-1.97v-9.32Z"/><path class="cls-6" d="M1072.32,219.7h1.87v-2.2l1.95-.63v2.83h2.35v1.45h-2.35v6.32c0,.52,0,1.41,1.41,1.41,.4,0,.78-.06,.95-.1v1.53c-.36,.06-.92,.13-1.64,.13-1.8,0-2.67-.52-2.67-2.25v-7.03h-1.87v-1.45Z"/><path class="cls-6" d="M1082.12,225.37c-.04,2.18,.86,3.8,3.02,3.8,1.28,0,2.31-.67,2.48-2.18h1.97c-.06,.52-.15,1.39-.9,2.2-.46,.52-1.51,1.41-3.63,1.41-3.32,0-4.89-2.06-4.89-5.4,0-2.08,.42-3.8,2.08-4.96,1.01-.71,2.27-.78,2.88-.78,4.72,0,4.62,4.18,4.58,5.9h-7.58Zm5.56-1.39c.02-1.01-.17-3.11-2.6-3.11-1.28,0-2.83,.78-2.88,3.11h5.48Z"/><path class="cls-6" d="M1095.56,227.76l-2.35,5.17h-1.43l1.34-5.17h2.44Z"/><path class="cls-6" d="M1104.38,221.88c0-.71-.04-1.45-.1-2.14h2l.04,2.04c.38-1.47,1.64-1.95,2.52-2.08,.59-.08,1.03-.06,1.37-.04v1.93c-.11-.04-.23-.06-.38-.08s-.34-.02-.57-.02c-2.33,0-2.88,1.39-2.88,3.19v5.61h-2v-8.4Z"/><path class="cls-6" d="M1118.87,230.28c-.15-.52-.19-1.03-.19-1.57-.95,1.74-2.37,1.91-3.25,1.91-2.42,0-3.72-1.36-3.72-3.11,0-.84,.29-2.18,1.85-3.09,1.13-.63,2.81-.69,3.65-.69,.5,0,.82,.02,1.43,.06,0-1.3,0-1.87-.38-2.33-.4-.52-1.26-.69-1.83-.69-2,0-2.1,1.36-2.12,1.78h-1.97c.06-.55,.13-1.28,.74-1.99,.8-.88,2.29-1.13,3.4-1.13,1.53,0,3.17,.48,3.74,1.55,.34,.63,.36,1.13,.36,1.62l-.08,5.04c0,.17,.02,1.57,.17,2.65h-1.78Zm-1.36-5.19c-.8,0-3.8,0-3.8,2.14,0,.67,.42,1.83,2.18,1.83,1.01,0,1.76-.4,2.25-1.13,.44-.71,.46-1.3,.5-2.77-.36-.04-.65-.06-1.13-.06Z"/><path class="cls-6" d="M1122.5,219.7h1.87v-2.2l1.95-.63v2.83h2.35v1.45h-2.35v6.32c0,.52,0,1.41,1.41,1.41,.4,0,.78-.06,.95-.1v1.53c-.36,.06-.92,.13-1.64,.13-1.8,0-2.67-.52-2.67-2.25v-7.03h-1.87v-1.45Z"/><path class="cls-6" d="M1130.93,215.16h2.37v2.16h-2.37v-2.16Zm.21,4.58h1.97v10.54h-1.97v-10.54Z"/><path class="cls-6" d="M1141.53,219.47c4.22,0,5.17,3.32,5.17,5.52,0,3.09-1.74,5.65-5.33,5.65s-5.19-2.41-5.19-5.5c0-2.6,1.22-5.67,5.35-5.67Zm-.13,9.7c1.49,0,3.19-1.07,3.19-4.24,0-2.62-1.22-4.01-3.07-4.01-1.26,0-3.3,.8-3.3,4.09,0,2.16,.92,4.16,3.17,4.16Z"/><path class="cls-6" d="M859.23,250.57c-.04,2.18,.86,3.8,3.02,3.8,1.28,0,2.31-.67,2.48-2.18h1.97c-.06,.52-.15,1.39-.9,2.2-.46,.52-1.51,1.41-3.63,1.41-3.32,0-4.89-2.06-4.89-5.4,0-2.08,.42-3.8,2.08-4.96,1.01-.71,2.27-.78,2.88-.78,4.72,0,4.62,4.18,4.58,5.9h-7.58Zm5.56-1.39c.02-1.01-.17-3.11-2.6-3.11-1.28,0-2.83,.78-2.88,3.11h5.48Z"/><path class="cls-6" d="M869.77,246.16l-.02-1.22h1.97l.02,1.7c.23-.44,.99-1.91,3.38-1.91,.95,0,3.82,.36,3.82,3.59v7.16h-2.02v-6.7c0-.69-.08-1.32-.57-1.81-.5-.48-1.2-.71-1.87-.71-1.43,0-2.75,1.03-2.75,3.15v6.07h-1.97v-9.32Z"/><path class="cls-6" d="M880.92,244.9h1.87v-2.2l1.95-.63v2.83h2.35v1.45h-2.35v6.32c0,.52,0,1.41,1.41,1.41,.4,0,.78-.06,.95-.1v1.53c-.36,.06-.92,.13-1.64,.13-1.8,0-2.67-.52-2.67-2.25v-7.03h-1.87v-1.45Z"/><path class="cls-6" d="M889.64,247.08c0-.71-.04-1.45-.1-2.14h2l.04,2.04c.38-1.47,1.64-1.95,2.52-2.08,.59-.08,1.03-.06,1.37-.04v1.93c-.11-.04-.23-.06-.38-.08s-.34-.02-.57-.02c-2.33,0-2.88,1.39-2.88,3.19v5.61h-2v-8.4Z"/><path class="cls-6" d="M898.9,250.57c-.04,2.18,.86,3.8,3.02,3.8,1.28,0,2.31-.67,2.48-2.18h1.97c-.06,.52-.15,1.39-.9,2.2-.46,.52-1.51,1.41-3.63,1.41-3.32,0-4.89-2.06-4.89-5.4,0-2.08,.42-3.8,2.08-4.96,1.01-.71,2.27-.78,2.88-.78,4.72,0,4.62,4.18,4.58,5.9h-7.58Zm5.56-1.39c.02-1.01-.17-3.11-2.6-3.11-1.28,0-2.83,.78-2.88,3.11h5.48Z"/><path class="cls-6" d="M915.26,240.34h1.97v15.14h-1.97v-15.14Z"/><path class="cls-6" d="M927.48,255.48c-.15-.52-.19-1.03-.19-1.57-.95,1.74-2.37,1.91-3.25,1.91-2.42,0-3.72-1.36-3.72-3.11,0-.84,.29-2.18,1.85-3.09,1.13-.63,2.81-.69,3.65-.69,.5,0,.82,.02,1.43,.06,0-1.3,0-1.87-.38-2.33-.4-.52-1.26-.69-1.83-.69-2,0-2.1,1.36-2.12,1.78h-1.97c.06-.55,.13-1.28,.74-1.99,.8-.88,2.29-1.13,3.4-1.13,1.53,0,3.17,.48,3.74,1.55,.34,.63,.36,1.13,.36,1.62l-.08,5.04c0,.17,.02,1.57,.17,2.65h-1.78Zm-1.36-5.19c-.8,0-3.8,0-3.8,2.14,0,.67,.42,1.83,2.18,1.83,1.01,0,1.76-.4,2.25-1.13,.44-.71,.46-1.3,.5-2.77-.36-.04-.65-.06-1.13-.06Z"/><path class="cls-6" d="M933.86,252.35c-.02,.8,.4,1.91,2.31,1.91,.82,0,1.43-.15,1.85-.67,.21-.27,.34-.63,.34-.99,0-1.03-.73-1.22-2.31-1.57-2.2-.5-4.05-.94-4.05-3.15,0-1.93,1.68-3.19,4.12-3.19,1.32,0,3.17,.38,3.8,1.64,.27,.59,.27,1.09,.27,1.53h-2.02c.06-1.6-1.32-1.72-2.04-1.72-.29,0-2.14,0-2.14,1.51,0,.97,.95,1.2,1.49,1.34,2.92,.69,3.55,.86,4.18,1.45,.59,.55,.8,1.28,.8,1.95,0,1.18-.65,2.18-1.43,2.67-.92,.57-2.04,.71-3.13,.71-2.14,0-4.14-.88-4.12-3.42h2.08Z"/><path class="cls-6" d="M949,246.66c0-.46-.02-.71-.06-1.72h2l.04,1.74c.99-1.66,2.73-1.91,3.59-1.91,2.27,0,4.43,1.55,4.43,5.46s-2.29,5.65-4.81,5.65c-1.53,0-2.67-.65-3.23-1.57v5.23h-1.95v-12.87Zm4.85,7.77c.5,0,1.55-.1,2.23-1.03,.76-1.03,.86-2.54,.86-3.3,0-1.89-.57-3.86-2.9-3.86-3.15,0-3.15,3.34-3.15,4.28,0,1.28,.19,3.91,2.96,3.91Z"/><path class="cls-6" d="M963.7,244.94v6.78c0,1.03,.23,2.33,2.25,2.33,.99,0,1.91-.34,2.48-1.18,.44-.63,.44-1.45,.44-1.97v-5.96h2.04v8.57c0,.21,.04,1.39,.06,1.97h-2.06l-.04-1.81c-.38,.73-1.09,1.91-3.36,1.91-2.6,0-3.82-1.49-3.82-3.57v-7.08h2.02Zm5.44-5l-2.54,3.02h-1.36l1.72-3.02h2.18Z"/><path class="cls-6" d="M976.7,246.47c.27-.48,1.05-1.81,3.44-1.81,1.05,0,2.37,.25,3.34,1.34,.52,.61,1.24,1.66,1.24,3.97,0,2.04-.48,3.15-1.01,3.84-.84,1.2-2.25,1.81-3.7,1.81-.5,0-1.45-.06-2.35-.67-.59-.4-.82-.76-1.03-1.07l-.04,1.6h-1.91l.04-1.89v-13.27h1.97v6.15Zm2.98-.46c-3.02,0-3.02,3.53-3.02,4.2s0,3.99,2.94,3.99c2.44,0,3.04-2.37,3.04-4.09,0-1.05-.21-4.09-2.96-4.09Z"/><path class="cls-6" d="M987.6,240.34h1.97v15.14h-1.97v-15.14Z"/><path class="cls-6" d="M993.21,240.36h2.37v2.16h-2.37v-2.16Zm.21,4.58h1.97v10.54h-1.97v-10.54Z"/><path class="cls-6" d="M1005.24,248.32c-.04-.48-.19-2.2-2.1-2.2-2.73,0-2.73,3.17-2.73,3.97,0,2.16,.52,4.18,2.62,4.18,1.68,0,2.25-1.26,2.29-2.29h1.99c-.12,2.06-1.66,3.78-4.26,3.78-.71,0-2.35-.15-3.46-1.36-.63-.73-1.26-1.85-1.26-4.03,0-4.39,2.69-5.69,4.79-5.69,.69,0,2.27,.15,3.23,1.3,.78,.9,.84,1.76,.88,2.35h-1.99Z"/><path class="cls-6" d="M1016.16,255.48c-.15-.52-.19-1.03-.19-1.57-.94,1.74-2.37,1.91-3.25,1.91-2.41,0-3.72-1.36-3.72-3.11,0-.84,.29-2.18,1.85-3.09,1.13-.63,2.81-.69,3.65-.69,.5,0,.82,.02,1.43,.06,0-1.3,0-1.87-.38-2.33-.4-.52-1.26-.69-1.83-.69-1.99,0-2.1,1.36-2.12,1.78h-1.97c.06-.55,.12-1.28,.73-1.99,.8-.88,2.29-1.13,3.4-1.13,1.53,0,3.17,.48,3.74,1.55,.34,.63,.36,1.13,.36,1.62l-.08,5.04c0,.17,.02,1.57,.17,2.65h-1.79Zm-1.37-5.19c-.8,0-3.8,0-3.8,2.14,0,.67,.42,1.83,2.18,1.83,1.01,0,1.76-.4,2.25-1.13,.44-.71,.46-1.3,.5-2.77-.36-.04-.65-.06-1.13-.06Z"/><path class="cls-6" d="M1022.55,252.35c-.02,.8,.4,1.91,2.31,1.91,.82,0,1.43-.15,1.85-.67,.21-.27,.34-.63,.34-.99,0-1.03-.74-1.22-2.31-1.57-2.21-.5-4.05-.94-4.05-3.15,0-1.93,1.68-3.19,4.12-3.19,1.32,0,3.17,.38,3.8,1.64,.27,.59,.27,1.09,.27,1.53h-2.02c.06-1.6-1.32-1.72-2.04-1.72-.29,0-2.14,0-2.14,1.51,0,.97,.94,1.2,1.49,1.34,2.92,.69,3.55,.86,4.18,1.45,.59,.55,.8,1.28,.8,1.95,0,1.18-.65,2.18-1.43,2.67-.92,.57-2.04,.71-3.13,.71-2.14,0-4.14-.88-4.12-3.42h2.08Z"/><path class="cls-6" d="M1042.49,255.54l-1.51,3.93h-2.04l1.6-4.03-4.39-10.5h2.23l3.3,8.31,3.36-8.31h2.14l-4.68,10.6Z"/><path class="cls-6" d="M1055.2,246.66c0-.46-.02-.71-.06-1.72h2l.04,1.74c.99-1.66,2.73-1.91,3.59-1.91,2.27,0,4.43,1.55,4.43,5.46s-2.29,5.65-4.81,5.65c-1.53,0-2.67-.65-3.23-1.57v5.23h-1.95v-12.87Zm4.85,7.77c.5,0,1.55-.1,2.23-1.03,.76-1.03,.86-2.54,.86-3.3,0-1.89-.57-3.86-2.9-3.86-3.15,0-3.15,3.34-3.15,4.28,0,1.28,.19,3.91,2.96,3.91Z"/><path class="cls-6" d="M1068.2,247.08c0-.71-.04-1.45-.11-2.14h1.99l.04,2.04c.38-1.47,1.64-1.95,2.52-2.08,.59-.08,1.03-.06,1.36-.04v1.93c-.1-.04-.23-.06-.38-.08s-.34-.02-.57-.02c-2.33,0-2.88,1.39-2.88,3.19v5.61h-1.99v-8.4Z"/><path class="cls-6" d="M1076.08,240.36h2.37v2.16h-2.37v-2.16Zm.21,4.58h1.97v10.54h-1.97v-10.54Z"/><path class="cls-6" d="M1080.92,244.94h2.2l3.36,8.36,3.28-8.36h2.18l-4.62,10.54h-1.99l-4.41-10.54Z"/><path class="cls-6" d="M1100.62,255.48c-.15-.52-.19-1.03-.19-1.57-.94,1.74-2.37,1.91-3.25,1.91-2.41,0-3.72-1.36-3.72-3.11,0-.84,.29-2.18,1.85-3.09,1.13-.63,2.81-.69,3.65-.69,.5,0,.82,.02,1.43,.06,0-1.3,0-1.87-.38-2.33-.4-.52-1.26-.69-1.83-.69-1.99,0-2.1,1.36-2.12,1.78h-1.97c.06-.55,.12-1.28,.73-1.99,.8-.88,2.29-1.13,3.4-1.13,1.53,0,3.17,.48,3.74,1.55,.34,.63,.36,1.13,.36,1.62l-.08,5.04c0,.17,.02,1.57,.17,2.65h-1.79Zm-1.37-5.19c-.8,0-3.8,0-3.8,2.14,0,.67,.42,1.83,2.18,1.83,1.01,0,1.76-.4,2.25-1.13,.44-.71,.46-1.3,.5-2.77-.36-.04-.65-.06-1.13-.06Z"/><path class="cls-6" d="M1113.18,240.34h1.97v13.46c0,.23,.04,1.13,.08,1.68h-1.97l-.04-1.68c-.17,.29-.4,.73-.95,1.11-.86,.59-1.89,.78-2.6,.78-1.41,0-4.54-.73-4.54-5.35,0-4.01,2.29-5.75,4.77-5.75,2.27,0,3.02,1.34,3.28,1.78v-6.03Zm-.74,6.78c-.42-.55-1.2-1.07-2.31-1.07-2.9,0-2.9,3.51-2.9,4.22,0,1.87,.48,4.03,2.9,4.03,3.11,0,3.11-3.42,3.11-4.24,0-1.53-.36-2.37-.8-2.94Z"/><path class="cls-6" d="M1125.12,255.48c-.15-.52-.19-1.03-.19-1.57-.95,1.74-2.37,1.91-3.25,1.91-2.42,0-3.72-1.36-3.72-3.11,0-.84,.29-2.18,1.85-3.09,1.13-.63,2.81-.69,3.65-.69,.5,0,.82,.02,1.43,.06,0-1.3,0-1.87-.38-2.33-.4-.52-1.26-.69-1.83-.69-2,0-2.1,1.36-2.12,1.78h-1.97c.06-.55,.13-1.28,.74-1.99,.8-.88,2.29-1.13,3.4-1.13,1.53,0,3.17,.48,3.74,1.55,.34,.63,.36,1.13,.36,1.62l-.08,5.04c0,.17,.02,1.57,.17,2.65h-1.78Zm-1.36-5.19c-.8,0-3.8,0-3.8,2.14,0,.67,.42,1.83,2.18,1.83,1.01,0,1.76-.4,2.25-1.13,.44-.71,.46-1.3,.5-2.77-.36-.04-.65-.06-1.13-.06Z"/><path class="cls-6" d="M1131.51,252.35c-.02,.8,.4,1.91,2.31,1.91,.82,0,1.43-.15,1.85-.67,.21-.27,.34-.63,.34-.99,0-1.03-.73-1.22-2.31-1.57-2.2-.5-4.05-.94-4.05-3.15,0-1.93,1.68-3.19,4.12-3.19,1.32,0,3.17,.38,3.8,1.64,.27,.59,.27,1.09,.27,1.53h-2.02c.06-1.6-1.32-1.72-2.04-1.72-.29,0-2.14,0-2.14,1.51,0,.97,.95,1.2,1.49,1.34,2.92,.69,3.55,.86,4.18,1.45,.59,.55,.8,1.28,.8,1.95,0,1.18-.65,2.18-1.43,2.67-.92,.57-2.04,.71-3.13,.71-2.14,0-4.14-.88-4.12-3.42h2.08Z"/></g></svg>