<?xml version="1.0" encoding="UTF-8"?><svg id="Layer_1" xmlns="http://www.w3.org/2000/svg" xmlns:xlink="http://www.w3.org/1999/xlink" viewBox="0 0 1202.26 701.16"><defs><style>.cls-1{stroke-dasharray:0 0 0 0 0 0 14.17 1.42 14.17 1.42 14.17 1.42;}.cls-1,.cls-2{stroke:#949292;}.cls-1,.cls-2,.cls-3,.cls-4,.cls-5{fill:none;stroke-miterlimit:10;stroke-width:.57px;}.cls-6{fill:url(#linear-gradient);}.cls-7{fill:#010101;}.cls-8{fill:#a8d7b1;}.cls-9{fill:url(#linear-gradient-8);}.cls-10{fill:url(#linear-gradient-9);}.cls-11{fill:url(#linear-gradient-3);}.cls-12{fill:url(#linear-gradient-4);}.cls-13{fill:url(#linear-gradient-2);}.cls-14{fill:url(#linear-gradient-6);}.cls-15{fill:url(#linear-gradient-7);}.cls-16{fill:url(#linear-gradient-5);}.cls-3{stroke:#010101;}.cls-4{stroke:#c2c1c1;}.cls-17{opacity:.9;}.cls-5{stroke:#bcbcbc;stroke-dasharray:0 2.83;}.cls-18{fill:url(#linear-gradient-12);}.cls-19{fill:url(#linear-gradient-10);}.cls-20{fill:url(#linear-gradient-11);}.cls-21{isolation:isolate;}</style><linearGradient id="linear-gradient" x1="690.55" y1="425.47" x2="716.55" y2="425.47" gradientUnits="userSpaceOnUse"><stop offset="0" stop-color="#e2755b"/><stop offset="1" stop-color="#e26f39"/></linearGradient><linearGradient id="linear-gradient-2" x1="1141.36" y1="425.47" x2="1178.12" y2="425.47" xlink:href="#linear-gradient"/><linearGradient id="linear-gradient-3" x1="1047.36" y1="425.47" x2="1089.65" y2="425.47" xlink:href="#linear-gradient"/><linearGradient id="linear-gradient-4" x1="868.48" y1="425.47" x2="903.58" y2="425.47" xlink:href="#linear-gradient"/><linearGradient id="linear-gradient-5" x1="958.62" y1="425.47" x2="995.92" y2="425.47" xlink:href="#linear-gradient"/><linearGradient id="linear-gradient-6" x1="783.87" y1="425.47" x2="805.71" y2="425.47" xlink:href="#linear-gradient"/><linearGradient id="linear-gradient-7" x1="244.21" y1="425.47" x2="250.51" y2="425.47" xlink:href="#linear-gradient"/><linearGradient id="linear-gradient-8" x1="606.01" y1="425.47" x2="618.62" y2="425.47" xlink:href="#linear-gradient"/><linearGradient id="linear-gradient-9" x1="424.38" y1="425.47" x2="435.3" y2="425.47" xlink:href="#linear-gradient"/><linearGradient id="linear-gradient-10" x1="152.97" y1="425.47" x2="159.27" y2="425.47" xlink:href="#linear-gradient"/><linearGradient id="linear-gradient-11" x1="335.45" y1="425.47" x2="341.75" y2="425.47" xlink:href="#linear-gradient"/><linearGradient id="linear-gradient-12" x1="517.92" y1="425.47" x2="524.23" y2="425.47" xlink:href="#linear-gradient"/></defs><g><path class="cls-6" d="M716.55,425.47c0,7.18-5.82,13-13,13s-13-5.82-13-13,5.82-13,13-13,13,5.82,13,13"/><path class="cls-13" d="M1178.12,425.47c0,10.15-8.23,18.38-18.38,18.38-10.15,0-18.38-8.23-18.38-18.38h0c0-10.16,8.23-18.39,18.38-18.39,10.15,0,18.38,8.23,18.38,18.38h0"/><path class="cls-11" d="M1089.65,425.47c0,11.68-9.47,21.15-21.14,21.15-11.68,0-21.15-9.47-21.15-21.14h0c0-11.68,9.47-21.15,21.14-21.15,11.68,0,21.15,9.47,21.15,21.14h0"/><path class="cls-12" d="M903.58,425.47c0,9.69-7.86,17.55-17.55,17.55s-17.55-7.86-17.55-17.55,7.86-17.55,17.55-17.55,17.55,7.86,17.55,17.55"/><path class="cls-16" d="M995.92,425.47c0,10.3-8.35,18.65-18.65,18.65-10.3,0-18.65-8.35-18.65-18.65h0c0-10.3,8.35-18.66,18.65-18.66,10.3,0,18.65,8.35,18.65,18.65h0"/><path class="cls-14" d="M805.71,425.47c0,6.03-4.89,10.92-10.92,10.92-6.03,0-10.92-4.89-10.92-10.92h0c0-6.03,4.89-10.92,10.92-10.92,6.03,0,10.92,4.89,10.92,10.92h0"/><path class="cls-15" d="M250.51,425.47c0,1.74-1.41,3.15-3.15,3.15-1.74,0-3.15-1.41-3.15-3.15h0c0-1.74,1.41-3.15,3.15-3.15,1.74,0,3.15,1.41,3.15,3.15h0"/><path class="cls-9" d="M618.62,425.47c0,3.48-2.82,6.31-6.3,6.31-3.48,0-6.31-2.82-6.31-6.3h0c0-3.48,2.82-6.31,6.3-6.31,3.48,0,6.31,2.82,6.31,6.3h0"/><path class="cls-10" d="M435.3,425.47c0,3.02-2.44,5.46-5.46,5.46-3.02,0-5.46-2.44-5.46-5.46h0c0-3.02,2.44-5.46,5.46-5.46,3.02,0,5.46,2.44,5.46,5.46h0"/><path class="cls-19" d="M159.27,425.47c0,1.74-1.41,3.15-3.15,3.15-1.74,0-3.15-1.41-3.15-3.15h0c0-1.74,1.41-3.15,3.15-3.15,1.74,0,3.15,1.41,3.15,3.15h0"/><path class="cls-20" d="M341.75,425.47c0,1.74-1.41,3.15-3.15,3.15-1.74,0-3.15-1.41-3.15-3.15h0c0-1.74,1.41-3.15,3.15-3.15,1.74,0,3.15,1.41,3.15,3.15h0"/><path class="cls-18" d="M524.23,425.47c0,1.74-1.41,3.15-3.15,3.15-1.74,0-3.15-1.41-3.15-3.15h0c0-1.74,1.41-3.15,3.15-3.15,1.74,0,3.15,1.41,3.15,3.15h0"/></g><line class="cls-5" x1="107.82" y1="425.47" x2="1159.74" y2="425.47"/><line class="cls-5" x1="108.32" y1="489.96" x2="1160.24" y2="489.96"/><g class="cls-17"><path class="cls-8" d="M1203.08,489.96c0,23.94-19.4,43.34-43.34,43.34s-43.34-19.4-43.34-43.34,19.4-43.34,43.34-43.34,43.34,19.4,43.34,43.34"/><path class="cls-8" d="M1079.42,489.96c0,6.03-4.89,10.92-10.92,10.92-6.03,0-10.92-4.89-10.92-10.92h0c0-6.03,4.89-10.92,10.92-10.92,6.03,0,10.92,4.89,10.92,10.92h0"/><path class="cls-8" d="M982.73,489.96c0,3.02-2.44,5.46-5.46,5.46-3.02,0-5.46-2.44-5.46-5.46h0c0-3.02,2.44-5.46,5.46-5.46,3.02,0,5.46,2.44,5.46,5.46h0"/><path class="cls-8" d="M889.18,489.96c0,1.74-1.41,3.15-3.15,3.15-1.74,0-3.15-1.41-3.15-3.15h0c0-1.74,1.41-3.15,3.15-3.15,1.74,0,3.15,1.41,3.15,3.15h0"/></g><g><line class="cls-3" x1="1159.86" y1="520.52" x2="1159.86" y2="406.83"/><line class="cls-3" x1="1068.63" y1="520.52" x2="1068.63" y2="406.83"/><line class="cls-3" x1="977.45" y1="520.52" x2="977.45" y2="406.83"/><line class="cls-3" x1="886.22" y1="520.52" x2="886.22" y2="406.83"/><line class="cls-3" x1="794.71" y1="520.52" x2="794.71" y2="406.83"/><line class="cls-3" x1="703.61" y1="520.52" x2="703.61" y2="406.83"/><line class="cls-3" x1="612.52" y1="520.52" x2="612.52" y2="406.83"/><line class="cls-3" x1="521.22" y1="520.52" x2="521.22" y2="406.83"/><line class="cls-3" x1="429.79" y1="520.52" x2="429.79" y2="406.83"/><line class="cls-3" x1="338.7" y1="520.52" x2="338.7" y2="406.83"/><line class="cls-3" x1="247.55" y1="520.52" x2="247.55" y2="406.83"/><line class="cls-3" x1="156.23" y1="520.52" x2="156.23" y2="406.83"/></g><g><line class="cls-4" x1="1111.95" y1="520.52" x2="1111.95" y2="406.83"/><line class="cls-4" x1="1020.72" y1="520.52" x2="1020.72" y2="406.83"/><line class="cls-4" x1="929.54" y1="520.52" x2="929.54" y2="406.83"/><line class="cls-4" x1="838.31" y1="520.52" x2="838.31" y2="406.83"/><line class="cls-4" x1="746.8" y1="520.52" x2="746.8" y2="406.83"/><line class="cls-4" x1="655.7" y1="520.52" x2="655.7" y2="406.83"/><line class="cls-4" x1="564.61" y1="520.52" x2="564.61" y2="406.83"/><line class="cls-4" x1="473.31" y1="520.52" x2="473.31" y2="406.83"/><line class="cls-4" x1="381.88" y1="520.52" x2="381.88" y2="406.83"/><line class="cls-4" x1="290.78" y1="520.52" x2="290.78" y2="406.83"/><line class="cls-4" x1="199.64" y1="520.52" x2="199.64" y2="406.83"/><line class="cls-4" x1="108.32" y1="520.52" x2="108.32" y2="406.83"/></g><g><path class="cls-7" d="M14.04,414.67h4.1c1.49,0,2.5,.08,3.33,.98,.61,.63,.9,1.45,.9,2.37s-.3,1.73-.96,2.39c-.64,.64-1.49,1.05-3.69,1.05h-1.98v5.43h-1.69v-12.22Zm1.69,5.36h2.01c1.12,0,2.83-.08,2.83-2.08s-1.59-1.91-2.47-1.91h-2.37v3.99Z"/><path class="cls-7" d="M25.83,418.4v5.47c0,.83,.19,1.88,1.81,1.88,.8,0,1.54-.27,2-.95,.36-.51,.36-1.17,.36-1.59v-4.81h1.64v6.9c0,.17,.04,1.12,.05,1.59h-1.66l-.03-1.45c-.31,.59-.88,1.54-2.71,1.54-2.1,0-3.08-1.2-3.08-2.88v-5.7h1.63Zm4.38-4.03l-2.05,2.44h-1.1l1.39-2.44h1.76Z"/><path class="cls-7" d="M36.31,419.63c.22-.39,.85-1.46,2.77-1.46,.85,0,1.91,.2,2.69,1.08,.42,.49,1,1.34,1,3.2,0,1.64-.39,2.54-.81,3.1-.68,.97-1.81,1.46-2.98,1.46-.41,0-1.17-.05-1.89-.54-.48-.32-.66-.61-.83-.86l-.03,1.29h-1.54l.03-1.52v-10.69h1.59v4.96Zm2.4-.37c-2.44,0-2.44,2.84-2.44,3.39s0,3.22,2.37,3.22c1.96,0,2.45-1.91,2.45-3.3,0-.85-.17-3.3-2.39-3.3Z"/><path class="cls-7" d="M45.09,414.69h1.59v12.2h-1.59v-12.2Z"/><path class="cls-7" d="M49.61,414.71h1.91v1.74h-1.91v-1.74Zm.17,3.69h1.59v8.49h-1.59v-8.49Z"/><path class="cls-7" d="M59.31,421.12c-.04-.39-.15-1.78-1.69-1.78-2.2,0-2.2,2.56-2.2,3.2,0,1.74,.42,3.37,2.12,3.37,1.35,0,1.81-1.02,1.85-1.84h1.61c-.1,1.66-1.34,3.05-3.44,3.05-.58,0-1.9-.12-2.79-1.1-.51-.59-1.02-1.49-1.02-3.25,0-3.54,2.17-4.59,3.86-4.59,.56,0,1.83,.12,2.61,1.05,.63,.73,.68,1.42,.71,1.9h-1.61Z"/><path class="cls-7" d="M66.62,418.18c3.4,0,4.16,2.67,4.16,4.45,0,2.49-1.4,4.55-4.3,4.55s-4.18-1.95-4.18-4.43c0-2.1,.98-4.57,4.31-4.57Zm-.1,7.82c1.2,0,2.57-.86,2.57-3.42,0-2.12-.98-3.23-2.47-3.23-1.01,0-2.66,.64-2.66,3.3,0,1.74,.75,3.35,2.56,3.35Z"/></g><g><path class="cls-7" d="M14.04,479.16h4.1c1.49,0,2.5,.08,3.33,.98,.61,.63,.9,1.45,.9,2.37s-.3,1.73-.96,2.39c-.64,.64-1.49,1.05-3.69,1.05h-1.98v5.43h-1.69v-12.22Zm1.69,5.36h2.01c1.12,0,2.83-.08,2.83-2.08s-1.59-1.91-2.47-1.91h-2.37v3.99Z"/><path class="cls-7" d="M24.13,484.61c0-.58-.03-1.17-.09-1.73h1.61l.04,1.64c.31-1.18,1.32-1.57,2.03-1.68,.47-.07,.83-.05,1.1-.03v1.56c-.09-.03-.19-.05-.3-.07-.12-.02-.27-.02-.46-.02-1.88,0-2.32,1.12-2.32,2.57v4.52h-1.61v-6.77Z"/><path class="cls-7" d="M30.48,479.2h1.91v1.74h-1.91v-1.74Zm.17,3.69h1.59v8.49h-1.59v-8.49Z"/><path class="cls-7" d="M34.38,482.88h1.78l2.71,6.73,2.64-6.73h1.76l-3.72,8.49h-1.61l-3.55-8.49Z"/><path class="cls-7" d="M50.25,491.38c-.12-.42-.15-.83-.15-1.27-.76,1.4-1.91,1.54-2.62,1.54-1.95,0-2.99-1.1-2.99-2.5,0-.68,.24-1.76,1.49-2.49,.91-.51,2.27-.56,2.94-.56,.41,0,.66,.02,1.15,.05,0-1.05,0-1.51-.31-1.88-.32-.42-1.01-.56-1.47-.56-1.61,0-1.69,1.1-1.71,1.44h-1.59c.05-.44,.1-1.03,.59-1.61,.64-.71,1.85-.91,2.74-.91,1.23,0,2.55,.39,3.01,1.25,.27,.51,.29,.91,.29,1.3l-.07,4.06c0,.14,.02,1.27,.14,2.13h-1.44Zm-1.1-4.18c-.64,0-3.06,0-3.06,1.73,0,.54,.34,1.47,1.76,1.47,.81,0,1.42-.32,1.81-.91,.36-.57,.37-1.05,.41-2.23-.29-.03-.52-.05-.91-.05Z"/><path class="cls-7" d="M60.37,479.18h1.59v10.85c0,.19,.03,.91,.07,1.35h-1.59l-.04-1.35c-.14,.24-.32,.59-.76,.9-.69,.47-1.52,.63-2.1,.63-1.13,0-3.66-.59-3.66-4.31,0-3.23,1.85-4.64,3.84-4.64,1.83,0,2.44,1.08,2.64,1.44v-4.86Zm-.59,5.47c-.34-.44-.96-.86-1.86-.86-2.34,0-2.34,2.83-2.34,3.4,0,1.51,.39,3.25,2.34,3.25,2.5,0,2.5-2.76,2.5-3.42,0-1.24-.29-1.91-.64-2.37Z"/><path class="cls-7" d="M68.51,482.66c3.4,0,4.16,2.67,4.16,4.45,0,2.49-1.4,4.55-4.3,4.55s-4.18-1.95-4.18-4.43c0-2.1,.98-4.57,4.32-4.57Zm-.1,7.82c1.2,0,2.57-.86,2.57-3.42,0-2.12-.98-3.23-2.47-3.23-1.02,0-2.66,.64-2.66,3.3,0,1.74,.74,3.35,2.55,3.35Z"/></g><g class="cls-21"><path class="cls-7" d="M115.01,387.6c-2.25,.91-5.06,2.01-7.53,2.01-1.34,0-2.66-.3-3.94-.69-1.52-.47-2.61-.91-3.33-1.2v-1.12c.83,.27,1.98,.64,3.59,1,1.55,.36,2.6,.47,3.65,.47,2.4,0,4.35-.59,7.56-1.57v1.1Z"/><path class="cls-7" d="M103.06,380.63c.61,.73,1.3,1.9,1.69,2.72h-1.69c-.58-1.1-1.29-2.18-1.85-2.84v-1.51h11.71v1.62h-9.87Z"/><path class="cls-7" d="M110.15,373.35c1.19-.04,1.66-1.07,1.66-1.95,0-2.05-1.93-2.32-2.69-2.32-1.59,0-2.52,.86-2.52,2.22,0,.68,.26,1.22,.61,1.57s.71,.46,.98,.54v1.54l-6.97-.3v-6.58h1.37v5.13l3.79,.22c-.35-.36-1.08-1.1-1.08-2.47,0-2.35,1.85-3.5,3.86-3.5,2.3,0,4.04,1.62,4.04,4.18,0,1.9-1.05,3.4-3.05,3.49v-1.76Z"/><path class="cls-7" d="M100.98,361.98c0-3.5,3.76-3.93,5.95-3.93,2.78,0,4.33,.56,5.33,1.63,.78,.83,.9,1.81,.9,2.33,0,1.56-.91,2.62-1.95,3.13-.78,.39-1.91,.76-4.01,.76-1.74,0-6.23-.2-6.23-3.93Zm10.78,.02c0-1.96-2.57-2.3-4.67-2.3-2.81,0-4.76,.49-4.76,2.27,0,2.05,2.69,2.32,4.79,2.32,2.61,0,4.63-.51,4.63-2.28Z"/><path class="cls-7" d="M110.15,354.53c1.19-.03,1.66-1.07,1.66-1.95,0-2.05-1.93-2.32-2.69-2.32-1.59,0-2.52,.86-2.52,2.22,0,.68,.26,1.22,.61,1.57s.71,.46,.98,.54v1.54l-6.97-.3v-6.58h1.37v5.13l3.79,.22c-.35-.36-1.08-1.1-1.08-2.47,0-2.35,1.85-3.5,3.86-3.5,2.3,0,4.04,1.62,4.04,4.18,0,1.9-1.05,3.4-3.05,3.49v-1.76Z"/><path class="cls-7" d="M110.9,343.95l4.16,1.9v1.15l-4.16-1.08v-1.96Z"/><path class="cls-7" d="M103.06,333.83c.61,.73,1.3,1.9,1.69,2.72h-1.69c-.58-1.1-1.29-2.18-1.85-2.84v-1.51h11.71v1.62h-9.87Z"/><path class="cls-7" d="M110.15,326.55c1.19-.03,1.66-1.07,1.66-1.95,0-2.05-1.93-2.32-2.69-2.32-1.59,0-2.52,.86-2.52,2.22,0,.68,.26,1.22,.61,1.57s.71,.46,.98,.54v1.54l-6.97-.3v-6.58h1.37v5.13l3.79,.22c-.35-.36-1.08-1.1-1.08-2.47,0-2.35,1.85-3.5,3.86-3.5,2.3,0,4.04,1.62,4.04,4.18,0,1.9-1.05,3.4-3.05,3.49v-1.76Z"/><path class="cls-7" d="M110.39,314.1v5.28h-2.01l-7.31-5.08v-1.83h7.95v-1.71h1.37v1.71h2.54v1.63h-2.54Zm-1.37-.05h-6.18l6.18,4.04v-4.04Z"/><path class="cls-7" d="M110.15,307.74c1.19-.04,1.66-1.07,1.66-1.95,0-2.05-1.93-2.32-2.69-2.32-1.59,0-2.52,.86-2.52,2.22,0,.68,.26,1.22,.61,1.57s.71,.46,.98,.54v1.54l-6.97-.3v-6.58h1.37v5.13l3.79,.22c-.35-.36-1.08-1.1-1.08-2.47,0-2.35,1.85-3.5,3.86-3.5,2.3,0,4.04,1.62,4.04,4.18,0,1.9-1.05,3.4-3.05,3.49v-1.76Z"/><path class="cls-7" d="M114.15,300.02v-1.61h-13.01v1.61h-.9v-2.94h14.81v2.94h-.9Z"/></g><g class="cls-21"><path class="cls-7" d="M205.85,386.9c-2.25,.91-5.06,2.01-7.53,2.01-1.34,0-2.66-.3-3.94-.69-1.52-.47-2.61-.91-3.33-1.2v-1.12c.83,.27,1.98,.64,3.59,1,1.55,.36,2.6,.47,3.65,.47,2.4,0,4.35-.59,7.56-1.57v1.1Z"/><path class="cls-7" d="M193.9,379.92c.61,.73,1.3,1.9,1.69,2.72h-1.69c-.58-1.1-1.29-2.18-1.85-2.84v-1.51h11.71v1.62h-9.87Z"/><path class="cls-7" d="M200.99,372.65c1.19-.04,1.66-1.07,1.66-1.95,0-2.05-1.93-2.32-2.69-2.32-1.59,0-2.52,.86-2.52,2.22,0,.68,.26,1.22,.61,1.57s.71,.46,.98,.54v1.54l-6.97-.3v-6.58h1.37v5.13l3.79,.22c-.35-.36-1.08-1.1-1.08-2.47,0-2.35,1.85-3.5,3.86-3.5,2.3,0,4.04,1.62,4.04,4.18,0,1.9-1.05,3.4-3.05,3.49v-1.76Z"/><path class="cls-7" d="M201.23,360.19v5.28h-2.01l-7.31-5.08v-1.83h7.95v-1.71h1.37v1.71h2.54v1.63h-2.54Zm-1.37-.05h-6.18l6.18,4.04v-4.04Z"/><path class="cls-7" d="M200.99,353.83c1.19-.03,1.66-1.07,1.66-1.95,0-2.05-1.93-2.32-2.69-2.32-1.59,0-2.52,.86-2.52,2.22,0,.68,.26,1.22,.61,1.57s.71,.46,.98,.54v1.54l-6.97-.3v-6.58h1.37v5.13l3.79,.22c-.35-.36-1.08-1.1-1.08-2.47,0-2.35,1.85-3.5,3.86-3.5,2.3,0,4.04,1.62,4.04,4.18,0,1.9-1.05,3.4-3.05,3.49v-1.76Z"/><path class="cls-7" d="M201.73,343.25l4.16,1.9v1.15l-4.16-1.08v-1.96Z"/><path class="cls-7" d="M193.9,333.13c.61,.73,1.3,1.9,1.69,2.72h-1.69c-.58-1.1-1.29-2.18-1.85-2.84v-1.51h11.71v1.62h-9.87Z"/><path class="cls-7" d="M200.99,325.85c1.19-.03,1.66-1.07,1.66-1.95,0-2.05-1.93-2.32-2.69-2.32-1.59,0-2.52,.86-2.52,2.22,0,.68,.26,1.22,.61,1.57s.71,.46,.98,.54v1.54l-6.97-.3v-6.58h1.37v5.13l3.79,.22c-.35-.36-1.08-1.1-1.08-2.47,0-2.35,1.85-3.5,3.86-3.5,2.3,0,4.04,1.62,4.04,4.18,0,1.9-1.05,3.4-3.05,3.49v-1.76Z"/><path class="cls-7" d="M194.98,318.29c-1.05,0-3.2-.71-3.2-3.79,0-2.47,1.34-3.89,3.13-3.89,1.15,0,2.35,.74,2.66,2.39,.19-.69,.69-2.56,2.96-2.56,1.61,0,3.44,1.12,3.44,4.03,0,1-.2,2.18-.98,3.03-.58,.63-1.45,1.03-2.35,1.03-.78,0-1.59-.3-2.15-.9-.56-.56-.73-1.17-.9-1.69-.34,1.56-1.44,2.35-2.61,2.35Zm-1.95-3.86c0,1.25,.75,2.22,1.91,2.22s1.9-.95,1.9-2.17c0-1.29-.75-2.25-1.9-2.25-1.07,0-1.91,.8-1.91,2.2Zm9.6,.03c0-1.88-1.32-2.33-2.2-2.33-1.3,0-2.15,.96-2.15,2.3,0,1.44,.96,2.39,2.2,2.39,.91,0,2.15-.61,2.15-2.35Z"/><path class="cls-7" d="M200.99,307.03c1.19-.04,1.66-1.07,1.66-1.95,0-2.05-1.93-2.32-2.69-2.32-1.59,0-2.52,.86-2.52,2.22,0,.68,.26,1.22,.61,1.57s.71,.46,.98,.54v1.54l-6.97-.3v-6.58h1.37v5.13l3.79,.22c-.35-.36-1.08-1.1-1.08-2.47,0-2.35,1.85-3.5,3.86-3.5,2.3,0,4.04,1.62,4.04,4.18,0,1.9-1.05,3.4-3.05,3.49v-1.76Z"/><path class="cls-7" d="M204.98,299.32v-1.61h-13.01v1.61h-.9v-2.94h14.81v2.94h-.9Z"/></g><g class="cls-21"><path class="cls-7" d="M296.68,386.9c-2.25,.91-5.06,2.01-7.53,2.01-1.34,0-2.66-.3-3.94-.69-1.52-.47-2.61-.91-3.34-1.2v-1.12c.83,.27,1.98,.64,3.59,1,1.56,.36,2.61,.47,3.66,.47,2.4,0,4.35-.59,7.56-1.57v1.1Z"/><path class="cls-7" d="M284.73,379.92c.61,.73,1.3,1.9,1.69,2.72h-1.69c-.57-1.1-1.28-2.18-1.84-2.84v-1.51h11.71v1.62h-9.87Z"/><path class="cls-7" d="M285.66,368.47c-1.37,.02-1.74,1.03-1.74,1.78,0,1.69,1.45,2.44,4.57,2.59-.54-.37-1.49-1.02-1.49-2.72,0-1.91,1.27-3.54,3.76-3.54,2.72,0,4.1,1.95,4.1,3.96,0,1.13-.46,2.27-1.27,2.89-1.15,.86-2.83,1.07-4.31,1.07-2.56,0-6.62-.63-6.62-4.33,0-1.54,.68-2.4,1.12-2.81,.69-.59,1.44-.61,1.9-.63v1.74Zm5.25-.27c-.83,0-2.61,.24-2.61,2.18,0,1.57,1.29,2.34,2.62,2.34,1.52,0,2.64-.95,2.64-2.25,0-1.05-.74-2.27-2.66-2.27Z"/><path class="cls-7" d="M293.06,365.05l-3.01-3.06c-.63-.64-1.3-1.29-2.01-1.81-.93-.68-1.45-.86-2.08-.86-.58,0-1.91,.2-1.91,1.88,0,1.88,1.61,1.91,2.05,1.91v1.78c-.58-.02-1.69-.07-2.57-1.08-.69-.81-.85-1.79-.85-2.54,0-1.79,.91-3.62,3.42-3.62,.74,0,1.32,.05,2.93,1.32,.42,.34,1.96,1.83,2.3,2.17l1.95,2.05v-5.57h1.34v7.45h-1.54Z"/><path class="cls-7" d="M291.82,353.83c1.18-.03,1.66-1.07,1.66-1.95,0-2.05-1.93-2.32-2.69-2.32-1.59,0-2.52,.86-2.52,2.22,0,.68,.25,1.22,.61,1.57s.71,.46,.98,.54v1.54l-6.97-.3v-6.58h1.37v5.13l3.79,.22c-.36-.36-1.08-1.1-1.08-2.47,0-2.35,1.85-3.5,3.86-3.5,2.3,0,4.04,1.62,4.04,4.18,0,1.9-1.05,3.4-3.04,3.49v-1.76Z"/><path class="cls-7" d="M292.57,343.25l4.16,1.9v1.15l-4.16-1.08v-1.96Z"/><path class="cls-7" d="M284.73,333.13c.61,.73,1.3,1.9,1.69,2.72h-1.69c-.57-1.1-1.28-2.18-1.84-2.84v-1.51h11.71v1.62h-9.87Z"/><path class="cls-7" d="M285.66,321.67c-1.37,.02-1.74,1.03-1.74,1.78,0,1.69,1.45,2.44,4.57,2.59-.54-.37-1.49-1.02-1.49-2.72,0-1.91,1.27-3.54,3.76-3.54,2.72,0,4.1,1.95,4.1,3.96,0,1.13-.46,2.27-1.27,2.89-1.15,.86-2.83,1.07-4.31,1.07-2.56,0-6.62-.63-6.62-4.33,0-1.54,.68-2.4,1.12-2.81,.69-.59,1.44-.61,1.9-.63v1.74Zm5.25-.27c-.83,0-2.61,.24-2.61,2.18,0,1.57,1.29,2.34,2.62,2.34,1.52,0,2.64-.95,2.64-2.25,0-1.05-.74-2.27-2.66-2.27Z"/><path class="cls-7" d="M285.66,312.26c-1.37,.02-1.74,1.03-1.74,1.78,0,1.69,1.45,2.44,4.57,2.59-.54-.37-1.49-1.02-1.49-2.72,0-1.91,1.27-3.54,3.76-3.54,2.72,0,4.1,1.95,4.1,3.96,0,1.13-.46,2.27-1.27,2.89-1.15,.86-2.83,1.07-4.31,1.07-2.56,0-6.62-.63-6.62-4.33,0-1.54,.68-2.4,1.12-2.81,.69-.59,1.44-.61,1.9-.63v1.74Zm5.25-.27c-.83,0-2.61,.24-2.61,2.18,0,1.57,1.29,2.34,2.62,2.34,1.52,0,2.64-.95,2.64-2.25,0-1.05-.74-2.27-2.66-2.27Z"/><path class="cls-7" d="M291.82,307.03c1.18-.04,1.66-1.07,1.66-1.95,0-2.05-1.93-2.32-2.69-2.32-1.59,0-2.52,.86-2.52,2.22,0,.68,.25,1.22,.61,1.57s.71,.46,.98,.54v1.54l-6.97-.3v-6.58h1.37v5.13l3.79,.22c-.36-.36-1.08-1.1-1.08-2.47,0-2.35,1.85-3.5,3.86-3.5,2.3,0,4.04,1.62,4.04,4.18,0,1.9-1.05,3.4-3.04,3.49v-1.76Z"/><path class="cls-7" d="M295.82,299.32v-1.61h-13.01v1.61h-.9v-2.94h14.81v2.94h-.9Z"/></g><g class="cls-21"><path class="cls-7" d="M387.51,386.9c-2.25,.91-5.06,2.01-7.53,2.01-1.34,0-2.66-.3-3.94-.69-1.52-.47-2.61-.91-3.34-1.2v-1.12c.83,.27,1.98,.64,3.59,1,1.56,.36,2.61,.47,3.66,.47,2.4,0,4.35-.59,7.56-1.57v1.1Z"/><path class="cls-7" d="M375.57,379.92c.61,.73,1.3,1.9,1.69,2.72h-1.69c-.57-1.1-1.28-2.18-1.84-2.84v-1.51h11.71v1.62h-9.87Z"/><path class="cls-7" d="M376.5,368.47c-1.37,.02-1.74,1.03-1.74,1.78,0,1.69,1.45,2.44,4.57,2.59-.54-.37-1.49-1.02-1.49-2.72,0-1.91,1.27-3.54,3.76-3.54,2.72,0,4.1,1.95,4.1,3.96,0,1.13-.46,2.27-1.27,2.89-1.15,.86-2.83,1.07-4.31,1.07-2.56,0-6.62-.63-6.62-4.33,0-1.54,.68-2.4,1.12-2.81,.69-.59,1.44-.61,1.9-.63v1.74Zm5.25-.27c-.83,0-2.61,.24-2.61,2.18,0,1.57,1.29,2.34,2.62,2.34,1.52,0,2.64-.95,2.64-2.25,0-1.05-.74-2.27-2.66-2.27Z"/><path class="cls-7" d="M376.5,359.06c-1.37,.02-1.74,1.03-1.74,1.78,0,1.69,1.45,2.44,4.57,2.59-.54-.37-1.49-1.02-1.49-2.72,0-1.91,1.27-3.54,3.76-3.54,2.72,0,4.1,1.95,4.1,3.96,0,1.13-.46,2.27-1.27,2.89-1.15,.86-2.83,1.07-4.31,1.07-2.56,0-6.62-.63-6.62-4.33,0-1.54,.68-2.4,1.12-2.81,.69-.59,1.44-.61,1.9-.63v1.74Zm5.25-.27c-.83,0-2.61,.24-2.61,2.18,0,1.57,1.29,2.34,2.62,2.34,1.52,0,2.64-.95,2.64-2.25,0-1.05-.74-2.27-2.66-2.27Z"/><path class="cls-7" d="M382.66,353.83c1.18-.03,1.66-1.07,1.66-1.95,0-2.05-1.93-2.32-2.69-2.32-1.59,0-2.52,.86-2.52,2.22,0,.68,.25,1.22,.61,1.57s.71,.46,.98,.54v1.54l-6.97-.3v-6.58h1.37v5.13l3.79,.22c-.36-.36-1.08-1.1-1.08-2.47,0-2.35,1.85-3.5,3.86-3.5,2.3,0,4.04,1.62,4.04,4.18,0,1.9-1.05,3.4-3.04,3.49v-1.76Z"/><path class="cls-7" d="M383.4,343.25l4.16,1.9v1.15l-4.16-1.08v-1.96Z"/><path class="cls-7" d="M375.57,333.13c.61,.73,1.3,1.9,1.69,2.72h-1.69c-.57-1.1-1.28-2.18-1.84-2.84v-1.51h11.71v1.62h-9.87Z"/><path class="cls-7" d="M373.72,327.97v-7.73h1.42l10.29,4.3v1.91l-10.3-4.5v6.02h-1.4Z"/><path class="cls-7" d="M373.49,314.48c0-3.5,3.76-3.93,5.96-3.93,2.77,0,4.33,.56,5.33,1.63,.78,.83,.9,1.81,.9,2.33,0,1.56-.91,2.62-1.95,3.13-.78,.39-1.91,.76-4.01,.76-1.74,0-6.23-.2-6.23-3.93Zm10.78,.02c0-1.96-2.57-2.3-4.67-2.3-2.81,0-4.76,.49-4.76,2.27,0,2.05,2.69,2.32,4.79,2.32,2.61,0,4.64-.51,4.64-2.28Z"/><path class="cls-7" d="M382.66,307.03c1.18-.04,1.66-1.07,1.66-1.95,0-2.05-1.93-2.32-2.69-2.32-1.59,0-2.52,.86-2.52,2.22,0,.68,.25,1.22,.61,1.57s.71,.46,.98,.54v1.54l-6.97-.3v-6.58h1.37v5.13l3.79,.22c-.36-.36-1.08-1.1-1.08-2.47,0-2.35,1.85-3.5,3.86-3.5,2.3,0,4.04,1.62,4.04,4.18,0,1.9-1.05,3.4-3.04,3.49v-1.76Z"/><path class="cls-7" d="M386.65,299.32v-1.61h-13.01v1.61h-.9v-2.94h14.81v2.94h-.9Z"/></g><g class="cls-21"><path class="cls-7" d="M478.35,386.9c-2.25,.91-5.06,2.01-7.53,2.01-1.34,0-2.66-.3-3.94-.69-1.52-.47-2.61-.91-3.34-1.2v-1.12c.83,.27,1.98,.64,3.59,1,1.56,.36,2.61,.47,3.66,.47,2.4,0,4.35-.59,7.56-1.57v1.1Z"/><path class="cls-7" d="M466.4,379.92c.61,.73,1.3,1.9,1.69,2.72h-1.69c-.57-1.1-1.28-2.18-1.84-2.84v-1.51h11.71v1.62h-9.87Z"/><path class="cls-7" d="M464.56,374.76v-7.73h1.42l10.29,4.3v1.91l-10.3-4.5v6.02h-1.4Z"/><path class="cls-7" d="M464.32,361.27c0-3.5,3.76-3.93,5.96-3.93,2.77,0,4.33,.56,5.33,1.63,.78,.83,.9,1.81,.9,2.33,0,1.56-.91,2.62-1.95,3.13-.78,.39-1.91,.76-4.01,.76-1.74,0-6.23-.2-6.23-3.93Zm10.78,.02c0-1.96-2.57-2.3-4.67-2.3-2.81,0-4.76,.49-4.76,2.27,0,2.05,2.69,2.32,4.79,2.32,2.61,0,4.64-.51,4.64-2.28Z"/><path class="cls-7" d="M473.49,353.83c1.18-.03,1.66-1.07,1.66-1.95,0-2.05-1.93-2.32-2.69-2.32-1.59,0-2.52,.86-2.52,2.22,0,.68,.25,1.22,.61,1.57s.71,.46,.98,.54v1.54l-6.97-.3v-6.58h1.37v5.13l3.79,.22c-.36-.36-1.08-1.1-1.08-2.47,0-2.35,1.85-3.5,3.86-3.5,2.3,0,4.04,1.62,4.04,4.18,0,1.9-1.05,3.4-3.04,3.49v-1.76Z"/><path class="cls-7" d="M474.24,343.25l4.16,1.9v1.15l-4.16-1.08v-1.96Z"/><path class="cls-7" d="M466.4,333.13c.61,.73,1.3,1.9,1.69,2.72h-1.69c-.57-1.1-1.28-2.18-1.84-2.84v-1.51h11.71v1.62h-9.87Z"/><path class="cls-7" d="M464.56,327.97v-7.73h1.42l10.29,4.3v1.91l-10.3-4.5v6.02h-1.4Z"/><path class="cls-7" d="M473.73,314.33v5.28h-2.02l-7.31-5.08v-1.83h7.95v-1.71h1.37v1.71h2.54v1.63h-2.54Zm-1.37-.05h-6.17l6.17,4.04v-4.04Z"/><path class="cls-7" d="M473.49,307.96c1.18-.04,1.66-1.07,1.66-1.95,0-2.05-1.93-2.32-2.69-2.32-1.59,0-2.52,.86-2.52,2.22,0,.68,.25,1.22,.61,1.57s.71,.46,.98,.54v1.54l-6.97-.3v-6.58h1.37v5.13l3.79,.22c-.36-.36-1.08-1.1-1.08-2.47,0-2.35,1.85-3.5,3.86-3.5,2.3,0,4.04,1.62,4.04,4.18,0,1.9-1.05,3.4-3.04,3.49v-1.76Z"/><path class="cls-7" d="M477.49,300.25v-1.61h-13.01v1.61h-.9v-2.94h14.81v2.94h-.9Z"/></g><g class="cls-21"><path class="cls-7" d="M569.18,386.9c-2.25,.91-5.06,2.01-7.53,2.01-1.34,0-2.66-.3-3.94-.69-1.52-.47-2.61-.91-3.34-1.2v-1.12c.83,.27,1.98,.64,3.59,1,1.56,.36,2.61,.47,3.66,.47,2.4,0,4.35-.59,7.56-1.57v1.1Z"/><path class="cls-7" d="M557.24,379.92c.61,.73,1.3,1.9,1.69,2.72h-1.69c-.57-1.1-1.28-2.18-1.84-2.84v-1.51h11.71v1.62h-9.87Z"/><path class="cls-7" d="M555.39,374.76v-7.73h1.42l10.29,4.3v1.91l-10.3-4.5v6.02h-1.4Z"/><path class="cls-7" d="M564.57,361.12v5.28h-2.02l-7.31-5.08v-1.83h7.95v-1.71h1.37v1.71h2.54v1.63h-2.54Zm-1.37-.05h-6.17l6.17,4.04v-4.04Z"/><path class="cls-7" d="M564.33,354.76c1.18-.04,1.66-1.07,1.66-1.95,0-2.05-1.93-2.32-2.69-2.32-1.59,0-2.52,.86-2.52,2.22,0,.68,.25,1.22,.61,1.57s.71,.46,.98,.54v1.54l-6.97-.3v-6.58h1.37v5.13l3.79,.22c-.36-.36-1.08-1.1-1.08-2.47,0-2.35,1.85-3.5,3.86-3.5,2.3,0,4.04,1.62,4.04,4.18,0,1.9-1.05,3.4-3.04,3.49v-1.76Z"/><path class="cls-7" d="M565.07,344.18l4.16,1.9v1.15l-4.16-1.08v-1.96Z"/><path class="cls-7" d="M557.24,334.06c.61,.73,1.3,1.9,1.69,2.72h-1.69c-.57-1.1-1.28-2.18-1.84-2.84v-1.51h11.71v1.62h-9.87Z"/><path class="cls-7" d="M555.39,328.9v-7.73h1.42l10.29,4.3v1.91l-10.3-4.5v6.02h-1.4Z"/><path class="cls-7" d="M558.32,319.22c-1.05,0-3.2-.71-3.2-3.79,0-2.47,1.34-3.89,3.13-3.89,1.15,0,2.35,.74,2.66,2.39,.19-.69,.69-2.56,2.96-2.56,1.61,0,3.43,1.12,3.43,4.03,0,1-.2,2.18-.98,3.03-.57,.63-1.45,1.03-2.35,1.03-.78,0-1.59-.3-2.15-.9-.56-.56-.73-1.17-.9-1.69-.34,1.56-1.44,2.35-2.61,2.35Zm-1.95-3.86c0,1.25,.74,2.22,1.91,2.22s1.9-.95,1.9-2.17c0-1.29-.74-2.25-1.9-2.25-1.06,0-1.91,.8-1.91,2.2Zm9.59,.03c0-1.88-1.32-2.33-2.2-2.33-1.3,0-2.15,.96-2.15,2.3,0,1.44,.96,2.39,2.2,2.39,.91,0,2.15-.61,2.15-2.35Z"/><path class="cls-7" d="M564.33,307.96c1.18-.04,1.66-1.07,1.66-1.95,0-2.05-1.93-2.32-2.69-2.32-1.59,0-2.52,.86-2.52,2.22,0,.68,.25,1.22,.61,1.57s.71,.46,.98,.54v1.54l-6.97-.3v-6.58h1.37v5.13l3.79,.22c-.36-.36-1.08-1.1-1.08-2.47,0-2.35,1.85-3.5,3.86-3.5,2.3,0,4.04,1.62,4.04,4.18,0,1.9-1.05,3.4-3.04,3.49v-1.76Z"/><path class="cls-7" d="M568.32,300.25v-1.61h-13.01v1.61h-.9v-2.94h14.81v2.94h-.9Z"/></g><g class="cls-21"><path class="cls-7" d="M660.02,386.9c-2.25,.91-5.06,2.01-7.53,2.01-1.34,0-2.66-.3-3.94-.69-1.52-.47-2.61-.91-3.34-1.2v-1.12c.83,.27,1.98,.64,3.59,1,1.56,.36,2.61,.47,3.66,.47,2.4,0,4.35-.59,7.56-1.57v1.1Z"/><path class="cls-7" d="M648.07,379.92c.61,.73,1.3,1.9,1.69,2.72h-1.69c-.57-1.1-1.28-2.18-1.84-2.84v-1.51h11.71v1.62h-9.87Z"/><path class="cls-7" d="M646.23,374.76v-7.73h1.42l10.29,4.3v1.91l-10.3-4.5v6.02h-1.4Z"/><path class="cls-7" d="M649.16,365.08c-1.05,0-3.2-.71-3.2-3.79,0-2.47,1.34-3.89,3.13-3.89,1.15,0,2.35,.74,2.66,2.39,.19-.69,.69-2.56,2.96-2.56,1.61,0,3.43,1.12,3.43,4.03,0,1-.2,2.18-.98,3.03-.57,.63-1.45,1.03-2.35,1.03-.78,0-1.59-.3-2.15-.9-.56-.56-.73-1.17-.9-1.69-.34,1.56-1.44,2.35-2.61,2.35Zm-1.95-3.86c0,1.25,.74,2.22,1.91,2.22s1.9-.95,1.9-2.17c0-1.29-.74-2.25-1.9-2.25-1.06,0-1.91,.8-1.91,2.2Zm9.59,.03c0-1.88-1.32-2.33-2.2-2.33-1.3,0-2.15,.96-2.15,2.3,0,1.44,.96,2.39,2.2,2.39,.91,0,2.15-.61,2.15-2.35Z"/><path class="cls-7" d="M655.16,353.83c1.18-.03,1.66-1.07,1.66-1.95,0-2.05-1.93-2.32-2.69-2.32-1.59,0-2.52,.86-2.52,2.22,0,.68,.25,1.22,.61,1.57s.71,.46,.98,.54v1.54l-6.97-.3v-6.58h1.37v5.13l3.79,.22c-.36-.36-1.08-1.1-1.08-2.47,0-2.35,1.85-3.5,3.86-3.5,2.3,0,4.04,1.62,4.04,4.18,0,1.9-1.05,3.4-3.04,3.49v-1.76Z"/><path class="cls-7" d="M655.91,343.25l4.16,1.9v1.15l-4.16-1.08v-1.96Z"/><path class="cls-7" d="M648.07,333.13c.61,.73,1.3,1.9,1.69,2.72h-1.69c-.57-1.1-1.28-2.18-1.84-2.84v-1.51h11.71v1.62h-9.87Z"/><path class="cls-7" d="M649.16,327.7c-1.05,0-3.2-.71-3.2-3.79,0-2.47,1.34-3.89,3.13-3.89,1.15,0,2.35,.74,2.66,2.39,.19-.69,.69-2.56,2.96-2.56,1.61,0,3.43,1.12,3.43,4.03,0,1-.2,2.18-.98,3.03-.57,.63-1.45,1.03-2.35,1.03-.78,0-1.59-.3-2.15-.9-.56-.56-.73-1.17-.9-1.69-.34,1.56-1.44,2.35-2.61,2.35Zm-1.95-3.86c0,1.25,.74,2.22,1.91,2.22s1.9-.95,1.9-2.17c0-1.29-.74-2.25-1.9-2.25-1.06,0-1.91,.8-1.91,2.2Zm9.59,.03c0-1.88-1.32-2.33-2.2-2.33-1.3,0-2.15,.96-2.15,2.3,0,1.44,.96,2.39,2.2,2.39,.91,0,2.15-.61,2.15-2.35Z"/><path class="cls-7" d="M656.4,318.25l-3.01-3.06c-.63-.64-1.3-1.29-2.01-1.81-.93-.68-1.45-.86-2.08-.86-.58,0-1.91,.2-1.91,1.88,0,1.88,1.61,1.91,2.05,1.91v1.78c-.58-.02-1.69-.07-2.57-1.08-.69-.81-.85-1.79-.85-2.54,0-1.79,.91-3.62,3.42-3.62,.74,0,1.32,.05,2.93,1.32,.42,.34,1.96,1.83,2.3,2.17l1.95,2.05v-5.57h1.34v7.45h-1.54Z"/><path class="cls-7" d="M655.16,307.03c1.18-.04,1.66-1.07,1.66-1.95,0-2.05-1.93-2.32-2.69-2.32-1.59,0-2.52,.86-2.52,2.22,0,.68,.25,1.22,.61,1.57s.71,.46,.98,.54v1.54l-6.97-.3v-6.58h1.37v5.13l3.79,.22c-.36-.36-1.08-1.1-1.08-2.47,0-2.35,1.85-3.5,3.86-3.5,2.3,0,4.04,1.62,4.04,4.18,0,1.9-1.05,3.4-3.04,3.49v-1.76Z"/><path class="cls-7" d="M659.16,299.32v-1.61h-13.01v1.61h-.9v-2.94h14.81v2.94h-.9Z"/></g><g class="cls-21"><path class="cls-7" d="M750.85,386.9c-2.25,.91-5.06,2.01-7.53,2.01-1.34,0-2.66-.3-3.94-.69-1.52-.47-2.61-.91-3.33-1.2v-1.12c.83,.27,1.98,.64,3.59,1,1.55,.36,2.6,.47,3.65,.47,2.4,0,4.35-.59,7.56-1.57v1.1Z"/><path class="cls-7" d="M738.91,379.92c.61,.73,1.3,1.9,1.69,2.72h-1.69c-.58-1.1-1.29-2.18-1.85-2.84v-1.51h11.71v1.62h-9.87Z"/><path class="cls-7" d="M739.99,374.49c-1.05,0-3.2-.71-3.2-3.79,0-2.47,1.34-3.89,3.13-3.89,1.15,0,2.35,.74,2.66,2.39,.19-.69,.69-2.56,2.96-2.56,1.61,0,3.44,1.12,3.44,4.03,0,1-.2,2.18-.98,3.03-.58,.63-1.45,1.03-2.35,1.03-.78,0-1.59-.3-2.15-.9-.56-.56-.73-1.17-.9-1.69-.34,1.56-1.44,2.35-2.61,2.35Zm-1.95-3.86c0,1.25,.75,2.22,1.91,2.22s1.9-.95,1.9-2.17c0-1.29-.75-2.25-1.9-2.25-1.07,0-1.91,.8-1.91,2.2Zm9.6,.03c0-1.88-1.32-2.33-2.2-2.33-1.3,0-2.15,.96-2.15,2.3,0,1.44,.96,2.39,2.2,2.39,.91,0,2.15-.61,2.15-2.35Z"/><path class="cls-7" d="M747.23,365.05l-3.01-3.06c-.63-.64-1.3-1.29-2.01-1.81-.93-.68-1.45-.86-2.08-.86-.58,0-1.91,.2-1.91,1.88,0,1.88,1.61,1.91,2.05,1.91v1.78c-.58-.02-1.69-.07-2.57-1.08-.69-.81-.85-1.79-.85-2.54,0-1.79,.91-3.62,3.42-3.62,.74,0,1.32,.05,2.93,1.32,.42,.34,1.96,1.83,2.3,2.17l1.95,2.05v-5.57h1.34v7.45h-1.54Z"/><path class="cls-7" d="M746,353.83c1.19-.03,1.66-1.07,1.66-1.95,0-2.05-1.93-2.32-2.69-2.32-1.59,0-2.52,.86-2.52,2.22,0,.68,.26,1.22,.61,1.57s.71,.46,.98,.54v1.54l-6.97-.3v-6.58h1.37v5.13l3.79,.22c-.35-.36-1.08-1.1-1.08-2.47,0-2.35,1.85-3.5,3.86-3.5,2.3,0,4.04,1.62,4.04,4.18,0,1.9-1.05,3.4-3.05,3.49v-1.76Z"/><path class="cls-7" d="M746.74,343.25l4.16,1.9v1.15l-4.16-1.08v-1.96Z"/><path class="cls-7" d="M738.91,333.13c.61,.73,1.3,1.9,1.69,2.72h-1.69c-.58-1.1-1.29-2.18-1.85-2.84v-1.51h11.71v1.62h-9.87Z"/><path class="cls-7" d="M739.99,327.7c-1.05,0-3.2-.71-3.2-3.79,0-2.47,1.34-3.89,3.13-3.89,1.15,0,2.35,.74,2.66,2.39,.19-.69,.69-2.56,2.96-2.56,1.61,0,3.44,1.12,3.44,4.03,0,1-.2,2.18-.98,3.03-.58,.63-1.45,1.03-2.35,1.03-.78,0-1.59-.3-2.15-.9-.56-.56-.73-1.17-.9-1.69-.34,1.56-1.44,2.35-2.61,2.35Zm-1.95-3.86c0,1.25,.75,2.22,1.91,2.22s1.9-.95,1.9-2.17c0-1.29-.75-2.25-1.9-2.25-1.07,0-1.91,.8-1.91,2.2Zm9.6,.03c0-1.88-1.32-2.33-2.2-2.33-1.3,0-2.15,.96-2.15,2.3,0,1.44,.96,2.39,2.2,2.39,.91,0,2.15-.61,2.15-2.35Z"/><path class="cls-7" d="M739.84,312.26c-1.37,.02-1.74,1.03-1.74,1.78,0,1.69,1.45,2.44,4.57,2.59-.54-.37-1.49-1.02-1.49-2.72,0-1.91,1.27-3.54,3.76-3.54,2.72,0,4.09,1.95,4.09,3.96,0,1.13-.46,2.27-1.27,2.89-1.15,.86-2.82,1.07-4.31,1.07-2.55,0-6.62-.63-6.62-4.33,0-1.54,.68-2.4,1.12-2.81,.69-.59,1.44-.61,1.9-.63v1.74Zm5.25-.27c-.83,0-2.61,.24-2.61,2.18,0,1.57,1.28,2.34,2.62,2.34,1.52,0,2.64-.95,2.64-2.25,0-1.05-.75-2.27-2.66-2.27Z"/><path class="cls-7" d="M746,307.03c1.19-.04,1.66-1.07,1.66-1.95,0-2.05-1.93-2.32-2.69-2.32-1.59,0-2.52,.86-2.52,2.22,0,.68,.26,1.22,.61,1.57s.71,.46,.98,.54v1.54l-6.97-.3v-6.58h1.37v5.13l3.79,.22c-.35-.36-1.08-1.1-1.08-2.47,0-2.35,1.85-3.5,3.86-3.5,2.3,0,4.04,1.62,4.04,4.18,0,1.9-1.05,3.4-3.05,3.49v-1.76Z"/><path class="cls-7" d="M749.99,299.32v-1.61h-13.01v1.61h-.9v-2.94h14.81v2.94h-.9Z"/></g><g class="cls-21"><path class="cls-7" d="M841.69,386.9c-2.25,.91-5.06,2.01-7.53,2.01-1.34,0-2.66-.3-3.94-.69-1.52-.47-2.61-.91-3.34-1.2v-1.12c.83,.27,1.98,.64,3.59,1,1.56,.36,2.61,.47,3.66,.47,2.4,0,4.35-.59,7.56-1.57v1.1Z"/><path class="cls-7" d="M829.74,379.92c.61,.73,1.3,1.9,1.69,2.72h-1.69c-.57-1.1-1.28-2.18-1.84-2.84v-1.51h11.71v1.62h-9.87Z"/><path class="cls-7" d="M830.83,374.49c-1.05,0-3.2-.71-3.2-3.79,0-2.47,1.34-3.89,3.13-3.89,1.15,0,2.35,.74,2.66,2.39,.19-.69,.69-2.56,2.96-2.56,1.61,0,3.43,1.12,3.43,4.03,0,1-.2,2.18-.98,3.03-.57,.63-1.45,1.03-2.35,1.03-.78,0-1.59-.3-2.15-.9-.56-.56-.73-1.17-.9-1.69-.34,1.56-1.44,2.35-2.61,2.35Zm-1.95-3.86c0,1.25,.74,2.22,1.91,2.22s1.9-.95,1.9-2.17c0-1.29-.74-2.25-1.9-2.25-1.06,0-1.91,.8-1.91,2.2Zm9.59,.03c0-1.88-1.32-2.33-2.2-2.33-1.3,0-2.15,.96-2.15,2.3,0,1.44,.96,2.39,2.2,2.39,.91,0,2.15-.61,2.15-2.35Z"/><path class="cls-7" d="M830.67,359.06c-1.37,.02-1.74,1.03-1.74,1.78,0,1.69,1.45,2.44,4.57,2.59-.54-.37-1.49-1.02-1.49-2.72,0-1.91,1.27-3.54,3.76-3.54,2.72,0,4.1,1.95,4.1,3.96,0,1.13-.46,2.27-1.27,2.89-1.15,.86-2.83,1.07-4.31,1.07-2.56,0-6.62-.63-6.62-4.33,0-1.54,.68-2.4,1.12-2.81,.69-.59,1.44-.61,1.9-.63v1.74Zm5.25-.27c-.83,0-2.61,.24-2.61,2.18,0,1.57,1.29,2.34,2.62,2.34,1.52,0,2.64-.95,2.64-2.25,0-1.05-.74-2.27-2.66-2.27Z"/><path class="cls-7" d="M836.83,353.83c1.18-.03,1.66-1.07,1.66-1.95,0-2.05-1.93-2.32-2.69-2.32-1.59,0-2.52,.86-2.52,2.22,0,.68,.25,1.22,.61,1.57s.71,.46,.98,.54v1.54l-6.97-.3v-6.58h1.37v5.13l3.79,.22c-.36-.36-1.08-1.1-1.08-2.47,0-2.35,1.85-3.5,3.86-3.5,2.3,0,4.04,1.62,4.04,4.18,0,1.9-1.05,3.4-3.04,3.49v-1.76Z"/><path class="cls-7" d="M837.58,343.25l4.16,1.9v1.15l-4.16-1.08v-1.96Z"/><path class="cls-7" d="M829.74,333.13c.61,.73,1.3,1.9,1.69,2.72h-1.69c-.57-1.1-1.28-2.18-1.84-2.84v-1.51h11.71v1.62h-9.87Z"/><path class="cls-7" d="M836.82,326.76c1.02,0,1.73-.56,1.73-1.88,0-2.57-3.03-2.59-4.86-2.5,1.15,.61,1.47,1.71,1.47,2.62,0,1.86-1.25,3.57-3.71,3.57-2.69,0-3.77-1.91-3.77-3.76,0-1.25,.51-3.1,2.88-3.77,.71-.2,1.56-.34,3.15-.34,1.73,0,6.17,.02,6.17,4.31,0,1.59-.63,3.45-3.06,3.52v-1.78Zm-7.87-1.95c0,1.37,1.13,2.1,2.52,2.1,1.52,0,2.4-.93,2.4-2.22s-.98-2.13-2.38-2.13c-1.69,0-2.54,1.1-2.54,2.25Z"/><path class="cls-7" d="M827.66,315.24c0-3.5,3.76-3.93,5.96-3.93,2.77,0,4.33,.56,5.33,1.63,.78,.83,.9,1.81,.9,2.33,0,1.56-.91,2.62-1.95,3.13-.78,.39-1.91,.76-4.01,.76-1.74,0-6.23-.2-6.23-3.93Zm10.78,.02c0-1.96-2.57-2.3-4.67-2.3-2.81,0-4.76,.49-4.76,2.27,0,2.05,2.69,2.32,4.79,2.32,2.61,0,4.64-.51,4.64-2.28Z"/><path class="cls-7" d="M836.83,307.79c1.18-.03,1.66-1.07,1.66-1.95,0-2.05-1.93-2.32-2.69-2.32-1.59,0-2.52,.86-2.52,2.22,0,.68,.25,1.22,.61,1.57s.71,.46,.98,.54v1.54l-6.97-.3v-6.58h1.37v5.13l3.79,.22c-.36-.36-1.08-1.1-1.08-2.47,0-2.35,1.85-3.5,3.86-3.5,2.3,0,4.04,1.62,4.04,4.18,0,1.9-1.05,3.4-3.04,3.49v-1.76Z"/><path class="cls-7" d="M840.83,300.08v-1.61h-13.01v1.61h-.9v-2.94h14.81v2.94h-.9Z"/></g><g class="cls-21"><path class="cls-7" d="M932.53,386.9c-2.25,.91-5.06,2.01-7.53,2.01-1.34,0-2.66-.3-3.94-.69-1.52-.47-2.61-.91-3.33-1.2v-1.12c.83,.27,1.98,.64,3.59,1,1.55,.36,2.6,.47,3.65,.47,2.4,0,4.35-.59,7.56-1.57v1.1Z"/><path class="cls-7" d="M920.58,379.92c.61,.73,1.3,1.9,1.69,2.72h-1.69c-.58-1.1-1.29-2.18-1.85-2.84v-1.51h11.71v1.62h-9.87Z"/><path class="cls-7" d="M927.65,373.56c1.01,0,1.73-.56,1.73-1.88,0-2.57-3.03-2.59-4.86-2.5,1.15,.61,1.47,1.71,1.47,2.62,0,1.86-1.25,3.57-3.71,3.57-2.69,0-3.77-1.91-3.77-3.76,0-1.25,.51-3.1,2.88-3.77,.71-.2,1.56-.34,3.15-.34,1.73,0,6.18,.02,6.18,4.31,0,1.59-.63,3.45-3.06,3.52v-1.78Zm-7.87-1.95c0,1.37,1.13,2.1,2.52,2.1,1.52,0,2.4-.93,2.4-2.22s-.98-2.13-2.39-2.13c-1.69,0-2.54,1.1-2.54,2.25Z"/><path class="cls-7" d="M918.5,362.03c0-3.5,3.76-3.93,5.95-3.93,2.78,0,4.33,.56,5.33,1.63,.78,.83,.9,1.81,.9,2.33,0,1.56-.91,2.62-1.95,3.13-.78,.39-1.91,.76-4.01,.76-1.74,0-6.23-.2-6.23-3.93Zm10.78,.02c0-1.96-2.57-2.3-4.67-2.3-2.81,0-4.76,.49-4.76,2.27,0,2.05,2.69,2.32,4.79,2.32,2.61,0,4.63-.51,4.63-2.28Z"/><path class="cls-7" d="M927.67,354.59c1.19-.03,1.66-1.07,1.66-1.95,0-2.05-1.93-2.32-2.69-2.32-1.59,0-2.52,.86-2.52,2.22,0,.68,.26,1.22,.61,1.57s.71,.46,.98,.54v1.54l-6.97-.3v-6.58h1.37v5.13l3.79,.22c-.35-.36-1.08-1.1-1.08-2.47,0-2.35,1.85-3.5,3.86-3.5,2.3,0,4.04,1.62,4.04,4.18,0,1.9-1.05,3.4-3.05,3.49v-1.76Z"/><path class="cls-7" d="M928.41,344.01l4.16,1.9v1.15l-4.16-1.08v-1.96Z"/><path class="cls-7" d="M920.58,333.89c.61,.73,1.3,1.9,1.69,2.72h-1.69c-.58-1.1-1.29-2.18-1.85-2.84v-1.51h11.71v1.62h-9.87Z"/><path class="cls-7" d="M927.65,327.52c1.01,0,1.73-.56,1.73-1.88,0-2.57-3.03-2.59-4.86-2.5,1.15,.61,1.47,1.71,1.47,2.62,0,1.86-1.25,3.57-3.71,3.57-2.69,0-3.77-1.91-3.77-3.76,0-1.25,.51-3.1,2.88-3.77,.71-.2,1.56-.34,3.15-.34,1.73,0,6.18,.02,6.18,4.31,0,1.59-.63,3.45-3.06,3.52v-1.78Zm-7.87-1.95c0,1.37,1.13,2.1,2.52,2.1,1.52,0,2.4-.93,2.4-2.22s-.98-2.13-2.39-2.13c-1.69,0-2.54,1.1-2.54,2.25Z"/><path class="cls-7" d="M927.91,314.92v5.28h-2.01l-7.31-5.08v-1.83h7.95v-1.71h1.37v1.71h2.54v1.63h-2.54Zm-1.37-.05h-6.18l6.18,4.04v-4.04Z"/><path class="cls-7" d="M927.67,308.55c1.19-.04,1.66-1.07,1.66-1.95,0-2.05-1.93-2.32-2.69-2.32-1.59,0-2.52,.86-2.52,2.22,0,.68,.26,1.22,.61,1.57s.71,.46,.98,.54v1.54l-6.97-.3v-6.58h1.37v5.13l3.79,.22c-.35-.36-1.08-1.1-1.08-2.47,0-2.35,1.85-3.5,3.86-3.5,2.3,0,4.04,1.62,4.04,4.18,0,1.9-1.05,3.4-3.05,3.49v-1.76Z"/><path class="cls-7" d="M931.66,300.84v-1.61h-13.01v1.61h-.9v-2.94h14.81v2.94h-.9Z"/></g><g class="cls-21"><path class="cls-7" d="M1023.36,386.9c-2.25,.91-5.06,2.01-7.53,2.01-1.34,0-2.66-.3-3.94-.69-1.52-.47-2.61-.91-3.33-1.2v-1.12c.83,.27,1.98,.64,3.59,1,1.55,.36,2.6,.47,3.65,.47,2.4,0,4.35-.59,7.56-1.57v1.1Z"/><path class="cls-7" d="M1011.41,379.92c.61,.73,1.3,1.9,1.69,2.72h-1.69c-.58-1.1-1.29-2.18-1.85-2.84v-1.51h11.71v1.62h-9.87Z"/><path class="cls-7" d="M1018.49,373.56c1.01,0,1.73-.56,1.73-1.88,0-2.57-3.03-2.59-4.86-2.5,1.15,.61,1.47,1.71,1.47,2.62,0,1.86-1.25,3.57-3.71,3.57-2.69,0-3.77-1.91-3.77-3.76,0-1.25,.51-3.1,2.88-3.77,.71-.2,1.56-.34,3.15-.34,1.73,0,6.18,.02,6.18,4.31,0,1.59-.63,3.45-3.06,3.52v-1.78Zm-7.87-1.95c0,1.37,1.13,2.1,2.52,2.1,1.52,0,2.4-.93,2.4-2.22s-.98-2.13-2.39-2.13c-1.69,0-2.54,1.1-2.54,2.25Z"/><path class="cls-7" d="M1018.74,360.95v5.28h-2.01l-7.31-5.08v-1.83h7.95v-1.71h1.37v1.71h2.54v1.63h-2.54Zm-1.37-.05h-6.18l6.18,4.04v-4.04Z"/><path class="cls-7" d="M1018.5,354.59c1.19-.03,1.66-1.07,1.66-1.95,0-2.05-1.93-2.32-2.69-2.32-1.59,0-2.52,.86-2.52,2.22,0,.68,.26,1.22,.61,1.57s.71,.46,.98,.54v1.54l-6.97-.3v-6.58h1.37v5.13l3.79,.22c-.35-.36-1.08-1.1-1.08-2.47,0-2.35,1.85-3.5,3.86-3.5,2.3,0,4.04,1.62,4.04,4.18,0,1.9-1.05,3.4-3.05,3.49v-1.76Z"/><path class="cls-7" d="M1019.25,344.01l4.16,1.9v1.15l-4.16-1.08v-1.96Z"/><path class="cls-7" d="M1011.41,333.89c.61,.73,1.3,1.9,1.69,2.72h-1.69c-.58-1.1-1.29-2.18-1.85-2.84v-1.51h11.71v1.62h-9.87Z"/><path class="cls-7" d="M1018.49,327.52c1.01,0,1.73-.56,1.73-1.88,0-2.57-3.03-2.59-4.86-2.5,1.15,.61,1.47,1.71,1.47,2.62,0,1.86-1.25,3.57-3.71,3.57-2.69,0-3.77-1.91-3.77-3.76,0-1.25,.51-3.1,2.88-3.77,.71-.2,1.56-.34,3.15-.34,1.73,0,6.18,.02,6.18,4.31,0,1.59-.63,3.45-3.06,3.52v-1.78Zm-7.87-1.95c0,1.37,1.13,2.1,2.52,2.1,1.52,0,2.4-.93,2.4-2.22s-.98-2.13-2.39-2.13c-1.69,0-2.54,1.1-2.54,2.25Z"/><path class="cls-7" d="M1012.5,319.81c-1.05,0-3.2-.71-3.2-3.79,0-2.47,1.34-3.89,3.13-3.89,1.15,0,2.35,.74,2.66,2.39,.19-.69,.69-2.56,2.96-2.56,1.61,0,3.44,1.12,3.44,4.03,0,1-.2,2.18-.98,3.03-.58,.63-1.45,1.03-2.35,1.03-.78,0-1.59-.3-2.15-.9-.56-.56-.73-1.17-.9-1.69-.34,1.56-1.44,2.35-2.61,2.35Zm-1.95-3.86c0,1.25,.75,2.22,1.91,2.22s1.9-.95,1.9-2.17c0-1.29-.75-2.25-1.9-2.25-1.07,0-1.91,.8-1.91,2.2Zm9.6,.03c0-1.88-1.32-2.33-2.2-2.33-1.3,0-2.15,.96-2.15,2.3,0,1.44,.96,2.39,2.2,2.39,.91,0,2.15-.61,2.15-2.35Z"/><path class="cls-7" d="M1018.5,308.55c1.19-.04,1.66-1.07,1.66-1.95,0-2.05-1.93-2.32-2.69-2.32-1.59,0-2.52,.86-2.52,2.22,0,.68,.26,1.22,.61,1.57s.71,.46,.98,.54v1.54l-6.97-.3v-6.58h1.37v5.13l3.79,.22c-.35-.36-1.08-1.1-1.08-2.47,0-2.35,1.85-3.5,3.86-3.5,2.3,0,4.04,1.62,4.04,4.18,0,1.9-1.05,3.4-3.05,3.49v-1.76Z"/><path class="cls-7" d="M1022.5,300.84v-1.61h-13.01v1.61h-.9v-2.94h14.81v2.94h-.9Z"/></g><g class="cls-21"><path class="cls-7" d="M1114.19,386.9c-2.25,.91-5.06,2.01-7.53,2.01-1.34,0-2.66-.3-3.94-.69-1.52-.47-2.61-.91-3.34-1.2v-1.12c.83,.27,1.98,.64,3.59,1,1.56,.36,2.61,.47,3.66,.47,2.4,0,4.35-.59,7.56-1.57v1.1Z"/><path class="cls-7" d="M1102.25,379.92c.61,.73,1.3,1.9,1.69,2.72h-1.69c-.57-1.1-1.28-2.18-1.84-2.84v-1.51h11.71v1.62h-9.87Z"/><path class="cls-7" d="M1109.32,373.56c1.02,0,1.73-.56,1.73-1.88,0-2.57-3.03-2.59-4.86-2.5,1.15,.61,1.47,1.71,1.47,2.62,0,1.86-1.25,3.57-3.71,3.57-2.69,0-3.77-1.91-3.77-3.76,0-1.25,.51-3.1,2.88-3.77,.71-.2,1.56-.34,3.15-.34,1.73,0,6.17,.02,6.17,4.31,0,1.59-.63,3.45-3.06,3.52v-1.78Zm-7.87-1.95c0,1.37,1.13,2.1,2.52,2.1,1.52,0,2.4-.93,2.4-2.22s-.98-2.13-2.38-2.13c-1.69,0-2.54,1.1-2.54,2.25Z"/><path class="cls-7" d="M1103.33,365.84c-1.05,0-3.2-.71-3.2-3.79,0-2.47,1.34-3.89,3.13-3.89,1.15,0,2.35,.74,2.66,2.39,.19-.69,.69-2.56,2.96-2.56,1.61,0,3.43,1.12,3.43,4.03,0,1-.2,2.18-.98,3.03-.57,.63-1.45,1.03-2.35,1.03-.78,0-1.59-.3-2.15-.9-.56-.56-.73-1.17-.9-1.69-.34,1.56-1.44,2.35-2.61,2.35Zm-1.95-3.86c0,1.25,.74,2.22,1.91,2.22s1.9-.95,1.9-2.17c0-1.29-.74-2.25-1.9-2.25-1.06,0-1.91,.8-1.91,2.2Zm9.59,.03c0-1.88-1.32-2.33-2.2-2.33-1.3,0-2.15,.96-2.15,2.3,0,1.44,.96,2.39,2.2,2.39,.91,0,2.15-.61,2.15-2.35Z"/><path class="cls-7" d="M1109.34,354.59c1.18-.03,1.66-1.07,1.66-1.95,0-2.05-1.93-2.32-2.69-2.32-1.59,0-2.52,.86-2.52,2.22,0,.68,.25,1.22,.61,1.57s.71,.46,.98,.54v1.54l-6.97-.3v-6.58h1.37v5.13l3.79,.22c-.36-.36-1.08-1.1-1.08-2.47,0-2.35,1.85-3.5,3.86-3.5,2.3,0,4.04,1.62,4.04,4.18,0,1.9-1.05,3.4-3.04,3.49v-1.76Z"/><path class="cls-7" d="M1110.08,344.01l4.16,1.9v1.15l-4.16-1.08v-1.96Z"/><path class="cls-7" d="M1110.57,337.58l-3.01-3.06c-.63-.64-1.3-1.29-2.01-1.81-.93-.68-1.45-.86-2.08-.86-.58,0-1.91,.2-1.91,1.88,0,1.88,1.61,1.91,2.05,1.91v1.78c-.58-.02-1.69-.07-2.57-1.08-.69-.81-.85-1.79-.85-2.54,0-1.79,.91-3.62,3.42-3.62,.74,0,1.32,.05,2.93,1.32,.42,.34,1.96,1.83,2.3,2.17l1.95,2.05v-5.57h1.34v7.45h-1.54Z"/><path class="cls-7" d="M1100.17,324.4c0-3.5,3.76-3.93,5.96-3.93,2.77,0,4.33,.56,5.33,1.63,.78,.83,.9,1.81,.9,2.33,0,1.56-.91,2.62-1.95,3.13-.78,.39-1.91,.76-4.01,.76-1.74,0-6.23-.2-6.23-3.93Zm10.78,.02c0-1.96-2.57-2.3-4.67-2.3-2.81,0-4.76,.49-4.76,2.27,0,2.05,2.69,2.32,4.79,2.32,2.61,0,4.64-.51,4.64-2.28Z"/><path class="cls-7" d="M1110.57,318.76l-3.01-3.06c-.63-.64-1.3-1.29-2.01-1.81-.93-.68-1.45-.86-2.08-.86-.58,0-1.91,.2-1.91,1.88,0,1.88,1.61,1.91,2.05,1.91v1.78c-.58-.02-1.69-.07-2.57-1.08-.69-.81-.85-1.79-.85-2.54,0-1.79,.91-3.62,3.42-3.62,.74,0,1.32,.05,2.93,1.32,.42,.34,1.96,1.83,2.3,2.17l1.95,2.05v-5.57h1.34v7.45h-1.54Z"/><path class="cls-7" d="M1103.18,303.36c-1.37,.02-1.74,1.03-1.74,1.78,0,1.69,1.45,2.44,4.57,2.59-.54-.37-1.49-1.02-1.49-2.72,0-1.91,1.27-3.54,3.76-3.54,2.72,0,4.1,1.95,4.1,3.96,0,1.13-.46,2.27-1.27,2.89-1.15,.86-2.83,1.07-4.31,1.07-2.56,0-6.62-.63-6.62-4.33,0-1.54,.68-2.4,1.12-2.81,.69-.59,1.44-.61,1.9-.63v1.74Zm5.25-.27c-.83,0-2.61,.24-2.61,2.18,0,1.57,1.29,2.34,2.62,2.34,1.52,0,2.64-.95,2.64-2.25,0-1.05-.74-2.27-2.66-2.27Z"/><path class="cls-7" d="M1113.33,299.82v-1.61h-13.01v1.61h-.9v-2.94h14.81v2.94h-.9Z"/></g><g class="cls-21"><path class="cls-7" d="M978.8,87.21c-.08-.51-.34-2.54-3.17-2.54-3.53,0-4.16,3.61-4.16,6.05,0,2.76,.79,5.75,4.14,5.75,.89,0,1.75-.22,2.38-.87,.53-.57,.65-1.2,.71-1.54h2.23c-.3,2.88-2.96,4.08-5.48,4.08-5.16,0-6.15-4.55-6.15-7.39,0-3.09,1.2-7.7,6.42-7.7,2.07,0,5,.83,5.26,4.16h-2.17Z"/><path class="cls-7" d="M989.73,97.91c-.14-.51-.18-1-.18-1.52-.91,1.69-2.29,1.85-3.15,1.85-2.33,0-3.59-1.32-3.59-3,0-.81,.28-2.11,1.79-2.98,1.1-.61,2.72-.67,3.53-.67,.49,0,.79,.02,1.38,.06,0-1.26,0-1.81-.37-2.25-.39-.51-1.22-.67-1.77-.67-1.93,0-2.03,1.32-2.05,1.73h-1.91c.06-.53,.12-1.24,.71-1.93,.77-.85,2.21-1.1,3.29-1.1,1.48,0,3.07,.47,3.61,1.5,.33,.61,.35,1.1,.35,1.56l-.08,4.87c0,.16,.02,1.52,.16,2.56h-1.73Zm-1.32-5.02c-.77,0-3.68,0-3.68,2.07,0,.65,.41,1.77,2.11,1.77,.98,0,1.71-.39,2.17-1.1,.43-.69,.45-1.26,.49-2.68-.35-.04-.63-.06-1.1-.06Z"/><path class="cls-7" d="M994.87,88.9l-.02-1.18h1.91l.02,1.65c.22-.43,.96-1.85,3.27-1.85,.91,0,3.69,.35,3.69,3.47v6.92h-1.95v-6.48c0-.67-.08-1.28-.55-1.75-.49-.47-1.16-.69-1.81-.69-1.38,0-2.66,1-2.66,3.05v5.87h-1.91v-9.02Z"/><path class="cls-7" d="M1005.65,87.68h1.81v-2.13l1.89-.61v2.74h2.27v1.4h-2.27v6.11c0,.51,0,1.36,1.36,1.36,.39,0,.75-.06,.91-.1v1.48c-.35,.06-.89,.12-1.58,.12-1.75,0-2.58-.51-2.58-2.17v-6.8h-1.81v-1.4Z"/><path class="cls-7" d="M1013.79,83.29h2.29v2.09h-2.29v-2.09Zm.2,4.43h1.91v10.19h-1.91v-10.19Z"/><path class="cls-7" d="M1026.69,83.27h1.91v13.02c0,.22,.04,1.1,.08,1.62h-1.91l-.04-1.62c-.16,.28-.39,.71-.91,1.08-.83,.57-1.83,.75-2.52,.75-1.36,0-4.39-.71-4.39-5.18,0-3.88,2.21-5.56,4.61-5.56,2.19,0,2.92,1.3,3.17,1.73v-5.83Zm-.71,6.56c-.41-.53-1.16-1.04-2.23-1.04-2.8,0-2.8,3.39-2.8,4.08,0,1.81,.47,3.9,2.8,3.9,3,0,3-3.31,3-4.1,0-1.48-.35-2.29-.77-2.84Z"/><path class="cls-7" d="M1038.24,97.91c-.14-.51-.18-1-.18-1.52-.91,1.69-2.29,1.85-3.15,1.85-2.33,0-3.59-1.32-3.59-3,0-.81,.28-2.11,1.79-2.98,1.1-.61,2.72-.67,3.53-.67,.49,0,.79,.02,1.38,.06,0-1.26,0-1.81-.37-2.25-.39-.51-1.22-.67-1.77-.67-1.93,0-2.03,1.32-2.05,1.73h-1.91c.06-.53,.12-1.24,.71-1.93,.77-.85,2.21-1.1,3.29-1.1,1.48,0,3.07,.47,3.61,1.5,.33,.61,.35,1.1,.35,1.56l-.08,4.87c0,.16,.02,1.52,.16,2.56h-1.73Zm-1.32-5.02c-.77,0-3.68,0-3.68,2.07,0,.65,.41,1.77,2.11,1.77,.98,0,1.71-.39,2.17-1.1,.43-.69,.45-1.26,.49-2.68-.35-.04-.63-.06-1.1-.06Z"/><path class="cls-7" d="M1050.39,83.27h1.91v13.02c0,.22,.04,1.1,.08,1.62h-1.91l-.04-1.62c-.16,.28-.39,.71-.91,1.08-.83,.57-1.83,.75-2.52,.75-1.36,0-4.39-.71-4.39-5.18,0-3.88,2.21-5.56,4.61-5.56,2.19,0,2.92,1.3,3.17,1.73v-5.83Zm-.71,6.56c-.41-.53-1.16-1.04-2.23-1.04-2.8,0-2.8,3.39-2.8,4.08,0,1.81,.47,3.9,2.8,3.9,3,0,3-3.31,3-4.1,0-1.48-.35-2.29-.77-2.84Z"/><path class="cls-7" d="M1061.31,89.38c0-.45-.02-.69-.06-1.67h1.93l.04,1.69c.95-1.6,2.64-1.85,3.47-1.85,2.19,0,4.28,1.5,4.28,5.28s-2.21,5.46-4.65,5.46c-1.48,0-2.58-.63-3.13-1.52v5.06h-1.89v-12.45Zm4.69,7.51c.49,0,1.5-.1,2.15-1,.73-.99,.83-2.46,.83-3.19,0-1.83-.55-3.74-2.8-3.74-3.05,0-3.05,3.23-3.05,4.14,0,1.24,.18,3.78,2.86,3.78Z"/><path class="cls-7" d="M1078.21,87.46c4.08,0,5,3.21,5,5.34,0,2.98-1.69,5.46-5.16,5.46s-5.02-2.33-5.02-5.32c0-2.52,1.18-5.48,5.18-5.48Zm-.12,9.38c1.44,0,3.09-1.04,3.09-4.1,0-2.54-1.18-3.88-2.96-3.88-1.22,0-3.19,.77-3.19,3.96,0,2.09,.89,4.02,3.07,4.02Z"/><path class="cls-7" d="M1086.29,89.79c0-.69-.04-1.4-.1-2.07h1.93l.04,1.97c.37-1.42,1.59-1.89,2.44-2.01,.57-.08,.99-.06,1.32-.04v1.87c-.1-.04-.22-.06-.37-.08-.14-.02-.33-.02-.55-.02-2.25,0-2.78,1.34-2.78,3.09v5.42h-1.93v-8.12Z"/><path class="cls-7" d="M1105.95,97.91c-.14-.51-.18-1-.18-1.52-.91,1.69-2.29,1.85-3.15,1.85-2.33,0-3.59-1.32-3.59-3,0-.81,.28-2.11,1.79-2.98,1.1-.61,2.72-.67,3.53-.67,.49,0,.79,.02,1.38,.06,0-1.26,0-1.81-.37-2.25-.39-.51-1.22-.67-1.77-.67-1.93,0-2.03,1.32-2.05,1.73h-1.91c.06-.53,.12-1.24,.71-1.93,.77-.85,2.21-1.1,3.29-1.1,1.48,0,3.07,.47,3.61,1.5,.33,.61,.35,1.1,.35,1.56l-.08,4.87c0,.16,.02,1.52,.16,2.56h-1.73Zm-1.32-5.02c-.77,0-3.68,0-3.68,2.07,0,.65,.41,1.77,2.11,1.77,.98,0,1.71-.39,2.17-1.1,.43-.69,.45-1.26,.49-2.68-.35-.04-.63-.06-1.1-.06Z"/><path class="cls-7" d="M1111.09,88.9l-.02-1.18h1.91l.02,1.65c.22-.43,.96-1.85,3.27-1.85,.91,0,3.7,.35,3.7,3.47v6.92h-1.95v-6.48c0-.67-.08-1.28-.55-1.75-.49-.47-1.16-.69-1.81-.69-1.38,0-2.66,1-2.66,3.05v5.87h-1.91v-9.02Zm1.5-3.41c.02-.57,.2-1.08,.49-1.42,.31-.37,.73-.57,1.24-.57,.3,0,.45,.04,1.56,.34,.3,.08,.51,.14,.75,.14,.49,0,.75-.3,.75-.75h.83c.04,1.56-.98,2.05-1.71,2.05-.37,0-.69-.08-1.28-.26-.41-.1-.89-.26-1.02-.26-.31,0-.59,.14-.77,.73h-.85Z"/><path class="cls-7" d="M1127.86,87.46c4.08,0,5,3.21,5,5.34,0,2.98-1.69,5.46-5.16,5.46s-5.02-2.33-5.02-5.32c0-2.52,1.18-5.48,5.18-5.48Zm-.12,9.38c1.44,0,3.09-1.04,3.09-4.1,0-2.54-1.18-3.88-2.96-3.88-1.22,0-3.19,.77-3.19,3.96,0,2.09,.89,4.02,3.07,4.02Z"/></g><g><g pointer-events="none"><path class="cls-2" d="M1051.45,162.53c0,21.32-17.28,38.61-38.61,38.61-21.32,0-38.61-17.28-38.61-38.61h0c0-21.33,17.28-38.62,38.61-38.62,21.32,0,38.61,17.28,38.61,38.61h0"/></g><g pointer-events="none"><path class="cls-2" d="M1044.37,169.62c0,17.41-14.11,31.52-31.52,31.52s-31.52-14.11-31.52-31.52,14.11-31.52,31.52-31.52,31.52,14.11,31.52,31.52"/></g><g pointer-events="none"><path class="cls-2" d="M1035.13,178.85c0,12.31-9.98,22.29-22.29,22.29-12.31,0-22.29-9.98-22.29-22.29h0c0-12.32,9.98-22.3,22.29-22.3,12.31,0,22.29,9.98,22.29,22.29h0"/></g><line class="cls-1" x1="1013.37" y1="123.92" x2="1129.01" y2="123.92"/><line class="cls-1" x1="1013.37" y1="138.51" x2="1129.01" y2="138.51"/><line class="cls-1" x1="1013.37" y1="156.55" x2="1129.01" y2="156.55"/><g><path class="cls-7" d="M1141.91,117.57c1.04-.42,2-1.12,2.79-1.92h1.09v12.16h-1.14v-10.93c-.81,.77-1.76,1.35-2.74,1.83v-1.14Z"/><path class="cls-7" d="M1150.38,115.66h6.69v1.05h-5.6l-.19,4.34,.04,.04c.68-.79,1.58-1.28,2.67-1.28,2.28,0,3.71,1.88,3.71,4.06,0,2.34-1.49,4.22-3.9,4.22-2.06,0-3.86-.95-3.94-3.25h1.23c.07,1.46,1.19,2.2,2.58,2.2,1.9,0,2.79-1.46,2.79-3.22s-.9-2.95-2.72-2.95c-1.16,0-2.21,.7-2.46,1.84h-1.18l.28-7.05Z"/><path class="cls-7" d="M1167.46,121.74c0,3.09-.72,6.34-4.04,6.34s-4.04-3.25-4.04-6.34,.72-6.34,4.04-6.34,4.04,3.25,4.04,6.34Zm-6.85,0c0,1.81,.23,5.29,2.81,5.29s2.81-3.48,2.81-5.29-.23-5.29-2.81-5.29-2.81,3.48-2.81,5.29Z"/></g><g><path class="cls-7" d="M1141.29,154.22h6.69v1.05h-5.6l-.19,4.34,.04,.04c.68-.79,1.58-1.28,2.67-1.28,2.28,0,3.71,1.88,3.71,4.06,0,2.34-1.49,4.22-3.9,4.22-2.06,0-3.86-.95-3.94-3.25h1.23c.07,1.46,1.19,2.2,2.58,2.2,1.9,0,2.79-1.46,2.79-3.22s-.9-2.95-2.72-2.95c-1.16,0-2.21,.7-2.46,1.84h-1.18l.28-7.05Z"/><path class="cls-7" d="M1158.37,160.3c0,3.09-.72,6.34-4.04,6.34s-4.04-3.25-4.04-6.34,.72-6.34,4.04-6.34,4.04,3.25,4.04,6.34Zm-6.85,0c0,1.81,.23,5.29,2.81,5.29s2.81-3.48,2.81-5.29-.23-5.29-2.81-5.29-2.81,3.48-2.81,5.29Z"/></g><g><path class="cls-7" d="M1139.87,136.76c1.04-.42,2-1.12,2.79-1.92h1.09v12.16h-1.14v-10.93c-.81,.77-1.76,1.35-2.74,1.83v-1.14Z"/><path class="cls-7" d="M1155.21,140.92c0,3.09-.72,6.34-4.04,6.34s-4.04-3.25-4.04-6.34,.72-6.34,4.04-6.34,4.04,3.25,4.04,6.34Zm-6.85,0c0,1.81,.23,5.29,2.81,5.29s2.81-3.48,2.81-5.29-.23-5.29-2.81-5.29-2.81,3.48-2.81,5.29Z"/><path class="cls-7" d="M1165.33,140.92c0,3.09-.72,6.34-4.04,6.34s-4.04-3.25-4.04-6.34,.72-6.34,4.04-6.34,4.04,3.25,4.04,6.34Zm-6.85,0c0,1.81,.23,5.29,2.81,5.29s2.81-3.48,2.81-5.29-.23-5.29-2.81-5.29-2.81,3.48-2.81,5.29Z"/></g></g><g><path class="cls-7" d="M33.89,26.21c-5.1,0-7.23,4.41-7.23,8.73s2.13,8.76,7.23,8.76c4.5,0,6.24-3.06,6.42-5.76h2.7c-.48,4.74-3.84,8.16-9.12,8.16-5.88,0-9.93-4.68-9.93-11.16s4.05-11.13,9.93-11.13c5.25,0,8.61,3.42,9.12,7.5h-2.7c-.39-2.04-1.95-5.1-6.42-5.1Z"/><path class="cls-7" d="M53.81,46.1c-4.68,0-7.5-3.3-7.5-8.07s2.82-8.07,7.5-8.07,7.47,3.3,7.47,8.07-2.82,8.07-7.47,8.07Zm0-2.1c3.42,0,5.07-2.7,5.07-5.97s-1.65-5.97-5.07-5.97-5.1,2.7-5.1,5.97,1.65,5.97,5.1,5.97Z"/><path class="cls-7" d="M67.7,24.23v21.45h-2.4V24.23h2.4Z"/><path class="cls-7" d="M83.57,40.97h2.4c-.78,2.85-2.97,5.13-6.78,5.13-4.65,0-7.47-3.27-7.47-8.07,0-5.1,2.88-8.07,7.35-8.07,4.8,0,7.14,3.27,7.14,8.7h-12.09c0,2.76,1.65,5.34,4.98,5.34,3.06,0,4.2-1.98,4.47-3.03Zm-9.45-4.41h9.69c0-2.46-1.86-4.5-4.74-4.5s-4.95,2.04-4.95,4.5Z"/><path class="cls-7" d="M96.62,32.06c-3.63,0-5.01,3.09-5.01,5.97s1.38,5.97,5.01,5.97c3.09,0,4.2-2.13,4.32-3.96h2.4c-.21,3.48-2.94,6.06-6.72,6.06-4.47,0-7.41-3.27-7.41-8.07s2.94-8.07,7.41-8.07c3.78,0,6.36,2.52,6.72,5.94h-2.4c-.12-1.68-1.26-3.84-4.32-3.84Z"/><path class="cls-7" d="M113.69,32.06c-3.63,0-5.01,3.09-5.01,5.97s1.38,5.97,5.01,5.97c3.09,0,4.2-2.13,4.32-3.96h2.4c-.21,3.48-2.94,6.06-6.72,6.06-4.47,0-7.41-3.27-7.41-8.07s2.94-8.07,7.41-8.07c3.78,0,6.36,2.52,6.72,5.94h-2.4c-.12-1.68-1.26-3.84-4.32-3.84Z"/><path class="cls-7" d="M124.22,25.97c0-.93,.84-1.44,1.5-1.44s1.5,.51,1.5,1.44-.81,1.44-1.5,1.44-1.5-.51-1.5-1.44Zm2.7,4.41v15.3h-2.4v-15.3h2.4Z"/><path class="cls-7" d="M138.65,46.1c-4.68,0-7.5-3.3-7.5-8.07s2.82-8.07,7.5-8.07,7.47,3.3,7.47,8.07-2.82,8.07-7.47,8.07Zm0-2.1c3.42,0,5.07-2.7,5.07-5.97s-1.65-5.97-5.07-5.97-5.1,2.7-5.1,5.97,1.65,5.97,5.1,5.97Z"/><path class="cls-7" d="M162.68,35v10.68h-2.4v-10.08c0-1.98-.93-3.54-3.33-3.54-2.7,0-4.5,1.71-4.5,4.08v9.54h-2.4v-15.3h2.4v1.83h.06c.81-1.08,2.43-2.25,5.04-2.25,2.79,0,5.13,1.53,5.13,5.04Z"/><path class="cls-7" d="M178.37,40.97h2.4c-.78,2.85-2.97,5.13-6.78,5.13-4.65,0-7.47-3.27-7.47-8.07,0-5.1,2.88-8.07,7.35-8.07,4.8,0,7.14,3.27,7.14,8.7h-12.09c0,2.76,1.65,5.34,4.98,5.34,3.06,0,4.2-1.98,4.47-3.03Zm-9.45-4.41h9.69c0-2.46-1.86-4.5-4.74-4.5s-4.95,2.04-4.95,4.5Z"/><path class="cls-7" d="M196.91,41.48c0,2.79-2.55,4.62-6.03,4.62-4.68,0-6.84-2.22-6.99-5.52h2.4c.15,1.71,.75,3.42,4.59,3.42,2.61,0,3.63-1.35,3.63-2.37,0-2.22-2.01-2.34-4.2-2.88-2.34-.57-5.82-.84-5.82-4.44,0-2.4,2.13-4.35,5.73-4.35,3.81,0,5.85,2.16,6.09,4.8h-2.4c-.24-1.17-.81-2.7-3.69-2.7-2.16,0-3.33,.87-3.33,2.07,0,1.8,2.07,1.95,4.2,2.46,2.73,.66,5.82,1.11,5.82,4.89Z"/><path class="cls-7" d="M214.79,32.06c-3.63,0-5.01,3.09-5.01,5.97s1.38,5.97,5.01,5.97c3.09,0,4.2-2.13,4.32-3.96h2.4c-.21,3.48-2.94,6.06-6.72,6.06-4.47,0-7.41-3.27-7.41-8.07s2.94-8.07,7.41-8.07c3.78,0,6.36,2.52,6.72,5.94h-2.4c-.12-1.68-1.26-3.84-4.32-3.84Z"/><path class="cls-7" d="M231.95,46.1c-4.68,0-7.5-3.3-7.5-8.07s2.82-8.07,7.5-8.07,7.47,3.3,7.47,8.07-2.82,8.07-7.47,8.07Zm0-2.1c3.42,0,5.07-2.7,5.07-5.97s-1.65-5.97-5.07-5.97-5.1,2.7-5.1,5.97,1.65,5.97,5.1,5.97Z"/><path class="cls-7" d="M255.98,35v10.68h-2.4v-10.08c0-1.98-.93-3.54-3.33-3.54-2.7,0-4.5,1.71-4.5,4.08v9.54h-2.4v-15.3h2.4v1.83h.06c.81-1.08,2.43-2.25,5.04-2.25,2.79,0,5.13,1.53,5.13,5.04Z"/><path class="cls-7" d="M280.82,35v10.68h-2.4v-10.08c0-1.98-.93-3.54-3.33-3.54-2.7,0-4.5,1.71-4.5,4.08v9.54h-2.4v-15.3h2.4v1.83h.06c.81-1.08,2.43-2.25,5.04-2.25,2.79,0,5.13,1.53,5.13,5.04Z"/><path class="cls-7" d="M292.16,46.1c-4.68,0-7.5-3.3-7.5-8.07s2.82-8.07,7.5-8.07,7.47,3.3,7.47,8.07-2.82,8.07-7.47,8.07Zm0-2.1c3.42,0,5.07-2.7,5.07-5.97s-1.65-5.97-5.07-5.97-5.1,2.7-5.1,5.97,1.65,5.97,5.1,5.97Z"/><path class="cls-7" d="M324.14,35v10.68h-2.4v-10.08c0-1.98-.39-3.54-2.79-3.54s-3.9,1.71-3.9,4.08v9.54h-2.4v-10.08c0-1.98-.39-3.54-2.79-3.54s-3.9,1.71-3.9,4.08v9.54h-2.4v-15.3h2.4v1.83h.06c.81-1.08,2.13-2.25,4.44-2.25,2.19,0,3.45,.93,4.08,2.64h.06c1.05-1.44,2.64-2.64,4.95-2.64,3.09,0,4.59,1.83,4.59,5.04Z"/><path class="cls-7" d="M343.01,38.03c0,5.04-3.06,8.07-6.9,8.07-2.46,0-3.9-1.14-4.8-2.31h-.06v1.89h-2.4V24.23h2.4v8.13h.06c.9-1.32,2.34-2.4,4.8-2.4,3.84,0,6.9,3.03,6.9,8.07Zm-2.4,0c0-3-1.59-5.97-4.74-5.97-2.85,0-4.62,2.37-4.62,5.97s1.77,5.97,4.62,5.97c3.15,0,4.74-2.97,4.74-5.97Z"/><path class="cls-7" d="M355.04,30.05v2.4h-.06c-3.33-.54-5.64,1.8-5.64,5.07v8.16h-2.4v-15.3h2.4v3.03h.06c.81-2.01,2.04-3.45,4.23-3.45,.57,0,.99,.03,1.41,.09Z"/><path class="cls-7" d="M369.11,40.97h2.4c-.78,2.85-2.97,5.13-6.78,5.13-4.65,0-7.47-3.27-7.47-8.07,0-5.1,2.88-8.07,7.35-8.07,4.8,0,7.14,3.27,7.14,8.7h-12.09c0,2.76,1.65,5.34,4.98,5.34,3.06,0,4.2-1.98,4.47-3.03Zm-9.45-4.41h9.69c0-2.46-1.86-4.5-4.74-4.5s-4.95,2.04-4.95,4.5Z"/><path class="cls-7" d="M396.41,24.23v21.45h-2.4v-1.89h-.06c-.9,1.17-2.34,2.31-4.8,2.31-3.84,0-6.9-3.03-6.9-8.07s3.06-8.07,6.9-8.07c2.46,0,3.9,1.08,4.8,2.4h.06v-8.13h2.4Zm-2.4,13.8c0-3.6-1.77-5.97-4.62-5.97-3.15,0-4.74,2.97-4.74,5.97s1.59,5.97,4.74,5.97c2.85,0,4.62-2.37,4.62-5.97Z"/><path class="cls-7" d="M412.19,40.97h2.4c-.78,2.85-2.97,5.13-6.78,5.13-4.65,0-7.47-3.27-7.47-8.07,0-5.1,2.88-8.07,7.35-8.07,4.8,0,7.14,3.27,7.14,8.7h-12.09c0,2.76,1.65,5.34,4.98,5.34,3.06,0,4.2-1.98,4.47-3.03Zm-9.45-4.41h9.69c0-2.46-1.86-4.5-4.74-4.5s-4.95,2.04-4.95,4.5Z"/><path class="cls-7" d="M421.19,24.23v21.45h-2.4V24.23h2.4Z"/><path class="cls-7" d="M446.87,24.23v21.45h-2.4v-1.89h-.06c-.9,1.17-2.34,2.31-4.8,2.31-3.84,0-6.9-3.03-6.9-8.07s3.06-8.07,6.9-8.07c2.46,0,3.9,1.08,4.8,2.4h.06v-8.13h2.4Zm-2.4,13.8c0-3.6-1.77-5.97-4.62-5.97-3.15,0-4.74,2.97-4.74,5.97s1.59,5.97,4.74,5.97c2.85,0,4.62-2.37,4.62-5.97Z"/><path class="cls-7" d="M451.37,25.97c0-.93,.84-1.44,1.5-1.44s1.5,.51,1.5,1.44-.81,1.44-1.5,1.44-1.5-.51-1.5-1.44Zm2.7,4.41v15.3h-2.4v-15.3h2.4Z"/><path class="cls-7" d="M467.26,30.05v2.4h-.06c-3.33-.54-5.64,1.8-5.64,5.07v8.16h-2.4v-15.3h2.4v3.03h.06c.81-2.01,2.04-3.45,4.23-3.45,.57,0,.99,.03,1.41,.09Z"/><path class="cls-7" d="M470.95,25.97c0-.93,.84-1.44,1.5-1.44s1.5,.51,1.5,1.44-.81,1.44-1.5,1.44-1.5-.51-1.5-1.44Zm2.7,4.41v15.3h-2.4v-15.3h2.4Z"/><path class="cls-7" d="M492.04,30.38v14.46c0,4.08-2.58,6.15-6.78,6.15s-6.69-2.22-6.93-4.83h2.4c.3,1.56,1.56,2.73,4.41,2.73s4.5-1.23,4.5-4.08v-2.31h-.06c-.9,1.32-2.34,2.4-4.86,2.4-3.78,0-6.84-2.43-6.84-7.47s3.06-7.47,6.84-7.47c2.52,0,3.96,1.14,4.86,2.31h.06v-1.89h2.4Zm-2.4,7.05c0-3.6-1.77-5.37-4.62-5.37-3.15,0-4.74,2.37-4.74,5.37s1.59,5.37,4.74,5.37c2.85,0,4.62-1.77,4.62-5.37Z"/><path class="cls-7" d="M507.82,40.97h2.4c-.78,2.85-2.97,5.13-6.78,5.13-4.65,0-7.47-3.27-7.47-8.07,0-5.1,2.88-8.07,7.35-8.07,4.8,0,7.14,3.27,7.14,8.7h-12.09c0,2.76,1.65,5.34,4.98,5.34,3.06,0,4.2-1.98,4.47-3.03Zm-9.45-4.41h9.69c0-2.46-1.86-4.5-4.74-4.5s-4.95,2.04-4.95,4.5Z"/><path class="cls-7" d="M526.96,35v10.68h-2.4v-10.08c0-1.98-.93-3.54-3.33-3.54-2.7,0-4.5,1.71-4.5,4.08v9.54h-2.4v-15.3h2.4v1.83h.06c.81-1.08,2.43-2.25,5.04-2.25,2.79,0,5.13,1.53,5.13,5.04Z"/><path class="cls-7" d="M535.03,32.48v9.21c0,1.74,.96,2.04,3,1.89v2.1c-.54,.12-1.17,.18-1.8,.18-2.04,0-3.6-.81-3.6-3.93v-9.45h-2.25v-2.1h2.25v-5.1h2.4v5.1h3v2.1h-3Z"/><path class="cls-7" d="M552.88,40.97h2.4c-.78,2.85-2.97,5.13-6.78,5.13-4.65,0-7.47-3.27-7.47-8.07,0-5.1,2.88-8.07,7.35-8.07,4.8,0,7.14,3.27,7.14,8.7h-12.09c0,2.76,1.65,5.34,4.98,5.34,3.06,0,4.2-1.98,4.47-3.03Zm-9.45-4.41h9.69c0-2.46-1.86-4.5-4.74-4.5s-4.95,2.04-4.95,4.5Z"/><path class="cls-7" d="M573.13,32.06c-2.91,0-3.87,.84-4.02,3.06h-2.4c.15-2.94,1.98-5.16,6.42-5.16,2.91,0,5.52,1.14,5.52,4.83v7.44c0,1.2,.21,1.86,1.74,1.68v1.68c-.63,.21-.96,.24-1.41,.24-1.44,0-2.31-.39-2.73-2.07h-.06c-.96,1.44-2.67,2.34-5.19,2.34-3.09,0-5.04-1.77-5.04-4.35,0-3.48,2.58-4.38,6.54-5.13,2.58-.48,3.75-.81,3.75-2.34,0-1.2-.66-2.22-3.12-2.22Zm3.12,7.71v-2.55c-.45,.45-1.92,.87-3.54,1.2-2.97,.63-4.35,1.38-4.35,3.21,0,1.5,.9,2.37,2.88,2.37,2.85,0,5.01-1.29,5.01-4.23Z"/><path class="cls-7" d="M595.72,41.48c0,2.79-2.55,4.62-6.03,4.62-4.68,0-6.84-2.22-6.99-5.52h2.4c.15,1.71,.75,3.42,4.59,3.42,2.61,0,3.63-1.35,3.63-2.37,0-2.22-2.01-2.34-4.2-2.88-2.34-.57-5.82-.84-5.82-4.44,0-2.4,2.13-4.35,5.73-4.35,3.81,0,5.85,2.16,6.09,4.8h-2.4c-.24-1.17-.81-2.7-3.69-2.7-2.16,0-3.33,.87-3.33,2.07,0,1.8,2.07,1.95,4.2,2.46,2.73,.66,5.82,1.11,5.82,4.89Z"/><path class="cls-7" d="M606.49,46.1c-4.68,0-7.5-3.3-7.5-8.07s2.82-8.07,7.5-8.07,7.47,3.3,7.47,8.07-2.82,8.07-7.47,8.07Zm0-2.1c3.42,0,5.07-2.7,5.07-5.97s-1.65-5.97-5.07-5.97-5.1,2.7-5.1,5.97,1.65,5.97,5.1,5.97Z"/><path class="cls-7" d="M624.43,32.06c-3.63,0-5.01,3.09-5.01,5.97s1.38,5.97,5.01,5.97c3.09,0,4.2-2.13,4.32-3.96h2.4c-.21,3.48-2.94,6.06-6.72,6.06-4.47,0-7.41-3.27-7.41-8.07s2.94-8.07,7.41-8.07c3.78,0,6.36,2.52,6.72,5.94h-2.4c-.12-1.68-1.26-3.84-4.32-3.84Z"/><path class="cls-7" d="M634.96,25.97c0-.93,.84-1.44,1.5-1.44s1.5,.51,1.5,1.44-.81,1.44-1.5,1.44-1.5-.51-1.5-1.44Zm2.7,4.41v15.3h-2.4v-15.3h2.4Z"/><path class="cls-7" d="M649,32.06c-2.91,0-3.87,.84-4.02,3.06h-2.4c.15-2.94,1.98-5.16,6.42-5.16,2.91,0,5.52,1.14,5.52,4.83v7.44c0,1.2,.21,1.86,1.74,1.68v1.68c-.63,.21-.96,.24-1.41,.24-1.44,0-2.31-.39-2.73-2.07h-.06c-.96,1.44-2.67,2.34-5.19,2.34-3.09,0-5.04-1.77-5.04-4.35,0-3.48,2.58-4.38,6.54-5.13,2.58-.48,3.75-.81,3.75-2.34,0-1.2-.66-2.22-3.12-2.22Zm3.12,7.71v-2.55c-.45,.45-1.92,.87-3.54,1.2-2.97,.63-4.35,1.38-4.35,3.21,0,1.5,.9,2.37,2.88,2.37,2.85,0,5.01-1.29,5.01-4.23Z"/><path class="cls-7" d="M672.85,24.23v21.45h-2.4v-1.89h-.06c-.9,1.17-2.34,2.31-4.8,2.31-3.84,0-6.9-3.03-6.9-8.07s3.06-8.07,6.9-8.07c2.46,0,3.9,1.08,4.8,2.4h.06v-8.13h2.4Zm-2.4,13.8c0-3.6-1.77-5.97-4.62-5.97-3.15,0-4.74,2.97-4.74,5.97s1.59,5.97,4.74,5.97c2.85,0,4.62-2.37,4.62-5.97Z"/><path class="cls-7" d="M684.28,46.1c-4.68,0-7.5-3.3-7.5-8.07s2.82-8.07,7.5-8.07,7.47,3.3,7.47,8.07-2.82,8.07-7.47,8.07Zm0-2.1c3.42,0,5.07-2.7,5.07-5.97s-1.65-5.97-5.07-5.97-5.1,2.7-5.1,5.97,1.65,5.97,5.1,5.97Z"/><path class="cls-7" d="M709.42,32.06c-2.91,0-3.87,.84-4.02,3.06h-2.4c.15-2.94,1.98-5.16,6.42-5.16,2.91,0,5.52,1.14,5.52,4.83v7.44c0,1.2,.21,1.86,1.74,1.68v1.68c-.63,.21-.96,.24-1.41,.24-1.44,0-2.31-.39-2.73-2.07h-.06c-.96,1.44-2.67,2.34-5.19,2.34-3.09,0-5.04-1.77-5.04-4.35,0-3.48,2.58-4.38,6.54-5.13,2.58-.48,3.75-.81,3.75-2.34,0-1.2-.66-2.22-3.12-2.22Zm3.12,7.71v-2.55c-.45,.45-1.92,.87-3.54,1.2-2.97,.63-4.35,1.38-4.35,3.21,0,1.5,.9,2.37,2.88,2.37,2.85,0,5.01-1.29,5.01-4.23Z"/><path class="cls-7" d="M722.47,24.23v21.45h-2.4V24.23h2.4Z"/><path class="cls-7" d="M738.52,32.48v9.21c0,1.74,.96,2.04,3,1.89v2.1c-.54,.12-1.17,.18-1.8,.18-2.04,0-3.6-.81-3.6-3.93v-9.45h-2.25v-2.1h2.25v-5.1h2.4v5.1h3v2.1h-3Z"/><path class="cls-7" d="M747.19,30.38v15.3h-2.4v-15.3h2.4Zm1.92-6.45l-2.19,3.81h-1.95l1.29-3.81h2.85Z"/><path class="cls-7" d="M754.9,32.48v9.21c0,1.74,.96,2.04,3,1.89v2.1c-.54,.12-1.17,.18-1.8,.18-2.04,0-3.6-.81-3.6-3.93v-9.45h-2.25v-2.1h2.25v-5.1h2.4v5.1h3v2.1h-3Z"/><path class="cls-7" d="M774.46,30.38v15.3h-2.4v-1.83h-.06c-.81,1.08-2.43,2.25-5.04,2.25-2.79,0-5.13-1.53-5.13-5.04v-10.68h2.4v10.08c0,1.98,.93,3.54,3.33,3.54,2.7,0,4.5-1.71,4.5-4.08v-9.54h2.4Z"/><path class="cls-7" d="M781.75,24.23v21.45h-2.4V24.23h2.4Z"/><path class="cls-7" d="M793.27,46.1c-4.68,0-7.5-3.3-7.5-8.07s2.82-8.07,7.5-8.07,7.47,3.3,7.47,8.07-2.82,8.07-7.47,8.07Zm0-2.1c3.42,0,5.07-2.7,5.07-5.97s-1.65-5.97-5.07-5.97-5.1,2.7-5.1,5.97,1.65,5.97,5.1,5.97Z"/><path class="cls-7" d="M825.46,24.23v21.45h-2.4v-1.89h-.06c-.9,1.17-2.34,2.31-4.8,2.31-3.84,0-6.9-3.03-6.9-8.07s3.06-8.07,6.9-8.07c2.46,0,3.9,1.08,4.8,2.4h.06v-8.13h2.4Zm-2.4,13.8c0-3.6-1.77-5.97-4.62-5.97-3.15,0-4.74,2.97-4.74,5.97s1.59,5.97,4.74,5.97c2.85,0,4.62-2.37,4.62-5.97Z"/><path class="cls-7" d="M841.24,40.97h2.4c-.78,2.85-2.97,5.13-6.78,5.13-4.65,0-7.47-3.27-7.47-8.07,0-5.1,2.88-8.07,7.35-8.07,4.8,0,7.14,3.27,7.14,8.7h-12.09c0,2.76,1.65,5.34,4.98,5.34,3.06,0,4.2-1.98,4.47-3.03Zm-9.45-4.41h9.69c0-2.46-1.86-4.5-4.74-4.5s-4.95,2.04-4.95,4.5Z"/><path class="cls-7" d="M857.74,24.23v21.45h-2.4V24.23h2.4Z"/><path class="cls-7" d="M868.87,32.06c-2.91,0-3.87,.84-4.02,3.06h-2.4c.15-2.94,1.98-5.16,6.42-5.16,2.91,0,5.52,1.14,5.52,4.83v7.44c0,1.2,.21,1.86,1.74,1.68v1.68c-.63,.21-.96,.24-1.41,.24-1.44,0-2.31-.39-2.73-2.07h-.06c-.96,1.44-2.67,2.34-5.19,2.34-3.09,0-5.04-1.77-5.04-4.35,0-3.48,2.58-4.38,6.54-5.13,2.58-.48,3.75-.81,3.75-2.34,0-1.2-.66-2.22-3.12-2.22Zm3.12,7.71v-2.55c-.45,.45-1.92,.87-3.54,1.2-2.97,.63-4.35,1.38-4.35,3.21,0,1.5,.9,2.37,2.88,2.37,2.85,0,5.01-1.29,5.01-4.23Z"/><path class="cls-7" d="M30.95,68.06c-3.63,0-5.01,3.09-5.01,5.97s1.38,5.97,5.01,5.97c3.09,0,4.2-2.13,4.32-3.96h2.4c-.21,3.48-2.94,6.06-6.72,6.06-4.47,0-7.41-3.27-7.41-8.07s2.94-8.07,7.41-8.07c3.78,0,6.36,2.52,6.72,5.94h-2.4c-.12-1.68-1.26-3.84-4.32-3.84Z"/><path class="cls-7" d="M48.11,82.1c-4.68,0-7.5-3.3-7.5-8.07s2.82-8.07,7.5-8.07,7.47,3.3,7.47,8.07-2.82,8.07-7.47,8.07Zm0-2.1c3.42,0,5.07-2.7,5.07-5.97s-1.65-5.97-5.07-5.97-5.1,2.7-5.1,5.97,1.65,5.97,5.1,5.97Z"/><path class="cls-7" d="M62,60.23v21.45h-2.4v-21.45h2.4Z"/><path class="cls-7" d="M77.87,76.97h2.4c-.78,2.85-2.97,5.13-6.78,5.13-4.65,0-7.47-3.27-7.47-8.07,0-5.1,2.88-8.07,7.35-8.07,4.8,0,7.14,3.27,7.14,8.7h-12.09c0,2.76,1.65,5.34,4.98,5.34,3.06,0,4.2-1.98,4.47-3.03Zm-9.45-4.41h9.69c0-2.46-1.86-4.5-4.74-4.5s-4.95,2.04-4.95,4.5Z"/><path class="cls-7" d="M90.92,68.06c-3.63,0-5.01,3.09-5.01,5.97s1.38,5.97,5.01,5.97c3.09,0,4.2-2.13,4.32-3.96h2.4c-.21,3.48-2.94,6.06-6.72,6.06-4.47,0-7.41-3.27-7.41-8.07s2.94-8.07,7.41-8.07c3.78,0,6.36,2.52,6.72,5.94h-2.4c-.12-1.68-1.26-3.84-4.32-3.84Z"/><path class="cls-7" d="M107.99,68.06c-3.63,0-5.01,3.09-5.01,5.97s1.38,5.97,5.01,5.97c3.09,0,4.2-2.13,4.32-3.96h2.4c-.21,3.48-2.94,6.06-6.72,6.06-4.47,0-7.41-3.27-7.41-8.07s2.94-8.07,7.41-8.07c3.78,0,6.36,2.52,6.72,5.94h-2.4c-.12-1.68-1.26-3.84-4.32-3.84Z"/><path class="cls-7" d="M118.52,61.97c0-.93,.84-1.44,1.5-1.44s1.5,.51,1.5,1.44-.81,1.44-1.5,1.44-1.5-.51-1.5-1.44Zm2.7,4.41v15.3h-2.4v-15.3h2.4Z"/><path class="cls-7" d="M132.95,82.1c-4.68,0-7.5-3.3-7.5-8.07s2.82-8.07,7.5-8.07,7.47,3.3,7.47,8.07-2.82,8.07-7.47,8.07Zm0-2.1c3.42,0,5.07-2.7,5.07-5.97s-1.65-5.97-5.07-5.97-5.1,2.7-5.1,5.97,1.65,5.97,5.1,5.97Zm.27-20.07l-1.29,3.81h1.95l2.19-3.81h-2.85Z"/><path class="cls-7" d="M156.98,71v10.68h-2.4v-10.08c0-1.98-.93-3.54-3.33-3.54-2.7,0-4.5,1.71-4.5,4.08v9.54h-2.4v-15.3h2.4v1.83h.06c.81-1.08,2.43-2.25,5.04-2.25,2.79,0,5.13,1.53,5.13,5.04Z"/><path class="cls-7" d="M161.36,80.33c0-1.14,.72-1.74,1.62-1.74,1.11,0,1.68,.93,1.68,2.34,0,1.59-.66,4.14-3,4.56v-1.5c.93-.21,1.5-1.02,1.5-2.13-.93,.3-1.8-.21-1.8-1.53Z"/><path class="cls-7" d="M187.61,76.97h2.4c-.78,2.85-2.97,5.13-6.78,5.13-4.65,0-7.47-3.27-7.47-8.07,0-5.1,2.88-8.07,7.35-8.07,4.8,0,7.14,3.27,7.14,8.7h-12.09c0,2.76,1.65,5.34,4.98,5.34,3.06,0,4.2-1.98,4.47-3.03Zm-9.45-4.41h9.69c0-2.46-1.86-4.5-4.74-4.5s-4.95,2.04-4.95,4.5Z"/><path class="cls-7" d="M206.75,71v10.68h-2.4v-10.08c0-1.98-.93-3.54-3.33-3.54-2.7,0-4.5,1.71-4.5,4.08v9.54h-2.4v-15.3h2.4v1.83h.06c.81-1.08,2.43-2.25,5.04-2.25,2.79,0,5.13,1.53,5.13,5.04Z"/><path class="cls-7" d="M229.94,76.97h2.4c-.78,2.85-2.97,5.13-6.78,5.13-4.65,0-7.47-3.27-7.47-8.07,0-5.1,2.88-8.07,7.35-8.07,4.8,0,7.14,3.27,7.14,8.7h-12.09c0,2.76,1.65,5.34,4.98,5.34,3.06,0,4.2-1.98,4.47-3.03Zm-9.45-4.41h9.69c0-2.46-1.86-4.5-4.74-4.5s-4.95,2.04-4.95,4.5Z"/><path class="cls-7" d="M238.94,60.23v21.45h-2.4v-21.45h2.4Z"/><path class="cls-7" d="M254.99,68.48v9.21c0,1.74,.96,2.04,3,1.89v2.1c-.54,.12-1.17,.18-1.8,.18-2.04,0-3.6-.81-3.6-3.93v-9.45h-2.25v-2.1h2.25v-5.1h2.4v5.1h3v2.1h-3Z"/><path class="cls-7" d="M262.01,61.97c0-.93,.84-1.44,1.5-1.44s1.5,.51,1.5,1.44-.81,1.44-1.5,1.44-1.5-.51-1.5-1.44Zm2.7,4.41v15.3h-2.4v-15.3h2.4Z"/><path class="cls-7" d="M280.79,76.97h2.4c-.78,2.85-2.97,5.13-6.78,5.13-4.65,0-7.47-3.27-7.47-8.07,0-5.1,2.88-8.07,7.35-8.07,4.8,0,7.14,3.27,7.14,8.7h-12.09c0,2.76,1.65,5.34,4.98,5.34,3.06,0,4.2-1.98,4.47-3.03Zm-9.45-4.41h9.69c0-2.46-1.86-4.5-4.74-4.5s-4.95,2.04-4.95,4.5Z"/><path class="cls-7" d="M307.88,71v10.68h-2.4v-10.08c0-1.98-.39-3.54-2.79-3.54s-3.9,1.71-3.9,4.08v9.54h-2.4v-10.08c0-1.98-.39-3.54-2.79-3.54s-3.9,1.71-3.9,4.08v9.54h-2.4v-15.3h2.4v1.83h.06c.81-1.08,2.13-2.25,4.44-2.25,2.19,0,3.45,.93,4.08,2.64h.06c1.05-1.44,2.64-2.64,4.95-2.64,3.09,0,4.59,1.83,4.59,5.04Z"/><path class="cls-7" d="M326.75,74.03c0,5.04-3.06,8.07-6.84,8.07-2.52,0-3.96-1.08-4.86-2.4h-.06v7.14h-2.4v-20.46h2.4v1.89h.06c.9-1.17,2.34-2.31,4.86-2.31,3.78,0,6.84,3.03,6.84,8.07Zm-2.4,0c0-3-1.59-5.97-4.74-5.97-2.85,0-4.62,2.37-4.62,5.97s1.77,5.97,4.62,5.97c3.15,0,4.74-2.97,4.74-5.97Z"/><path class="cls-7" d="M337.4,82.1c-4.68,0-7.5-3.3-7.5-8.07s2.82-8.07,7.5-8.07,7.47,3.3,7.47,8.07-2.82,8.07-7.47,8.07Zm0-2.1c3.42,0,5.07-2.7,5.07-5.97s-1.65-5.97-5.07-5.97-5.1,2.7-5.1,5.97,1.65,5.97,5.1,5.97Z"/></g></svg>