<?xml version="1.0" encoding="UTF-8"?><svg id="Layer_1" xmlns="http://www.w3.org/2000/svg" xmlns:xlink="http://www.w3.org/1999/xlink" viewBox="0 0 384.27 393.29"><defs><style>.cls-1,.cls-2,.cls-3,.cls-4{fill:none;}.cls-2,.cls-3{opacity:.9;stroke:#000;stroke-width:1.13px;}.cls-2,.cls-3,.cls-5,.cls-6,.cls-7{fill-rule:evenodd;}.cls-2,.cls-3,.cls-4,.cls-7{stroke-miterlimit:10;}.cls-8{clip-path:url(#clippath);}.cls-9{fill:#010101;}.cls-10{fill:#a8d7b1;}.cls-11{fill:#e26f39;}.cls-12{fill:#231f20;}.cls-3{stroke-dasharray:0 2.83;}.cls-13{fill:url(#linear-gradient);fill-opacity:.8;}.cls-14{opacity:0;}.cls-14,.cls-5,.cls-6{stroke-linecap:square;stroke-linejoin:bevel;}.cls-14,.cls-7{fill:#b5b6b6;stroke:#9e9e9e;stroke-width:.28px;}.cls-15{clip-path:url(#clippath-70);}.cls-16{clip-path:url(#clippath-18);}.cls-5{fill:#f5f6f6;stroke-width:.28px;}.cls-5,.cls-6{stroke:#a2a0a0;}.cls-4{stroke:#010101;stroke-width:.57px;}.cls-6{fill:#cacac9;stroke-width:.28px;}.cls-7{opacity:.51;}</style><clipPath id="clippath"><circle class="cls-1" cx="-756.35" cy="-347.89" r="485.54"/></clipPath><clipPath id="clippath-18"><circle class="cls-1" cx="50.21" cy="-652.03" r="160.34"/></clipPath><clipPath id="clippath-70"><circle class="cls-1" cx="49.66" cy="-651.99" r="160.3"/></clipPath><linearGradient id="linear-gradient" x1="79.94" y1="329.83" x2="102.54" y2="329.83" gradientUnits="userSpaceOnUse"><stop offset="0" stop-color="#84684d"/><stop offset="1" stop-color="#955d2d"/></linearGradient></defs><g class="cls-8"><g vector-effect="none"><polyline class="cls-7" points=".05 -13.33 4.51 -13.08 6.14 -13.55 8.44 -14.77 10.22 -15.51 11.17 -15.61 12.01 -16.18 12.6 -16.89 13.32 -21.86 13.9 -23.11 16.15 -25.91 18.18 -27.68 20.35 -29.25 23.27 -30.35 27.46 -30.23 30.85 -29.85 32.76 -29.87 33.69 -29.75 34.35 -29.91 34.68 -30.24 34.69 -32.4 35.23 -33.1 36.27 -33.71 37.91 -33.71 39.87 -33.87 41.56 -33.72 43.81 -32.89 46.55 -32.83 48.34 -32.97 49.56 -32.14 50.54 -31.03 51.09 -30.11 51.42 -28.84 51.6 -27.88 51.96 -27.5 53.19 -26.93 54.81 -26.49 57.92 -25.97 60.94 -24.97 62.54 -24.29 64.79 -23.22 67.74 -20.59 68.72 -20.17 69.86 -19.9 70.62 -19.97 72.22 -21.09 73.97 -20.27 74.75 -20.37 76.45 -20.98 78.54 -20.22 83.94 -17.32 84.45 -17.39 84.96 -17.09 85.49 -16.43 85.94 -15.61 86.8 -13.11 88.56 -11.28 90.6 -9.62 92.77 -8.71 97.37 -6.52 99.54 -4.75 101.99 -1.74 105.05 2.23 105.45 2.59 111.28 2.47 117.85 2.48 118.97 4.07 119.45 7.22 120.34 10.45 121.38 12.68 121.8 14.75 121.53 15.8 121.4 17 121.4 17.52 122.39 18.27 123.47 19.99 124.05 22.38 123.93 23.65 124.19 24.7 124.73 25.6 125.34 27.09 125.47 27.99 125.11 28.89 125.01 30.01 124.87 31.43 124.93 32.56 124.23 33.08 123.67 33.46 124.05 34.88 124.6 36.08 125.25 37.5 125.01 38.48 124.96 39.6 124.72 41.4 125.16 42.9 124.77 44.17 124.18 45.3 123.82 46.2 123.96 47.48 123.46 47.93 122.54 48.98 121.99 49.73 121.02 49.95 120.92 50.55 121.19 51.15 121.69 51.53 122.6 52.83 124.39 55.06 120.47 55.34 119.67 57.33 118.83 60.17 120.55 65.91 120.43 68.86 121.13 70.53 122.36 71.68 123.78 72.31 126.24 72.35 127.95 72.8 128.25 73.56 127.52 74.68 126.41 76.78 125.78 77.7 123.99 81.92 124.33 83.72 124.83 85.18 126.74 89.75 128.6 94.18 131.93 102.17 132.21 104.03 132.32 108.15 132.72 110.66 133.55 113.92 133.63 115.61 134.75 119.39 135.34 119.66 139.65 120.39 143.61 121.07 148.88 121.96 150.81 124.18 152.6 129.05 153.16 132.69 153.04 134.55 150.25 139.87 147.42 145.27 144.57 150.66 141.29 156.84 145.14 161.32 147.52 164.09 150.86 167.99 151.36 168.93 151.58 170.46 155.32 176.41 156.8 179.51 157.98 181.33 160.64 184.18 163.25 186.97 165.81 188.24 167.46 188.52 171.35 190 172.87 191.16 175.49 194.12 177.95 193.72 178.48 193.72 178.65 193.93 178.87 194.88 179.21 199.49 180.62 204.13 182.17 211.11 182.17 212.32 181.87 214.34 182.04 215.65 181.99 216.44 182.22 216.8 183.09 217.28 184.85 217.53 188.89 216.75 189.41 216.94 190.53 217.77 191.48 219.08 191.63 219.69 190.75 220.78 190.84 222.61 191.57 225.35 191.47 225.68 190.64 226.31 190.93 230.28 190.81 230.64 189.8 231.04 184.67 230.78 184.11 230.89 182.35 231.94 179.19 232.69 178.35 233.11 177.31 234.31 176.65 235.77 176.67 237.12 176.54 237.4 174.62 237.12 174.17 238.29 170.78 240.04 170.38 240.42 170.04 241.83 170.1 245.74 170.15 249.26 169.95 249.77 168.96 250.98 168.91 251.38 169.26 252.75 169.08 255.24 169.61 262.14 169.41 264.07 168.52 264.23 167.93 265.2 166.79 266.39 163.85 265.47 161.47 264.5 153.76 262.23 152.8 261.13 152.08 259.19 150.73 258.65 149.28 261.55 142.8 259.87 140.74 260.39 139.31 259.49 135.93 259.43 133.03 257.62 129.38 258.86 126.4 259.11 121.85 255.93 117.29 255.06 113.71 255.32 111.83 255.07 108.68 253.94 107.1 252.76 104.87 253.66 103.6 251.99 96.78 250.45 95.18 247.52 93.9 244.78 93.47 241.97 91.22 237.07 89.74 229.94 88.77 227.16 87.56 224.75 86.09 222.69 84.18 220.49 82.66 219.62 76.27 217.95 75.11 218.17 72.5 219.27 69.9 221.7 65.26 223.08 64.42 224.13 63.52 226.49 62.13 227.86 59.93 227.5 57.79 228.9 54 232.79 51.88 233.98 49.97 233.89 47.7 232.04 42.82 229.56 39.77 228.74 35.75 229.31 33.76 228.89 30.1 225.99 28.97 223.87 26.91 222.46 20.57 219.29 15.22 215.11 14.14 213.53 13.25 211.2 10.8 208.36 5.81 206.04 2.83 203.57 -.35 203.03 -3.25 203.1 -4.58 202.66 -5.88 201.6 -10.48 196.51 -10.78 194.5 -13.85 189.52 -14.65 187.75 -15.8 182.84 -16.64 181.55 -19.44 179.53 -20.01 178.2 -19.7 176.45 -19.87 175.11 -21.35 173.85 -23.42 173.18 -24.09 171.67 -24.12 168.75 -24.66 166.9 -26.79 163.97 -29.76 160.96 -32.91 156.52 -34.06 155.41 -35.11 152.5 -36.51 149.05 -37.99 148.81 -44.46 152.94 -46.82 150.61 -53.5 146.57 -54.01 145.96 -54.56 145.04 -53.86 144.5 -53.12 144.28 -51.48 145 -50.66 144.15 -51.22 142.78 -52.87 141.93 -54.96 142 -54.22 143.28 -56.03 144.5 -56.24 146.1 -55.69 148.07 -55.16 150.83 -55.79 152.17 -56.33 152.79 -58.96 152.96 -60.04 154.17 -60.8 154.47 -62.04 153.51 -62.86 152.74 -63.66 151.09 -63.99 149.94 -63.85 149.29 -64.28 148.33 -65.29 147.06 -66.23 146.37 -67.12 146.24 -67.93 145.47 -68.68 144.05 -70.14 143.12 -71 142.94 -71.59 138.57 -72.11 134.74 -72.63 130.94 -75.5 130.79 -78.08 130.65 -78.5 127.47 -79.28 121.55 -78.68 116.96 -78.03 112.55 -80.35 109.31 -82.82 105.85 -84.31 104.42 -86.42 100.1 -87.44 98.2 -88.21 97.47 -89 97.05 -91.63 97.21 -94.43 94.89 -97.72 92.17 -101.72 88.85 -105.15 86.67 -106.49 86.19 -109.52 86.03 -109.9 85.61 -110.26 84.42 -110.43 83.09 -109.73 81.09 -109.82 79.83 -112.44 75.6 -113.24 74.37 -115.05 73.86 -114.88 72.65 -114.99 71.83 -115.32 71.19 -115.77 70.88 -116.29 70.85 -117.58 71.35 -118.89 69.44 -122.87 64.01 -124 63.35 -124.25 62.98 -123.68 61.32 -122.69 58.85 -122.66 57.42 -123.14 55.85 -124.99 52.89 -124.82 51.64 -124.4 50.2 -124.51 49.12 -123.52 49.27 -122.28 49.29 -122.02 48.41 -122.48 45.32 -122.35 44.2 -119.2 38.98 -117.42 37.81 -116.1 36.74 -115.99 35.17 -116.42 34.37 -116.87 33.19 -117.09 32.34 -119.06 30.01 -119.8 28.83 -120.02 27.76 -119.92 25.86 -119.46 24.38 -117.28 23.52 -116.09 22.78 -116.01 22.12 -117.87 21.05 -121.54 20.72 -124.14 21.02 -125.03 20.69 -126.6 18.61 -128.09 17.51 -129.44 16.8 -130.64 16.93 -131.42 16.65 -131.72 15.76 -134.49 8.95 -135.17 8.02 -136.03 7.79 -136.72 7.75 -137.24 7.28 -137.87 6.34 -138.41 5.11 -138.68 3.49 -138.81 2.11 -139.18 1.22 -139.91 .33 -140.86 -.3 -141.72 -1.06 -143.93 -7.03 -144.69 -8.63 -144.72 -8.8 -144.75 -9.11 -145.09 -10.48 -144.66 -11.67 -144.77 -12.13 -146.25 -13.63 -148.24 -15.14 -148.76 -15.4 -149.02 -17 -149.14 -18.21 -149.46 -19.3 -149.89 -19.92 -149.98 -20.41 -149.45 -21.59 -150.02 -22.36 -152.91 -24.26 -154.03 -25.22 -155.85 -25.41 -156.13 -26.03 -156.06 -27.37 -155.69 -28.98 -154.95 -30.56 -154.78 -31.4 -154.62 -32.82 -154.64 -33.83 -153.77 -35.25 -153.83 -35.62 -154.21 -36.12 -155.12 -36.41 -156.03 -36.53 -156.4 -36.79 -156.65 -37.55 -157.01 -40.64 -157.58 -42.5 -158.16 -43.84 -158.4 -46.88 -159.12 -47.49 -160.34 -49.09 -160.97 -50.44 -160.82 -50.94 -160.75 -51.82 -160.8 -52.98 -160.97 -53.81 -161.99 -54.61 -162.79 -55.46 -163.01 -56.39 -163.46 -57.53 -163.97 -58.43 -164.23 -59.02 -163.96 -59.37 -162.74 -59.64 -160.88 -59.46 -159.38 -59.44 -158.63 -60.02 -158.47 -65.5 -157.74 -66.94 -156.77 -67.78 -154.29 -65.83 -153.28 -65.15 -152.73 -65.13 -152.32 -64.66 -149.02 -60.05 -147.68 -58.7 -146.84 -57.54 -146.19 -56.26 -145.27 -55.39 -144.16 -54.93 -142.71 -53.68 -141.71 -52.71 -139.95 -50.7 -138.33 -49.95 -132.62 -48.49 -129.47 -47.82 -128.56 -47.62 -126.39 -48.6 -123.64 -48.47 -122.62 -48.42 -119.7 -52.52 -118.84 -53.89 -116.81 -54.6 -115.88 -56.23 -114.27 -58.2 -112.23 -60.06 -110.35 -61.73 -108.86 -62.74 -106.26 -65.1 -104.53 -65.91 -102.9 -65.88 -99.97 -63.12 -97.48 -60.61 -96.66 -59.51 -97.5 -58.52 -99.25 -57.56 -99.49 -56.86 -99.47 -55.97 -99.24 -55.11 -98.87 -54.41 -96.25 -52.78 -95.82 -51.89 -95.65 -50.98 -95.82 -50.42 -96.29 -50.09 -97.84 -49.63 -99.15 -49.1 -99.54 -48.58 -99.86 -47.96 -99.68 -47.28 -99.13 -46.5 -95.9 -44.37 -95.44 -43.59 -94.69 -42.53 -93.88 -41.89 -92.66 -41.71 -92.01 -41.28 -88.57 -37.34 -87.84 -37.07 -84.75 -37.93 -84.3 -37.89 -84.1 -36.92 -82.66 -31.34 -81.8 -28.44 -80.77 -25.63 -79.46 -23.07 -78.01 -20.62 -76.32 -19.12 -72.82 -17.3 -71.19 -16.78 -67.04 -16.41 -62.87 -15.61 -60.35 -14.76 -59.52 -14.16 -58.76 -13.24 -56.06 -8.95 -52.43 -5.89 -45.38 -1.3 -42.07 .22 -31.32 3.11 -24.51 2.95 -6.62 -2.63 -.59 -4.02 1.76 -4.02 .56 -2.91 -1.69 -2.27 -.12 -1.49 2.09 -1.36 3.09 -1.49 3.69 -2.2 3.61 -3.36 3.29 -4.51 1.32 -9.68 .05 -13.33"/><polyline class="cls-14" points=".05 -13.33 4.51 -13.08 6.14 -13.55 8.44 -14.77 10.22 -15.51 11.17 -15.61 12.01 -16.18 12.6 -16.89 13.32 -21.86 13.9 -23.11 16.15 -25.91 18.18 -27.68 20.35 -29.25 23.27 -30.35 27.46 -30.23 30.85 -29.85 32.76 -29.87 33.69 -29.75 34.35 -29.91 34.68 -30.24 34.69 -32.4 35.23 -33.1 36.27 -33.71 37.91 -33.71 39.87 -33.87 41.56 -33.72 43.81 -32.89 46.55 -32.83 48.34 -32.97 49.56 -32.14 50.54 -31.03 51.09 -30.11 51.42 -28.84 51.6 -27.88 51.96 -27.5 53.19 -26.93 54.81 -26.49 57.92 -25.97 60.94 -24.97 62.54 -24.29 64.79 -23.22 67.74 -20.59 68.72 -20.17 69.86 -19.9 70.62 -19.97 72.22 -21.09 73.97 -20.27 74.75 -20.37 76.45 -20.98 78.54 -20.22 83.94 -17.32 84.45 -17.39 84.96 -17.09 85.49 -16.43 85.94 -15.61 86.8 -13.11 88.56 -11.28 90.6 -9.62 92.77 -8.71 97.37 -6.52 99.54 -4.75 101.99 -1.74 105.05 2.23 105.45 2.59 111.28 2.47 117.85 2.48 118.97 4.07 119.45 7.22 120.34 10.45 121.38 12.68 121.8 14.75 121.53 15.8 121.4 17 121.4 17.52 122.39 18.27 123.47 19.99 124.05 22.38 123.93 23.65 124.19 24.7 124.73 25.6 125.34 27.09 125.47 27.99 125.11 28.89 125.01 30.01 124.87 31.43 124.93 32.56 124.23 33.08 123.67 33.46 124.05 34.88 124.6 36.08 125.25 37.5 125.01 38.48 124.96 39.6 124.72 41.4 125.16 42.9 124.77 44.17 124.18 45.3 123.82 46.2 123.96 47.48 123.46 47.93 122.54 48.98 121.99 49.73 121.02 49.95 120.92 50.55 121.19 51.15 121.69 51.53 122.6 52.83 124.39 55.06 120.47 55.34 119.67 57.33 118.83 60.17 120.55 65.91 120.43 68.86 121.13 70.53 122.36 71.68 123.78 72.31 126.24 72.35 127.95 72.8 128.25 73.56 127.52 74.68 126.41 76.78 125.78 77.7 123.99 81.92 124.33 83.72 124.83 85.18 126.74 89.75 128.6 94.18 131.93 102.17 132.21 104.03 132.32 108.15 132.72 110.66 133.55 113.92 133.63 115.61 134.75 119.39 135.34 119.66 139.65 120.39 143.61 121.07 148.88 121.96 150.81 124.18 152.6 129.05 153.16 132.69 153.04 134.55 150.25 139.87 147.42 145.27 144.57 150.66 141.29 156.84 145.14 161.32 147.52 164.09 150.86 167.99 151.36 168.93 151.58 170.46 155.32 176.41 156.8 179.51 157.98 181.33 160.64 184.18 163.25 186.97 165.81 188.24 167.46 188.52 171.35 190 172.87 191.16 175.49 194.12 177.95 193.72 178.48 193.72 178.65 193.93 178.87 194.88 179.21 199.49 180.62 204.13 182.17 211.11 182.17 212.32 181.87 214.34 182.04 215.65 181.99 216.44 182.22 216.8 183.09 217.28 184.85 217.53 188.89 216.75 189.41 216.94 190.53 217.77 191.48 219.08 191.63 219.69 190.75 220.78 190.84 222.61 191.57 225.35 191.47 225.68 190.64 226.31 190.93 230.28 190.81 230.64 189.8 231.04 184.67 230.78 184.11 230.89 182.35 231.94 179.19 232.69 178.35 233.11 177.31 234.31 176.65 235.77 176.67 237.12 176.54 237.4 174.62 237.12 174.17 238.29 170.78 240.04 170.38 240.42 170.04 241.83 170.1 245.74 170.15 249.26 169.95 249.77 168.96 250.98 168.91 251.38 169.26 252.75 169.08 255.24 169.61 262.14 169.41 264.07 168.52 264.23 167.93 265.2 166.79 266.39 163.85 265.47 161.47 264.5 153.76 262.23 152.8 261.13 152.08 259.19 150.73 258.65 149.28 261.55 142.8 259.87 140.74 260.39 139.31 259.49 135.93 259.43 133.03 257.62 129.38 258.86 126.4 259.11 121.85 255.93 117.29 255.06 113.71 255.32 111.83 255.07 108.68 253.94 107.1 252.76 104.87 253.66 103.6 251.99 96.78 250.45 95.18 247.52 93.9 244.78 93.47 241.97 91.22 237.07 89.74 229.94 88.77 227.16 87.56 224.75 86.09 222.69 84.18 220.49 82.66 219.62 76.27 217.95 75.11 218.17 72.5 219.27 69.9 221.7 65.26 223.08 64.42 224.13 63.52 226.49 62.13 227.86 59.93 227.5 57.79 228.9 54 232.79 51.88 233.98 49.97 233.89 47.7 232.04 42.82 229.56 39.77 228.74 35.75 229.31 33.76 228.89 30.1 225.99 28.97 223.87 26.91 222.46 20.57 219.29 15.22 215.11 14.14 213.53 13.25 211.2 10.8 208.36 5.81 206.04 2.83 203.57 -.35 203.03 -3.25 203.1 -4.58 202.66 -5.88 201.6 -10.48 196.51 -10.78 194.5 -13.85 189.52 -14.65 187.75 -15.8 182.84 -16.64 181.55 -19.44 179.53 -20.01 178.2 -19.7 176.45 -19.87 175.11 -21.35 173.85 -23.42 173.18 -24.09 171.67 -24.12 168.75 -24.66 166.9 -26.79 163.97 -29.76 160.96 -32.91 156.52 -34.06 155.41 -35.11 152.5 -36.51 149.05 -37.99 148.81 -44.46 152.94 -46.82 150.61 -53.5 146.57 -54.01 145.96 -54.56 145.04 -53.86 144.5 -53.12 144.28 -51.48 145 -50.66 144.15 -51.22 142.78 -52.87 141.93 -54.96 142 -54.22 143.28 -56.03 144.5 -56.24 146.1 -55.69 148.07 -55.16 150.83 -55.79 152.17 -56.33 152.79 -58.96 152.96 -60.04 154.17 -60.8 154.47 -62.04 153.51 -62.86 152.74 -63.66 151.09 -63.99 149.94 -63.85 149.29 -64.28 148.33 -65.29 147.06 -66.23 146.37 -67.12 146.24 -67.93 145.47 -68.68 144.05 -70.14 143.12 -71 142.94 -71.59 138.57 -72.11 134.74 -72.63 130.94 -75.5 130.79 -78.08 130.65 -78.5 127.47 -79.28 121.55 -78.68 116.96 -78.03 112.55 -80.35 109.31 -82.82 105.85 -84.31 104.42 -86.42 100.1 -87.44 98.2 -88.21 97.47 -89 97.05 -91.63 97.21 -94.43 94.89 -97.72 92.17 -101.72 88.85 -105.15 86.67 -106.49 86.19 -109.52 86.03 -109.9 85.61 -110.26 84.42 -110.43 83.09 -109.73 81.09 -109.82 79.83 -112.44 75.6 -113.24 74.37 -115.05 73.86 -114.88 72.65 -114.99 71.83 -115.32 71.19 -115.77 70.88 -116.29 70.85 -117.58 71.35 -118.89 69.44 -122.87 64.01 -124 63.35 -124.25 62.98 -123.68 61.32 -122.69 58.85 -122.66 57.42 -123.14 55.85 -124.99 52.89 -124.82 51.64 -124.4 50.2 -124.51 49.12 -123.52 49.27 -122.28 49.29 -122.02 48.41 -122.48 45.32 -122.35 44.2 -119.2 38.98 -117.42 37.81 -116.1 36.74 -115.99 35.17 -116.42 34.37 -116.87 33.19 -117.09 32.34 -119.06 30.01 -119.8 28.83 -120.02 27.76 -119.92 25.86 -119.46 24.38 -117.28 23.52 -116.09 22.78 -116.01 22.12 -117.87 21.05 -121.54 20.72 -124.14 21.02 -125.03 20.69 -126.6 18.61 -128.09 17.51 -129.44 16.8 -130.64 16.93 -131.42 16.65 -131.72 15.76 -134.49 8.95 -135.17 8.02 -136.03 7.79 -136.72 7.75 -137.24 7.28 -137.87 6.34 -138.41 5.11 -138.68 3.49 -138.81 2.11 -139.18 1.22 -139.91 .33 -140.86 -.3 -141.72 -1.06 -143.93 -7.03 -144.69 -8.63 -144.72 -8.8 -144.75 -9.11 -145.09 -10.48 -144.66 -11.67 -144.77 -12.13 -146.25 -13.63 -148.24 -15.14 -148.76 -15.4 -149.02 -17 -149.14 -18.21 -149.46 -19.3 -149.89 -19.92 -149.98 -20.41 -149.45 -21.59 -150.02 -22.36 -152.91 -24.26 -154.03 -25.22 -155.85 -25.41 -156.13 -26.03 -156.06 -27.37 -155.69 -28.98 -154.95 -30.56 -154.78 -31.4 -154.62 -32.82 -154.64 -33.83 -153.77 -35.25 -153.83 -35.62 -154.21 -36.12 -155.12 -36.41 -156.03 -36.53 -156.4 -36.79 -156.65 -37.55 -157.01 -40.64 -157.58 -42.5 -158.16 -43.84 -158.4 -46.88 -159.12 -47.49 -160.34 -49.09 -160.97 -50.44 -160.82 -50.94 -160.75 -51.82 -160.8 -52.98 -160.97 -53.81 -161.99 -54.61 -162.79 -55.46 -163.01 -56.39 -163.46 -57.53 -163.97 -58.43 -164.23 -59.02 -163.96 -59.37 -162.74 -59.64 -160.88 -59.46 -159.38 -59.44 -158.63 -60.02 -158.47 -65.5 -157.74 -66.94 -156.77 -67.78 -154.29 -65.83 -153.28 -65.15 -152.73 -65.13 -152.32 -64.66 -149.02 -60.05 -147.68 -58.7 -146.84 -57.54 -146.19 -56.26 -145.27 -55.39 -144.16 -54.93 -142.71 -53.68 -141.71 -52.71 -139.95 -50.7 -138.33 -49.95 -132.62 -48.49 -129.47 -47.82 -128.56 -47.62 -126.39 -48.6 -123.64 -48.47 -122.62 -48.42 -119.7 -52.52 -118.84 -53.89 -116.81 -54.6 -115.88 -56.23 -114.27 -58.2 -112.23 -60.06 -110.35 -61.73 -108.86 -62.74 -106.26 -65.1 -104.53 -65.91 -102.9 -65.88 -99.97 -63.12 -97.48 -60.61 -96.66 -59.51 -97.5 -58.52 -99.25 -57.56 -99.49 -56.86 -99.47 -55.97 -99.24 -55.11 -98.87 -54.41 -96.25 -52.78 -95.82 -51.89 -95.65 -50.98 -95.82 -50.42 -96.29 -50.09 -97.84 -49.63 -99.15 -49.1 -99.54 -48.58 -99.86 -47.96 -99.68 -47.28 -99.13 -46.5 -95.9 -44.37 -95.44 -43.59 -94.69 -42.53 -93.88 -41.89 -92.66 -41.71 -92.01 -41.28 -88.57 -37.34 -87.84 -37.07 -84.75 -37.93 -84.3 -37.89 -84.1 -36.92 -82.66 -31.34 -81.8 -28.44 -80.77 -25.63 -79.46 -23.07 -78.01 -20.62 -76.32 -19.12 -72.82 -17.3 -71.19 -16.78 -67.04 -16.41 -62.87 -15.61 -60.35 -14.76 -59.52 -14.16 -58.76 -13.24 -56.06 -8.95 -52.43 -5.89 -45.38 -1.3 -42.07 .22 -31.32 3.11 -24.51 2.95 -6.62 -2.63 -.59 -4.02 1.76 -4.02 .56 -2.91 -1.69 -2.27 -.12 -1.49 2.09 -1.36 3.09 -1.49 3.69 -2.2 3.61 -3.36 3.29 -4.51 1.32 -9.68 .05 -13.33"/></g></g><g><g class="cls-16"><path class="cls-5" d="M169.57-76.03h.06l1.61-.37,1.3,.31,1.55,.81,1.43,.31,1.36-.25,1.12-.06,.87,.12,.68,.25,.5,.43v.56l.19,1.05,.31,1.55,.19,1.43,.25,1.98-.06,1.12,.06,.43,.31,.56,.31,.93,.12,.5,.12,.37,.37,.74,.25,1.12,.19,1.49,.19,.68,.06,.37,.06,.62-.12,1.36-.12,1.55-.12,1.74-.06,1.43-.12,.74-.12,2.05-.43,1.05v.81l.06,.56-.12,.06-.25,.06-1.18-.87-1.18-.93h-.19l-.25,.12-.74,.68-.74,1.05-.37,.87-.56,.93-.87,1.49-.12,.31-.06,1.18-.06,1.12,.06,.19,.43,.06,.25,.93,.56,1.49,1.05,.93,.99,.43,1.49,.12h1.18v-.99l.25-1.61,.25-1.05,.19-.06,.31,.12,.19,.12,.5-.06,.81,.19h1.3l.99-.06h.62l-.31,1.74-.99,2.73-.37,1.24-.99,4.4-1.05,2.23-.56,.93-1.49,1.61-.43,.31-.37,.19-.62,.19-2.6,3.29-.99,1.61-.99,2.29-.87,1.24-1.36,2.73-1.18,2.11-1.12,1.92-1.92,2.6-.81,.74-.56,.37-1.49,1.55-2.11,2.42-1.61,2.17-2.36,2.42-1.3,1.05-2.05,2.11-.56,.31-2.23,1.92-1.61,1.18-2.54,1.36-.99,.37-2.29-.37-.99,.19-.87,.81-.19,1.18-.37,.19-.5-.06-1.55-.5-.87,.06-.56,.62-.5,.81-1.24,.06-2.11-.81-2.48-.5-.56-.06-1.3,.62-.43,.06-1.8-.12-.99-.37h-.93l-.74,.31-.87,.12-2.54,2.23h-1.24l-1.05,.25h-.56l-.99-.31h-.37l-.56,.12-.56,.37-1.3,.19-.5,.37-2.29,2.05-.5-.06-.37-.12h-1.12l-1.18-1.12-.5,.06,.12-.31,.06-.56-.25-.43-.19-.19-.5,.06-.25-.5-.74-.06-.25,.12h-.37v-.5l.06-.31v-.5l-.06-.56-.31-.19-.25-.06-.56,.06-.37,.06-.19,.19-.25,.43-.06,1.3-.25-.37-.25-.81-.06-.81,.19-.99,.62-.37v-.68l-.06-.56-.56-1.49-.19-.68-.56-.5-.37-1.12-.43-.43-.12-.81-.37-.62-.06-.99,.25-.56,.37-.31,.37,.5,.5-.19,.68-.74,.43-1.12,.12-1.74-.06-1.12-.37-2.79-.19-.62-1.12-2.05-1.24-2.73-1.55-4.28-.74-2.54-1.05-5.21-.99-2.91-1.24-2.73-.19-.19,.25-.31,.74-.62,.37-.19,.19,.06,.19-.19,.19-.43,.06-.43,.12-.56,.19-.37,.19-.68,.31-.43,.68-.31,.5,.37,.19,.37,.06,.5,.19,.25h.37l.25,.31,.12,.62-.06,.43-.19,.25v.37l.25,.43,.06,.43,.12,.56,.87,.31,.43,.19,.74,.06,.68,.25,.68,.43,1.12,.12,1.55-.25,1.24,.12,.99,.43,.74,.06,.5-.25,.19-.43v-.5l.25-.31,.5-.12,.43-.37,.37-.68,.74-.5,1.12-.43h.56l.06-1.05,.19-3.35,.19-3.35,.12-3.35,.19-3.35,.12-3.35,.12-3.35,.12-3.35,.12-3.16,.25,.25,1.61,1.67,.43,.87,.19,.56,.62,2.05,.43,1.8,.37,1.36v.62l.06,.62,.06,.31-.06,.31-.37,.74-.37,.56-.43,.74-.06,1.05,.06,1.18,.19,.62,.31,.19,.74-.31,.43,.12,.62,.25,2.05-.12,.25,.06,.74,.06,.25-.12,.25-.25,.31-.74,.25-.25,.43-.12,.5-.19,.43-.43,.74-1.43,1.43-1.3,.43-.31,.25-.37,.25-.43,.56-1.61,.43-1.36,.12-.62,.37-1.05,.43-.68,.43-.37,.19-.06,.5-.19,.62-.19,.68,.19,.68,.37,.74,.68,.81,.81,.37,.43,.37,.19,.74,.06h.5l.68,.81,.37,.06,.81,.25,1.05,.25,.68-.06,.74-.43h.5l.62,.06,.74-.12,.56-.19,.43-.37,.37-.43,.5-1.24,.31-.99,.43-1.18,.56-1.61,.19-1.12,.19-.31,.68-.37,.56-.25,1.49-.43,.31-.25,.31-.5,.68-.87,.81-.74,.43-.43,.93-3.6,.12-.43,.62-.93,.37-.43h.19l.31-.25,.43-.5,.5-.31,.56-.12,.37-.31,.19-.56,.31-.25h.37l.25-.19,.06-.37,.25-.31,.43-.25,.25-.31,.06-.37,.56-.87,1.05-1.36,.99-.74,.87-.19,.87-.25,.81-.43,.62-.62,.43-.87,.68-.5,1.05,.37m-7.32,59.27l.93-.5,.43-.31,.31-.25,.37-.37,.19-.87,.19-.74,.31-.37,.31-.25,.25-.37,.37-.93,.25-.93,.06-.37-.06-.37-.12-.43-.12-.56-.19-.06-.43-.31-.62-.62-.5-.56-.43-.81-.19-.12-.5-.56-.19-.31-.12-.37-.12-.12-.25,.12-.62,.19-1.3,.62-.81,.62-.74,.68-.68,.25-.5,.25-.43,.81-.43,.74-.37,.68-.19,.31-.19,.19-.19,.43-.43,.68-.37,.5-.5,.25-.62,.31-.25,.19-.06,.31,.19,.68,.19,.62,.31,.74,.19,.56,.31,.68,.19,.37-.06,.68,.06,.25,.12,.25,.12,.06,.12,.12,.31,.19,.06,.12,.19,.25,.19,.43,.37,.56,.43,.43,.74,.19,.62,.12,.19-.06,.25-.37,.19-.43,.12-.56,.19-.31,.87-1.43,.43-.56,.25-.06,.31-.12,.43-.06,.31,.06h.06l.31-.06" vector-effect="none"/></g><g class="cls-15"><path class="cls-6" d="M169.54-76.01h.06l1.61-.37,1.3,.31,1.55,.81,1.43,.31,1.36-.25,1.12-.06,.87,.12,.68,.25,.5,.43v.56l.19,1.05,.31,1.55,.19,1.43,.25,1.98-.06,1.12,.06,.43,.31,.56,.31,.93,.12,.5,.12,.37,.37,.74,.25,1.12,.19,1.49,.19,.68,.06,.37,.06,.62-.12,1.36-.12,1.55-.12,1.74-.06,1.43-.12,.74-.12,2.05-.43,1.05v.81l.06,.56-.12,.06-.25,.06-1.18-.87-1.18-.93h-.19l-.25,.12-.74,.68-.74,1.05-.37,.87-.56,.93-.87,1.49-.12,.31-.06,1.18-.06,1.12,.06,.19,.43,.06,.25,.93,.56,1.49,1.05,.93,.99,.43,1.49,.12h1.18v-.99l.25-1.61,.25-1.05,.19-.06,.31,.12,.19,.12,.5-.06,.81,.19h1.3l.99-.06h.62l-.31,1.74-.99,2.73-.37,1.24-.99,4.4-1.05,2.23-.56,.93-1.49,1.61-.43,.31-.37,.19-.62,.19-2.6,3.29-.99,1.61-.99,2.29-.87,1.24-1.36,2.73-1.18,2.11-1.12,1.92-1.92,2.6-.81,.74-.56,.37-1.49,1.55-2.11,2.42-1.61,2.17-2.36,2.42-1.3,1.05-2.05,2.11-.56,.31-2.23,1.92-1.61,1.18-2.54,1.36-.99,.37-2.29-.37-.99,.19-.87,.81-.19,1.18-.37,.19-.5-.06-1.55-.5-.87,.06-.56,.62-.5,.81-1.24,.06-2.11-.81-2.48-.5-.56-.06-1.3,.62-.43,.06-1.8-.12-.99-.37h-.93l-.74,.31-.87,.12-2.54,2.23h-1.24l-1.05,.25h-.56l-.99-.31h-.37l-.56,.12-.56,.37-1.3,.19-.5,.37-2.29,2.05-.5-.06-.37-.12h-1.12l-1.18-1.12-.5,.06,.12-.31,.06-.56-.25-.43-.19-.19-.5,.06-.25-.5-.74-.06-.25,.12h-.37v-.5l.06-.31v-.5l-.06-.56-.31-.19-.25-.06-.56,.06-.37,.06-.19,.19-.25,.43-.06,1.3-.25-.37-.25-.81-.06-.81,.19-.99,.62-.37v-.68l-.06-.56-.56-1.49-.19-.68-.56-.5-.37-1.12-.43-.43-.12-.81-.37-.62-.06-.99,.25-.56,.37-.31,.37,.5,.5-.19,.68-.74,.43-1.12,.12-1.74-.06-1.12-.37-2.79-.19-.62-1.12-2.05-1.24-2.73-1.55-4.28-.74-2.54-1.05-5.21-.99-2.91-1.24-2.73-.19-.19,.25-.31,.74-.62,.37-.19,.19,.06,.19-.19,.19-.43,.06-.43,.12-.56,.19-.37,.19-.68,.31-.43,.68-.31,.5,.37,.19,.37,.06,.5,.19,.25h.37l.25,.31,.12,.62-.06,.43-.19,.25v.37l.25,.43,.06,.43,.12,.56,.87,.31,.43,.19,.74,.06,.68,.25,.68,.43,1.12,.12,1.55-.25,1.24,.12,.99,.43,.74,.06,.5-.25,.19-.43v-.5l.25-.31,.5-.12,.43-.37,.37-.68,.74-.5,1.12-.43h.56l.06-1.05,.19-3.35,.19-3.35,.12-3.35,.19-3.35,.12-3.35,.12-3.35,.12-3.35,.12-3.16,.25,.25,1.61,1.67,.43,.87,.19,.56,.62,2.05,.43,1.8,.37,1.36v.62l.06,.62,.06,.31-.06,.31-.37,.74-.37,.56-.43,.74-.06,1.05,.06,1.18,.19,.62,.31,.19,.74-.31,.43,.12,.62,.25,2.05-.12,.25,.06,.74,.06,.25-.12,.25-.25,.31-.74,.25-.25,.43-.12,.5-.19,.43-.43,.74-1.43,1.43-1.3,.43-.31,.25-.37,.25-.43,.56-1.61,.43-1.36,.12-.62,.37-1.05,.43-.68,.43-.37,.19-.06,.5-.19,.62-.19,.68,.19,.68,.37,.74,.68,.81,.81,.37,.43,.37,.19,.74,.06h.5l.68,.81,.37,.06,.81,.25,1.05,.25,.68-.06,.74-.43h.5l.62,.06,.74-.12,.56-.19,.43-.37,.37-.43,.5-1.24,.31-.99,.43-1.18,.56-1.61,.19-1.12,.19-.31,.68-.37,.56-.25,1.49-.43,.31-.25,.31-.5,.68-.87,.81-.74,.43-.43,.93-3.6,.12-.43,.62-.93,.37-.43h.19l.31-.25,.43-.5,.5-.31,.56-.12,.37-.31,.19-.56,.31-.25h.37l.25-.19,.06-.37,.25-.31,.43-.25,.25-.31,.06-.37,.56-.87,1.05-1.36,.99-.74,.87-.19,.87-.25,.81-.43,.62-.62,.43-.87,.68-.5,1.05,.37m-7.25,59.26l.93-.5,.43-.31,.31-.25,.37-.37,.19-.87,.19-.74,.31-.37,.31-.25,.25-.37,.37-.93,.25-.93,.06-.37-.06-.37-.12-.43-.12-.56-.19-.06-.43-.31-.62-.62-.5-.56-.43-.81-.19-.12-.5-.56-.19-.31-.12-.37-.12-.12-.25,.12-.62,.19-1.3,.62-.81,.62-.74,.68-.68,.25-.5,.25-.43,.81-.43,.74-.37,.68-.19,.31-.19,.19-.19,.43-.43,.68-.37,.5-.5,.25-.62,.31-.25,.19-.06,.31,.19,.68,.19,.62,.31,.74,.19,.56,.31,.68,.19,.37-.06,.68,.06,.25,.12,.25,.12,.06,.12,.12,.31,.19,.06,.12,.19,.25,.19,.43,.37,.56,.43,.43,.74,.19,.62,.12,.19-.06,.25-.37,.19-.43,.12-.56,.19-.31,.87-1.43,.43-.56,.25-.06,.31-.12,.43-.06,.31,.06h.06l.31-.06" vector-effect="none"/></g></g><g><path class="cls-12" d="M118.07,300.16v-10.07h2.52c1.94-.04,4.12,.45,4.12,2.85s-2.18,2.89-4.12,2.84h-1.62v4.38h-.91Zm.91-5.22h2.2c1.35,0,2.55-.43,2.55-2.01s-1.2-2.01-2.55-2.01h-2.2v4.02Z"/><path class="cls-12" d="M131,293.16h.84v5.42c0,.54,.04,1.1,.07,1.58h-.86l-.04-1.03-.03-.03c-.49,.86-1.28,1.27-2.19,1.27-2.29,0-2.47-2.02-2.47-2.83v-4.38h.84v4.52c0,1.21,.7,1.92,1.84,1.92,1.38,0,2.01-1.16,2.01-2.41v-4.03Zm-.26-2.86l-1.77,2h-.61l1.27-2h1.12Z"/><path class="cls-12" d="M134.73,300.16h-.87c.03-.47,.07-1.03,.07-1.58v-8.49h.84v4.1l.03,.03c.49-.82,1.46-1.27,2.4-1.27,2.08,0,2.87,1.87,2.87,3.68s-.79,3.74-2.83,3.74c-1.02,0-1.87-.46-2.44-1.3l-.03,.06-.04,1.03Zm.04-3.64c0,1.59,.56,3.08,2.38,3.08,1.6,0,2.01-1.74,2.01-3.04s-.54-2.85-2.13-2.85-2.26,1.38-2.26,2.8Z"/><path class="cls-12" d="M142.67,300.16h-.84v-10.07h.84v10.07Z"/><path class="cls-12" d="M145.84,291.14h-.98v-1.05h.98v1.05Zm-.07,2.02v7h-.84v-7h.84Z"/><path class="cls-12" d="M152.44,295.31c-.07-1.07-.75-1.59-1.91-1.59-1.28,0-2.08,1.34-2.08,2.93s.8,2.96,2.08,2.96c1.09,0,1.84-.67,1.91-1.63h.91c-.22,1.6-1.14,2.4-2.73,2.4-2.09,0-3.07-1.8-3.07-3.71s1.05-3.71,3.12-3.71c1.44,0,2.61,.86,2.68,2.36h-.91Z"/><path class="cls-12" d="M161.01,296.66c0,1.84-1.03,3.71-3.26,3.71s-3.26-1.87-3.26-3.71,1.03-3.71,3.26-3.71,3.26,1.87,3.26,3.71Zm-3.26-2.94c-1.69,0-2.36,1.65-2.36,2.94s.67,2.94,2.36,2.94,2.36-1.65,2.36-2.94-.67-2.94-2.36-2.94Z"/></g><g><path class="cls-12" d="M118.07,262.26v-10.07h2.52c1.94-.04,4.11,.45,4.11,2.85s-2.18,2.89-4.11,2.84h-1.62v4.38h-.91Zm.91-5.22h2.2c1.35,0,2.55-.43,2.55-2.01s-1.2-2.01-2.55-2.01h-2.2v4.02Z"/><path class="cls-12" d="M126.88,262.26h-.84v-5.42c.01-.54-.04-1.1-.07-1.58h.87l.04,1.03h.03c.25-.71,.88-1.21,1.58-1.24,.28-.01,.56,0,.84,.01v.81c-.17-.01-.35-.06-.52-.06-1.24,0-1.9,.89-1.92,2.23v4.21Z"/><path class="cls-12" d="M131.6,253.23h-.98v-1.05h.98v1.05Zm-.07,2.02v7h-.84v-7h.84Z"/><path class="cls-12" d="M133.78,255.25l2.41,5.84,2.33-5.84h.92l-2.78,7h-.95l-2.86-7h.92Z"/><path class="cls-12" d="M144.44,257.32c-.08-1.14-.67-1.51-1.66-1.51-.88,0-1.6,.27-1.72,1.21h-.89c.21-1.44,1.28-1.98,2.62-1.98,1.55,0,2.51,.71,2.48,2.32v3.32c-.01,.54,.04,1.1,.07,1.58h-.86l-.03-1.03h-.03l-.04,.1c-.31,.59-1.24,1.14-2.19,1.14-1.3,0-2.33-.79-2.33-2.16,0-.95,.57-1.67,1.41-2.02,.94-.4,2.15-.26,3.17-.32v-.64Zm-2.09,4.38c1.83,0,2.18-1.51,2.09-2.97-1.19,.04-3.67-.18-3.67,1.58,0,.95,.73,1.39,1.58,1.39Z"/><path class="cls-12" d="M152.28,261.22l-.03-.06c-.57,.84-1.42,1.3-2.4,1.3-2.08,0-2.87-1.98-2.87-3.74s.79-3.68,2.87-3.68c.93,0,1.91,.45,2.4,1.27l.03-.03v-4.1h.84v8.49c0,.54,.04,1.1,.07,1.58h-.86l-.04-1.03Zm-2.29-5.41c-1.59,0-2.11,1.48-2.11,2.82s.38,3.07,1.98,3.07c1.83,0,2.38-1.52,2.38-3.11,0-1.42-.63-2.78-2.26-2.78Z"/><path class="cls-12" d="M161.23,258.76c0,1.84-1.03,3.71-3.26,3.71s-3.26-1.87-3.26-3.71,1.03-3.71,3.26-3.71,3.26,1.87,3.26,3.71Zm-3.26-2.94c-1.69,0-2.36,1.65-2.36,2.94s.67,2.94,2.36,2.94,2.36-1.65,2.36-2.94-.67-2.94-2.36-2.94Z"/></g><line class="cls-4" x1="107.44" y1="101.16" x2="107.44" y2="215.74"/><g><path class="cls-12" d="M119.47,335.32v-10.07h2.52c1.94-.04,4.12,.45,4.12,2.84s-2.18,2.89-4.12,2.85h-1.62v4.38h-.91Zm.91-5.22h2.2c1.35,0,2.55-.43,2.55-2.01s-1.2-2.01-2.55-2.01h-2.2v4.02Z"/><path class="cls-12" d="M132.4,328.32h.84v5.42c0,.54,.04,1.1,.07,1.58h-.86l-.04-1.03-.03-.03c-.49,.87-1.28,1.27-2.19,1.27-2.29,0-2.47-2.02-2.47-2.83v-4.38h.84v4.52c0,1.21,.7,1.92,1.84,1.92,1.38,0,2.01-1.16,2.01-2.41v-4.03Zm-.26-2.86l-1.77,2h-.61l1.27-2h1.12Z"/><path class="cls-12" d="M136.12,335.32h-.87c.03-.47,.07-1.03,.07-1.58v-8.49h.84v4.1l.03,.03c.49-.82,1.46-1.27,2.4-1.27,2.08,0,2.87,1.87,2.87,3.68s-.79,3.74-2.83,3.74c-1.02,0-1.87-.46-2.44-1.3l-.03,.06-.04,1.03Zm.04-3.64c0,1.59,.56,3.08,2.38,3.08,1.6,0,2.01-1.74,2.01-3.04s-.54-2.85-2.13-2.85-2.26,1.38-2.26,2.8Z"/><path class="cls-12" d="M144.07,335.32h-.84v-10.07h.84v10.07Z"/><path class="cls-12" d="M147.24,326.3h-.98v-1.05h.98v1.05Zm-.07,2.02v7h-.84v-7h.84Z"/><path class="cls-12" d="M153.83,330.47c-.07-1.07-.75-1.59-1.91-1.59-1.28,0-2.08,1.34-2.08,2.93s.79,2.96,2.08,2.96c1.09,0,1.84-.67,1.91-1.63h.91c-.22,1.6-1.14,2.4-2.73,2.4-2.09,0-3.07-1.8-3.07-3.71s1.05-3.71,3.12-3.71c1.44,0,2.61,.87,2.68,2.36h-.91Z"/><path class="cls-12" d="M162.41,331.82c0,1.84-1.03,3.71-3.26,3.71s-3.26-1.87-3.26-3.71,1.03-3.71,3.26-3.71,3.26,1.87,3.26,3.71Zm-3.26-2.94c-1.69,0-2.36,1.65-2.36,2.94s.67,2.94,2.36,2.94,2.36-1.64,2.36-2.94-.67-2.94-2.36-2.94Z"/><path class="cls-12" d="M171.08,328.32h.84v3.08h3.07v.84h-3.07v3.08h-.84v-3.08h-3.07v-.84h3.07v-3.08Z"/><path class="cls-12" d="M181.38,335.32v-10.07h2.52c1.94-.04,4.11,.45,4.11,2.84s-2.18,2.89-4.11,2.85h-1.62v4.38h-.91Zm.91-5.22h2.2c1.35,0,2.55-.43,2.55-2.01s-1.2-2.01-2.55-2.01h-2.2v4.02Z"/><path class="cls-12" d="M190.18,335.32h-.84v-5.43c.01-.54-.04-1.1-.07-1.58h.87l.04,1.03h.03c.25-.71,.88-1.21,1.58-1.24,.28-.01,.56,0,.84,.01v.81c-.17-.01-.35-.06-.52-.06-1.24,0-1.9,.89-1.92,2.23v4.21Z"/><path class="cls-12" d="M194.91,326.3h-.98v-1.05h.98v1.05Zm-.07,2.02v7h-.84v-7h.84Z"/><path class="cls-12" d="M197.08,328.32l2.41,5.84,2.33-5.84h.92l-2.78,7h-.95l-2.86-7h.92Z"/><path class="cls-12" d="M207.74,330.39c-.08-1.14-.67-1.51-1.66-1.51-.88,0-1.6,.27-1.72,1.21h-.89c.21-1.44,1.28-1.98,2.62-1.98,1.55,0,2.51,.71,2.48,2.32v3.32c-.01,.54,.04,1.1,.07,1.58h-.86l-.03-1.03h-.03l-.04,.1c-.31,.59-1.24,1.14-2.19,1.14-1.3,0-2.33-.79-2.33-2.16,0-.95,.57-1.67,1.41-2.02,.94-.4,2.15-.27,3.17-.32v-.64Zm-2.09,4.38c1.83,0,2.18-1.51,2.09-2.97-1.19,.04-3.67-.18-3.67,1.58,0,.95,.73,1.39,1.58,1.39Z"/><path class="cls-12" d="M215.58,334.29l-.03-.06c-.57,.84-1.42,1.3-2.4,1.3-2.08,0-2.87-1.98-2.87-3.74s.79-3.68,2.87-3.68c.93,0,1.91,.45,2.4,1.27l.03-.03v-4.1h.84v8.49c0,.54,.04,1.1,.07,1.58h-.86l-.04-1.03Zm-2.29-5.41c-1.59,0-2.11,1.48-2.11,2.82s.38,3.07,1.98,3.07c1.83,0,2.38-1.52,2.38-3.11,0-1.42-.63-2.78-2.26-2.78Z"/><path class="cls-12" d="M224.54,331.82c0,1.84-1.03,3.71-3.26,3.71s-3.26-1.87-3.26-3.71,1.03-3.71,3.26-3.71,3.26,1.87,3.26,3.71Zm-3.26-2.94c-1.69,0-2.36,1.65-2.36,2.94s.67,2.94,2.36,2.94,2.36-1.64,2.36-2.94-.67-2.94-2.36-2.94Z"/></g><g><path class="cls-12" d="M119.08,184.32h.03l3.19-9.16h.91l-3.64,10.07h-1.03l-3.68-10.07h.99l3.24,9.16Z"/><path class="cls-12" d="M127.6,180.29c-.08-1.14-.67-1.51-1.66-1.51-.88,0-1.6,.26-1.71,1.21h-.89c.21-1.44,1.28-1.98,2.62-1.98,1.55,0,2.51,.71,2.48,2.32v3.32c-.01,.54,.04,1.1,.07,1.58h-.87l-.03-1.03h-.03l-.04,.1c-.31,.59-1.24,1.14-2.19,1.14-1.3,0-2.33-.79-2.33-2.16,0-.95,.57-1.67,1.41-2.02,.93-.41,2.15-.27,3.17-.32v-.64Zm-2.09,4.38c1.83,0,2.18-1.51,2.09-2.97-1.19,.04-3.67-.18-3.67,1.58,0,.95,.72,1.4,1.58,1.4Z"/><path class="cls-12" d="M131.45,185.23h-.84v-5.43c.01-.54-.04-1.1-.07-1.58h.86l.04,1.03h.03c.25-.71,.88-1.21,1.58-1.24,.28-.01,.56,0,.84,.01v.81c-.17-.01-.35-.06-.52-.06-1.24,0-1.9,.89-1.92,2.23v4.21Z"/><path class="cls-12" d="M136.18,176.2h-.98v-1.05h.98v1.05Zm-.07,2.02v7h-.84v-7h.84Z"/><path class="cls-12" d="M144.38,181.73c0,1.84-1.03,3.71-3.26,3.71s-3.26-1.87-3.26-3.71,1.03-3.71,3.26-3.71,3.26,1.87,3.26,3.71Zm-3.26-2.94c-1.69,0-2.36,1.65-2.36,2.94s.67,2.94,2.36,2.94,2.36-1.65,2.36-2.94-.67-2.94-2.36-2.94Z"/><path class="cls-12" d="M148.44,178.02c1.32,0,2.44,.46,2.55,1.94h-.91c-.08-.88-.86-1.17-1.73-1.17-.78,0-1.58,.31-1.58,1.13,0,1.03,1.35,.93,3.25,1.6,.72,.25,1.19,.88,1.19,1.63,0,1.58-1.46,2.29-2.94,2.29-1.21,0-2.61-.57-2.63-2.12h.91c.07,1.05,.99,1.35,1.94,1.35,.89,0,1.83-.42,1.83-1.4s-1.1-1.17-2.22-1.42c-1.1-.27-2.22-.59-2.22-1.88,0-1.45,1.34-1.95,2.57-1.95Z"/></g><path class="cls-3" d="M95.91,181.4c0,4.22-3.42,7.63-7.63,7.63s-7.63-3.42-7.63-7.63,3.42-7.63,7.63-7.63,7.63,3.42,7.63,7.63" vector-effect="none"/><g><path class="cls-12" d="M120.43,212.09c-2.89,0-4.49-2.11-4.49-5.24s1.6-5.24,4.49-5.24,4.49,2.11,4.49,5.24-1.6,5.24-4.49,5.24Zm0-.84c2.51,0,3.51-2.2,3.51-4.41s-1-4.41-3.51-4.41-3.51,2.2-3.51,4.41,1,4.41,3.51,4.41Z"/><path class="cls-12" d="M127.57,205.65h-1.39v-.77h1.39v-1.49l.84-.36v1.85h1.59v.77h-1.59v4.69c-.01,.64,.32,.99,.96,.99,.25,0,.5-.01,.72-.08v.73c-.27,.07-.57,.12-.85,.12-1.77,0-1.67-1.13-1.67-2.08v-4.37Z"/><path class="cls-12" d="M132.45,211.89h-.84v-5.42c.01-.54-.04-1.1-.07-1.58h.86l.04,1.03h.03c.25-.71,.88-1.21,1.58-1.24,.28-.01,.56,0,.84,.01v.81c-.17-.01-.35-.06-.52-.06-1.24,0-1.9,.89-1.92,2.23v4.21Z"/><path class="cls-12" d="M142.28,208.39c0,1.84-1.03,3.71-3.26,3.71s-3.26-1.87-3.26-3.71,1.03-3.71,3.26-3.71,3.26,1.87,3.26,3.71Zm-3.26-2.94c-1.69,0-2.36,1.65-2.36,2.94s.67,2.94,2.36,2.94,2.36-1.65,2.36-2.94-.67-2.94-2.36-2.94Z"/><path class="cls-12" d="M146.34,204.68c1.32,0,2.44,.46,2.55,1.94h-.91c-.08-.88-.86-1.17-1.73-1.17-.78,0-1.58,.31-1.58,1.13,0,1.03,1.35,.93,3.25,1.6,.72,.25,1.19,.88,1.19,1.63,0,1.58-1.46,2.29-2.94,2.29-1.21,0-2.61-.57-2.64-2.12h.91c.07,1.05,.99,1.35,1.94,1.35,.89,0,1.83-.42,1.83-1.39s-1.1-1.17-2.22-1.42c-1.1-.26-2.22-.59-2.22-1.88,0-1.45,1.34-1.95,2.57-1.95Z"/></g><path class="cls-2" d="M95.91,207.73c0,4.22-3.42,7.63-7.63,7.63s-7.63-3.42-7.63-7.63,3.42-7.63,7.63-7.63,7.63,3.42,7.63,7.63" vector-effect="none"/><g><path class="cls-12" d="M117.14,135.4v-10.07h1.45l3.78,8.77,3.86-8.77h1.38v10.07h-.91v-9.3h-.03l-3.85,9.3h-.91l-3.85-9.26h-.03v9.26h-.91Z"/><path class="cls-12" d="M136.1,131.9c0,1.84-1.03,3.71-3.26,3.71s-3.26-1.87-3.26-3.71,1.03-3.71,3.26-3.71,3.26,1.87,3.26,3.71Zm-3.26-2.94c-1.69,0-2.36,1.65-2.36,2.94s.67,2.94,2.36,2.94,2.36-1.65,2.36-2.94-.67-2.94-2.36-2.94Z"/><path class="cls-12" d="M142.65,134.37l-.03-.06c-.57,.84-1.42,1.3-2.4,1.3-2.08,0-2.87-1.98-2.87-3.74s.79-3.68,2.87-3.68c.93,0,1.91,.45,2.4,1.27l.03-.03v-4.1h.84v8.49c0,.54,.04,1.1,.07,1.58h-.86l-.04-1.03Zm-2.29-5.41c-1.59,0-2.11,1.48-2.11,2.82s.38,3.07,1.98,3.07c1.83,0,2.38-1.52,2.38-3.11,0-1.42-.63-2.78-2.26-2.78Z"/><path class="cls-12" d="M146.07,132.1c.03,1.49,.71,2.75,2.43,2.75,.99,0,1.81-.71,2.02-1.67h.88c-.43,1.67-1.48,2.44-3.17,2.44-2.09,0-3.07-1.8-3.07-3.71s1.05-3.71,3.12-3.71c2.34,0,3.19,1.72,3.19,3.91h-5.41Zm4.5-.77c-.1-1.35-.82-2.37-2.27-2.37-1.37,0-2.09,1.14-2.2,2.37h4.48Z"/><path class="cls-12" d="M154.17,135.4h-.84v-5.43c.01-.54-.04-1.1-.07-1.58h.87l.04,1.03h.03c.25-.71,.88-1.21,1.58-1.24,.28-.01,.56,0,.84,.01v.81c-.17-.01-.35-.06-.52-.06-1.24,0-1.9,.89-1.92,2.23v4.21Z"/><path class="cls-12" d="M158.82,135.4h-.84v-5.43c0-.54-.04-1.1-.07-1.58h.87l.04,1.03,.03,.03c.49-.86,1.28-1.27,2.19-1.27,2.29,0,2.47,2.02,2.47,2.83v4.38h-.84v-4.52c0-1.21-.7-1.92-1.84-1.92-1.38,0-2.01,1.16-2.01,2.41v4.03Z"/><path class="cls-12" d="M171.76,131.9c0,1.84-1.03,3.71-3.26,3.71s-3.26-1.87-3.26-3.71,1.03-3.71,3.26-3.71,3.26,1.87,3.26,3.71Zm-3.26-2.94c-1.69,0-2.36,1.65-2.36,2.94s.67,2.94,2.36,2.94,2.36-1.65,2.36-2.94-.67-2.94-2.36-2.94Z"/></g><g><path class="cls-12" d="M121.99,103.87c-.17-1.23-1.23-1.73-2.37-1.73-2.58,0-3.36,2.34-3.36,4.41s.78,4.41,3.36,4.41c1.12,0,2.23-.56,2.48-1.81h.98c-.29,1.69-1.84,2.65-3.46,2.65-3.05,0-4.34-2.46-4.34-5.24s1.3-5.24,4.34-5.24c1.65,0,3.21,.75,3.35,2.57h-.98Z"/><path class="cls-12" d="M130.87,108.08c0,1.84-1.03,3.71-3.26,3.71s-3.26-1.87-3.26-3.71,1.03-3.71,3.26-3.71,3.26,1.87,3.26,3.71Zm-3.26-2.94c-1.69,0-2.36,1.65-2.36,2.94s.67,2.94,2.36,2.94,2.36-1.65,2.36-2.94-.67-2.94-2.36-2.94Z"/><path class="cls-12" d="M133.44,111.58h-.84v-5.43c0-.54-.04-1.1-.07-1.58h.87l.04,1.03,.03,.03c.49-.86,1.28-1.27,2.19-1.27,2.29,0,2.47,2.02,2.47,2.83v4.38h-.84v-4.52c0-1.21-.7-1.92-1.84-1.92-1.38,0-2.01,1.16-2.01,2.41v4.03Z"/><path class="cls-12" d="M140.95,105.35h-1.39v-.77h1.39v-1.49l.84-.36v1.86h1.59v.77h-1.59v4.69c-.01,.64,.32,.99,.96,.99,.25,0,.5-.01,.73-.08v.72c-.26,.07-.57,.13-.85,.13-1.77,0-1.67-1.13-1.67-2.08v-4.37Z"/><path class="cls-12" d="M145.49,108.28c.03,1.49,.71,2.75,2.43,2.75,.99,0,1.81-.71,2.02-1.67h.88c-.43,1.67-1.48,2.44-3.17,2.44-2.09,0-3.07-1.8-3.07-3.71s1.05-3.71,3.12-3.71c2.34,0,3.19,1.72,3.19,3.91h-5.41Zm4.5-.77c-.1-1.35-.82-2.37-2.27-2.37-1.37,0-2.09,1.14-2.2,2.37h4.48Z"/><path class="cls-12" d="M153.57,105.61l.03,.03c.49-.86,1.28-1.27,2.19-1.27,1.1,0,1.97,.61,2.27,1.53,.52-.82,1.33-1.53,2.41-1.53,2.29,0,2.47,2.02,2.47,2.83v4.38h-.84v-4.52c0-1.21-.7-1.92-1.84-1.92-1.38,0-2.01,1.16-2.01,2.41v4.03h-.84v-4.52c0-1.21-.7-1.92-1.84-1.92-1.38,0-2.01,1.16-2.01,2.41v4.03h-.84v-5.43c0-.54-.04-1.1-.07-1.58h.87l.04,1.03Z"/><path class="cls-12" d="M165.85,114.26h-.84v-8.1c.01-.54-.04-1.1-.07-1.58h.87l.04,1.03,.03,.03c.49-.82,1.46-1.27,2.4-1.27,2.08,0,2.87,1.87,2.87,3.68s-.79,3.74-2.83,3.74c-1.02,0-1.87-.46-2.44-1.3h-.03v3.77Zm2.38-3.24c1.6,0,2.01-1.77,2.01-3.07s-.54-2.82-2.13-2.82-2.26,1.35-2.26,2.78c0,1.59,.56,3.11,2.38,3.11Z"/><path class="cls-12" d="M178.93,108.08c0,1.84-1.03,3.71-3.26,3.71s-3.26-1.87-3.26-3.71,1.03-3.71,3.26-3.71,3.26,1.87,3.26,3.71Zm-3.26-2.94c-1.69,0-2.36,1.65-2.36,2.94s.67,2.94,2.36,2.94,2.36-1.65,2.36-2.94-.67-2.94-2.36-2.94Z"/><path class="cls-12" d="M181.5,111.58h-.84v-5.43c.01-.54-.04-1.1-.07-1.58h.87l.04,1.03h.03c.25-.71,.88-1.21,1.58-1.24,.28-.01,.56,0,.84,.01v.81c-.17-.01-.35-.06-.52-.06-1.24,0-1.9,.89-1.92,2.23v4.21Z"/><path class="cls-12" d="M189.27,106.65c-.08-1.14-.67-1.51-1.66-1.51-.88,0-1.6,.26-1.72,1.21h-.89c.21-1.44,1.28-1.98,2.62-1.98,1.55,0,2.51,.71,2.48,2.32v3.32c-.01,.54,.04,1.1,.07,1.58h-.86l-.03-1.03h-.03l-.04,.1c-.31,.59-1.24,1.14-2.19,1.14-1.3,0-2.33-.79-2.33-2.16,0-.95,.57-1.67,1.41-2.02,.93-.41,2.15-.27,3.17-.32v-.64Zm-2.09,4.38c1.83,0,2.18-1.51,2.09-2.97-1.19,.04-3.67-.18-3.67,1.58,0,.95,.73,1.4,1.58,1.4Zm2.16-9.3l-1.77,1.99h-.61l1.27-1.99h1.12Z"/><path class="cls-12" d="M193.11,111.58h-.84v-5.43c0-.54-.04-1.1-.07-1.58h.87l.04,1.03,.03,.03c.49-.86,1.28-1.27,2.19-1.27,2.29,0,2.47,2.02,2.47,2.83v4.38h-.84v-4.52c0-1.21-.7-1.92-1.84-1.92-1.38,0-2.01,1.16-2.01,2.41v4.03Z"/><path class="cls-12" d="M200.52,108.28c.03,1.49,.71,2.75,2.43,2.75,.99,0,1.81-.71,2.02-1.67h.88c-.43,1.67-1.48,2.44-3.17,2.44-2.09,0-3.07-1.8-3.07-3.71s1.05-3.71,3.12-3.71c2.34,0,3.19,1.72,3.19,3.91h-5.41Zm4.5-.77c-.1-1.35-.82-2.37-2.27-2.37-1.37,0-2.09,1.14-2.2,2.37h4.48Z"/><path class="cls-12" d="M213.81,108.08c0,1.84-1.03,3.71-3.26,3.71s-3.26-1.87-3.26-3.71,1.03-3.71,3.26-3.71,3.26,1.87,3.26,3.71Zm-3.26-2.94c-1.69,0-2.36,1.65-2.36,2.94s.67,2.94,2.36,2.94,2.36-1.65,2.36-2.94-.67-2.94-2.36-2.94Z"/></g><rect x="84.1" y="103.7" width="8.37" height="8.37" transform="translate(102.15 -30.83) rotate(45)"/><path class="cls-2" d="M95.34,155.35c0,4.22-3.42,7.63-7.63,7.63s-7.63-3.42-7.63-7.63,3.42-7.63,7.63-7.63,7.63,3.42,7.63,7.63" vector-effect="none"/><circle cx="87.71" cy="155.39" r="4.65"/><g><path class="cls-12" d="M118.44,158.45v-10.07h1.45l3.78,8.77,3.86-8.77h1.38v10.07h-.91v-9.3h-.03l-3.85,9.3h-.91l-3.85-9.26h-.03v9.26h-.91Z"/><path class="cls-12" d="M137.4,154.95c0,1.84-1.03,3.71-3.26,3.71s-3.26-1.87-3.26-3.71,1.03-3.71,3.26-3.71,3.26,1.87,3.26,3.71Zm-3.26-2.94c-1.69,0-2.36,1.65-2.36,2.94s.67,2.94,2.36,2.94,2.36-1.65,2.36-2.94-.67-2.94-2.36-2.94Z"/><path class="cls-12" d="M143.95,157.42l-.03-.06c-.57,.84-1.42,1.3-2.4,1.3-2.08,0-2.87-1.98-2.87-3.74s.79-3.68,2.87-3.68c.93,0,1.91,.45,2.4,1.27l.03-.03v-4.1h.84v8.49c0,.54,.04,1.1,.07,1.58h-.86l-.04-1.03Zm-2.29-5.41c-1.59,0-2.11,1.48-2.11,2.82s.38,3.07,1.98,3.07c1.83,0,2.38-1.52,2.38-3.11,0-1.42-.63-2.78-2.26-2.78Z"/><path class="cls-12" d="M147.37,155.15c.03,1.49,.71,2.75,2.43,2.75,.99,0,1.81-.71,2.02-1.67h.88c-.43,1.67-1.48,2.44-3.17,2.44-2.09,0-3.07-1.8-3.07-3.71s1.04-3.71,3.12-3.71c2.34,0,3.19,1.72,3.19,3.91h-5.41Zm4.5-.77c-.1-1.35-.82-2.37-2.27-2.37-1.37,0-2.09,1.14-2.2,2.37h4.48Z"/><path class="cls-12" d="M155.47,158.45h-.84v-5.43c.01-.54-.04-1.1-.07-1.58h.86l.04,1.03h.03c.25-.71,.88-1.21,1.58-1.24,.28-.01,.56,0,.84,.01v.81c-.17-.01-.35-.06-.52-.06-1.24,0-1.9,.89-1.92,2.23v4.21Z"/><path class="cls-12" d="M160.12,158.45h-.84v-5.43c0-.54-.04-1.1-.07-1.58h.87l.04,1.03,.03,.03c.49-.86,1.28-1.27,2.19-1.27,2.29,0,2.47,2.02,2.47,2.83v4.38h-.84v-4.52c0-1.21-.7-1.92-1.84-1.92-1.38,0-2.01,1.16-2.01,2.41v4.03Z"/><path class="cls-12" d="M173.06,154.95c0,1.84-1.03,3.71-3.26,3.71s-3.26-1.87-3.26-3.71,1.03-3.71,3.26-3.71,3.26,1.87,3.26,3.71Zm-3.26-2.94c-1.69,0-2.36,1.65-2.36,2.94s.67,2.94,2.36,2.94,2.36-1.65,2.36-2.94-.67-2.94-2.36-2.94Z"/><path class="cls-12" d="M176.96,148.38h.91l-3.64,11.41h-.88l3.61-11.41Z"/><path class="cls-12" d="M185.11,150.74c-.17-1.23-1.23-1.73-2.37-1.73-2.58,0-3.36,2.34-3.36,4.41s.78,4.41,3.36,4.41c1.12,0,2.23-.56,2.48-1.81h.98c-.29,1.69-1.84,2.65-3.46,2.65-3.05,0-4.34-2.46-4.34-5.24s1.3-5.24,4.34-5.24c1.65,0,3.21,.75,3.35,2.57h-.98Z"/><path class="cls-12" d="M193.99,154.95c0,1.84-1.03,3.71-3.26,3.71s-3.26-1.87-3.26-3.71,1.03-3.71,3.26-3.71,3.26,1.87,3.26,3.71Zm-3.26-2.94c-1.69,0-2.36,1.65-2.36,2.94s.67,2.94,2.36,2.94,2.36-1.65,2.36-2.94-.67-2.94-2.36-2.94Z"/><path class="cls-12" d="M196.56,158.45h-.84v-5.43c0-.54-.04-1.1-.07-1.58h.87l.04,1.03,.03,.03c.49-.86,1.28-1.27,2.19-1.27,2.29,0,2.47,2.02,2.47,2.83v4.38h-.84v-4.52c0-1.21-.7-1.92-1.84-1.92-1.38,0-2.01,1.16-2.01,2.41v4.03Z"/><path class="cls-12" d="M204.08,152.22h-1.39v-.77h1.39v-1.49l.84-.36v1.86h1.59v.77h-1.59v4.69c-.01,.64,.32,.99,.96,.99,.25,0,.5-.01,.73-.08v.72c-.27,.07-.57,.13-.85,.13-1.77,0-1.67-1.13-1.67-2.08v-4.37Z"/><path class="cls-12" d="M208.61,155.15c.03,1.49,.71,2.75,2.43,2.75,.99,0,1.81-.71,2.02-1.67h.88c-.43,1.67-1.48,2.44-3.17,2.44-2.09,0-3.07-1.8-3.07-3.71s1.04-3.71,3.12-3.71c2.34,0,3.19,1.72,3.19,3.91h-5.41Zm4.5-.77c-.1-1.35-.82-2.37-2.27-2.37-1.37,0-2.09,1.14-2.2,2.37h4.48Z"/><path class="cls-12" d="M216.7,152.48l.03,.03c.49-.86,1.28-1.27,2.19-1.27,1.1,0,1.97,.61,2.27,1.53,.52-.82,1.32-1.53,2.41-1.53,2.29,0,2.47,2.02,2.47,2.83v4.38h-.84v-4.52c0-1.21-.7-1.92-1.84-1.92-1.38,0-2.01,1.16-2.01,2.41v4.03h-.84v-4.52c0-1.21-.7-1.92-1.84-1.92-1.38,0-2.01,1.16-2.01,2.41v4.03h-.84v-5.43c0-.54-.04-1.1-.07-1.58h.86l.04,1.03Z"/><path class="cls-12" d="M228.97,161.13h-.84v-8.1c.01-.54-.04-1.1-.07-1.58h.86l.04,1.03,.03,.03c.49-.82,1.46-1.27,2.4-1.27,2.08,0,2.87,1.87,2.87,3.68s-.79,3.74-2.83,3.74c-1.02,0-1.87-.46-2.44-1.3h-.03v3.77Zm2.38-3.24c1.6,0,2.01-1.77,2.01-3.07s-.54-2.82-2.13-2.82-2.26,1.35-2.26,2.78c0,1.59,.56,3.11,2.38,3.11Z"/><path class="cls-12" d="M242.05,154.95c0,1.84-1.03,3.71-3.26,3.71s-3.26-1.87-3.26-3.71,1.03-3.71,3.26-3.71,3.26,1.87,3.26,3.71Zm-3.26-2.94c-1.69,0-2.36,1.65-2.36,2.94s.67,2.94,2.36,2.94,2.36-1.65,2.36-2.94-.67-2.94-2.36-2.94Z"/><path class="cls-12" d="M244.62,158.45h-.84v-5.43c.01-.54-.04-1.1-.07-1.58h.87l.04,1.03h.03c.25-.71,.88-1.21,1.58-1.24,.28-.01,.56,0,.84,.01v.81c-.17-.01-.35-.06-.52-.06-1.24,0-1.9,.89-1.92,2.23v4.21Z"/><path class="cls-12" d="M252.39,153.51c-.08-1.14-.67-1.51-1.66-1.51-.88,0-1.6,.26-1.71,1.21h-.89c.21-1.44,1.28-1.98,2.62-1.98,1.55,0,2.51,.71,2.48,2.32v3.32c-.01,.54,.04,1.1,.07,1.58h-.87l-.03-1.03h-.03l-.04,.1c-.31,.59-1.24,1.14-2.19,1.14-1.3,0-2.33-.79-2.33-2.16,0-.95,.57-1.67,1.41-2.02,.93-.41,2.15-.27,3.17-.32v-.64Zm-2.09,4.38c1.83,0,2.18-1.51,2.09-2.97-1.19,.04-3.67-.18-3.67,1.58,0,.95,.72,1.4,1.58,1.4Zm2.16-9.3l-1.77,1.99h-.61l1.27-1.99h1.12Z"/><path class="cls-12" d="M256.24,158.45h-.84v-5.43c0-.54-.04-1.1-.07-1.58h.86l.04,1.03,.03,.03c.49-.86,1.28-1.27,2.19-1.27,2.29,0,2.47,2.02,2.47,2.83v4.38h-.84v-4.52c0-1.21-.7-1.92-1.84-1.92-1.38,0-2.01,1.16-2.01,2.41v4.03Z"/><path class="cls-12" d="M263.64,155.15c.03,1.49,.71,2.75,2.43,2.75,.99,0,1.81-.71,2.02-1.67h.88c-.43,1.67-1.48,2.44-3.17,2.44-2.09,0-3.07-1.8-3.07-3.71s1.05-3.71,3.12-3.71c2.34,0,3.19,1.72,3.19,3.91h-5.41Zm4.5-.77c-.1-1.35-.82-2.37-2.27-2.37-1.37,0-2.09,1.14-2.2,2.37h4.48Z"/><path class="cls-12" d="M276.94,154.95c0,1.84-1.03,3.71-3.26,3.71s-3.26-1.87-3.26-3.71,1.03-3.71,3.26-3.71,3.26,1.87,3.26,3.71Zm-3.26-2.94c-1.69,0-2.36,1.65-2.36,2.94s.67,2.94,2.36,2.94,2.36-1.65,2.36-2.94-.67-2.94-2.36-2.94Z"/></g><rect x="83.43" y="128.6" width="9.46" height="9.46"/><circle class="cls-10" cx="91.24" cy="256.96" r="11.3"/><circle class="cls-13" cx="91.24" cy="329.83" r="11.3"/><circle class="cls-11" cx="91.24" cy="293.19" r="11.3"/><g><path class="cls-9" d="M71.79,27.73h3.39c1.23,0,2.07,.07,2.76,.81,.5,.52,.74,1.2,.74,1.96s-.25,1.43-.8,1.98c-.53,.53-1.23,.87-3.05,.87h-1.64v4.5h-1.4v-10.11Zm1.4,4.44h1.67c.92,0,2.34-.07,2.34-1.72s-1.32-1.58-2.04-1.58h-1.96v3.31Z"/><path class="cls-9" d="M84.21,37.84c-.1-.35-.13-.69-.13-1.05-.63,1.16-1.58,1.27-2.17,1.27-1.61,0-2.48-.91-2.48-2.07,0-.56,.2-1.46,1.23-2.06,.76-.42,1.88-.46,2.44-.46,.34,0,.55,.01,.95,.04,0-.87,0-1.25-.25-1.56-.27-.35-.84-.46-1.22-.46-1.33,0-1.4,.91-1.42,1.19h-1.32c.04-.36,.08-.85,.49-1.33,.53-.59,1.53-.76,2.27-.76,1.02,0,2.12,.32,2.49,1.04,.22,.42,.24,.76,.24,1.08l-.06,3.36c0,.11,.01,1.05,.11,1.77h-1.19Zm-.91-3.46c-.53,0-2.54,0-2.54,1.43,0,.45,.28,1.22,1.46,1.22,.67,0,1.18-.27,1.5-.76,.29-.48,.31-.87,.34-1.85-.24-.03-.43-.04-.76-.04Z"/><path class="cls-9" d="M87.78,32.24c0-.48-.03-.97-.07-1.43h1.33l.03,1.36c.25-.98,1.09-1.3,1.68-1.39,.39-.06,.69-.04,.91-.03v1.29c-.07-.03-.15-.04-.25-.06-.1-.01-.22-.01-.38-.01-1.55,0-1.92,.92-1.92,2.13v3.74h-1.33v-5.6Z"/><path class="cls-9" d="M97.44,37.84c-.1-.35-.13-.69-.13-1.05-.63,1.16-1.58,1.27-2.17,1.27-1.61,0-2.48-.91-2.48-2.07,0-.56,.2-1.46,1.23-2.06,.76-.42,1.88-.46,2.44-.46,.34,0,.55,.01,.95,.04,0-.87,0-1.25-.25-1.56-.27-.35-.84-.46-1.22-.46-1.33,0-1.4,.91-1.42,1.19h-1.32c.04-.36,.08-.85,.49-1.33,.53-.59,1.53-.76,2.27-.76,1.02,0,2.12,.32,2.49,1.04,.22,.42,.24,.76,.24,1.08l-.06,3.36c0,.11,.01,1.05,.11,1.77h-1.19Zm-.91-3.46c-.53,0-2.54,0-2.54,1.43,0,.45,.28,1.22,1.46,1.22,.67,0,1.18-.27,1.5-.76,.29-.48,.31-.87,.34-1.85-.24-.03-.43-.04-.76-.04Z"/><path class="cls-9" d="M104.86,27.74h1.32v10.1h-1.32v-10.1Z"/><path class="cls-9" d="M109.52,34.56c-.03,1.46,.57,2.54,2.02,2.54,.85,0,1.54-.45,1.65-1.46h1.32c-.04,.35-.1,.92-.6,1.47-.31,.35-1.01,.94-2.42,.94-2.21,0-3.26-1.37-3.26-3.6,0-1.39,.28-2.54,1.39-3.31,.67-.48,1.51-.52,1.92-.52,3.15,0,3.08,2.79,3.05,3.94h-5.06Zm3.71-.92c.01-.67-.11-2.07-1.74-2.07-.85,0-1.89,.52-1.92,2.07h3.66Z"/><path class="cls-9" d="M117.3,34.56c-.03,1.46,.57,2.54,2.02,2.54,.85,0,1.54-.45,1.65-1.46h1.32c-.04,.35-.1,.92-.6,1.47-.31,.35-1.01,.94-2.42,.94-2.21,0-3.26-1.37-3.26-3.6,0-1.39,.28-2.54,1.39-3.31,.67-.48,1.51-.52,1.92-.52,3.15,0,3.08,2.79,3.05,3.94h-5.06Zm3.71-.92c.01-.67-.11-2.07-1.74-2.07-.85,0-1.89,.52-1.92,2.07h3.66Z"/><path class="cls-9" d="M124.36,32.24c0-.48-.03-.97-.07-1.43h1.33l.03,1.36c.25-.98,1.09-1.3,1.68-1.39,.39-.06,.69-.04,.91-.03v1.29c-.07-.03-.15-.04-.25-.06-.1-.01-.22-.01-.38-.01-1.55,0-1.92,.92-1.92,2.13v3.74h-1.33v-5.6Z"/><path class="cls-9" d="M134.43,34.56c-.03,1.46,.57,2.54,2.02,2.54,.85,0,1.54-.45,1.65-1.46h1.32c-.04,.35-.1,.92-.6,1.47-.31,.35-1.01,.94-2.42,.94-2.21,0-3.26-1.37-3.26-3.6,0-1.39,.28-2.54,1.39-3.31,.67-.48,1.51-.52,1.92-.52,3.15,0,3.08,2.79,3.05,3.94h-5.06Zm3.71-.92c.01-.67-.11-2.07-1.74-2.07-.85,0-1.89,.52-1.92,2.07h3.66Z"/><path class="cls-9" d="M141.44,27.74h1.32v10.1h-1.32v-10.1Z"/><path class="cls-9" d="M153.2,33.06c-.03-.32-.13-1.47-1.4-1.47-1.82,0-1.82,2.12-1.82,2.65,0,1.44,.35,2.79,1.75,2.79,1.12,0,1.5-.84,1.53-1.53h1.33c-.08,1.37-1.11,2.52-2.84,2.52-.48,0-1.57-.1-2.31-.91-.42-.49-.84-1.23-.84-2.69,0-2.93,1.79-3.8,3.19-3.8,.46,0,1.51,.1,2.16,.87,.52,.6,.56,1.18,.59,1.57h-1.33Z"/><path class="cls-9" d="M160.48,37.84c-.1-.35-.13-.69-.13-1.05-.63,1.16-1.58,1.27-2.17,1.27-1.61,0-2.48-.91-2.48-2.07,0-.56,.2-1.46,1.23-2.06,.76-.42,1.88-.46,2.44-.46,.34,0,.55,.01,.95,.04,0-.87,0-1.25-.25-1.56-.27-.35-.84-.46-1.22-.46-1.33,0-1.4,.91-1.42,1.19h-1.32c.04-.36,.08-.85,.49-1.33,.53-.59,1.53-.76,2.27-.76,1.02,0,2.12,.32,2.49,1.04,.22,.42,.24,.76,.24,1.08l-.06,3.36c0,.11,.01,1.05,.11,1.77h-1.19Zm-.91-3.46c-.53,0-2.54,0-2.54,1.43,0,.45,.28,1.22,1.46,1.22,.67,0,1.18-.27,1.5-.76,.29-.48,.31-.87,.34-1.85-.24-.03-.43-.04-.76-.04Z"/><path class="cls-9" d="M164.05,32.24c0-.48-.03-.97-.07-1.43h1.33l.03,1.36c.25-.98,1.09-1.3,1.68-1.39,.39-.06,.69-.04,.91-.03v1.29c-.07-.03-.15-.04-.25-.06-.1-.01-.22-.01-.38-.01-1.55,0-1.92,.92-1.92,2.13v3.74h-1.33v-5.6Z"/><path class="cls-9" d="M168,30.78h1.25v-1.47l1.3-.42v1.89h1.57v.97h-1.57v4.22c0,.35,0,.94,.94,.94,.27,0,.52-.04,.63-.07v1.02c-.24,.04-.62,.08-1.09,.08-1.21,0-1.78-.35-1.78-1.5v-4.69h-1.25v-.97Z"/><path class="cls-9" d="M174.54,34.56c-.03,1.46,.57,2.54,2.02,2.54,.85,0,1.54-.45,1.65-1.46h1.32c-.04,.35-.1,.92-.6,1.47-.31,.35-1.01,.94-2.42,.94-2.21,0-3.26-1.37-3.26-3.6,0-1.39,.28-2.54,1.39-3.31,.67-.48,1.51-.52,1.92-.52,3.15,0,3.08,2.79,3.05,3.94h-5.06Zm3.71-.92c.01-.67-.11-2.07-1.74-2.07-.85,0-1.89,.52-1.92,2.07h3.66Z"/><path class="cls-9" d="M181.55,27.74h1.32v10.1h-1.32v-10.1Z"/><path class="cls-9" d="M188.23,30.78h1.25v-1.47l1.3-.42v1.89h1.57v.97h-1.57v4.22c0,.35,0,.94,.94,.94,.27,0,.52-.04,.63-.07v1.02c-.24,.04-.62,.08-1.09,.08-1.21,0-1.78-.35-1.78-1.5v-4.69h-1.25v-.97Z"/><path class="cls-9" d="M197.02,30.63c2.82,0,3.45,2.21,3.45,3.68,0,2.06-1.16,3.77-3.56,3.77s-3.46-1.61-3.46-3.67c0-1.74,.81-3.78,3.57-3.78Zm-.08,6.47c1,0,2.13-.71,2.13-2.83,0-1.75-.81-2.68-2.04-2.68-.84,0-2.2,.53-2.2,2.73,0,1.44,.62,2.77,2.12,2.77Z"/><path class="cls-9" d="M202.51,31.75l-.03-.94h1.33v1.02c.67-1.11,1.62-1.2,2.23-1.2,1.55,0,2.04,.8,2.3,1.32,.24-.39,.81-1.32,2.37-1.32,1.01,0,2.58,.42,2.58,2.49v4.72h-1.33v-4.51c0-.62-.11-.88-.24-1.06-.22-.32-.67-.62-1.34-.62-.85,0-1.32,.49-1.5,.74-.31,.43-.31,1.2-.31,1.51v3.94h-1.33v-4.65c0-.87-.5-1.54-1.54-1.54-.9,0-1.39,.56-1.54,.77-.29,.41-.31,.98-.31,1.43v3.99h-1.33v-6.09Z"/><path class="cls-9" d="M220.02,37.84c-.1-.35-.13-.69-.13-1.05-.63,1.16-1.58,1.27-2.17,1.27-1.61,0-2.48-.91-2.48-2.07,0-.56,.2-1.46,1.23-2.06,.76-.42,1.88-.46,2.44-.46,.34,0,.55,.01,.95,.04,0-.87,0-1.25-.25-1.56-.27-.35-.84-.46-1.22-.46-1.33,0-1.4,.91-1.42,1.19h-1.32c.04-.36,.08-.85,.49-1.33,.53-.59,1.53-.76,2.27-.76,1.02,0,2.12,.32,2.49,1.04,.22,.42,.24,.76,.24,1.08l-.06,3.36c0,.11,.01,1.05,.11,1.77h-1.19Zm-.91-3.46c-.53,0-2.54,0-2.54,1.43,0,.45,.28,1.22,1.46,1.22,.67,0,1.18-.27,1.5-.76,.29-.48,.31-.87,.34-1.85-.24-.03-.43-.04-.76-.04Z"/><path class="cls-9" d="M223.59,32.24c0-.48-.03-.97-.07-1.43h1.33l.03,1.36c.25-.98,1.09-1.3,1.68-1.39,.39-.06,.69-.04,.91-.03v1.29c-.07-.03-.15-.04-.25-.06-.1-.01-.22-.01-.38-.01-1.55,0-1.92,.92-1.92,2.13v3.74h-1.33v-5.6Z"/><path class="cls-9" d="M233.66,34.56c-.03,1.46,.57,2.54,2.02,2.54,.85,0,1.54-.45,1.65-1.46h1.32c-.04,.35-.1,.92-.6,1.47-.31,.35-1.01,.94-2.42,.94-2.21,0-3.26-1.37-3.26-3.6,0-1.39,.28-2.54,1.39-3.31,.67-.48,1.51-.52,1.92-.52,3.15,0,3.08,2.79,3.05,3.94h-5.06Zm3.71-.92c.01-.67-.11-2.07-1.74-2.07-.85,0-1.89,.52-1.92,2.07h3.66Z"/><path class="cls-9" d="M240.69,31.62v-.81s1.3,0,1.3,0v1.13c.17-.29,.67-1.27,2.27-1.27,.63,0,2.55,.24,2.55,2.4v4.78h-1.35v-4.47c0-.46-.06-.88-.38-1.2-.34-.32-.8-.48-1.25-.48-.95,0-1.83,.69-1.83,2.1v4.05h-1.32v-6.22Z"/><path class="cls-9" d="M75.79,49.86c-.03-.32-.13-1.47-1.4-1.47-1.82,0-1.82,2.12-1.82,2.65,0,1.44,.35,2.79,1.75,2.79,1.12,0,1.5-.84,1.53-1.53h1.33c-.08,1.37-1.11,2.52-2.84,2.52-.48,0-1.57-.1-2.31-.91-.42-.49-.84-1.23-.84-2.69,0-2.93,1.79-3.8,3.19-3.8,.46,0,1.51,.1,2.16,.87,.52,.6,.56,1.18,.59,1.57h-1.33Z"/><path class="cls-9" d="M79.99,47.61v4.52c0,.69,.15,1.55,1.5,1.55,.66,0,1.27-.22,1.65-.78,.29-.42,.29-.97,.29-1.32v-3.98h1.36v5.71c0,.14,.03,.92,.04,1.32h-1.37l-.03-1.2c-.25,.49-.73,1.27-2.24,1.27-1.74,0-2.55-.99-2.55-2.38v-4.72h1.34Z"/><path class="cls-9" d="M88.14,51.36c-.03,1.46,.57,2.54,2.02,2.54,.85,0,1.54-.45,1.65-1.46h1.32c-.04,.35-.1,.92-.6,1.47-.31,.35-1.01,.94-2.42,.94-2.21,0-3.26-1.37-3.26-3.6,0-1.39,.28-2.54,1.39-3.31,.67-.48,1.51-.52,1.92-.52,3.15,0,3.08,2.79,3.05,3.94h-5.06Zm3.71-.92c.01-.67-.11-2.07-1.74-2.07-.85,0-1.89,.52-1.92,2.07h3.66Z"/><path class="cls-9" d="M95.17,48.42v-.81s1.3,0,1.3,0v1.13c.17-.29,.67-1.27,2.27-1.27,.63,0,2.55,.24,2.55,2.4v4.78h-1.35v-4.47c0-.46-.06-.88-.38-1.2-.34-.32-.8-.48-1.25-.48-.95,0-1.83,.69-1.83,2.1v4.05h-1.32v-6.22Z"/><path class="cls-9" d="M102.6,47.58h1.25v-1.47l1.3-.42v1.89h1.57v.97h-1.57v4.22c0,.35,0,.94,.94,.94,.27,0,.52-.04,.63-.07v1.02c-.24,.04-.62,.08-1.09,.08-1.21,0-1.78-.35-1.78-1.5v-4.69h-1.25v-.97Z"/><path class="cls-9" d="M112.63,54.64c-.1-.35-.13-.69-.13-1.05-.63,1.16-1.58,1.27-2.17,1.27-1.61,0-2.48-.91-2.48-2.07,0-.56,.2-1.46,1.23-2.06,.76-.42,1.88-.46,2.44-.46,.34,0,.55,.01,.95,.04,0-.87,0-1.25-.25-1.56-.27-.35-.84-.46-1.22-.46-1.33,0-1.4,.91-1.42,1.19h-1.32c.04-.36,.08-.85,.49-1.33,.53-.59,1.53-.76,2.27-.76,1.02,0,2.12,.32,2.49,1.04,.22,.42,.24,.76,.24,1.08l-.06,3.36c0,.11,.01,1.05,.11,1.77h-1.19Zm-.91-3.46c-.53,0-2.54,0-2.54,1.43,0,.45,.28,1.22,1.46,1.22,.67,0,1.18-.27,1.5-.76,.29-.48,.31-.87,.34-1.85-.24-.03-.43-.04-.76-.04Z"/><path class="cls-9" d="M120.04,44.54h1.32v10.1h-1.32v-10.1Z"/><path class="cls-9" d="M128.2,54.64c-.1-.35-.13-.69-.13-1.05-.63,1.16-1.58,1.27-2.17,1.27-1.61,0-2.48-.91-2.48-2.07,0-.56,.2-1.46,1.23-2.06,.76-.42,1.88-.46,2.44-.46,.34,0,.55,.01,.95,.04,0-.87,0-1.25-.25-1.56-.27-.35-.84-.46-1.22-.46-1.33,0-1.4,.91-1.42,1.19h-1.32c.04-.36,.08-.85,.49-1.33,.53-.59,1.53-.76,2.27-.76,1.02,0,2.12,.32,2.49,1.04,.22,.42,.24,.76,.24,1.08l-.06,3.36c0,.11,.01,1.05,.11,1.77h-1.19Zm-.91-3.46c-.53,0-2.54,0-2.54,1.43,0,.45,.28,1.22,1.46,1.22,.67,0,1.18-.27,1.5-.76,.29-.48,.31-.87,.34-1.85-.24-.03-.43-.04-.76-.04Z"/><path class="cls-9" d="M136.34,52.55c-.01,.53,.27,1.27,1.54,1.27,.55,0,.95-.1,1.23-.45,.14-.18,.22-.42,.22-.66,0-.69-.49-.81-1.54-1.05-1.47-.34-2.7-.63-2.7-2.1,0-1.29,1.12-2.13,2.75-2.13,.88,0,2.11,.25,2.54,1.09,.18,.39,.18,.73,.18,1.02h-1.34c.04-1.06-.88-1.15-1.36-1.15-.2,0-1.43,0-1.43,1.01,0,.64,.63,.8,.99,.9,1.95,.46,2.37,.57,2.79,.97,.39,.36,.53,.85,.53,1.3,0,.78-.43,1.46-.95,1.78-.62,.38-1.36,.48-2.09,.48-1.43,0-2.76-.59-2.75-2.28h1.39Z"/><path class="cls-9" d="M142.46,44.55h1.58v1.44h-1.58v-1.44Zm.14,3.05h1.32v7.03h-1.32v-7.03Z"/><path class="cls-9" d="M147.74,55.19c.06,.78,.39,1.37,1.64,1.37,1.83,0,1.86-1.33,1.86-3.24-.56,1.16-1.89,1.19-2.31,1.19-.64,0-1.57-.14-2.16-.87-.6-.71-.8-1.65-.8-2.59,0-2.38,1.4-3.54,3.12-3.54,1.41,0,1.93,.7,2.21,1.06v-.97h1.29l-.03,1.27v4.4c-.01,1.69-.07,2.38-.35,2.91-.59,1.12-1.96,1.26-2.93,1.26-2.82,0-2.9-1.32-2.96-2.27h1.4Zm3.07-2.35c.28-.36,.48-.74,.48-2.02,0-.88-.2-1.39-.55-1.75-.35-.38-.91-.62-1.51-.62-1.67,0-1.89,1.68-1.89,2.58,0,1.08,.32,2.51,1.93,2.51,.77,0,1.22-.28,1.54-.7Z"/><path class="cls-9" d="M156.24,47.61v4.52c0,.69,.15,1.55,1.5,1.55,.66,0,1.27-.22,1.65-.78,.29-.42,.29-.97,.29-1.32v-3.98h1.36v5.71c0,.14,.03,.92,.04,1.32h-1.37l-.03-1.2c-.25,.49-.73,1.27-2.24,1.27-1.74,0-2.55-.99-2.55-2.38v-4.72h1.34Z"/><path class="cls-9" d="M163.46,44.55h1.58v1.44h-1.58v-1.44Zm.14,3.05h1.32v7.03h-1.32v-7.03Z"/><path class="cls-9" d="M168.28,51.36c-.03,1.46,.57,2.54,2.02,2.54,.85,0,1.54-.45,1.65-1.46h1.32c-.04,.35-.1,.92-.6,1.47-.31,.35-1.01,.94-2.42,.94-2.21,0-3.26-1.37-3.26-3.6,0-1.39,.28-2.54,1.39-3.31,.67-.48,1.51-.52,1.92-.52,3.15,0,3.08,2.79,3.05,3.94h-5.06Zm3.71-.92c.01-.67-.11-2.07-1.74-2.07-.85,0-1.89,.52-1.92,2.07h3.66Z"/><path class="cls-9" d="M175.3,48.42v-.81s1.3,0,1.3,0v1.13c.17-.29,.67-1.27,2.27-1.27,.63,0,2.55,.24,2.55,2.4v4.78h-1.34v-4.47c0-.46-.06-.88-.38-1.2-.34-.32-.8-.48-1.25-.48-.95,0-1.83,.69-1.83,2.1v4.05h-1.32v-6.22Z"/><path class="cls-9" d="M182.74,47.58h1.25v-1.47l1.3-.42v1.89h1.57v.97h-1.57v4.22c0,.35,0,.94,.94,.94,.27,0,.52-.04,.63-.07v1.02c-.24,.04-.62,.08-1.09,.08-1.21,0-1.78-.35-1.78-1.5v-4.69h-1.25v-.97Z"/><path class="cls-9" d="M189.28,51.36c-.03,1.46,.57,2.54,2.02,2.54,.85,0,1.54-.45,1.65-1.46h1.32c-.04,.35-.1,.92-.6,1.47-.31,.35-1.01,.94-2.42,.94-2.21,0-3.26-1.37-3.26-3.6,0-1.39,.28-2.54,1.39-3.31,.67-.48,1.51-.52,1.92-.52,3.15,0,3.08,2.79,3.05,3.94h-5.06Zm3.71-.92c.01-.67-.11-2.07-1.74-2.07-.85,0-1.89,.52-1.92,2.07h3.66Z"/><path class="cls-9" d="M200.91,52.55c-.01,.53,.27,1.27,1.54,1.27,.55,0,.95-.1,1.23-.45,.14-.18,.22-.42,.22-.66,0-.69-.49-.81-1.54-1.05-1.47-.34-2.7-.63-2.7-2.1,0-1.29,1.12-2.13,2.75-2.13,.88,0,2.12,.25,2.54,1.09,.18,.39,.18,.73,.18,1.02h-1.34c.04-1.06-.88-1.15-1.36-1.15-.2,0-1.43,0-1.43,1.01,0,.64,.63,.8,.99,.9,1.95,.46,2.37,.57,2.79,.97,.39,.36,.53,.85,.53,1.3,0,.78-.43,1.46-.95,1.78-.62,.38-1.36,.48-2.09,.48-1.43,0-2.76-.59-2.75-2.28h1.39Z"/><path class="cls-9" d="M207.03,44.55h1.58v1.44h-1.58v-1.44Zm.14,3.05h1.32v7.03h-1.32v-7.03Z"/><path class="cls-9" d="M211.03,48.55l-.03-.94h1.33v1.02c.67-1.11,1.62-1.2,2.23-1.2,1.55,0,2.04,.8,2.3,1.32,.24-.39,.81-1.32,2.37-1.32,1.01,0,2.58,.42,2.58,2.49v4.72h-1.33v-4.51c0-.62-.11-.88-.24-1.06-.22-.32-.67-.62-1.34-.62-.85,0-1.32,.49-1.5,.74-.31,.43-.31,1.2-.31,1.51v3.94h-1.33v-4.65c0-.87-.5-1.54-1.54-1.54-.9,0-1.39,.56-1.54,.77-.29,.41-.31,.98-.31,1.43v3.99h-1.33v-6.09Z"/><path class="cls-9" d="M225.58,48.63c.18-.32,.7-1.2,2.3-1.2,.7,0,1.58,.17,2.23,.9,.35,.41,.83,1.11,.83,2.65,0,1.36-.32,2.1-.67,2.56-.56,.8-1.5,1.2-2.46,1.2-.34,0-.97-.04-1.57-.45-.39-.27-.55-.5-.69-.71l-.03,1.06h-1.27l.03-1.26v-8.85h1.32v4.1Zm1.99-.31c-2.02,0-2.02,2.35-2.02,2.8s0,2.66,1.96,2.66c1.62,0,2.03-1.58,2.03-2.73,0-.7-.14-2.73-1.98-2.73Z"/><path class="cls-9" d="M235.87,47.43c2.82,0,3.45,2.21,3.45,3.68,0,2.06-1.16,3.77-3.56,3.77s-3.46-1.61-3.46-3.67c0-1.74,.81-3.78,3.57-3.78Zm-.08,6.47c1,0,2.13-.71,2.13-2.83,0-1.75-.81-2.68-2.04-2.68-.84,0-2.2,.53-2.2,2.73,0,1.44,.62,2.77,2.12,2.77Z"/><path class="cls-9" d="M241.4,44.54h1.32v10.1h-1.32v-10.1Z"/><path class="cls-9" d="M248.31,47.43c2.82,0,3.45,2.21,3.45,3.68,0,2.06-1.16,3.77-3.56,3.77s-3.46-1.61-3.46-3.67c0-1.74,.81-3.78,3.57-3.78Zm-.08,6.47c1,0,2.13-.71,2.13-2.83,0-1.75-.81-2.68-2.04-2.68-.84,0-2.2,.53-2.2,2.73,0,1.44,.62,2.77,2.12,2.77Z"/><path class="cls-9" d="M255.07,55.19c.06,.78,.39,1.37,1.64,1.37,1.83,0,1.86-1.33,1.86-3.24-.56,1.16-1.89,1.19-2.31,1.19-.64,0-1.57-.14-2.16-.87-.6-.71-.8-1.65-.8-2.59,0-2.38,1.4-3.54,3.12-3.54,1.41,0,1.93,.7,2.21,1.06v-.97h1.29l-.03,1.27v4.4c-.01,1.69-.07,2.38-.35,2.91-.59,1.12-1.96,1.26-2.93,1.26-2.82,0-2.9-1.32-2.96-2.27h1.4Zm3.07-2.35c.28-.36,.48-.74,.48-2.02,0-.88-.2-1.39-.55-1.75-.35-.38-.91-.62-1.51-.62-1.67,0-1.89,1.68-1.89,2.58,0,1.08,.32,2.51,1.93,2.51,.77,0,1.22-.28,1.54-.7Z"/><path class="cls-9" d="M264.86,44.27l-1.69,2.02h-.91l1.15-2.02h1.46Zm-2.42,3.33h1.26v7.03h-1.26v-7.03Z"/><path class="cls-9" d="M270.55,54.64c-.1-.35-.13-.69-.13-1.05-.63,1.16-1.58,1.27-2.17,1.27-1.61,0-2.48-.91-2.48-2.07,0-.56,.2-1.46,1.23-2.06,.76-.42,1.88-.46,2.44-.46,.34,0,.55,.01,.95,.04,0-.87,0-1.25-.25-1.56-.27-.35-.84-.46-1.22-.46-1.33,0-1.4,.91-1.42,1.19h-1.32c.04-.36,.08-.85,.49-1.33,.53-.59,1.53-.76,2.27-.76,1.02,0,2.12,.32,2.49,1.04,.22,.42,.24,.76,.24,1.08l-.06,3.36c0,.11,.01,1.05,.11,1.77h-1.19Zm-.91-3.46c-.53,0-2.54,0-2.54,1.43,0,.45,.28,1.22,1.46,1.22,.67,0,1.18-.27,1.5-.76,.29-.48,.31-.87,.34-1.85-.24-.03-.43-.04-.76-.04Z"/><path class="cls-9" d="M273.97,47.54h1.55v1.65h-1.55v-1.65Zm0,5.45h1.55v1.65h-1.55v-1.65Z"/></g></svg>