<?xml version="1.0" encoding="UTF-8"?><svg id="Layer_1" xmlns="http://www.w3.org/2000/svg" xmlns:xlink="http://www.w3.org/1999/xlink" viewBox="0 0 384.27 393.29"><defs><style>.cls-1,.cls-2,.cls-3,.cls-4{fill:none;}.cls-2,.cls-3{opacity:.9;stroke:#000;stroke-width:1.13px;}.cls-2,.cls-3,.cls-5,.cls-6{fill-rule:evenodd;}.cls-2,.cls-3,.cls-4{stroke-miterlimit:10;}.cls-7{fill:#010101;}.cls-8{fill:#f15c4e;}.cls-9{fill:#231f20;}.cls-10{fill:#6d5150;}.cls-3{stroke-dasharray:0 2.83;}.cls-11{fill:url(#linear-gradient);fill-opacity:.8;}.cls-12{clip-path:url(#clippath-1);}.cls-13{clip-path:url(#clippath-9);}.cls-14{clip-path:url(#clippath-20);}.cls-15{clip-path:url(#clippath-21);}.cls-16{clip-path:url(#clippath-22);}.cls-17{clip-path:url(#clippath-14);}.cls-18{clip-path:url(#clippath-13);}.cls-19{clip-path:url(#clippath-12);}.cls-20{clip-path:url(#clippath-10);}.cls-21{clip-path:url(#clippath-15);}.cls-22{clip-path:url(#clippath-17);}.cls-23{clip-path:url(#clippath-16);}.cls-24{clip-path:url(#clippath-19);}.cls-25{clip-path:url(#clippath-11);}.cls-26{clip-path:url(#clippath-18);}.cls-5{fill:#f5f6f6;stroke-width:.28px;}.cls-5,.cls-6{stroke:#a2a0a0;stroke-linecap:square;stroke-linejoin:bevel;}.cls-4{stroke:#010101;stroke-width:.57px;}.cls-6{fill:#cacac9;stroke-width:.28px;}</style><clipPath id="clippath"><circle class="cls-1" cx="-1173.35" cy="-347.89" r="485.54"/></clipPath><clipPath id="clippath-1"><circle class="cls-1" cx="-366.8" cy="-652.03" r="160.34"/></clipPath><clipPath id="clippath-9"><circle class="cls-1" cx="-366.8" cy="-652.03" r="160.34"/></clipPath><clipPath id="clippath-10"><circle class="cls-1" cx="-366.8" cy="-652.03" r="160.34"/></clipPath><clipPath id="clippath-11"><circle class="cls-1" cx="-366.8" cy="-652.03" r="160.34"/></clipPath><clipPath id="clippath-12"><circle class="cls-1" cx="-366.8" cy="-652.03" r="160.34"/></clipPath><clipPath id="clippath-13"><circle class="cls-1" cx="-366.8" cy="-652.03" r="160.34"/></clipPath><clipPath id="clippath-14"><circle class="cls-1" cx="-366.8" cy="-652.03" r="160.34"/></clipPath><clipPath id="clippath-15"><circle class="cls-1" cx="-366.8" cy="-652.03" r="160.34"/></clipPath><clipPath id="clippath-16"><circle class="cls-1" cx="-366.8" cy="-652.03" r="160.34"/></clipPath><clipPath id="clippath-17"><circle class="cls-1" cx="-366.8" cy="-652.03" r="160.34"/></clipPath><clipPath id="clippath-18"><circle class="cls-1" cx="-366.8" cy="-652.03" r="160.34"/></clipPath><clipPath id="clippath-19"><circle class="cls-1" cx="-366.8" cy="-652.03" r="160.34"/></clipPath><clipPath id="clippath-20"><circle class="cls-1" cx="-366.8" cy="-652.03" r="160.34"/></clipPath><clipPath id="clippath-21"><circle class="cls-1" cx="-366.8" cy="-652.03" r="160.34"/></clipPath><clipPath id="clippath-22"><circle class="cls-1" cx="-367.35" cy="-651.99" r="160.3"/></clipPath><linearGradient id="linear-gradient" x1="79.94" y1="329.83" x2="102.54" y2="329.83" gradientUnits="userSpaceOnUse"><stop offset="0" stop-color="#84684d"/><stop offset="1" stop-color="#955d2d"/></linearGradient></defs><g><g class="cls-12"><path class="cls-5" d="M51.6,79.78l-.37,.25,.25-.31,1.49-1.36,.5-.25-.68,.68-1.18,.99" vector-effect="none"/></g><g class="cls-13"><path class="cls-5" d="M389.88-153.72l-.31,.93-.37,.74-.12,.43v.62l.37,.43,.31,.25,.06,.74,.43,1.05-.12,.74,.19,.93v1.8l-.19,1.61,.12,1.05-.56,2.29,.06,.93,.19,.74,.12,1.55v1.43l.31,.37,.68,.5,.93-.5,.68-.68,.68-.19,.93-.37,.5,.93,.12,1.05,1.24,1.36,.68,.87,.56,.5,.5,.68-.19,.68-.25,.5v.81l-.06,.93-.31,1.12,.12,1.74-.12,1.36,.19,1.3-.31,1.36-.19,.5-.19,.74,.19,.93,.19,.68,.31,.74,.37,1.18,.43,.25h.43l-.31,1.18,.31,2.36v1.92l-.87,2.6-.62,1.49-.12,.74,.62,1.8,.56,.31-.31,.87-.37,1.3,.25,1.05,.37,.74,.5,.43,.5,.37,.68,.37,.93,.12,.37,.56,.12,.43,.74,.12,.37-.06,.5-.19,.19,.31,.12,.43,.12,1.12,.56,1.12,.56,.19,.19,.56,.43,.12,.43,.06,.5,.43,.74,.99,.81,.19,.31,.25,.62,1.12,.19,.56,.12,.87-.43,.06-.37-.19-.5,.87,.25,1.18,.43,.81,.56,.87,.43,1.24-.06,.93,.12,.37-.12,1.36,.5,.74-.37,1.43-.19,1.92-.12,1.74,.12,.56,.06,.87,.43-.12,.37-.25,.31,.87,.19,.37,.25-.25,.12-1.61,.5-.93,.25-.12h.31l.12,.74,.25,.81,.68,.74,.56,.68h.19l.06-.5,.25-.74,.31-.12,.19,.37,.12,1.18-.62,2.48-.62,2.05-.31,2.11,.31,.56,.12,.5,.31,.68,.19,.68,.37,.31,.99,1.43,.37,.19,.62,.06,.56,.62,.19,.56,.12,2.23,.12,.81,.56,.74,.31,.25,.37,.56-.06,.74-.12,.43,.06,.81,.19,.99,.56,.56,.25,1.18-.62,1.92v.99l.06,.43,.37,.37,.12,.31-1.3,2.54-1.36,5.08-.81,1.61-.12,1.55v2.73l-.12,.99-.25,1.12,.12,1.43-.87,2.17-.12,1.05-.62,1.36-1.3,1.49-1.3,1.8-.62,1.55-1.61,2.98-.56,.81-.68,1.24-2.05,2.98-.5,1.18-.43,1.36-.68,1.3-.56,.93-.93,1.67-1.92,2.6-2.05,1.92-.68,1.49-.43,.62-.62,.81-1.12,.87-.62,.37-.37,.5h-.43l-.06,.19,.19,.19-.25,.25-1.3,.5-.99,.62-1.43,1.49-.68,.74-.74,.74-.37,.37-.25,.37-.56,.93-.5,.19-.5,.25-.25,.87-.62,.99-.37,.68-.37,.43-.12-.12-.19,.06-.31,.25,.31,.06,.19,.12-1.18,.99-1.12,.99-.5,.68-.68,.81-1.12,1.86-.68,1.05-.19,.74-.06,.12-.19,.06-.06-.12-.43,.25-.19,.25v.31l.06,.12-.12,.12-.19,.19h-.31l-.5,.25-2.29,2.73-.74,.74-1.05,1.12-.68,.99-.68,1.12-1.05,1.86-.81,1.3-.99,1.24-.62,.93-.93,1.74-.5,1.3-.5,.68-.37,.68-.5,.62-.68,.12-.74,.5-1.18,.81-.62,.31-1.05,.25-1.8-.12-3.66,.31-.74,.19-1.61,.56-1.74,.87-1.8,1.18-4.46,3.22-2.36,.37h-.43l-.25-.06-.5,.19-.19,.37,.12,.43,.06,.37,.74-.56,.12,.12-.43,.99-.31,.62-.31,.37-.43,.25-.25-.12,.12-.37v-.81l-.12-.74-.31-.25-.37,.25-.56,.25,.12-.93v-.81l-.5-.06h-.43l-.19-.37-.43-.56,.37-.43,.43-.43,.5-.19,.19-.62v-.5l-.5-.12-.43,.06-.43,.37-.62,.68-1.61,.87-.37-.5-.31-.68,.31,.06h.68l.87-.62,.43-.37,.68-.81-.06-.56-.12-.43-.31-.37-2.48,1.3-.5,.19-.5,.25,.5,.19,.43-.06,.19,.37-.93,.56-.56,.12-.74,.31-1.61,.81-2.36,1.74-.93,.5-.93,.37-.81-.43-.5-.12-.37-.68-.99-.5-.68-.93-.56-.5-.5-.12-.93,.19-.93-.87-.99-.06-1.12,.87-.5-.06-.31-.12-.37-1.43-.68-.68-1.8-.37-.74-.99v-1.86l-.74-2.11-.12-.81,.12-.74,.25-.62,.74-1.18,.87-1.12,.37-.62,.31-2.11v-1.98l-.12-.62-.56-1.36-.62-.99-.06-.5,.06-.25,.43,.12,.43-.43,.43-.12v.56l.25,.12,.43-.93,.37-.43v-.37l-.37-.19-.62,.31-.56,.37-.68,.31-.37,.37h-.56l-.25,.06-1.36,.68h-.68l-.99-.25,.74-.93,.68-.56,.62-.62,1.55-2.23,.74-1.92,.06-.81-.19-1.61v-.99l-.06-.99-.5,.62-.43,.62-.87,.93-1.12,1.98-2.29,3.04-.68,.06-.5-.12-1.12,.37-.87,.43h-.62l-.37,.12-.37-.12,1.74-2.36,.56,.06,.68-.12,.25,.06h.43l.81-1.12,.74-1.24,.19-.81,.31-.81,.5-.93,.31-.68,1.74-2.23,1.18-1.12,1.18-.93,.25-.87,.19-1.12,.31-.81,.5-.25,.56-.5,.56-2.42v-.74l-.12-.68-.37,.93-.31,.93-1.05,1.12-1.12,.81-.81,.74-1.18,1.74-1.24,1.49-.81,.56-.56,.12-.62,.25-1.05,.56-.99,.5-.87,.62-.62,.37-2.85,2.91-1.18,.99-.31,.37-.43,.31-.12,.5,.12,.31-.31,1.3-.25,.25-.19-.12-.37-.74-.56,.25-.5,.31-.31-1.3-.25-.31-.25-.56-.31-.43-.19-.06-.37,.12,.19-.37,.37-.31,.25-.06,.19,.43,.31,.37h.25l.19-.12,.19-1.49,.25-1.3v-.37l.19-1.36v-.37l-.37-.93-.37-1.12,.31-1.36,.06-.87-.19-.56-.37-.5-1.55-.19-.12-1.36,.31-1.67,.37-.12h.37l.31-.56,.25-.81-1.18-.99-.37-1.05-.5-.43-.56-.19-.81,.06-.99-.06-1.74-1.67-.56-.06-1.92,.5-.56-.06-1.74-2.29-1.3-1.12-.5-.19-.68-.19-.68,.25-.5,.25-.99,.25-3.41-.19-3.1,.37-2.11,.25-1.36,.31-2.6,1.36-3.04,1.3-2.29,.62-2.17,.81-1.3,.25-1.67,.12-3.22-.43-1.24,.31-2.42,1.55-.68,.37-1.18,.43-3.41,1.98-1.36,.43-.87,.12-.81,.43-.93,.87-1.67,2.36-.93,1.12-1.8,1.8-.99,.56-.68-.06-1.05,.62-.5-.62-.56-.12-.93,.06-3.53,.74-.12-.87-.56-.12-1.18,.06-1.61-.25-3.22,.31-1.61,.37-.68,.31-.99-.19-1.98,.31-.81,.5-.62,.43-1.67,1.98-1.3,.62h-.87l-1.05,.12-2.67,1.92-2.67,1.86-.74,.19-.87,.31-1.05,.12-.56,.19-2.11-.5-1.43-.06-1.74-.31-1.24-.93-.99-.5-.62-1.98-.56-.74-1.18-.93-.43,.06-.43,.25-.43-.62,.25-.81,.06-.68,.62-1.8,.81-2.11,.37,.5,.31,.5h.93l1.12-.81,.87-1.18,.87-1.3,.43-1.43,.56-2.48,.37-.5,.37-.19,.5-1.24,1.3-3.78,.25-1.43-.37-2.91-.06-2.54-.25-1.12,.06-1.86,.37-2.54,.25-1.3,.56-2.36,.56-1.36,.19-.81,.12-2.17-.62-2.05v-.74l.25-.81v-.93l-.43-1.86-.56-1.61,.06-.74,.68-3.22v-1.49l-.68-3.72-1.18-3.22-.19-1.3-.12-.43,.12-.06,.19,.19,.19,.31h.12l.19-.25,.12-.62,.19-.37,.12,.19v.68l.19,1.8-.06,.93,.74,.25,.31-.25,.43-.5,.43-1.24-.25-.56-.31-.25-.37-.93v-1.49l-.31-1.36,.12-.5,.37-.37,.43,.19,.25,.81,.31,.74-.43,1.3-.19,.37-.06,.31,.12,.31,.19,.25,.31-.31,.43-.74,.12,.12-.12,1.74,.12,.5,.37,.56,.56-.43,.31-.37,.25-1.24,.43-1.18,.12-.87-.62-2.29-.37-2.85-.31-1.43v-2.11l-.19-.74-.19-1.18,.31-1.36,.25-.93,.81-1.98,.56-1.05,1.67-2.36,.31-.99,.19-.74,.43-1.18,.19-.81v-.74l-.19-1.3,1.12-2.29,1.55-2.98,.43-.43,.62-.43v.62l-.74,2.05,.12,1.05-.37,1.18,.37-.19,.56-.25,.56-.62,.37-.62,1.55-2.42,.74-.93,.99-.68,1.8-.81,1.86-1.05,.99-.99,1.12-.87,.87-.93,.81-.68,3.78-2.42,.62-.43,.74-.06,.87,.06,.81-.12,.74,.56,.62,.06,1.67-.62,.93-.56,1.67-1.18,.68-.31,1.49-.37,1.74-.5,2.36-1.98,1.36,.12,1.18,.19,1.12-.62,2.42-.37,1.43-.5,2.73-1.36,.74-.43,1.18-.93,1.12-1.18,1.18-1.61,.81-1.43,.37-.74,.74-1.18,.56-.93,.37-.43,1.05-.62,1.74-1.8,.56-.37,.19-.56-.25-.31-.37-.19,.12-1.86v-1.3l.12-.93,.25-.87,.81-1.36,.5-.56,.68-.68,.56-.19,.5-.62,.81-.56,.37-.62,.62-1.18,.56-.93,.31,.06,.19,2.11,.19,1.12,.43,1.3,.31,1.92,.37,.87,.12,.56,.12,.25,.12-.37v-.43l.5-1.49,.06-1.05,.12-.37,.19-.19,.25,.12,.37,.56,.19,.19,.19-.06,.19-.93,.37-.62v-.43h-.43l-.06-.5-.25-.56-.31-.43-.31-.99-.06-.37,.19-.19h.31l.31-.43,.19-.56-.06-.93,.31-.31,.43,.06,.5,1.43,.31-.12,.37-.56,.5-.19,.43,.12,.25,.43,.56,.43,.87-.06,.43,.12,.93-.06,.43,.12-.06-.25-.43-.25-.56-.06h-.62l-.25-.25,.06-.74,.25-.56,.12-.25,.43,.12h.37l.19-.68,.25-.62,.31-.5,.06-.5-.25,.12-.74,1.12-.12-.93-.31-.68,.25-.99,.43-.99,.37-.12,.31,.19,.56-.62,.31-.43v-.37l.12-.31,.31,.06,1.05,.93,.19,.5,.31-.19,.19-.5,.06-.5-.31,.06-.62-.06-.12-.31,.12-.25-.19-.62,.5-.37h.37l.31-.25,.06-.37,.12-.19,.12,.19,.62,.12,.56,.5,.25,.12,.12-.25,.12-.56-.68-.56,.06-.56-.25-.62,.06-.62,.56-.5,.19-.5,.31-.19h.56l.43-.43,.43-.12,.25-.93,.06-.62,.19-.19,.37,.25-.25,.74-.12,.68-.19,.37,.19-.06,.12-.12,.25-.43,.43,.19,.06,.5v.5l.19,.19,.43-.74,.43-.19,.12-.93,.25-.68,.12-.5,.31-.25,.12-.56-.12-.37v-.68l.37-.12,.31,.31,.12,.87,.12,.37,.25-.19,.25-.56,.5-.31,.37,.43,.37,.62,.68-.56,.74-.99v-.62l.19-.62,.74-.37,.56,.25,.43,.68,.99,.5,.81,.74,.31,.5,.68,.74,.37,.81,.5,1.43,1.36,1.74,.06,.31-.31,.56-.31,.74-.43,1.24-.37,1.86,.25-.12,.37-.68,.25,.12,.25,.43,.06-.43-.12-.25-.19-.87,.06-.43,.31-.37,.43-.43,.43-.25,.31-.25,.06-.31,.43-.31,.56-.12,.31,.06,2.23,.81,.43,.81-.12,.99,.19,.37,.25-.62,.19-1.3,.25-.25,.62,.19,.37,.25,.43,.87,.06,.43,.19,.25,.12-.43v-1.24l.25-.56,.68-.06,.5-.12-.19-.19-.31-.06-.43-.5-.25-.56,.62-.56v-.12h-.5l-.62-.56-.5-.74,.68-1.36,1.12-1.3,.56-.43,.12-.43,.37-.81,.25-.68,.12-.56,.31-.56,.62-.56,.81-.19,.37-.19,.43-.5,.43-.62-.5-1.18,.12-.68,.25-.81,.93-.56,.68-1.49,.31-.25,.62,.06,.25-.12,.12-1.18,.12-.43,.31-.19,.31,.12,.12,.5,.43,.5,.19-.25v-.5l.06-.68,.5-.12,.37-.06,.12-.56v-.43l.19-.19,.99-.06,.31-.43,.19-.37,.06,.19,.06,.87,.43,.5h1.61l.93-.37,.37,.19,.56,.19,.74-.43,.43-.31,.62,.43,.12,.43,.31-.93,.43-.31,.43-.19,.5,.12,.19-.06-.37-.68,.12-.62,.12-.93,.19-.81,.25-.62-.93-1.18-1.05-.19-.81,.25-.31-.19-.62-.99-.62-.37v-.25l.93-.68,.31,.12,.43,.62,.25,.25,.25-.06,.19-.5,.25-.25,.37,.12,1.12,1.12,.56,1.05,.37-.25,.68-.62,.56,.12,.31,.37,.31,1.3,.31,.62,.93,.19,.43,.25,.43,.43,.68-.06,1.36,.12,1.18,.81,.5,.5,.62,.12,.37,.19,.68,.06,1.18-.56,.43,.56,.19,.37,.87,.68,.99,.19,.87-.68,1.18-.5,.87-.81,.62-.37,.62-.68,.19,.06-.5,.62-.12,.37,.31,.12-.06,.19-.56,.5-.68,.74-.06,.43,.19,.25,.25-.12,.43-.37,.5-.19,.37,.31v1.05l.19,.68,.62,.12h.37l.5-.99-.06-.81-.19-.19,.12-.31,1.18-1.36,.56,.06,.19,1.36,.5,.68,.68-.06,.31,.19,.19,.81-2.79,3.35-.19,.37,.19,.62v.68l-.99,1.67-.31,.06-.19-.43-.37-.31-.37,.19-.37,.12-1.49,.93-.37,2.42,.12,1.43-.37,.93-.68,1.67-.56,.62-.43,.37-1.55,2.29-.43,.56-.5,.74v.74l.06,.5,.31,.56,1.49,1.24,.62,.81,1.12,.99,.19,.68,.06,.56,.81,.62,.62,.37,.19-.12,.19-.12h.19l.12,.06-.12,.5-.12,.25v.37l.37,.43h.74l.43-.12,.37,.5,.37,.31,.62,.62,1.12,.74,.87,.5,.81,1.86,.68,1.05,.81,.74,1.3,.56,.68-.06,.93,.62,.99,.31,.37,.87,.06,.68-.06,.5,.25,1.24,.99,.37,1.12,1.24,.99,.56,.19,.31,.43,.37h.99l1.8-.62,.87-.62,1.24-.99,.81-1.67,.56-1.36,1.98-2.79,.68-1.36,.68-1.86,.56-1.18,.12-1.24,.74-2.29,1.3-3.1,.43-1.05,.12-1.55,.06-2.91,.37-.99,.43-1.43-.12-1.05-.19-.68,.12-.99,.62-1.86,.43-.99,.5-1.24,.19-2.42,.81-.87,.31-.43h.5l.19,.19,.12-.5-.12-.43v-.5l-.12-.25-.31-.06-.25-.25-.37-.31,.25-1.05,.93-2.05,.5-.81,.19,.31,.25,.25,.12-.62v-.62l.74-2.05,.93-2.73,.5-2.48,.93-.5,.56-.62,.37-.74h.5l.31,.31-.31,.56-.12,.43,.81,1.05,.19,.81v.74l.06,.68-.06,.93-.25,1.55-.06,1.43,.25,.43,.25,.31,.43,.06,.74,.31" vector-effect="none"/></g><g class="cls-20"><path class="cls-5" d="M327.94,61.74h.56l.43-.19h.37v.5l.31,.19h.37l.12,.12,.06,.31,.5,.19,.12,.19,.12,.19,.12,.31,1.12,.56,.87,.37,1.36-.19,.5-.19,.5-.31,.19,.31,.06,.37,.19-.37,.31-.37,.5-.31,.43-.19h.62l.62-.12,.31-.12,.31-.06,.19,.31,.31,.12,.37-.31,.81-.68,.31-.19,.93,.19h.25l.87-.68h.37l.62,.56-.06,.68-.62,1.18-.25,.5-.12,.37-.43,.87-.56,.74-.37,.68-.31,.68-.81,1.24-.31,.74-.43,.56-.12,.19-.06,.31-.12,.31-.25,.31-.12,.37-.31,.37-.12-.06,.06-.19,.31-.37,.06-.19,.12-.31-.25-.31,.19-.06,.31-.19v-.37l-.37,.31-.43,.5v.12l-.19,.12-.62,.5-.62,.68-.43,.56-.37,.68-.43,.5-.56,.5-.5,.68-.62,1.05-.43,1.05-.74,1.43-.31,.19-.62,.06-.37,.19,.06-.74,.12-.68,.37-.31,.43,.12,.19-.12,.12-.19,.12-.19-.31-.37-.5-.19-.31,.19-.31,.68-.19,.19-.56,.31,.37-1.05-.06-.74-.25,.37-.12,.68-.19,.19-.31,.37-.25,.06-.31,.31-.25,.5-.43,.56-.5,.31-.5-.68-.19,.19-.12,.19,.19,.5-.43,.31-.37,.37-.87,.99-.87,.74h-.19l-.62-.12-.31-.68-.74,.12-1.05-.12-.93,.31,.31-.74v-.19l.25-.31,.62-.06h.62l.12-.31-.12-.12h-.25l-.62-.19-.5,.06-.19-.37,.06-1.18v-.56l-.06-.19-.12-.19-.06-.12,.5-2.79,.25-.68,.68-1.55,.43,.74,.06,.5-.19,.56,.74-.74,.06-.19-.25-.99,.06-.19,.12-.37-.43,.37h-.25l.5-.68,.19-.56-.06-1.43-.06-1.24,.25-1.61,.06-.19,.19-.37,.25-1.05,.25-.81,.37-.74,1.12-1.43,.43-.81,.31,.37,.62,.31h0" vector-effect="none"/></g><g class="cls-25"><path class="cls-5" d="M307.79,24.91l1.18,.19,.62-.25,.5,.19,.06,.68-.43,.37-.31,.06-.81-.31-.93,.19-.37,.31-.43,.68-.87,.37-.19-.37-.74-.31-.5,.43-.56-.12-.68,.19-.74-.12-.56-.74-.12-.31,.5-.62,.5-.43,2.6-.62,1.49-.5,.99,.06,.25,.12,.12,.25-.43,.5-.12,.12" vector-effect="none"/></g><g class="cls-19"><path class="cls-5" d="M347.04,54.3l.19,1.24,.37,.19,.06,.19-.37,.56-.31,.19,.19,.37-.19,.19h-.06l-.68,.37-.68,.31v-.19l-.06-.19v-.31l-.06-1.18,.25-.31,.12-.5h-.37l-.06-.31,.5-.31,.87-.68,.31,.37h0" vector-effect="none"/></g><g class="cls-18"><path class="cls-5" d="M324.84,56.9h-.19l.12-.43,.37-.56,.06-.56,.43-.56,.31-.62,.25-.25,.43-.31,.31-.56h.31l.25,.43-.43,1.05-.43,.62-.12,.56-.43,.5-.62,.43-.62,.25" vector-effect="none"/></g><g class="cls-17"><path class="cls-5" d="M346.48,58.27l.25,.43v.5l-.56,.37-.31,.06,.06-.43-.62,.19-.56-.06-.25-.37,.06-.19,.37-.19h.68l.87-.31" vector-effect="none"/></g><g class="cls-21"><path class="cls-5" d="M328.75,80.59l-.62,.68-.37-.12-.43,.12,.06-.5,.06-.12,.19,.12,.19-.12,.25-.31h.06l.25-.31,.5-.37h.12l-.12,.5-.12,.43h0" vector-effect="none"/></g><g class="cls-23"><path class="cls-5" d="M338.11,45.06v.37l-.06,.12-.31-.25-.74,.06,.68-.5,.31,.12,.12,.06" vector-effect="none"/></g><g class="cls-22"><path class="cls-5" d="M329.86,79.41h-.25l-.06-.06,.12-.31-.06-.19,.19-.06,.12-.19,.31-.31,.06,.31-.43,.81h0" vector-effect="none"/></g><g class="cls-26"><path class="cls-5" d="M339.47,44.07l-1.05,.5-.19-.19,.19-.37,.12-.19,.68-.06,.25,.31" vector-effect="none"/></g><g class="cls-24"><path class="cls-5" d="M335.51,75.57l-.31,.12h-.06l.25-.37,.06-.19,.43-.31,.25,.12v.31l-.43,.19-.19,.12h0" vector-effect="none"/></g><g class="cls-14"><path class="cls-5" d="M327.69,59.76l-.43,.56,.19-.81,.25-.06,.31-.31v.12l-.31,.5h0" vector-effect="none"/></g><g class="cls-15"><path class="cls-5" d="M345.24,59.76l-.56,.56-.19-.31,.06-.19,.43-.12h.25v.06" vector-effect="none"/></g><g class="cls-16"><g><path class="cls-6" d="M389.88-153.74l-.31,.93-.37,.74-.12,.43v.62l.37,.43,.31,.25,.06,.74,.43,1.05-.12,.74,.19,.93v1.8l-.19,1.61,.12,1.05-.56,2.29,.06,.93,.19,.74,.12,1.55v1.43l.31,.37,.68,.5,.93-.5,.68-.68,.68-.19,.93-.37,.5,.93,.12,1.05,1.24,1.36,.68,.87,.56,.5,.5,.68-.19,.68-.25,.5v.81l-.06,.93-.31,1.12,.12,1.74-.12,1.36,.19,1.3-.31,1.36-.19,.5-.19,.74,.19,.93,.19,.68,.31,.74,.37,1.18,.43,.25h.43l-.31,1.18,.31,2.36v1.92l-.87,2.6-.62,1.49-.12,.74,.62,1.8,.56,.31-.31,.87-.37,1.3,.25,1.05,.37,.74,.5,.43,.5,.37,.68,.37,.93,.12,.37,.56,.12,.43,.74,.12,.37-.06,.5-.19,.19,.31,.12,.43,.12,1.12,.56,1.12,.56,.19,.19,.56,.43,.12,.43,.06,.5,.43,.74,.99,.81,.19,.31,.25,.62,1.12,.19,.56,.12,.87-.43,.06-.37-.19-.5,.87,.25,1.18,.43,.81,.56,.87,.43,1.24-.06,.93,.12,.37-.12,1.36,.5,.74-.37,1.43-.19,1.92-.12,1.74,.12,.56,.06,.87,.43-.12,.37-.25,.31,.87,.19,.37,.25-.25,.12-1.61,.5-.93,.25-.12h.31l.12,.74,.25,.81,.68,.74,.56,.68h.19l.06-.5,.25-.74,.31-.12,.19,.37,.12,1.18-.62,2.48-.62,2.05-.31,2.11,.31,.56,.12,.5,.31,.68,.19,.68,.37,.31,.99,1.43,.37,.19,.62,.06,.56,.62,.19,.56,.12,2.23,.12,.81,.56,.74,.31,.25,.37,.56-.06,.74-.12,.43,.06,.81,.19,.99,.56,.56,.25,1.18-.62,1.92v.99l.06,.43,.37,.37,.12,.31-1.3,2.54-1.36,5.08-.81,1.61-.12,1.55v2.73l-.12,.99-.25,1.12,.12,1.43-.87,2.17-.12,1.05-.62,1.36-1.3,1.49-1.3,1.8-.62,1.55-1.61,2.98-.56,.81-.68,1.24-2.05,2.98-.5,1.18-.43,1.36-.68,1.3-.56,.93-.93,1.67-1.92,2.6-2.05,1.92-.68,1.49-.43,.62-.62,.81-1.12,.87-.62,.37-.37,.5h-.43l-.06,.19,.19,.19-.25,.25-1.3,.5-.99,.62-1.43,1.49-.68,.74-.74,.74-.37,.37-.25,.37-.56,.93-.5,.19-.5,.25-.25,.87-.62,.99-.37,.68-.37,.43-.12-.12-.19,.06-.31,.25,.31,.06,.19,.12-1.18,.99-1.12,.99-.5,.68-.68,.81-1.12,1.86-.68,1.05-.19,.74-.06,.12-.19,.06-.06-.12-.43,.25-.19,.25v.31l.06,.12-.12,.12-.19,.19h-.31l-.5,.25-2.29,2.73-.74,.74-1.05,1.12-.68,.99-.68,1.12-1.05,1.86-.81,1.3-.99,1.24-.62,.93-.93,1.74-.5,1.3-.5,.68-.37,.68-.5,.62-.68,.12-.74,.5-1.18,.81-.62,.31-1.05,.25-1.8-.12-3.66,.31-.74,.19-1.61,.56-1.74,.87-1.8,1.18-4.46,3.22-2.36,.37h-.43l-.25-.06-.5,.19-.19,.37,.12,.43,.06,.37,.74-.56,.12,.12-.43,.99-.31,.62-.31,.37-.43,.25-.25-.12,.12-.37v-.81l-.12-.74-.31-.25-.37,.25-.56,.25,.12-.93v-.81l-.5-.06h-.43l-.19-.37-.43-.56,.37-.43,.43-.43,.5-.19,.19-.62v-.5l-.5-.12-.43,.06-.43,.37-.62,.68-1.61,.87-.37-.5-.31-.68,.31,.06h.68l.87-.62,.43-.37,.68-.81-.06-.56-.12-.43-.31-.37-2.48,1.3-.5,.19-.5,.25,.5,.19,.43-.06,.19,.37-.93,.56-.56,.12-.74,.31-1.61,.81-2.36,1.74-.93,.5-.93,.37-.81-.43-.5-.12-.37-.68-.99-.5-.68-.93-.56-.5-.5-.12-.93,.19-.93-.87-.99-.06-1.12,.87-.5-.06-.31-.12-.37-1.43-.68-.68-1.8-.37-.74-.99v-1.86l-.74-2.11-.12-.81,.12-.74,.25-.62,.74-1.18,.87-1.12,.37-.62,.31-2.11v-2.05l-.12-.62-.56-1.36-.62-.99-.06-.5,.06-.25,.43,.12,.43-.43,.43-.12v.56l.25,.12,.43-.93,.37-.43v-.37l-.37-.19-.62,.31-.56,.37-.68,.31-.37,.37h-.56l-.25,.06-1.36,.68h-.68l-.99-.25,.74-.93,.68-.56,.62-.62,1.55-2.23,.74-1.92,.06-.81-.19-1.61v-.99l-.06-.99-.5,.62-.43,.62-.87,.93-1.12,1.98-2.29,3.04-.68,.06-.5-.12-1.12,.37-.87,.43h-.62l-.37,.12-.37-.12,1.74-2.36,.56,.06,.68-.12,.25,.06h.43l.81-1.12,.74-1.24,.19-.81,.31-.81,.5-.93,.31-.68,1.74-2.23,1.18-1.12,1.18-.93,.25-.87,.19-1.12,.25-.81,.5-.25,.56-.5,.56-2.42v-.74l-.12-.68-.37,.93-.31,.93-1.05,1.12-1.12,.81-.81,.74-1.18,1.74-1.24,1.49-.81,.56-.56,.12-.62,.25-1.05,.56-.99,.5-.87,.62-.62,.37-2.85,2.91-1.18,.99-.31,.37-.43,.31-.12,.5,.12,.31-.31,1.3-.25,.25-.19-.12-.37-.74-.56,.25-.5,.31-.31-1.3-.25-.31-.25-.56-.31-.43-.19-.06-.37,.12,.19-.37,.37-.31,.25-.06,.19,.43,.31,.37h.25l.19-.12,.19-1.49,.25-1.3v-.37l.19-1.36v-.37l-.37-.93-.37-1.12,.31-1.36,.06-.87-.19-.56-.37-.5-1.55-.19-.12-1.36,.31-1.67,.37-.12h.37l.31-.56,.25-.81-1.18-.99-.37-1.05-.5-.43-.56-.19-.81,.06-.99-.06-1.74-1.67-.56-.06-1.92,.5-.56-.06-1.74-2.29-1.3-1.12-.5-.19-.68-.19-.68,.25-.5,.25-.99,.25-3.41-.19-3.1,.37-2.11,.25-1.36,.31-2.6,1.36-3.04,1.3-2.29,.62-2.17,.81-1.3,.25-1.67,.12-3.22-.43-1.24,.31-2.42,1.55-.68,.37-1.18,.43-3.41,1.98-1.36,.43-.87,.12-.81,.43-.93,.87-1.67,2.36-.93,1.12-1.8,1.8-.99,.56-.68-.06-1.05,.62-.5-.62-.56-.12-.93,.06-3.53,.74-.12-.87-.56-.12-1.18,.06-1.61-.25-3.22,.31-1.61,.37-.68,.31-.99-.19-1.98,.31-.81,.5-.62,.43-1.67,1.98-1.3,.62h-.87l-1.05,.12-2.67,1.92-2.67,1.86-.74,.19-.87,.31-1.05,.12-.56,.19-2.11-.5-1.43-.06-1.74-.31-1.24-.93-.99-.5-.62-1.98-.56-.74-1.18-.93-.43,.06-.43,.25-.43-.62,.25-.81,.06-.68,.62-1.8,.81-2.11,.37,.5,.31,.5h.93l1.12-.81,.87-1.18,.87-1.3,.43-1.43,.56-2.48,.37-.5,.37-.19,.5-1.24,1.3-3.78,.25-1.43-.37-2.91-.06-2.54-.25-1.12,.06-1.86,.37-2.54,.25-1.3,.56-2.36,.56-1.36,.19-.81,.12-2.17-.62-2.05v-.74l.25-.81v-.93l-.43-1.86-.56-1.61,.06-.74,.68-3.22v-1.49l-.68-3.72-1.18-3.22-.19-1.3-.12-.43,.12-.06,.19,.19,.19,.31h.12l.19-.25,.12-.62,.19-.37,.12,.19v.68l.19,1.8-.06,.93,.74,.25,.31-.25,.43-.5,.43-1.24-.25-.56-.31-.25-.37-.93v-1.49l-.31-1.36,.12-.5,.37-.37,.43,.19,.25,.81,.31,.74-.43,1.3-.19,.37-.06,.31,.12,.31,.19,.25,.31-.31,.43-.74,.12,.12-.12,1.74,.12,.5,.37,.56,.56-.43,.31-.37,.25-1.24,.43-1.18,.12-.87-.62-2.29-.37-2.85-.31-1.43v-2.11l-.19-.74-.19-1.18,.31-1.36,.25-.93,.81-1.98,.56-1.05,1.67-2.36,.31-.99,.19-.74,.43-1.18,.19-.81v-.74l-.19-1.3,1.12-2.29,1.55-2.98,.43-.43,.62-.43v.62l-.74,2.05,.12,1.05-.37,1.18,.37-.19,.56-.25,.56-.62,.37-.62,1.55-2.42,.74-.93,.99-.68,1.8-.81,1.86-1.05,.99-.99,1.12-.87,.87-.93,.81-.68,3.78-2.42,.62-.43,.74-.06,.87,.06,.81-.12,.74,.56,.62,.06,1.67-.62,.93-.56,1.67-1.18,.68-.31,1.49-.37,1.74-.5,2.36-2.05,1.36,.12,1.18,.19,1.12-.62,2.42-.37,1.43-.5,2.73-1.36,.74-.43,1.18-.93,1.12-1.18,1.18-1.61,.81-1.43,.37-.74,.74-1.18,.56-.93,.37-.43,1.05-.62,1.74-1.8,.56-.37,.19-.56-.25-.31-.37-.19,.12-1.86v-1.3l.12-.93,.25-.87,.81-1.36,.5-.56,.68-.68,.56-.19,.5-.62,.81-.56,.37-.62,.62-1.18,.56-.93,.31,.06,.19,2.11,.19,1.12,.43,1.3,.31,1.92,.37,.87,.12,.56,.12,.25,.12-.37v-.43l.5-1.49,.06-1.05,.12-.37,.19-.19,.25,.12,.37,.56,.19,.19,.19-.06,.19-.93,.37-.62v-.43h-.43l-.06-.5-.25-.56-.31-.43-.31-.99-.06-.37,.19-.19h.31l.31-.43,.19-.56-.06-.93,.31-.31,.43,.06,.5,1.43,.31-.12,.37-.56,.5-.19,.43,.12,.25,.43,.56,.43,.87-.06,.43,.12,.93-.06,.43,.12-.06-.25-.43-.25-.56-.06h-.62l-.25-.25,.06-.74,.25-.56,.12-.25,.43,.12h.37l.19-.68,.25-.62,.31-.5,.06-.5-.25,.12-.74,1.12-.12-.93-.31-.68,.25-.99,.43-.99,.37-.12,.31,.19,.56-.62,.31-.43v-.37l.12-.31,.31,.06,1.05,.93,.19,.5,.31-.19,.19-.5,.06-.5-.31,.06-.62-.06-.12-.31,.12-.25-.19-.62,.5-.37h.37l.31-.25,.06-.37,.12-.19,.12,.19,.62,.12,.56,.5,.25,.12,.12-.25,.12-.56-.68-.56,.06-.56-.25-.62,.06-.62,.56-.5,.19-.5,.31-.19h.56l.43-.43,.43-.12,.25-.93,.06-.62,.19-.19,.37,.25-.25,.74-.12,.68-.19,.37,.19-.06,.12-.12,.25-.43,.43,.19,.06,.5v.5l.19,.19,.43-.74,.43-.19,.12-.93,.25-.68,.12-.5,.31-.25,.12-.56-.12-.37v-.68l.37-.12,.31,.31,.12,.87,.12,.37,.25-.19,.25-.56,.5-.31,.37,.43,.37,.62,.68-.56,.74-.99v-.62l.19-.62,.74-.37,.56,.25,.43,.68,.99,.5,.81,.74,.31,.5,.68,.74,.37,.81,.5,1.43,1.36,1.74,.06,.31-.31,.56-.31,.74-.43,1.24-.37,1.86,.25-.12,.37-.68,.25,.12,.25,.43,.06-.43-.12-.25-.19-.87,.06-.43,.31-.37,.43-.43,.43-.25,.31-.25,.06-.31,.43-.31,.56-.12,.31,.06,2.23,.81,.43,.81-.12,.99,.19,.37,.25-.62,.19-1.3,.25-.25,.62,.19,.37,.25,.43,.87,.06,.43,.19,.25,.12-.43v-1.24l.25-.56,.68-.06,.5-.12-.19-.19-.31-.06-.43-.5-.25-.56,.62-.56v-.12h-.5l-.62-.56-.5-.74,.68-1.36,1.12-1.3,.56-.43,.12-.43,.37-.81,.25-.68,.12-.56,.31-.56,.62-.56,.81-.19,.37-.19,.43-.5,.43-.62-.5-1.18,.12-.68,.25-.81,.93-.56,.68-1.49,.31-.25,.62,.06,.25-.12,.12-1.18,.12-.43,.31-.19,.31,.12,.12,.5,.43,.5,.19-.25v-.5l.06-.68,.5-.12,.37-.06,.12-.56v-.43l.19-.19,.99-.06,.31-.43,.19-.37,.06,.19,.06,.87,.43,.5h1.61l.93-.37,.37,.19,.56,.19,.74-.43,.43-.31,.62,.43,.12,.43,.31-.93,.43-.31,.43-.19,.5,.12,.19-.06-.37-.68,.12-.62,.12-.93,.19-.81,.25-.62-.93-1.18-1.05-.19-.81,.25-.31-.19-.62-.99-.62-.37v-.25l.93-.68,.31,.12,.43,.62,.25,.25,.25-.06,.19-.5,.25-.25,.37,.12,1.12,1.12,.56,1.05,.37-.25,.68-.62,.56,.12,.31,.37,.31,1.3,.31,.62,.93,.19,.43,.25,.43,.43,.68-.06,1.36,.12,1.18,.81,.5,.5,.62,.12,.37,.19,.68,.06,1.18-.56,.43,.56,.19,.37,.87,.68,.99,.19,.87-.68,1.18-.5,.87-.81,.62-.37,.62-.68,.19,.06-.5,.62-.12,.37,.31,.12-.06,.19-.56,.5-.68,.74-.06,.43,.19,.25,.25-.12,.43-.37,.5-.19,.37,.31v1.05l.19,.68,.62,.12h.37l.5-.99-.06-.81-.19-.19,.12-.31,1.18-1.36,.56,.06,.19,1.36,.5,.68,.68-.06,.31,.19,.19,.81-2.79,3.35-.19,.37,.19,.62v.68l-.99,1.67-.31,.06-.19-.43-.37-.31-.37,.19-.37,.12-1.49,.93-.37,2.42,.12,1.43-.37,.93-.68,1.67-.56,.62-.43,.37-1.55,2.29-.43,.56-.5,.74v.74l.06,.5,.31,.56,1.49,1.24,.62,.81,1.12,.99,.19,.68,.06,.56,.81,.62,.62,.37,.19-.12,.19-.12h.19l.12,.06-.12,.5-.12,.25v.37l.37,.43h.74l.43-.12,.37,.5,.37,.31,.62,.62,1.12,.74,.87,.5,.81,1.86,.68,1.05,.81,.74,1.3,.56,.68-.06,.93,.62,.99,.31,.37,.87,.06,.68-.06,.5,.25,1.24,.99,.37,1.12,1.24,.99,.56,.19,.31,.43,.37h.99l1.8-.62,.87-.62,1.24-.99,.81-1.67,.56-1.36,1.98-2.79,.68-1.36,.68-1.86,.56-1.18,.12-1.24,.74-2.29,1.3-3.1,.43-1.05,.12-1.55,.06-2.91,.37-.99,.43-1.43-.12-1.05-.19-.68,.12-.99,.62-1.86,.43-.99,.5-1.24,.19-2.42,.81-.87,.31-.43h.5l.19,.19,.12-.5-.12-.43v-.5l-.12-.25-.31-.06-.25-.25-.37-.31,.25-1.05,.93-2.05,.5-.81,.19,.31,.25,.25,.12-.62v-.62l.74-2.05,.93-2.73,.5-2.48,.93-.5,.56-.62,.37-.74h.5l.31,.31-.31,.56-.12,.43,.81,1.05,.19,.81v.74l.06,.68-.06,.93-.25,1.55-.06,1.43,.31,.43,.25,.31,.43,.06,.74,.43" vector-effect="none"/><path class="cls-6" d="M327.89,61.79h.56l.43-.19h.37v.5l.31,.19h.37l.12,.12,.06,.31,.5,.19,.12,.19,.12,.19,.12,.31,1.12,.56,.87,.37,1.36-.19,.5-.19,.5-.31,.19,.31,.06,.37,.19-.37,.25-.37,.5-.31,.43-.19h.62l.62-.12,.31-.12,.31-.06,.19,.31,.31,.12,.37-.31,.81-.68,.31-.19,.93,.19h.25l.87-.68h.37l.62,.56-.06,.68-.62,1.18-.25,.5-.12,.37-.43,.87-.56,.74-.37,.68-.31,.68-.81,1.24-.31,.74-.43,.56-.12,.19-.06,.31-.12,.31-.25,.31-.12,.37-.31,.37-.12-.06,.06-.19,.31-.37,.06-.19,.12-.31-.25-.31,.19-.06,.31-.19v-.37l-.37,.31-.43,.5v.12l-.19,.12-.62,.5-.62,.68-.43,.56-.37,.68-.43,.5-.56,.5-.5,.68-.62,1.05-.43,1.05-.74,1.43-.31,.19-.62,.06-.37,.19,.06-.74,.12-.68,.37-.31,.43,.12,.19-.12,.12-.19,.12-.19-.31-.37-.5-.19-.31,.19-.31,.68-.19,.19-.56,.31,.37-1.05-.06-.74-.25,.37-.12,.68-.19,.19-.31,.37-.25,.06-.31,.31-.31,.5-.43,.56-.5,.31-.5-.68-.19,.19-.12,.19,.19,.5-.43,.31-.37,.37-.87,.99-.87,.74h-.19l-.62-.12-.31-.68-.74,.12-1.05-.12-.93,.31,.31-.74v-.19l.25-.31,.62-.06h.62l.12-.31-.12-.12h-.25l-.62-.19-.5,.06-.19-.37,.06-1.18v-.56l-.06-.19-.12-.19-.06-.12,.5-2.79,.25-.68,.68-1.55,.43,.74,.06,.5-.19,.56,.74-.74,.06-.19-.25-.99,.06-.19,.12-.37-.43,.37h-.25l.5-.68,.19-.56-.06-1.43-.06-1.24,.25-1.61,.06-.19,.19-.37,.25-1.05,.25-.81,.37-.74,1.12-1.43,.43-.81,.31,.37,.74,.31h0" vector-effect="none"/><path class="cls-6" d="M307.81,24.9l1.18,.19,.62-.25,.5,.19,.06,.68-.43,.37-.31,.06-.81-.31-.93,.19-.37,.31-.43,.68-.87,.37-.19-.37-.74-.31-.5,.43-.56-.12-.68,.19-.74-.12-.56-.74-.12-.31,.5-.62,.5-.43,2.6-.62,1.49-.5,.99,.06,.25,.12,.12,.25-.43,.5-.12,.12" vector-effect="none"/><path class="cls-6" d="M347.05,54.29l.19,1.24,.37,.19,.06,.19-.37,.56-.31,.19,.19,.37-.19,.19h-.06l-.68,.37-.68,.31v-.19l-.06-.19v-.31l-.06-1.18,.25-.31,.12-.5h-.37l-.06-.31,.5-.31,.87-.68,.31,.37h0" vector-effect="none"/><path class="cls-6" d="M324.86,56.89h-.19l.12-.43,.37-.56,.06-.56,.43-.56,.31-.62,.25-.25,.43-.31,.31-.56h.31l.25,.43-.43,1.05-.43,.62-.12,.56-.43,.5-.62,.43-.62,.25" vector-effect="none"/><path class="cls-6" d="M346.49,58.25l.25,.43v.5l-.56,.37-.31,.06,.06-.43-.62,.19-.56-.06-.25-.37,.06-.19,.37-.19h.68l.87-.31" vector-effect="none"/><path class="cls-6" d="M328.76,80.57l-.62,.68-.37-.12-.43,.12,.06-.5,.06-.12,.19,.12,.19-.12,.25-.31h.06l.25-.31,.5-.37h.12l-.12,.5-.12,.43h0" vector-effect="none"/><path class="cls-6" d="M326.22,160.22l-.37,.25,.25-.31,1.49-1.36,.5-.25-.68,.68-1.18,.99" vector-effect="none"/><path class="cls-6" d="M338.06,45.05v.37l-.06,.12-.31-.25-.74,.06,.68-.5,.31,.12,.12,.06" vector-effect="none"/><path class="cls-6" d="M329.88,79.45h-.25l-.06-.06,.12-.31-.06-.19,.19-.06,.12-.19,.31-.31,.06,.31-.43,.81h0" vector-effect="none"/><path class="cls-6" d="M339.49,44.06l-1.05,.5-.19-.19,.19-.37,.12-.19,.68-.06,.25,.31" vector-effect="none"/><path class="cls-6" d="M335.46,75.61l-.31,.12h-.06l.25-.37,.06-.19,.43-.31,.25,.12v.31l-.43,.19-.19,.12h0" vector-effect="none"/><path class="cls-6" d="M327.65,59.74l-.43,.56,.19-.81,.25-.06,.31-.31v.12l-.31,.5h0" vector-effect="none"/><path class="cls-6" d="M345.19,59.74l-.56,.56-.19-.31,.06-.19,.43-.12h.25v.06" vector-effect="none"/></g></g></g><g><path class="cls-9" d="M118.07,300.16v-10.07h2.53c1.94-.04,4.11,.45,4.11,2.85s-2.18,2.89-4.11,2.84h-1.62v4.38h-.91Zm.91-5.22h2.2c1.35,0,2.55-.43,2.55-2.01s-1.2-2.01-2.55-2.01h-2.2v4.02Z"/><path class="cls-9" d="M131,293.16h.84v5.42c0,.54,.04,1.1,.07,1.58h-.87l-.04-1.03-.03-.03c-.49,.86-1.28,1.27-2.19,1.27-2.29,0-2.47-2.02-2.47-2.83v-4.38h.84v4.52c0,1.21,.7,1.92,1.84,1.92,1.38,0,2.01-1.16,2.01-2.41v-4.03Zm-.27-2.86l-1.77,2h-.61l1.27-2h1.12Z"/><path class="cls-9" d="M134.72,300.16h-.86c.03-.47,.07-1.03,.07-1.58v-8.49h.84v4.1l.03,.03c.49-.82,1.46-1.27,2.4-1.27,2.08,0,2.87,1.87,2.87,3.68s-.79,3.74-2.83,3.74c-1.02,0-1.87-.46-2.44-1.3l-.03,.06-.04,1.03Zm.04-3.64c0,1.59,.56,3.08,2.38,3.08,1.6,0,2.01-1.74,2.01-3.04s-.54-2.85-2.13-2.85-2.26,1.38-2.26,2.8Z"/><path class="cls-9" d="M142.67,300.16h-.84v-10.07h.84v10.07Z"/><path class="cls-9" d="M145.84,291.14h-.98v-1.05h.98v1.05Zm-.07,2.02v7h-.84v-7h.84Z"/><path class="cls-9" d="M152.44,295.31c-.07-1.07-.75-1.59-1.91-1.59-1.28,0-2.08,1.34-2.08,2.93s.79,2.96,2.08,2.96c1.09,0,1.84-.67,1.91-1.63h.91c-.22,1.6-1.14,2.4-2.73,2.4-2.09,0-3.07-1.8-3.07-3.71s1.04-3.71,3.12-3.71c1.44,0,2.61,.86,2.68,2.36h-.91Z"/><path class="cls-9" d="M161.02,296.66c0,1.84-1.03,3.71-3.26,3.71s-3.26-1.87-3.26-3.71,1.03-3.71,3.26-3.71,3.26,1.87,3.26,3.71Zm-3.26-2.94c-1.69,0-2.36,1.65-2.36,2.94s.67,2.94,2.36,2.94,2.36-1.65,2.36-2.94-.67-2.94-2.36-2.94Z"/></g><g><path class="cls-9" d="M118.07,262.26v-10.07h2.52c1.94-.04,4.11,.45,4.11,2.85s-2.18,2.89-4.11,2.84h-1.62v4.38h-.91Zm.91-5.22h2.2c1.35,0,2.55-.43,2.55-2.01s-1.2-2.01-2.55-2.01h-2.2v4.02Z"/><path class="cls-9" d="M126.88,262.26h-.84v-5.42c.01-.54-.04-1.1-.07-1.58h.86l.04,1.03h.03c.25-.71,.88-1.21,1.58-1.24,.28-.01,.56,0,.84,.01v.81c-.17-.01-.35-.06-.52-.06-1.24,0-1.9,.89-1.92,2.23v4.21Z"/><path class="cls-9" d="M131.6,253.23h-.98v-1.05h.98v1.05Zm-.07,2.02v7h-.84v-7h.84Z"/><path class="cls-9" d="M133.78,255.25l2.41,5.84,2.33-5.84h.92l-2.78,7h-.95l-2.86-7h.92Z"/><path class="cls-9" d="M144.44,257.32c-.08-1.14-.67-1.51-1.66-1.51-.88,0-1.6,.27-1.71,1.21h-.89c.21-1.44,1.28-1.98,2.62-1.98,1.55,0,2.51,.71,2.48,2.32v3.32c-.01,.54,.04,1.1,.07,1.58h-.87l-.03-1.03h-.03l-.04,.1c-.31,.59-1.24,1.14-2.19,1.14-1.3,0-2.33-.79-2.33-2.16,0-.95,.57-1.67,1.41-2.02,.93-.4,2.15-.26,3.17-.32v-.64Zm-2.09,4.38c1.83,0,2.18-1.51,2.09-2.97-1.19,.04-3.67-.18-3.67,1.58,0,.95,.72,1.39,1.58,1.39Z"/><path class="cls-9" d="M152.28,261.22l-.03-.06c-.57,.84-1.42,1.3-2.4,1.3-2.08,0-2.87-1.98-2.87-3.74s.79-3.68,2.87-3.68c.93,0,1.91,.45,2.4,1.27l.03-.03v-4.1h.84v8.49c0,.54,.04,1.1,.07,1.58h-.87l-.04-1.03Zm-2.29-5.41c-1.59,0-2.11,1.48-2.11,2.82s.38,3.07,1.98,3.07c1.83,0,2.38-1.52,2.38-3.11,0-1.42-.63-2.78-2.26-2.78Z"/><path class="cls-9" d="M161.23,258.76c0,1.84-1.03,3.71-3.26,3.71s-3.26-1.87-3.26-3.71,1.03-3.71,3.26-3.71,3.26,1.87,3.26,3.71Zm-3.26-2.94c-1.69,0-2.36,1.65-2.36,2.94s.67,2.94,2.36,2.94,2.36-1.65,2.36-2.94-.67-2.94-2.36-2.94Z"/></g><line class="cls-4" x1="107.44" y1="101.16" x2="107.44" y2="215.74"/><g><path class="cls-9" d="M119.47,335.32v-10.07h2.53c1.94-.04,4.11,.45,4.11,2.84s-2.18,2.89-4.11,2.85h-1.62v4.38h-.91Zm.91-5.22h2.2c1.35,0,2.55-.43,2.55-2.01s-1.2-2.01-2.55-2.01h-2.2v4.02Z"/><path class="cls-9" d="M132.4,328.32h.84v5.42c0,.54,.04,1.1,.07,1.58h-.87l-.04-1.03-.03-.03c-.49,.87-1.28,1.27-2.19,1.27-2.29,0-2.47-2.02-2.47-2.83v-4.38h.84v4.52c0,1.21,.7,1.92,1.84,1.92,1.38,0,2.01-1.16,2.01-2.41v-4.03Zm-.27-2.86l-1.77,2h-.61l1.27-2h1.12Z"/><path class="cls-9" d="M136.12,335.32h-.86c.03-.47,.07-1.03,.07-1.58v-8.49h.84v4.1l.03,.03c.49-.82,1.46-1.27,2.4-1.27,2.08,0,2.87,1.87,2.87,3.68s-.79,3.74-2.83,3.74c-1.02,0-1.87-.46-2.44-1.3l-.03,.06-.04,1.03Zm.04-3.64c0,1.59,.56,3.08,2.38,3.08,1.6,0,2.01-1.74,2.01-3.04s-.54-2.85-2.13-2.85-2.26,1.38-2.26,2.8Z"/><path class="cls-9" d="M144.07,335.32h-.84v-10.07h.84v10.07Z"/><path class="cls-9" d="M147.24,326.3h-.98v-1.05h.98v1.05Zm-.07,2.02v7h-.84v-7h.84Z"/><path class="cls-9" d="M153.83,330.47c-.07-1.07-.75-1.59-1.91-1.59-1.28,0-2.08,1.34-2.08,2.93s.79,2.96,2.08,2.96c1.09,0,1.84-.67,1.91-1.63h.91c-.22,1.6-1.14,2.4-2.73,2.4-2.09,0-3.07-1.8-3.07-3.71s1.04-3.71,3.12-3.71c1.44,0,2.61,.87,2.68,2.36h-.91Z"/><path class="cls-9" d="M162.41,331.82c0,1.84-1.03,3.71-3.26,3.71s-3.26-1.87-3.26-3.71,1.03-3.71,3.26-3.71,3.26,1.87,3.26,3.71Zm-3.26-2.94c-1.69,0-2.36,1.65-2.36,2.94s.67,2.94,2.36,2.94,2.36-1.64,2.36-2.94-.67-2.94-2.36-2.94Z"/><path class="cls-9" d="M171.08,328.32h.84v3.08h3.07v.84h-3.07v3.08h-.84v-3.08h-3.07v-.84h3.07v-3.08Z"/><path class="cls-9" d="M181.38,335.32v-10.07h2.52c1.94-.04,4.11,.45,4.11,2.84s-2.18,2.89-4.11,2.85h-1.62v4.38h-.91Zm.91-5.22h2.2c1.35,0,2.55-.43,2.55-2.01s-1.2-2.01-2.55-2.01h-2.2v4.02Z"/><path class="cls-9" d="M190.18,335.32h-.84v-5.43c.01-.54-.04-1.1-.07-1.58h.86l.04,1.03h.03c.25-.71,.88-1.21,1.58-1.24,.28-.01,.56,0,.84,.01v.81c-.17-.01-.35-.06-.52-.06-1.24,0-1.9,.89-1.92,2.23v4.21Z"/><path class="cls-9" d="M194.91,326.3h-.98v-1.05h.98v1.05Zm-.07,2.02v7h-.84v-7h.84Z"/><path class="cls-9" d="M197.08,328.32l2.41,5.84,2.33-5.84h.92l-2.78,7h-.95l-2.86-7h.92Z"/><path class="cls-9" d="M207.74,330.39c-.08-1.14-.67-1.51-1.66-1.51-.88,0-1.6,.27-1.71,1.21h-.89c.21-1.44,1.28-1.98,2.62-1.98,1.55,0,2.51,.71,2.48,2.32v3.32c-.01,.54,.04,1.1,.07,1.58h-.87l-.03-1.03h-.03l-.04,.1c-.31,.59-1.24,1.14-2.19,1.14-1.3,0-2.33-.79-2.33-2.16,0-.95,.57-1.67,1.41-2.02,.93-.4,2.15-.27,3.17-.32v-.64Zm-2.09,4.38c1.83,0,2.18-1.51,2.09-2.97-1.19,.04-3.67-.18-3.67,1.58,0,.95,.72,1.39,1.58,1.39Z"/><path class="cls-9" d="M215.58,334.29l-.03-.06c-.57,.84-1.42,1.3-2.4,1.3-2.08,0-2.87-1.98-2.87-3.74s.79-3.68,2.87-3.68c.93,0,1.91,.45,2.4,1.27l.03-.03v-4.1h.84v8.49c0,.54,.04,1.1,.07,1.58h-.87l-.04-1.03Zm-2.29-5.41c-1.59,0-2.11,1.48-2.11,2.82s.38,3.07,1.98,3.07c1.83,0,2.39-1.52,2.39-3.11,0-1.42-.63-2.78-2.26-2.78Z"/><path class="cls-9" d="M224.54,331.82c0,1.84-1.03,3.71-3.26,3.71s-3.26-1.87-3.26-3.71,1.03-3.71,3.26-3.71,3.26,1.87,3.26,3.71Zm-3.26-2.94c-1.69,0-2.36,1.65-2.36,2.94s.67,2.94,2.36,2.94,2.36-1.64,2.36-2.94-.67-2.94-2.36-2.94Z"/></g><g><path class="cls-9" d="M119.08,184.32h.03l3.19-9.16h.91l-3.64,10.07h-1.03l-3.68-10.07h.99l3.24,9.16Z"/><path class="cls-9" d="M127.6,180.29c-.08-1.14-.67-1.51-1.66-1.51-.88,0-1.6,.26-1.72,1.21h-.89c.21-1.44,1.28-1.98,2.62-1.98,1.55,0,2.51,.71,2.48,2.32v3.32c-.01,.54,.04,1.1,.07,1.58h-.86l-.03-1.03h-.03l-.04,.1c-.31,.59-1.24,1.14-2.19,1.14-1.3,0-2.33-.79-2.33-2.16,0-.95,.57-1.67,1.41-2.02,.94-.41,2.15-.27,3.17-.32v-.64Zm-2.09,4.38c1.83,0,2.18-1.51,2.09-2.97-1.19,.04-3.67-.18-3.67,1.58,0,.95,.73,1.4,1.58,1.4Z"/><path class="cls-9" d="M131.45,185.23h-.84v-5.43c.01-.54-.04-1.1-.07-1.58h.87l.04,1.03h.03c.25-.71,.88-1.21,1.58-1.24,.28-.01,.56,0,.84,.01v.81c-.17-.01-.35-.06-.52-.06-1.24,0-1.9,.89-1.92,2.23v4.21Z"/><path class="cls-9" d="M136.18,176.2h-.98v-1.05h.98v1.05Zm-.07,2.02v7h-.84v-7h.84Z"/><path class="cls-9" d="M144.38,181.73c0,1.84-1.03,3.71-3.26,3.71s-3.26-1.87-3.26-3.71,1.03-3.71,3.26-3.71,3.26,1.87,3.26,3.71Zm-3.26-2.94c-1.69,0-2.36,1.65-2.36,2.94s.67,2.94,2.36,2.94,2.36-1.65,2.36-2.94-.67-2.94-2.36-2.94Z"/><path class="cls-9" d="M148.44,178.02c1.33,0,2.44,.46,2.55,1.94h-.91c-.08-.88-.87-1.17-1.73-1.17-.78,0-1.58,.31-1.58,1.13,0,1.03,1.35,.93,3.25,1.6,.73,.25,1.19,.88,1.19,1.63,0,1.58-1.46,2.29-2.94,2.29-1.21,0-2.61-.57-2.64-2.12h.91c.07,1.05,.99,1.35,1.94,1.35,.89,0,1.83-.42,1.83-1.4s-1.1-1.17-2.22-1.42c-1.1-.27-2.22-.59-2.22-1.88,0-1.45,1.34-1.95,2.57-1.95Z"/></g><path class="cls-3" d="M95.91,181.4c0,4.22-3.42,7.63-7.63,7.63s-7.63-3.42-7.63-7.63,3.42-7.63,7.63-7.63,7.63,3.42,7.63,7.63" vector-effect="none"/><g><path class="cls-9" d="M120.43,212.09c-2.89,0-4.49-2.11-4.49-5.24s1.6-5.24,4.49-5.24,4.49,2.11,4.49,5.24-1.6,5.24-4.49,5.24Zm0-.84c2.51,0,3.51-2.2,3.51-4.41s-1-4.41-3.51-4.41-3.51,2.2-3.51,4.41,1,4.41,3.51,4.41Z"/><path class="cls-9" d="M127.57,205.65h-1.39v-.77h1.39v-1.49l.84-.36v1.85h1.59v.77h-1.59v4.69c-.01,.64,.32,.99,.96,.99,.25,0,.5-.01,.73-.08v.73c-.26,.07-.57,.12-.85,.12-1.77,0-1.67-1.13-1.67-2.08v-4.37Z"/><path class="cls-9" d="M132.45,211.89h-.84v-5.42c.01-.54-.04-1.1-.07-1.58h.87l.04,1.03h.03c.25-.71,.88-1.21,1.58-1.24,.28-.01,.56,0,.84,.01v.81c-.17-.01-.35-.06-.52-.06-1.24,0-1.9,.89-1.92,2.23v4.21Z"/><path class="cls-9" d="M142.28,208.39c0,1.84-1.03,3.71-3.26,3.71s-3.26-1.87-3.26-3.71,1.03-3.71,3.26-3.71,3.26,1.87,3.26,3.71Zm-3.26-2.94c-1.69,0-2.36,1.65-2.36,2.94s.67,2.94,2.36,2.94,2.36-1.65,2.36-2.94-.67-2.94-2.36-2.94Z"/><path class="cls-9" d="M146.34,204.68c1.33,0,2.44,.46,2.55,1.94h-.91c-.08-.88-.87-1.17-1.73-1.17-.78,0-1.58,.31-1.58,1.13,0,1.03,1.35,.93,3.25,1.6,.73,.25,1.19,.88,1.19,1.63,0,1.58-1.46,2.29-2.94,2.29-1.21,0-2.61-.57-2.64-2.12h.91c.07,1.05,.99,1.35,1.94,1.35,.89,0,1.83-.42,1.83-1.39s-1.1-1.17-2.22-1.42c-1.1-.26-2.22-.59-2.22-1.88,0-1.45,1.34-1.95,2.57-1.95Z"/></g><path class="cls-2" d="M95.91,207.73c0,4.22-3.42,7.63-7.63,7.63s-7.63-3.42-7.63-7.63,3.42-7.63,7.63-7.63,7.63,3.42,7.63,7.63" vector-effect="none"/><g><path class="cls-9" d="M117.14,135.4v-10.07h1.45l3.78,8.77,3.86-8.77h1.38v10.07h-.91v-9.3h-.03l-3.85,9.3h-.91l-3.85-9.26h-.03v9.26h-.91Z"/><path class="cls-9" d="M136.1,131.9c0,1.84-1.03,3.71-3.26,3.71s-3.26-1.87-3.26-3.71,1.03-3.71,3.26-3.71,3.26,1.87,3.26,3.71Zm-3.26-2.94c-1.69,0-2.36,1.65-2.36,2.94s.67,2.94,2.36,2.94,2.36-1.65,2.36-2.94-.67-2.94-2.36-2.94Z"/><path class="cls-9" d="M142.65,134.37l-.03-.06c-.57,.84-1.42,1.3-2.4,1.3-2.08,0-2.87-1.98-2.87-3.74s.79-3.68,2.87-3.68c.93,0,1.91,.45,2.4,1.27l.03-.03v-4.1h.84v8.49c0,.54,.04,1.1,.07,1.58h-.87l-.04-1.03Zm-2.29-5.41c-1.59,0-2.11,1.48-2.11,2.82s.38,3.07,1.98,3.07c1.83,0,2.38-1.52,2.38-3.11,0-1.42-.63-2.78-2.26-2.78Z"/><path class="cls-9" d="M146.07,132.1c.03,1.49,.71,2.75,2.43,2.75,.99,0,1.81-.71,2.02-1.67h.88c-.43,1.67-1.48,2.44-3.17,2.44-2.09,0-3.07-1.8-3.07-3.71s1.05-3.71,3.12-3.71c2.34,0,3.19,1.72,3.19,3.91h-5.41Zm4.5-.77c-.1-1.35-.82-2.37-2.27-2.37-1.37,0-2.09,1.14-2.2,2.37h4.48Z"/><path class="cls-9" d="M154.17,135.4h-.84v-5.43c.01-.54-.04-1.1-.07-1.58h.86l.04,1.03h.03c.25-.71,.88-1.21,1.58-1.24,.28-.01,.56,0,.84,.01v.81c-.17-.01-.35-.06-.52-.06-1.24,0-1.9,.89-1.92,2.23v4.21Z"/><path class="cls-9" d="M158.82,135.4h-.84v-5.43c0-.54-.04-1.1-.07-1.58h.86l.04,1.03,.03,.03c.49-.86,1.28-1.27,2.19-1.27,2.29,0,2.47,2.02,2.47,2.83v4.38h-.84v-4.52c0-1.21-.7-1.92-1.84-1.92-1.38,0-2.01,1.16-2.01,2.41v4.03Z"/><path class="cls-9" d="M171.76,131.9c0,1.84-1.03,3.71-3.26,3.71s-3.26-1.87-3.26-3.71,1.03-3.71,3.26-3.71,3.26,1.87,3.26,3.71Zm-3.26-2.94c-1.69,0-2.36,1.65-2.36,2.94s.67,2.94,2.36,2.94,2.36-1.65,2.36-2.94-.67-2.94-2.36-2.94Z"/></g><g><path class="cls-9" d="M121.99,103.87c-.17-1.23-1.23-1.73-2.37-1.73-2.58,0-3.36,2.34-3.36,4.41s.78,4.41,3.36,4.41c1.12,0,2.23-.56,2.48-1.81h.98c-.29,1.69-1.84,2.65-3.46,2.65-3.05,0-4.34-2.46-4.34-5.24s1.3-5.24,4.34-5.24c1.65,0,3.21,.75,3.35,2.57h-.98Z"/><path class="cls-9" d="M130.87,108.08c0,1.84-1.03,3.71-3.26,3.71s-3.26-1.87-3.26-3.71,1.03-3.71,3.26-3.71,3.26,1.87,3.26,3.71Zm-3.26-2.94c-1.69,0-2.36,1.65-2.36,2.94s.67,2.94,2.36,2.94,2.36-1.65,2.36-2.94-.67-2.94-2.36-2.94Z"/><path class="cls-9" d="M133.44,111.58h-.84v-5.43c0-.54-.04-1.1-.07-1.58h.86l.04,1.03,.03,.03c.49-.86,1.28-1.27,2.19-1.27,2.29,0,2.47,2.02,2.47,2.83v4.38h-.84v-4.52c0-1.21-.7-1.92-1.84-1.92-1.38,0-2.01,1.16-2.01,2.41v4.03Z"/><path class="cls-9" d="M140.95,105.35h-1.39v-.77h1.39v-1.49l.84-.36v1.86h1.59v.77h-1.59v4.69c-.01,.64,.32,.99,.96,.99,.25,0,.5-.01,.72-.08v.72c-.27,.07-.57,.13-.85,.13-1.77,0-1.67-1.13-1.67-2.08v-4.37Z"/><path class="cls-9" d="M145.49,108.28c.03,1.49,.71,2.75,2.43,2.75,.99,0,1.81-.71,2.02-1.67h.88c-.43,1.67-1.48,2.44-3.17,2.44-2.09,0-3.07-1.8-3.07-3.71s1.05-3.71,3.12-3.71c2.34,0,3.19,1.72,3.19,3.91h-5.41Zm4.5-.77c-.1-1.35-.82-2.37-2.27-2.37-1.37,0-2.09,1.14-2.2,2.37h4.48Z"/><path class="cls-9" d="M153.58,105.61l.03,.03c.49-.86,1.28-1.27,2.19-1.27,1.1,0,1.97,.61,2.27,1.53,.52-.82,1.33-1.53,2.41-1.53,2.29,0,2.47,2.02,2.47,2.83v4.38h-.84v-4.52c0-1.21-.7-1.92-1.84-1.92-1.38,0-2.01,1.16-2.01,2.41v4.03h-.84v-4.52c0-1.21-.7-1.92-1.84-1.92-1.38,0-2.01,1.16-2.01,2.41v4.03h-.84v-5.43c0-.54-.04-1.1-.07-1.58h.86l.04,1.03Z"/><path class="cls-9" d="M165.85,114.26h-.84v-8.1c.01-.54-.04-1.1-.07-1.58h.86l.04,1.03,.03,.03c.49-.82,1.46-1.27,2.4-1.27,2.08,0,2.87,1.87,2.87,3.68s-.79,3.74-2.83,3.74c-1.02,0-1.87-.46-2.44-1.3h-.03v3.77Zm2.38-3.24c1.6,0,2.01-1.77,2.01-3.07s-.54-2.82-2.13-2.82-2.26,1.35-2.26,2.78c0,1.59,.56,3.11,2.38,3.11Z"/><path class="cls-9" d="M178.93,108.08c0,1.84-1.03,3.71-3.26,3.71s-3.26-1.87-3.26-3.71,1.03-3.71,3.26-3.71,3.26,1.87,3.26,3.71Zm-3.26-2.94c-1.69,0-2.36,1.65-2.36,2.94s.67,2.94,2.36,2.94,2.36-1.65,2.36-2.94-.67-2.94-2.36-2.94Z"/><path class="cls-9" d="M181.5,111.58h-.84v-5.43c.01-.54-.04-1.1-.07-1.58h.86l.04,1.03h.03c.25-.71,.88-1.21,1.58-1.24,.28-.01,.56,0,.84,.01v.81c-.17-.01-.35-.06-.52-.06-1.24,0-1.9,.89-1.92,2.23v4.21Z"/><path class="cls-9" d="M189.27,106.65c-.08-1.14-.67-1.51-1.66-1.51-.88,0-1.6,.26-1.71,1.21h-.89c.21-1.44,1.28-1.98,2.62-1.98,1.55,0,2.51,.71,2.48,2.32v3.32c-.01,.54,.04,1.1,.07,1.58h-.87l-.03-1.03h-.03l-.04,.1c-.31,.59-1.24,1.14-2.19,1.14-1.3,0-2.33-.79-2.33-2.16,0-.95,.57-1.67,1.41-2.02,.93-.41,2.15-.27,3.17-.32v-.64Zm-2.09,4.38c1.83,0,2.18-1.51,2.09-2.97-1.19,.04-3.67-.18-3.67,1.58,0,.95,.72,1.4,1.58,1.4Zm2.16-9.3l-1.77,1.99h-.61l1.27-1.99h1.12Z"/><path class="cls-9" d="M193.12,111.58h-.84v-5.43c0-.54-.04-1.1-.07-1.58h.86l.04,1.03,.03,.03c.49-.86,1.28-1.27,2.19-1.27,2.29,0,2.47,2.02,2.47,2.83v4.38h-.84v-4.52c0-1.21-.7-1.92-1.84-1.92-1.38,0-2.01,1.16-2.01,2.41v4.03Z"/><path class="cls-9" d="M200.52,108.28c.03,1.49,.71,2.75,2.43,2.75,.99,0,1.81-.71,2.02-1.67h.88c-.43,1.67-1.48,2.44-3.17,2.44-2.09,0-3.07-1.8-3.07-3.71s1.05-3.71,3.12-3.71c2.34,0,3.19,1.72,3.19,3.91h-5.41Zm4.5-.77c-.1-1.35-.82-2.37-2.27-2.37-1.37,0-2.09,1.14-2.2,2.37h4.48Z"/><path class="cls-9" d="M213.81,108.08c0,1.84-1.03,3.71-3.26,3.71s-3.26-1.87-3.26-3.71,1.03-3.71,3.26-3.71,3.26,1.87,3.26,3.71Zm-3.26-2.94c-1.69,0-2.36,1.65-2.36,2.94s.67,2.94,2.36,2.94,2.36-1.65,2.36-2.94-.67-2.94-2.36-2.94Z"/></g><rect x="84.1" y="103.7" width="8.37" height="8.37" transform="translate(102.15 -30.83) rotate(45)"/><path class="cls-2" d="M95.34,155.35c0,4.22-3.42,7.63-7.63,7.63s-7.63-3.42-7.63-7.63,3.42-7.63,7.63-7.63,7.63,3.42,7.63,7.63" vector-effect="none"/><circle cx="87.71" cy="155.39" r="4.65"/><g><path class="cls-9" d="M118.45,158.45v-10.07h1.45l3.78,8.77,3.86-8.77h1.38v10.07h-.91v-9.3h-.03l-3.85,9.3h-.91l-3.85-9.26h-.03v9.26h-.91Z"/><path class="cls-9" d="M137.4,154.95c0,1.84-1.03,3.71-3.26,3.71s-3.26-1.87-3.26-3.71,1.03-3.71,3.26-3.71,3.26,1.87,3.26,3.71Zm-3.26-2.94c-1.69,0-2.36,1.65-2.36,2.94s.67,2.94,2.36,2.94,2.36-1.65,2.36-2.94-.67-2.94-2.36-2.94Z"/><path class="cls-9" d="M143.95,157.42l-.03-.06c-.57,.84-1.42,1.3-2.4,1.3-2.08,0-2.87-1.98-2.87-3.74s.79-3.68,2.87-3.68c.93,0,1.91,.45,2.4,1.27l.03-.03v-4.1h.84v8.49c0,.54,.04,1.1,.07,1.58h-.87l-.04-1.03Zm-2.29-5.41c-1.59,0-2.11,1.48-2.11,2.82s.38,3.07,1.98,3.07c1.83,0,2.39-1.52,2.39-3.11,0-1.42-.63-2.78-2.26-2.78Z"/><path class="cls-9" d="M147.37,155.15c.03,1.49,.71,2.75,2.43,2.75,.99,0,1.81-.71,2.02-1.67h.88c-.43,1.67-1.48,2.44-3.17,2.44-2.09,0-3.07-1.8-3.07-3.71s1.05-3.71,3.12-3.71c2.34,0,3.19,1.72,3.19,3.91h-5.41Zm4.5-.77c-.1-1.35-.82-2.37-2.27-2.37-1.37,0-2.09,1.14-2.2,2.37h4.48Z"/><path class="cls-9" d="M155.47,158.45h-.84v-5.43c.01-.54-.04-1.1-.07-1.58h.87l.04,1.03h.03c.25-.71,.88-1.21,1.58-1.24,.28-.01,.56,0,.84,.01v.81c-.17-.01-.35-.06-.52-.06-1.24,0-1.9,.89-1.92,2.23v4.21Z"/><path class="cls-9" d="M160.12,158.45h-.84v-5.43c0-.54-.04-1.1-.07-1.58h.86l.04,1.03,.03,.03c.49-.86,1.28-1.27,2.19-1.27,2.29,0,2.47,2.02,2.47,2.83v4.38h-.84v-4.52c0-1.21-.7-1.92-1.84-1.92-1.38,0-2.01,1.16-2.01,2.41v4.03Z"/><path class="cls-9" d="M173.06,154.95c0,1.84-1.03,3.71-3.26,3.71s-3.26-1.87-3.26-3.71,1.03-3.71,3.26-3.71,3.26,1.87,3.26,3.71Zm-3.26-2.94c-1.69,0-2.36,1.65-2.36,2.94s.67,2.94,2.36,2.94,2.36-1.65,2.36-2.94-.67-2.94-2.36-2.94Z"/><path class="cls-9" d="M176.96,148.38h.91l-3.64,11.41h-.88l3.61-11.41Z"/><path class="cls-9" d="M185.11,150.74c-.17-1.23-1.23-1.73-2.37-1.73-2.58,0-3.36,2.34-3.36,4.41s.78,4.41,3.36,4.41c1.12,0,2.23-.56,2.48-1.81h.98c-.29,1.69-1.84,2.65-3.46,2.65-3.05,0-4.34-2.46-4.34-5.24s1.3-5.24,4.34-5.24c1.65,0,3.21,.75,3.35,2.57h-.98Z"/><path class="cls-9" d="M193.99,154.95c0,1.84-1.03,3.71-3.26,3.71s-3.26-1.87-3.26-3.71,1.03-3.71,3.26-3.71,3.26,1.87,3.26,3.71Zm-3.26-2.94c-1.69,0-2.36,1.65-2.36,2.94s.67,2.94,2.36,2.94,2.36-1.65,2.36-2.94-.67-2.94-2.36-2.94Z"/><path class="cls-9" d="M196.56,158.45h-.84v-5.43c0-.54-.04-1.1-.07-1.58h.86l.04,1.03,.03,.03c.49-.86,1.28-1.27,2.19-1.27,2.29,0,2.47,2.02,2.47,2.83v4.38h-.84v-4.52c0-1.21-.7-1.92-1.84-1.92-1.38,0-2.01,1.16-2.01,2.41v4.03Z"/><path class="cls-9" d="M204.08,152.22h-1.39v-.77h1.39v-1.49l.84-.36v1.86h1.59v.77h-1.59v4.69c-.01,.64,.32,.99,.96,.99,.25,0,.5-.01,.72-.08v.72c-.26,.07-.57,.13-.85,.13-1.77,0-1.67-1.13-1.67-2.08v-4.37Z"/><path class="cls-9" d="M208.61,155.15c.03,1.49,.71,2.75,2.43,2.75,.99,0,1.81-.71,2.02-1.67h.88c-.43,1.67-1.48,2.44-3.17,2.44-2.09,0-3.07-1.8-3.07-3.71s1.05-3.71,3.12-3.71c2.34,0,3.19,1.72,3.19,3.91h-5.41Zm4.5-.77c-.1-1.35-.82-2.37-2.27-2.37-1.37,0-2.09,1.14-2.2,2.37h4.48Z"/><path class="cls-9" d="M216.7,152.48l.03,.03c.49-.86,1.28-1.27,2.19-1.27,1.1,0,1.97,.61,2.27,1.53,.52-.82,1.33-1.53,2.41-1.53,2.29,0,2.47,2.02,2.47,2.83v4.38h-.84v-4.52c0-1.21-.7-1.92-1.84-1.92-1.38,0-2.01,1.16-2.01,2.41v4.03h-.84v-4.52c0-1.21-.7-1.92-1.84-1.92-1.38,0-2.01,1.16-2.01,2.41v4.03h-.84v-5.43c0-.54-.04-1.1-.07-1.58h.87l.04,1.03Z"/><path class="cls-9" d="M228.97,161.13h-.84v-8.1c.01-.54-.04-1.1-.07-1.58h.86l.04,1.03,.03,.03c.49-.82,1.46-1.27,2.4-1.27,2.08,0,2.87,1.87,2.87,3.68s-.79,3.74-2.83,3.74c-1.02,0-1.87-.46-2.44-1.3h-.03v3.77Zm2.38-3.24c1.6,0,2.01-1.77,2.01-3.07s-.54-2.82-2.13-2.82-2.26,1.35-2.26,2.78c0,1.59,.56,3.11,2.38,3.11Z"/><path class="cls-9" d="M242.05,154.95c0,1.84-1.03,3.71-3.26,3.71s-3.26-1.87-3.26-3.71,1.03-3.71,3.26-3.71,3.26,1.87,3.26,3.71Zm-3.26-2.94c-1.69,0-2.36,1.65-2.36,2.94s.67,2.94,2.36,2.94,2.36-1.65,2.36-2.94-.67-2.94-2.36-2.94Z"/><path class="cls-9" d="M244.62,158.45h-.84v-5.43c.01-.54-.04-1.1-.07-1.58h.86l.04,1.03h.03c.25-.71,.88-1.21,1.58-1.24,.28-.01,.56,0,.84,.01v.81c-.17-.01-.35-.06-.52-.06-1.24,0-1.9,.89-1.92,2.23v4.21Z"/><path class="cls-9" d="M252.39,153.51c-.08-1.14-.67-1.51-1.66-1.51-.88,0-1.6,.26-1.72,1.21h-.89c.21-1.44,1.28-1.98,2.62-1.98,1.55,0,2.51,.71,2.48,2.32v3.32c-.01,.54,.04,1.1,.07,1.58h-.86l-.03-1.03h-.03l-.04,.1c-.31,.59-1.24,1.14-2.19,1.14-1.3,0-2.33-.79-2.33-2.16,0-.95,.57-1.67,1.41-2.02,.94-.41,2.15-.27,3.17-.32v-.64Zm-2.09,4.38c1.83,0,2.18-1.51,2.09-2.97-1.19,.04-3.67-.18-3.67,1.58,0,.95,.73,1.4,1.58,1.4Zm2.16-9.3l-1.77,1.99h-.61l1.27-1.99h1.12Z"/><path class="cls-9" d="M256.24,158.45h-.84v-5.43c0-.54-.04-1.1-.07-1.58h.87l.04,1.03,.03,.03c.49-.86,1.28-1.27,2.19-1.27,2.29,0,2.47,2.02,2.47,2.83v4.38h-.84v-4.52c0-1.21-.7-1.92-1.84-1.92-1.38,0-2.01,1.16-2.01,2.41v4.03Z"/><path class="cls-9" d="M263.64,155.15c.03,1.49,.71,2.75,2.43,2.75,.99,0,1.81-.71,2.02-1.67h.88c-.43,1.67-1.48,2.44-3.17,2.44-2.09,0-3.07-1.8-3.07-3.71s1.04-3.71,3.12-3.71c2.34,0,3.19,1.72,3.19,3.91h-5.41Zm4.5-.77c-.1-1.35-.82-2.37-2.27-2.37-1.37,0-2.09,1.14-2.2,2.37h4.48Z"/><path class="cls-9" d="M276.94,154.95c0,1.84-1.03,3.71-3.26,3.71s-3.26-1.87-3.26-3.71,1.03-3.71,3.26-3.71,3.26,1.87,3.26,3.71Zm-3.26-2.94c-1.69,0-2.36,1.65-2.36,2.94s.67,2.94,2.36,2.94,2.36-1.65,2.36-2.94-.67-2.94-2.36-2.94Z"/></g><rect x="83.43" y="128.6" width="9.46" height="9.46"/><circle class="cls-8" cx="91.24" cy="256.96" r="11.3"/><circle class="cls-11" cx="91.24" cy="329.83" r="11.3"/><circle class="cls-10" cx="91.24" cy="293.19" r="11.3"/><g><path class="cls-7" d="M71.79,27.73h3.39c1.23,0,2.07,.07,2.76,.81,.5,.52,.74,1.2,.74,1.96s-.25,1.43-.8,1.98c-.53,.53-1.23,.87-3.05,.87h-1.64v4.5h-1.4v-10.11Zm1.4,4.44h1.67c.92,0,2.34-.07,2.34-1.72s-1.32-1.58-2.04-1.58h-1.96v3.31Z"/><path class="cls-7" d="M84.21,37.84c-.1-.35-.13-.69-.13-1.05-.63,1.16-1.58,1.27-2.17,1.27-1.61,0-2.48-.91-2.48-2.07,0-.56,.2-1.46,1.23-2.06,.76-.42,1.88-.46,2.44-.46,.34,0,.55,.01,.95,.04,0-.87,0-1.25-.25-1.56-.27-.35-.84-.46-1.22-.46-1.33,0-1.4,.91-1.42,1.19h-1.32c.04-.36,.08-.85,.49-1.33,.53-.59,1.53-.76,2.27-.76,1.02,0,2.12,.32,2.49,1.04,.22,.42,.24,.76,.24,1.08l-.06,3.36c0,.11,.01,1.05,.11,1.77h-1.19Zm-.91-3.46c-.53,0-2.54,0-2.54,1.43,0,.45,.28,1.22,1.46,1.22,.67,0,1.18-.27,1.5-.76,.29-.48,.31-.87,.34-1.85-.24-.03-.43-.04-.76-.04Z"/><path class="cls-7" d="M87.78,32.24c0-.48-.03-.97-.07-1.43h1.33l.03,1.36c.25-.98,1.09-1.3,1.68-1.39,.39-.06,.69-.04,.91-.03v1.29c-.07-.03-.15-.04-.25-.06-.1-.01-.22-.01-.38-.01-1.55,0-1.92,.92-1.92,2.13v3.74h-1.33v-5.6Z"/><path class="cls-7" d="M97.44,37.84c-.1-.35-.13-.69-.13-1.05-.63,1.16-1.58,1.27-2.17,1.27-1.61,0-2.48-.91-2.48-2.07,0-.56,.2-1.46,1.23-2.06,.76-.42,1.88-.46,2.44-.46,.34,0,.55,.01,.95,.04,0-.87,0-1.25-.25-1.56-.27-.35-.84-.46-1.22-.46-1.33,0-1.4,.91-1.42,1.19h-1.32c.04-.36,.08-.85,.49-1.33,.53-.59,1.53-.76,2.27-.76,1.02,0,2.12,.32,2.49,1.04,.22,.42,.24,.76,.24,1.08l-.06,3.36c0,.11,.01,1.05,.11,1.77h-1.19Zm-.91-3.46c-.53,0-2.54,0-2.54,1.43,0,.45,.28,1.22,1.46,1.22,.67,0,1.18-.27,1.5-.76,.29-.48,.31-.87,.34-1.85-.24-.03-.43-.04-.76-.04Z"/><path class="cls-7" d="M104.86,27.74h1.32v10.1h-1.32v-10.1Z"/><path class="cls-7" d="M109.52,34.56c-.03,1.46,.57,2.54,2.02,2.54,.85,0,1.54-.45,1.65-1.46h1.32c-.04,.35-.1,.92-.6,1.47-.31,.35-1.01,.94-2.42,.94-2.21,0-3.26-1.37-3.26-3.6,0-1.39,.28-2.54,1.39-3.31,.67-.48,1.51-.52,1.92-.52,3.15,0,3.08,2.79,3.05,3.94h-5.06Zm3.71-.92c.01-.67-.11-2.07-1.74-2.07-.85,0-1.89,.52-1.92,2.07h3.66Z"/><path class="cls-7" d="M117.3,34.56c-.03,1.46,.57,2.54,2.02,2.54,.85,0,1.54-.45,1.65-1.46h1.32c-.04,.35-.1,.92-.6,1.47-.31,.35-1.01,.94-2.42,.94-2.21,0-3.26-1.37-3.26-3.6,0-1.39,.28-2.54,1.39-3.31,.67-.48,1.51-.52,1.92-.52,3.15,0,3.08,2.79,3.05,3.94h-5.06Zm3.71-.92c.01-.67-.11-2.07-1.74-2.07-.85,0-1.89,.52-1.92,2.07h3.66Z"/><path class="cls-7" d="M124.36,32.24c0-.48-.03-.97-.07-1.43h1.33l.03,1.36c.25-.98,1.09-1.3,1.68-1.39,.39-.06,.69-.04,.91-.03v1.29c-.07-.03-.15-.04-.25-.06-.1-.01-.22-.01-.38-.01-1.55,0-1.92,.92-1.92,2.13v3.74h-1.33v-5.6Z"/><path class="cls-7" d="M134.43,34.56c-.03,1.46,.57,2.54,2.02,2.54,.85,0,1.54-.45,1.65-1.46h1.32c-.04,.35-.1,.92-.6,1.47-.31,.35-1.01,.94-2.42,.94-2.21,0-3.26-1.37-3.26-3.6,0-1.39,.28-2.54,1.39-3.31,.67-.48,1.51-.52,1.92-.52,3.15,0,3.08,2.79,3.05,3.94h-5.06Zm3.71-.92c.01-.67-.11-2.07-1.74-2.07-.85,0-1.89,.52-1.92,2.07h3.66Z"/><path class="cls-7" d="M141.44,27.74h1.32v10.1h-1.32v-10.1Z"/><path class="cls-7" d="M153.2,33.06c-.03-.32-.13-1.47-1.4-1.47-1.82,0-1.82,2.12-1.82,2.65,0,1.44,.35,2.79,1.75,2.79,1.12,0,1.5-.84,1.53-1.53h1.33c-.08,1.37-1.11,2.52-2.84,2.52-.48,0-1.57-.1-2.31-.91-.42-.49-.84-1.23-.84-2.69,0-2.93,1.79-3.8,3.19-3.8,.46,0,1.51,.1,2.16,.87,.52,.6,.56,1.18,.59,1.57h-1.33Z"/><path class="cls-7" d="M160.48,37.84c-.1-.35-.13-.69-.13-1.05-.63,1.16-1.58,1.27-2.17,1.27-1.61,0-2.48-.91-2.48-2.07,0-.56,.2-1.46,1.23-2.06,.76-.42,1.88-.46,2.44-.46,.34,0,.55,.01,.95,.04,0-.87,0-1.25-.25-1.56-.27-.35-.84-.46-1.22-.46-1.33,0-1.4,.91-1.42,1.19h-1.32c.04-.36,.08-.85,.49-1.33,.53-.59,1.53-.76,2.27-.76,1.02,0,2.12,.32,2.49,1.04,.22,.42,.24,.76,.24,1.08l-.06,3.36c0,.11,.01,1.05,.11,1.77h-1.19Zm-.91-3.46c-.53,0-2.54,0-2.54,1.43,0,.45,.28,1.22,1.46,1.22,.67,0,1.18-.27,1.5-.76,.29-.48,.31-.87,.34-1.85-.24-.03-.43-.04-.76-.04Z"/><path class="cls-7" d="M164.05,32.24c0-.48-.03-.97-.07-1.43h1.33l.03,1.36c.25-.98,1.09-1.3,1.68-1.39,.39-.06,.69-.04,.91-.03v1.29c-.07-.03-.15-.04-.25-.06-.1-.01-.22-.01-.38-.01-1.55,0-1.92,.92-1.92,2.13v3.74h-1.33v-5.6Z"/><path class="cls-7" d="M168,30.78h1.25v-1.47l1.3-.42v1.89h1.57v.97h-1.57v4.22c0,.35,0,.94,.94,.94,.27,0,.52-.04,.63-.07v1.02c-.24,.04-.62,.08-1.09,.08-1.21,0-1.78-.35-1.78-1.5v-4.69h-1.25v-.97Z"/><path class="cls-7" d="M174.54,34.56c-.03,1.46,.57,2.54,2.02,2.54,.85,0,1.54-.45,1.65-1.46h1.32c-.04,.35-.1,.92-.6,1.47-.31,.35-1.01,.94-2.42,.94-2.21,0-3.26-1.37-3.26-3.6,0-1.39,.28-2.54,1.39-3.31,.67-.48,1.51-.52,1.92-.52,3.15,0,3.08,2.79,3.05,3.94h-5.06Zm3.71-.92c.01-.67-.11-2.07-1.74-2.07-.85,0-1.89,.52-1.92,2.07h3.66Z"/><path class="cls-7" d="M181.55,27.74h1.32v10.1h-1.32v-10.1Z"/><path class="cls-7" d="M188.23,30.78h1.25v-1.47l1.3-.42v1.89h1.57v.97h-1.57v4.22c0,.35,0,.94,.94,.94,.27,0,.52-.04,.63-.07v1.02c-.24,.04-.62,.08-1.09,.08-1.21,0-1.78-.35-1.78-1.5v-4.69h-1.25v-.97Z"/><path class="cls-7" d="M197.02,30.63c2.82,0,3.45,2.21,3.45,3.68,0,2.06-1.16,3.77-3.56,3.77s-3.46-1.61-3.46-3.67c0-1.74,.81-3.78,3.57-3.78Zm-.08,6.47c1,0,2.13-.71,2.13-2.83,0-1.75-.81-2.68-2.04-2.68-.84,0-2.2,.53-2.2,2.73,0,1.44,.62,2.77,2.12,2.77Z"/><path class="cls-7" d="M202.51,31.75l-.03-.94h1.33v1.02c.67-1.11,1.62-1.2,2.23-1.2,1.55,0,2.04,.8,2.3,1.32,.24-.39,.81-1.32,2.37-1.32,1.01,0,2.58,.42,2.58,2.49v4.72h-1.33v-4.51c0-.62-.11-.88-.24-1.06-.22-.32-.67-.62-1.34-.62-.85,0-1.32,.49-1.5,.74-.31,.43-.31,1.2-.31,1.51v3.94h-1.33v-4.65c0-.87-.5-1.54-1.54-1.54-.9,0-1.39,.56-1.54,.77-.29,.41-.31,.98-.31,1.43v3.99h-1.33v-6.09Z"/><path class="cls-7" d="M220.02,37.84c-.1-.35-.13-.69-.13-1.05-.63,1.16-1.58,1.27-2.17,1.27-1.61,0-2.48-.91-2.48-2.07,0-.56,.2-1.46,1.23-2.06,.76-.42,1.88-.46,2.44-.46,.34,0,.55,.01,.95,.04,0-.87,0-1.25-.25-1.56-.27-.35-.84-.46-1.22-.46-1.33,0-1.4,.91-1.42,1.19h-1.32c.04-.36,.08-.85,.49-1.33,.53-.59,1.53-.76,2.27-.76,1.02,0,2.12,.32,2.49,1.04,.22,.42,.24,.76,.24,1.08l-.06,3.36c0,.11,.01,1.05,.11,1.77h-1.19Zm-.91-3.46c-.53,0-2.54,0-2.54,1.43,0,.45,.28,1.22,1.46,1.22,.67,0,1.18-.27,1.5-.76,.29-.48,.31-.87,.34-1.85-.24-.03-.43-.04-.76-.04Z"/><path class="cls-7" d="M223.59,32.24c0-.48-.03-.97-.07-1.43h1.33l.03,1.36c.25-.98,1.09-1.3,1.68-1.39,.39-.06,.69-.04,.91-.03v1.29c-.07-.03-.15-.04-.25-.06-.1-.01-.22-.01-.38-.01-1.55,0-1.92,.92-1.92,2.13v3.74h-1.33v-5.6Z"/><path class="cls-7" d="M233.66,34.56c-.03,1.46,.57,2.54,2.02,2.54,.85,0,1.54-.45,1.65-1.46h1.32c-.04,.35-.1,.92-.6,1.47-.31,.35-1.01,.94-2.42,.94-2.21,0-3.26-1.37-3.26-3.6,0-1.39,.28-2.54,1.39-3.31,.67-.48,1.51-.52,1.92-.52,3.15,0,3.08,2.79,3.05,3.94h-5.06Zm3.71-.92c.01-.67-.11-2.07-1.74-2.07-.85,0-1.89,.52-1.92,2.07h3.66Z"/><path class="cls-7" d="M240.69,31.62v-.81s1.3,0,1.3,0v1.13c.17-.29,.67-1.27,2.27-1.27,.63,0,2.55,.24,2.55,2.4v4.78h-1.35v-4.47c0-.46-.06-.88-.38-1.2-.34-.32-.8-.48-1.25-.48-.95,0-1.83,.69-1.83,2.1v4.05h-1.32v-6.22Z"/><path class="cls-7" d="M75.79,49.86c-.03-.32-.13-1.47-1.4-1.47-1.82,0-1.82,2.12-1.82,2.65,0,1.44,.35,2.79,1.75,2.79,1.12,0,1.5-.84,1.53-1.53h1.33c-.08,1.37-1.11,2.52-2.84,2.52-.48,0-1.57-.1-2.31-.91-.42-.49-.84-1.23-.84-2.69,0-2.93,1.79-3.8,3.19-3.8,.46,0,1.51,.1,2.16,.87,.52,.6,.56,1.18,.59,1.57h-1.33Z"/><path class="cls-7" d="M79.99,47.61v4.52c0,.69,.15,1.55,1.5,1.55,.66,0,1.27-.22,1.65-.78,.29-.42,.29-.97,.29-1.32v-3.98h1.36v5.71c0,.14,.03,.92,.04,1.32h-1.37l-.03-1.2c-.25,.49-.73,1.27-2.24,1.27-1.74,0-2.55-.99-2.55-2.38v-4.72h1.34Z"/><path class="cls-7" d="M88.14,51.36c-.03,1.46,.57,2.54,2.02,2.54,.85,0,1.54-.45,1.65-1.46h1.32c-.04,.35-.1,.92-.6,1.47-.31,.35-1.01,.94-2.42,.94-2.21,0-3.26-1.37-3.26-3.6,0-1.39,.28-2.54,1.39-3.31,.67-.48,1.51-.52,1.92-.52,3.15,0,3.08,2.79,3.05,3.94h-5.06Zm3.71-.92c.01-.67-.11-2.07-1.74-2.07-.85,0-1.89,.52-1.92,2.07h3.66Z"/><path class="cls-7" d="M95.17,48.42v-.81s1.3,0,1.3,0v1.13c.17-.29,.67-1.27,2.27-1.27,.63,0,2.55,.24,2.55,2.4v4.78h-1.35v-4.47c0-.46-.06-.88-.38-1.2-.34-.32-.8-.48-1.25-.48-.95,0-1.83,.69-1.83,2.1v4.05h-1.32v-6.22Z"/><path class="cls-7" d="M102.6,47.58h1.25v-1.47l1.3-.42v1.89h1.57v.97h-1.57v4.22c0,.35,0,.94,.94,.94,.27,0,.52-.04,.63-.07v1.02c-.24,.04-.62,.08-1.09,.08-1.21,0-1.78-.35-1.78-1.5v-4.69h-1.25v-.97Z"/><path class="cls-7" d="M112.63,54.64c-.1-.35-.13-.69-.13-1.05-.63,1.16-1.58,1.27-2.17,1.27-1.61,0-2.48-.91-2.48-2.07,0-.56,.2-1.46,1.23-2.06,.76-.42,1.88-.46,2.44-.46,.34,0,.55,.01,.95,.04,0-.87,0-1.25-.25-1.56-.27-.35-.84-.46-1.22-.46-1.33,0-1.4,.91-1.42,1.19h-1.32c.04-.36,.08-.85,.49-1.33,.53-.59,1.53-.76,2.27-.76,1.02,0,2.12,.32,2.49,1.04,.22,.42,.24,.76,.24,1.08l-.06,3.36c0,.11,.01,1.05,.11,1.77h-1.19Zm-.91-3.46c-.53,0-2.54,0-2.54,1.43,0,.45,.28,1.22,1.46,1.22,.67,0,1.18-.27,1.5-.76,.29-.48,.31-.87,.34-1.85-.24-.03-.43-.04-.76-.04Z"/><path class="cls-7" d="M120.04,44.54h1.32v10.1h-1.32v-10.1Z"/><path class="cls-7" d="M128.19,54.64c-.1-.35-.13-.69-.13-1.05-.63,1.16-1.58,1.27-2.17,1.27-1.61,0-2.48-.91-2.48-2.07,0-.56,.2-1.46,1.23-2.06,.76-.42,1.88-.46,2.44-.46,.34,0,.55,.01,.95,.04,0-.87,0-1.25-.25-1.56-.27-.35-.84-.46-1.22-.46-1.33,0-1.4,.91-1.42,1.19h-1.32c.04-.36,.08-.85,.49-1.33,.53-.59,1.53-.76,2.27-.76,1.02,0,2.12,.32,2.49,1.04,.22,.42,.24,.76,.24,1.08l-.06,3.36c0,.11,.01,1.05,.11,1.77h-1.19Zm-.91-3.46c-.53,0-2.54,0-2.54,1.43,0,.45,.28,1.22,1.46,1.22,.67,0,1.18-.27,1.5-.76,.29-.48,.31-.87,.34-1.85-.24-.03-.43-.04-.76-.04Z"/><path class="cls-7" d="M136.34,52.55c-.01,.53,.27,1.27,1.54,1.27,.55,0,.95-.1,1.23-.45,.14-.18,.22-.42,.22-.66,0-.69-.49-.81-1.54-1.05-1.47-.34-2.7-.63-2.7-2.1,0-1.29,1.12-2.13,2.75-2.13,.88,0,2.11,.25,2.54,1.09,.18,.39,.18,.73,.18,1.02h-1.34c.04-1.06-.88-1.15-1.36-1.15-.2,0-1.43,0-1.43,1.01,0,.64,.63,.8,.99,.9,1.95,.46,2.37,.57,2.79,.97,.39,.36,.53,.85,.53,1.3,0,.78-.43,1.46-.95,1.78-.62,.38-1.36,.48-2.09,.48-1.43,0-2.76-.59-2.75-2.28h1.39Z"/><path class="cls-7" d="M142.46,44.55h1.58v1.44h-1.58v-1.44Zm.14,3.05h1.32v7.03h-1.32v-7.03Z"/><path class="cls-7" d="M147.74,55.19c.06,.78,.39,1.37,1.64,1.37,1.83,0,1.86-1.33,1.86-3.24-.56,1.16-1.89,1.19-2.31,1.19-.64,0-1.57-.14-2.16-.87-.6-.71-.8-1.65-.8-2.59,0-2.38,1.4-3.54,3.12-3.54,1.41,0,1.93,.7,2.21,1.06v-.97h1.29l-.03,1.27v4.4c-.01,1.69-.07,2.38-.35,2.91-.59,1.12-1.96,1.26-2.93,1.26-2.82,0-2.9-1.32-2.96-2.27h1.4Zm3.07-2.35c.28-.36,.48-.74,.48-2.02,0-.88-.2-1.39-.55-1.75-.35-.38-.91-.62-1.51-.62-1.67,0-1.89,1.68-1.89,2.58,0,1.08,.32,2.51,1.93,2.51,.77,0,1.22-.28,1.54-.7Z"/><path class="cls-7" d="M156.23,47.61v4.52c0,.69,.15,1.55,1.5,1.55,.66,0,1.27-.22,1.65-.78,.29-.42,.29-.97,.29-1.32v-3.98h1.36v5.71c0,.14,.03,.92,.04,1.32h-1.37l-.03-1.2c-.25,.49-.73,1.27-2.24,1.27-1.74,0-2.55-.99-2.55-2.38v-4.72h1.34Z"/><path class="cls-7" d="M163.46,44.55h1.58v1.44h-1.58v-1.44Zm.14,3.05h1.32v7.03h-1.32v-7.03Z"/><path class="cls-7" d="M168.27,51.36c-.03,1.46,.57,2.54,2.02,2.54,.85,0,1.54-.45,1.65-1.46h1.32c-.04,.35-.1,.92-.6,1.47-.31,.35-1.01,.94-2.42,.94-2.21,0-3.26-1.37-3.26-3.6,0-1.39,.28-2.54,1.39-3.31,.67-.48,1.51-.52,1.92-.52,3.15,0,3.08,2.79,3.05,3.94h-5.06Zm3.71-.92c.01-.67-.11-2.07-1.74-2.07-.85,0-1.89,.52-1.92,2.07h3.66Z"/><path class="cls-7" d="M175.3,48.42v-.81s1.3,0,1.3,0v1.13c.17-.29,.67-1.27,2.27-1.27,.63,0,2.55,.24,2.55,2.4v4.78h-1.34v-4.47c0-.46-.06-.88-.38-1.2-.34-.32-.8-.48-1.25-.48-.95,0-1.83,.69-1.83,2.1v4.05h-1.32v-6.22Z"/><path class="cls-7" d="M182.74,47.58h1.25v-1.47l1.3-.42v1.89h1.57v.97h-1.57v4.22c0,.35,0,.94,.94,.94,.27,0,.52-.04,.63-.07v1.02c-.24,.04-.62,.08-1.09,.08-1.21,0-1.78-.35-1.78-1.5v-4.69h-1.25v-.97Z"/><path class="cls-7" d="M189.27,51.36c-.03,1.46,.57,2.54,2.02,2.54,.85,0,1.54-.45,1.65-1.46h1.32c-.04,.35-.1,.92-.6,1.47-.31,.35-1.01,.94-2.42,.94-2.21,0-3.26-1.37-3.26-3.6,0-1.39,.28-2.54,1.39-3.31,.67-.48,1.51-.52,1.92-.52,3.15,0,3.08,2.79,3.05,3.94h-5.06Zm3.71-.92c.01-.67-.11-2.07-1.74-2.07-.85,0-1.89,.52-1.92,2.07h3.66Z"/><path class="cls-7" d="M200.91,52.55c-.01,.53,.27,1.27,1.54,1.27,.55,0,.95-.1,1.23-.45,.14-.18,.22-.42,.22-.66,0-.69-.49-.81-1.54-1.05-1.47-.34-2.7-.63-2.7-2.1,0-1.29,1.12-2.13,2.75-2.13,.88,0,2.12,.25,2.54,1.09,.18,.39,.18,.73,.18,1.02h-1.34c.04-1.06-.88-1.15-1.36-1.15-.2,0-1.43,0-1.43,1.01,0,.64,.63,.8,.99,.9,1.95,.46,2.37,.57,2.79,.97,.39,.36,.53,.85,.53,1.3,0,.78-.43,1.46-.95,1.78-.62,.38-1.36,.48-2.09,.48-1.43,0-2.76-.59-2.75-2.28h1.39Z"/><path class="cls-7" d="M207.03,44.55h1.58v1.44h-1.58v-1.44Zm.14,3.05h1.32v7.03h-1.32v-7.03Z"/><path class="cls-7" d="M211.03,48.55l-.03-.94h1.33v1.02c.67-1.11,1.62-1.2,2.23-1.2,1.55,0,2.04,.8,2.3,1.32,.24-.39,.81-1.32,2.37-1.32,1.01,0,2.58,.42,2.58,2.49v4.72h-1.33v-4.51c0-.62-.11-.88-.24-1.06-.22-.32-.67-.62-1.34-.62-.85,0-1.32,.49-1.5,.74-.31,.43-.31,1.2-.31,1.51v3.94h-1.33v-4.65c0-.87-.5-1.54-1.54-1.54-.9,0-1.39,.56-1.54,.77-.29,.41-.31,.98-.31,1.43v3.99h-1.33v-6.09Z"/><path class="cls-7" d="M225.58,48.63c.18-.32,.7-1.2,2.3-1.2,.7,0,1.58,.17,2.23,.9,.35,.41,.83,1.11,.83,2.65,0,1.36-.32,2.1-.67,2.56-.56,.8-1.5,1.2-2.46,1.2-.34,0-.97-.04-1.57-.45-.39-.27-.55-.5-.69-.71l-.03,1.06h-1.27l.03-1.26v-8.85h1.32v4.1Zm1.99-.31c-2.02,0-2.02,2.35-2.02,2.8s0,2.66,1.96,2.66c1.62,0,2.03-1.58,2.03-2.73,0-.7-.14-2.73-1.98-2.73Z"/><path class="cls-7" d="M235.87,47.43c2.82,0,3.45,2.21,3.45,3.68,0,2.06-1.16,3.77-3.56,3.77s-3.46-1.61-3.46-3.67c0-1.74,.81-3.78,3.57-3.78Zm-.08,6.47c1,0,2.13-.71,2.13-2.83,0-1.75-.81-2.68-2.04-2.68-.84,0-2.2,.53-2.2,2.73,0,1.44,.62,2.77,2.12,2.77Z"/><path class="cls-7" d="M241.4,44.54h1.32v10.1h-1.32v-10.1Z"/><path class="cls-7" d="M248.31,47.43c2.82,0,3.45,2.21,3.45,3.68,0,2.06-1.16,3.77-3.56,3.77s-3.46-1.61-3.46-3.67c0-1.74,.81-3.78,3.57-3.78Zm-.08,6.47c1,0,2.13-.71,2.13-2.83,0-1.75-.81-2.68-2.04-2.68-.84,0-2.2,.53-2.2,2.73,0,1.44,.62,2.77,2.12,2.77Z"/><path class="cls-7" d="M255.07,55.19c.06,.78,.39,1.37,1.64,1.37,1.83,0,1.86-1.33,1.86-3.24-.56,1.16-1.89,1.19-2.31,1.19-.64,0-1.57-.14-2.16-.87-.6-.71-.8-1.65-.8-2.59,0-2.38,1.4-3.54,3.12-3.54,1.41,0,1.93,.7,2.21,1.06v-.97h1.29l-.03,1.27v4.4c-.01,1.69-.07,2.38-.35,2.91-.59,1.12-1.96,1.26-2.93,1.26-2.82,0-2.9-1.32-2.96-2.27h1.4Zm3.07-2.35c.28-.36,.48-.74,.48-2.02,0-.88-.2-1.39-.55-1.75-.35-.38-.91-.62-1.51-.62-1.67,0-1.89,1.68-1.89,2.58,0,1.08,.32,2.51,1.93,2.51,.77,0,1.22-.28,1.54-.7Z"/><path class="cls-7" d="M264.86,44.27l-1.69,2.02h-.91l1.15-2.02h1.46Zm-2.42,3.33h1.26v7.03h-1.26v-7.03Z"/><path class="cls-7" d="M270.54,54.64c-.1-.35-.13-.69-.13-1.05-.63,1.16-1.58,1.27-2.17,1.27-1.61,0-2.48-.91-2.48-2.07,0-.56,.2-1.46,1.23-2.06,.76-.42,1.88-.46,2.44-.46,.34,0,.55,.01,.95,.04,0-.87,0-1.25-.25-1.56-.27-.35-.84-.46-1.22-.46-1.33,0-1.4,.91-1.42,1.19h-1.32c.04-.36,.08-.85,.49-1.33,.53-.59,1.53-.76,2.27-.76,1.02,0,2.12,.32,2.49,1.04,.22,.42,.24,.76,.24,1.08l-.06,3.36c0,.11,.01,1.05,.11,1.77h-1.19Zm-.91-3.46c-.53,0-2.54,0-2.54,1.43,0,.45,.28,1.22,1.46,1.22,.67,0,1.18-.27,1.5-.76,.29-.48,.31-.87,.34-1.85-.24-.03-.43-.04-.76-.04Z"/><path class="cls-7" d="M273.97,47.54h1.55v1.65h-1.55v-1.65Zm0,5.45h1.55v1.65h-1.55v-1.65Z"/></g></svg>