<?xml version="1.0" encoding="UTF-8"?><svg id="Layer_1" xmlns="http://www.w3.org/2000/svg" xmlns:xlink="http://www.w3.org/1999/xlink" viewBox="0 0 1202.26 701.16"><defs><style>.cls-1{fill:url(#linear-gradient);}.cls-1,.cls-2,.cls-3,.cls-4,.cls-5,.cls-6,.cls-7,.cls-8,.cls-9,.cls-10,.cls-11,.cls-12,.cls-13,.cls-14,.cls-15,.cls-16,.cls-17,.cls-18,.cls-19,.cls-20,.cls-21{opacity:.8;}.cls-22{stroke:#949292;stroke-dasharray:0 0 0 0 0 0 14.17 1.42 14.17 1.42 14.17 1.42;}.cls-22,.cls-23,.cls-24{stroke-width:.57px;}.cls-22,.cls-23,.cls-24,.cls-25{fill:none;stroke-miterlimit:10;}.cls-26{fill:url(#linear-gradient-19);}.cls-26,.cls-27,.cls-28,.cls-29{fill-opacity:.8;}.cls-27{fill:url(#linear-gradient-20);}.cls-28{fill:url(#linear-gradient-22);}.cls-29{fill:url(#linear-gradient-21);}.cls-30{fill:#010101;}.cls-23{stroke:#010101;}.cls-24{stroke:#c2c1c1;}.cls-31{opacity:.9;}.cls-25{stroke:#bcbcbc;stroke-dasharray:0 2.83;stroke-width:.28px;}.cls-2{fill:url(#linear-gradient-11);}.cls-3{fill:url(#linear-gradient-10);}.cls-4{fill:url(#linear-gradient-12);}.cls-5{fill:url(#linear-gradient-13);}.cls-6{fill:url(#linear-gradient-16);}.cls-7{fill:url(#linear-gradient-17);}.cls-8{fill:url(#linear-gradient-15);}.cls-9{fill:url(#linear-gradient-23);}.cls-10{fill:url(#linear-gradient-18);}.cls-11{fill:url(#linear-gradient-14);}.cls-12{fill:url(#linear-gradient-25);}.cls-13{fill:url(#linear-gradient-24);}.cls-32{isolation:isolate;}.cls-14{fill:url(#linear-gradient-4);}.cls-15{fill:url(#linear-gradient-2);}.cls-16{fill:url(#linear-gradient-3);}.cls-17{fill:url(#linear-gradient-8);}.cls-18{fill:url(#linear-gradient-9);}.cls-19{fill:url(#linear-gradient-5);}.cls-20{fill:url(#linear-gradient-6);}.cls-21{fill:url(#linear-gradient-7);}</style><linearGradient id="linear-gradient" x1="1010.12" y1="522.05" x2="1037.98" y2="522.05" gradientUnits="userSpaceOnUse"><stop offset="0" stop-color="#84684d"/><stop offset="1" stop-color="#955d2d"/></linearGradient><linearGradient id="linear-gradient-2" x1="1089.83" y1="522.05" x2="1135.73" y2="522.05" xlink:href="#linear-gradient"/><linearGradient id="linear-gradient-3" x1="928.64" y1="522.05" x2="943.54" y2="522.05" xlink:href="#linear-gradient"/><linearGradient id="linear-gradient-4" y1="472.57" y2="472.57" xlink:href="#linear-gradient"/><linearGradient id="linear-gradient-5" x1="1090.44" y1="472.57" x2="1135.12" y2="472.57" xlink:href="#linear-gradient"/><linearGradient id="linear-gradient-6" x1="930.83" y1="472.57" x2="941.36" y2="472.57" xlink:href="#linear-gradient"/><linearGradient id="linear-gradient-7" x1="1093.48" y1="565.15" x2="1131.45" y2="565.15" xlink:href="#linear-gradient"/><linearGradient id="linear-gradient-8" x1="908.78" y1="565.15" x2="962.47" y2="565.15" xlink:href="#linear-gradient"/><linearGradient id="linear-gradient-9" x1="999.04" y1="565.15" x2="1048.43" y2="565.15" xlink:href="#linear-gradient"/><linearGradient id="linear-gradient-10" x1="652.04" y1="565.15" x2="690.01" y2="565.15" xlink:href="#linear-gradient"/><linearGradient id="linear-gradient-11" x1="823.93" y1="565.15" x2="871.02" y2="565.15" xlink:href="#linear-gradient"/><linearGradient id="linear-gradient-12" x1="746.15" y1="565.15" x2="771.95" y2="565.15" xlink:href="#linear-gradient"/><linearGradient id="linear-gradient-13" x1="225.09" y1="565.15" x2="235.62" y2="565.15" xlink:href="#linear-gradient"/><linearGradient id="linear-gradient-14" x1="572.48" y1="565.15" x2="593.54" y2="565.15" xlink:href="#linear-gradient"/><linearGradient id="linear-gradient-15" x1="397.34" y1="565.15" x2="415.58" y2="565.15" xlink:href="#linear-gradient"/><linearGradient id="linear-gradient-16" x1="136.84" y1="565.15" x2="147.37" y2="565.15" xlink:href="#linear-gradient"/><linearGradient id="linear-gradient-17" x1="313.15" y1="565.15" x2="323.68" y2="565.15" xlink:href="#linear-gradient"/><linearGradient id="linear-gradient-18" x1="489.52" y1="565.15" x2="500.05" y2="565.15" xlink:href="#linear-gradient"/><linearGradient id="linear-gradient-19" x1="1317.13" y1="427.68" x2="1316.43" y2="427.68" xlink:href="#linear-gradient"/><linearGradient id="linear-gradient-20" x1="1317.13" y1="427.68" x2="1316.43" y2="427.68" xlink:href="#linear-gradient"/><linearGradient id="linear-gradient-21" x1="1317.13" y1="427.68" x2="1316.43" y2="427.68" xlink:href="#linear-gradient"/><linearGradient id="linear-gradient-22" x1="1317.13" y1="427.68" x2="1316.43" y2="427.68" xlink:href="#linear-gradient"/><linearGradient id="linear-gradient-23" x1="973.71" y1="178.34" x2="1048.18" y2="178.34" xlink:href="#linear-gradient"/><linearGradient id="linear-gradient-24" x1="958.29" y1="162.92" x2="1063.6" y2="162.92" xlink:href="#linear-gradient"/><linearGradient id="linear-gradient-25" x1="946.46" y1="151.08" x2="1075.43" y2="151.08" xlink:href="#linear-gradient"/></defs><g><path class="cls-1" d="M1037.98,522.05c0,7.69-6.24,13.93-13.93,13.93s-13.93-6.24-13.93-13.93,6.24-13.93,13.93-13.93,13.93,6.24,13.93,13.93"/><path class="cls-15" d="M1135.73,522.05c0,12.68-10.28,22.95-22.95,22.95s-22.95-10.28-22.95-22.95,10.28-22.95,22.95-22.95,22.95,10.28,22.95,22.95"/><path class="cls-16" d="M943.54,522.05c0,4.11-3.33,7.45-7.45,7.45s-7.45-3.33-7.45-7.45,3.33-7.45,7.45-7.45,7.45,3.33,7.45,7.45"/></g><g><path class="cls-14" d="M1037.98,472.57c0,7.69-6.24,13.93-13.93,13.93s-13.93-6.24-13.93-13.93,6.24-13.93,13.93-13.93,13.93,6.24,13.93,13.93"/><path class="cls-19" d="M1135.12,472.57c0,12.34-10,22.34-22.34,22.34-12.34,0-22.34-10-22.34-22.34h0c0-12.34,10-22.35,22.34-22.35,12.34,0,22.34,10,22.34,22.34h0"/><path class="cls-20" d="M941.36,472.57c0,2.91-2.36,5.27-5.26,5.27-2.91,0-5.27-2.36-5.27-5.26h0c0-2.91,2.36-5.27,5.26-5.27,2.91,0,5.27,2.36,5.27,5.26h0"/></g><g><path class="cls-21" d="M1131.45,565.15c0,10.48-8.5,18.99-18.98,18.99-10.48,0-18.99-8.5-18.99-18.98h0c0-10.49,8.5-18.99,18.98-19,10.48,0,18.99,8.5,18.99,18.98h0"/><path class="cls-17" d="M962.47,565.15c0,14.83-12.01,26.85-26.84,26.85-14.83,0-26.85-12.01-26.85-26.84h0c0-14.84,12.01-26.86,26.84-26.86,14.83,0,26.85,12.01,26.85,26.84h0"/><path class="cls-18" d="M1048.43,565.15c0,13.64-11.05,24.7-24.69,24.7-13.64,0-24.7-11.05-24.7-24.69h0c0-13.65,11.05-24.71,24.69-24.71,13.64,0,24.7,11.05,24.7,24.69h0"/><path class="cls-3" d="M690.01,565.15c0,10.48-8.5,18.99-18.98,18.99-10.48,0-18.99-8.5-18.99-18.98h0c0-10.49,8.5-18.99,18.98-19,10.48,0,18.99,8.5,18.99,18.98h0"/><path class="cls-2" d="M871.02,565.15c0,13-10.54,23.55-23.55,23.55-13,0-23.55-10.54-23.55-23.55h0c0-13.01,10.54-23.55,23.55-23.55,13,0,23.55,10.54,23.55,23.55h0"/><path class="cls-4" d="M771.95,565.15c0,7.12-5.77,12.9-12.9,12.9s-12.9-5.77-12.9-12.9,5.77-12.9,12.9-12.9,12.9,5.77,12.9,12.9"/><path class="cls-5" d="M235.62,565.15c0,2.91-2.36,5.27-5.26,5.27-2.91,0-5.27-2.36-5.27-5.26h0c0-2.91,2.36-5.27,5.26-5.27,2.91,0,5.27,2.36,5.27,5.26h0"/><path class="cls-11" d="M593.54,565.15c0,5.82-4.71,10.53-10.53,10.53-5.82,0-10.53-4.71-10.53-10.53h0c0-5.82,4.71-10.53,10.53-10.53,5.82,0,10.53,4.71,10.53,10.53h0"/><path class="cls-8" d="M415.58,565.15c0,5.04-4.08,9.12-9.12,9.12s-9.12-4.08-9.12-9.12,4.08-9.12,9.12-9.12,9.12,4.08,9.12,9.12"/><path class="cls-6" d="M147.37,565.15c0,2.91-2.36,5.27-5.26,5.27-2.91,0-5.27-2.36-5.27-5.26h0c0-2.91,2.36-5.27,5.26-5.27,2.91,0,5.27,2.36,5.27,5.26h0"/><path class="cls-7" d="M323.68,565.15c0,2.91-2.36,5.27-5.26,5.27-2.91,0-5.27-2.36-5.27-5.26h0c0-2.91,2.36-5.27,5.26-5.27,2.91,0,5.27,2.36,5.27,5.26h0"/><path class="cls-10" d="M500.05,565.15c0,2.91-2.36,5.27-5.26,5.27-2.91,0-5.27-2.36-5.27-5.26h0c0-2.91,2.36-5.27,5.26-5.27,2.91,0,5.27,2.36,5.27,5.26h0"/></g><line class="cls-23" x1="1158.49" y1="602.52" x2="1158.49" y2="403.22"/><line class="cls-23" x1="1070.34" y1="602.52" x2="1070.34" y2="403.22"/><line class="cls-23" x1="982.23" y1="602.52" x2="982.23" y2="403.22"/><line class="cls-23" x1="894.08" y1="602.52" x2="894.08" y2="403.22"/><line class="cls-23" x1="805.66" y1="602.52" x2="805.66" y2="403.22"/><line class="cls-23" x1="717.63" y1="602.52" x2="717.63" y2="403.22"/><line class="cls-23" x1="629.61" y1="602.52" x2="629.61" y2="403.22"/><line class="cls-23" x1="541.39" y1="602.52" x2="541.39" y2="403.22"/><line class="cls-23" x1="453.04" y1="602.52" x2="453.04" y2="403.22"/><line class="cls-23" x1="365.02" y1="602.52" x2="365.02" y2="403.22"/><line class="cls-23" x1="276.96" y1="602.52" x2="276.96" y2="403.22"/><line class="cls-23" x1="188.72" y1="602.52" x2="188.72" y2="403.22"/><line class="cls-24" x1="1112.2" y1="602.52" x2="1112.2" y2="403.22"/><line class="cls-24" x1="1024.05" y1="602.52" x2="1024.05" y2="403.22"/><line class="cls-24" x1="935.94" y1="602.52" x2="935.94" y2="403.22"/><line class="cls-24" x1="847.79" y1="602.52" x2="847.79" y2="403.22"/><line class="cls-24" x1="759.36" y1="602.52" x2="759.36" y2="403.22"/><line class="cls-24" x1="671.34" y1="602.52" x2="671.34" y2="403.22"/><line class="cls-24" x1="583.32" y1="602.52" x2="583.32" y2="403.22"/><line class="cls-24" x1="495.1" y1="602.52" x2="495.1" y2="403.22"/><line class="cls-24" x1="406.75" y1="602.52" x2="406.75" y2="403.22"/><line class="cls-24" x1="318.73" y1="602.52" x2="318.73" y2="403.22"/><line class="cls-24" x1="230.66" y1="602.52" x2="230.66" y2="403.22"/><line class="cls-24" x1="142.42" y1="602.52" x2="142.42" y2="403.22"/><g class="cls-32"><path class="cls-30" d="M148.37,372.98c-2.17,.88-4.89,1.94-7.27,1.94-1.29,0-2.57-.29-3.81-.67-1.47-.46-2.52-.88-3.22-1.16v-1.08c.8,.26,1.91,.62,3.47,.96,1.5,.34,2.52,.46,3.53,.46,2.32,0,4.2-.57,7.3-1.52v1.06Z"/><path class="cls-30" d="M136.83,366.24c.59,.7,1.26,1.83,1.63,2.63h-1.63c-.56-1.06-1.24-2.11-1.78-2.75v-1.45h11.31v1.57h-9.53Z"/><path class="cls-30" d="M143.68,359.21c1.14-.03,1.6-1.03,1.6-1.88,0-1.98-1.86-2.24-2.6-2.24-1.54,0-2.43,.83-2.43,2.14,0,.65,.24,1.18,.59,1.52s.69,.44,.95,.52v1.49l-6.73-.29v-6.36h1.32v4.95l3.66,.21c-.34-.34-1.05-1.06-1.05-2.39,0-2.27,1.78-3.38,3.73-3.38,2.22,0,3.91,1.57,3.91,4.04,0,1.83-1.01,3.29-2.94,3.37v-1.7Z"/><path class="cls-30" d="M134.82,348.22c0-3.38,3.63-3.79,5.75-3.79,2.68,0,4.18,.54,5.15,1.57,.75,.8,.87,1.75,.87,2.26,0,1.5-.88,2.53-1.88,3.02-.75,.38-1.85,.74-3.87,.74-1.68,0-6.01-.2-6.01-3.79Zm10.41,.02c0-1.9-2.48-2.22-4.51-2.22-2.71,0-4.59,.48-4.59,2.19,0,1.98,2.6,2.24,4.62,2.24,2.52,0,4.48-.49,4.48-2.21Z"/><path class="cls-30" d="M143.68,341.02c1.14-.03,1.6-1.03,1.6-1.88,0-1.98-1.86-2.24-2.6-2.24-1.54,0-2.43,.83-2.43,2.14,0,.65,.24,1.18,.59,1.52s.69,.44,.95,.52v1.49l-6.73-.29v-6.36h1.32v4.95l3.66,.21c-.34-.34-1.05-1.06-1.05-2.39,0-2.27,1.78-3.38,3.73-3.38,2.22,0,3.91,1.57,3.91,4.04,0,1.83-1.01,3.29-2.94,3.37v-1.7Z"/><path class="cls-30" d="M144.4,330.8l4.02,1.83v1.11l-4.02-1.05v-1.89Z"/><path class="cls-30" d="M136.83,321.02c.59,.7,1.26,1.83,1.63,2.63h-1.63c-.56-1.06-1.24-2.11-1.78-2.75v-1.45h11.31v1.57h-9.53Z"/><path class="cls-30" d="M143.68,313.99c1.14-.03,1.6-1.03,1.6-1.88,0-1.98-1.86-2.24-2.6-2.24-1.54,0-2.43,.83-2.43,2.14,0,.65,.24,1.18,.59,1.52s.69,.44,.95,.52v1.49l-6.73-.29v-6.36h1.32v4.95l3.66,.21c-.34-.34-1.05-1.06-1.05-2.39,0-2.27,1.78-3.38,3.73-3.38,2.22,0,3.91,1.57,3.91,4.04,0,1.83-1.01,3.29-2.94,3.37v-1.7Z"/><path class="cls-30" d="M143.91,301.95v5.1h-1.95l-7.06-4.9v-1.77h7.68v-1.65h1.32v1.65h2.45v1.57h-2.45Zm-1.32-.05h-5.97l5.97,3.91v-3.91Z"/><path class="cls-30" d="M143.68,295.81c1.14-.03,1.6-1.03,1.6-1.88,0-1.98-1.86-2.24-2.6-2.24-1.54,0-2.43,.83-2.43,2.14,0,.65,.24,1.18,.59,1.52s.69,.44,.95,.52v1.49l-6.73-.29v-6.36h1.32v4.95l3.66,.21c-.34-.34-1.05-1.06-1.05-2.39,0-2.27,1.78-3.38,3.73-3.38,2.22,0,3.91,1.57,3.91,4.04,0,1.83-1.01,3.29-2.94,3.37v-1.7Z"/><path class="cls-30" d="M147.54,288.35v-1.55h-12.57v1.55h-.87v-2.84h14.3v2.84h-.87Z"/></g><g class="cls-32"><path class="cls-30" d="M236.14,372.3c-2.17,.88-4.89,1.94-7.27,1.94-1.29,0-2.57-.29-3.81-.67-1.47-.46-2.52-.88-3.22-1.16v-1.08c.8,.26,1.91,.62,3.47,.96,1.5,.34,2.52,.46,3.53,.46,2.32,0,4.2-.57,7.3-1.52v1.06Z"/><path class="cls-30" d="M224.61,365.56c.59,.7,1.26,1.83,1.63,2.63h-1.63c-.56-1.06-1.24-2.11-1.78-2.75v-1.45h11.31v1.57h-9.53Z"/><path class="cls-30" d="M231.45,358.53c1.14-.03,1.6-1.03,1.6-1.88,0-1.98-1.86-2.24-2.6-2.24-1.54,0-2.43,.83-2.43,2.14,0,.65,.24,1.18,.59,1.52s.69,.44,.95,.52v1.49l-6.73-.29v-6.36h1.32v4.95l3.66,.21c-.34-.34-1.05-1.06-1.05-2.39,0-2.27,1.78-3.38,3.73-3.38,2.22,0,3.91,1.57,3.91,4.04,0,1.83-1.01,3.29-2.94,3.37v-1.7Z"/><path class="cls-30" d="M231.68,346.49v5.1h-1.95l-7.06-4.9v-1.77h7.68v-1.65h1.32v1.65h2.45v1.57h-2.45Zm-1.32-.05h-5.97l5.97,3.91v-3.91Z"/><path class="cls-30" d="M231.45,340.34c1.14-.03,1.6-1.03,1.6-1.88,0-1.98-1.86-2.24-2.6-2.24-1.54,0-2.43,.83-2.43,2.14,0,.65,.24,1.18,.59,1.52s.69,.44,.95,.52v1.49l-6.73-.29v-6.36h1.32v4.95l3.66,.21c-.34-.34-1.05-1.06-1.05-2.39,0-2.27,1.78-3.38,3.73-3.38,2.22,0,3.91,1.57,3.91,4.04,0,1.83-1.01,3.29-2.94,3.37v-1.7Z"/><path class="cls-30" d="M232.17,330.13l4.02,1.83v1.11l-4.02-1.05v-1.89Z"/><path class="cls-30" d="M224.61,320.35c.59,.7,1.26,1.83,1.63,2.63h-1.63c-.56-1.06-1.24-2.11-1.78-2.75v-1.45h11.31v1.57h-9.53Z"/><path class="cls-30" d="M231.45,313.31c1.14-.03,1.6-1.03,1.6-1.88,0-1.98-1.86-2.24-2.6-2.24-1.54,0-2.43,.83-2.43,2.14,0,.65,.24,1.18,.59,1.52s.69,.44,.95,.52v1.49l-6.73-.29v-6.36h1.32v4.95l3.66,.21c-.34-.34-1.05-1.06-1.05-2.39,0-2.27,1.78-3.38,3.73-3.38,2.22,0,3.91,1.57,3.91,4.04,0,1.83-1.01,3.29-2.94,3.37v-1.7Z"/><path class="cls-30" d="M225.65,306c-1.01,0-3.09-.69-3.09-3.66,0-2.39,1.29-3.76,3.02-3.76,1.11,0,2.27,.72,2.57,2.3,.18-.67,.67-2.47,2.86-2.47,1.55,0,3.32,1.08,3.32,3.89,0,.96-.2,2.11-.95,2.92-.56,.61-1.41,1-2.27,1-.75,0-1.54-.29-2.08-.87-.54-.54-.7-1.13-.87-1.63-.33,1.5-1.39,2.27-2.52,2.27Zm-1.88-3.73c0,1.21,.72,2.14,1.85,2.14s1.83-.91,1.83-2.09c0-1.24-.72-2.17-1.83-2.17-1.03,0-1.85,.77-1.85,2.13Zm9.27,.03c0-1.81-1.27-2.26-2.13-2.26-1.26,0-2.07,.93-2.07,2.22,0,1.39,.93,2.3,2.12,2.3,.88,0,2.08-.59,2.08-2.27Z"/><path class="cls-30" d="M231.45,295.13c1.14-.03,1.6-1.03,1.6-1.88,0-1.98-1.86-2.24-2.6-2.24-1.54,0-2.43,.83-2.43,2.14,0,.65,.24,1.18,.59,1.52s.69,.44,.95,.52v1.49l-6.73-.29v-6.36h1.32v4.95l3.66,.21c-.34-.34-1.05-1.06-1.05-2.39,0-2.27,1.78-3.38,3.73-3.38,2.22,0,3.91,1.57,3.91,4.04,0,1.83-1.01,3.29-2.94,3.37v-1.7Z"/><path class="cls-30" d="M235.31,287.67v-1.55h-12.57v1.55h-.87v-2.84h14.3v2.84h-.87Z"/></g><g class="cls-32"><path class="cls-30" d="M323.91,372.3c-2.17,.88-4.89,1.94-7.27,1.94-1.29,0-2.57-.29-3.81-.67-1.47-.46-2.52-.88-3.22-1.16v-1.08c.8,.26,1.91,.62,3.46,.96,1.5,.34,2.52,.46,3.53,.46,2.32,0,4.2-.57,7.31-1.52v1.06Z"/><path class="cls-30" d="M312.38,365.56c.59,.7,1.26,1.83,1.63,2.63h-1.63c-.55-1.06-1.24-2.11-1.78-2.75v-1.45h11.31v1.57h-9.53Z"/><path class="cls-30" d="M313.28,354.49c-1.32,.02-1.68,1-1.68,1.72,0,1.63,1.41,2.35,4.41,2.5-.52-.36-1.44-.98-1.44-2.63,0-1.85,1.23-3.42,3.63-3.42,2.63,0,3.95,1.88,3.95,3.82,0,1.1-.44,2.19-1.23,2.79-1.11,.83-2.73,1.03-4.17,1.03-2.47,0-6.39-.61-6.39-4.18,0-1.49,.65-2.32,1.08-2.71,.67-.57,1.39-.59,1.83-.6v1.68Zm5.07-.26c-.8,0-2.52,.23-2.52,2.11,0,1.52,1.24,2.26,2.53,2.26,1.47,0,2.55-.92,2.55-2.17,0-1.01-.72-2.19-2.57-2.19Z"/><path class="cls-30" d="M320.42,351.18l-2.91-2.96c-.61-.62-1.26-1.24-1.95-1.75-.9-.65-1.41-.83-2.01-.83-.56,0-1.85,.2-1.85,1.81,0,1.81,1.55,1.85,1.98,1.85v1.72c-.56-.02-1.63-.07-2.48-1.05-.67-.78-.82-1.73-.82-2.45,0-1.73,.88-3.5,3.3-3.5,.72,0,1.27,.05,2.83,1.27,.41,.33,1.9,1.76,2.22,2.09l1.88,1.98v-5.38h1.29v7.19h-1.49Z"/><path class="cls-30" d="M319.22,340.34c1.14-.03,1.6-1.03,1.6-1.88,0-1.98-1.86-2.24-2.6-2.24-1.54,0-2.44,.83-2.44,2.14,0,.65,.24,1.18,.59,1.52s.69,.44,.95,.52v1.49l-6.73-.29v-6.36h1.32v4.95l3.66,.21c-.34-.34-1.05-1.06-1.05-2.39,0-2.27,1.78-3.38,3.73-3.38,2.22,0,3.91,1.57,3.91,4.04,0,1.83-1.01,3.29-2.94,3.37v-1.7Z"/><path class="cls-30" d="M319.94,330.13l4.02,1.83v1.11l-4.02-1.05v-1.89Z"/><path class="cls-30" d="M312.38,320.35c.59,.7,1.26,1.83,1.63,2.63h-1.63c-.55-1.06-1.24-2.11-1.78-2.75v-1.45h11.31v1.57h-9.53Z"/><path class="cls-30" d="M313.28,309.28c-1.32,.02-1.68,1-1.68,1.72,0,1.63,1.41,2.35,4.41,2.5-.52-.36-1.44-.98-1.44-2.63,0-1.85,1.23-3.42,3.63-3.42,2.63,0,3.95,1.88,3.95,3.82,0,1.1-.44,2.19-1.23,2.79-1.11,.83-2.73,1.03-4.17,1.03-2.47,0-6.39-.61-6.39-4.18,0-1.49,.65-2.32,1.08-2.71,.67-.57,1.39-.59,1.83-.6v1.68Zm5.07-.26c-.8,0-2.52,.23-2.52,2.11,0,1.52,1.24,2.26,2.53,2.26,1.47,0,2.55-.92,2.55-2.17,0-1.01-.72-2.19-2.57-2.19Z"/><path class="cls-30" d="M313.28,300.18c-1.32,.02-1.68,1-1.68,1.72,0,1.63,1.41,2.35,4.41,2.5-.52-.36-1.44-.98-1.44-2.63,0-1.85,1.23-3.42,3.63-3.42,2.63,0,3.95,1.88,3.95,3.82,0,1.1-.44,2.19-1.23,2.79-1.11,.83-2.73,1.03-4.17,1.03-2.47,0-6.39-.61-6.39-4.18,0-1.49,.65-2.32,1.08-2.71,.67-.57,1.39-.59,1.83-.6v1.68Zm5.07-.26c-.8,0-2.52,.23-2.52,2.11,0,1.52,1.24,2.26,2.53,2.26,1.47,0,2.55-.92,2.55-2.17,0-1.01-.72-2.19-2.57-2.19Z"/><path class="cls-30" d="M319.22,295.13c1.14-.03,1.6-1.03,1.6-1.88,0-1.98-1.86-2.24-2.6-2.24-1.54,0-2.44,.83-2.44,2.14,0,.65,.24,1.18,.59,1.52s.69,.44,.95,.52v1.49l-6.73-.29v-6.36h1.32v4.95l3.66,.21c-.34-.34-1.05-1.06-1.05-2.39,0-2.27,1.78-3.38,3.73-3.38,2.22,0,3.91,1.57,3.91,4.04,0,1.83-1.01,3.29-2.94,3.37v-1.7Z"/><path class="cls-30" d="M323.08,287.67v-1.55h-12.57v1.55h-.87v-2.84h14.3v2.84h-.86Z"/></g><g class="cls-32"><path class="cls-30" d="M411.69,372.3c-2.17,.88-4.89,1.94-7.27,1.94-1.29,0-2.57-.29-3.81-.67-1.47-.46-2.52-.88-3.22-1.16v-1.08c.8,.26,1.91,.62,3.47,.96,1.5,.34,2.52,.46,3.53,.46,2.32,0,4.2-.57,7.3-1.52v1.06Z"/><path class="cls-30" d="M400.15,365.56c.59,.7,1.26,1.83,1.63,2.63h-1.63c-.56-1.06-1.24-2.11-1.78-2.75v-1.45h11.31v1.57h-9.53Z"/><path class="cls-30" d="M401.05,354.49c-1.32,.02-1.68,1-1.68,1.72,0,1.63,1.41,2.35,4.41,2.5-.52-.36-1.44-.98-1.44-2.63,0-1.85,1.23-3.42,3.63-3.42,2.63,0,3.95,1.88,3.95,3.82,0,1.1-.44,2.19-1.23,2.79-1.11,.83-2.73,1.03-4.17,1.03-2.47,0-6.39-.61-6.39-4.18,0-1.49,.65-2.32,1.08-2.71,.67-.57,1.39-.59,1.83-.6v1.68Zm5.07-.26c-.8,0-2.52,.23-2.52,2.11,0,1.52,1.24,2.26,2.53,2.26,1.47,0,2.55-.92,2.55-2.17,0-1.01-.72-2.19-2.57-2.19Z"/><path class="cls-30" d="M401.05,345.4c-1.32,.02-1.68,1-1.68,1.72,0,1.63,1.41,2.35,4.41,2.5-.52-.36-1.44-.98-1.44-2.63,0-1.85,1.23-3.42,3.63-3.42,2.63,0,3.95,1.88,3.95,3.82,0,1.1-.44,2.19-1.23,2.79-1.11,.83-2.73,1.03-4.17,1.03-2.47,0-6.39-.61-6.39-4.18,0-1.49,.65-2.32,1.08-2.71,.67-.57,1.39-.59,1.83-.6v1.68Zm5.07-.26c-.8,0-2.52,.23-2.52,2.11,0,1.52,1.24,2.26,2.53,2.26,1.47,0,2.55-.92,2.55-2.17,0-1.01-.72-2.19-2.57-2.19Z"/><path class="cls-30" d="M407,340.34c1.14-.03,1.6-1.03,1.6-1.88,0-1.98-1.86-2.24-2.6-2.24-1.54,0-2.43,.83-2.43,2.14,0,.65,.24,1.18,.59,1.52s.69,.44,.95,.52v1.49l-6.73-.29v-6.36h1.32v4.95l3.66,.21c-.34-.34-1.05-1.06-1.05-2.39,0-2.27,1.78-3.38,3.73-3.38,2.22,0,3.91,1.57,3.91,4.04,0,1.83-1.01,3.29-2.94,3.37v-1.7Z"/><path class="cls-30" d="M407.71,330.13l4.02,1.83v1.11l-4.02-1.05v-1.89Z"/><path class="cls-30" d="M400.15,320.35c.59,.7,1.26,1.83,1.63,2.63h-1.63c-.56-1.06-1.24-2.11-1.78-2.75v-1.45h11.31v1.57h-9.53Z"/><path class="cls-30" d="M398.37,315.35v-7.47h1.37l9.94,4.15v1.85l-9.95-4.35v5.82h-1.36Z"/><path class="cls-30" d="M398.14,302.32c0-3.38,3.63-3.79,5.75-3.79,2.68,0,4.18,.54,5.15,1.57,.75,.8,.87,1.75,.87,2.26,0,1.5-.88,2.53-1.88,3.02-.75,.38-1.85,.74-3.87,.74-1.68,0-6.01-.2-6.01-3.79Zm10.41,.02c0-1.9-2.48-2.22-4.51-2.22-2.71,0-4.59,.48-4.59,2.19,0,1.98,2.6,2.24,4.62,2.24,2.52,0,4.48-.49,4.48-2.21Z"/><path class="cls-30" d="M407,295.13c1.14-.03,1.6-1.03,1.6-1.88,0-1.98-1.86-2.24-2.6-2.24-1.54,0-2.43,.83-2.43,2.14,0,.65,.24,1.18,.59,1.52s.69,.44,.95,.52v1.49l-6.73-.29v-6.36h1.32v4.95l3.66,.21c-.34-.34-1.05-1.06-1.05-2.39,0-2.27,1.78-3.38,3.73-3.38,2.22,0,3.91,1.57,3.91,4.04,0,1.83-1.01,3.29-2.94,3.37v-1.7Z"/><path class="cls-30" d="M410.85,287.67v-1.55h-12.57v1.55h-.87v-2.84h14.3v2.84h-.87Z"/></g><g class="cls-32"><path class="cls-30" d="M499.46,372.3c-2.17,.88-4.89,1.94-7.27,1.94-1.29,0-2.57-.29-3.81-.67-1.47-.46-2.52-.88-3.22-1.16v-1.08c.8,.26,1.91,.62,3.47,.96,1.5,.34,2.52,.46,3.53,.46,2.32,0,4.2-.57,7.3-1.52v1.06Z"/><path class="cls-30" d="M487.92,365.56c.59,.7,1.26,1.83,1.63,2.63h-1.63c-.56-1.06-1.24-2.11-1.78-2.75v-1.45h11.31v1.57h-9.53Z"/><path class="cls-30" d="M486.14,360.57v-7.47h1.37l9.94,4.15v1.85l-9.95-4.35v5.82h-1.36Z"/><path class="cls-30" d="M485.91,347.54c0-3.38,3.63-3.79,5.75-3.79,2.68,0,4.18,.54,5.15,1.57,.75,.8,.87,1.75,.87,2.26,0,1.5-.88,2.53-1.88,3.02-.75,.38-1.85,.74-3.87,.74-1.68,0-6.01-.2-6.01-3.79Zm10.41,.02c0-1.9-2.48-2.22-4.51-2.22-2.71,0-4.59,.48-4.59,2.19,0,1.98,2.6,2.24,4.62,2.24,2.52,0,4.48-.49,4.48-2.21Z"/><path class="cls-30" d="M494.77,340.34c1.14-.03,1.6-1.03,1.6-1.88,0-1.98-1.86-2.24-2.6-2.24-1.54,0-2.43,.83-2.43,2.14,0,.65,.24,1.18,.59,1.52s.69,.44,.95,.52v1.49l-6.73-.29v-6.36h1.32v4.95l3.66,.21c-.34-.34-1.05-1.06-1.05-2.39,0-2.27,1.78-3.38,3.73-3.38,2.22,0,3.91,1.57,3.91,4.04,0,1.83-1.01,3.29-2.94,3.37v-1.7Z"/><path class="cls-30" d="M495.49,330.13l4.02,1.83v1.11l-4.02-1.05v-1.89Z"/><path class="cls-30" d="M487.92,320.35c.59,.7,1.26,1.83,1.63,2.63h-1.63c-.56-1.06-1.24-2.11-1.78-2.75v-1.45h11.31v1.57h-9.53Z"/><path class="cls-30" d="M486.14,315.35v-7.47h1.37l9.94,4.15v1.85l-9.95-4.35v5.82h-1.36Z"/><path class="cls-30" d="M495,302.18v5.1h-1.95l-7.06-4.9v-1.77h7.68v-1.65h1.32v1.65h2.45v1.57h-2.45Zm-1.32-.05h-5.97l5.97,3.91v-3.91Z"/><path class="cls-30" d="M494.77,296.03c1.14-.03,1.6-1.03,1.6-1.88,0-1.98-1.86-2.24-2.6-2.24-1.54,0-2.43,.83-2.43,2.14,0,.65,.24,1.18,.59,1.52s.69,.44,.95,.52v1.49l-6.73-.29v-6.36h1.32v4.95l3.66,.21c-.34-.34-1.05-1.06-1.05-2.39,0-2.27,1.78-3.38,3.73-3.38,2.22,0,3.91,1.57,3.91,4.04,0,1.83-1.01,3.29-2.94,3.37v-1.7Z"/><path class="cls-30" d="M498.62,288.57v-1.55h-12.57v1.55h-.87v-2.84h14.3v2.84h-.87Z"/></g><g class="cls-32"><path class="cls-30" d="M587.23,372.3c-2.17,.88-4.89,1.94-7.27,1.94-1.29,0-2.57-.29-3.81-.67-1.47-.46-2.52-.88-3.22-1.16v-1.08c.8,.26,1.91,.62,3.47,.96,1.5,.34,2.52,.46,3.53,.46,2.32,0,4.2-.57,7.3-1.52v1.06Z"/><path class="cls-30" d="M575.69,365.56c.59,.7,1.26,1.83,1.63,2.63h-1.63c-.56-1.06-1.24-2.11-1.78-2.75v-1.45h11.31v1.57h-9.53Z"/><path class="cls-30" d="M573.91,360.57v-7.47h1.37l9.94,4.15v1.85l-9.95-4.35v5.82h-1.36Z"/><path class="cls-30" d="M582.77,347.39v5.1h-1.95l-7.06-4.9v-1.77h7.68v-1.65h1.32v1.65h2.45v1.57h-2.45Zm-1.32-.05h-5.97l5.97,3.91v-3.91Z"/><path class="cls-30" d="M582.54,341.24c1.14-.03,1.6-1.03,1.6-1.88,0-1.98-1.86-2.24-2.6-2.24-1.54,0-2.43,.83-2.43,2.14,0,.65,.24,1.18,.59,1.52s.69,.44,.95,.52v1.49l-6.73-.29v-6.36h1.32v4.95l3.66,.21c-.34-.34-1.05-1.06-1.05-2.39,0-2.27,1.78-3.38,3.73-3.38,2.22,0,3.91,1.57,3.91,4.04,0,1.83-1.01,3.29-2.94,3.37v-1.7Z"/><path class="cls-30" d="M583.26,331.02l4.02,1.83v1.11l-4.02-1.05v-1.89Z"/><path class="cls-30" d="M575.69,321.25c.59,.7,1.26,1.83,1.63,2.63h-1.63c-.56-1.06-1.24-2.11-1.78-2.75v-1.45h11.31v1.57h-9.53Z"/><path class="cls-30" d="M573.91,316.25v-7.47h1.37l9.94,4.15v1.85l-9.95-4.35v5.82h-1.36Z"/><path class="cls-30" d="M576.74,306.9c-1.01,0-3.09-.69-3.09-3.66,0-2.39,1.29-3.76,3.02-3.76,1.11,0,2.27,.72,2.57,2.3,.18-.67,.67-2.47,2.86-2.47,1.55,0,3.32,1.08,3.32,3.89,0,.96-.2,2.11-.95,2.92-.56,.61-1.41,1-2.27,1-.75,0-1.54-.29-2.08-.87-.54-.54-.7-1.13-.87-1.63-.33,1.5-1.39,2.27-2.52,2.27Zm-1.88-3.73c0,1.21,.72,2.14,1.85,2.14s1.83-.91,1.83-2.09c0-1.24-.72-2.17-1.83-2.17-1.03,0-1.85,.77-1.85,2.13Zm9.27,.03c0-1.81-1.27-2.26-2.13-2.26-1.26,0-2.07,.93-2.07,2.22,0,1.39,.93,2.3,2.12,2.3,.88,0,2.08-.59,2.08-2.27Z"/><path class="cls-30" d="M582.54,296.03c1.14-.03,1.6-1.03,1.6-1.88,0-1.98-1.86-2.24-2.6-2.24-1.54,0-2.43,.83-2.43,2.14,0,.65,.24,1.18,.59,1.52s.69,.44,.95,.52v1.49l-6.73-.29v-6.36h1.32v4.95l3.66,.21c-.34-.34-1.05-1.06-1.05-2.39,0-2.27,1.78-3.38,3.73-3.38,2.22,0,3.91,1.57,3.91,4.04,0,1.83-1.01,3.29-2.94,3.37v-1.7Z"/><path class="cls-30" d="M586.39,288.57v-1.55h-12.57v1.55h-.87v-2.84h14.3v2.84h-.87Z"/></g><g class="cls-32"><path class="cls-30" d="M675,372.3c-2.17,.88-4.89,1.94-7.27,1.94-1.29,0-2.57-.29-3.81-.67-1.47-.46-2.52-.88-3.22-1.16v-1.08c.8,.26,1.91,.62,3.46,.96,1.5,.34,2.52,.46,3.53,.46,2.32,0,4.2-.57,7.31-1.52v1.06Z"/><path class="cls-30" d="M663.46,365.56c.59,.7,1.26,1.83,1.63,2.63h-1.63c-.55-1.06-1.24-2.11-1.78-2.75v-1.45h11.31v1.57h-9.53Z"/><path class="cls-30" d="M661.68,360.57v-7.47h1.37l9.94,4.15v1.85l-9.95-4.35v5.82h-1.36Z"/><path class="cls-30" d="M664.51,351.22c-1.01,0-3.09-.69-3.09-3.66,0-2.39,1.29-3.76,3.02-3.76,1.11,0,2.27,.72,2.57,2.3,.18-.67,.67-2.47,2.86-2.47,1.55,0,3.32,1.08,3.32,3.89,0,.96-.2,2.11-.95,2.92-.55,.61-1.41,1-2.27,1-.75,0-1.54-.29-2.07-.87-.54-.54-.7-1.13-.87-1.63-.33,1.5-1.39,2.27-2.52,2.27Zm-1.88-3.73c0,1.21,.72,2.14,1.85,2.14s1.83-.91,1.83-2.09c0-1.24-.72-2.17-1.83-2.17-1.03,0-1.85,.77-1.85,2.13Zm9.27,.03c0-1.81-1.27-2.26-2.12-2.26-1.26,0-2.08,.93-2.08,2.22,0,1.39,.93,2.3,2.13,2.3,.88,0,2.07-.59,2.07-2.27Z"/><path class="cls-30" d="M670.31,340.34c1.14-.03,1.6-1.03,1.6-1.88,0-1.98-1.86-2.24-2.6-2.24-1.54,0-2.44,.83-2.44,2.14,0,.65,.24,1.18,.59,1.52s.69,.44,.95,.52v1.49l-6.73-.29v-6.36h1.32v4.95l3.66,.21c-.34-.34-1.05-1.06-1.05-2.39,0-2.27,1.78-3.38,3.73-3.38,2.22,0,3.91,1.57,3.91,4.04,0,1.83-1.01,3.29-2.94,3.37v-1.7Z"/><path class="cls-30" d="M671.03,330.13l4.02,1.83v1.11l-4.02-1.05v-1.89Z"/><path class="cls-30" d="M663.46,320.35c.59,.7,1.26,1.83,1.63,2.63h-1.63c-.55-1.06-1.24-2.11-1.78-2.75v-1.45h11.31v1.57h-9.53Z"/><path class="cls-30" d="M664.51,315.09c-1.01,0-3.09-.69-3.09-3.66,0-2.39,1.29-3.76,3.02-3.76,1.11,0,2.27,.72,2.57,2.3,.18-.67,.67-2.47,2.86-2.47,1.55,0,3.32,1.08,3.32,3.89,0,.96-.2,2.11-.95,2.92-.55,.61-1.41,1-2.27,1-.75,0-1.54-.29-2.07-.87-.54-.54-.7-1.13-.87-1.63-.33,1.5-1.39,2.27-2.52,2.27Zm-1.88-3.73c0,1.21,.72,2.14,1.85,2.14s1.83-.91,1.83-2.09c0-1.24-.72-2.17-1.83-2.17-1.03,0-1.85,.77-1.85,2.13Zm9.27,.03c0-1.81-1.27-2.26-2.12-2.26-1.26,0-2.08,.93-2.08,2.22,0,1.39,.93,2.3,2.13,2.3,.88,0,2.07-.59,2.07-2.27Z"/><path class="cls-30" d="M671.5,305.97l-2.91-2.96c-.61-.62-1.26-1.24-1.95-1.75-.9-.65-1.41-.83-2.01-.83-.56,0-1.85,.2-1.85,1.81,0,1.81,1.55,1.85,1.98,1.85v1.72c-.56-.02-1.63-.07-2.48-1.05-.67-.78-.82-1.73-.82-2.45,0-1.73,.88-3.5,3.3-3.5,.72,0,1.27,.05,2.83,1.27,.41,.33,1.9,1.76,2.22,2.09l1.88,1.98v-5.38h1.29v7.19h-1.49Z"/><path class="cls-30" d="M670.31,295.13c1.14-.03,1.6-1.03,1.6-1.88,0-1.98-1.86-2.24-2.6-2.24-1.54,0-2.44,.83-2.44,2.14,0,.65,.24,1.18,.59,1.52s.69,.44,.95,.52v1.49l-6.73-.29v-6.36h1.32v4.95l3.66,.21c-.34-.34-1.05-1.06-1.05-2.39,0-2.27,1.78-3.38,3.73-3.38,2.22,0,3.91,1.57,3.91,4.04,0,1.83-1.01,3.29-2.94,3.37v-1.7Z"/><path class="cls-30" d="M674.17,287.67v-1.55h-12.57v1.55h-.87v-2.84h14.3v2.84h-.86Z"/></g><g class="cls-32"><path class="cls-30" d="M762.77,372.3c-2.17,.88-4.89,1.94-7.27,1.94-1.29,0-2.57-.29-3.81-.67-1.47-.46-2.52-.88-3.22-1.16v-1.08c.8,.26,1.91,.62,3.46,.96,1.5,.34,2.52,.46,3.53,.46,2.32,0,4.2-.57,7.31-1.52v1.06Z"/><path class="cls-30" d="M751.23,365.56c.59,.7,1.26,1.83,1.63,2.63h-1.63c-.55-1.06-1.24-2.11-1.78-2.75v-1.45h11.31v1.57h-9.53Z"/><path class="cls-30" d="M752.28,360.31c-1.01,0-3.09-.69-3.09-3.66,0-2.39,1.29-3.76,3.02-3.76,1.11,0,2.27,.72,2.57,2.3,.18-.67,.67-2.47,2.86-2.47,1.55,0,3.32,1.08,3.32,3.89,0,.96-.2,2.11-.95,2.92-.55,.61-1.41,1-2.27,1-.75,0-1.54-.29-2.07-.87-.54-.54-.7-1.13-.87-1.63-.33,1.5-1.39,2.27-2.52,2.27Zm-1.88-3.73c0,1.21,.72,2.14,1.85,2.14s1.83-.91,1.83-2.09c0-1.24-.72-2.17-1.83-2.17-1.03,0-1.85,.77-1.85,2.13Zm9.27,.03c0-1.81-1.27-2.26-2.12-2.26-1.26,0-2.08,.93-2.08,2.22,0,1.39,.93,2.3,2.13,2.3,.88,0,2.07-.59,2.07-2.27Z"/><path class="cls-30" d="M759.27,351.18l-2.91-2.96c-.61-.62-1.26-1.24-1.95-1.75-.9-.65-1.41-.83-2.01-.83-.56,0-1.85,.2-1.85,1.81,0,1.81,1.55,1.85,1.98,1.85v1.72c-.56-.02-1.63-.07-2.48-1.05-.67-.78-.82-1.73-.82-2.45,0-1.73,.88-3.5,3.3-3.5,.72,0,1.27,.05,2.83,1.27,.41,.33,1.9,1.76,2.22,2.09l1.88,1.98v-5.38h1.29v7.19h-1.49Z"/><path class="cls-30" d="M758.08,340.34c1.14-.03,1.6-1.03,1.6-1.88,0-1.98-1.86-2.24-2.6-2.24-1.54,0-2.44,.83-2.44,2.14,0,.65,.24,1.18,.59,1.52s.69,.44,.95,.52v1.49l-6.73-.29v-6.36h1.32v4.95l3.66,.21c-.34-.34-1.05-1.06-1.05-2.39,0-2.27,1.78-3.38,3.73-3.38,2.22,0,3.91,1.57,3.91,4.04,0,1.83-1.01,3.29-2.94,3.37v-1.7Z"/><path class="cls-30" d="M758.8,330.13l4.02,1.83v1.11l-4.02-1.05v-1.89Z"/><path class="cls-30" d="M751.23,320.35c.59,.7,1.26,1.83,1.63,2.63h-1.63c-.55-1.06-1.24-2.11-1.78-2.75v-1.45h11.31v1.57h-9.53Z"/><path class="cls-30" d="M752.28,315.09c-1.01,0-3.09-.69-3.09-3.66,0-2.39,1.29-3.76,3.02-3.76,1.11,0,2.27,.72,2.57,2.3,.18-.67,.67-2.47,2.86-2.47,1.55,0,3.32,1.08,3.32,3.89,0,.96-.2,2.11-.95,2.92-.55,.61-1.41,1-2.27,1-.75,0-1.54-.29-2.07-.87-.54-.54-.7-1.13-.87-1.63-.33,1.5-1.39,2.27-2.52,2.27Zm-1.88-3.73c0,1.21,.72,2.14,1.85,2.14s1.83-.91,1.83-2.09c0-1.24-.72-2.17-1.83-2.17-1.03,0-1.85,.77-1.85,2.13Zm9.27,.03c0-1.81-1.27-2.26-2.12-2.26-1.26,0-2.08,.93-2.08,2.22,0,1.39,.93,2.3,2.13,2.3,.88,0,2.07-.59,2.07-2.27Z"/><path class="cls-30" d="M752.13,300.18c-1.32,.02-1.68,1-1.68,1.72,0,1.63,1.41,2.35,4.41,2.5-.52-.36-1.44-.98-1.44-2.63,0-1.85,1.23-3.42,3.63-3.42,2.63,0,3.95,1.88,3.95,3.82,0,1.1-.44,2.19-1.23,2.79-1.11,.83-2.73,1.03-4.17,1.03-2.47,0-6.39-.61-6.39-4.18,0-1.49,.65-2.32,1.08-2.71,.67-.57,1.39-.59,1.83-.6v1.68Zm5.07-.26c-.8,0-2.52,.23-2.52,2.11,0,1.52,1.24,2.26,2.53,2.26,1.47,0,2.55-.92,2.55-2.17,0-1.01-.72-2.19-2.57-2.19Z"/><path class="cls-30" d="M758.08,295.13c1.14-.03,1.6-1.03,1.6-1.88,0-1.98-1.86-2.24-2.6-2.24-1.54,0-2.44,.83-2.44,2.14,0,.65,.24,1.18,.59,1.52s.69,.44,.95,.52v1.49l-6.73-.29v-6.36h1.32v4.95l3.66,.21c-.34-.34-1.05-1.06-1.05-2.39,0-2.27,1.78-3.38,3.73-3.38,2.22,0,3.91,1.57,3.91,4.04,0,1.83-1.01,3.29-2.94,3.37v-1.7Z"/><path class="cls-30" d="M761.94,287.67v-1.55h-12.57v1.55h-.87v-2.84h14.3v2.84h-.86Z"/></g><g class="cls-32"><path class="cls-30" d="M850.54,372.3c-2.17,.88-4.89,1.94-7.27,1.94-1.29,0-2.57-.29-3.81-.67-1.47-.46-2.52-.88-3.22-1.16v-1.08c.8,.26,1.91,.62,3.47,.96,1.5,.34,2.52,.46,3.53,.46,2.32,0,4.2-.57,7.3-1.52v1.06Z"/><path class="cls-30" d="M839,365.56c.59,.7,1.26,1.83,1.63,2.63h-1.63c-.56-1.06-1.24-2.11-1.78-2.75v-1.45h11.31v1.57h-9.53Z"/><path class="cls-30" d="M840.05,360.31c-1.01,0-3.09-.69-3.09-3.66,0-2.39,1.29-3.76,3.02-3.76,1.11,0,2.27,.72,2.57,2.3,.18-.67,.67-2.47,2.86-2.47,1.55,0,3.32,1.08,3.32,3.89,0,.96-.2,2.11-.95,2.92-.56,.61-1.41,1-2.27,1-.75,0-1.54-.29-2.08-.87-.54-.54-.7-1.13-.87-1.63-.33,1.5-1.39,2.27-2.52,2.27Zm-1.88-3.73c0,1.21,.72,2.14,1.85,2.14s1.83-.91,1.83-2.09c0-1.24-.72-2.17-1.83-2.17-1.03,0-1.85,.77-1.85,2.13Zm9.27,.03c0-1.81-1.27-2.26-2.13-2.26-1.26,0-2.07,.93-2.07,2.22,0,1.39,.93,2.3,2.12,2.3,.88,0,2.08-.59,2.08-2.27Z"/><path class="cls-30" d="M839.9,345.4c-1.32,.02-1.68,1-1.68,1.72,0,1.63,1.41,2.35,4.41,2.5-.52-.36-1.44-.98-1.44-2.63,0-1.85,1.23-3.42,3.63-3.42,2.63,0,3.95,1.88,3.95,3.82,0,1.1-.44,2.19-1.23,2.79-1.11,.83-2.73,1.03-4.17,1.03-2.47,0-6.39-.61-6.39-4.18,0-1.49,.65-2.32,1.08-2.71,.67-.57,1.39-.59,1.83-.6v1.68Zm5.07-.26c-.8,0-2.52,.23-2.52,2.11,0,1.52,1.24,2.26,2.53,2.26,1.47,0,2.55-.92,2.55-2.17,0-1.01-.72-2.19-2.57-2.19Z"/><path class="cls-30" d="M845.85,340.34c1.14-.03,1.6-1.03,1.6-1.88,0-1.98-1.86-2.24-2.6-2.24-1.54,0-2.43,.83-2.43,2.14,0,.65,.24,1.18,.59,1.52s.69,.44,.95,.52v1.49l-6.73-.29v-6.36h1.32v4.95l3.66,.21c-.34-.34-1.05-1.06-1.05-2.39,0-2.27,1.78-3.38,3.73-3.38,2.22,0,3.91,1.57,3.91,4.04,0,1.83-1.01,3.29-2.94,3.37v-1.7Z"/><path class="cls-30" d="M846.57,330.13l4.02,1.83v1.11l-4.02-1.05v-1.89Z"/><path class="cls-30" d="M839,320.35c.59,.7,1.26,1.83,1.63,2.63h-1.63c-.56-1.06-1.24-2.11-1.78-2.75v-1.45h11.31v1.57h-9.53Z"/><path class="cls-30" d="M845.84,314.19c.98,0,1.67-.54,1.67-1.82,0-2.48-2.92-2.5-4.69-2.42,1.11,.59,1.42,1.65,1.42,2.53,0,1.8-1.21,3.45-3.58,3.45-2.6,0-3.64-1.85-3.64-3.63,0-1.21,.49-2.99,2.78-3.64,.69-.2,1.5-.33,3.04-.33,1.67,0,5.96,.02,5.96,4.17,0,1.54-.6,3.33-2.96,3.4v-1.72Zm-7.6-1.88c0,1.32,1.09,2.03,2.43,2.03,1.47,0,2.32-.9,2.32-2.14s-.95-2.06-2.3-2.06c-1.63,0-2.45,1.06-2.45,2.17Z"/><path class="cls-30" d="M836.99,303.06c0-3.38,3.63-3.79,5.75-3.79,2.68,0,4.18,.54,5.15,1.57,.75,.8,.87,1.75,.87,2.26,0,1.5-.88,2.53-1.88,3.02-.75,.38-1.85,.74-3.87,.74-1.68,0-6.01-.2-6.01-3.79Zm10.41,.02c0-1.9-2.48-2.22-4.51-2.22-2.71,0-4.59,.48-4.59,2.19,0,1.98,2.6,2.24,4.62,2.24,2.52,0,4.48-.49,4.48-2.21Z"/><path class="cls-30" d="M845.85,295.86c1.14-.03,1.6-1.03,1.6-1.88,0-1.98-1.86-2.24-2.6-2.24-1.54,0-2.43,.83-2.43,2.14,0,.65,.24,1.18,.59,1.52s.69,.44,.95,.52v1.49l-6.73-.29v-6.36h1.32v4.95l3.66,.21c-.34-.34-1.05-1.06-1.05-2.39,0-2.27,1.78-3.38,3.73-3.38,2.22,0,3.91,1.57,3.91,4.04,0,1.83-1.01,3.29-2.94,3.37v-1.7Z"/><path class="cls-30" d="M849.71,288.41v-1.55h-12.57v1.55h-.87v-2.84h14.3v2.84h-.87Z"/></g><g class="cls-32"><path class="cls-30" d="M938.31,372.3c-2.17,.88-4.89,1.94-7.27,1.94-1.29,0-2.57-.29-3.81-.67-1.47-.46-2.52-.88-3.22-1.16v-1.08c.8,.26,1.91,.62,3.47,.96,1.5,.34,2.52,.46,3.53,.46,2.32,0,4.2-.57,7.3-1.52v1.06Z"/><path class="cls-30" d="M926.78,365.56c.59,.7,1.26,1.83,1.63,2.63h-1.63c-.56-1.06-1.24-2.11-1.78-2.75v-1.45h11.31v1.57h-9.53Z"/><path class="cls-30" d="M933.61,359.41c.98,0,1.67-.54,1.67-1.82,0-2.48-2.92-2.5-4.69-2.42,1.11,.59,1.42,1.65,1.42,2.53,0,1.8-1.21,3.45-3.58,3.45-2.6,0-3.64-1.85-3.64-3.63,0-1.21,.49-2.99,2.78-3.64,.69-.2,1.5-.33,3.04-.33,1.67,0,5.96,.02,5.96,4.17,0,1.54-.6,3.33-2.96,3.4v-1.72Zm-7.6-1.88c0,1.32,1.09,2.03,2.43,2.03,1.47,0,2.32-.9,2.32-2.14s-.95-2.06-2.3-2.06c-1.63,0-2.45,1.06-2.45,2.17Z"/><path class="cls-30" d="M924.77,348.27c0-3.38,3.63-3.79,5.75-3.79,2.68,0,4.18,.54,5.15,1.57,.75,.8,.87,1.75,.87,2.26,0,1.5-.88,2.53-1.88,3.02-.75,.38-1.85,.74-3.87,.74-1.68,0-6.01-.2-6.01-3.79Zm10.41,.02c0-1.9-2.48-2.22-4.51-2.22-2.71,0-4.59,.48-4.59,2.19,0,1.98,2.6,2.24,4.62,2.24,2.52,0,4.48-.49,4.48-2.21Z"/><path class="cls-30" d="M933.62,341.08c1.14-.03,1.6-1.03,1.6-1.88,0-1.98-1.86-2.24-2.6-2.24-1.54,0-2.43,.83-2.43,2.14,0,.65,.24,1.18,.59,1.52,.34,.34,.69,.44,.95,.52v1.49l-6.73-.29v-6.36h1.32v4.95l3.66,.21c-.34-.34-1.05-1.06-1.05-2.39,0-2.27,1.78-3.38,3.73-3.38,2.22,0,3.91,1.57,3.91,4.04,0,1.83-1.01,3.29-2.94,3.37v-1.7Z"/><path class="cls-30" d="M934.34,330.86l4.02,1.83v1.11l-4.02-1.05v-1.89Z"/><path class="cls-30" d="M926.78,321.08c.59,.7,1.26,1.83,1.63,2.63h-1.63c-.56-1.06-1.24-2.11-1.78-2.75v-1.45h11.31v1.57h-9.53Z"/><path class="cls-30" d="M933.61,314.93c.98,0,1.67-.54,1.67-1.82,0-2.48-2.92-2.5-4.69-2.42,1.11,.59,1.42,1.65,1.42,2.53,0,1.8-1.21,3.45-3.58,3.45-2.6,0-3.64-1.85-3.64-3.63,0-1.21,.49-2.99,2.78-3.64,.69-.2,1.5-.33,3.04-.33,1.67,0,5.96,.02,5.96,4.17,0,1.54-.6,3.33-2.96,3.4v-1.72Zm-7.6-1.88c0,1.32,1.09,2.03,2.43,2.03,1.47,0,2.32-.9,2.32-2.14s-.95-2.06-2.3-2.06c-1.63,0-2.45,1.06-2.45,2.17Z"/><path class="cls-30" d="M933.85,302.75v5.1h-1.95l-7.06-4.9v-1.77h7.68v-1.65h1.32v1.65h2.45v1.57h-2.45Zm-1.32-.05h-5.97l5.97,3.91v-3.91Z"/><path class="cls-30" d="M933.62,296.6c1.14-.03,1.6-1.03,1.6-1.88,0-1.98-1.86-2.24-2.6-2.24-1.54,0-2.43,.83-2.43,2.14,0,.65,.24,1.18,.59,1.52s.69,.44,.95,.52v1.49l-6.73-.29v-6.36h1.32v4.95l3.66,.21c-.34-.34-1.05-1.06-1.05-2.39,0-2.27,1.78-3.38,3.73-3.38,2.22,0,3.91,1.57,3.91,4.04,0,1.83-1.01,3.29-2.94,3.37v-1.7Z"/><path class="cls-30" d="M937.48,289.14v-1.55h-12.57v1.55h-.87v-2.84h14.3v2.84h-.87Z"/></g><g class="cls-32"><path class="cls-30" d="M1026.08,372.3c-2.17,.88-4.89,1.94-7.27,1.94-1.29,0-2.57-.29-3.81-.67-1.47-.46-2.52-.88-3.22-1.16v-1.08c.8,.26,1.91,.62,3.47,.96,1.5,.34,2.52,.46,3.53,.46,2.32,0,4.2-.57,7.3-1.52v1.06Z"/><path class="cls-30" d="M1014.55,365.56c.59,.7,1.26,1.83,1.63,2.63h-1.63c-.56-1.06-1.24-2.11-1.78-2.75v-1.45h11.31v1.57h-9.53Z"/><path class="cls-30" d="M1021.38,359.41c.98,0,1.67-.54,1.67-1.82,0-2.48-2.92-2.5-4.69-2.42,1.11,.59,1.42,1.65,1.42,2.53,0,1.8-1.21,3.45-3.58,3.45-2.6,0-3.64-1.85-3.64-3.63,0-1.21,.49-2.99,2.78-3.64,.69-.2,1.5-.33,3.04-.33,1.67,0,5.96,.02,5.96,4.17,0,1.54-.6,3.33-2.96,3.4v-1.72Zm-7.6-1.88c0,1.32,1.09,2.03,2.43,2.03,1.47,0,2.32-.9,2.32-2.14s-.95-2.06-2.3-2.06c-1.63,0-2.45,1.06-2.45,2.17Z"/><path class="cls-30" d="M1021.62,347.23v5.1h-1.95l-7.06-4.9v-1.77h7.68v-1.65h1.32v1.65h2.45v1.57h-2.45Zm-1.32-.05h-5.97l5.97,3.91v-3.91Z"/><path class="cls-30" d="M1021.4,341.08c1.14-.03,1.6-1.03,1.6-1.88,0-1.98-1.86-2.24-2.6-2.24-1.54,0-2.43,.83-2.43,2.14,0,.65,.24,1.18,.59,1.52s.69,.44,.95,.52v1.49l-6.73-.29v-6.36h1.32v4.95l3.66,.21c-.34-.34-1.05-1.06-1.05-2.39,0-2.27,1.78-3.38,3.73-3.38,2.22,0,3.91,1.57,3.91,4.04,0,1.83-1.01,3.29-2.94,3.37v-1.7Z"/><path class="cls-30" d="M1022.11,330.86l4.02,1.83v1.11l-4.02-1.05v-1.89Z"/><path class="cls-30" d="M1014.55,321.08c.59,.7,1.26,1.83,1.63,2.63h-1.63c-.56-1.06-1.24-2.11-1.78-2.75v-1.45h11.31v1.57h-9.53Z"/><path class="cls-30" d="M1021.38,314.93c.98,0,1.67-.54,1.67-1.82,0-2.48-2.92-2.5-4.69-2.42,1.11,.59,1.42,1.65,1.42,2.53,0,1.8-1.21,3.45-3.58,3.45-2.6,0-3.64-1.85-3.64-3.63,0-1.21,.49-2.99,2.78-3.64,.69-.2,1.5-.33,3.04-.33,1.67,0,5.96,.02,5.96,4.17,0,1.54-.6,3.33-2.96,3.4v-1.72Zm-7.6-1.88c0,1.32,1.09,2.03,2.43,2.03,1.47,0,2.32-.9,2.32-2.14s-.95-2.06-2.3-2.06c-1.63,0-2.45,1.06-2.45,2.17Z"/><path class="cls-30" d="M1015.59,307.47c-1.01,0-3.09-.69-3.09-3.66,0-2.39,1.29-3.76,3.02-3.76,1.11,0,2.27,.72,2.57,2.3,.18-.67,.67-2.47,2.86-2.47,1.55,0,3.32,1.08,3.32,3.89,0,.96-.2,2.11-.95,2.92-.56,.61-1.41,1-2.27,1-.75,0-1.54-.29-2.08-.87-.54-.54-.7-1.13-.87-1.63-.33,1.5-1.39,2.27-2.52,2.27Zm-1.88-3.73c0,1.21,.72,2.14,1.85,2.14s1.83-.91,1.83-2.09c0-1.24-.72-2.17-1.83-2.17-1.03,0-1.85,.77-1.85,2.13Zm9.27,.03c0-1.81-1.27-2.26-2.13-2.26-1.26,0-2.07,.93-2.07,2.22,0,1.39,.93,2.3,2.12,2.3,.88,0,2.08-.59,2.08-2.27Z"/><path class="cls-30" d="M1021.4,296.6c1.14-.03,1.6-1.03,1.6-1.88,0-1.98-1.86-2.24-2.6-2.24-1.54,0-2.43,.83-2.43,2.14,0,.65,.24,1.18,.59,1.52s.69,.44,.95,.52v1.49l-6.73-.29v-6.36h1.32v4.95l3.66,.21c-.34-.34-1.05-1.06-1.05-2.39,0-2.27,1.78-3.38,3.73-3.38,2.22,0,3.91,1.57,3.91,4.04,0,1.83-1.01,3.29-2.94,3.37v-1.7Z"/><path class="cls-30" d="M1025.25,289.14v-1.55h-12.57v1.55h-.87v-2.84h14.3v2.84h-.87Z"/></g><g class="cls-32"><path class="cls-30" d="M1113.86,372.3c-2.17,.88-4.89,1.94-7.27,1.94-1.29,0-2.57-.29-3.81-.67-1.47-.46-2.52-.88-3.22-1.16v-1.08c.8,.26,1.91,.62,3.47,.96,1.5,.34,2.52,.46,3.53,.46,2.32,0,4.2-.57,7.3-1.52v1.06Z"/><path class="cls-30" d="M1102.32,365.56c.59,.7,1.26,1.83,1.63,2.63h-1.63c-.56-1.06-1.24-2.11-1.78-2.75v-1.45h11.31v1.57h-9.53Z"/><path class="cls-30" d="M1109.15,359.41c.98,0,1.67-.54,1.67-1.82,0-2.48-2.92-2.5-4.69-2.42,1.11,.59,1.42,1.65,1.42,2.53,0,1.8-1.21,3.45-3.58,3.45-2.6,0-3.64-1.85-3.64-3.63,0-1.21,.49-2.99,2.78-3.64,.69-.2,1.5-.33,3.04-.33,1.67,0,5.96,.02,5.96,4.17,0,1.54-.6,3.33-2.96,3.4v-1.72Zm-7.6-1.88c0,1.32,1.09,2.03,2.43,2.03,1.47,0,2.32-.9,2.32-2.14s-.95-2.06-2.3-2.06c-1.63,0-2.45,1.06-2.45,2.17Z"/><path class="cls-30" d="M1103.36,351.95c-1.01,0-3.09-.69-3.09-3.66,0-2.39,1.29-3.76,3.02-3.76,1.11,0,2.27,.72,2.57,2.3,.18-.67,.67-2.47,2.86-2.47,1.55,0,3.32,1.08,3.32,3.89,0,.96-.2,2.11-.95,2.92-.56,.61-1.41,1-2.27,1-.75,0-1.54-.29-2.08-.87-.54-.54-.7-1.13-.87-1.63-.33,1.5-1.39,2.27-2.52,2.27Zm-1.88-3.73c0,1.21,.72,2.14,1.85,2.14s1.83-.91,1.83-2.09c0-1.24-.72-2.17-1.83-2.17-1.03,0-1.85,.77-1.85,2.13Zm9.27,.03c0-1.81-1.27-2.26-2.13-2.26-1.26,0-2.07,.93-2.07,2.22,0,1.39,.93,2.3,2.12,2.3,.88,0,2.08-.59,2.08-2.27Z"/><path class="cls-30" d="M1109.17,341.08c1.14-.03,1.6-1.03,1.6-1.88,0-1.98-1.86-2.24-2.6-2.24-1.54,0-2.43,.83-2.43,2.14,0,.65,.24,1.18,.59,1.52s.69,.44,.95,.52v1.49l-6.73-.29v-6.36h1.32v4.95l3.66,.21c-.34-.34-1.05-1.06-1.05-2.39,0-2.27,1.78-3.38,3.73-3.38,2.22,0,3.91,1.57,3.91,4.04,0,1.83-1.01,3.29-2.94,3.37v-1.7Z"/><path class="cls-30" d="M1109.88,330.86l4.02,1.83v1.11l-4.02-1.05v-1.89Z"/><path class="cls-30" d="M1110.36,324.64l-2.91-2.96c-.6-.62-1.26-1.24-1.94-1.75-.9-.65-1.41-.83-2.01-.83-.56,0-1.85,.2-1.85,1.81,0,1.81,1.55,1.85,1.98,1.85v1.72c-.55-.02-1.63-.07-2.48-1.05-.67-.78-.82-1.73-.82-2.45,0-1.73,.88-3.5,3.3-3.5,.72,0,1.27,.05,2.83,1.27,.41,.33,1.9,1.76,2.22,2.09l1.88,1.98v-5.38h1.29v7.19h-1.49Z"/><path class="cls-30" d="M1100.31,311.91c0-3.38,3.63-3.79,5.75-3.79,2.68,0,4.18,.54,5.15,1.57,.75,.8,.87,1.75,.87,2.26,0,1.5-.88,2.53-1.88,3.02-.75,.38-1.85,.74-3.87,.74-1.68,0-6.01-.2-6.01-3.79Zm10.41,.02c0-1.9-2.48-2.22-4.51-2.22-2.71,0-4.59,.48-4.59,2.19,0,1.98,2.6,2.24,4.62,2.24,2.52,0,4.48-.49,4.48-2.21Z"/><path class="cls-30" d="M1110.36,306.46l-2.91-2.96c-.6-.62-1.26-1.24-1.94-1.75-.9-.65-1.41-.83-2.01-.83-.56,0-1.85,.2-1.85,1.81,0,1.81,1.55,1.85,1.98,1.85v1.72c-.55-.02-1.63-.07-2.48-1.05-.67-.78-.82-1.73-.82-2.45,0-1.73,.88-3.5,3.3-3.5,.72,0,1.27,.05,2.83,1.27,.41,.33,1.9,1.76,2.22,2.09l1.88,1.98v-5.38h1.29v7.19h-1.49Z"/><path class="cls-30" d="M1103.22,291.58c-1.32,.02-1.68,1-1.68,1.72,0,1.63,1.41,2.35,4.41,2.5-.52-.36-1.44-.98-1.44-2.63,0-1.85,1.23-3.42,3.63-3.42,2.63,0,3.95,1.88,3.95,3.82,0,1.1-.44,2.19-1.23,2.79-1.11,.83-2.73,1.03-4.17,1.03-2.47,0-6.39-.61-6.39-4.18,0-1.49,.65-2.32,1.08-2.71,.67-.57,1.39-.59,1.83-.6v1.68Zm5.07-.26c-.8,0-2.52,.23-2.52,2.11,0,1.52,1.24,2.26,2.53,2.26,1.47,0,2.55-.92,2.55-2.17,0-1.01-.72-2.19-2.57-2.19Z"/><path class="cls-30" d="M1113.02,288.16v-1.55h-12.57v1.55h-.87v-2.84h14.3v2.84h-.87Z"/></g><g class="cls-31"><path class="cls-26" d="M1180,427.68c0,37.13-30.1,67.22-67.22,67.22s-67.22-30.1-67.22-67.22,30.1-67.22,67.22-67.22,67.22,30.1,67.22,67.22"/><path class="cls-27" d="M955.07,427.68c0,10.48-8.5,18.99-18.98,18.99-10.48,0-18.99-8.5-18.99-18.98h0c0-10.49,8.5-18.99,18.98-19,10.48,0,18.99,8.5,18.99,18.98h0"/><path class="cls-29" d="M412.04,427.68c0,2.91-2.36,5.27-5.26,5.27-2.91,0-5.27-2.36-5.27-5.26h0c0-2.91,2.36-5.27,5.26-5.27,2.91,0,5.27,2.36,5.27,5.26h0"/><path class="cls-28" d="M764.69,427.68c0,2.91-2.36,5.27-5.26,5.27-2.91,0-5.27-2.36-5.27-5.26h0c0-2.91,2.36-5.27,5.26-5.27,2.91,0,5.27,2.36,5.27,5.26h0"/></g><line class="cls-25" x1="142.42" y1="427.68" x2="1158.55" y2="427.68"/><line class="cls-25" x1="142.11" y1="472.57" x2="1158.07" y2="472.57"/><line class="cls-25" x1="142.11" y1="522.05" x2="1158.49" y2="522.05"/><line class="cls-25" x1="142.11" y1="565.15" x2="1158.55" y2="565.15"/><g><path class="cls-30" d="M20.79,420.31c-.06-.38-.26-1.87-2.34-1.87-2.61,0-3.07,2.67-3.07,4.47,0,2.04,.58,4.24,3.06,4.24,.66,0,1.29-.17,1.76-.64,.39-.42,.48-.88,.52-1.14h1.65c-.22,2.13-2.19,3.01-4.05,3.01-3.81,0-4.54-3.36-4.54-5.46,0-2.28,.88-5.68,4.74-5.68,1.53,0,3.69,.61,3.88,3.07h-1.6Z"/><path class="cls-30" d="M27.53,420.49c3.01,0,3.69,2.37,3.69,3.94,0,2.2-1.25,4.03-3.81,4.03s-3.7-1.72-3.7-3.93c0-1.86,.87-4.05,3.82-4.05Zm-.09,6.93c1.06,0,2.28-.77,2.28-3.03,0-1.87-.87-2.86-2.19-2.86-.9,0-2.35,.57-2.35,2.92,0,1.55,.66,2.97,2.26,2.97Z"/><path class="cls-30" d="M33.47,421.55v-.87s1.39,0,1.39,0v1.21c.18-.31,.72-1.36,2.43-1.36,.67,0,2.73,.26,2.73,2.56v5.11h-1.44v-4.78c0-.5-.06-.94-.4-1.29-.36-.34-.85-.51-1.33-.51-1.02,0-1.96,.73-1.96,2.25v4.33h-1.41v-6.66Z"/><path class="cls-30" d="M41.43,420.65h1.33v-1.57l1.39-.45v2.02h1.68v1.03h-1.68v4.51c0,.38,0,1,1,1,.28,0,.55-.05,.67-.07v1.09c-.25,.05-.66,.09-1.17,.09-1.29,0-1.9-.38-1.9-1.6v-5.02h-1.33v-1.03Z"/><path class="cls-30" d="M48.43,424.7c-.03,1.56,.61,2.71,2.16,2.71,.91,0,1.65-.48,1.77-1.56h1.41c-.05,.38-.11,.99-.64,1.57-.33,.38-1.08,1-2.59,1-2.37,0-3.49-1.47-3.49-3.85,0-1.49,.3-2.71,1.48-3.54,.72-.51,1.62-.55,2.05-.55,3.37,0,3.3,2.98,3.27,4.21h-5.41Zm3.97-.99c.01-.72-.12-2.22-1.86-2.22-.91,0-2.02,.55-2.05,2.22h3.91Z"/><path class="cls-30" d="M55.89,421.69l-.03-1h1.43v1.09c.72-1.18,1.74-1.29,2.38-1.29,1.66,0,2.19,.85,2.46,1.41,.25-.42,.87-1.41,2.53-1.41,1.08,0,2.76,.45,2.76,2.67v5.05h-1.42v-4.83c0-.66-.12-.94-.26-1.14-.24-.34-.72-.66-1.44-.66-.91,0-1.41,.52-1.6,.79-.33,.46-.33,1.29-.33,1.62v4.21h-1.42v-4.98c0-.93-.54-1.65-1.65-1.65-.96,0-1.48,.6-1.65,.82-.32,.44-.33,1.05-.33,1.53v4.27h-1.43v-6.52Z"/><path class="cls-30" d="M70.01,421.91c0-.33-.02-.51-.05-1.23h1.42l.03,1.24c.71-1.18,1.95-1.36,2.56-1.36,1.62,0,3.16,1.11,3.16,3.9s-1.63,4.03-3.43,4.03c-1.09,0-1.9-.46-2.31-1.12v3.73h-1.39v-9.19Zm3.46,5.55c.36,0,1.11-.08,1.59-.73,.54-.73,.61-1.81,.61-2.35,0-1.35-.4-2.76-2.07-2.76-2.25,0-2.25,2.38-2.25,3.06,0,.92,.13,2.79,2.11,2.79Z"/><path class="cls-30" d="M82.48,420.49c3.01,0,3.69,2.37,3.69,3.94,0,2.2-1.24,4.03-3.81,4.03s-3.7-1.72-3.7-3.93c0-1.86,.87-4.05,3.82-4.05Zm-.09,6.93c1.06,0,2.28-.77,2.28-3.03,0-1.87-.87-2.86-2.19-2.86-.9,0-2.36,.57-2.36,2.92,0,1.55,.66,2.97,2.26,2.97Z"/><path class="cls-30" d="M88.45,422.21c0-.51-.03-1.04-.07-1.53h1.42l.03,1.45c.27-1.05,1.17-1.39,1.8-1.48,.42-.06,.73-.05,.97-.03v1.38c-.07-.03-.17-.05-.27-.06-.11-.01-.24-.01-.4-.01-1.66,0-2.05,.99-2.05,2.28v4h-1.42v-6Z"/><path class="cls-30" d="M98.79,428.21c-.1-.38-.13-.73-.13-1.12-.67,1.24-1.69,1.36-2.32,1.36-1.72,0-2.65-.97-2.65-2.22,0-.6,.21-1.56,1.32-2.2,.81-.45,2.01-.5,2.61-.5,.36,0,.59,.01,1.02,.05,0-.93,0-1.33-.27-1.66-.28-.37-.9-.49-1.3-.49-1.43,0-1.5,.97-1.51,1.27h-1.41c.05-.39,.09-.91,.53-1.42,.57-.63,1.63-.81,2.43-.81,1.09,0,2.26,.34,2.67,1.11,.24,.45,.25,.81,.25,1.16l-.06,3.6c0,.12,.01,1.12,.12,1.89h-1.27Zm-.97-3.7c-.57,0-2.71,0-2.71,1.53,0,.48,.3,1.31,1.56,1.31,.72,0,1.26-.28,1.6-.81,.31-.51,.33-.93,.36-1.98-.26-.03-.46-.05-.81-.05Zm1.14-7.39l-1.81,2.16h-.98l1.23-2.16h1.56Z"/><path class="cls-30" d="M102.58,421.55l-.02-.87h1.41v1.21c.18-.31,.72-1.36,2.43-1.36,.68,0,2.73,.26,2.73,2.56v5.11h-1.44v-4.78c0-.5-.06-.94-.4-1.29-.36-.34-.85-.51-1.33-.51-1.02,0-1.96,.73-1.96,2.25v4.33h-1.41v-6.66Z"/><path class="cls-30" d="M112.55,424.7c-.03,1.56,.61,2.71,2.16,2.71,.92,0,1.65-.48,1.77-1.56h1.41c-.04,.38-.1,.99-.64,1.57-.33,.38-1.08,1-2.59,1-2.37,0-3.49-1.47-3.49-3.85,0-1.49,.3-2.71,1.49-3.54,.72-.51,1.62-.55,2.05-.55,3.37,0,3.3,2.98,3.27,4.21h-5.41Zm3.97-.99c.01-.72-.12-2.22-1.86-2.22-.91,0-2.02,.55-2.05,2.22h3.91Z"/><path class="cls-30" d="M123.3,420.49c3.01,0,3.69,2.37,3.69,3.94,0,2.2-1.24,4.03-3.81,4.03s-3.7-1.72-3.7-3.93c0-1.86,.87-4.05,3.82-4.05Zm-.09,6.93c1.06,0,2.28-.77,2.28-3.03,0-1.87-.87-2.86-2.19-2.86-.9,0-2.35,.57-2.35,2.92,0,1.55,.66,2.97,2.26,2.97Z"/></g><g><path class="cls-30" d="M14.3,462.12h2.65l3.06,8.92,3.13-8.92h2.48v10.82h-1.47v-9.75l-3.55,9.75h-1.43l-3.42-9.69v9.69h-1.45v-10.82Z"/><path class="cls-30" d="M31.68,465.22c3.01,0,3.69,2.37,3.69,3.94,0,2.2-1.25,4.03-3.81,4.03s-3.7-1.72-3.7-3.93c0-1.86,.87-4.05,3.82-4.05Zm-.09,6.93c1.06,0,2.28-.77,2.28-3.03,0-1.87-.87-2.86-2.19-2.86-.9,0-2.35,.57-2.35,2.92,0,1.55,.66,2.97,2.26,2.97Z"/><path class="cls-30" d="M42.79,462.13h1.41v9.61c0,.17,.03,.81,.06,1.2h-1.41l-.03-1.2c-.12,.21-.28,.52-.68,.79-.61,.42-1.35,.55-1.86,.55-1.01,0-3.24-.53-3.24-3.82,0-2.86,1.63-4.11,3.4-4.11,1.62,0,2.16,.96,2.34,1.27v-4.3Zm-.53,4.84c-.3-.39-.85-.76-1.65-.76-2.07,0-2.07,2.5-2.07,3.01,0,1.33,.35,2.88,2.07,2.88,2.22,0,2.22-2.44,2.22-3.03,0-1.09-.25-1.69-.57-2.1Z"/><path class="cls-30" d="M47.59,469.43c-.03,1.56,.61,2.71,2.16,2.71,.91,0,1.65-.48,1.77-1.56h1.41c-.04,.38-.11,.99-.65,1.57-.33,.38-1.08,1-2.59,1-2.37,0-3.49-1.47-3.49-3.85,0-1.49,.3-2.71,1.48-3.54,.72-.51,1.62-.55,2.05-.55,3.37,0,3.3,2.98,3.27,4.21h-5.41Zm3.97-.99c.01-.72-.12-2.22-1.86-2.22-.91,0-2.02,.55-2.05,2.22h3.91Z"/><path class="cls-30" d="M55.14,466.95c0-.51-.03-1.04-.07-1.53h1.42l.03,1.45c.27-1.05,1.17-1.39,1.8-1.48,.42-.06,.73-.05,.97-.03v1.38c-.07-.03-.17-.05-.27-.06-.11-.01-.24-.01-.4-.01-1.66,0-2.05,.99-2.05,2.28v4h-1.42v-6Z"/><path class="cls-30" d="M60.94,466.29v-.87s1.39,0,1.39,0l.02,1.21c.17-.31,.7-1.36,2.41-1.36,.67,0,2.73,.26,2.73,2.56v5.11h-1.44v-4.78c0-.49-.06-.94-.4-1.29-.36-.34-.85-.51-1.33-.51-1.02,0-1.96,.73-1.96,2.25v4.33h-1.41v-6.66Z"/><path class="cls-30" d="M73.32,465.22c3.01,0,3.69,2.37,3.69,3.94,0,2.2-1.24,4.03-3.81,4.03s-3.7-1.72-3.7-3.93c0-1.86,.87-4.05,3.82-4.05Zm-.09,6.93c1.06,0,2.28-.77,2.28-3.03,0-1.87-.87-2.86-2.19-2.86-.9,0-2.35,.57-2.35,2.92,0,1.55,.66,2.97,2.26,2.97Z"/></g><g><path class="cls-30" d="M18.66,564.17h-1.65l-3.85-10.82h1.66l3.07,9.25,3.24-9.25h1.51l-3.99,10.82Z"/><path class="cls-30" d="M27.73,564.17c-.11-.38-.14-.73-.14-1.13-.67,1.25-1.69,1.37-2.32,1.37-1.72,0-2.65-.97-2.65-2.22,0-.6,.21-1.56,1.32-2.2,.81-.45,2.01-.5,2.61-.5,.36,0,.58,.02,1.02,.05,0-.93,0-1.33-.27-1.66-.28-.38-.9-.5-1.3-.5-1.43,0-1.5,.97-1.51,1.27h-1.41c.05-.39,.09-.92,.52-1.42,.57-.63,1.63-.81,2.43-.81,1.09,0,2.26,.34,2.67,1.11,.24,.45,.26,.81,.26,1.16l-.06,3.6c0,.12,.01,1.12,.12,1.89h-1.27Zm-.97-3.7c-.57,0-2.71,0-2.71,1.53,0,.48,.3,1.3,1.56,1.3,.72,0,1.26-.28,1.6-.81,.31-.51,.33-.93,.36-1.98-.26-.03-.47-.05-.81-.05Z"/><path class="cls-30" d="M31.55,558.18c0-.51-.03-1.04-.07-1.53h1.42l.03,1.45c.27-1.05,1.17-1.39,1.8-1.48,.42-.06,.73-.05,.97-.03v1.38c-.07-.03-.17-.05-.27-.06-.11-.01-.24-.01-.4-.01-1.66,0-2.05,.99-2.05,2.28v4h-1.42v-6Z"/><path class="cls-30" d="M37.17,553.38h1.69v1.54h-1.69v-1.54Zm.15,3.27h1.41v7.53h-1.41v-7.53Z"/><path class="cls-30" d="M44.74,556.45c3.01,0,3.69,2.37,3.69,3.94,0,2.2-1.25,4.03-3.81,4.03s-3.7-1.72-3.7-3.93c0-1.86,.87-4.05,3.82-4.05Zm-.09,6.93c1.06,0,2.28-.76,2.28-3.03,0-1.87-.87-2.86-2.19-2.86-.9,0-2.35,.57-2.35,2.92,0,1.54,.66,2.97,2.26,2.97Z"/><path class="cls-30" d="M51.44,561.94c-.01,.57,.29,1.37,1.65,1.37,.59,0,1.02-.1,1.32-.48,.15-.19,.24-.45,.24-.71,0-.73-.52-.87-1.65-1.12-1.57-.36-2.89-.68-2.89-2.25,0-1.38,1.2-2.28,2.94-2.28,.94,0,2.26,.27,2.71,1.17,.2,.42,.2,.78,.2,1.09h-1.44c.05-1.14-.94-1.23-1.45-1.23-.21,0-1.53,0-1.53,1.08,0,.69,.68,.85,1.06,.96,2.08,.5,2.53,.61,2.98,1.04,.42,.39,.57,.91,.57,1.39,0,.84-.46,1.56-1.02,1.9-.66,.4-1.45,.51-2.23,.51-1.53,0-2.95-.63-2.94-2.45h1.48Z"/></g><g><path class="cls-30" d="M14.3,511.61h2.65l3.06,8.92,3.13-8.92h2.48v10.82h-1.47v-9.75l-3.55,9.75h-1.43l-3.42-9.69v9.69h-1.45v-10.82Z"/><path class="cls-30" d="M31.68,514.72c3.01,0,3.69,2.37,3.69,3.94,0,2.2-1.25,4.03-3.81,4.03s-3.7-1.72-3.7-3.93c0-1.86,.87-4.05,3.82-4.05Zm-.09,6.93c1.06,0,2.28-.77,2.28-3.03,0-1.87-.87-2.86-2.19-2.86-.9,0-2.35,.57-2.35,2.92,0,1.55,.66,2.97,2.26,2.97Z"/><path class="cls-30" d="M42.79,511.63h1.41v9.61c0,.17,.03,.81,.06,1.2h-1.41l-.03-1.2c-.12,.21-.28,.52-.68,.79-.61,.42-1.35,.55-1.86,.55-1.01,0-3.24-.53-3.24-3.82,0-2.86,1.63-4.11,3.4-4.11,1.62,0,2.16,.96,2.34,1.27v-4.3Zm-.53,4.84c-.3-.39-.85-.76-1.65-.76-2.07,0-2.07,2.5-2.07,3.01,0,1.33,.35,2.88,2.07,2.88,2.22,0,2.22-2.44,2.22-3.03,0-1.09-.25-1.69-.57-2.1Z"/><path class="cls-30" d="M47.59,518.93c-.03,1.56,.61,2.71,2.16,2.71,.91,0,1.65-.48,1.77-1.56h1.41c-.04,.38-.11,.99-.65,1.57-.33,.38-1.08,1-2.59,1-2.37,0-3.49-1.47-3.49-3.85,0-1.49,.3-2.71,1.48-3.54,.72-.51,1.62-.55,2.05-.55,3.37,0,3.3,2.98,3.27,4.21h-5.41Zm3.97-.99c.01-.72-.12-2.22-1.86-2.22-.91,0-2.02,.55-2.05,2.22h3.91Z"/><path class="cls-30" d="M55.14,516.44c0-.51-.03-1.04-.07-1.53h1.42l.03,1.45c.27-1.05,1.17-1.39,1.8-1.48,.42-.06,.73-.05,.97-.03v1.38c-.07-.03-.17-.05-.27-.06-.11-.01-.24-.01-.4-.01-1.66,0-2.05,.99-2.05,2.28v4h-1.42v-6Z"/><path class="cls-30" d="M60.94,515.78v-.87s1.39,0,1.39,0l.02,1.21c.17-.31,.7-1.36,2.41-1.36,.67,0,2.73,.26,2.73,2.56v5.11h-1.44v-4.78c0-.49-.06-.94-.4-1.29-.36-.34-.85-.51-1.33-.51-1.02,0-1.96,.73-1.96,2.25v4.33h-1.41v-6.66Z"/><path class="cls-30" d="M73.32,514.72c3.01,0,3.69,2.37,3.69,3.94,0,2.2-1.24,4.03-3.81,4.03s-3.7-1.72-3.7-3.93c0-1.86,.87-4.05,3.82-4.05Zm-.09,6.93c1.06,0,2.28-.77,2.28-3.03,0-1.87-.87-2.86-2.19-2.86-.9,0-2.35,.57-2.35,2.92,0,1.55,.66,2.97,2.26,2.97Z"/><path class="cls-30" d="M81.27,511.75h.97l-3.49,10.93h-.99l3.51-10.93Z"/><path class="cls-30" d="M89.9,514.54c-.06-.38-.25-1.87-2.34-1.87-2.61,0-3.07,2.67-3.07,4.47,0,2.04,.59,4.24,3.06,4.24,.66,0,1.29-.17,1.75-.64,.39-.42,.48-.88,.52-1.14h1.65c-.22,2.13-2.19,3.01-4.05,3.01-3.81,0-4.54-3.36-4.54-5.46,0-2.28,.89-5.68,4.74-5.68,1.53,0,3.69,.61,3.88,3.07h-1.6Z"/><path class="cls-30" d="M96.65,514.72c3.01,0,3.69,2.37,3.69,3.94,0,2.2-1.24,4.03-3.81,4.03s-3.7-1.72-3.7-3.93c0-1.86,.87-4.05,3.82-4.05Zm-.09,6.93c1.06,0,2.28-.77,2.28-3.03,0-1.87-.87-2.86-2.19-2.86-.9,0-2.36,.57-2.36,2.92,0,1.55,.66,2.97,2.26,2.97Z"/><path class="cls-30" d="M102.58,515.78v-.87s1.39,0,1.39,0v1.21c.18-.31,.72-1.36,2.43-1.36,.67,0,2.73,.26,2.73,2.56v5.11h-1.44v-4.78c0-.49-.06-.94-.41-1.29-.36-.34-.85-.51-1.33-.51-1.02,0-1.96,.73-1.96,2.25v4.33h-1.41v-6.66Z"/><path class="cls-30" d="M110.54,514.88h1.33v-1.57l1.39-.45v2.02h1.68v1.03h-1.68v4.51c0,.38,0,1,1,1,.28,0,.55-.05,.67-.07v1.09c-.26,.05-.66,.09-1.17,.09-1.29,0-1.91-.38-1.91-1.6v-5.02h-1.33v-1.03Z"/></g><g class="cls-32"><path class="cls-30" d="M949.13,58.75c-.08-.49-.33-2.45-3.06-2.45-3.42,0-4.02,3.49-4.02,5.85,0,2.67,.77,5.55,4,5.55,.86,0,1.69-.22,2.3-.84,.51-.55,.63-1.16,.69-1.49h2.16c-.29,2.79-2.87,3.94-5.3,3.94-4.98,0-5.95-4.4-5.95-7.14,0-2.98,1.16-7.44,6.2-7.44,2,0,4.83,.8,5.08,4.02h-2.1Z"/><path class="cls-30" d="M959.68,69.09c-.14-.49-.18-.96-.18-1.47-.88,1.63-2.22,1.79-3.04,1.79-2.26,0-3.47-1.28-3.47-2.9,0-.78,.27-2.04,1.73-2.88,1.06-.59,2.63-.65,3.42-.65,.47,0,.76,.02,1.33,.06,0-1.22,0-1.75-.35-2.18-.37-.49-1.18-.65-1.71-.65-1.86,0-1.96,1.27-1.98,1.67h-1.85c.06-.51,.12-1.2,.69-1.86,.75-.83,2.14-1.06,3.18-1.06,1.43,0,2.96,.45,3.49,1.45,.31,.59,.33,1.06,.33,1.51l-.08,4.71c0,.16,.02,1.47,.16,2.47h-1.67Zm-1.28-4.85c-.75,0-3.55,0-3.55,2,0,.63,.39,1.71,2.04,1.71,.94,0,1.65-.37,2.1-1.06,.41-.67,.43-1.22,.47-2.59-.33-.04-.61-.06-1.06-.06Z"/><path class="cls-30" d="M964.65,60.37l-.02-1.14h1.84l.02,1.59c.22-.41,.92-1.79,3.16-1.79,.88,0,3.57,.33,3.57,3.36v6.69h-1.88v-6.26c0-.65-.08-1.24-.53-1.69-.47-.45-1.12-.67-1.75-.67-1.33,0-2.57,.96-2.57,2.94v5.67h-1.85v-8.71Z"/><path class="cls-30" d="M975.06,59.2h1.75v-2.06l1.83-.59v2.65h2.2v1.35h-2.2v5.91c0,.49,0,1.32,1.32,1.32,.37,0,.73-.06,.88-.1v1.43c-.33,.06-.86,.12-1.53,.12-1.69,0-2.49-.49-2.49-2.1v-6.58h-1.75v-1.35Z"/><path class="cls-30" d="M982.93,54.96h2.22v2.02h-2.22v-2.02Zm.2,4.28h1.85v9.85h-1.85v-9.85Z"/><path class="cls-30" d="M995.39,54.94h1.85v12.58c0,.22,.04,1.06,.08,1.57h-1.85l-.04-1.57c-.16,.28-.37,.69-.88,1.04-.8,.55-1.77,.73-2.43,.73-1.31,0-4.24-.69-4.24-5,0-3.75,2.14-5.38,4.45-5.38,2.12,0,2.82,1.26,3.06,1.67v-5.63Zm-.69,6.34c-.39-.51-1.12-1-2.16-1-2.71,0-2.71,3.28-2.71,3.94,0,1.75,.45,3.77,2.71,3.77,2.9,0,2.9-3.2,2.9-3.96,0-1.43-.33-2.22-.75-2.75Z"/><path class="cls-30" d="M1006.56,69.09c-.14-.49-.18-.96-.18-1.47-.88,1.63-2.22,1.79-3.04,1.79-2.26,0-3.47-1.28-3.47-2.9,0-.78,.27-2.04,1.73-2.88,1.06-.59,2.63-.65,3.42-.65,.47,0,.76,.02,1.33,.06,0-1.22,0-1.75-.35-2.18-.37-.49-1.18-.65-1.71-.65-1.86,0-1.96,1.27-1.98,1.67h-1.85c.06-.51,.12-1.2,.69-1.86,.75-.83,2.14-1.06,3.18-1.06,1.43,0,2.96,.45,3.49,1.45,.31,.59,.33,1.06,.33,1.51l-.08,4.71c0,.16,.02,1.47,.16,2.47h-1.67Zm-1.28-4.85c-.75,0-3.55,0-3.55,2,0,.63,.39,1.71,2.04,1.71,.94,0,1.65-.37,2.1-1.06,.41-.67,.43-1.22,.47-2.59-.33-.04-.61-.06-1.06-.06Z"/><path class="cls-30" d="M1018.3,54.94h1.85v12.58c0,.22,.04,1.06,.08,1.57h-1.85l-.04-1.57c-.16,.28-.37,.69-.88,1.04-.8,.55-1.77,.73-2.43,.73-1.31,0-4.24-.69-4.24-5,0-3.75,2.14-5.38,4.45-5.38,2.12,0,2.82,1.26,3.06,1.67v-5.63Zm-.69,6.34c-.39-.51-1.12-1-2.16-1-2.71,0-2.71,3.28-2.71,3.94,0,1.75,.45,3.77,2.71,3.77,2.9,0,2.9-3.2,2.9-3.96,0-1.43-.33-2.22-.75-2.75Z"/><path class="cls-30" d="M1028.85,60.85c0-.43-.02-.67-.06-1.61h1.86l.04,1.63c.92-1.55,2.55-1.79,3.36-1.79,2.12,0,4.14,1.45,4.14,5.1s-2.14,5.28-4.49,5.28c-1.43,0-2.49-.61-3.02-1.47v4.89h-1.83v-12.03Zm4.53,7.26c.47,0,1.45-.1,2.08-.96,.71-.96,.8-2.38,.8-3.08,0-1.77-.53-3.61-2.71-3.61-2.94,0-2.94,3.12-2.94,4,0,1.2,.18,3.65,2.77,3.65Z"/><path class="cls-30" d="M1045.18,58.98c3.95,0,4.83,3.1,4.83,5.16,0,2.88-1.63,5.28-4.98,5.28s-4.85-2.26-4.85-5.14c0-2.43,1.14-5.3,5-5.3Zm-.12,9.07c1.39,0,2.98-1,2.98-3.96,0-2.45-1.14-3.75-2.87-3.75-1.18,0-3.08,.75-3.08,3.83,0,2.02,.86,3.89,2.96,3.89Z"/><path class="cls-30" d="M1052.99,61.24c0-.67-.04-1.35-.1-2h1.86l.04,1.9c.35-1.37,1.53-1.83,2.35-1.94,.55-.08,.96-.06,1.27-.04v1.8c-.1-.04-.22-.06-.35-.08-.14-.02-.31-.02-.53-.02-2.18,0-2.69,1.3-2.69,2.98v5.24h-1.86v-7.85Z"/><path class="cls-30" d="M1071.98,69.09c-.14-.49-.18-.96-.18-1.47-.88,1.63-2.22,1.79-3.04,1.79-2.26,0-3.47-1.28-3.47-2.9,0-.78,.27-2.04,1.73-2.88,1.06-.59,2.63-.65,3.42-.65,.47,0,.76,.02,1.33,.06,0-1.22,0-1.75-.35-2.18-.37-.49-1.18-.65-1.71-.65-1.86,0-1.96,1.27-1.98,1.67h-1.85c.06-.51,.12-1.2,.69-1.86,.75-.83,2.14-1.06,3.18-1.06,1.43,0,2.96,.45,3.49,1.45,.31,.59,.33,1.06,.33,1.51l-.08,4.71c0,.16,.02,1.47,.16,2.47h-1.67Zm-1.28-4.85c-.75,0-3.55,0-3.55,2,0,.63,.39,1.71,2.04,1.71,.94,0,1.65-.37,2.1-1.06,.41-.67,.43-1.22,.47-2.59-.33-.04-.61-.06-1.06-.06Z"/><path class="cls-30" d="M1076.95,60.37l-.02-1.14h1.84l.02,1.59c.22-.41,.92-1.79,3.16-1.79,.88,0,3.57,.33,3.57,3.36v6.69h-1.88v-6.26c0-.65-.08-1.24-.53-1.69-.47-.45-1.12-.67-1.75-.67-1.33,0-2.57,.96-2.57,2.94v5.67h-1.85v-8.71Zm1.45-3.3c.02-.55,.2-1.04,.47-1.37,.29-.35,.71-.55,1.2-.55,.29,0,.43,.04,1.51,.33,.3,.08,.49,.14,.73,.14,.47,0,.73-.3,.73-.73h.8c.04,1.51-.94,1.98-1.65,1.98-.35,0-.67-.08-1.24-.26-.39-.1-.86-.25-.98-.25-.3,0-.57,.14-.75,.71h-.82Z"/><path class="cls-30" d="M1093.15,58.98c3.95,0,4.83,3.1,4.83,5.16,0,2.88-1.63,5.28-4.98,5.28s-4.85-2.26-4.85-5.14c0-2.43,1.14-5.3,5-5.3Zm-.12,9.07c1.39,0,2.98-1,2.98-3.96,0-2.45-1.14-3.75-2.87-3.75-1.18,0-3.08,.75-3.08,3.83,0,2.02,.86,3.89,2.96,3.89Z"/></g><g pointer-events="none"><g class="cls-32"><path class="cls-9" d="M1048.18,178.34c0,20.56-16.67,37.23-37.23,37.23s-37.23-16.67-37.23-37.23,16.67-37.23,37.23-37.23,37.23,16.67,37.23,37.23"/></g></g><g pointer-events="none"><g class="cls-32"><path class="cls-13" d="M1063.6,162.92c0,29.08-23.57,52.65-52.65,52.65s-52.65-23.57-52.65-52.65,23.57-52.65,52.65-52.65,52.65,23.57,52.65,52.65"/></g></g><g class="cls-32" pointer-events="none"><g class="cls-32"><path class="cls-12" d="M1075.43,151.08c0,35.62-28.87,64.49-64.49,64.49s-64.49-28.87-64.49-64.49,28.87-64.49,64.49-64.49,64.49,28.87,64.49,64.49"/></g></g><line class="cls-22" x1="1014.71" y1="86.6" x2="1126.45" y2="86.6"/><line class="cls-22" x1="1014.71" y1="110.26" x2="1126.45" y2="110.26"/><line class="cls-22" x1="1014.71" y1="141.11" x2="1126.45" y2="141.11"/><g><path class="cls-30" d="M1138.73,83.92c1-.41,1.94-1.09,2.7-1.85h1.05v11.76h-1.11v-10.57c-.78,.75-1.7,1.31-2.65,1.77v-1.11Z"/><path class="cls-30" d="M1146.92,82.07h6.47v1.02h-5.42l-.19,4.2,.03,.03c.66-.76,1.53-1.24,2.58-1.24,2.21,0,3.58,1.82,3.58,3.93,0,2.26-1.44,4.08-3.77,4.08-1.99,0-3.74-.92-3.81-3.14h1.19c.07,1.41,1.15,2.12,2.5,2.12,1.84,0,2.7-1.41,2.7-3.11s-.87-2.85-2.63-2.85c-1.12,0-2.14,.68-2.38,1.78h-1.14l.27-6.81Z"/><path class="cls-30" d="M1163.43,87.95c0,2.99-.7,6.13-3.91,6.13s-3.91-3.14-3.91-6.13,.7-6.13,3.91-6.13,3.91,3.14,3.91,6.13Zm-6.63,0c0,1.75,.22,5.12,2.72,5.12s2.72-3.36,2.72-5.12-.22-5.11-2.72-5.11-2.72,3.36-2.72,5.11Z"/></g><g><path class="cls-30" d="M1138.32,136.58h6.47v1.02h-5.42l-.19,4.2,.03,.03c.66-.76,1.53-1.24,2.58-1.24,2.21,0,3.58,1.82,3.58,3.93,0,2.26-1.44,4.08-3.77,4.08-1.99,0-3.74-.92-3.81-3.14h1.19c.07,1.41,1.15,2.12,2.5,2.12,1.84,0,2.7-1.41,2.7-3.11s-.87-2.85-2.63-2.85c-1.12,0-2.14,.68-2.38,1.78h-1.14l.27-6.81Z"/><path class="cls-30" d="M1154.83,142.46c0,2.99-.7,6.13-3.91,6.13s-3.91-3.14-3.91-6.13,.7-6.13,3.91-6.13,3.91,3.14,3.91,6.13Zm-6.63,0c0,1.75,.22,5.12,2.72,5.12s2.72-3.36,2.72-5.12-.22-5.11-2.72-5.11-2.72,3.36-2.72,5.11Z"/></g><g><path class="cls-30" d="M1138.73,106.79c1-.41,1.94-1.09,2.7-1.85h1.05v11.76h-1.11v-10.57c-.78,.75-1.7,1.31-2.65,1.77v-1.11Z"/><path class="cls-30" d="M1153.56,110.81c0,2.99-.7,6.13-3.91,6.13s-3.91-3.14-3.91-6.13,.7-6.13,3.91-6.13,3.91,3.14,3.91,6.13Zm-6.63,0c0,1.75,.22,5.12,2.72,5.12s2.72-3.36,2.72-5.12-.22-5.11-2.72-5.11-2.72,3.36-2.72,5.11Z"/><path class="cls-30" d="M1163.33,110.81c0,2.99-.7,6.13-3.91,6.13s-3.91-3.14-3.91-6.13,.7-6.13,3.91-6.13,3.91,3.14,3.91,6.13Zm-6.63,0c0,1.75,.22,5.12,2.72,5.12s2.72-3.36,2.72-5.12-.22-5.11-2.72-5.11-2.72,3.36-2.72,5.11Z"/></g><g><path class="cls-30" d="M39.21,25.37c-5.1,0-7.23,4.41-7.23,8.73s2.13,8.76,7.23,8.76c4.5,0,6.24-3.06,6.42-5.76h2.7c-.48,4.74-3.84,8.16-9.12,8.16-5.88,0-9.93-4.68-9.93-11.16s4.05-11.13,9.93-11.13c5.25,0,8.61,3.42,9.12,7.5h-2.7c-.39-2.04-1.95-5.1-6.42-5.1Z"/><path class="cls-30" d="M58.74,31.22c-2.91,0-3.87,.84-4.02,3.06h-2.4c.15-2.94,1.98-5.16,6.42-5.16,2.91,0,5.52,1.14,5.52,4.83v7.44c0,1.2,.21,1.86,1.74,1.68v1.68c-.63,.21-.96,.24-1.41,.24-1.44,0-2.31-.39-2.73-2.07h-.06c-.96,1.44-2.67,2.34-5.19,2.34-3.09,0-5.04-1.77-5.04-4.35,0-3.48,2.58-4.38,6.54-5.13,2.58-.48,3.75-.81,3.75-2.34,0-1.2-.66-2.22-3.12-2.22Zm3.12,7.71v-2.55c-.45,.45-1.92,.87-3.54,1.2-2.97,.63-4.35,1.38-4.35,3.21,0,1.5,.9,2.37,2.88,2.37,2.85,0,5.01-1.29,5.01-4.23Z"/><path class="cls-30" d="M81.93,34.16v10.68h-2.4v-10.08c0-1.98-.93-3.54-3.33-3.54-2.7,0-4.5,1.71-4.5,4.08v9.54h-2.4v-15.3h2.4v1.83h.06c.81-1.08,2.43-2.25,5.04-2.25,2.79,0,5.13,1.53,5.13,5.04Z"/><path class="cls-30" d="M90,31.64v9.21c0,1.74,.96,2.04,3,1.89v2.1c-.54,.12-1.17,.18-1.8,.18-2.04,0-3.6-.81-3.6-3.93v-9.45h-2.25v-2.1h2.25v-5.1h2.4v5.1h3v2.1h-3Z"/><path class="cls-30" d="M97.02,25.13c0-.93,.84-1.44,1.5-1.44s1.5,.51,1.5,1.44-.81,1.44-1.5,1.44-1.5-.51-1.5-1.44Zm2.7,4.41v15.3h-2.4v-15.3h2.4Z"/><path class="cls-30" d="M118.11,23.39v21.45h-2.4v-1.89h-.06c-.9,1.17-2.34,2.31-4.8,2.31-3.84,0-6.9-3.03-6.9-8.07s3.06-8.07,6.9-8.07c2.46,0,3.9,1.08,4.8,2.4h.06v-8.13h2.4Zm-2.4,13.8c0-3.6-1.77-5.97-4.62-5.97-3.15,0-4.74,2.97-4.74,5.97s1.59,5.97,4.74,5.97c2.85,0,4.62-2.37,4.62-5.97Z"/><path class="cls-30" d="M129.15,31.22c-2.91,0-3.87,.84-4.02,3.06h-2.4c.15-2.94,1.98-5.16,6.42-5.16,2.91,0,5.52,1.14,5.52,4.83v7.44c0,1.2,.21,1.86,1.74,1.68v1.68c-.63,.21-.96,.24-1.41,.24-1.44,0-2.31-.39-2.73-2.07h-.06c-.96,1.44-2.67,2.34-5.19,2.34-3.09,0-5.04-1.77-5.04-4.35,0-3.48,2.58-4.38,6.54-5.13,2.58-.48,3.75-.81,3.75-2.34,0-1.2-.66-2.22-3.12-2.22Zm3.12,7.71v-2.55c-.45,.45-1.92,.87-3.54,1.2-2.97,.63-4.35,1.38-4.35,3.21,0,1.5,.9,2.37,2.88,2.37,2.85,0,5.01-1.29,5.01-4.23Z"/><path class="cls-30" d="M152.99,23.39v21.45h-2.4v-1.89h-.06c-.9,1.17-2.34,2.31-4.8,2.31-3.84,0-6.9-3.03-6.9-8.07s3.06-8.07,6.9-8.07c2.46,0,3.9,1.08,4.8,2.4h.06v-8.13h2.4Zm-2.4,13.8c0-3.6-1.77-5.97-4.62-5.97-3.15,0-4.74,2.97-4.74,5.97s1.59,5.97,4.74,5.97c2.85,0,4.62-2.37,4.62-5.97Z"/><path class="cls-30" d="M178.58,23.39v21.45h-2.4v-1.89h-.06c-.9,1.17-2.34,2.31-4.8,2.31-3.84,0-6.9-3.03-6.9-8.07s3.06-8.07,6.9-8.07c2.46,0,3.9,1.08,4.8,2.4h.06v-8.13h2.4Zm-2.4,13.8c0-3.6-1.77-5.97-4.62-5.97-3.15,0-4.74,2.97-4.74,5.97s1.59,5.97,4.74,5.97c2.85,0,4.62-2.37,4.62-5.97Z"/><path class="cls-30" d="M194.36,40.13h2.4c-.78,2.85-2.97,5.13-6.78,5.13-4.65,0-7.47-3.27-7.47-8.07,0-5.1,2.88-8.07,7.35-8.07,4.8,0,7.14,3.27,7.14,8.7h-12.09c0,2.76,1.65,5.34,4.98,5.34,3.06,0,4.2-1.98,4.47-3.03Zm-9.45-4.41h9.69c0-2.46-1.86-4.5-4.74-4.5s-4.95,2.04-4.95,4.5Z"/><path class="cls-30" d="M214.91,31.22c-3.63,0-5.01,3.09-5.01,5.97s1.38,5.97,5.01,5.97c3.09,0,4.2-2.13,4.32-3.96h2.4c-.21,3.48-2.94,6.06-6.72,6.06-4.47,0-7.41-3.27-7.41-8.07s2.94-8.07,7.41-8.07c3.78,0,6.36,2.52,6.72,5.94h-2.4c-.12-1.68-1.26-3.84-4.32-3.84Z"/><path class="cls-30" d="M232.07,45.26c-4.68,0-7.5-3.3-7.5-8.07s2.82-8.07,7.5-8.07,7.47,3.3,7.47,8.07-2.82,8.07-7.47,8.07Zm0-2.1c3.42,0,5.07-2.7,5.07-5.97s-1.65-5.97-5.07-5.97-5.1,2.7-5.1,5.97,1.65,5.97,5.1,5.97Z"/><path class="cls-30" d="M245.96,23.39v21.45h-2.4V23.39h2.4Z"/><path class="cls-30" d="M261.83,40.13h2.4c-.78,2.85-2.97,5.13-6.78,5.13-4.65,0-7.47-3.27-7.47-8.07,0-5.1,2.88-8.07,7.35-8.07,4.8,0,7.14,3.27,7.14,8.7h-12.09c0,2.76,1.65,5.34,4.98,5.34,3.06,0,4.2-1.98,4.47-3.03Zm-9.45-4.41h9.69c0-2.46-1.86-4.5-4.74-4.5s-4.95,2.04-4.95,4.5Z"/><path class="cls-30" d="M274.88,31.22c-3.63,0-5.01,3.09-5.01,5.97s1.38,5.97,5.01,5.97c3.09,0,4.2-2.13,4.32-3.96h2.4c-.21,3.48-2.94,6.06-6.72,6.06-4.47,0-7.41-3.27-7.41-8.07s2.94-8.07,7.41-8.07c3.78,0,6.36,2.52,6.72,5.94h-2.4c-.12-1.68-1.26-3.84-4.32-3.84Z"/><path class="cls-30" d="M291.95,31.22c-3.63,0-5.01,3.09-5.01,5.97s1.38,5.97,5.01,5.97c3.09,0,4.2-2.13,4.32-3.96h2.4c-.21,3.48-2.94,6.06-6.72,6.06-4.47,0-7.41-3.27-7.41-8.07s2.94-8.07,7.41-8.07c3.78,0,6.36,2.52,6.72,5.94h-2.4c-.12-1.68-1.26-3.84-4.32-3.84Z"/><path class="cls-30" d="M302.48,25.13c0-.93,.84-1.44,1.5-1.44s1.5,.51,1.5,1.44-.81,1.44-1.5,1.44-1.5-.51-1.5-1.44Zm2.7,4.41v15.3h-2.4v-15.3h2.4Z"/><path class="cls-30" d="M316.91,45.26c-4.68,0-7.5-3.3-7.5-8.07s2.82-8.07,7.5-8.07,7.47,3.3,7.47,8.07-2.82,8.07-7.47,8.07Zm0-2.1c3.42,0,5.07-2.7,5.07-5.97s-1.65-5.97-5.07-5.97-5.1,2.7-5.1,5.97,1.65,5.97,5.1,5.97Z"/><path class="cls-30" d="M340.94,34.16v10.68h-2.4v-10.08c0-1.98-.93-3.54-3.33-3.54-2.7,0-4.5,1.71-4.5,4.08v9.54h-2.4v-15.3h2.4v1.83h.06c.81-1.08,2.43-2.25,5.04-2.25,2.79,0,5.13,1.53,5.13,5.04Z"/><path class="cls-30" d="M356.63,40.13h2.4c-.78,2.85-2.97,5.13-6.78,5.13-4.65,0-7.47-3.27-7.47-8.07,0-5.1,2.88-8.07,7.35-8.07,4.8,0,7.14,3.27,7.14,8.7h-12.09c0,2.76,1.65,5.34,4.98,5.34,3.06,0,4.2-1.98,4.47-3.03Zm-9.45-4.41h9.69c0-2.46-1.86-4.5-4.74-4.5s-4.95,2.04-4.95,4.5Z"/><path class="cls-30" d="M375.17,40.64c0,2.79-2.55,4.62-6.03,4.62-4.68,0-6.84-2.22-6.99-5.52h2.4c.15,1.71,.75,3.42,4.59,3.42,2.61,0,3.63-1.35,3.63-2.37,0-2.22-2.01-2.34-4.2-2.88-2.34-.57-5.82-.84-5.82-4.44,0-2.4,2.13-4.35,5.73-4.35,3.81,0,5.85,2.16,6.09,4.8h-2.4c-.24-1.17-.81-2.7-3.69-2.7-2.16,0-3.33,.87-3.33,2.07,0,1.8,2.07,1.95,4.2,2.46,2.73,.66,5.82,1.11,5.82,4.89Z"/><path class="cls-30" d="M386.51,25.13c0-.93,.84-1.44,1.5-1.44s1.5,.51,1.5,1.44-.81,1.44-1.5,1.44-1.5-.51-1.5-1.44Zm2.7,4.41v15.3h-2.4v-15.3h2.4Z"/><path class="cls-30" d="M406.94,34.16v10.68h-2.4v-10.08c0-1.98-.93-3.54-3.33-3.54-2.7,0-4.5,1.71-4.5,4.08v9.54h-2.4v-15.3h2.4v1.83h.06c.81-1.08,2.43-2.25,5.04-2.25,2.79,0,5.13,1.53,5.13,5.04Z"/><path class="cls-30" d="M417.89,31.22c-2.91,0-3.87,.84-4.02,3.06h-2.4c.15-2.94,1.98-5.16,6.42-5.16,2.91,0,5.52,1.14,5.52,4.83v7.44c0,1.2,.21,1.86,1.74,1.68v1.68c-.63,.21-.96,.24-1.41,.24-1.44,0-2.31-.39-2.73-2.07h-.06c-.96,1.44-2.67,2.34-5.19,2.34-3.09,0-5.04-1.77-5.04-4.35,0-3.48,2.58-4.38,6.54-5.13,2.58-.48,3.75-.81,3.75-2.34,0-1.2-.66-2.22-3.12-2.22Zm3.12,7.71v-2.55c-.45,.45-1.92,.87-3.54,1.2-2.97,.63-4.35,1.38-4.35,3.21,0,1.5,.9,2.37,2.88,2.37,2.85,0,5.01-1.29,5.01-4.23Z"/><path class="cls-30" d="M440.99,29.54v15.3h-2.4v-1.83h-.06c-.81,1.08-2.43,2.25-5.04,2.25-2.79,0-5.13-1.53-5.13-5.04v-10.68h2.4v10.08c0,1.98,.93,3.54,3.33,3.54,2.7,0,4.5-1.71,4.5-4.08v-9.54h2.4Z"/><path class="cls-30" d="M459.08,29.54v14.46c0,4.08-2.58,6.15-6.78,6.15s-6.69-2.22-6.93-4.83h2.4c.3,1.56,1.56,2.73,4.41,2.73s4.5-1.23,4.5-4.08v-2.31h-.06c-.9,1.32-2.34,2.4-4.86,2.4-3.78,0-6.84-2.43-6.84-7.47s3.06-7.47,6.84-7.47c2.52,0,3.96,1.14,4.86,2.31h.06v-1.89h2.4Zm-2.4,7.05c0-3.6-1.77-5.37-4.62-5.37-3.15,0-4.74,2.37-4.74,5.37s1.59,5.37,4.74,5.37c2.85,0,4.62-1.77,4.62-5.37Z"/><path class="cls-30" d="M476.42,29.54v15.3h-2.4v-1.83h-.06c-.81,1.08-2.43,2.25-5.04,2.25-2.79,0-5.13-1.53-5.13-5.04v-10.68h2.4v10.08c0,1.98,.93,3.54,3.33,3.54,2.7,0,4.5-1.71,4.5-4.08v-9.54h2.4Z"/><path class="cls-30" d="M489.32,29.21v2.4h-.06c-3.33-.54-5.64,1.8-5.64,5.07v8.16h-2.4v-15.3h2.4v3.03h.06c.81-2.01,2.04-3.45,4.23-3.45,.57,0,.99,.03,1.41,.09Z"/><path class="cls-30" d="M498.65,31.22c-2.91,0-3.87,.84-4.02,3.06h-2.4c.15-2.94,1.98-5.16,6.42-5.16,2.91,0,5.52,1.14,5.52,4.83v7.44c0,1.2,.21,1.86,1.74,1.68v1.68c-.63,.21-.96,.24-1.41,.24-1.44,0-2.31-.39-2.73-2.07h-.06c-.96,1.44-2.67,2.34-5.19,2.34-3.09,0-5.04-1.77-5.04-4.35,0-3.48,2.58-4.38,6.54-5.13,2.58-.48,3.75-.81,3.75-2.34,0-1.2-.66-2.22-3.12-2.22Zm3.12,7.71v-2.55c-.45,.45-1.92,.87-3.54,1.2-2.97,.63-4.35,1.38-4.35,3.21,0,1.5,.9,2.37,2.88,2.37,2.85,0,5.01-1.29,5.01-4.23Z"/><path class="cls-30" d="M522.5,23.39v21.45h-2.4v-1.89h-.06c-.9,1.17-2.34,2.31-4.8,2.31-3.84,0-6.9-3.03-6.9-8.07s3.06-8.07,6.9-8.07c2.46,0,3.9,1.08,4.8,2.4h.06v-8.13h2.4Zm-2.4,13.8c0-3.6-1.77-5.97-4.62-5.97-3.15,0-4.74,2.97-4.74,5.97s1.59,5.97,4.74,5.97c2.85,0,4.62-2.37,4.62-5.97Z"/><path class="cls-30" d="M533.54,31.22c-2.91,0-3.87,.84-4.02,3.06h-2.4c.15-2.94,1.98-5.16,6.42-5.16,2.91,0,5.52,1.14,5.52,4.83v7.44c0,1.2,.21,1.86,1.74,1.68v1.68c-.63,.21-.96,.24-1.41,.24-1.44,0-2.31-.39-2.73-2.07h-.06c-.96,1.44-2.67,2.34-5.19,2.34-3.09,0-5.04-1.77-5.04-4.35,0-3.48,2.58-4.38,6.54-5.13,2.58-.48,3.75-.81,3.75-2.34,0-1.2-.66-2.22-3.12-2.22Zm3.12,7.71v-2.55c-.45,.45-1.92,.87-3.54,1.2-2.97,.63-4.35,1.38-4.35,3.21,0,1.5,.9,2.37,2.88,2.37,2.85,0,5.01-1.29,5.01-4.23Z"/><path class="cls-30" d="M556.13,40.64c0,2.79-2.55,4.62-6.03,4.62-4.68,0-6.84-2.22-6.99-5.52h2.4c.15,1.71,.75,3.42,4.59,3.42,2.61,0,3.63-1.35,3.63-2.37,0-2.22-2.01-2.34-4.2-2.88-2.34-.57-5.82-.84-5.82-4.44,0-2.4,2.13-4.35,5.73-4.35,3.81,0,5.85,2.16,6.09,4.8h-2.4c-.24-1.17-.81-2.7-3.69-2.7-2.16,0-3.33,.87-3.33,2.07,0,1.8,2.07,1.95,4.2,2.46,2.73,.66,5.82,1.11,5.82,4.89Z"/><path class="cls-30" d="M578.45,40.13h2.4c-.78,2.85-2.97,5.13-6.78,5.13-4.65,0-7.47-3.27-7.47-8.07,0-5.1,2.88-8.07,7.35-8.07,4.8,0,7.14,3.27,7.14,8.7h-12.09c0,2.76,1.65,5.34,4.98,5.34,3.06,0,4.2-1.98,4.47-3.03Zm-9.45-4.41h9.69c0-2.46-1.86-4.5-4.74-4.5s-4.95,2.04-4.95,4.5Z"/><path class="cls-30" d="M597.59,34.16v10.68h-2.4v-10.08c0-1.98-.93-3.54-3.33-3.54-2.7,0-4.5,1.71-4.5,4.08v9.54h-2.4v-15.3h2.4v1.83h.06c.81-1.08,2.43-2.25,5.04-2.25,2.79,0,5.13,1.53,5.13,5.04Z"/><path class="cls-30" d="M620.78,40.13h2.4c-.78,2.85-2.97,5.13-6.78,5.13-4.65,0-7.47-3.27-7.47-8.07,0-5.1,2.88-8.07,7.35-8.07,4.8,0,7.14,3.27,7.14,8.7h-12.09c0,2.76,1.65,5.34,4.98,5.34,3.06,0,4.2-1.98,4.47-3.03Zm-9.45-4.41h9.69c0-2.46-1.86-4.5-4.74-4.5s-4.95,2.04-4.95,4.5Z"/><path class="cls-30" d="M629.78,23.39v21.45h-2.4V23.39h2.4Z"/><path class="cls-30" d="M645.83,31.64v9.21c0,1.74,.96,2.04,3,1.89v2.1c-.54,.12-1.17,.18-1.8,.18-2.04,0-3.6-.81-3.6-3.93v-9.45h-2.25v-2.1h2.25v-5.1h2.4v5.1h3v2.1h-3Z"/><path class="cls-30" d="M652.85,25.13c0-.93,.84-1.44,1.5-1.44s1.5,.51,1.5,1.44-.81,1.44-1.5,1.44-1.5-.51-1.5-1.44Zm2.7,4.41v15.3h-2.4v-15.3h2.4Z"/><path class="cls-30" d="M671.63,40.13h2.4c-.78,2.85-2.97,5.13-6.78,5.13-4.65,0-7.47-3.27-7.47-8.07,0-5.1,2.88-8.07,7.35-8.07,4.8,0,7.14,3.27,7.14,8.7h-12.09c0,2.76,1.65,5.34,4.98,5.34,3.06,0,4.2-1.98,4.47-3.03Zm-9.45-4.41h9.69c0-2.46-1.86-4.5-4.74-4.5s-4.95,2.04-4.95,4.5Z"/><path class="cls-30" d="M698.72,34.16v10.68h-2.4v-10.08c0-1.98-.39-3.54-2.79-3.54s-3.9,1.71-3.9,4.08v9.54h-2.4v-10.08c0-1.98-.39-3.54-2.79-3.54s-3.9,1.71-3.9,4.08v9.54h-2.4v-15.3h2.4v1.83h.06c.81-1.08,2.13-2.25,4.44-2.25,2.19,0,3.45,.93,4.08,2.64h.06c1.05-1.44,2.64-2.64,4.95-2.64,3.09,0,4.59,1.83,4.59,5.04Z"/><path class="cls-30" d="M717.59,37.19c0,5.04-3.06,8.07-6.84,8.07-2.52,0-3.96-1.08-4.86-2.4h-.06v7.14h-2.4V29.54h2.4v1.89h.06c.9-1.17,2.34-2.31,4.86-2.31,3.78,0,6.84,3.03,6.84,8.07Zm-2.4,0c0-3-1.59-5.97-4.74-5.97-2.85,0-4.62,2.37-4.62,5.97s1.77,5.97,4.62,5.97c3.15,0,4.74-2.97,4.74-5.97Z"/><path class="cls-30" d="M728.24,45.26c-4.68,0-7.5-3.3-7.5-8.07s2.82-8.07,7.5-8.07,7.47,3.3,7.47,8.07-2.82,8.07-7.47,8.07Zm0-2.1c3.42,0,5.07-2.7,5.07-5.97s-1.65-5.97-5.07-5.97-5.1,2.7-5.1,5.97,1.65,5.97,5.1,5.97Z"/><path class="cls-30" d="M738.56,43.49c0-1.14,.72-1.74,1.62-1.74,1.11,0,1.68,.93,1.68,2.34,0,1.59-.66,4.14-3,4.56v-1.5c.93-.21,1.5-1.02,1.5-2.13-.93,.3-1.8-.21-1.8-1.53Z"/><path class="cls-30" d="M767.99,37.19c0,5.04-3.06,8.07-6.84,8.07-2.52,0-3.96-1.08-4.86-2.4h-.06v7.14h-2.4V29.54h2.4v1.89h.06c.9-1.17,2.34-2.31,4.86-2.31,3.78,0,6.84,3.03,6.84,8.07Zm-2.4,0c0-3-1.59-5.97-4.74-5.97-2.85,0-4.62,2.37-4.62,5.97s1.77,5.97,4.62,5.97c3.15,0,4.74-2.97,4.74-5.97Z"/><path class="cls-30" d="M778.64,45.26c-4.68,0-7.5-3.3-7.5-8.07s2.82-8.07,7.5-8.07,7.47,3.3,7.47,8.07-2.82,8.07-7.47,8.07Zm0-2.1c3.42,0,5.07-2.7,5.07-5.97s-1.65-5.97-5.07-5.97-5.1,2.7-5.1,5.97,1.65,5.97,5.1,5.97Z"/><path class="cls-30" d="M798.14,29.21v2.4h-.06c-3.33-.54-5.64,1.8-5.64,5.07v8.16h-2.4v-15.3h2.4v3.03h.06c.81-2.01,2.04-3.45,4.23-3.45,.57,0,.99,.03,1.41,.09Z"/><path class="cls-30" d="M36.27,67.22c-3.63,0-5.01,3.09-5.01,5.97s1.38,5.97,5.01,5.97c3.09,0,4.2-2.13,4.32-3.96h2.4c-.21,3.48-2.94,6.06-6.72,6.06-4.47,0-7.41-3.27-7.41-8.07s2.94-8.07,7.41-8.07c3.78,0,6.36,2.52,6.72,5.94h-2.4c-.12-1.68-1.26-3.84-4.32-3.84Z"/><path class="cls-30" d="M53.34,67.22c-2.91,0-3.87,.84-4.02,3.06h-2.4c.15-2.94,1.98-5.16,6.42-5.16,2.91,0,5.52,1.14,5.52,4.83v7.44c0,1.2,.21,1.86,1.74,1.68v1.68c-.63,.21-.96,.24-1.41,.24-1.44,0-2.31-.39-2.73-2.07h-.06c-.96,1.44-2.67,2.34-5.19,2.34-3.09,0-5.04-1.77-5.04-4.35,0-3.48,2.58-4.38,6.54-5.13,2.58-.48,3.75-.81,3.75-2.34,0-1.2-.66-2.22-3.12-2.22Zm3.12,7.71v-2.55c-.45,.45-1.92,.87-3.54,1.2-2.97,.63-4.35,1.38-4.35,3.21,0,1.5,.9,2.37,2.88,2.37,2.85,0,5.01-1.29,5.01-4.23Z"/><path class="cls-30" d="M67.26,67.64v9.21c0,1.74,.96,2.04,3,1.89v2.1c-.54,.12-1.17,.18-1.8,.18-2.04,0-3.6-.81-3.6-3.93v-9.45h-2.25v-2.1h2.25v-5.1h2.4v5.1h3v2.1h-3Z"/><path class="cls-30" d="M85.11,76.13h2.4c-.78,2.85-2.97,5.13-6.78,5.13-4.65,0-7.47-3.27-7.47-8.07,0-5.1,2.88-8.07,7.35-8.07,4.8,0,7.14,3.27,7.14,8.7h-12.09c0,2.76,1.65,5.34,4.98,5.34,3.06,0,4.2-1.98,4.47-3.03Zm-9.45-4.41h9.69c0-2.46-1.86-4.5-4.74-4.5s-4.95,2.04-4.95,4.5Z"/><path class="cls-30" d="M104.91,65.54v14.46c0,4.08-2.58,6.15-6.78,6.15s-6.69-2.22-6.93-4.83h2.4c.3,1.56,1.56,2.73,4.41,2.73s4.5-1.23,4.5-4.08v-2.31h-.06c-.9,1.32-2.34,2.4-4.86,2.4-3.78,0-6.84-2.43-6.84-7.47s3.06-7.47,6.84-7.47c2.52,0,3.96,1.14,4.86,2.31h.06v-1.89h2.4Zm-2.4,7.05c0-3.6-1.77-5.37-4.62-5.37-3.15,0-4.74,2.37-4.74,5.37s1.59,5.37,4.74,5.37c2.85,0,4.62-1.77,4.62-5.37Z"/><path class="cls-30" d="M116.34,81.26c-4.68,0-7.5-3.3-7.5-8.07s2.82-8.07,7.5-8.07,7.47,3.3,7.47,8.07-2.82,8.07-7.47,8.07Zm0-2.1c3.42,0,5.07-2.7,5.07-5.97s-1.65-5.97-5.07-5.97-5.1,2.7-5.1,5.97,1.65,5.97,5.1,5.97Z"/><path class="cls-30" d="M135.83,65.21v2.4h-.06c-3.33-.54-5.64,1.8-5.64,5.07v8.16h-2.4v-15.3h2.4v3.03h.06c.81-2.01,2.04-3.45,4.23-3.45,.57,0,.99,.03,1.41,.09Z"/><path class="cls-30" d="M141.17,65.54v15.3h-2.4v-15.3h2.4Zm1.92-6.45l-2.19,3.81h-1.95l1.29-3.81h2.85Z"/><path class="cls-30" d="M151.46,67.22c-2.91,0-3.87,.84-4.02,3.06h-2.4c.15-2.94,1.98-5.16,6.42-5.16,2.91,0,5.52,1.14,5.52,4.83v7.44c0,1.2,.21,1.86,1.74,1.68v1.68c-.63,.21-.96,.24-1.41,.24-1.44,0-2.31-.39-2.73-2.07h-.06c-.96,1.44-2.67,2.34-5.19,2.34-3.09,0-5.04-1.77-5.04-4.35,0-3.48,2.58-4.38,6.54-5.13,2.58-.48,3.75-.81,3.75-2.34,0-1.2-.66-2.22-3.12-2.22Zm3.12,7.71v-2.55c-.45,.45-1.92,.87-3.54,1.2-2.97,.63-4.35,1.38-4.35,3.21,0,1.5,.9,2.37,2.88,2.37,2.85,0,5.01-1.29,5.01-4.23Z"/></g></svg>