<?xml version="1.0" encoding="UTF-8"?><svg id="Layer_1" xmlns="http://www.w3.org/2000/svg" xmlns:xlink="http://www.w3.org/1999/xlink" viewBox="0 0 384.27 393.29"><defs><style>.cls-1,.cls-2,.cls-3,.cls-4,.cls-5{fill:none;}.cls-2{stroke-width:1.13px;}.cls-2,.cls-3,.cls-4,.cls-5,.cls-6{stroke-miterlimit:10;}.cls-2,.cls-3,.cls-5{stroke:#000;}.cls-2,.cls-7,.cls-8,.cls-6{fill-rule:evenodd;}.cls-2,.cls-9{opacity:.9;}.cls-10{clip-path:url(#clippath);}.cls-11{fill:#010101;}.cls-12{fill:#a8d7b1;}.cls-13{fill:#e26f39;}.cls-14{fill:#231f20;}.cls-3{stroke-dasharray:0 0 3 3;}.cls-3,.cls-5{stroke-width:2.83px;}.cls-15{fill:url(#linear-gradient);fill-opacity:.8;}.cls-16{opacity:0;}.cls-16,.cls-7,.cls-8{stroke-linecap:square;stroke-linejoin:bevel;}.cls-16,.cls-6{fill:#b5b6b6;stroke:#9e9e9e;stroke-width:.28px;}.cls-17{clip-path:url(#clippath-70);}.cls-18{clip-path:url(#clippath-18);}.cls-7{fill:#f5f6f6;stroke-width:.28px;}.cls-7,.cls-8{stroke:#a2a0a0;}.cls-4{stroke:#010101;stroke-width:.57px;}.cls-8{fill:#cacac9;stroke-width:.28px;}.cls-6{opacity:.51;}</style><clipPath id="clippath"><circle class="cls-1" cx="-756.35" cy="-429.21" r="485.54"/></clipPath><clipPath id="clippath-18"><circle class="cls-1" cx="50.21" cy="-652.03" r="160.34"/></clipPath><clipPath id="clippath-70"><circle class="cls-1" cx="49.66" cy="-651.99" r="160.3"/></clipPath><linearGradient id="linear-gradient" x1="79.94" y1="329.83" x2="102.54" y2="329.83" gradientUnits="userSpaceOnUse"><stop offset="0" stop-color="#84684d"/><stop offset="1" stop-color="#955d2d"/></linearGradient></defs><g class="cls-10"><g vector-effect="none"><polyline class="cls-6" points=".05 -94.65 4.51 -94.4 6.14 -94.87 8.44 -96.09 10.22 -96.83 11.17 -96.93 12.01 -97.5 12.6 -98.21 13.32 -103.18 13.9 -104.43 16.15 -107.23 18.18 -109 20.35 -110.57 23.27 -111.67 27.46 -111.55 30.85 -111.16 32.76 -111.19 33.69 -111.07 34.35 -111.23 34.68 -111.56 34.69 -113.72 35.23 -114.42 36.27 -115.03 37.91 -115.03 39.87 -115.19 41.56 -115.04 43.81 -114.21 46.55 -114.15 48.34 -114.29 49.56 -113.46 50.54 -112.35 51.09 -111.43 51.42 -110.16 51.6 -109.2 51.96 -108.82 53.19 -108.25 54.81 -107.81 57.92 -107.29 60.94 -106.29 62.54 -105.61 64.79 -104.54 67.74 -101.91 68.72 -101.48 69.86 -101.22 70.62 -101.29 72.22 -102.41 73.97 -101.59 74.75 -101.69 76.45 -102.3 78.54 -101.54 83.94 -98.64 84.45 -98.71 84.96 -98.41 85.49 -97.75 85.94 -96.93 86.8 -94.43 88.56 -92.6 90.6 -90.94 92.77 -90.03 97.37 -87.84 99.54 -86.07 101.99 -83.06 105.05 -79.09 105.45 -78.73 111.28 -78.85 117.85 -78.84 118.97 -77.25 119.45 -74.1 120.34 -70.87 121.38 -68.63 121.8 -66.57 121.53 -65.52 121.4 -64.32 121.4 -63.8 122.39 -63.05 123.47 -61.33 124.05 -58.94 123.93 -57.67 124.19 -56.62 124.73 -55.72 125.34 -54.23 125.47 -53.33 125.11 -52.43 125.01 -51.31 124.87 -49.88 124.93 -48.76 124.23 -48.24 123.67 -47.86 124.05 -46.44 124.6 -45.24 125.25 -43.82 125.01 -42.84 124.96 -41.72 124.72 -39.92 125.16 -38.42 124.77 -37.15 124.18 -36.02 123.82 -35.12 123.96 -33.84 123.46 -33.39 122.54 -32.34 121.99 -31.59 121.02 -31.37 120.92 -30.77 121.19 -30.17 121.69 -29.79 122.6 -28.49 124.39 -26.26 120.47 -25.98 119.67 -23.99 118.83 -21.15 120.55 -15.41 120.43 -12.46 121.13 -10.79 122.36 -9.64 123.78 -9.01 126.24 -8.97 127.95 -8.52 128.25 -7.76 127.52 -6.64 126.41 -4.54 125.78 -3.62 123.99 .6 124.33 2.4 124.83 3.86 126.74 8.43 128.6 12.86 131.93 20.85 132.21 22.71 132.32 26.84 132.72 29.34 133.55 32.6 133.63 34.29 134.75 38.07 135.34 38.34 139.65 39.07 143.61 39.75 148.88 40.64 150.81 42.86 152.6 47.73 153.16 51.37 153.04 53.23 150.25 58.55 147.42 63.95 144.57 69.34 141.29 75.52 145.14 80 147.52 82.77 150.86 86.67 151.36 87.61 151.58 89.14 155.32 95.09 156.8 98.19 157.98 100.02 160.64 102.86 163.25 105.65 165.81 106.92 167.46 107.2 171.35 108.68 172.87 109.85 175.49 112.8 177.95 112.4 178.48 112.4 178.65 112.61 178.87 113.56 179.21 118.17 180.62 122.81 182.17 129.79 182.17 131 181.87 133.02 182.04 134.33 181.99 135.12 182.22 135.48 183.09 135.96 184.85 136.21 188.89 135.43 189.41 135.62 190.53 136.45 191.48 137.76 191.63 138.38 190.75 139.46 190.84 141.29 191.57 144.03 191.47 144.36 190.64 144.99 190.93 148.96 190.81 149.32 189.8 149.72 184.67 149.46 184.11 149.57 182.35 150.62 179.19 151.37 178.35 151.79 177.31 152.99 176.65 154.45 176.67 155.8 176.54 156.08 174.62 155.8 174.17 156.97 170.78 158.72 170.38 159.1 170.04 160.51 170.1 164.42 170.15 167.94 169.95 168.45 168.96 169.66 168.91 170.06 169.26 171.43 169.08 173.92 169.61 180.82 169.41 182.75 168.52 182.91 167.93 183.88 166.79 185.07 163.85 184.15 161.47 183.18 153.76 180.91 152.8 179.81 152.08 177.87 150.73 177.33 149.28 180.23 142.8 178.55 140.74 179.07 139.31 178.17 135.93 178.11 133.03 176.3 129.38 177.54 126.4 177.79 121.85 174.61 117.29 173.74 113.71 174.01 111.83 173.75 108.68 172.62 107.1 171.44 104.87 172.34 103.6 170.67 96.78 169.13 95.18 166.2 93.9 163.46 93.47 160.65 91.22 155.75 89.74 148.62 88.77 145.84 87.56 143.43 86.09 141.37 84.18 139.17 82.66 138.3 76.27 136.63 75.11 136.85 72.5 137.95 69.9 140.38 65.26 141.76 64.42 142.81 63.52 145.17 62.13 146.54 59.93 146.18 57.79 147.58 54 151.47 51.88 152.66 49.97 152.57 47.7 150.72 42.82 148.24 39.77 147.42 35.75 147.99 33.76 147.57 30.1 144.67 28.97 142.55 26.91 141.14 20.57 137.97 15.22 133.79 14.14 132.21 13.25 129.88 10.8 127.04 5.81 124.72 2.83 122.25 -.35 121.71 -3.25 121.78 -4.58 121.34 -5.88 120.28 -10.48 115.19 -10.78 113.18 -13.85 108.2 -14.65 106.43 -15.8 101.52 -16.64 100.23 -19.44 98.21 -20.01 96.88 -19.7 95.13 -19.87 93.79 -21.35 92.53 -23.42 91.86 -24.09 90.35 -24.12 87.43 -24.66 85.58 -26.79 82.65 -29.76 79.64 -32.91 75.2 -34.06 74.09 -35.11 71.18 -36.51 67.73 -37.99 67.49 -44.46 71.62 -46.82 69.29 -53.5 65.25 -54.01 64.64 -54.56 63.72 -53.86 63.18 -53.12 62.96 -51.48 63.68 -50.66 62.83 -51.22 61.46 -52.87 60.61 -54.96 60.68 -54.22 61.96 -56.03 63.18 -56.24 64.78 -55.69 66.75 -55.16 69.51 -55.79 70.85 -56.33 71.47 -58.96 71.64 -60.04 72.85 -60.8 73.15 -62.04 72.19 -62.86 71.42 -63.66 69.77 -63.99 68.62 -63.85 67.97 -64.28 67.01 -65.29 65.74 -66.23 65.05 -67.12 64.92 -67.93 64.15 -68.68 62.73 -70.14 61.8 -71 61.62 -71.59 57.25 -72.11 53.42 -72.63 49.62 -75.5 49.47 -78.08 49.33 -78.5 46.15 -79.28 40.23 -78.68 35.64 -78.03 31.23 -80.35 27.99 -82.82 24.53 -84.31 23.1 -86.42 18.78 -87.44 16.88 -88.21 16.15 -89 15.73 -91.63 15.89 -94.43 13.57 -97.72 10.85 -101.72 7.53 -105.15 5.36 -106.49 4.88 -109.52 4.71 -109.9 4.29 -110.26 3.1 -110.43 1.77 -109.73 -.23 -109.82 -1.49 -112.44 -5.72 -113.24 -6.95 -115.05 -7.46 -114.88 -8.67 -114.99 -9.49 -115.32 -10.13 -115.77 -10.44 -116.29 -10.47 -117.58 -9.97 -118.89 -11.88 -122.87 -17.31 -124 -17.97 -124.25 -18.34 -123.68 -20 -122.69 -22.47 -122.66 -23.9 -123.14 -25.47 -124.99 -28.43 -124.82 -29.68 -124.4 -31.12 -124.51 -32.2 -123.52 -32.04 -122.28 -32.03 -122.02 -32.91 -122.48 -36 -122.35 -37.12 -119.2 -42.34 -117.42 -43.51 -116.1 -44.58 -115.99 -46.15 -116.42 -46.95 -116.87 -48.13 -117.09 -48.98 -119.06 -51.31 -119.8 -52.49 -120.02 -53.56 -119.92 -55.46 -119.46 -56.93 -117.28 -57.8 -116.09 -58.54 -116.01 -59.2 -117.87 -60.27 -121.54 -60.6 -124.14 -60.3 -125.03 -60.63 -126.6 -62.71 -128.09 -63.81 -129.44 -64.52 -130.64 -64.39 -131.42 -64.67 -131.72 -65.56 -134.49 -72.37 -135.17 -73.3 -136.03 -73.53 -136.72 -73.57 -137.24 -74.04 -137.87 -74.98 -138.41 -76.21 -138.68 -77.83 -138.81 -79.21 -139.18 -80.1 -139.91 -80.99 -140.86 -81.62 -141.72 -82.38 -143.93 -88.34 -144.69 -89.95 -144.72 -90.11 -144.75 -90.43 -145.09 -91.8 -144.66 -92.99 -144.77 -93.45 -146.25 -94.95 -148.24 -96.46 -148.76 -96.72 -149.02 -98.32 -149.14 -99.53 -149.46 -100.62 -149.89 -101.24 -149.98 -101.73 -149.45 -102.91 -150.02 -103.68 -152.91 -105.58 -154.03 -106.54 -155.85 -106.73 -156.13 -107.35 -156.06 -108.69 -155.69 -110.3 -154.95 -111.88 -154.78 -112.72 -154.62 -114.14 -154.64 -115.15 -153.77 -116.57 -153.83 -116.94 -154.21 -117.44 -155.12 -117.73 -156.03 -117.85 -156.4 -118.11 -156.65 -118.87 -157.01 -121.96 -157.58 -123.82 -158.16 -125.16 -158.4 -128.2 -159.12 -128.81 -160.34 -130.41 -160.97 -131.76 -160.82 -132.26 -160.75 -133.14 -160.8 -134.3 -160.97 -135.13 -161.99 -135.93 -162.79 -136.78 -163.01 -137.71 -163.46 -138.85 -163.97 -139.75 -164.23 -140.34 -163.96 -140.69 -162.74 -140.96 -160.88 -140.78 -159.38 -140.76 -158.63 -141.34 -158.47 -146.82 -157.74 -148.26 -156.77 -149.1 -154.29 -147.15 -153.28 -146.47 -152.73 -146.45 -152.32 -145.98 -149.02 -141.37 -147.68 -140.02 -146.84 -138.86 -146.19 -137.58 -145.27 -136.71 -144.16 -136.25 -142.71 -135 -141.71 -134.03 -139.95 -132.02 -138.33 -131.27 -132.62 -129.81 -129.47 -129.14 -128.56 -128.94 -126.39 -129.92 -123.64 -129.79 -122.62 -129.74 -119.7 -133.84 -118.84 -135.21 -116.81 -135.92 -115.88 -137.55 -114.27 -139.52 -112.23 -141.38 -110.35 -143.05 -108.86 -144.06 -106.26 -146.41 -104.53 -147.23 -102.9 -147.2 -99.97 -144.44 -97.48 -141.93 -96.66 -140.83 -97.5 -139.84 -99.25 -138.88 -99.49 -138.18 -99.47 -137.29 -99.24 -136.43 -98.87 -135.73 -96.25 -134.1 -95.82 -133.21 -95.65 -132.3 -95.82 -131.74 -96.29 -131.41 -97.84 -130.95 -99.15 -130.42 -99.54 -129.9 -99.86 -129.28 -99.68 -128.6 -99.13 -127.82 -95.9 -125.69 -95.44 -124.91 -94.69 -123.85 -93.88 -123.21 -92.66 -123.03 -92.01 -122.6 -88.57 -118.66 -87.84 -118.39 -84.75 -119.25 -84.3 -119.21 -84.1 -118.24 -82.66 -112.65 -81.8 -109.76 -80.77 -106.95 -79.46 -104.39 -78.01 -101.94 -76.32 -100.44 -72.82 -98.62 -71.19 -98.1 -67.04 -97.73 -62.87 -96.93 -60.35 -96.08 -59.52 -95.48 -58.76 -94.56 -56.06 -90.27 -52.43 -87.21 -45.38 -82.62 -42.07 -81.1 -31.32 -78.21 -24.51 -78.37 -6.62 -83.95 -.59 -85.34 1.76 -85.34 .56 -84.23 -1.69 -83.59 -.12 -82.81 2.09 -82.68 3.09 -82.81 3.69 -83.52 3.61 -84.68 3.29 -85.83 1.32 -91 .05 -94.65"/><polyline class="cls-16" points=".05 -94.65 4.51 -94.4 6.14 -94.87 8.44 -96.09 10.22 -96.83 11.17 -96.93 12.01 -97.5 12.6 -98.21 13.32 -103.18 13.9 -104.43 16.15 -107.23 18.18 -109 20.35 -110.57 23.27 -111.67 27.46 -111.55 30.85 -111.16 32.76 -111.19 33.69 -111.07 34.35 -111.23 34.68 -111.56 34.69 -113.72 35.23 -114.42 36.27 -115.03 37.91 -115.03 39.87 -115.19 41.56 -115.04 43.81 -114.21 46.55 -114.15 48.34 -114.29 49.56 -113.46 50.54 -112.35 51.09 -111.43 51.42 -110.16 51.6 -109.2 51.96 -108.82 53.19 -108.25 54.81 -107.81 57.92 -107.29 60.94 -106.29 62.54 -105.61 64.79 -104.54 67.74 -101.91 68.72 -101.48 69.86 -101.22 70.62 -101.29 72.22 -102.41 73.97 -101.59 74.75 -101.69 76.45 -102.3 78.54 -101.54 83.94 -98.64 84.45 -98.71 84.96 -98.41 85.49 -97.75 85.94 -96.93 86.8 -94.43 88.56 -92.6 90.6 -90.94 92.77 -90.03 97.37 -87.84 99.54 -86.07 101.99 -83.06 105.05 -79.09 105.45 -78.73 111.28 -78.85 117.85 -78.84 118.97 -77.25 119.45 -74.1 120.34 -70.87 121.38 -68.63 121.8 -66.57 121.53 -65.52 121.4 -64.32 121.4 -63.8 122.39 -63.05 123.47 -61.33 124.05 -58.94 123.93 -57.67 124.19 -56.62 124.73 -55.72 125.34 -54.23 125.47 -53.33 125.11 -52.43 125.01 -51.31 124.87 -49.88 124.93 -48.76 124.23 -48.24 123.67 -47.86 124.05 -46.44 124.6 -45.24 125.25 -43.82 125.01 -42.84 124.96 -41.72 124.72 -39.92 125.16 -38.42 124.77 -37.15 124.18 -36.02 123.82 -35.12 123.96 -33.84 123.46 -33.39 122.54 -32.34 121.99 -31.59 121.02 -31.37 120.92 -30.77 121.19 -30.17 121.69 -29.79 122.6 -28.49 124.39 -26.26 120.47 -25.98 119.67 -23.99 118.83 -21.15 120.55 -15.41 120.43 -12.46 121.13 -10.79 122.36 -9.64 123.78 -9.01 126.24 -8.97 127.95 -8.52 128.25 -7.76 127.52 -6.64 126.41 -4.54 125.78 -3.62 123.99 .6 124.33 2.4 124.83 3.86 126.74 8.43 128.6 12.86 131.93 20.85 132.21 22.71 132.32 26.84 132.72 29.34 133.55 32.6 133.63 34.29 134.75 38.07 135.34 38.34 139.65 39.07 143.61 39.75 148.88 40.64 150.81 42.86 152.6 47.73 153.16 51.37 153.04 53.23 150.25 58.55 147.42 63.95 144.57 69.34 141.29 75.52 145.14 80 147.52 82.77 150.86 86.67 151.36 87.61 151.58 89.14 155.32 95.09 156.8 98.19 157.98 100.02 160.64 102.86 163.25 105.65 165.81 106.92 167.46 107.2 171.35 108.68 172.87 109.85 175.49 112.8 177.95 112.4 178.48 112.4 178.65 112.61 178.87 113.56 179.21 118.17 180.62 122.81 182.17 129.79 182.17 131 181.87 133.02 182.04 134.33 181.99 135.12 182.22 135.48 183.09 135.96 184.85 136.21 188.89 135.43 189.41 135.62 190.53 136.45 191.48 137.76 191.63 138.38 190.75 139.46 190.84 141.29 191.57 144.03 191.47 144.36 190.64 144.99 190.93 148.96 190.81 149.32 189.8 149.72 184.67 149.46 184.11 149.57 182.35 150.62 179.19 151.37 178.35 151.79 177.31 152.99 176.65 154.45 176.67 155.8 176.54 156.08 174.62 155.8 174.17 156.97 170.78 158.72 170.38 159.1 170.04 160.51 170.1 164.42 170.15 167.94 169.95 168.45 168.96 169.66 168.91 170.06 169.26 171.43 169.08 173.92 169.61 180.82 169.41 182.75 168.52 182.91 167.93 183.88 166.79 185.07 163.85 184.15 161.47 183.18 153.76 180.91 152.8 179.81 152.08 177.87 150.73 177.33 149.28 180.23 142.8 178.55 140.74 179.07 139.31 178.17 135.93 178.11 133.03 176.3 129.38 177.54 126.4 177.79 121.85 174.61 117.29 173.74 113.71 174.01 111.83 173.75 108.68 172.62 107.1 171.44 104.87 172.34 103.6 170.67 96.78 169.13 95.18 166.2 93.9 163.46 93.47 160.65 91.22 155.75 89.74 148.62 88.77 145.84 87.56 143.43 86.09 141.37 84.18 139.17 82.66 138.3 76.27 136.63 75.11 136.85 72.5 137.95 69.9 140.38 65.26 141.76 64.42 142.81 63.52 145.17 62.13 146.54 59.93 146.18 57.79 147.58 54 151.47 51.88 152.66 49.97 152.57 47.7 150.72 42.82 148.24 39.77 147.42 35.75 147.99 33.76 147.57 30.1 144.67 28.97 142.55 26.91 141.14 20.57 137.97 15.22 133.79 14.14 132.21 13.25 129.88 10.8 127.04 5.81 124.72 2.83 122.25 -.35 121.71 -3.25 121.78 -4.58 121.34 -5.88 120.28 -10.48 115.19 -10.78 113.18 -13.85 108.2 -14.65 106.43 -15.8 101.52 -16.64 100.23 -19.44 98.21 -20.01 96.88 -19.7 95.13 -19.87 93.79 -21.35 92.53 -23.42 91.86 -24.09 90.35 -24.12 87.43 -24.66 85.58 -26.79 82.65 -29.76 79.64 -32.91 75.2 -34.06 74.09 -35.11 71.18 -36.51 67.73 -37.99 67.49 -44.46 71.62 -46.82 69.29 -53.5 65.25 -54.01 64.64 -54.56 63.72 -53.86 63.18 -53.12 62.96 -51.48 63.68 -50.66 62.83 -51.22 61.46 -52.87 60.61 -54.96 60.68 -54.22 61.96 -56.03 63.18 -56.24 64.78 -55.69 66.75 -55.16 69.51 -55.79 70.85 -56.33 71.47 -58.96 71.64 -60.04 72.85 -60.8 73.15 -62.04 72.19 -62.86 71.42 -63.66 69.77 -63.99 68.62 -63.85 67.97 -64.28 67.01 -65.29 65.74 -66.23 65.05 -67.12 64.92 -67.93 64.15 -68.68 62.73 -70.14 61.8 -71 61.62 -71.59 57.25 -72.11 53.42 -72.63 49.62 -75.5 49.47 -78.08 49.33 -78.5 46.15 -79.28 40.23 -78.68 35.64 -78.03 31.23 -80.35 27.99 -82.82 24.53 -84.31 23.1 -86.42 18.78 -87.44 16.88 -88.21 16.15 -89 15.73 -91.63 15.89 -94.43 13.57 -97.72 10.85 -101.72 7.53 -105.15 5.36 -106.49 4.88 -109.52 4.71 -109.9 4.29 -110.26 3.1 -110.43 1.77 -109.73 -.23 -109.82 -1.49 -112.44 -5.72 -113.24 -6.95 -115.05 -7.46 -114.88 -8.67 -114.99 -9.49 -115.32 -10.13 -115.77 -10.44 -116.29 -10.47 -117.58 -9.97 -118.89 -11.88 -122.87 -17.31 -124 -17.97 -124.25 -18.34 -123.68 -20 -122.69 -22.47 -122.66 -23.9 -123.14 -25.47 -124.99 -28.43 -124.82 -29.68 -124.4 -31.12 -124.51 -32.2 -123.52 -32.04 -122.28 -32.03 -122.02 -32.91 -122.48 -36 -122.35 -37.12 -119.2 -42.34 -117.42 -43.51 -116.1 -44.58 -115.99 -46.15 -116.42 -46.95 -116.87 -48.13 -117.09 -48.98 -119.06 -51.31 -119.8 -52.49 -120.02 -53.56 -119.92 -55.46 -119.46 -56.93 -117.28 -57.8 -116.09 -58.54 -116.01 -59.2 -117.87 -60.27 -121.54 -60.6 -124.14 -60.3 -125.03 -60.63 -126.6 -62.71 -128.09 -63.81 -129.44 -64.52 -130.64 -64.39 -131.42 -64.67 -131.72 -65.56 -134.49 -72.37 -135.17 -73.3 -136.03 -73.53 -136.72 -73.57 -137.24 -74.04 -137.87 -74.98 -138.41 -76.21 -138.68 -77.83 -138.81 -79.21 -139.18 -80.1 -139.91 -80.99 -140.86 -81.62 -141.72 -82.38 -143.93 -88.34 -144.69 -89.95 -144.72 -90.11 -144.75 -90.43 -145.09 -91.8 -144.66 -92.99 -144.77 -93.45 -146.25 -94.95 -148.24 -96.46 -148.76 -96.72 -149.02 -98.32 -149.14 -99.53 -149.46 -100.62 -149.89 -101.24 -149.98 -101.73 -149.45 -102.91 -150.02 -103.68 -152.91 -105.58 -154.03 -106.54 -155.85 -106.73 -156.13 -107.35 -156.06 -108.69 -155.69 -110.3 -154.95 -111.88 -154.78 -112.72 -154.62 -114.14 -154.64 -115.15 -153.77 -116.57 -153.83 -116.94 -154.21 -117.44 -155.12 -117.73 -156.03 -117.85 -156.4 -118.11 -156.65 -118.87 -157.01 -121.96 -157.58 -123.82 -158.16 -125.16 -158.4 -128.2 -159.12 -128.81 -160.34 -130.41 -160.97 -131.76 -160.82 -132.26 -160.75 -133.14 -160.8 -134.3 -160.97 -135.13 -161.99 -135.93 -162.79 -136.78 -163.01 -137.71 -163.46 -138.85 -163.97 -139.75 -164.23 -140.34 -163.96 -140.69 -162.74 -140.96 -160.88 -140.78 -159.38 -140.76 -158.63 -141.34 -158.47 -146.82 -157.74 -148.26 -156.77 -149.1 -154.29 -147.15 -153.28 -146.47 -152.73 -146.45 -152.32 -145.98 -149.02 -141.37 -147.68 -140.02 -146.84 -138.86 -146.19 -137.58 -145.27 -136.71 -144.16 -136.25 -142.71 -135 -141.71 -134.03 -139.95 -132.02 -138.33 -131.27 -132.62 -129.81 -129.47 -129.14 -128.56 -128.94 -126.39 -129.92 -123.64 -129.79 -122.62 -129.74 -119.7 -133.84 -118.84 -135.21 -116.81 -135.92 -115.88 -137.55 -114.27 -139.52 -112.23 -141.38 -110.35 -143.05 -108.86 -144.06 -106.26 -146.41 -104.53 -147.23 -102.9 -147.2 -99.97 -144.44 -97.48 -141.93 -96.66 -140.83 -97.5 -139.84 -99.25 -138.88 -99.49 -138.18 -99.47 -137.29 -99.24 -136.43 -98.87 -135.73 -96.25 -134.1 -95.82 -133.21 -95.65 -132.3 -95.82 -131.74 -96.29 -131.41 -97.84 -130.95 -99.15 -130.42 -99.54 -129.9 -99.86 -129.28 -99.68 -128.6 -99.13 -127.82 -95.9 -125.69 -95.44 -124.91 -94.69 -123.85 -93.88 -123.21 -92.66 -123.03 -92.01 -122.6 -88.57 -118.66 -87.84 -118.39 -84.75 -119.25 -84.3 -119.21 -84.1 -118.24 -82.66 -112.65 -81.8 -109.76 -80.77 -106.95 -79.46 -104.39 -78.01 -101.94 -76.32 -100.44 -72.82 -98.62 -71.19 -98.1 -67.04 -97.73 -62.87 -96.93 -60.35 -96.08 -59.52 -95.48 -58.76 -94.56 -56.06 -90.27 -52.43 -87.21 -45.38 -82.62 -42.07 -81.1 -31.32 -78.21 -24.51 -78.37 -6.62 -83.95 -.59 -85.34 1.76 -85.34 .56 -84.23 -1.69 -83.59 -.12 -82.81 2.09 -82.68 3.09 -82.81 3.69 -83.52 3.61 -84.68 3.29 -85.83 1.32 -91 .05 -94.65"/></g></g><g><g class="cls-18"><path class="cls-7" d="M169.57-76.03h.06l1.61-.37,1.3,.31,1.55,.81,1.43,.31,1.36-.25,1.12-.06,.87,.12,.68,.25,.5,.43v.56l.19,1.05,.31,1.55,.19,1.43,.25,1.98-.06,1.12,.06,.43,.31,.56,.31,.93,.12,.5,.12,.37,.37,.74,.25,1.12,.19,1.49,.19,.68,.06,.37,.06,.62-.12,1.36-.12,1.55-.12,1.74-.06,1.43-.12,.74-.12,2.05-.43,1.05v.81l.06,.56-.12,.06-.25,.06-1.18-.87-1.18-.93h-.19l-.25,.12-.74,.68-.74,1.05-.37,.87-.56,.93-.87,1.49-.12,.31-.06,1.18-.06,1.12,.06,.19,.43,.06,.25,.93,.56,1.49,1.05,.93,.99,.43,1.49,.12h1.18v-.99l.25-1.61,.25-1.05,.19-.06,.31,.12,.19,.12,.5-.06,.81,.19h1.3l.99-.06h.62l-.31,1.74-.99,2.73-.37,1.24-.99,4.4-1.05,2.23-.56,.93-1.49,1.61-.43,.31-.37,.19-.62,.19-2.6,3.29-.99,1.61-.99,2.29-.87,1.24-1.36,2.73-1.18,2.11-1.12,1.92-1.92,2.6-.81,.74-.56,.37-1.49,1.55-2.11,2.42-1.61,2.17-2.36,2.42-1.3,1.05-2.05,2.11-.56,.31-2.23,1.92-1.61,1.18-2.54,1.36-.99,.37-2.29-.37-.99,.19-.87,.81-.19,1.18-.37,.19-.5-.06-1.55-.5-.87,.06-.56,.62-.5,.81-1.24,.06-2.11-.81-2.48-.5-.56-.06-1.3,.62-.43,.06-1.8-.12-.99-.37h-.93l-.74,.31-.87,.12-2.54,2.23h-1.24l-1.05,.25h-.56l-.99-.31h-.37l-.56,.12-.56,.37-1.3,.19-.5,.37-2.29,2.05-.5-.06-.37-.12h-1.12l-1.18-1.12-.5,.06,.12-.31,.06-.56-.25-.43-.19-.19-.5,.06-.25-.5-.74-.06-.25,.12h-.37v-.5l.06-.31v-.5l-.06-.56-.31-.19-.25-.06-.56,.06-.37,.06-.19,.19-.25,.43-.06,1.3-.25-.37-.25-.81-.06-.81,.19-.99,.62-.37v-.68l-.06-.56-.56-1.49-.19-.68-.56-.5-.37-1.12-.43-.43-.12-.81-.37-.62-.06-.99,.25-.56,.37-.31,.37,.5,.5-.19,.68-.74,.43-1.12,.12-1.74-.06-1.12-.37-2.79-.19-.62-1.12-2.05-1.24-2.73-1.55-4.28-.74-2.54-1.05-5.21-.99-2.91-1.24-2.73-.19-.19,.25-.31,.74-.62,.37-.19,.19,.06,.19-.19,.19-.43,.06-.43,.12-.56,.19-.37,.19-.68,.31-.43,.68-.31,.5,.37,.19,.37,.06,.5,.19,.25h.37l.25,.31,.12,.62-.06,.43-.19,.25v.37l.25,.43,.06,.43,.12,.56,.87,.31,.43,.19,.74,.06,.68,.25,.68,.43,1.12,.12,1.55-.25,1.24,.12,.99,.43,.74,.06,.5-.25,.19-.43v-.5l.25-.31,.5-.12,.43-.37,.37-.68,.74-.5,1.12-.43h.56l.06-1.05,.19-3.35,.19-3.35,.12-3.35,.19-3.35,.12-3.35,.12-3.35,.12-3.35,.12-3.16,.25,.25,1.61,1.67,.43,.87,.19,.56,.62,2.05,.43,1.8,.37,1.36v.62l.06,.62,.06,.31-.06,.31-.37,.74-.37,.56-.43,.74-.06,1.05,.06,1.18,.19,.62,.31,.19,.74-.31,.43,.12,.62,.25,2.05-.12,.25,.06,.74,.06,.25-.12,.25-.25,.31-.74,.25-.25,.43-.12,.5-.19,.43-.43,.74-1.43,1.43-1.3,.43-.31,.25-.37,.25-.43,.56-1.61,.43-1.36,.12-.62,.37-1.05,.43-.68,.43-.37,.19-.06,.5-.19,.62-.19,.68,.19,.68,.37,.74,.68,.81,.81,.37,.43,.37,.19,.74,.06h.5l.68,.81,.37,.06,.81,.25,1.05,.25,.68-.06,.74-.43h.5l.62,.06,.74-.12,.56-.19,.43-.37,.37-.43,.5-1.24,.31-.99,.43-1.18,.56-1.61,.19-1.12,.19-.31,.68-.37,.56-.25,1.49-.43,.31-.25,.31-.5,.68-.87,.81-.74,.43-.43,.93-3.6,.12-.43,.62-.93,.37-.43h.19l.31-.25,.43-.5,.5-.31,.56-.12,.37-.31,.19-.56,.31-.25h.37l.25-.19,.06-.37,.25-.31,.43-.25,.25-.31,.06-.37,.56-.87,1.05-1.36,.99-.74,.87-.19,.87-.25,.81-.43,.62-.62,.43-.87,.68-.5,1.05,.37m-7.32,59.27l.93-.5,.43-.31,.31-.25,.37-.37,.19-.87,.19-.74,.31-.37,.31-.25,.25-.37,.37-.93,.25-.93,.06-.37-.06-.37-.12-.43-.12-.56-.19-.06-.43-.31-.62-.62-.5-.56-.43-.81-.19-.12-.5-.56-.19-.31-.12-.37-.12-.12-.25,.12-.62,.19-1.3,.62-.81,.62-.74,.68-.68,.25-.5,.25-.43,.81-.43,.74-.37,.68-.19,.31-.19,.19-.19,.43-.43,.68-.37,.5-.5,.25-.62,.31-.25,.19-.06,.31,.19,.68,.19,.62,.31,.74,.19,.56,.31,.68,.19,.37-.06,.68,.06,.25,.12,.25,.12,.06,.12,.12,.31,.19,.06,.12,.19,.25,.19,.43,.37,.56,.43,.43,.74,.19,.62,.12,.19-.06,.25-.37,.19-.43,.12-.56,.19-.31,.87-1.43,.43-.56,.25-.06,.31-.12,.43-.06,.31,.06h.06l.31-.06" vector-effect="none"/></g><g class="cls-17"><path class="cls-8" d="M169.54-76.01h.06l1.61-.37,1.3,.31,1.55,.81,1.43,.31,1.36-.25,1.12-.06,.87,.12,.68,.25,.5,.43v.56l.19,1.05,.31,1.55,.19,1.43,.25,1.98-.06,1.12,.06,.43,.31,.56,.31,.93,.12,.5,.12,.37,.37,.74,.25,1.12,.19,1.49,.19,.68,.06,.37,.06,.62-.12,1.36-.12,1.55-.12,1.74-.06,1.43-.12,.74-.12,2.05-.43,1.05v.81l.06,.56-.12,.06-.25,.06-1.18-.87-1.18-.93h-.19l-.25,.12-.74,.68-.74,1.05-.37,.87-.56,.93-.87,1.49-.12,.31-.06,1.18-.06,1.12,.06,.19,.43,.06,.25,.93,.56,1.49,1.05,.93,.99,.43,1.49,.12h1.18v-.99l.25-1.61,.25-1.05,.19-.06,.31,.12,.19,.12,.5-.06,.81,.19h1.3l.99-.06h.62l-.31,1.74-.99,2.73-.37,1.24-.99,4.4-1.05,2.23-.56,.93-1.49,1.61-.43,.31-.37,.19-.62,.19-2.6,3.29-.99,1.61-.99,2.29-.87,1.24-1.36,2.73-1.18,2.11-1.12,1.92-1.92,2.6-.81,.74-.56,.37-1.49,1.55-2.11,2.42-1.61,2.17-2.36,2.42-1.3,1.05-2.05,2.11-.56,.31-2.23,1.92-1.61,1.18-2.54,1.36-.99,.37-2.29-.37-.99,.19-.87,.81-.19,1.18-.37,.19-.5-.06-1.55-.5-.87,.06-.56,.62-.5,.81-1.24,.06-2.11-.81-2.48-.5-.56-.06-1.3,.62-.43,.06-1.8-.12-.99-.37h-.93l-.74,.31-.87,.12-2.54,2.23h-1.24l-1.05,.25h-.56l-.99-.31h-.37l-.56,.12-.56,.37-1.3,.19-.5,.37-2.29,2.05-.5-.06-.37-.12h-1.12l-1.18-1.12-.5,.06,.12-.31,.06-.56-.25-.43-.19-.19-.5,.06-.25-.5-.74-.06-.25,.12h-.37v-.5l.06-.31v-.5l-.06-.56-.31-.19-.25-.06-.56,.06-.37,.06-.19,.19-.25,.43-.06,1.3-.25-.37-.25-.81-.06-.81,.19-.99,.62-.37v-.68l-.06-.56-.56-1.49-.19-.68-.56-.5-.37-1.12-.43-.43-.12-.81-.37-.62-.06-.99,.25-.56,.37-.31,.37,.5,.5-.19,.68-.74,.43-1.12,.12-1.74-.06-1.12-.37-2.79-.19-.62-1.12-2.05-1.24-2.73-1.55-4.28-.74-2.54-1.05-5.21-.99-2.91-1.24-2.73-.19-.19,.25-.31,.74-.62,.37-.19,.19,.06,.19-.19,.19-.43,.06-.43,.12-.56,.19-.37,.19-.68,.31-.43,.68-.31,.5,.37,.19,.37,.06,.5,.19,.25h.37l.25,.31,.12,.62-.06,.43-.19,.25v.37l.25,.43,.06,.43,.12,.56,.87,.31,.43,.19,.74,.06,.68,.25,.68,.43,1.12,.12,1.55-.25,1.24,.12,.99,.43,.74,.06,.5-.25,.19-.43v-.5l.25-.31,.5-.12,.43-.37,.37-.68,.74-.5,1.12-.43h.56l.06-1.05,.19-3.35,.19-3.35,.12-3.35,.19-3.35,.12-3.35,.12-3.35,.12-3.35,.12-3.16,.25,.25,1.61,1.67,.43,.87,.19,.56,.62,2.05,.43,1.8,.37,1.36v.62l.06,.62,.06,.31-.06,.31-.37,.74-.37,.56-.43,.74-.06,1.05,.06,1.18,.19,.62,.31,.19,.74-.31,.43,.12,.62,.25,2.05-.12,.25,.06,.74,.06,.25-.12,.25-.25,.31-.74,.25-.25,.43-.12,.5-.19,.43-.43,.74-1.43,1.43-1.3,.43-.31,.25-.37,.25-.43,.56-1.61,.43-1.36,.12-.62,.37-1.05,.43-.68,.43-.37,.19-.06,.5-.19,.62-.19,.68,.19,.68,.37,.74,.68,.81,.81,.37,.43,.37,.19,.74,.06h.5l.68,.81,.37,.06,.81,.25,1.05,.25,.68-.06,.74-.43h.5l.62,.06,.74-.12,.56-.19,.43-.37,.37-.43,.5-1.24,.31-.99,.43-1.18,.56-1.61,.19-1.12,.19-.31,.68-.37,.56-.25,1.49-.43,.31-.25,.31-.5,.68-.87,.81-.74,.43-.43,.93-3.6,.12-.43,.62-.93,.37-.43h.19l.31-.25,.43-.5,.5-.31,.56-.12,.37-.31,.19-.56,.31-.25h.37l.25-.19,.06-.37,.25-.31,.43-.25,.25-.31,.06-.37,.56-.87,1.05-1.36,.99-.74,.87-.19,.87-.25,.81-.43,.62-.62,.43-.87,.68-.5,1.05,.37m-7.25,59.26l.93-.5,.43-.31,.31-.25,.37-.37,.19-.87,.19-.74,.31-.37,.31-.25,.25-.37,.37-.93,.25-.93,.06-.37-.06-.37-.12-.43-.12-.56-.19-.06-.43-.31-.62-.62-.5-.56-.43-.81-.19-.12-.5-.56-.19-.31-.12-.37-.12-.12-.25,.12-.62,.19-1.3,.62-.81,.62-.74,.68-.68,.25-.5,.25-.43,.81-.43,.74-.37,.68-.19,.31-.19,.19-.19,.43-.43,.68-.37,.5-.5,.25-.62,.31-.25,.19-.06,.31,.19,.68,.19,.62,.31,.74,.19,.56,.31,.68,.19,.37-.06,.68,.06,.25,.12,.25,.12,.06,.12,.12,.31,.19,.06,.12,.19,.25,.19,.43,.37,.56,.43,.43,.74,.19,.62,.12,.19-.06,.25-.37,.19-.43,.12-.56,.19-.31,.87-1.43,.43-.56,.25-.06,.31-.12,.43-.06,.31,.06h.06l.31-.06" vector-effect="none"/></g></g><g><path class="cls-14" d="M118.07,300.16v-10.07h2.52c1.94-.04,4.12,.45,4.12,2.85s-2.18,2.89-4.12,2.84h-1.62v4.38h-.91Zm.91-5.22h2.2c1.35,0,2.55-.43,2.55-2.01s-1.2-2.01-2.55-2.01h-2.2v4.02Z"/><path class="cls-14" d="M131,293.16h.84v5.42c0,.54,.04,1.1,.07,1.58h-.86l-.04-1.03-.03-.03c-.49,.86-1.28,1.27-2.19,1.27-2.29,0-2.47-2.02-2.47-2.83v-4.38h.84v4.52c0,1.21,.7,1.92,1.84,1.92,1.38,0,2.01-1.16,2.01-2.41v-4.03Zm-.26-2.86l-1.77,2h-.61l1.27-2h1.12Z"/><path class="cls-14" d="M134.73,300.16h-.87c.03-.47,.07-1.03,.07-1.58v-8.49h.84v4.1l.03,.03c.49-.82,1.46-1.27,2.4-1.27,2.08,0,2.87,1.87,2.87,3.68s-.79,3.74-2.83,3.74c-1.02,0-1.87-.46-2.44-1.3l-.03,.06-.04,1.03Zm.04-3.64c0,1.59,.56,3.08,2.38,3.08,1.6,0,2.01-1.74,2.01-3.04s-.54-2.85-2.13-2.85-2.26,1.38-2.26,2.8Z"/><path class="cls-14" d="M142.67,300.16h-.84v-10.07h.84v10.07Z"/><path class="cls-14" d="M145.84,291.14h-.98v-1.05h.98v1.05Zm-.07,2.02v7h-.84v-7h.84Z"/><path class="cls-14" d="M152.44,295.31c-.07-1.07-.75-1.59-1.91-1.59-1.28,0-2.08,1.34-2.08,2.93s.8,2.96,2.08,2.96c1.09,0,1.84-.67,1.91-1.63h.91c-.22,1.6-1.14,2.4-2.73,2.4-2.09,0-3.07-1.8-3.07-3.71s1.05-3.71,3.12-3.71c1.44,0,2.61,.86,2.68,2.36h-.91Z"/><path class="cls-14" d="M161.01,296.66c0,1.84-1.03,3.71-3.26,3.71s-3.26-1.87-3.26-3.71,1.03-3.71,3.26-3.71,3.26,1.87,3.26,3.71Zm-3.26-2.94c-1.69,0-2.36,1.65-2.36,2.94s.67,2.94,2.36,2.94,2.36-1.65,2.36-2.94-.67-2.94-2.36-2.94Z"/></g><g><path class="cls-14" d="M118.07,262.26v-10.07h2.52c1.94-.04,4.11,.45,4.11,2.85s-2.18,2.89-4.11,2.84h-1.62v4.38h-.91Zm.91-5.22h2.2c1.35,0,2.55-.43,2.55-2.01s-1.2-2.01-2.55-2.01h-2.2v4.02Z"/><path class="cls-14" d="M126.88,262.26h-.84v-5.42c.01-.54-.04-1.1-.07-1.58h.87l.04,1.03h.03c.25-.71,.88-1.21,1.58-1.24,.28-.01,.56,0,.84,.01v.81c-.17-.01-.35-.06-.52-.06-1.24,0-1.9,.89-1.92,2.23v4.21Z"/><path class="cls-14" d="M131.6,253.23h-.98v-1.05h.98v1.05Zm-.07,2.02v7h-.84v-7h.84Z"/><path class="cls-14" d="M133.78,255.25l2.41,5.84,2.33-5.84h.92l-2.78,7h-.95l-2.86-7h.92Z"/><path class="cls-14" d="M144.44,257.32c-.08-1.14-.67-1.51-1.66-1.51-.88,0-1.6,.27-1.72,1.21h-.89c.21-1.44,1.28-1.98,2.62-1.98,1.55,0,2.51,.71,2.48,2.32v3.32c-.01,.54,.04,1.1,.07,1.58h-.86l-.03-1.03h-.03l-.04,.1c-.31,.59-1.24,1.14-2.19,1.14-1.3,0-2.33-.79-2.33-2.16,0-.95,.57-1.67,1.41-2.02,.94-.4,2.15-.26,3.17-.32v-.64Zm-2.09,4.38c1.83,0,2.18-1.51,2.09-2.97-1.19,.04-3.67-.18-3.67,1.58,0,.95,.73,1.39,1.58,1.39Z"/><path class="cls-14" d="M152.28,261.22l-.03-.06c-.57,.84-1.42,1.3-2.4,1.3-2.08,0-2.87-1.98-2.87-3.74s.79-3.68,2.87-3.68c.93,0,1.91,.45,2.4,1.27l.03-.03v-4.1h.84v8.49c0,.54,.04,1.1,.07,1.58h-.86l-.04-1.03Zm-2.29-5.41c-1.59,0-2.11,1.48-2.11,2.82s.38,3.07,1.98,3.07c1.83,0,2.38-1.52,2.38-3.11,0-1.42-.63-2.78-2.26-2.78Z"/><path class="cls-14" d="M161.23,258.76c0,1.84-1.03,3.71-3.26,3.71s-3.26-1.87-3.26-3.71,1.03-3.71,3.26-3.71,3.26,1.87,3.26,3.71Zm-3.26-2.94c-1.69,0-2.36,1.65-2.36,2.94s.67,2.94,2.36,2.94,2.36-1.65,2.36-2.94-.67-2.94-2.36-2.94Z"/></g><line class="cls-4" x1="107.44" y1="101.16" x2="107.44" y2="215.74"/><g><path class="cls-14" d="M119.47,335.32v-10.07h2.52c1.94-.04,4.12,.45,4.12,2.84s-2.18,2.89-4.12,2.85h-1.62v4.38h-.91Zm.91-5.22h2.2c1.35,0,2.55-.43,2.55-2.01s-1.2-2.01-2.55-2.01h-2.2v4.02Z"/><path class="cls-14" d="M132.4,328.32h.84v5.42c0,.54,.04,1.1,.07,1.58h-.86l-.04-1.03-.03-.03c-.49,.87-1.28,1.27-2.19,1.27-2.29,0-2.47-2.02-2.47-2.83v-4.38h.84v4.52c0,1.21,.7,1.92,1.84,1.92,1.38,0,2.01-1.16,2.01-2.41v-4.03Zm-.26-2.86l-1.77,2h-.61l1.27-2h1.12Z"/><path class="cls-14" d="M136.12,335.32h-.87c.03-.47,.07-1.03,.07-1.58v-8.49h.84v4.1l.03,.03c.49-.82,1.46-1.27,2.4-1.27,2.08,0,2.87,1.87,2.87,3.68s-.79,3.74-2.83,3.74c-1.02,0-1.87-.46-2.44-1.3l-.03,.06-.04,1.03Zm.04-3.64c0,1.59,.56,3.08,2.38,3.08,1.6,0,2.01-1.74,2.01-3.04s-.54-2.85-2.13-2.85-2.26,1.38-2.26,2.8Z"/><path class="cls-14" d="M144.07,335.32h-.84v-10.07h.84v10.07Z"/><path class="cls-14" d="M147.24,326.3h-.98v-1.05h.98v1.05Zm-.07,2.02v7h-.84v-7h.84Z"/><path class="cls-14" d="M153.83,330.47c-.07-1.07-.75-1.59-1.91-1.59-1.28,0-2.08,1.34-2.08,2.93s.79,2.96,2.08,2.96c1.09,0,1.84-.67,1.91-1.63h.91c-.22,1.6-1.14,2.4-2.73,2.4-2.09,0-3.07-1.8-3.07-3.71s1.05-3.71,3.12-3.71c1.44,0,2.61,.87,2.68,2.36h-.91Z"/><path class="cls-14" d="M162.41,331.82c0,1.84-1.03,3.71-3.26,3.71s-3.26-1.87-3.26-3.71,1.03-3.71,3.26-3.71,3.26,1.87,3.26,3.71Zm-3.26-2.94c-1.69,0-2.36,1.65-2.36,2.94s.67,2.94,2.36,2.94,2.36-1.64,2.36-2.94-.67-2.94-2.36-2.94Z"/><path class="cls-14" d="M171.08,328.32h.84v3.08h3.07v.84h-3.07v3.08h-.84v-3.08h-3.07v-.84h3.07v-3.08Z"/><path class="cls-14" d="M181.38,335.32v-10.07h2.52c1.94-.04,4.11,.45,4.11,2.84s-2.18,2.89-4.11,2.85h-1.62v4.38h-.91Zm.91-5.22h2.2c1.35,0,2.55-.43,2.55-2.01s-1.2-2.01-2.55-2.01h-2.2v4.02Z"/><path class="cls-14" d="M190.18,335.32h-.84v-5.43c.01-.54-.04-1.1-.07-1.58h.87l.04,1.03h.03c.25-.71,.88-1.21,1.58-1.24,.28-.01,.56,0,.84,.01v.81c-.17-.01-.35-.06-.52-.06-1.24,0-1.9,.89-1.92,2.23v4.21Z"/><path class="cls-14" d="M194.91,326.3h-.98v-1.05h.98v1.05Zm-.07,2.02v7h-.84v-7h.84Z"/><path class="cls-14" d="M197.08,328.32l2.41,5.84,2.33-5.84h.92l-2.78,7h-.95l-2.86-7h.92Z"/><path class="cls-14" d="M207.74,330.39c-.08-1.14-.67-1.51-1.66-1.51-.88,0-1.6,.27-1.72,1.21h-.89c.21-1.44,1.28-1.98,2.62-1.98,1.55,0,2.51,.71,2.48,2.32v3.32c-.01,.54,.04,1.1,.07,1.58h-.86l-.03-1.03h-.03l-.04,.1c-.31,.59-1.24,1.14-2.19,1.14-1.3,0-2.33-.79-2.33-2.16,0-.95,.57-1.67,1.41-2.02,.94-.4,2.15-.27,3.17-.32v-.64Zm-2.09,4.38c1.83,0,2.18-1.51,2.09-2.97-1.19,.04-3.67-.18-3.67,1.58,0,.95,.73,1.39,1.58,1.39Z"/><path class="cls-14" d="M215.58,334.29l-.03-.06c-.57,.84-1.42,1.3-2.4,1.3-2.08,0-2.87-1.98-2.87-3.74s.79-3.68,2.87-3.68c.93,0,1.91,.45,2.4,1.27l.03-.03v-4.1h.84v8.49c0,.54,.04,1.1,.07,1.58h-.86l-.04-1.03Zm-2.29-5.41c-1.59,0-2.11,1.48-2.11,2.82s.38,3.07,1.98,3.07c1.83,0,2.38-1.52,2.38-3.11,0-1.42-.63-2.78-2.26-2.78Z"/><path class="cls-14" d="M224.54,331.82c0,1.84-1.03,3.71-3.26,3.71s-3.26-1.87-3.26-3.71,1.03-3.71,3.26-3.71,3.26,1.87,3.26,3.71Zm-3.26-2.94c-1.69,0-2.36,1.65-2.36,2.94s.67,2.94,2.36,2.94,2.36-1.64,2.36-2.94-.67-2.94-2.36-2.94Z"/></g><g><path class="cls-14" d="M119.08,184.32h.03l3.19-9.16h.91l-3.64,10.07h-1.03l-3.68-10.07h.99l3.24,9.16Z"/><path class="cls-14" d="M127.6,180.29c-.08-1.14-.67-1.51-1.66-1.51-.88,0-1.6,.26-1.71,1.21h-.89c.21-1.44,1.28-1.98,2.62-1.98,1.55,0,2.51,.71,2.48,2.32v3.32c-.01,.54,.04,1.1,.07,1.58h-.87l-.03-1.03h-.03l-.04,.1c-.31,.59-1.24,1.14-2.19,1.14-1.3,0-2.33-.79-2.33-2.16,0-.95,.57-1.67,1.41-2.02,.93-.41,2.15-.27,3.17-.32v-.64Zm-2.09,4.38c1.83,0,2.18-1.51,2.09-2.97-1.19,.04-3.67-.18-3.67,1.58,0,.95,.72,1.4,1.58,1.4Z"/><path class="cls-14" d="M131.45,185.23h-.84v-5.43c.01-.54-.04-1.1-.07-1.58h.86l.04,1.03h.03c.25-.71,.88-1.21,1.58-1.24,.28-.01,.56,0,.84,.01v.81c-.17-.01-.35-.06-.52-.06-1.24,0-1.9,.89-1.92,2.23v4.21Z"/><path class="cls-14" d="M136.18,176.2h-.98v-1.05h.98v1.05Zm-.07,2.02v7h-.84v-7h.84Z"/><path class="cls-14" d="M144.38,181.73c0,1.84-1.03,3.71-3.26,3.71s-3.26-1.87-3.26-3.71,1.03-3.71,3.26-3.71,3.26,1.87,3.26,3.71Zm-3.26-2.94c-1.69,0-2.36,1.65-2.36,2.94s.67,2.94,2.36,2.94,2.36-1.65,2.36-2.94-.67-2.94-2.36-2.94Z"/><path class="cls-14" d="M148.44,178.02c1.32,0,2.44,.46,2.55,1.94h-.91c-.08-.88-.86-1.17-1.73-1.17-.78,0-1.58,.31-1.58,1.13,0,1.03,1.35,.93,3.25,1.6,.72,.25,1.19,.88,1.19,1.63,0,1.58-1.46,2.29-2.94,2.29-1.21,0-2.61-.57-2.63-2.12h.91c.07,1.05,.99,1.35,1.94,1.35,.89,0,1.83-.42,1.83-1.4s-1.1-1.17-2.22-1.42c-1.1-.27-2.22-.59-2.22-1.88,0-1.45,1.34-1.95,2.57-1.95Z"/></g><g class="cls-9" vector-effect="none"><g><path class="cls-5" d="M95.91,181.4c0,.48-.04,.95-.13,1.41"/><path class="cls-3" d="M94.67,185.58c-1.36,2.08-3.71,3.45-6.38,3.45-4.22,0-7.63-3.42-7.63-7.63s3.42-7.63,7.63-7.63c3.2,0,5.94,1.97,7.08,4.77"/><path class="cls-5" d="M95.78,179.99c.09,.46,.13,.93,.13,1.41"/></g></g><g><path class="cls-14" d="M120.43,212.09c-2.89,0-4.49-2.11-4.49-5.24s1.6-5.24,4.49-5.24,4.49,2.11,4.49,5.24-1.6,5.24-4.49,5.24Zm0-.84c2.51,0,3.51-2.2,3.51-4.41s-1-4.41-3.51-4.41-3.51,2.2-3.51,4.41,1,4.41,3.51,4.41Z"/><path class="cls-14" d="M127.57,205.65h-1.39v-.77h1.39v-1.49l.84-.36v1.85h1.59v.77h-1.59v4.69c-.01,.64,.32,.99,.96,.99,.25,0,.5-.01,.72-.08v.73c-.27,.07-.57,.12-.85,.12-1.77,0-1.67-1.13-1.67-2.08v-4.37Z"/><path class="cls-14" d="M132.45,211.89h-.84v-5.42c.01-.54-.04-1.1-.07-1.58h.86l.04,1.03h.03c.25-.71,.88-1.21,1.58-1.24,.28-.01,.56,0,.84,.01v.81c-.17-.01-.35-.06-.52-.06-1.24,0-1.9,.89-1.92,2.23v4.21Z"/><path class="cls-14" d="M142.28,208.39c0,1.84-1.03,3.71-3.26,3.71s-3.26-1.87-3.26-3.71,1.03-3.71,3.26-3.71,3.26,1.87,3.26,3.71Zm-3.26-2.94c-1.69,0-2.36,1.65-2.36,2.94s.67,2.94,2.36,2.94,2.36-1.65,2.36-2.94-.67-2.94-2.36-2.94Z"/><path class="cls-14" d="M146.34,204.68c1.32,0,2.44,.46,2.55,1.94h-.91c-.08-.88-.86-1.17-1.73-1.17-.78,0-1.58,.31-1.58,1.13,0,1.03,1.35,.93,3.25,1.6,.72,.25,1.19,.88,1.19,1.63,0,1.58-1.46,2.29-2.94,2.29-1.21,0-2.61-.57-2.64-2.12h.91c.07,1.05,.99,1.35,1.94,1.35,.89,0,1.83-.42,1.83-1.39s-1.1-1.17-2.22-1.42c-1.1-.26-2.22-.59-2.22-1.88,0-1.45,1.34-1.95,2.57-1.95Z"/></g><path class="cls-2" d="M95.91,207.73c0,4.22-3.42,7.63-7.63,7.63s-7.63-3.42-7.63-7.63,3.42-7.63,7.63-7.63,7.63,3.42,7.63,7.63" vector-effect="none"/><g><path class="cls-14" d="M117.14,135.4v-10.07h1.45l3.78,8.77,3.86-8.77h1.38v10.07h-.91v-9.3h-.03l-3.85,9.3h-.91l-3.85-9.26h-.03v9.26h-.91Z"/><path class="cls-14" d="M136.1,131.9c0,1.84-1.03,3.71-3.26,3.71s-3.26-1.87-3.26-3.71,1.03-3.71,3.26-3.71,3.26,1.87,3.26,3.71Zm-3.26-2.94c-1.69,0-2.36,1.65-2.36,2.94s.67,2.94,2.36,2.94,2.36-1.65,2.36-2.94-.67-2.94-2.36-2.94Z"/><path class="cls-14" d="M142.65,134.37l-.03-.06c-.57,.84-1.42,1.3-2.4,1.3-2.08,0-2.87-1.98-2.87-3.74s.79-3.68,2.87-3.68c.93,0,1.91,.45,2.4,1.27l.03-.03v-4.1h.84v8.49c0,.54,.04,1.1,.07,1.58h-.86l-.04-1.03Zm-2.29-5.41c-1.59,0-2.11,1.48-2.11,2.82s.38,3.07,1.98,3.07c1.83,0,2.38-1.52,2.38-3.11,0-1.42-.63-2.78-2.26-2.78Z"/><path class="cls-14" d="M146.07,132.1c.03,1.49,.71,2.75,2.43,2.75,.99,0,1.81-.71,2.02-1.67h.88c-.43,1.67-1.48,2.44-3.17,2.44-2.09,0-3.07-1.8-3.07-3.71s1.05-3.71,3.12-3.71c2.34,0,3.19,1.72,3.19,3.91h-5.41Zm4.5-.77c-.1-1.35-.82-2.37-2.27-2.37-1.37,0-2.09,1.14-2.2,2.37h4.48Z"/><path class="cls-14" d="M154.17,135.4h-.84v-5.43c.01-.54-.04-1.1-.07-1.58h.87l.04,1.03h.03c.25-.71,.88-1.21,1.58-1.24,.28-.01,.56,0,.84,.01v.81c-.17-.01-.35-.06-.52-.06-1.24,0-1.9,.89-1.92,2.23v4.21Z"/><path class="cls-14" d="M158.82,135.4h-.84v-5.43c0-.54-.04-1.1-.07-1.58h.87l.04,1.03,.03,.03c.49-.86,1.28-1.27,2.19-1.27,2.29,0,2.47,2.02,2.47,2.83v4.38h-.84v-4.52c0-1.21-.7-1.92-1.84-1.92-1.38,0-2.01,1.16-2.01,2.41v4.03Z"/><path class="cls-14" d="M171.76,131.9c0,1.84-1.03,3.71-3.26,3.71s-3.26-1.87-3.26-3.71,1.03-3.71,3.26-3.71,3.26,1.87,3.26,3.71Zm-3.26-2.94c-1.69,0-2.36,1.65-2.36,2.94s.67,2.94,2.36,2.94,2.36-1.65,2.36-2.94-.67-2.94-2.36-2.94Z"/></g><g><path class="cls-14" d="M121.99,103.87c-.17-1.23-1.23-1.73-2.37-1.73-2.58,0-3.36,2.34-3.36,4.41s.78,4.41,3.36,4.41c1.12,0,2.23-.56,2.48-1.81h.98c-.29,1.69-1.84,2.65-3.46,2.65-3.05,0-4.34-2.46-4.34-5.24s1.3-5.24,4.34-5.24c1.65,0,3.21,.75,3.35,2.57h-.98Z"/><path class="cls-14" d="M130.87,108.08c0,1.84-1.03,3.71-3.26,3.71s-3.26-1.87-3.26-3.71,1.03-3.71,3.26-3.71,3.26,1.87,3.26,3.71Zm-3.26-2.94c-1.69,0-2.36,1.65-2.36,2.94s.67,2.94,2.36,2.94,2.36-1.65,2.36-2.94-.67-2.94-2.36-2.94Z"/><path class="cls-14" d="M133.44,111.58h-.84v-5.43c0-.54-.04-1.1-.07-1.58h.87l.04,1.03,.03,.03c.49-.86,1.28-1.27,2.19-1.27,2.29,0,2.47,2.02,2.47,2.83v4.38h-.84v-4.52c0-1.21-.7-1.92-1.84-1.92-1.38,0-2.01,1.16-2.01,2.41v4.03Z"/><path class="cls-14" d="M140.95,105.35h-1.39v-.77h1.39v-1.49l.84-.36v1.86h1.59v.77h-1.59v4.69c-.01,.64,.32,.99,.96,.99,.25,0,.5-.01,.73-.08v.72c-.26,.07-.57,.13-.85,.13-1.77,0-1.67-1.13-1.67-2.08v-4.37Z"/><path class="cls-14" d="M145.49,108.28c.03,1.49,.71,2.75,2.43,2.75,.99,0,1.81-.71,2.02-1.67h.88c-.43,1.67-1.48,2.44-3.17,2.44-2.09,0-3.07-1.8-3.07-3.71s1.05-3.71,3.12-3.71c2.34,0,3.19,1.72,3.19,3.91h-5.41Zm4.5-.77c-.1-1.35-.82-2.37-2.27-2.37-1.37,0-2.09,1.14-2.2,2.37h4.48Z"/><path class="cls-14" d="M153.57,105.61l.03,.03c.49-.86,1.28-1.27,2.19-1.27,1.1,0,1.97,.61,2.27,1.53,.52-.82,1.33-1.53,2.41-1.53,2.29,0,2.47,2.02,2.47,2.83v4.38h-.84v-4.52c0-1.21-.7-1.92-1.84-1.92-1.38,0-2.01,1.16-2.01,2.41v4.03h-.84v-4.52c0-1.21-.7-1.92-1.84-1.92-1.38,0-2.01,1.16-2.01,2.41v4.03h-.84v-5.43c0-.54-.04-1.1-.07-1.58h.87l.04,1.03Z"/><path class="cls-14" d="M165.85,114.26h-.84v-8.1c.01-.54-.04-1.1-.07-1.58h.87l.04,1.03,.03,.03c.49-.82,1.46-1.27,2.4-1.27,2.08,0,2.87,1.87,2.87,3.68s-.79,3.74-2.83,3.74c-1.02,0-1.87-.46-2.44-1.3h-.03v3.77Zm2.38-3.24c1.6,0,2.01-1.77,2.01-3.07s-.54-2.82-2.13-2.82-2.26,1.35-2.26,2.78c0,1.59,.56,3.11,2.38,3.11Z"/><path class="cls-14" d="M178.93,108.08c0,1.84-1.03,3.71-3.26,3.71s-3.26-1.87-3.26-3.71,1.03-3.71,3.26-3.71,3.26,1.87,3.26,3.71Zm-3.26-2.94c-1.69,0-2.36,1.65-2.36,2.94s.67,2.94,2.36,2.94,2.36-1.65,2.36-2.94-.67-2.94-2.36-2.94Z"/><path class="cls-14" d="M181.5,111.58h-.84v-5.43c.01-.54-.04-1.1-.07-1.58h.87l.04,1.03h.03c.25-.71,.88-1.21,1.58-1.24,.28-.01,.56,0,.84,.01v.81c-.17-.01-.35-.06-.52-.06-1.24,0-1.9,.89-1.92,2.23v4.21Z"/><path class="cls-14" d="M189.27,106.65c-.08-1.14-.67-1.51-1.66-1.51-.88,0-1.6,.26-1.72,1.21h-.89c.21-1.44,1.28-1.98,2.62-1.98,1.55,0,2.51,.71,2.48,2.32v3.32c-.01,.54,.04,1.1,.07,1.58h-.86l-.03-1.03h-.03l-.04,.1c-.31,.59-1.24,1.14-2.19,1.14-1.3,0-2.33-.79-2.33-2.16,0-.95,.57-1.67,1.41-2.02,.93-.41,2.15-.27,3.17-.32v-.64Zm-2.09,4.38c1.83,0,2.18-1.51,2.09-2.97-1.19,.04-3.67-.18-3.67,1.58,0,.95,.73,1.4,1.58,1.4Zm2.16-9.3l-1.77,1.99h-.61l1.27-1.99h1.12Z"/><path class="cls-14" d="M193.11,111.58h-.84v-5.43c0-.54-.04-1.1-.07-1.58h.87l.04,1.03,.03,.03c.49-.86,1.28-1.27,2.19-1.27,2.29,0,2.47,2.02,2.47,2.83v4.38h-.84v-4.52c0-1.21-.7-1.92-1.84-1.92-1.38,0-2.01,1.16-2.01,2.41v4.03Z"/><path class="cls-14" d="M200.52,108.28c.03,1.49,.71,2.75,2.43,2.75,.99,0,1.81-.71,2.02-1.67h.88c-.43,1.67-1.48,2.44-3.17,2.44-2.09,0-3.07-1.8-3.07-3.71s1.05-3.71,3.12-3.71c2.34,0,3.19,1.72,3.19,3.91h-5.41Zm4.5-.77c-.1-1.35-.82-2.37-2.27-2.37-1.37,0-2.09,1.14-2.2,2.37h4.48Z"/><path class="cls-14" d="M213.81,108.08c0,1.84-1.03,3.71-3.26,3.71s-3.26-1.87-3.26-3.71,1.03-3.71,3.26-3.71,3.26,1.87,3.26,3.71Zm-3.26-2.94c-1.69,0-2.36,1.65-2.36,2.94s.67,2.94,2.36,2.94,2.36-1.65,2.36-2.94-.67-2.94-2.36-2.94Z"/></g><rect x="84.1" y="103.7" width="8.37" height="8.37" transform="translate(102.15 -30.83) rotate(45)"/><path class="cls-2" d="M95.34,155.35c0,4.22-3.42,7.63-7.63,7.63s-7.63-3.42-7.63-7.63,3.42-7.63,7.63-7.63,7.63,3.42,7.63,7.63" vector-effect="none"/><circle cx="87.71" cy="155.39" r="4.65"/><g><path class="cls-14" d="M118.44,158.45v-10.07h1.45l3.78,8.77,3.86-8.77h1.38v10.07h-.91v-9.3h-.03l-3.85,9.3h-.91l-3.85-9.26h-.03v9.26h-.91Z"/><path class="cls-14" d="M137.4,154.95c0,1.84-1.03,3.71-3.26,3.71s-3.26-1.87-3.26-3.71,1.03-3.71,3.26-3.71,3.26,1.87,3.26,3.71Zm-3.26-2.94c-1.69,0-2.36,1.65-2.36,2.94s.67,2.94,2.36,2.94,2.36-1.65,2.36-2.94-.67-2.94-2.36-2.94Z"/><path class="cls-14" d="M143.95,157.42l-.03-.06c-.57,.84-1.42,1.3-2.4,1.3-2.08,0-2.87-1.98-2.87-3.74s.79-3.68,2.87-3.68c.93,0,1.91,.45,2.4,1.27l.03-.03v-4.1h.84v8.49c0,.54,.04,1.1,.07,1.58h-.86l-.04-1.03Zm-2.29-5.41c-1.59,0-2.11,1.48-2.11,2.82s.38,3.07,1.98,3.07c1.83,0,2.38-1.52,2.38-3.11,0-1.42-.63-2.78-2.26-2.78Z"/><path class="cls-14" d="M147.37,155.15c.03,1.49,.71,2.75,2.43,2.75,.99,0,1.81-.71,2.02-1.67h.88c-.43,1.67-1.48,2.44-3.17,2.44-2.09,0-3.07-1.8-3.07-3.71s1.04-3.71,3.12-3.71c2.34,0,3.19,1.72,3.19,3.91h-5.41Zm4.5-.77c-.1-1.35-.82-2.37-2.27-2.37-1.37,0-2.09,1.14-2.2,2.37h4.48Z"/><path class="cls-14" d="M155.47,158.45h-.84v-5.43c.01-.54-.04-1.1-.07-1.58h.86l.04,1.03h.03c.25-.71,.88-1.21,1.58-1.24,.28-.01,.56,0,.84,.01v.81c-.17-.01-.35-.06-.52-.06-1.24,0-1.9,.89-1.92,2.23v4.21Z"/><path class="cls-14" d="M160.12,158.45h-.84v-5.43c0-.54-.04-1.1-.07-1.58h.87l.04,1.03,.03,.03c.49-.86,1.28-1.27,2.19-1.27,2.29,0,2.47,2.02,2.47,2.83v4.38h-.84v-4.52c0-1.21-.7-1.92-1.84-1.92-1.38,0-2.01,1.16-2.01,2.41v4.03Z"/><path class="cls-14" d="M173.06,154.95c0,1.84-1.03,3.71-3.26,3.71s-3.26-1.87-3.26-3.71,1.03-3.71,3.26-3.71,3.26,1.87,3.26,3.71Zm-3.26-2.94c-1.69,0-2.36,1.65-2.36,2.94s.67,2.94,2.36,2.94,2.36-1.65,2.36-2.94-.67-2.94-2.36-2.94Z"/><path class="cls-14" d="M176.96,148.38h.91l-3.64,11.41h-.88l3.61-11.41Z"/><path class="cls-14" d="M185.11,150.74c-.17-1.23-1.23-1.73-2.37-1.73-2.58,0-3.36,2.34-3.36,4.41s.78,4.41,3.36,4.41c1.12,0,2.23-.56,2.48-1.81h.98c-.29,1.69-1.84,2.65-3.46,2.65-3.05,0-4.34-2.46-4.34-5.24s1.3-5.24,4.34-5.24c1.65,0,3.21,.75,3.35,2.57h-.98Z"/><path class="cls-14" d="M193.99,154.95c0,1.84-1.03,3.71-3.26,3.71s-3.26-1.87-3.26-3.71,1.03-3.71,3.26-3.71,3.26,1.87,3.26,3.71Zm-3.26-2.94c-1.69,0-2.36,1.65-2.36,2.94s.67,2.94,2.36,2.94,2.36-1.65,2.36-2.94-.67-2.94-2.36-2.94Z"/><path class="cls-14" d="M196.56,158.45h-.84v-5.43c0-.54-.04-1.1-.07-1.58h.87l.04,1.03,.03,.03c.49-.86,1.28-1.27,2.19-1.27,2.29,0,2.47,2.02,2.47,2.83v4.38h-.84v-4.52c0-1.21-.7-1.92-1.84-1.92-1.38,0-2.01,1.16-2.01,2.41v4.03Z"/><path class="cls-14" d="M204.08,152.22h-1.39v-.77h1.39v-1.49l.84-.36v1.86h1.59v.77h-1.59v4.69c-.01,.64,.32,.99,.96,.99,.25,0,.5-.01,.73-.08v.72c-.27,.07-.57,.13-.85,.13-1.77,0-1.67-1.13-1.67-2.08v-4.37Z"/><path class="cls-14" d="M208.61,155.15c.03,1.49,.71,2.75,2.43,2.75,.99,0,1.81-.71,2.02-1.67h.88c-.43,1.67-1.48,2.44-3.17,2.44-2.09,0-3.07-1.8-3.07-3.71s1.04-3.71,3.12-3.71c2.34,0,3.19,1.72,3.19,3.91h-5.41Zm4.5-.77c-.1-1.35-.82-2.37-2.27-2.37-1.37,0-2.09,1.14-2.2,2.37h4.48Z"/><path class="cls-14" d="M216.7,152.48l.03,.03c.49-.86,1.28-1.27,2.19-1.27,1.1,0,1.97,.61,2.27,1.53,.52-.82,1.32-1.53,2.41-1.53,2.29,0,2.47,2.02,2.47,2.83v4.38h-.84v-4.52c0-1.21-.7-1.92-1.84-1.92-1.38,0-2.01,1.16-2.01,2.41v4.03h-.84v-4.52c0-1.21-.7-1.92-1.84-1.92-1.38,0-2.01,1.16-2.01,2.41v4.03h-.84v-5.43c0-.54-.04-1.1-.07-1.58h.86l.04,1.03Z"/><path class="cls-14" d="M228.97,161.13h-.84v-8.1c.01-.54-.04-1.1-.07-1.58h.86l.04,1.03,.03,.03c.49-.82,1.46-1.27,2.4-1.27,2.08,0,2.87,1.87,2.87,3.68s-.79,3.74-2.83,3.74c-1.02,0-1.87-.46-2.44-1.3h-.03v3.77Zm2.38-3.24c1.6,0,2.01-1.77,2.01-3.07s-.54-2.82-2.13-2.82-2.26,1.35-2.26,2.78c0,1.59,.56,3.11,2.38,3.11Z"/><path class="cls-14" d="M242.05,154.95c0,1.84-1.03,3.71-3.26,3.71s-3.26-1.87-3.26-3.71,1.03-3.71,3.26-3.71,3.26,1.87,3.26,3.71Zm-3.26-2.94c-1.69,0-2.36,1.65-2.36,2.94s.67,2.94,2.36,2.94,2.36-1.65,2.36-2.94-.67-2.94-2.36-2.94Z"/><path class="cls-14" d="M244.62,158.45h-.84v-5.43c.01-.54-.04-1.1-.07-1.58h.87l.04,1.03h.03c.25-.71,.88-1.21,1.58-1.24,.28-.01,.56,0,.84,.01v.81c-.17-.01-.35-.06-.52-.06-1.24,0-1.9,.89-1.92,2.23v4.21Z"/><path class="cls-14" d="M252.39,153.51c-.08-1.14-.67-1.51-1.66-1.51-.88,0-1.6,.26-1.71,1.21h-.89c.21-1.44,1.28-1.98,2.62-1.98,1.55,0,2.51,.71,2.48,2.32v3.32c-.01,.54,.04,1.1,.07,1.58h-.87l-.03-1.03h-.03l-.04,.1c-.31,.59-1.24,1.14-2.19,1.14-1.3,0-2.33-.79-2.33-2.16,0-.95,.57-1.67,1.41-2.02,.93-.41,2.15-.27,3.17-.32v-.64Zm-2.09,4.38c1.83,0,2.18-1.51,2.09-2.97-1.19,.04-3.67-.18-3.67,1.58,0,.95,.72,1.4,1.58,1.4Zm2.16-9.3l-1.77,1.99h-.61l1.27-1.99h1.12Z"/><path class="cls-14" d="M256.24,158.45h-.84v-5.43c0-.54-.04-1.1-.07-1.58h.86l.04,1.03,.03,.03c.49-.86,1.28-1.27,2.19-1.27,2.29,0,2.47,2.02,2.47,2.83v4.38h-.84v-4.52c0-1.21-.7-1.92-1.84-1.92-1.38,0-2.01,1.16-2.01,2.41v4.03Z"/><path class="cls-14" d="M263.64,155.15c.03,1.49,.71,2.75,2.43,2.75,.99,0,1.81-.71,2.02-1.67h.88c-.43,1.67-1.48,2.44-3.17,2.44-2.09,0-3.07-1.8-3.07-3.71s1.05-3.71,3.12-3.71c2.34,0,3.19,1.72,3.19,3.91h-5.41Zm4.5-.77c-.1-1.35-.82-2.37-2.27-2.37-1.37,0-2.09,1.14-2.2,2.37h4.48Z"/><path class="cls-14" d="M276.94,154.95c0,1.84-1.03,3.71-3.26,3.71s-3.26-1.87-3.26-3.71,1.03-3.71,3.26-3.71,3.26,1.87,3.26,3.71Zm-3.26-2.94c-1.69,0-2.36,1.65-2.36,2.94s.67,2.94,2.36,2.94,2.36-1.65,2.36-2.94-.67-2.94-2.36-2.94Z"/></g><rect x="83.43" y="128.6" width="9.46" height="9.46"/><circle class="cls-12" cx="91.24" cy="256.96" r="11.3"/><circle class="cls-15" cx="91.24" cy="329.83" r="11.3"/><circle class="cls-13" cx="91.24" cy="293.19" r="11.3"/><g><path class="cls-11" d="M71.79,27.73h3.39c1.23,0,2.07,.07,2.76,.81,.5,.52,.74,1.2,.74,1.96s-.25,1.43-.8,1.98c-.53,.53-1.23,.87-3.05,.87h-1.64v4.5h-1.4v-10.11Zm1.4,4.44h1.67c.92,0,2.34-.07,2.34-1.72s-1.32-1.58-2.04-1.58h-1.96v3.31Z"/><path class="cls-11" d="M84.21,37.84c-.1-.35-.13-.69-.13-1.05-.63,1.16-1.58,1.27-2.17,1.27-1.61,0-2.48-.91-2.48-2.07,0-.56,.2-1.46,1.23-2.06,.76-.42,1.88-.46,2.44-.46,.34,0,.55,.01,.95,.04,0-.87,0-1.25-.25-1.56-.27-.35-.84-.46-1.22-.46-1.33,0-1.4,.91-1.42,1.19h-1.32c.04-.36,.08-.85,.49-1.33,.53-.59,1.53-.76,2.27-.76,1.02,0,2.12,.32,2.49,1.04,.22,.42,.24,.76,.24,1.08l-.06,3.36c0,.11,.01,1.05,.11,1.77h-1.19Zm-.91-3.46c-.53,0-2.54,0-2.54,1.43,0,.45,.28,1.22,1.46,1.22,.67,0,1.18-.27,1.5-.76,.29-.48,.31-.87,.34-1.85-.24-.03-.43-.04-.76-.04Z"/><path class="cls-11" d="M87.78,32.24c0-.48-.03-.97-.07-1.43h1.33l.03,1.36c.25-.98,1.09-1.3,1.68-1.39,.39-.06,.69-.04,.91-.03v1.29c-.07-.03-.15-.04-.25-.06-.1-.01-.22-.01-.38-.01-1.55,0-1.92,.92-1.92,2.13v3.74h-1.33v-5.6Z"/><path class="cls-11" d="M97.44,37.84c-.1-.35-.13-.69-.13-1.05-.63,1.16-1.58,1.27-2.17,1.27-1.61,0-2.48-.91-2.48-2.07,0-.56,.2-1.46,1.23-2.06,.76-.42,1.88-.46,2.44-.46,.34,0,.55,.01,.95,.04,0-.87,0-1.25-.25-1.56-.27-.35-.84-.46-1.22-.46-1.33,0-1.4,.91-1.42,1.19h-1.32c.04-.36,.08-.85,.49-1.33,.53-.59,1.53-.76,2.27-.76,1.02,0,2.12,.32,2.49,1.04,.22,.42,.24,.76,.24,1.08l-.06,3.36c0,.11,.01,1.05,.11,1.77h-1.19Zm-.91-3.46c-.53,0-2.54,0-2.54,1.43,0,.45,.28,1.22,1.46,1.22,.67,0,1.18-.27,1.5-.76,.29-.48,.31-.87,.34-1.85-.24-.03-.43-.04-.76-.04Z"/><path class="cls-11" d="M104.86,27.74h1.32v10.1h-1.32v-10.1Z"/><path class="cls-11" d="M109.52,34.56c-.03,1.46,.57,2.54,2.02,2.54,.85,0,1.54-.45,1.65-1.46h1.32c-.04,.35-.1,.92-.6,1.47-.31,.35-1.01,.94-2.42,.94-2.21,0-3.26-1.37-3.26-3.6,0-1.39,.28-2.54,1.39-3.31,.67-.48,1.51-.52,1.92-.52,3.15,0,3.08,2.79,3.05,3.94h-5.06Zm3.71-.92c.01-.67-.11-2.07-1.74-2.07-.85,0-1.89,.52-1.92,2.07h3.66Z"/><path class="cls-11" d="M117.3,34.56c-.03,1.46,.57,2.54,2.02,2.54,.85,0,1.54-.45,1.65-1.46h1.32c-.04,.35-.1,.92-.6,1.47-.31,.35-1.01,.94-2.42,.94-2.21,0-3.26-1.37-3.26-3.6,0-1.39,.28-2.54,1.39-3.31,.67-.48,1.51-.52,1.92-.52,3.15,0,3.08,2.79,3.05,3.94h-5.06Zm3.71-.92c.01-.67-.11-2.07-1.74-2.07-.85,0-1.89,.52-1.92,2.07h3.66Z"/><path class="cls-11" d="M124.36,32.24c0-.48-.03-.97-.07-1.43h1.33l.03,1.36c.25-.98,1.09-1.3,1.68-1.39,.39-.06,.69-.04,.91-.03v1.29c-.07-.03-.15-.04-.25-.06-.1-.01-.22-.01-.38-.01-1.55,0-1.92,.92-1.92,2.13v3.74h-1.33v-5.6Z"/><path class="cls-11" d="M134.43,34.56c-.03,1.46,.57,2.54,2.02,2.54,.85,0,1.54-.45,1.65-1.46h1.32c-.04,.35-.1,.92-.6,1.47-.31,.35-1.01,.94-2.42,.94-2.21,0-3.26-1.37-3.26-3.6,0-1.39,.28-2.54,1.39-3.31,.67-.48,1.51-.52,1.92-.52,3.15,0,3.08,2.79,3.05,3.94h-5.06Zm3.71-.92c.01-.67-.11-2.07-1.74-2.07-.85,0-1.89,.52-1.92,2.07h3.66Z"/><path class="cls-11" d="M141.44,27.74h1.32v10.1h-1.32v-10.1Z"/><path class="cls-11" d="M153.2,33.06c-.03-.32-.13-1.47-1.4-1.47-1.82,0-1.82,2.12-1.82,2.65,0,1.44,.35,2.79,1.75,2.79,1.12,0,1.5-.84,1.53-1.53h1.33c-.08,1.37-1.11,2.52-2.84,2.52-.48,0-1.57-.1-2.31-.91-.42-.49-.84-1.23-.84-2.69,0-2.93,1.79-3.8,3.19-3.8,.46,0,1.51,.1,2.16,.87,.52,.6,.56,1.18,.59,1.57h-1.33Z"/><path class="cls-11" d="M160.48,37.84c-.1-.35-.13-.69-.13-1.05-.63,1.16-1.58,1.27-2.17,1.27-1.61,0-2.48-.91-2.48-2.07,0-.56,.2-1.46,1.23-2.06,.76-.42,1.88-.46,2.44-.46,.34,0,.55,.01,.95,.04,0-.87,0-1.25-.25-1.56-.27-.35-.84-.46-1.22-.46-1.33,0-1.4,.91-1.42,1.19h-1.32c.04-.36,.08-.85,.49-1.33,.53-.59,1.53-.76,2.27-.76,1.02,0,2.12,.32,2.49,1.04,.22,.42,.24,.76,.24,1.08l-.06,3.36c0,.11,.01,1.05,.11,1.77h-1.19Zm-.91-3.46c-.53,0-2.54,0-2.54,1.43,0,.45,.28,1.22,1.46,1.22,.67,0,1.18-.27,1.5-.76,.29-.48,.31-.87,.34-1.85-.24-.03-.43-.04-.76-.04Z"/><path class="cls-11" d="M164.05,32.24c0-.48-.03-.97-.07-1.43h1.33l.03,1.36c.25-.98,1.09-1.3,1.68-1.39,.39-.06,.69-.04,.91-.03v1.29c-.07-.03-.15-.04-.25-.06-.1-.01-.22-.01-.38-.01-1.55,0-1.92,.92-1.92,2.13v3.74h-1.33v-5.6Z"/><path class="cls-11" d="M168,30.78h1.25v-1.47l1.3-.42v1.89h1.57v.97h-1.57v4.22c0,.35,0,.94,.94,.94,.27,0,.52-.04,.63-.07v1.02c-.24,.04-.62,.08-1.09,.08-1.21,0-1.78-.35-1.78-1.5v-4.69h-1.25v-.97Z"/><path class="cls-11" d="M174.54,34.56c-.03,1.46,.57,2.54,2.02,2.54,.85,0,1.54-.45,1.65-1.46h1.32c-.04,.35-.1,.92-.6,1.47-.31,.35-1.01,.94-2.42,.94-2.21,0-3.26-1.37-3.26-3.6,0-1.39,.28-2.54,1.39-3.31,.67-.48,1.51-.52,1.92-.52,3.15,0,3.08,2.79,3.05,3.94h-5.06Zm3.71-.92c.01-.67-.11-2.07-1.74-2.07-.85,0-1.89,.52-1.92,2.07h3.66Z"/><path class="cls-11" d="M181.55,27.74h1.32v10.1h-1.32v-10.1Z"/><path class="cls-11" d="M188.23,30.78h1.25v-1.47l1.3-.42v1.89h1.57v.97h-1.57v4.22c0,.35,0,.94,.94,.94,.27,0,.52-.04,.63-.07v1.02c-.24,.04-.62,.08-1.09,.08-1.21,0-1.78-.35-1.78-1.5v-4.69h-1.25v-.97Z"/><path class="cls-11" d="M197.02,30.63c2.82,0,3.45,2.21,3.45,3.68,0,2.06-1.16,3.77-3.56,3.77s-3.46-1.61-3.46-3.67c0-1.74,.81-3.78,3.57-3.78Zm-.08,6.47c1,0,2.13-.71,2.13-2.83,0-1.75-.81-2.68-2.04-2.68-.84,0-2.2,.53-2.2,2.73,0,1.44,.62,2.77,2.12,2.77Z"/><path class="cls-11" d="M202.51,31.75l-.03-.94h1.33v1.02c.67-1.11,1.62-1.2,2.23-1.2,1.55,0,2.04,.8,2.3,1.32,.24-.39,.81-1.32,2.37-1.32,1.01,0,2.58,.42,2.58,2.49v4.72h-1.33v-4.51c0-.62-.11-.88-.24-1.06-.22-.32-.67-.62-1.34-.62-.85,0-1.32,.49-1.5,.74-.31,.43-.31,1.2-.31,1.51v3.94h-1.33v-4.65c0-.87-.5-1.54-1.54-1.54-.9,0-1.39,.56-1.54,.77-.29,.41-.31,.98-.31,1.43v3.99h-1.33v-6.09Z"/><path class="cls-11" d="M220.02,37.84c-.1-.35-.13-.69-.13-1.05-.63,1.16-1.58,1.27-2.17,1.27-1.61,0-2.48-.91-2.48-2.07,0-.56,.2-1.46,1.23-2.06,.76-.42,1.88-.46,2.44-.46,.34,0,.55,.01,.95,.04,0-.87,0-1.25-.25-1.56-.27-.35-.84-.46-1.22-.46-1.33,0-1.4,.91-1.42,1.19h-1.32c.04-.36,.08-.85,.49-1.33,.53-.59,1.53-.76,2.27-.76,1.02,0,2.12,.32,2.49,1.04,.22,.42,.24,.76,.24,1.08l-.06,3.36c0,.11,.01,1.05,.11,1.77h-1.19Zm-.91-3.46c-.53,0-2.54,0-2.54,1.43,0,.45,.28,1.22,1.46,1.22,.67,0,1.18-.27,1.5-.76,.29-.48,.31-.87,.34-1.85-.24-.03-.43-.04-.76-.04Z"/><path class="cls-11" d="M223.59,32.24c0-.48-.03-.97-.07-1.43h1.33l.03,1.36c.25-.98,1.09-1.3,1.68-1.39,.39-.06,.69-.04,.91-.03v1.29c-.07-.03-.15-.04-.25-.06-.1-.01-.22-.01-.38-.01-1.55,0-1.92,.92-1.92,2.13v3.74h-1.33v-5.6Z"/><path class="cls-11" d="M233.66,34.56c-.03,1.46,.57,2.54,2.02,2.54,.85,0,1.54-.45,1.65-1.46h1.32c-.04,.35-.1,.92-.6,1.47-.31,.35-1.01,.94-2.42,.94-2.21,0-3.26-1.37-3.26-3.6,0-1.39,.28-2.54,1.39-3.31,.67-.48,1.51-.52,1.92-.52,3.15,0,3.08,2.79,3.05,3.94h-5.06Zm3.71-.92c.01-.67-.11-2.07-1.74-2.07-.85,0-1.89,.52-1.92,2.07h3.66Z"/><path class="cls-11" d="M240.69,31.62v-.81s1.3,0,1.3,0v1.13c.17-.29,.67-1.27,2.27-1.27,.63,0,2.55,.24,2.55,2.4v4.78h-1.35v-4.47c0-.46-.06-.88-.38-1.2-.34-.32-.8-.48-1.25-.48-.95,0-1.83,.69-1.83,2.1v4.05h-1.32v-6.22Z"/><path class="cls-11" d="M75.79,49.86c-.03-.32-.13-1.47-1.4-1.47-1.82,0-1.82,2.12-1.82,2.65,0,1.44,.35,2.79,1.75,2.79,1.12,0,1.5-.84,1.53-1.53h1.33c-.08,1.37-1.11,2.52-2.84,2.52-.48,0-1.57-.1-2.31-.91-.42-.49-.84-1.23-.84-2.69,0-2.93,1.79-3.8,3.19-3.8,.46,0,1.51,.1,2.16,.87,.52,.6,.56,1.18,.59,1.57h-1.33Z"/><path class="cls-11" d="M79.99,47.61v4.52c0,.69,.15,1.55,1.5,1.55,.66,0,1.27-.22,1.65-.78,.29-.42,.29-.97,.29-1.32v-3.98h1.36v5.71c0,.14,.03,.92,.04,1.32h-1.37l-.03-1.2c-.25,.49-.73,1.27-2.24,1.27-1.74,0-2.55-.99-2.55-2.38v-4.72h1.34Z"/><path class="cls-11" d="M88.14,51.36c-.03,1.46,.57,2.54,2.02,2.54,.85,0,1.54-.45,1.65-1.46h1.32c-.04,.35-.1,.92-.6,1.47-.31,.35-1.01,.94-2.42,.94-2.21,0-3.26-1.37-3.26-3.6,0-1.39,.28-2.54,1.39-3.31,.67-.48,1.51-.52,1.92-.52,3.15,0,3.08,2.79,3.05,3.94h-5.06Zm3.71-.92c.01-.67-.11-2.07-1.74-2.07-.85,0-1.89,.52-1.92,2.07h3.66Z"/><path class="cls-11" d="M95.17,48.42v-.81s1.3,0,1.3,0v1.13c.17-.29,.67-1.27,2.27-1.27,.63,0,2.55,.24,2.55,2.4v4.78h-1.35v-4.47c0-.46-.06-.88-.38-1.2-.34-.32-.8-.48-1.25-.48-.95,0-1.83,.69-1.83,2.1v4.05h-1.32v-6.22Z"/><path class="cls-11" d="M102.6,47.58h1.25v-1.47l1.3-.42v1.89h1.57v.97h-1.57v4.22c0,.35,0,.94,.94,.94,.27,0,.52-.04,.63-.07v1.02c-.24,.04-.62,.08-1.09,.08-1.21,0-1.78-.35-1.78-1.5v-4.69h-1.25v-.97Z"/><path class="cls-11" d="M112.63,54.64c-.1-.35-.13-.69-.13-1.05-.63,1.16-1.58,1.27-2.17,1.27-1.61,0-2.48-.91-2.48-2.07,0-.56,.2-1.46,1.23-2.06,.76-.42,1.88-.46,2.44-.46,.34,0,.55,.01,.95,.04,0-.87,0-1.25-.25-1.56-.27-.35-.84-.46-1.22-.46-1.33,0-1.4,.91-1.42,1.19h-1.32c.04-.36,.08-.85,.49-1.33,.53-.59,1.53-.76,2.27-.76,1.02,0,2.12,.32,2.49,1.04,.22,.42,.24,.76,.24,1.08l-.06,3.36c0,.11,.01,1.05,.11,1.77h-1.19Zm-.91-3.46c-.53,0-2.54,0-2.54,1.43,0,.45,.28,1.22,1.46,1.22,.67,0,1.18-.27,1.5-.76,.29-.48,.31-.87,.34-1.85-.24-.03-.43-.04-.76-.04Z"/><path class="cls-11" d="M120.04,44.54h1.32v10.1h-1.32v-10.1Z"/><path class="cls-11" d="M128.2,54.64c-.1-.35-.13-.69-.13-1.05-.63,1.16-1.58,1.27-2.17,1.27-1.61,0-2.48-.91-2.48-2.07,0-.56,.2-1.46,1.23-2.06,.76-.42,1.88-.46,2.44-.46,.34,0,.55,.01,.95,.04,0-.87,0-1.25-.25-1.56-.27-.35-.84-.46-1.22-.46-1.33,0-1.4,.91-1.42,1.19h-1.32c.04-.36,.08-.85,.49-1.33,.53-.59,1.53-.76,2.27-.76,1.02,0,2.12,.32,2.49,1.04,.22,.42,.24,.76,.24,1.08l-.06,3.36c0,.11,.01,1.05,.11,1.77h-1.19Zm-.91-3.46c-.53,0-2.54,0-2.54,1.43,0,.45,.28,1.22,1.46,1.22,.67,0,1.18-.27,1.5-.76,.29-.48,.31-.87,.34-1.85-.24-.03-.43-.04-.76-.04Z"/><path class="cls-11" d="M136.34,52.55c-.01,.53,.27,1.27,1.54,1.27,.55,0,.95-.1,1.23-.45,.14-.18,.22-.42,.22-.66,0-.69-.49-.81-1.54-1.05-1.47-.34-2.7-.63-2.7-2.1,0-1.29,1.12-2.13,2.75-2.13,.88,0,2.11,.25,2.54,1.09,.18,.39,.18,.73,.18,1.02h-1.34c.04-1.06-.88-1.15-1.36-1.15-.2,0-1.43,0-1.43,1.01,0,.64,.63,.8,.99,.9,1.95,.46,2.37,.57,2.79,.97,.39,.36,.53,.85,.53,1.3,0,.78-.43,1.46-.95,1.78-.62,.38-1.36,.48-2.09,.48-1.43,0-2.76-.59-2.75-2.28h1.39Z"/><path class="cls-11" d="M142.46,44.55h1.58v1.44h-1.58v-1.44Zm.14,3.05h1.32v7.03h-1.32v-7.03Z"/><path class="cls-11" d="M147.74,55.19c.06,.78,.39,1.37,1.64,1.37,1.83,0,1.86-1.33,1.86-3.24-.56,1.16-1.89,1.19-2.31,1.19-.64,0-1.57-.14-2.16-.87-.6-.71-.8-1.65-.8-2.59,0-2.38,1.4-3.54,3.12-3.54,1.41,0,1.93,.7,2.21,1.06v-.97h1.29l-.03,1.27v4.4c-.01,1.69-.07,2.38-.35,2.91-.59,1.12-1.96,1.26-2.93,1.26-2.82,0-2.9-1.32-2.96-2.27h1.4Zm3.07-2.35c.28-.36,.48-.74,.48-2.02,0-.88-.2-1.39-.55-1.75-.35-.38-.91-.62-1.51-.62-1.67,0-1.89,1.68-1.89,2.58,0,1.08,.32,2.51,1.93,2.51,.77,0,1.22-.28,1.54-.7Z"/><path class="cls-11" d="M156.24,47.61v4.52c0,.69,.15,1.55,1.5,1.55,.66,0,1.27-.22,1.65-.78,.29-.42,.29-.97,.29-1.32v-3.98h1.36v5.71c0,.14,.03,.92,.04,1.32h-1.37l-.03-1.2c-.25,.49-.73,1.27-2.24,1.27-1.74,0-2.55-.99-2.55-2.38v-4.72h1.34Z"/><path class="cls-11" d="M163.46,44.55h1.58v1.44h-1.58v-1.44Zm.14,3.05h1.32v7.03h-1.32v-7.03Z"/><path class="cls-11" d="M168.28,51.36c-.03,1.46,.57,2.54,2.02,2.54,.85,0,1.54-.45,1.65-1.46h1.32c-.04,.35-.1,.92-.6,1.47-.31,.35-1.01,.94-2.42,.94-2.21,0-3.26-1.37-3.26-3.6,0-1.39,.28-2.54,1.39-3.31,.67-.48,1.51-.52,1.92-.52,3.15,0,3.08,2.79,3.05,3.94h-5.06Zm3.71-.92c.01-.67-.11-2.07-1.74-2.07-.85,0-1.89,.52-1.92,2.07h3.66Z"/><path class="cls-11" d="M175.3,48.42v-.81s1.3,0,1.3,0v1.13c.17-.29,.67-1.27,2.27-1.27,.63,0,2.55,.24,2.55,2.4v4.78h-1.34v-4.47c0-.46-.06-.88-.38-1.2-.34-.32-.8-.48-1.25-.48-.95,0-1.83,.69-1.83,2.1v4.05h-1.32v-6.22Z"/><path class="cls-11" d="M182.74,47.58h1.25v-1.47l1.3-.42v1.89h1.57v.97h-1.57v4.22c0,.35,0,.94,.94,.94,.27,0,.52-.04,.63-.07v1.02c-.24,.04-.62,.08-1.09,.08-1.21,0-1.78-.35-1.78-1.5v-4.69h-1.25v-.97Z"/><path class="cls-11" d="M189.28,51.36c-.03,1.46,.57,2.54,2.02,2.54,.85,0,1.54-.45,1.65-1.46h1.32c-.04,.35-.1,.92-.6,1.47-.31,.35-1.01,.94-2.42,.94-2.21,0-3.26-1.37-3.26-3.6,0-1.39,.28-2.54,1.39-3.31,.67-.48,1.51-.52,1.92-.52,3.15,0,3.08,2.79,3.05,3.94h-5.06Zm3.71-.92c.01-.67-.11-2.07-1.74-2.07-.85,0-1.89,.52-1.92,2.07h3.66Z"/><path class="cls-11" d="M200.91,52.55c-.01,.53,.27,1.27,1.54,1.27,.55,0,.95-.1,1.23-.45,.14-.18,.22-.42,.22-.66,0-.69-.49-.81-1.54-1.05-1.47-.34-2.7-.63-2.7-2.1,0-1.29,1.12-2.13,2.75-2.13,.88,0,2.12,.25,2.54,1.09,.18,.39,.18,.73,.18,1.02h-1.34c.04-1.06-.88-1.15-1.36-1.15-.2,0-1.43,0-1.43,1.01,0,.64,.63,.8,.99,.9,1.95,.46,2.37,.57,2.79,.97,.39,.36,.53,.85,.53,1.3,0,.78-.43,1.46-.95,1.78-.62,.38-1.36,.48-2.09,.48-1.43,0-2.76-.59-2.75-2.28h1.39Z"/><path class="cls-11" d="M207.03,44.55h1.58v1.44h-1.58v-1.44Zm.14,3.05h1.32v7.03h-1.32v-7.03Z"/><path class="cls-11" d="M211.03,48.55l-.03-.94h1.33v1.02c.67-1.11,1.62-1.2,2.23-1.2,1.55,0,2.04,.8,2.3,1.32,.24-.39,.81-1.32,2.37-1.32,1.01,0,2.58,.42,2.58,2.49v4.72h-1.33v-4.51c0-.62-.11-.88-.24-1.06-.22-.32-.67-.62-1.34-.62-.85,0-1.32,.49-1.5,.74-.31,.43-.31,1.2-.31,1.51v3.94h-1.33v-4.65c0-.87-.5-1.54-1.54-1.54-.9,0-1.39,.56-1.54,.77-.29,.41-.31,.98-.31,1.43v3.99h-1.33v-6.09Z"/><path class="cls-11" d="M225.58,48.63c.18-.32,.7-1.2,2.3-1.2,.7,0,1.58,.17,2.23,.9,.35,.41,.83,1.11,.83,2.65,0,1.36-.32,2.1-.67,2.56-.56,.8-1.5,1.2-2.46,1.2-.34,0-.97-.04-1.57-.45-.39-.27-.55-.5-.69-.71l-.03,1.06h-1.27l.03-1.26v-8.85h1.32v4.1Zm1.99-.31c-2.02,0-2.02,2.35-2.02,2.8s0,2.66,1.96,2.66c1.62,0,2.03-1.58,2.03-2.73,0-.7-.14-2.73-1.98-2.73Z"/><path class="cls-11" d="M235.87,47.43c2.82,0,3.45,2.21,3.45,3.68,0,2.06-1.16,3.77-3.56,3.77s-3.46-1.61-3.46-3.67c0-1.74,.81-3.78,3.57-3.78Zm-.08,6.47c1,0,2.13-.71,2.13-2.83,0-1.75-.81-2.68-2.04-2.68-.84,0-2.2,.53-2.2,2.73,0,1.44,.62,2.77,2.12,2.77Z"/><path class="cls-11" d="M241.4,44.54h1.32v10.1h-1.32v-10.1Z"/><path class="cls-11" d="M248.31,47.43c2.82,0,3.45,2.21,3.45,3.68,0,2.06-1.16,3.77-3.56,3.77s-3.46-1.61-3.46-3.67c0-1.74,.81-3.78,3.57-3.78Zm-.08,6.47c1,0,2.13-.71,2.13-2.83,0-1.75-.81-2.68-2.04-2.68-.84,0-2.2,.53-2.2,2.73,0,1.44,.62,2.77,2.12,2.77Z"/><path class="cls-11" d="M255.07,55.19c.06,.78,.39,1.37,1.64,1.37,1.83,0,1.86-1.33,1.86-3.24-.56,1.16-1.89,1.19-2.31,1.19-.64,0-1.57-.14-2.16-.87-.6-.71-.8-1.65-.8-2.59,0-2.38,1.4-3.54,3.12-3.54,1.41,0,1.93,.7,2.21,1.06v-.97h1.29l-.03,1.27v4.4c-.01,1.69-.07,2.38-.35,2.91-.59,1.12-1.96,1.26-2.93,1.26-2.82,0-2.9-1.32-2.96-2.27h1.4Zm3.07-2.35c.28-.36,.48-.74,.48-2.02,0-.88-.2-1.39-.55-1.75-.35-.38-.91-.62-1.51-.62-1.67,0-1.89,1.68-1.89,2.58,0,1.08,.32,2.51,1.93,2.51,.77,0,1.22-.28,1.54-.7Z"/><path class="cls-11" d="M264.86,44.27l-1.69,2.02h-.91l1.15-2.02h1.46Zm-2.42,3.33h1.26v7.03h-1.26v-7.03Z"/><path class="cls-11" d="M270.55,54.64c-.1-.35-.13-.69-.13-1.05-.63,1.16-1.58,1.27-2.17,1.27-1.61,0-2.48-.91-2.48-2.07,0-.56,.2-1.46,1.23-2.06,.76-.42,1.88-.46,2.44-.46,.34,0,.55,.01,.95,.04,0-.87,0-1.25-.25-1.56-.27-.35-.84-.46-1.22-.46-1.33,0-1.4,.91-1.42,1.19h-1.32c.04-.36,.08-.85,.49-1.33,.53-.59,1.53-.76,2.27-.76,1.02,0,2.12,.32,2.49,1.04,.22,.42,.24,.76,.24,1.08l-.06,3.36c0,.11,.01,1.05,.11,1.77h-1.19Zm-.91-3.46c-.53,0-2.54,0-2.54,1.43,0,.45,.28,1.22,1.46,1.22,.67,0,1.18-.27,1.5-.76,.29-.48,.31-.87,.34-1.85-.24-.03-.43-.04-.76-.04Z"/><path class="cls-11" d="M273.97,47.54h1.55v1.65h-1.55v-1.65Zm0,5.45h1.55v1.65h-1.55v-1.65Z"/></g></svg>